M48
;GenerationSoftware,Autodesk,EAGLE,9.2.1*%
;CreationDate,2018-10-25T10:39:56Z*%
FMAT,2
ICI,OFF
METRIC,TZ,000.000
T9C0.350
T8C0.800
T7C1.016
T6C1.397
T5C1.400
T4C1.499
T3C2.032
T2C3.000
T1C3.500
%
G90
M71
T1
X75300Y30620
X75300Y42020
T2
X17250Y13250
X17250Y83250
X67250Y83250
X67250Y13250
T3
X77428Y10000
X82000Y10000
T4
X79005Y26755
X79005Y19745
T5
X72270Y44065
X72270Y28575
T6
X6830Y80290
X6830Y65050
X6830Y85370
X7080Y21630
X7080Y16550
X7080Y26710
X7080Y31790
X7080Y11470
X7080Y36870
X7080Y41950
X7080Y6390
X7080Y52110
X6830Y90450
X7080Y47030
X6830Y70130
X6830Y75210
T7
X52000Y91750
X54500Y91750
X59500Y91750
X79750Y65250
X79750Y85250
X81495Y20989
X81495Y25511
X79750Y90250
X79750Y72750
X72250Y49980
X72250Y52520
X72250Y55060
X57000Y91750
X64500Y91750
X79750Y87750
X79750Y75250
X79750Y77750
X62000Y91750
X79750Y60250
X79750Y62750
X72250Y47440
T8
X66430Y38220
X66430Y35680
X66430Y33140
X68970Y39500
X68970Y36960
X68970Y34420
X68970Y31880
X25112Y39285
X25112Y41825
X25112Y34205
X80840Y42945
X25112Y36745
X22572Y36745
X22572Y39285
X22572Y41825
X22572Y34205
X80840Y40405
X80840Y32235
X80840Y29695
X66430Y40760
T9
X45922Y19900
X49800Y18165
X24492Y29594
X35718Y41228
X62250Y86232
X39595Y39391
X53474Y77048
X18471Y21941
X47453Y62761
X39187Y57658
X21533Y31023
X61740Y51331
X60924Y75925
X48372Y67353
X54597Y78272
X47453Y77558
X47249Y32146
X58985Y32146
X47963Y32860
X62659Y34595
X45922Y33574
X49290Y30717
X49290Y70312
X56127Y11430
X45514Y18471
X42861Y35207
X45718Y36024
X27656Y38269
X42453Y90824
X60822Y80007
X38473Y37248
X82048Y73782
X35718Y36636
X31227Y37044
X40616Y60618
X68986Y75925
X68986Y72149
X38575Y39391
X63883Y82252
X78374Y37963
X60312Y71945
X39085Y61638
X38983Y35513
X40718Y40514
X62557Y62353
X60107Y69496
X38473Y40616
X59393Y62455
X16430Y40004
M30