M48
;GenerationSoftware,Autodesk,EAGLE,9.2.1*%
;CreationDate,2018-10-23T14:14:03Z*%
FMAT,2
ICI,OFF
METRIC,TZ,000.000
T9C0.350
T8C0.800
T7C1.016
T6C1.397
T5C1.400
T4C1.499
T3C2.032
T2C3.000
T1C3.500
%
G90
M71
T1
X75300Y42020
X75300Y30620
T2
X67250Y13250
X17250Y13250
X67250Y83250
X17250Y83250
T3
X82000Y10000
X77428Y10000
T4
X79005Y26755
X79005Y19745
T5
X72270Y44065
X72270Y28575
T6
X7080Y47030
X7080Y52110
X7080Y21630
X6830Y65050
X6830Y70130
X6830Y75210
X6830Y80290
X6830Y85370
X6830Y90450
X7080Y16550
X7080Y26710
X7080Y31790
X7080Y11470
X7080Y36870
X7080Y41950
X7080Y6390
T7
X72250Y52520
X72250Y55060
X79750Y85250
X79750Y87750
X79750Y90250
X79750Y72750
X79750Y75250
X79750Y60250
X79750Y62750
X79750Y65250
X79750Y77750
X72250Y49980
X81495Y25511
X81495Y20989
X72250Y47440
T8
X22572Y34205
X25112Y41825
X25112Y34205
X25112Y39285
X25112Y36745
X22572Y36745
X22572Y39285
X22572Y41825
X80840Y42945
X80840Y40405
X80840Y32235
X80840Y29695
X66430Y40760
X66430Y38220
X66430Y35680
X66430Y33140
X68970Y36960
X68970Y34420
X68970Y31880
X68970Y39500
T9
X40514Y79293
X39493Y80313
X42555Y75721
X57862Y77048
X35718Y37554
X53270Y77150
X47453Y49596
X40310Y42453
X62557Y67557
X62557Y63679
X48474Y49596
X41738Y42861
X41228Y39391
X64496Y76333
X40310Y61536
X38473Y36840
X40106Y83069
X40106Y41228
X61638Y82354
X47045Y87049
X58475Y63679
X47555Y80211
X56434Y72047
X42657Y40106
X7858Y55923
X52862Y78476
X57352Y80722
X69700Y49902
X57760Y61842
X54699Y82150
X4592Y37963
X64496Y32860
X61434Y32146
X49188Y66843
X39187Y62455
X18573Y48474
X49290Y32452
X47147Y46229
X46739Y70517
X48372Y77762
X56127Y11430
X37350Y13471
X45616Y20206
X42861Y37759
X45718Y36738
X28574Y38269
X56638Y81436
X41943Y33370
X20818Y32656
X38371Y79701
X43269Y74701
X19798Y32248
X22757Y45208
X29901Y49086
X40310Y59495
X51739Y70006
X43881Y89192
X59597Y77762
X29288Y41228
X33268Y45208
X40310Y60516
X62250Y78579
X70108Y52045
M30