M48
;GenerationSoftware,Autodesk,EAGLE,9.2.1*%
;CreationDate,2018-10-25T21:12:03Z*%
FMAT,2
ICI,OFF
METRIC,TZ,000.000
T10C0.350
T9C0.800
T8C1.000
T7C1.016
T6C1.397
T5C1.400
T4C1.499
T3C2.032
T2C3.000
T1C3.500
%
G90
M71
T1
X75300Y30620
X75300Y42020
T2
X67250Y13250
X17250Y13250
X67250Y83250
X17250Y83250
T3
X82000Y10000
X77428Y10000
T4
X79005Y26755
X79005Y19745
T5
X72270Y44065
X72270Y28575
T6
X6830Y75210
X6830Y65050
X6830Y85370
X6830Y90450
X7080Y21630
X7080Y16550
X7080Y26710
X7080Y31790
X7080Y11470
X6830Y80290
X7080Y36870
X7080Y41950
X7080Y6390
X7080Y47030
X7080Y52110
X6830Y70130
T7
X79750Y65250
X79750Y62750
X79750Y60250
X79750Y77750
X79750Y75250
X79750Y72750
X79750Y90250
X79750Y87750
X79750Y85250
X72250Y55060
X72250Y52520
X72250Y49980
X72250Y47440
X81495Y20989
X81495Y25511
T8
X59960Y88730
X65040Y91270
X65040Y88730
X62500Y91270
X62500Y88730
X59960Y91270
T9
X80840Y40405
X80840Y32235
X80840Y29695
X66430Y40760
X66430Y38220
X66430Y35680
X66430Y33140
X68970Y39500
X68970Y36960
X68970Y34420
X25112Y41825
X68970Y31880
X25112Y34205
X25112Y39285
X80840Y42945
X25112Y36745
X22572Y39285
X22572Y41825
X22572Y34205
X22572Y36745
T10
X13981Y14899
X14491Y17451
X60618Y86232
X54086Y65720
X48372Y75313
X37656Y74599
X60005Y59393
X40412Y43473
X61026Y66230
X55209Y61230
X42147Y55005
X61740Y60107
X26329Y42759
X63169Y71231
X42861Y61638
X59291Y83885
X55209Y25308
X49086Y31431
X82048Y72762
X41432Y56332
X39391Y79599
X32656Y38677
X34493Y36840
X61434Y75211
X60312Y70721
X60720Y60107
X33268Y43575
X62965Y73680
X40514Y82558
X49698Y64598
X45208Y62353
X26839Y37963
X60720Y72251
X54189Y71537
X29084Y36126
X45718Y36024
X47351Y32146
X39391Y34901
X51739Y62353
X57250Y73578
X56536Y68169
X54291Y79905
X58168Y83783
X28370Y28166
X39800Y80620
X54699Y68986
X55005Y74905
X61638Y33574
X48168Y34085
X64802Y33983
X58985Y36126
X24798Y43984
X46943Y46127
X56127Y11430
X37350Y13471
X45616Y20206
X42861Y35207
X41841Y82456
X57148Y54495
X45004Y59801
X58985Y32146
X51637Y69190
X47351Y34901
M30