G04 EAGLE Gerber RS-274X export*
G75*
%MOMM*%
%FSLAX34Y34*%
%LPD*%
%AMOC8*
5,1,8,0,0,1.08239X$1,22.5*%
G01*
%ADD10R,1.200000X0.800000*%
%ADD11R,1.200000X1.200000*%
%ADD12R,1.270000X1.470000*%
%ADD13R,0.800000X1.200000*%
%ADD14R,1.780000X3.200000*%
%ADD15R,1.498600X2.006600*%
%ADD16R,3.810000X2.006600*%
%ADD17R,2.800000X2.400000*%
%ADD18R,6.200000X5.400000*%
%ADD19R,1.600000X1.000000*%
%ADD20C,1.422400*%
%ADD21R,1.470000X1.270000*%
%ADD22R,3.810000X2.082800*%
%ADD23R,8.890000X11.430000*%
%ADD24C,1.524000*%
%ADD25R,1.308000X1.308000*%
%ADD26C,1.308000*%
%ADD27C,1.879600*%
%ADD28C,1.358000*%
%ADD29R,1.358000X1.358000*%
%ADD30C,2.095500*%
%ADD31C,0.300000*%
%ADD32C,0.906400*%


D10*
X442500Y178500D03*
X442500Y196500D03*
D11*
X648000Y165000D03*
X627000Y165000D03*
D12*
X679000Y75000D03*
X636000Y75000D03*
D13*
X439000Y42500D03*
X421000Y42500D03*
X599000Y165000D03*
X581000Y165000D03*
D14*
X609900Y100000D03*
X560100Y100000D03*
D15*
X545106Y231496D03*
X522246Y231496D03*
X499386Y231496D03*
D16*
X522500Y168504D03*
D17*
X810000Y43000D03*
X810000Y157000D03*
X749000Y43000D03*
X749000Y157000D03*
D18*
X437500Y105000D03*
D19*
X510500Y82200D03*
X510500Y127800D03*
D13*
X496000Y37500D03*
X514000Y37500D03*
D20*
X600200Y32888D02*
X600200Y47112D01*
X574800Y47112D02*
X574800Y32888D01*
D10*
X412500Y914000D03*
X412500Y896000D03*
D21*
X170000Y883500D03*
X170000Y926500D03*
D22*
X371400Y859600D03*
X371400Y910400D03*
D23*
X257100Y885000D03*
D10*
X735000Y589000D03*
X735000Y571000D03*
D24*
X794880Y620000D02*
X810120Y620000D01*
X810120Y595000D02*
X794880Y595000D01*
X794880Y570000D02*
X810120Y570000D01*
D10*
X737500Y731500D03*
X737500Y713500D03*
D24*
X794880Y762500D02*
X810120Y762500D01*
X810120Y737500D02*
X794880Y737500D01*
X794880Y712500D02*
X810120Y712500D01*
D10*
X415000Y784000D03*
X415000Y766000D03*
D21*
X170000Y738500D03*
X170000Y781500D03*
D22*
X371400Y729600D03*
X371400Y780400D03*
D23*
X257100Y755000D03*
D25*
X331125Y148250D03*
X331125Y72050D03*
D26*
X331125Y122850D03*
X331125Y97450D03*
X305725Y97450D03*
X305725Y122850D03*
X305725Y148250D03*
X305725Y72050D03*
D27*
X626200Y633000D03*
X626200Y658400D03*
X626200Y683800D03*
X626200Y709200D03*
X626200Y734600D03*
X626200Y760000D03*
X626200Y785400D03*
X626200Y810800D03*
X626200Y836200D03*
X626200Y861600D03*
X626200Y887000D03*
X626200Y912400D03*
X473800Y912400D03*
X473800Y887000D03*
X473800Y861600D03*
X473800Y836200D03*
X473800Y810800D03*
X473800Y785400D03*
X473800Y760000D03*
X473800Y734600D03*
X473800Y709200D03*
X473800Y683800D03*
X473800Y658400D03*
X473800Y633000D03*
D28*
X311400Y382900D03*
X311400Y357500D03*
X311400Y332100D03*
X311400Y306700D03*
X336800Y306700D03*
X336800Y332100D03*
X336800Y357500D03*
X336800Y382900D03*
X336800Y408300D03*
D29*
X311400Y408300D03*
D30*
X78778Y904500D02*
X57823Y904500D01*
X57823Y853700D02*
X78778Y853700D01*
X78778Y650500D02*
X57823Y650500D01*
X57823Y802900D02*
X78778Y802900D01*
X78778Y752100D02*
X57823Y752100D01*
X57823Y701300D02*
X78778Y701300D01*
X81278Y319500D02*
X60323Y319500D01*
X60323Y268700D02*
X81278Y268700D01*
X81278Y65500D02*
X60323Y65500D01*
X60323Y217900D02*
X81278Y217900D01*
X81278Y167100D02*
X60323Y167100D01*
X60323Y116300D02*
X81278Y116300D01*
D10*
X415000Y634000D03*
X415000Y616000D03*
D21*
X172500Y611000D03*
X172500Y654000D03*
D22*
X373900Y599600D03*
X373900Y650400D03*
D23*
X259600Y625000D03*
D10*
X735000Y874000D03*
X735000Y856000D03*
D24*
X794880Y905000D02*
X810120Y905000D01*
X810120Y880000D02*
X794880Y880000D01*
X794880Y855000D02*
X810120Y855000D01*
D10*
X132500Y184000D03*
X132500Y166000D03*
X132500Y134000D03*
X132500Y116000D03*
X132500Y84000D03*
X132500Y66000D03*
D31*
X169125Y925375D02*
X89375Y925375D01*
X68750Y904750D01*
X169125Y925375D02*
X170000Y926500D01*
X68750Y904750D02*
X68300Y904500D01*
X88000Y782375D02*
X169125Y782375D01*
X77688Y792688D02*
X68750Y801625D01*
X77688Y792688D02*
X88000Y782375D01*
X169125Y782375D02*
X170000Y781500D01*
X68750Y801625D02*
X68300Y802900D01*
X512875Y79750D02*
X512875Y38500D01*
X512875Y79750D02*
X511500Y81125D01*
X512875Y38500D02*
X514000Y37500D01*
X511500Y81125D02*
X510500Y82200D01*
X514250Y39875D02*
X574750Y39875D01*
X574800Y40000D01*
X514250Y39875D02*
X514000Y37500D01*
X533500Y99000D02*
X559625Y99000D01*
X533500Y99000D02*
X514250Y79750D01*
X559625Y99000D02*
X560100Y100000D01*
X514250Y79750D02*
X510500Y82200D01*
X171875Y654500D02*
X121000Y654500D01*
X74250Y701250D01*
X68750Y701250D01*
X171875Y654500D02*
X172500Y654000D01*
X68750Y701250D02*
X68300Y701300D01*
X42625Y757625D02*
X77000Y792000D01*
X42625Y757625D02*
X42625Y727375D01*
X67375Y702625D01*
X77000Y792000D02*
X77688Y792688D01*
X67375Y702625D02*
X68300Y701300D01*
X67375Y884125D02*
X67375Y903375D01*
X67375Y884125D02*
X42625Y859375D01*
X42625Y827750D01*
X67375Y803000D01*
X67375Y903375D02*
X68300Y904500D01*
X67375Y803000D02*
X68300Y802900D01*
X441375Y177375D02*
X441375Y108625D01*
X438625Y105875D01*
X441375Y177375D02*
X442500Y178500D01*
X438625Y105875D02*
X437500Y105000D01*
X644875Y165000D02*
X647625Y165000D01*
X644875Y165000D02*
X578875Y231000D01*
X545875Y231000D01*
X647625Y165000D02*
X648000Y165000D01*
X545875Y231000D02*
X545106Y231496D01*
X779625Y158125D02*
X809875Y158125D01*
X779625Y158125D02*
X764500Y173250D01*
X657250Y173250D01*
X649000Y165000D01*
X809875Y158125D02*
X810000Y157000D01*
X649000Y165000D02*
X648000Y165000D01*
X441375Y178750D02*
X441375Y181500D01*
X431750Y191125D01*
X431750Y202125D01*
X475750Y246125D01*
X532125Y246125D01*
X545875Y232375D01*
X442500Y178500D02*
X441375Y178750D01*
X545106Y231496D02*
X545875Y232375D01*
X412500Y913000D02*
X374000Y913000D01*
X372625Y911625D01*
X412500Y913000D02*
X412500Y914000D01*
X372625Y911625D02*
X371400Y910400D01*
X415250Y783750D02*
X426250Y772750D01*
X426250Y704000D01*
X389813Y667563D02*
X374000Y651750D01*
X389813Y667563D02*
X393938Y671688D01*
X426250Y704000D01*
X415250Y783750D02*
X415000Y784000D01*
X374000Y651750D02*
X373900Y650400D01*
X371250Y765875D02*
X371250Y779625D01*
X371250Y765875D02*
X347875Y742500D01*
X347875Y717750D01*
X393250Y672375D01*
X371250Y779625D02*
X371400Y780400D01*
X393250Y672375D02*
X393938Y671688D01*
X423500Y903375D02*
X413875Y913000D01*
X423500Y903375D02*
X423500Y831875D01*
X372625Y781000D01*
X413875Y913000D02*
X412500Y914000D01*
X372625Y781000D02*
X371400Y780400D01*
X133375Y100375D02*
X133375Y85250D01*
X133375Y100375D02*
X143000Y110000D01*
X143000Y123750D01*
X133375Y133375D01*
X133375Y85250D02*
X132500Y84000D01*
X133375Y133375D02*
X132500Y134000D01*
X132000Y184250D02*
X132000Y207625D01*
X71500Y268125D01*
X132000Y184250D02*
X132500Y184000D01*
X71500Y268125D02*
X70800Y268700D01*
X71500Y134750D02*
X132000Y134750D01*
X71500Y134750D02*
X45375Y160875D01*
X45375Y173250D01*
X56375Y184250D01*
X130625Y184250D01*
X132000Y134750D02*
X132500Y134000D01*
X132500Y184000D02*
X130625Y184250D01*
X451000Y41250D02*
X492250Y41250D01*
X451000Y41250D02*
X440000Y41250D01*
X492250Y41250D02*
X495000Y38500D01*
X440000Y41250D02*
X439000Y42500D01*
X495000Y38500D02*
X496000Y37500D01*
X420750Y633875D02*
X415250Y633875D01*
X420750Y633875D02*
X427625Y627000D01*
X415250Y633875D02*
X415000Y634000D01*
X330000Y177375D02*
X330000Y148500D01*
X330000Y177375D02*
X299750Y207625D01*
X299750Y361625D01*
X309375Y371250D01*
X316250Y371250D01*
X325875Y380875D01*
X325875Y397375D01*
X335500Y407000D01*
X330000Y148500D02*
X331125Y148250D01*
X335500Y407000D02*
X336800Y408300D01*
X451000Y42625D02*
X451000Y41250D01*
X400125Y657250D02*
X390500Y666875D01*
X389813Y667563D01*
X423500Y903375D02*
X424875Y903375D01*
X422125Y104500D02*
X437250Y104500D01*
X422125Y104500D02*
X398750Y81125D01*
X437250Y104500D02*
X437500Y105000D01*
D32*
X427625Y627000D03*
X451000Y42625D03*
X400125Y657250D03*
X424875Y903375D03*
X398750Y81125D03*
D31*
X599500Y165000D02*
X627000Y165000D01*
X599500Y165000D02*
X599000Y165000D01*
X679250Y74250D02*
X779625Y74250D01*
X809875Y44000D01*
X679250Y74250D02*
X679000Y75000D01*
X809875Y44000D02*
X810000Y43000D01*
X441375Y61875D02*
X422125Y42625D01*
X441375Y61875D02*
X467500Y61875D01*
X492250Y86625D01*
X492250Y108625D01*
X510125Y126500D01*
X422125Y42625D02*
X421000Y42500D01*
X510125Y126500D02*
X510500Y127800D01*
X499125Y140250D02*
X499125Y231000D01*
X499125Y140250D02*
X510125Y129250D01*
X499125Y231000D02*
X499386Y231496D01*
X510125Y129250D02*
X510500Y127800D01*
X610500Y100375D02*
X635250Y75625D01*
X636000Y75000D01*
X610500Y100375D02*
X609900Y100000D01*
X635250Y75625D02*
X600875Y41250D01*
X600200Y40000D01*
X635250Y75625D02*
X636000Y75000D01*
X255750Y884125D02*
X170500Y884125D01*
X170000Y883500D01*
X255750Y884125D02*
X257100Y885000D01*
X140250Y853875D02*
X68750Y853875D01*
X140250Y853875D02*
X169125Y882750D01*
X68750Y853875D02*
X68300Y853700D01*
X169125Y882750D02*
X170000Y883500D01*
X132000Y166375D02*
X71500Y166375D01*
X132000Y166375D02*
X132500Y166000D01*
X71500Y166375D02*
X70800Y167100D01*
X473000Y778250D02*
X473000Y785125D01*
X473000Y778250D02*
X431750Y737000D01*
X431750Y694375D01*
X409750Y672375D01*
X409750Y653125D01*
X397375Y640750D01*
X397375Y638000D01*
X379500Y620125D01*
X350625Y620125D01*
X314875Y584375D01*
X314875Y522500D01*
X143000Y350625D01*
X143000Y178750D01*
X132000Y167750D01*
X473000Y785125D02*
X473800Y785400D01*
X132000Y167750D02*
X132500Y166000D01*
X735625Y570625D02*
X801625Y570625D01*
X735625Y570625D02*
X735000Y571000D01*
X801625Y570625D02*
X802500Y570000D01*
X801625Y713625D02*
X738375Y713625D01*
X737500Y713500D01*
X801625Y713625D02*
X802500Y712500D01*
X801625Y855250D02*
X735625Y855250D01*
X735000Y856000D01*
X801625Y855250D02*
X802500Y855000D01*
X822250Y732875D02*
X803000Y713625D01*
X822250Y732875D02*
X822250Y834625D01*
X803000Y853875D01*
X803000Y713625D02*
X802500Y712500D01*
X803000Y853875D02*
X802500Y855000D01*
X822250Y589875D02*
X803000Y570625D01*
X822250Y589875D02*
X822250Y693000D01*
X803000Y712250D01*
X803000Y570625D02*
X802500Y570000D01*
X803000Y712250D02*
X802500Y712500D01*
X580250Y171875D02*
X580250Y165000D01*
X580250Y171875D02*
X521125Y231000D01*
X580250Y165000D02*
X581000Y165000D01*
X522246Y231496D02*
X521125Y231000D01*
X473000Y165000D02*
X442750Y195250D01*
X473000Y165000D02*
X473000Y75625D01*
X464750Y67375D01*
X412500Y67375D02*
X346500Y67375D01*
X412500Y67375D02*
X464750Y67375D01*
X346500Y67375D02*
X339625Y60500D01*
X317625Y60500D01*
X306625Y71500D01*
X442750Y195250D02*
X442500Y196500D01*
X306625Y71500D02*
X305725Y72050D01*
X306625Y112750D02*
X306625Y122375D01*
X306625Y112750D02*
X317625Y101750D01*
X317625Y83875D01*
X306625Y72875D01*
X306625Y122375D02*
X305725Y122850D01*
X306625Y72875D02*
X305725Y72050D01*
X310750Y398750D02*
X310750Y407000D01*
X310750Y398750D02*
X294250Y382250D01*
X294250Y134750D01*
X305250Y123750D01*
X310750Y407000D02*
X311400Y408300D01*
X305250Y123750D02*
X305725Y122850D01*
X573375Y165000D02*
X578875Y165000D01*
X573375Y165000D02*
X497750Y89375D01*
X497750Y52250D01*
X504625Y45375D01*
X504625Y30250D01*
X501875Y27500D01*
X419375Y27500D01*
X412500Y34375D01*
X412500Y66000D01*
X578875Y165000D02*
X581000Y165000D01*
X412500Y67375D02*
X412500Y66000D01*
X312125Y427625D02*
X488125Y603625D01*
X312125Y427625D02*
X312125Y408375D01*
X311400Y408300D01*
D32*
X488125Y603625D03*
D31*
X240625Y739750D02*
X170500Y739750D01*
X240625Y739750D02*
X255750Y754875D01*
X170500Y739750D02*
X170000Y738500D01*
X255750Y754875D02*
X257100Y755000D01*
X158125Y750750D02*
X68750Y750750D01*
X158125Y750750D02*
X169125Y739750D01*
X68750Y750750D02*
X68300Y752100D01*
X169125Y739750D02*
X170000Y738500D01*
X336875Y308000D02*
X640750Y611875D01*
X640750Y720500D01*
X627000Y734250D01*
X336875Y308000D02*
X336800Y306700D01*
X626200Y734600D02*
X627000Y734250D01*
X331375Y82500D02*
X331375Y72875D01*
X331375Y82500D02*
X343750Y94875D01*
X343750Y283250D01*
X325875Y301125D01*
X325875Y312125D01*
X334125Y320375D01*
X341000Y320375D01*
X611875Y591250D01*
X611875Y771375D01*
X625625Y785125D01*
X331375Y72875D02*
X331125Y72050D01*
X625625Y785125D02*
X626200Y785400D01*
X413875Y616000D02*
X391875Y616000D01*
X376750Y600875D01*
X374000Y600875D01*
X413875Y616000D02*
X415000Y616000D01*
X374000Y600875D02*
X373900Y599600D01*
X625625Y804375D02*
X625625Y809875D01*
X625625Y804375D02*
X488125Y666875D01*
X488125Y628375D01*
X477125Y617375D01*
X415250Y617375D01*
X625625Y809875D02*
X626200Y810800D01*
X415250Y617375D02*
X415000Y616000D01*
X413875Y765875D02*
X408375Y765875D01*
X372625Y730125D01*
X413875Y765875D02*
X415000Y766000D01*
X372625Y730125D02*
X371400Y729600D01*
X567875Y837375D02*
X625625Y837375D01*
X567875Y837375D02*
X478500Y926750D01*
X468875Y926750D01*
X429000Y886875D01*
X429000Y814000D01*
X404250Y789250D01*
X404250Y771375D01*
X408375Y767250D01*
X625625Y837375D02*
X626200Y836200D01*
X408375Y767250D02*
X408375Y765875D01*
X735625Y874500D02*
X796125Y874500D01*
X801625Y880000D01*
X735625Y874500D02*
X735000Y874000D01*
X801625Y880000D02*
X802500Y880000D01*
X336875Y341000D02*
X336875Y332750D01*
X336875Y341000D02*
X347875Y352000D01*
X347875Y451000D01*
X336875Y332750D02*
X336800Y332100D01*
D32*
X347875Y451000D03*
D31*
X407000Y895125D02*
X412500Y895125D01*
X407000Y895125D02*
X372625Y860750D01*
X412500Y895125D02*
X412500Y896000D01*
X372625Y860750D02*
X371400Y859600D01*
X551375Y862125D02*
X625625Y862125D01*
X551375Y862125D02*
X481250Y932250D01*
X357500Y932250D01*
X347875Y922625D01*
X347875Y897875D01*
X378125Y867625D01*
X625625Y862125D02*
X626200Y861600D01*
X378125Y867625D02*
X371400Y859600D01*
X735625Y589875D02*
X797500Y589875D01*
X801625Y594000D01*
X735625Y589875D02*
X735000Y589000D01*
X801625Y594000D02*
X802500Y595000D01*
X627000Y880000D02*
X627000Y886875D01*
X627000Y880000D02*
X644875Y862125D01*
X644875Y724625D01*
X735625Y633875D01*
X735625Y591250D01*
X627000Y886875D02*
X626200Y887000D01*
X735625Y591250D02*
X735000Y589000D01*
X738375Y731500D02*
X796125Y731500D01*
X801625Y737000D01*
X738375Y731500D02*
X737500Y731500D01*
X801625Y737000D02*
X802500Y737500D01*
X631125Y911625D02*
X627000Y911625D01*
X631125Y911625D02*
X737000Y805750D01*
X737000Y732875D01*
X627000Y911625D02*
X626200Y912400D01*
X737000Y732875D02*
X737500Y731500D01*
X132000Y66000D02*
X71500Y66000D01*
X132000Y66000D02*
X132500Y66000D01*
X71500Y66000D02*
X70800Y65500D01*
X473000Y727375D02*
X473000Y734250D01*
X473000Y727375D02*
X422125Y676500D01*
X422125Y657250D01*
X402875Y638000D01*
X402875Y635250D01*
X382250Y614625D01*
X353375Y614625D01*
X343750Y605000D01*
X343750Y467500D01*
X199375Y323125D01*
X199375Y121000D01*
X144375Y66000D01*
X133375Y66000D01*
X473000Y734250D02*
X473800Y734600D01*
X133375Y66000D02*
X132500Y66000D01*
X132000Y116875D02*
X71500Y116875D01*
X132000Y116875D02*
X132500Y116000D01*
X71500Y116875D02*
X70800Y116300D01*
X444125Y730125D02*
X473000Y759000D01*
X347875Y633875D02*
X347875Y625625D01*
X309375Y587125D01*
X309375Y526625D01*
X66000Y283250D01*
X53625Y283250D01*
X39875Y269500D01*
X39875Y149875D01*
X71500Y118250D01*
X473000Y759000D02*
X473800Y760000D01*
X71500Y118250D02*
X70800Y116300D01*
D32*
X444125Y730125D03*
X347875Y633875D03*
D31*
X246125Y611875D02*
X173250Y611875D01*
X246125Y611875D02*
X258500Y624250D01*
X173250Y611875D02*
X172500Y611000D01*
X258500Y624250D02*
X259600Y625000D01*
X116875Y650375D02*
X68750Y650375D01*
X116875Y650375D02*
X155375Y611875D01*
X171875Y611875D01*
X68750Y650375D02*
X68300Y650500D01*
X171875Y611875D02*
X172500Y611000D01*
M02*
