G04 EAGLE Gerber RS-274X export*
G75*
%MOMM*%
%FSLAX34Y34*%
%LPD*%
%AMOC8*
5,1,8,0,0,1.08239X$1,22.5*%
G01*
%ADD10C,0.254000*%


D10*
X0Y0D02*
X845000Y0D01*
X845000Y267500D01*
X625000Y267500D01*
X625000Y447500D01*
X845000Y447500D01*
X845000Y965000D01*
X0Y965000D01*
X0Y0D01*
X187500Y831964D02*
X187424Y830896D01*
X187271Y829835D01*
X187043Y828788D01*
X186741Y827760D01*
X186367Y826756D01*
X185922Y825781D01*
X185408Y824841D01*
X184829Y823940D01*
X184187Y823082D01*
X183485Y822272D01*
X182728Y821515D01*
X181918Y820813D01*
X181060Y820171D01*
X180159Y819592D01*
X179219Y819078D01*
X178244Y818633D01*
X177240Y818259D01*
X176212Y817957D01*
X175165Y817729D01*
X174104Y817576D01*
X173036Y817500D01*
X171964Y817500D01*
X170896Y817576D01*
X169835Y817729D01*
X168788Y817957D01*
X167760Y818259D01*
X166756Y818633D01*
X165781Y819078D01*
X164841Y819592D01*
X163940Y820171D01*
X163082Y820813D01*
X162272Y821515D01*
X161515Y822272D01*
X160813Y823082D01*
X160171Y823940D01*
X159592Y824841D01*
X159078Y825781D01*
X158633Y826756D01*
X158259Y827760D01*
X157957Y828788D01*
X157729Y829835D01*
X157576Y830896D01*
X157500Y831964D01*
X157500Y833036D01*
X157576Y834104D01*
X157729Y835165D01*
X157957Y836212D01*
X158259Y837240D01*
X158633Y838244D01*
X159078Y839219D01*
X159592Y840159D01*
X160171Y841060D01*
X160813Y841918D01*
X161515Y842728D01*
X162272Y843485D01*
X163082Y844187D01*
X163940Y844829D01*
X164841Y845408D01*
X165781Y845922D01*
X166756Y846367D01*
X167760Y846741D01*
X168788Y847043D01*
X169835Y847271D01*
X170896Y847424D01*
X171964Y847500D01*
X173036Y847500D01*
X174104Y847424D01*
X175165Y847271D01*
X176212Y847043D01*
X177240Y846741D01*
X178244Y846367D01*
X179219Y845922D01*
X180159Y845408D01*
X181060Y844829D01*
X181918Y844187D01*
X182728Y843485D01*
X183485Y842728D01*
X184187Y841918D01*
X184829Y841060D01*
X185408Y840159D01*
X185922Y839219D01*
X186367Y838244D01*
X186741Y837240D01*
X187043Y836212D01*
X187271Y835165D01*
X187424Y834104D01*
X187500Y833036D01*
X187500Y831964D01*
X687500Y831964D02*
X687424Y830896D01*
X687271Y829835D01*
X687043Y828788D01*
X686741Y827760D01*
X686367Y826756D01*
X685922Y825781D01*
X685408Y824841D01*
X684829Y823940D01*
X684187Y823082D01*
X683485Y822272D01*
X682728Y821515D01*
X681918Y820813D01*
X681060Y820171D01*
X680159Y819592D01*
X679219Y819078D01*
X678244Y818633D01*
X677240Y818259D01*
X676212Y817957D01*
X675165Y817729D01*
X674104Y817576D01*
X673036Y817500D01*
X671964Y817500D01*
X670896Y817576D01*
X669835Y817729D01*
X668788Y817957D01*
X667760Y818259D01*
X666756Y818633D01*
X665781Y819078D01*
X664841Y819592D01*
X663940Y820171D01*
X663082Y820813D01*
X662272Y821515D01*
X661515Y822272D01*
X660813Y823082D01*
X660171Y823940D01*
X659592Y824841D01*
X659078Y825781D01*
X658633Y826756D01*
X658259Y827760D01*
X657957Y828788D01*
X657729Y829835D01*
X657576Y830896D01*
X657500Y831964D01*
X657500Y833036D01*
X657576Y834104D01*
X657729Y835165D01*
X657957Y836212D01*
X658259Y837240D01*
X658633Y838244D01*
X659078Y839219D01*
X659592Y840159D01*
X660171Y841060D01*
X660813Y841918D01*
X661515Y842728D01*
X662272Y843485D01*
X663082Y844187D01*
X663940Y844829D01*
X664841Y845408D01*
X665781Y845922D01*
X666756Y846367D01*
X667760Y846741D01*
X668788Y847043D01*
X669835Y847271D01*
X670896Y847424D01*
X671964Y847500D01*
X673036Y847500D01*
X674104Y847424D01*
X675165Y847271D01*
X676212Y847043D01*
X677240Y846741D01*
X678244Y846367D01*
X679219Y845922D01*
X680159Y845408D01*
X681060Y844829D01*
X681918Y844187D01*
X682728Y843485D01*
X683485Y842728D01*
X684187Y841918D01*
X684829Y841060D01*
X685408Y840159D01*
X685922Y839219D01*
X686367Y838244D01*
X686741Y837240D01*
X687043Y836212D01*
X687271Y835165D01*
X687424Y834104D01*
X687500Y833036D01*
X687500Y831964D01*
X187500Y131964D02*
X187424Y130896D01*
X187271Y129835D01*
X187043Y128788D01*
X186741Y127760D01*
X186367Y126756D01*
X185922Y125781D01*
X185408Y124841D01*
X184829Y123940D01*
X184187Y123082D01*
X183485Y122272D01*
X182728Y121515D01*
X181918Y120813D01*
X181060Y120171D01*
X180159Y119592D01*
X179219Y119078D01*
X178244Y118633D01*
X177240Y118259D01*
X176212Y117957D01*
X175165Y117729D01*
X174104Y117576D01*
X173036Y117500D01*
X171964Y117500D01*
X170896Y117576D01*
X169835Y117729D01*
X168788Y117957D01*
X167760Y118259D01*
X166756Y118633D01*
X165781Y119078D01*
X164841Y119592D01*
X163940Y120171D01*
X163082Y120813D01*
X162272Y121515D01*
X161515Y122272D01*
X160813Y123082D01*
X160171Y123940D01*
X159592Y124841D01*
X159078Y125781D01*
X158633Y126756D01*
X158259Y127760D01*
X157957Y128788D01*
X157729Y129835D01*
X157576Y130896D01*
X157500Y131964D01*
X157500Y133036D01*
X157576Y134104D01*
X157729Y135165D01*
X157957Y136212D01*
X158259Y137240D01*
X158633Y138244D01*
X159078Y139219D01*
X159592Y140159D01*
X160171Y141060D01*
X160813Y141918D01*
X161515Y142728D01*
X162272Y143485D01*
X163082Y144187D01*
X163940Y144829D01*
X164841Y145408D01*
X165781Y145922D01*
X166756Y146367D01*
X167760Y146741D01*
X168788Y147043D01*
X169835Y147271D01*
X170896Y147424D01*
X171964Y147500D01*
X173036Y147500D01*
X174104Y147424D01*
X175165Y147271D01*
X176212Y147043D01*
X177240Y146741D01*
X178244Y146367D01*
X179219Y145922D01*
X180159Y145408D01*
X181060Y144829D01*
X181918Y144187D01*
X182728Y143485D01*
X183485Y142728D01*
X184187Y141918D01*
X184829Y141060D01*
X185408Y140159D01*
X185922Y139219D01*
X186367Y138244D01*
X186741Y137240D01*
X187043Y136212D01*
X187271Y135165D01*
X187424Y134104D01*
X187500Y133036D01*
X187500Y131964D01*
X687500Y131964D02*
X687424Y130896D01*
X687271Y129835D01*
X687043Y128788D01*
X686741Y127760D01*
X686367Y126756D01*
X685922Y125781D01*
X685408Y124841D01*
X684829Y123940D01*
X684187Y123082D01*
X683485Y122272D01*
X682728Y121515D01*
X681918Y120813D01*
X681060Y120171D01*
X680159Y119592D01*
X679219Y119078D01*
X678244Y118633D01*
X677240Y118259D01*
X676212Y117957D01*
X675165Y117729D01*
X674104Y117576D01*
X673036Y117500D01*
X671964Y117500D01*
X670896Y117576D01*
X669835Y117729D01*
X668788Y117957D01*
X667760Y118259D01*
X666756Y118633D01*
X665781Y119078D01*
X664841Y119592D01*
X663940Y120171D01*
X663082Y120813D01*
X662272Y121515D01*
X661515Y122272D01*
X660813Y123082D01*
X660171Y123940D01*
X659592Y124841D01*
X659078Y125781D01*
X658633Y126756D01*
X658259Y127760D01*
X657957Y128788D01*
X657729Y129835D01*
X657576Y130896D01*
X657500Y131964D01*
X657500Y133036D01*
X657576Y134104D01*
X657729Y135165D01*
X657957Y136212D01*
X658259Y137240D01*
X658633Y138244D01*
X659078Y139219D01*
X659592Y140159D01*
X660171Y141060D01*
X660813Y141918D01*
X661515Y142728D01*
X662272Y143485D01*
X663082Y144187D01*
X663940Y144829D01*
X664841Y145408D01*
X665781Y145922D01*
X666756Y146367D01*
X667760Y146741D01*
X668788Y147043D01*
X669835Y147271D01*
X670896Y147424D01*
X671964Y147500D01*
X673036Y147500D01*
X674104Y147424D01*
X675165Y147271D01*
X676212Y147043D01*
X677240Y146741D01*
X678244Y146367D01*
X679219Y145922D01*
X680159Y145408D01*
X681060Y144829D01*
X681918Y144187D01*
X682728Y143485D01*
X683485Y142728D01*
X684187Y141918D01*
X684829Y141060D01*
X685408Y140159D01*
X685922Y139219D01*
X686367Y138244D01*
X686741Y137240D01*
X687043Y136212D01*
X687271Y135165D01*
X687424Y134104D01*
X687500Y133036D01*
X687500Y131964D01*
X799840Y100444D02*
X799917Y101327D01*
X800071Y102201D01*
X800301Y103058D01*
X800604Y103892D01*
X800979Y104696D01*
X801423Y105464D01*
X801932Y106191D01*
X802502Y106871D01*
X803129Y107498D01*
X803809Y108068D01*
X804536Y108577D01*
X805304Y109021D01*
X806108Y109396D01*
X806942Y109699D01*
X807799Y109929D01*
X808673Y110083D01*
X809556Y110160D01*
X810444Y110160D01*
X811327Y110083D01*
X812201Y109929D01*
X813058Y109699D01*
X813892Y109396D01*
X814696Y109021D01*
X815464Y108577D01*
X816191Y108068D01*
X816871Y107498D01*
X817498Y106871D01*
X818068Y106191D01*
X818577Y105464D01*
X819021Y104696D01*
X819396Y103892D01*
X819699Y103058D01*
X819929Y102201D01*
X820083Y101327D01*
X820160Y100444D01*
X820160Y99556D01*
X820083Y98673D01*
X819929Y97799D01*
X819699Y96942D01*
X819396Y96108D01*
X819021Y95304D01*
X818577Y94536D01*
X818068Y93809D01*
X817498Y93129D01*
X816871Y92502D01*
X816191Y91932D01*
X815464Y91423D01*
X814696Y90979D01*
X813892Y90604D01*
X813058Y90301D01*
X812201Y90071D01*
X811327Y89917D01*
X810444Y89840D01*
X809556Y89840D01*
X808673Y89917D01*
X807799Y90071D01*
X806942Y90301D01*
X806108Y90604D01*
X805304Y90979D01*
X804536Y91423D01*
X803809Y91932D01*
X803129Y92502D01*
X802502Y93129D01*
X801932Y93809D01*
X801423Y94536D01*
X800979Y95304D01*
X800604Y96108D01*
X800301Y96942D01*
X800071Y97799D01*
X799917Y98673D01*
X799840Y99556D01*
X799840Y100444D01*
X754120Y100444D02*
X754197Y101327D01*
X754351Y102201D01*
X754581Y103058D01*
X754884Y103892D01*
X755259Y104696D01*
X755703Y105464D01*
X756212Y106191D01*
X756782Y106871D01*
X757409Y107498D01*
X758089Y108068D01*
X758816Y108577D01*
X759584Y109021D01*
X760388Y109396D01*
X761222Y109699D01*
X762079Y109929D01*
X762953Y110083D01*
X763836Y110160D01*
X764724Y110160D01*
X765607Y110083D01*
X766481Y109929D01*
X767338Y109699D01*
X768172Y109396D01*
X768976Y109021D01*
X769744Y108577D01*
X770471Y108068D01*
X771151Y107498D01*
X771778Y106871D01*
X772348Y106191D01*
X772857Y105464D01*
X773301Y104696D01*
X773676Y103892D01*
X773979Y103058D01*
X774209Y102201D01*
X774363Y101327D01*
X774440Y100444D01*
X774440Y99556D01*
X774363Y98673D01*
X774209Y97799D01*
X773979Y96942D01*
X773676Y96108D01*
X773301Y95304D01*
X772857Y94536D01*
X772348Y93809D01*
X771778Y93129D01*
X771151Y92502D01*
X770471Y91932D01*
X769744Y91423D01*
X768976Y90979D01*
X768172Y90604D01*
X767338Y90301D01*
X766481Y90071D01*
X765607Y89917D01*
X764724Y89840D01*
X763836Y89840D01*
X762953Y89917D01*
X762079Y90071D01*
X761222Y90301D01*
X760388Y90604D01*
X759584Y90979D01*
X758816Y91423D01*
X758089Y91932D01*
X757409Y92502D01*
X756782Y93129D01*
X756212Y93809D01*
X755703Y94536D01*
X755259Y95304D01*
X754884Y96108D01*
X754581Y96942D01*
X754351Y97799D01*
X754197Y98673D01*
X754120Y99556D01*
X754120Y100444D01*
X799240Y218237D02*
X799316Y219107D01*
X799468Y219966D01*
X799694Y220810D01*
X799992Y221630D01*
X800361Y222422D01*
X800798Y223178D01*
X801299Y223893D01*
X801860Y224562D01*
X802478Y225180D01*
X803147Y225741D01*
X803862Y226242D01*
X804618Y226679D01*
X805410Y227048D01*
X806230Y227346D01*
X807074Y227572D01*
X807934Y227724D01*
X808803Y227800D01*
X809677Y227800D01*
X810547Y227724D01*
X811406Y227572D01*
X812250Y227346D01*
X813070Y227048D01*
X813862Y226679D01*
X814618Y226242D01*
X815333Y225741D01*
X816002Y225180D01*
X816620Y224562D01*
X817181Y223893D01*
X817682Y223178D01*
X818119Y222422D01*
X818488Y221630D01*
X818786Y220810D01*
X819012Y219966D01*
X819164Y219107D01*
X819240Y218237D01*
X819240Y217363D01*
X819164Y216494D01*
X819012Y215634D01*
X818786Y214790D01*
X818488Y213970D01*
X818119Y213178D01*
X817682Y212422D01*
X817181Y211707D01*
X816620Y211038D01*
X816002Y210420D01*
X815333Y209859D01*
X814618Y209358D01*
X813862Y208921D01*
X813070Y208552D01*
X812250Y208254D01*
X811406Y208028D01*
X810547Y207876D01*
X809677Y207800D01*
X808803Y207800D01*
X807934Y207876D01*
X807074Y208028D01*
X806230Y208254D01*
X805410Y208552D01*
X804618Y208921D01*
X803862Y209358D01*
X803147Y209859D01*
X802478Y210420D01*
X801860Y211038D01*
X801299Y211707D01*
X800798Y212422D01*
X800361Y213178D01*
X799992Y213970D01*
X799694Y214790D01*
X799468Y215634D01*
X799316Y216494D01*
X799240Y217363D01*
X799240Y218237D01*
X311560Y218237D02*
X311636Y219107D01*
X311788Y219966D01*
X312014Y220810D01*
X312312Y221630D01*
X312681Y222422D01*
X313118Y223178D01*
X313619Y223893D01*
X314180Y224562D01*
X314798Y225180D01*
X315467Y225741D01*
X316182Y226242D01*
X316938Y226679D01*
X317730Y227048D01*
X318550Y227346D01*
X319394Y227572D01*
X320254Y227724D01*
X321123Y227800D01*
X321997Y227800D01*
X322867Y227724D01*
X323726Y227572D01*
X324570Y227346D01*
X325390Y227048D01*
X326182Y226679D01*
X326938Y226242D01*
X327653Y225741D01*
X328322Y225180D01*
X328940Y224562D01*
X329501Y223893D01*
X330002Y223178D01*
X330439Y222422D01*
X330808Y221630D01*
X331106Y220810D01*
X331332Y219966D01*
X331484Y219107D01*
X331560Y218237D01*
X331560Y217363D01*
X331484Y216494D01*
X331332Y215634D01*
X331106Y214790D01*
X330808Y213970D01*
X330439Y213178D01*
X330002Y212422D01*
X329501Y211707D01*
X328940Y211038D01*
X328322Y210420D01*
X327653Y209859D01*
X326938Y209358D01*
X326182Y208921D01*
X325390Y208552D01*
X324570Y208254D01*
X323726Y208028D01*
X322867Y207876D01*
X321997Y207800D01*
X321123Y207800D01*
X320254Y207876D01*
X319394Y208028D01*
X318550Y208254D01*
X317730Y208552D01*
X316938Y208921D01*
X316182Y209358D01*
X315467Y209859D01*
X314798Y210420D01*
X314180Y211038D01*
X313619Y211707D01*
X313118Y212422D01*
X312681Y213178D01*
X312312Y213970D01*
X312014Y214790D01*
X311788Y215634D01*
X311636Y216494D01*
X311560Y217363D01*
X311560Y218237D01*
X799240Y497637D02*
X799316Y498507D01*
X799468Y499366D01*
X799694Y500210D01*
X799992Y501030D01*
X800361Y501822D01*
X800798Y502578D01*
X801299Y503293D01*
X801860Y503962D01*
X802478Y504580D01*
X803147Y505141D01*
X803862Y505642D01*
X804618Y506079D01*
X805410Y506448D01*
X806230Y506746D01*
X807074Y506972D01*
X807934Y507124D01*
X808803Y507200D01*
X809677Y507200D01*
X810547Y507124D01*
X811406Y506972D01*
X812250Y506746D01*
X813070Y506448D01*
X813862Y506079D01*
X814618Y505642D01*
X815333Y505141D01*
X816002Y504580D01*
X816620Y503962D01*
X817181Y503293D01*
X817682Y502578D01*
X818119Y501822D01*
X818488Y501030D01*
X818786Y500210D01*
X819012Y499366D01*
X819164Y498507D01*
X819240Y497637D01*
X819240Y496763D01*
X819164Y495894D01*
X819012Y495034D01*
X818786Y494190D01*
X818488Y493370D01*
X818119Y492578D01*
X817682Y491822D01*
X817181Y491107D01*
X816620Y490438D01*
X816002Y489820D01*
X815333Y489259D01*
X814618Y488758D01*
X813862Y488321D01*
X813070Y487952D01*
X812250Y487654D01*
X811406Y487428D01*
X810547Y487276D01*
X809677Y487200D01*
X808803Y487200D01*
X807934Y487276D01*
X807074Y487428D01*
X806230Y487654D01*
X805410Y487952D01*
X804618Y488321D01*
X803862Y488758D01*
X803147Y489259D01*
X802478Y489820D01*
X801860Y490438D01*
X801299Y491107D01*
X800798Y491822D01*
X800361Y492578D01*
X799992Y493370D01*
X799694Y494190D01*
X799468Y495034D01*
X799316Y495894D01*
X799240Y496763D01*
X799240Y497637D01*
X311560Y497637D02*
X311636Y498507D01*
X311788Y499366D01*
X312014Y500210D01*
X312312Y501030D01*
X312681Y501822D01*
X313118Y502578D01*
X313619Y503293D01*
X314180Y503962D01*
X314798Y504580D01*
X315467Y505141D01*
X316182Y505642D01*
X316938Y506079D01*
X317730Y506448D01*
X318550Y506746D01*
X319394Y506972D01*
X320254Y507124D01*
X321123Y507200D01*
X321997Y507200D01*
X322867Y507124D01*
X323726Y506972D01*
X324570Y506746D01*
X325390Y506448D01*
X326182Y506079D01*
X326938Y505642D01*
X327653Y505141D01*
X328322Y504580D01*
X328940Y503962D01*
X329501Y503293D01*
X330002Y502578D01*
X330439Y501822D01*
X330808Y501030D01*
X331106Y500210D01*
X331332Y499366D01*
X331484Y498507D01*
X331560Y497637D01*
X331560Y496763D01*
X331484Y495894D01*
X331332Y495034D01*
X331106Y494190D01*
X330808Y493370D01*
X330439Y492578D01*
X330002Y491822D01*
X329501Y491107D01*
X328940Y490438D01*
X328322Y489820D01*
X327653Y489259D01*
X326938Y488758D01*
X326182Y488321D01*
X325390Y487952D01*
X324570Y487654D01*
X323726Y487428D01*
X322867Y487276D01*
X321997Y487200D01*
X321123Y487200D01*
X320254Y487276D01*
X319394Y487428D01*
X318550Y487654D01*
X317730Y487952D01*
X316938Y488321D01*
X316182Y488758D01*
X315467Y489259D01*
X314798Y489820D01*
X314180Y490438D01*
X313619Y491107D01*
X313118Y491822D01*
X312681Y492578D01*
X312312Y493370D01*
X312014Y494190D01*
X311788Y495034D01*
X311636Y495894D01*
X311560Y496763D01*
X311560Y497637D01*
M02*
