G04 EAGLE Gerber RS-274X export*
G75*
%MOMM*%
%FSLAX34Y34*%
%LPD*%
%AMOC8*
5,1,8,0,0,1.08239X$1,22.5*%
G01*
%ADD10C,3.203200*%
%ADD11R,1.403200X1.003200*%
%ADD12R,1.403200X1.403200*%
%ADD13R,1.473200X1.673200*%
%ADD14R,1.003200X1.403200*%
%ADD15R,1.983200X3.403200*%
%ADD16R,1.701800X2.209800*%
%ADD17R,4.013200X2.209800*%
%ADD18R,3.003200X2.603200*%
%ADD19C,2.235200*%
%ADD20R,6.403200X5.603200*%
%ADD21R,1.803200X1.203200*%
%ADD22C,1.625600*%
%ADD23R,1.673200X1.473200*%
%ADD24R,4.013200X2.286000*%
%ADD25R,9.093200X11.633200*%
%ADD26C,1.727200*%
%ADD27R,1.511200X1.511200*%
%ADD28C,1.511200*%
%ADD29C,2.082800*%
%ADD30C,2.203200*%
%ADD31C,1.561200*%
%ADD32R,1.561200X1.561200*%
%ADD33C,2.298700*%
%ADD34C,1.109600*%


D10*
X172500Y832500D03*
X672500Y832500D03*
X172500Y132500D03*
X672500Y132500D03*
D11*
X442500Y178500D03*
X442500Y196500D03*
D12*
X648000Y165000D03*
X627000Y165000D03*
D13*
X679000Y75000D03*
X636000Y75000D03*
D14*
X439000Y42500D03*
X421000Y42500D03*
X599000Y165000D03*
X581000Y165000D03*
D15*
X609900Y100000D03*
X560100Y100000D03*
D16*
X545106Y231496D03*
X522246Y231496D03*
X499386Y231496D03*
D17*
X522500Y168504D03*
D18*
X810000Y43000D03*
X810000Y157000D03*
X749000Y43000D03*
X749000Y157000D03*
D19*
X810000Y100000D03*
X764280Y100000D03*
D20*
X437500Y105000D03*
D21*
X510500Y82200D03*
X510500Y127800D03*
D14*
X496000Y37500D03*
X514000Y37500D03*
D22*
X600200Y32888D02*
X600200Y47112D01*
X574800Y47112D02*
X574800Y32888D01*
D11*
X412500Y914000D03*
X412500Y896000D03*
D23*
X170000Y883500D03*
X170000Y926500D03*
D24*
X371400Y859600D03*
X371400Y910400D03*
D25*
X257100Y885000D03*
D11*
X735000Y589000D03*
X735000Y571000D03*
D26*
X794880Y620000D02*
X810120Y620000D01*
X810120Y595000D02*
X794880Y595000D01*
X794880Y570000D02*
X810120Y570000D01*
D11*
X737500Y731500D03*
X737500Y713500D03*
D26*
X794880Y762500D02*
X810120Y762500D01*
X810120Y737500D02*
X794880Y737500D01*
X794880Y712500D02*
X810120Y712500D01*
D11*
X415000Y784000D03*
X415000Y766000D03*
D23*
X170000Y738500D03*
X170000Y781500D03*
D24*
X371400Y729600D03*
X371400Y780400D03*
D25*
X257100Y755000D03*
D27*
X331125Y148250D03*
X331125Y72050D03*
D28*
X331125Y122850D03*
X331125Y97450D03*
X305725Y97450D03*
X305725Y122850D03*
X305725Y148250D03*
X305725Y72050D03*
D29*
X626200Y633000D03*
X626200Y658400D03*
X626200Y683800D03*
X626200Y709200D03*
X626200Y734600D03*
X626200Y760000D03*
X626200Y785400D03*
X626200Y810800D03*
X626200Y836200D03*
X626200Y861600D03*
X626200Y887000D03*
X626200Y912400D03*
X473800Y912400D03*
X473800Y887000D03*
X473800Y861600D03*
X473800Y836200D03*
X473800Y810800D03*
X473800Y785400D03*
X473800Y760000D03*
X473800Y734600D03*
X473800Y709200D03*
X473800Y683800D03*
X473800Y658400D03*
X473800Y633000D03*
D30*
X809240Y217800D03*
X321560Y217800D03*
X809240Y497200D03*
X321560Y497200D03*
D31*
X311400Y382900D03*
X311400Y357500D03*
X311400Y332100D03*
X311400Y306700D03*
X336800Y306700D03*
X336800Y332100D03*
X336800Y357500D03*
X336800Y382900D03*
X336800Y408300D03*
D32*
X311400Y408300D03*
D33*
X78778Y904500D02*
X57823Y904500D01*
X57823Y853700D02*
X78778Y853700D01*
X78778Y650500D02*
X57823Y650500D01*
X57823Y802900D02*
X78778Y802900D01*
X78778Y752100D02*
X57823Y752100D01*
X57823Y701300D02*
X78778Y701300D01*
X81278Y319500D02*
X60323Y319500D01*
X60323Y268700D02*
X81278Y268700D01*
X81278Y65500D02*
X60323Y65500D01*
X60323Y217900D02*
X81278Y217900D01*
X81278Y167100D02*
X60323Y167100D01*
X60323Y116300D02*
X81278Y116300D01*
D11*
X415000Y634000D03*
X415000Y616000D03*
D23*
X172500Y611000D03*
X172500Y654000D03*
D24*
X373900Y599600D03*
X373900Y650400D03*
D25*
X259600Y625000D03*
D11*
X735000Y874000D03*
X735000Y856000D03*
D26*
X794880Y905000D02*
X810120Y905000D01*
X810120Y880000D02*
X794880Y880000D01*
X794880Y855000D02*
X810120Y855000D01*
D11*
X132500Y184000D03*
X132500Y166000D03*
X132500Y134000D03*
X132500Y116000D03*
X132500Y84000D03*
X132500Y66000D03*
D34*
X427625Y627000D03*
X451000Y42625D03*
X400125Y657250D03*
X424875Y903375D03*
X398750Y81125D03*
X488125Y603625D03*
X347875Y451000D03*
X444125Y730125D03*
X347875Y633875D03*
M02*
