G04 EAGLE Gerber RS-274X export*
G75*
%MOMM*%
%FSLAX34Y34*%
%LPD*%
%INBottom Copper*%
%IPPOS*%
%AMOC8*
5,1,8,0,0,1.08239X$1,22.5*%
G01*
%ADD10R,1.308000X1.308000*%
%ADD11C,1.308000*%
%ADD12C,2.095500*%
%ADD13C,2.100000*%
%ADD14C,1.524000*%
%ADD15C,0.127000*%
%ADD16C,0.101600*%
%ADD17P,1.649562X8X112.500000*%
%ADD18C,2.247900*%
%ADD19P,1.632244X8X22.500000*%
%ADD20C,0.254000*%
%ADD21C,0.756400*%
%ADD22C,0.203200*%


D10*
X251125Y418250D03*
X251125Y342050D03*
D11*
X251125Y392850D03*
X251125Y367450D03*
X225725Y367450D03*
X225725Y392850D03*
X225725Y418250D03*
X225725Y342050D03*
D12*
X81278Y904500D02*
X60323Y904500D01*
X60323Y853700D02*
X81278Y853700D01*
X81278Y650500D02*
X60323Y650500D01*
X60323Y802900D02*
X81278Y802900D01*
X81278Y752100D02*
X60323Y752100D01*
X60323Y701300D02*
X81278Y701300D01*
D13*
X722700Y285750D03*
X722700Y440650D03*
D11*
X808400Y429450D03*
X808400Y404050D03*
X808400Y322350D03*
X808400Y296950D03*
X664300Y407600D03*
X664300Y382200D03*
X664300Y356800D03*
X664300Y331400D03*
X689700Y395000D03*
X689700Y369600D03*
X689700Y344200D03*
X689700Y318800D03*
D14*
X714880Y550600D02*
X730120Y550600D01*
X730120Y525200D02*
X714880Y525200D01*
X714880Y499800D02*
X730120Y499800D01*
X730120Y474400D02*
X714880Y474400D01*
D15*
X200000Y93970D02*
X200000Y66030D01*
X197460Y66030D02*
X197460Y77460D01*
X188570Y68570D01*
X202540Y82540D02*
X211430Y91430D01*
X202540Y93970D02*
X202540Y82540D01*
X208890Y93971D02*
X208551Y94180D01*
X208207Y94381D01*
X207858Y94574D01*
X207505Y94758D01*
X207147Y94933D01*
X206785Y95100D01*
X206419Y95258D01*
X206049Y95407D01*
X205676Y95546D01*
X205299Y95677D01*
X204920Y95798D01*
X204537Y95911D01*
X204152Y96013D01*
X203765Y96107D01*
X203375Y96191D01*
X202984Y96265D01*
X202591Y96330D01*
X202196Y96385D01*
X201800Y96431D01*
X201403Y96467D01*
X201005Y96493D01*
X200607Y96510D01*
X200209Y96517D01*
X199810Y96514D01*
X199412Y96501D01*
X199014Y96479D01*
X198617Y96447D01*
X198220Y96406D01*
X197825Y96355D01*
X197431Y96294D01*
X197039Y96224D01*
X196649Y96144D01*
X196260Y96054D01*
X195874Y95955D01*
X195491Y95847D01*
X195110Y95730D01*
X194732Y95603D01*
X194357Y95467D01*
X193986Y95322D01*
X193618Y95168D01*
X193255Y95005D01*
X192895Y94833D01*
X192540Y94653D01*
X192189Y94464D01*
X191843Y94267D01*
X191501Y94061D01*
X191165Y93847D01*
X190835Y93624D01*
X190509Y93394D01*
X190190Y93156D01*
X189876Y92910D01*
X189568Y92657D01*
X189267Y92396D01*
X188972Y92128D01*
X188684Y91853D01*
X188402Y91571D01*
X188128Y91282D01*
X187860Y90986D01*
X187600Y90684D01*
X187347Y90376D01*
X187102Y90062D01*
X186865Y89742D01*
X186635Y89416D01*
X186414Y89085D01*
X186200Y88748D01*
X185995Y88407D01*
X185798Y88060D01*
X185610Y87709D01*
X185430Y87353D01*
X185259Y86993D01*
X185097Y86629D01*
X184944Y86261D01*
X184800Y85890D01*
X184665Y85515D01*
X184539Y85137D01*
X184422Y84756D01*
X184315Y84372D01*
X184217Y83985D01*
X184128Y83597D01*
X184049Y83206D01*
X183979Y82814D01*
X183920Y82420D01*
X183869Y82025D01*
X183828Y81628D01*
X183797Y81231D01*
X183776Y80833D01*
X183764Y80435D01*
X183762Y80036D01*
X183770Y79638D01*
X183788Y79239D01*
X183815Y78842D01*
X183852Y78445D01*
X183898Y78049D01*
X183954Y77655D01*
X184020Y77261D01*
X184095Y76870D01*
X184180Y76481D01*
X184274Y76093D01*
X184378Y75709D01*
X184491Y75326D01*
X184613Y74947D01*
X184744Y74571D01*
X184885Y74198D01*
X185035Y73829D01*
X185193Y73463D01*
X185361Y73101D01*
X185537Y72744D01*
X185722Y72391D01*
X185915Y72042D01*
X186117Y71699D01*
X186327Y71360D01*
X186545Y71027D01*
X186771Y70699D01*
X187006Y70376D01*
X187248Y70060D01*
X187497Y69749D01*
X187755Y69445D01*
X188019Y69146D01*
X188291Y68855D01*
X188570Y68570D01*
X191110Y66029D02*
X191449Y65820D01*
X191793Y65619D01*
X192142Y65426D01*
X192495Y65242D01*
X192853Y65067D01*
X193215Y64900D01*
X193581Y64742D01*
X193951Y64593D01*
X194324Y64454D01*
X194701Y64323D01*
X195080Y64202D01*
X195463Y64089D01*
X195848Y63987D01*
X196235Y63893D01*
X196625Y63809D01*
X197016Y63735D01*
X197409Y63670D01*
X197804Y63615D01*
X198200Y63569D01*
X198597Y63533D01*
X198995Y63507D01*
X199393Y63490D01*
X199791Y63483D01*
X200190Y63486D01*
X200588Y63499D01*
X200986Y63521D01*
X201383Y63553D01*
X201780Y63594D01*
X202175Y63645D01*
X202569Y63706D01*
X202961Y63776D01*
X203351Y63856D01*
X203740Y63946D01*
X204126Y64045D01*
X204509Y64153D01*
X204890Y64270D01*
X205268Y64397D01*
X205643Y64533D01*
X206014Y64678D01*
X206382Y64832D01*
X206745Y64995D01*
X207105Y65167D01*
X207460Y65347D01*
X207811Y65536D01*
X208157Y65733D01*
X208499Y65939D01*
X208835Y66153D01*
X209165Y66376D01*
X209491Y66606D01*
X209810Y66844D01*
X210124Y67090D01*
X210432Y67343D01*
X210733Y67604D01*
X211028Y67872D01*
X211316Y68147D01*
X211598Y68429D01*
X211872Y68718D01*
X212140Y69014D01*
X212400Y69316D01*
X212653Y69624D01*
X212898Y69938D01*
X213135Y70258D01*
X213365Y70584D01*
X213586Y70915D01*
X213800Y71252D01*
X214005Y71593D01*
X214202Y71940D01*
X214390Y72291D01*
X214570Y72647D01*
X214741Y73007D01*
X214903Y73371D01*
X215056Y73739D01*
X215200Y74110D01*
X215335Y74485D01*
X215461Y74863D01*
X215578Y75244D01*
X215685Y75628D01*
X215783Y76015D01*
X215872Y76403D01*
X215951Y76794D01*
X216021Y77186D01*
X216080Y77580D01*
X216131Y77975D01*
X216172Y78372D01*
X216203Y78769D01*
X216224Y79167D01*
X216236Y79565D01*
X216238Y79964D01*
X216230Y80362D01*
X216212Y80761D01*
X216185Y81158D01*
X216148Y81555D01*
X216102Y81951D01*
X216046Y82345D01*
X215980Y82739D01*
X215905Y83130D01*
X215820Y83519D01*
X215726Y83907D01*
X215622Y84291D01*
X215509Y84674D01*
X215387Y85053D01*
X215256Y85429D01*
X215115Y85802D01*
X214965Y86171D01*
X214807Y86537D01*
X214639Y86899D01*
X214463Y87256D01*
X214278Y87609D01*
X214085Y87958D01*
X213883Y88301D01*
X213673Y88640D01*
X213455Y88973D01*
X213229Y89301D01*
X212994Y89624D01*
X212752Y89940D01*
X212503Y90251D01*
X212245Y90555D01*
X211981Y90854D01*
X211709Y91145D01*
X211430Y91430D01*
D16*
X229944Y57902D02*
X229944Y46218D01*
X231242Y46218D02*
X228646Y46218D01*
X228646Y57902D02*
X231242Y57902D01*
X224045Y54656D02*
X224045Y49464D01*
X224046Y54656D02*
X224044Y54769D01*
X224038Y54882D01*
X224028Y54995D01*
X224014Y55108D01*
X223997Y55220D01*
X223975Y55331D01*
X223950Y55441D01*
X223920Y55551D01*
X223887Y55659D01*
X223850Y55766D01*
X223810Y55872D01*
X223765Y55976D01*
X223717Y56079D01*
X223666Y56180D01*
X223611Y56279D01*
X223553Y56376D01*
X223491Y56471D01*
X223426Y56564D01*
X223358Y56654D01*
X223287Y56742D01*
X223212Y56828D01*
X223135Y56911D01*
X223055Y56991D01*
X222972Y57068D01*
X222886Y57143D01*
X222798Y57214D01*
X222708Y57282D01*
X222615Y57347D01*
X222520Y57409D01*
X222423Y57467D01*
X222324Y57522D01*
X222223Y57573D01*
X222120Y57621D01*
X222016Y57666D01*
X221910Y57706D01*
X221803Y57743D01*
X221695Y57776D01*
X221585Y57806D01*
X221475Y57831D01*
X221364Y57853D01*
X221252Y57870D01*
X221139Y57884D01*
X221026Y57894D01*
X220913Y57900D01*
X220800Y57902D01*
X220687Y57900D01*
X220574Y57894D01*
X220461Y57884D01*
X220348Y57870D01*
X220236Y57853D01*
X220125Y57831D01*
X220015Y57806D01*
X219905Y57776D01*
X219797Y57743D01*
X219690Y57706D01*
X219584Y57666D01*
X219480Y57621D01*
X219377Y57573D01*
X219276Y57522D01*
X219177Y57467D01*
X219080Y57409D01*
X218985Y57347D01*
X218892Y57282D01*
X218802Y57214D01*
X218714Y57143D01*
X218628Y57068D01*
X218545Y56991D01*
X218465Y56911D01*
X218388Y56828D01*
X218313Y56742D01*
X218242Y56654D01*
X218174Y56564D01*
X218109Y56471D01*
X218047Y56376D01*
X217989Y56279D01*
X217934Y56180D01*
X217883Y56079D01*
X217835Y55976D01*
X217790Y55872D01*
X217750Y55766D01*
X217713Y55659D01*
X217680Y55551D01*
X217650Y55441D01*
X217625Y55331D01*
X217603Y55220D01*
X217586Y55108D01*
X217572Y54995D01*
X217562Y54882D01*
X217556Y54769D01*
X217554Y54656D01*
X217554Y49464D01*
X217556Y49351D01*
X217562Y49238D01*
X217572Y49125D01*
X217586Y49012D01*
X217603Y48900D01*
X217625Y48789D01*
X217650Y48679D01*
X217680Y48569D01*
X217713Y48461D01*
X217750Y48354D01*
X217790Y48248D01*
X217835Y48144D01*
X217883Y48041D01*
X217934Y47940D01*
X217989Y47841D01*
X218047Y47744D01*
X218109Y47649D01*
X218174Y47556D01*
X218242Y47466D01*
X218313Y47378D01*
X218388Y47292D01*
X218465Y47209D01*
X218545Y47129D01*
X218628Y47052D01*
X218714Y46977D01*
X218802Y46906D01*
X218892Y46838D01*
X218985Y46773D01*
X219080Y46711D01*
X219177Y46653D01*
X219276Y46598D01*
X219377Y46547D01*
X219480Y46499D01*
X219584Y46454D01*
X219690Y46414D01*
X219797Y46377D01*
X219905Y46344D01*
X220015Y46314D01*
X220125Y46289D01*
X220236Y46267D01*
X220348Y46250D01*
X220461Y46236D01*
X220574Y46226D01*
X220687Y46220D01*
X220800Y46218D01*
X220913Y46220D01*
X221026Y46226D01*
X221139Y46236D01*
X221252Y46250D01*
X221364Y46267D01*
X221475Y46289D01*
X221585Y46314D01*
X221695Y46344D01*
X221803Y46377D01*
X221910Y46414D01*
X222016Y46454D01*
X222120Y46499D01*
X222223Y46547D01*
X222324Y46598D01*
X222423Y46653D01*
X222520Y46711D01*
X222615Y46773D01*
X222708Y46838D01*
X222798Y46906D01*
X222886Y46977D01*
X222972Y47052D01*
X223055Y47129D01*
X223135Y47209D01*
X223212Y47292D01*
X223287Y47378D01*
X223358Y47466D01*
X223426Y47556D01*
X223491Y47649D01*
X223553Y47744D01*
X223611Y47841D01*
X223666Y47940D01*
X223717Y48041D01*
X223765Y48144D01*
X223810Y48248D01*
X223850Y48354D01*
X223887Y48461D01*
X223920Y48569D01*
X223950Y48679D01*
X223975Y48789D01*
X223997Y48900D01*
X224014Y49012D01*
X224028Y49125D01*
X224038Y49238D01*
X224044Y49351D01*
X224046Y49464D01*
X210132Y46218D02*
X210132Y57902D01*
X213377Y57902D02*
X206886Y57902D01*
X202306Y46218D02*
X197113Y46218D01*
X202306Y46218D02*
X202306Y57902D01*
X197113Y57902D01*
X198411Y52709D02*
X202306Y52709D01*
X190240Y46218D02*
X187644Y46218D01*
X190240Y46218D02*
X190339Y46220D01*
X190439Y46226D01*
X190538Y46235D01*
X190636Y46248D01*
X190734Y46265D01*
X190832Y46286D01*
X190928Y46311D01*
X191023Y46339D01*
X191117Y46371D01*
X191210Y46406D01*
X191302Y46445D01*
X191392Y46488D01*
X191480Y46533D01*
X191567Y46583D01*
X191651Y46635D01*
X191734Y46691D01*
X191814Y46749D01*
X191892Y46811D01*
X191967Y46876D01*
X192040Y46944D01*
X192110Y47014D01*
X192178Y47087D01*
X192243Y47162D01*
X192305Y47240D01*
X192363Y47320D01*
X192419Y47403D01*
X192471Y47487D01*
X192521Y47574D01*
X192566Y47662D01*
X192609Y47752D01*
X192648Y47844D01*
X192683Y47937D01*
X192715Y48031D01*
X192743Y48126D01*
X192768Y48222D01*
X192789Y48320D01*
X192806Y48418D01*
X192819Y48516D01*
X192828Y48615D01*
X192834Y48715D01*
X192836Y48814D01*
X192837Y48814D02*
X192837Y55306D01*
X192836Y55306D02*
X192834Y55405D01*
X192828Y55505D01*
X192819Y55604D01*
X192806Y55702D01*
X192789Y55800D01*
X192768Y55898D01*
X192743Y55994D01*
X192715Y56089D01*
X192683Y56183D01*
X192648Y56276D01*
X192609Y56368D01*
X192566Y56458D01*
X192521Y56546D01*
X192471Y56633D01*
X192419Y56717D01*
X192363Y56800D01*
X192305Y56880D01*
X192243Y56958D01*
X192178Y57033D01*
X192110Y57106D01*
X192040Y57176D01*
X191967Y57244D01*
X191892Y57309D01*
X191814Y57371D01*
X191734Y57429D01*
X191651Y57485D01*
X191567Y57537D01*
X191480Y57587D01*
X191392Y57632D01*
X191302Y57675D01*
X191210Y57714D01*
X191117Y57749D01*
X191023Y57781D01*
X190928Y57809D01*
X190832Y57834D01*
X190734Y57855D01*
X190636Y57872D01*
X190538Y57885D01*
X190439Y57894D01*
X190339Y57900D01*
X190240Y57902D01*
X187644Y57902D01*
X182897Y57902D02*
X182897Y46218D01*
X182897Y52709D02*
X176406Y52709D01*
X176406Y57902D02*
X176406Y46218D01*
D17*
X814946Y209894D03*
X814946Y255106D03*
D18*
X790054Y197448D03*
X790054Y267552D03*
D14*
X789880Y652500D02*
X805120Y652500D01*
X805120Y627500D02*
X789880Y627500D01*
X789880Y602500D02*
X805120Y602500D01*
X805120Y777500D02*
X789880Y777500D01*
X789880Y752500D02*
X805120Y752500D01*
X805120Y727500D02*
X789880Y727500D01*
X789880Y902500D02*
X805120Y902500D01*
X805120Y877500D02*
X789880Y877500D01*
X789880Y852500D02*
X805120Y852500D01*
D12*
X81278Y521100D02*
X60323Y521100D01*
X60323Y470300D02*
X81278Y470300D01*
X81278Y63900D02*
X60323Y63900D01*
X60323Y419500D02*
X81278Y419500D01*
X81278Y368700D02*
X60323Y368700D01*
X60323Y114700D02*
X81278Y114700D01*
X81278Y317900D02*
X60323Y317900D01*
X60323Y267100D02*
X81278Y267100D01*
X81278Y165500D02*
X60323Y165500D01*
X60323Y216300D02*
X81278Y216300D01*
D19*
X599600Y887300D03*
X599600Y912700D03*
X625000Y887300D03*
X625000Y912700D03*
X650400Y887300D03*
X650400Y912700D03*
D20*
X486779Y192875D02*
X355134Y192875D01*
X486779Y192875D02*
X498004Y181649D01*
X70415Y521476D02*
X70415Y620464D01*
X45923Y644956D01*
X45923Y676592D01*
X70415Y701084D01*
X70415Y521476D02*
X70800Y521100D01*
X70415Y701084D02*
X70800Y701300D01*
D21*
X355134Y192875D03*
X498004Y181649D03*
D22*
X562296Y340847D02*
X596993Y340847D01*
X562296Y340847D02*
X534742Y340847D01*
X596993Y340847D02*
X663325Y407180D01*
X664300Y407600D01*
X531681Y357175D02*
X531681Y343909D01*
X531681Y357175D02*
X531681Y373503D01*
X531681Y343909D02*
X534742Y340847D01*
X531681Y357175D02*
X488820Y357175D01*
X562296Y340847D02*
X562296Y260228D01*
X797011Y653120D02*
X797011Y705166D01*
X778642Y723535D01*
X778642Y758232D01*
X797011Y776601D01*
X797011Y653120D02*
X797500Y652500D01*
X797011Y776601D02*
X797500Y777500D01*
X722514Y524537D02*
X740883Y506168D01*
X740883Y458205D01*
X740373Y457694D02*
X723535Y440856D01*
X740373Y457694D02*
X740883Y458205D01*
X722514Y524537D02*
X722500Y525200D01*
X723535Y440856D02*
X722700Y440650D01*
X808236Y408200D02*
X808236Y404118D01*
X808236Y408200D02*
X759252Y457184D01*
X740883Y457184D01*
X808236Y404118D02*
X808400Y404050D01*
X740883Y457184D02*
X740373Y457694D01*
X797011Y650059D02*
X797011Y652100D01*
X797011Y650059D02*
X740883Y593931D01*
X740883Y543927D01*
X722514Y525558D01*
X797011Y652100D02*
X797500Y652500D01*
X722514Y525558D02*
X722500Y525200D01*
X133686Y694961D02*
X133686Y774560D01*
X133686Y694961D02*
X133686Y564337D01*
X136747Y561275D01*
X136747Y535763D01*
X71435Y470451D01*
X70800Y470300D01*
X396975Y357175D02*
X488820Y357175D01*
X396975Y357175D02*
X391872Y362278D01*
D21*
X534742Y340847D03*
X531681Y373503D03*
X488820Y357175D03*
X562296Y260228D03*
X133686Y774560D03*
X133686Y694961D03*
X391872Y362278D03*
D22*
X624546Y793949D02*
X624546Y847015D01*
X654141Y876610D01*
X655161Y876610D01*
X661284Y882733D01*
X661284Y891917D01*
X655161Y898040D01*
X616382Y898040D01*
X606177Y887835D01*
X600054Y887835D01*
X599600Y887300D01*
X606177Y641895D02*
X357175Y392893D01*
X606177Y641895D02*
X606177Y689858D01*
D21*
X624546Y793949D03*
X357175Y392893D03*
X606177Y689858D03*
D22*
X509230Y726596D02*
X187772Y405139D01*
D21*
X509230Y726596D03*
X187772Y405139D03*
D22*
X357175Y406159D02*
X588829Y637813D01*
D21*
X588829Y637813D03*
X357175Y406159D03*
D22*
X483717Y658223D02*
X599034Y658223D01*
X483717Y658223D02*
X276556Y451061D01*
D21*
X599034Y658223D03*
X276556Y451061D03*
D22*
X554132Y644956D02*
X599034Y644956D01*
X554132Y644956D02*
X252064Y342888D01*
X251125Y342050D01*
D21*
X599034Y644956D03*
D22*
X616382Y697002D02*
X641895Y722514D01*
X616382Y697002D02*
X495963Y697002D01*
X427590Y628628D01*
D21*
X641895Y722514D03*
X427590Y628628D03*
D22*
X345950Y720473D02*
X206141Y720473D01*
X601075Y723535D02*
X631690Y723535D01*
X601075Y723535D02*
X581685Y704145D01*
X537804Y704145D01*
X516373Y725576D01*
X516373Y742924D01*
X487799Y771498D01*
X396975Y771498D01*
X345950Y720473D01*
D21*
X206141Y720473D03*
X345950Y720473D03*
X631690Y723535D03*
D22*
X614341Y865384D02*
X614341Y876610D01*
X624546Y886815D01*
X625000Y887300D01*
X590870Y252064D02*
X576583Y252064D01*
X569439Y244920D01*
X470451Y244920D01*
X377585Y337786D01*
X377585Y363298D01*
X384729Y370442D01*
X652100Y850077D02*
X652100Y864364D01*
X652100Y850077D02*
X645977Y843954D01*
X645977Y763334D01*
X657202Y752109D01*
X657202Y642915D01*
X384729Y370442D01*
D21*
X614341Y865384D03*
X590870Y252064D03*
X384729Y370442D03*
X652100Y864364D03*
D22*
X610259Y859261D02*
X610259Y818441D01*
X610259Y859261D02*
X588829Y880692D01*
X588829Y891917D01*
X598013Y901102D01*
X613321Y901102D01*
X624546Y912327D01*
X625000Y912700D01*
X384729Y404118D02*
X384729Y392893D01*
X384729Y404118D02*
X653120Y672510D01*
X653120Y750068D01*
X626587Y776601D01*
D21*
X610259Y818441D03*
X384729Y392893D03*
X626587Y776601D03*
D22*
X627608Y747006D02*
X620464Y747006D01*
X627608Y747006D02*
X649038Y725576D01*
X649038Y674551D01*
X353093Y378606D01*
D21*
X620464Y747006D03*
X353093Y378606D03*
D22*
X605157Y733740D02*
X630669Y733740D01*
X605157Y733740D02*
X579644Y708227D01*
X539845Y708227D01*
X520455Y727617D01*
X520455Y744965D01*
X388811Y876610D01*
D21*
X630669Y733740D03*
X388811Y876610D03*
D22*
X96948Y321458D02*
X96948Y282679D01*
X96948Y321458D02*
X63271Y355134D01*
X54087Y355134D01*
X41841Y367380D01*
X41841Y471471D01*
X77558Y507189D01*
X86743Y507189D01*
X129604Y550050D01*
X129604Y558214D01*
D21*
X96948Y282679D03*
X129604Y558214D03*
D22*
X86743Y436774D02*
X205121Y436774D01*
X487799Y719453D01*
D21*
X86743Y436774D03*
X487799Y719453D03*
D22*
X798031Y605157D02*
X798031Y603116D01*
X798031Y605157D02*
X816400Y623526D01*
X816400Y708227D01*
X798031Y726596D01*
X798031Y603116D02*
X797500Y602500D01*
X798031Y726596D02*
X797500Y727500D01*
X797011Y853138D02*
X752109Y898040D01*
X797011Y853138D02*
X797500Y852500D01*
X163280Y419426D02*
X71435Y419426D01*
X163280Y419426D02*
X189813Y392893D01*
X225531Y392893D01*
X71435Y419426D02*
X70800Y419500D01*
X225531Y392893D02*
X225725Y392850D01*
X714350Y565357D02*
X714350Y591890D01*
X714350Y565357D02*
X602095Y453102D01*
D21*
X752109Y898040D03*
X714350Y591890D03*
X602095Y453102D03*
D22*
X627608Y417385D02*
X559234Y485758D01*
X627608Y417385D02*
X687817Y417385D01*
X808236Y296966D01*
X808400Y296950D01*
D21*
X559234Y485758D03*
D22*
X614341Y332683D02*
X614341Y321458D01*
X614341Y332683D02*
X663325Y381667D01*
X664300Y382200D01*
X464328Y347991D02*
X391872Y347991D01*
X464328Y347991D02*
X559234Y253084D01*
X565357Y253084D01*
X614341Y302068D01*
X614341Y321458D01*
D21*
X614341Y321458D03*
X391872Y347991D03*
D22*
X646997Y328601D02*
X662305Y343909D01*
X688838Y343909D01*
X689700Y344200D01*
X465348Y340847D02*
X384729Y340847D01*
X465348Y340847D02*
X557193Y249002D01*
X567398Y249002D01*
X646997Y328601D01*
X644956Y328601D01*
D21*
X644956Y328601D03*
X384729Y340847D03*
D22*
X594952Y733740D02*
X617403Y756191D01*
X617403Y854159D01*
X650059Y886815D01*
X650400Y887300D01*
X815380Y239818D02*
X815380Y210223D01*
X815380Y239818D02*
X826605Y251043D01*
X826605Y292884D01*
X807216Y312273D01*
X804154Y312273D01*
X672510Y443918D01*
X672510Y513312D01*
X815380Y210223D02*
X814946Y209894D01*
D21*
X594952Y733740D03*
X672510Y513312D03*
D22*
X136747Y232674D02*
X136747Y228592D01*
X136747Y232674D02*
X240838Y336765D01*
X240838Y425549D01*
X460246Y644956D01*
X464328Y644956D01*
X485758Y666387D01*
X529640Y666387D01*
D21*
X136747Y228592D03*
X485758Y666387D03*
X529640Y666387D03*
D22*
X668428Y872528D02*
X676592Y872528D01*
X721494Y827626D01*
X721494Y551070D01*
X722500Y550600D01*
D21*
X668428Y872528D03*
D22*
X104091Y365339D02*
X104091Y134706D01*
X104091Y365339D02*
X64292Y405139D01*
X55107Y405139D01*
X45923Y414323D01*
X45923Y424528D01*
X77558Y456164D01*
X176547Y456164D01*
X484738Y764355D01*
D21*
X104091Y134706D03*
X484738Y764355D03*
D22*
X128583Y230633D02*
X128583Y97968D01*
X128583Y230633D02*
X236756Y338806D01*
X236756Y427590D01*
X461266Y652100D01*
D21*
X128583Y97968D03*
X461266Y652100D03*
D22*
X609239Y758232D02*
X609239Y809257D01*
X584747Y833749D01*
X584747Y898040D01*
X599034Y912327D01*
X599600Y912700D01*
X566378Y715371D02*
X542906Y715371D01*
X566378Y715371D02*
X609239Y758232D01*
D21*
X609239Y758232D03*
X542906Y715371D03*
D22*
X651079Y908245D02*
X651079Y912327D01*
X651079Y908245D02*
X665366Y893958D01*
X665366Y879671D01*
X661284Y875589D01*
X661284Y869466D01*
X671489Y859261D01*
X683735Y859261D01*
X699043Y843954D01*
X699043Y699043D01*
X668428Y668428D01*
X651079Y912327D02*
X650400Y912700D01*
D21*
X668428Y668428D03*
M02*
