G04 EAGLE Gerber RS-274X export*
G75*
%MOMM*%
%FSLAX34Y34*%
%LPD*%
%IN*%
%IPPOS*%
%AMOC8*
5,1,8,0,0,1.08239X$1,22.5*%
G01*
%ADD10C,0.254000*%


D10*
X0Y0D02*
X845000Y0D01*
X845000Y965000D01*
X0Y965000D01*
X0Y0D01*
X187500Y831964D02*
X187424Y830896D01*
X187271Y829835D01*
X187043Y828788D01*
X186741Y827760D01*
X186367Y826756D01*
X185922Y825781D01*
X185408Y824841D01*
X184829Y823940D01*
X184187Y823082D01*
X183485Y822272D01*
X182728Y821515D01*
X181918Y820813D01*
X181060Y820171D01*
X180159Y819592D01*
X179219Y819078D01*
X178244Y818633D01*
X177240Y818259D01*
X176212Y817957D01*
X175165Y817729D01*
X174104Y817576D01*
X173036Y817500D01*
X171964Y817500D01*
X170896Y817576D01*
X169835Y817729D01*
X168788Y817957D01*
X167760Y818259D01*
X166756Y818633D01*
X165781Y819078D01*
X164841Y819592D01*
X163940Y820171D01*
X163082Y820813D01*
X162272Y821515D01*
X161515Y822272D01*
X160813Y823082D01*
X160171Y823940D01*
X159592Y824841D01*
X159078Y825781D01*
X158633Y826756D01*
X158259Y827760D01*
X157957Y828788D01*
X157729Y829835D01*
X157576Y830896D01*
X157500Y831964D01*
X157500Y833036D01*
X157576Y834104D01*
X157729Y835165D01*
X157957Y836212D01*
X158259Y837240D01*
X158633Y838244D01*
X159078Y839219D01*
X159592Y840159D01*
X160171Y841060D01*
X160813Y841918D01*
X161515Y842728D01*
X162272Y843485D01*
X163082Y844187D01*
X163940Y844829D01*
X164841Y845408D01*
X165781Y845922D01*
X166756Y846367D01*
X167760Y846741D01*
X168788Y847043D01*
X169835Y847271D01*
X170896Y847424D01*
X171964Y847500D01*
X173036Y847500D01*
X174104Y847424D01*
X175165Y847271D01*
X176212Y847043D01*
X177240Y846741D01*
X178244Y846367D01*
X179219Y845922D01*
X180159Y845408D01*
X181060Y844829D01*
X181918Y844187D01*
X182728Y843485D01*
X183485Y842728D01*
X184187Y841918D01*
X184829Y841060D01*
X185408Y840159D01*
X185922Y839219D01*
X186367Y838244D01*
X186741Y837240D01*
X187043Y836212D01*
X187271Y835165D01*
X187424Y834104D01*
X187500Y833036D01*
X187500Y831964D01*
X687500Y831964D02*
X687424Y830896D01*
X687271Y829835D01*
X687043Y828788D01*
X686741Y827760D01*
X686367Y826756D01*
X685922Y825781D01*
X685408Y824841D01*
X684829Y823940D01*
X684187Y823082D01*
X683485Y822272D01*
X682728Y821515D01*
X681918Y820813D01*
X681060Y820171D01*
X680159Y819592D01*
X679219Y819078D01*
X678244Y818633D01*
X677240Y818259D01*
X676212Y817957D01*
X675165Y817729D01*
X674104Y817576D01*
X673036Y817500D01*
X671964Y817500D01*
X670896Y817576D01*
X669835Y817729D01*
X668788Y817957D01*
X667760Y818259D01*
X666756Y818633D01*
X665781Y819078D01*
X664841Y819592D01*
X663940Y820171D01*
X663082Y820813D01*
X662272Y821515D01*
X661515Y822272D01*
X660813Y823082D01*
X660171Y823940D01*
X659592Y824841D01*
X659078Y825781D01*
X658633Y826756D01*
X658259Y827760D01*
X657957Y828788D01*
X657729Y829835D01*
X657576Y830896D01*
X657500Y831964D01*
X657500Y833036D01*
X657576Y834104D01*
X657729Y835165D01*
X657957Y836212D01*
X658259Y837240D01*
X658633Y838244D01*
X659078Y839219D01*
X659592Y840159D01*
X660171Y841060D01*
X660813Y841918D01*
X661515Y842728D01*
X662272Y843485D01*
X663082Y844187D01*
X663940Y844829D01*
X664841Y845408D01*
X665781Y845922D01*
X666756Y846367D01*
X667760Y846741D01*
X668788Y847043D01*
X669835Y847271D01*
X670896Y847424D01*
X671964Y847500D01*
X673036Y847500D01*
X674104Y847424D01*
X675165Y847271D01*
X676212Y847043D01*
X677240Y846741D01*
X678244Y846367D01*
X679219Y845922D01*
X680159Y845408D01*
X681060Y844829D01*
X681918Y844187D01*
X682728Y843485D01*
X683485Y842728D01*
X684187Y841918D01*
X684829Y841060D01*
X685408Y840159D01*
X685922Y839219D01*
X686367Y838244D01*
X686741Y837240D01*
X687043Y836212D01*
X687271Y835165D01*
X687424Y834104D01*
X687500Y833036D01*
X687500Y831964D01*
X187500Y131964D02*
X187424Y130896D01*
X187271Y129835D01*
X187043Y128788D01*
X186741Y127760D01*
X186367Y126756D01*
X185922Y125781D01*
X185408Y124841D01*
X184829Y123940D01*
X184187Y123082D01*
X183485Y122272D01*
X182728Y121515D01*
X181918Y120813D01*
X181060Y120171D01*
X180159Y119592D01*
X179219Y119078D01*
X178244Y118633D01*
X177240Y118259D01*
X176212Y117957D01*
X175165Y117729D01*
X174104Y117576D01*
X173036Y117500D01*
X171964Y117500D01*
X170896Y117576D01*
X169835Y117729D01*
X168788Y117957D01*
X167760Y118259D01*
X166756Y118633D01*
X165781Y119078D01*
X164841Y119592D01*
X163940Y120171D01*
X163082Y120813D01*
X162272Y121515D01*
X161515Y122272D01*
X160813Y123082D01*
X160171Y123940D01*
X159592Y124841D01*
X159078Y125781D01*
X158633Y126756D01*
X158259Y127760D01*
X157957Y128788D01*
X157729Y129835D01*
X157576Y130896D01*
X157500Y131964D01*
X157500Y133036D01*
X157576Y134104D01*
X157729Y135165D01*
X157957Y136212D01*
X158259Y137240D01*
X158633Y138244D01*
X159078Y139219D01*
X159592Y140159D01*
X160171Y141060D01*
X160813Y141918D01*
X161515Y142728D01*
X162272Y143485D01*
X163082Y144187D01*
X163940Y144829D01*
X164841Y145408D01*
X165781Y145922D01*
X166756Y146367D01*
X167760Y146741D01*
X168788Y147043D01*
X169835Y147271D01*
X170896Y147424D01*
X171964Y147500D01*
X173036Y147500D01*
X174104Y147424D01*
X175165Y147271D01*
X176212Y147043D01*
X177240Y146741D01*
X178244Y146367D01*
X179219Y145922D01*
X180159Y145408D01*
X181060Y144829D01*
X181918Y144187D01*
X182728Y143485D01*
X183485Y142728D01*
X184187Y141918D01*
X184829Y141060D01*
X185408Y140159D01*
X185922Y139219D01*
X186367Y138244D01*
X186741Y137240D01*
X187043Y136212D01*
X187271Y135165D01*
X187424Y134104D01*
X187500Y133036D01*
X187500Y131964D01*
X687500Y131964D02*
X687424Y130896D01*
X687271Y129835D01*
X687043Y128788D01*
X686741Y127760D01*
X686367Y126756D01*
X685922Y125781D01*
X685408Y124841D01*
X684829Y123940D01*
X684187Y123082D01*
X683485Y122272D01*
X682728Y121515D01*
X681918Y120813D01*
X681060Y120171D01*
X680159Y119592D01*
X679219Y119078D01*
X678244Y118633D01*
X677240Y118259D01*
X676212Y117957D01*
X675165Y117729D01*
X674104Y117576D01*
X673036Y117500D01*
X671964Y117500D01*
X670896Y117576D01*
X669835Y117729D01*
X668788Y117957D01*
X667760Y118259D01*
X666756Y118633D01*
X665781Y119078D01*
X664841Y119592D01*
X663940Y120171D01*
X663082Y120813D01*
X662272Y121515D01*
X661515Y122272D01*
X660813Y123082D01*
X660171Y123940D01*
X659592Y124841D01*
X659078Y125781D01*
X658633Y126756D01*
X658259Y127760D01*
X657957Y128788D01*
X657729Y129835D01*
X657576Y130896D01*
X657500Y131964D01*
X657500Y133036D01*
X657576Y134104D01*
X657729Y135165D01*
X657957Y136212D01*
X658259Y137240D01*
X658633Y138244D01*
X659078Y139219D01*
X659592Y140159D01*
X660171Y141060D01*
X660813Y141918D01*
X661515Y142728D01*
X662272Y143485D01*
X663082Y144187D01*
X663940Y144829D01*
X664841Y145408D01*
X665781Y145922D01*
X666756Y146367D01*
X667760Y146741D01*
X668788Y147043D01*
X669835Y147271D01*
X670896Y147424D01*
X671964Y147500D01*
X673036Y147500D01*
X674104Y147424D01*
X675165Y147271D01*
X676212Y147043D01*
X677240Y146741D01*
X678244Y146367D01*
X679219Y145922D01*
X680159Y145408D01*
X681060Y144829D01*
X681918Y144187D01*
X682728Y143485D01*
X683485Y142728D01*
X684187Y141918D01*
X684829Y141060D01*
X685408Y140159D01*
X685922Y139219D01*
X686367Y138244D01*
X686741Y137240D01*
X687043Y136212D01*
X687271Y135165D01*
X687424Y134104D01*
X687500Y133036D01*
X687500Y131964D01*
X809840Y100444D02*
X809917Y101327D01*
X810071Y102201D01*
X810301Y103058D01*
X810604Y103892D01*
X810979Y104696D01*
X811423Y105464D01*
X811932Y106191D01*
X812502Y106871D01*
X813129Y107498D01*
X813809Y108068D01*
X814536Y108577D01*
X815304Y109021D01*
X816108Y109396D01*
X816942Y109699D01*
X817799Y109929D01*
X818673Y110083D01*
X819556Y110160D01*
X820444Y110160D01*
X821327Y110083D01*
X822201Y109929D01*
X823058Y109699D01*
X823892Y109396D01*
X824696Y109021D01*
X825464Y108577D01*
X826191Y108068D01*
X826871Y107498D01*
X827498Y106871D01*
X828068Y106191D01*
X828577Y105464D01*
X829021Y104696D01*
X829396Y103892D01*
X829699Y103058D01*
X829929Y102201D01*
X830083Y101327D01*
X830160Y100444D01*
X830160Y99556D01*
X830083Y98673D01*
X829929Y97799D01*
X829699Y96942D01*
X829396Y96108D01*
X829021Y95304D01*
X828577Y94536D01*
X828068Y93809D01*
X827498Y93129D01*
X826871Y92502D01*
X826191Y91932D01*
X825464Y91423D01*
X824696Y90979D01*
X823892Y90604D01*
X823058Y90301D01*
X822201Y90071D01*
X821327Y89917D01*
X820444Y89840D01*
X819556Y89840D01*
X818673Y89917D01*
X817799Y90071D01*
X816942Y90301D01*
X816108Y90604D01*
X815304Y90979D01*
X814536Y91423D01*
X813809Y91932D01*
X813129Y92502D01*
X812502Y93129D01*
X811932Y93809D01*
X811423Y94536D01*
X810979Y95304D01*
X810604Y96108D01*
X810301Y96942D01*
X810071Y97799D01*
X809917Y98673D01*
X809840Y99556D01*
X809840Y100444D01*
X764120Y100444D02*
X764197Y101327D01*
X764351Y102201D01*
X764581Y103058D01*
X764884Y103892D01*
X765259Y104696D01*
X765703Y105464D01*
X766212Y106191D01*
X766782Y106871D01*
X767409Y107498D01*
X768089Y108068D01*
X768816Y108577D01*
X769584Y109021D01*
X770388Y109396D01*
X771222Y109699D01*
X772079Y109929D01*
X772953Y110083D01*
X773836Y110160D01*
X774724Y110160D01*
X775607Y110083D01*
X776481Y109929D01*
X777338Y109699D01*
X778172Y109396D01*
X778976Y109021D01*
X779744Y108577D01*
X780471Y108068D01*
X781151Y107498D01*
X781778Y106871D01*
X782348Y106191D01*
X782857Y105464D01*
X783301Y104696D01*
X783676Y103892D01*
X783979Y103058D01*
X784209Y102201D01*
X784363Y101327D01*
X784440Y100444D01*
X784440Y99556D01*
X784363Y98673D01*
X784209Y97799D01*
X783979Y96942D01*
X783676Y96108D01*
X783301Y95304D01*
X782857Y94536D01*
X782348Y93809D01*
X781778Y93129D01*
X781151Y92502D01*
X780471Y91932D01*
X779744Y91423D01*
X778976Y90979D01*
X778172Y90604D01*
X777338Y90301D01*
X776481Y90071D01*
X775607Y89917D01*
X774724Y89840D01*
X773836Y89840D01*
X772953Y89917D01*
X772079Y90071D01*
X771222Y90301D01*
X770388Y90604D01*
X769584Y90979D01*
X768816Y91423D01*
X768089Y91932D01*
X767409Y92502D01*
X766782Y93129D01*
X766212Y93809D01*
X765703Y94536D01*
X765259Y95304D01*
X764884Y96108D01*
X764581Y96942D01*
X764351Y97799D01*
X764197Y98673D01*
X764120Y99556D01*
X764120Y100444D01*
X770500Y305627D02*
X770425Y304484D01*
X770276Y303348D01*
X770052Y302224D01*
X769755Y301117D01*
X769387Y300032D01*
X768949Y298974D01*
X768442Y297946D01*
X767869Y296954D01*
X767232Y296001D01*
X766535Y295092D01*
X765779Y294231D01*
X764969Y293421D01*
X764108Y292665D01*
X763199Y291968D01*
X762246Y291331D01*
X761254Y290758D01*
X760226Y290251D01*
X759168Y289813D01*
X758083Y289445D01*
X756976Y289148D01*
X755852Y288925D01*
X754716Y288775D01*
X753573Y288700D01*
X752427Y288700D01*
X751284Y288775D01*
X750148Y288925D01*
X749024Y289148D01*
X747917Y289445D01*
X746832Y289813D01*
X745774Y290251D01*
X744746Y290758D01*
X743754Y291331D01*
X742801Y291968D01*
X741892Y292665D01*
X741031Y293421D01*
X740221Y294231D01*
X739465Y295092D01*
X738768Y296001D01*
X738131Y296954D01*
X737558Y297946D01*
X737051Y298974D01*
X736613Y300032D01*
X736245Y301117D01*
X735948Y302224D01*
X735725Y303348D01*
X735575Y304484D01*
X735500Y305627D01*
X735500Y306773D01*
X735575Y307916D01*
X735725Y309052D01*
X735948Y310176D01*
X736245Y311283D01*
X736613Y312368D01*
X737051Y313426D01*
X737558Y314454D01*
X738131Y315446D01*
X738768Y316399D01*
X739465Y317308D01*
X740221Y318169D01*
X741031Y318979D01*
X741892Y319735D01*
X742801Y320432D01*
X743754Y321069D01*
X744746Y321642D01*
X745774Y322149D01*
X746832Y322587D01*
X747917Y322955D01*
X749024Y323252D01*
X750148Y323476D01*
X751284Y323625D01*
X752427Y323700D01*
X753573Y323700D01*
X754716Y323625D01*
X755852Y323476D01*
X756976Y323252D01*
X758083Y322955D01*
X759168Y322587D01*
X760226Y322149D01*
X761254Y321642D01*
X762246Y321069D01*
X763199Y320432D01*
X764108Y319735D01*
X764969Y318979D01*
X765779Y318169D01*
X766535Y317308D01*
X767232Y316399D01*
X767869Y315446D01*
X768442Y314454D01*
X768949Y313426D01*
X769387Y312368D01*
X769755Y311283D01*
X770052Y310176D01*
X770276Y309052D01*
X770425Y307916D01*
X770500Y306773D01*
X770500Y305627D01*
X770500Y419627D02*
X770425Y418484D01*
X770276Y417348D01*
X770052Y416224D01*
X769755Y415117D01*
X769387Y414032D01*
X768949Y412974D01*
X768442Y411946D01*
X767869Y410954D01*
X767232Y410001D01*
X766535Y409092D01*
X765779Y408231D01*
X764969Y407421D01*
X764108Y406665D01*
X763199Y405968D01*
X762246Y405331D01*
X761254Y404758D01*
X760226Y404251D01*
X759168Y403813D01*
X758083Y403445D01*
X756976Y403148D01*
X755852Y402925D01*
X754716Y402775D01*
X753573Y402700D01*
X752427Y402700D01*
X751284Y402775D01*
X750148Y402925D01*
X749024Y403148D01*
X747917Y403445D01*
X746832Y403813D01*
X745774Y404251D01*
X744746Y404758D01*
X743754Y405331D01*
X742801Y405968D01*
X741892Y406665D01*
X741031Y407421D01*
X740221Y408231D01*
X739465Y409092D01*
X738768Y410001D01*
X738131Y410954D01*
X737558Y411946D01*
X737051Y412974D01*
X736613Y414032D01*
X736245Y415117D01*
X735948Y416224D01*
X735725Y417348D01*
X735575Y418484D01*
X735500Y419627D01*
X735500Y420773D01*
X735575Y421916D01*
X735725Y423052D01*
X735948Y424176D01*
X736245Y425283D01*
X736613Y426368D01*
X737051Y427426D01*
X737558Y428454D01*
X738131Y429446D01*
X738768Y430399D01*
X739465Y431308D01*
X740221Y432169D01*
X741031Y432979D01*
X741892Y433735D01*
X742801Y434432D01*
X743754Y435069D01*
X744746Y435642D01*
X745774Y436149D01*
X746832Y436587D01*
X747917Y436955D01*
X749024Y437252D01*
X750148Y437476D01*
X751284Y437625D01*
X752427Y437700D01*
X753573Y437700D01*
X754716Y437625D01*
X755852Y437476D01*
X756976Y437252D01*
X758083Y436955D01*
X759168Y436587D01*
X760226Y436149D01*
X761254Y435642D01*
X762246Y435069D01*
X763199Y434432D01*
X764108Y433735D01*
X764969Y432979D01*
X765779Y432169D01*
X766535Y431308D01*
X767232Y430399D01*
X767869Y429446D01*
X768442Y428454D01*
X768949Y427426D01*
X769387Y426368D01*
X769755Y425283D01*
X770052Y424176D01*
X770276Y423052D01*
X770425Y421916D01*
X770500Y420773D01*
X770500Y419627D01*
M02*
