G04 EAGLE Gerber RS-274X export*
G75*
%MOMM*%
%FSLAX34Y34*%
%LPD*%
%INSoldermask Bottom*%
%IPPOS*%
%AMOC8*
5,1,8,0,0,1.08239X$1,22.5*%
G01*
%ADD10C,3.203200*%
%ADD11C,2.235200*%
%ADD12R,1.511200X1.511200*%
%ADD13C,1.511200*%
%ADD14C,2.298700*%
%ADD15C,2.303200*%
%ADD16C,3.703200*%
%ADD17C,1.727200*%
%ADD18P,1.869504X8X112.500000*%
%ADD19C,2.451100*%
%ADD20P,1.852186X8X22.500000*%
%ADD21C,0.959600*%


D10*
X172500Y832500D03*
X672500Y832500D03*
X172500Y132500D03*
X672500Y132500D03*
D11*
X820000Y100000D03*
X774280Y100000D03*
D12*
X251125Y418250D03*
X251125Y342050D03*
D13*
X251125Y392850D03*
X251125Y367450D03*
X225725Y367450D03*
X225725Y392850D03*
X225725Y418250D03*
X225725Y342050D03*
D14*
X81278Y904500D02*
X60323Y904500D01*
X60323Y853700D02*
X81278Y853700D01*
X81278Y650500D02*
X60323Y650500D01*
X60323Y802900D02*
X81278Y802900D01*
X81278Y752100D02*
X60323Y752100D01*
X60323Y701300D02*
X81278Y701300D01*
D15*
X722700Y285750D03*
X722700Y440650D03*
D13*
X808400Y429450D03*
X808400Y404050D03*
X808400Y322350D03*
X808400Y296950D03*
X664300Y407600D03*
X664300Y382200D03*
X664300Y356800D03*
X664300Y331400D03*
X689700Y395000D03*
X689700Y369600D03*
X689700Y344200D03*
X689700Y318800D03*
D16*
X753000Y306200D03*
X753000Y420200D03*
D17*
X730120Y550600D02*
X714880Y550600D01*
X714880Y525200D02*
X730120Y525200D01*
X730120Y499800D02*
X714880Y499800D01*
X714880Y474400D02*
X730120Y474400D01*
D18*
X814946Y209894D03*
X814946Y255106D03*
D19*
X790054Y197448D03*
X790054Y267552D03*
D17*
X789880Y652500D02*
X805120Y652500D01*
X805120Y627500D02*
X789880Y627500D01*
X789880Y602500D02*
X805120Y602500D01*
X805120Y777500D02*
X789880Y777500D01*
X789880Y752500D02*
X805120Y752500D01*
X805120Y727500D02*
X789880Y727500D01*
X789880Y902500D02*
X805120Y902500D01*
X805120Y877500D02*
X789880Y877500D01*
X789880Y852500D02*
X805120Y852500D01*
D14*
X81278Y521100D02*
X60323Y521100D01*
X60323Y470300D02*
X81278Y470300D01*
X81278Y63900D02*
X60323Y63900D01*
X60323Y419500D02*
X81278Y419500D01*
X81278Y368700D02*
X60323Y368700D01*
X60323Y114700D02*
X81278Y114700D01*
X81278Y317900D02*
X60323Y317900D01*
X60323Y267100D02*
X81278Y267100D01*
X81278Y165500D02*
X60323Y165500D01*
X60323Y216300D02*
X81278Y216300D01*
D20*
X599600Y887300D03*
X599600Y912700D03*
X625000Y887300D03*
X625000Y912700D03*
X650400Y887300D03*
X650400Y912700D03*
D21*
X355134Y192875D03*
X498004Y181649D03*
X534742Y340847D03*
X531681Y373503D03*
X488820Y357175D03*
X562296Y260228D03*
X133686Y774560D03*
X133686Y694961D03*
X391872Y362278D03*
X624546Y793949D03*
X357175Y392893D03*
X606177Y689858D03*
X509230Y726596D03*
X187772Y405139D03*
X588829Y637813D03*
X357175Y406159D03*
X599034Y658223D03*
X276556Y451061D03*
X599034Y644956D03*
X641895Y722514D03*
X427590Y628628D03*
X206141Y720473D03*
X345950Y720473D03*
X631690Y723535D03*
X614341Y865384D03*
X590870Y252064D03*
X384729Y370442D03*
X652100Y864364D03*
X610259Y818441D03*
X384729Y392893D03*
X626587Y776601D03*
X620464Y747006D03*
X353093Y378606D03*
X630669Y733740D03*
X388811Y876610D03*
X96948Y282679D03*
X129604Y558214D03*
X86743Y436774D03*
X487799Y719453D03*
X752109Y898040D03*
X714350Y591890D03*
X602095Y453102D03*
X559234Y485758D03*
X614341Y321458D03*
X391872Y347991D03*
X644956Y328601D03*
X384729Y340847D03*
X594952Y733740D03*
X672510Y513312D03*
X136747Y228592D03*
X485758Y666387D03*
X529640Y666387D03*
X668428Y872528D03*
X104091Y134706D03*
X484738Y764355D03*
X128583Y97968D03*
X461266Y652100D03*
X609239Y758232D03*
X542906Y715371D03*
X668428Y668428D03*
M02*
