G04 EAGLE Gerber RS-274X export*
G75*
%MOMM*%
%FSLAX34Y34*%
%LPD*%
%AMOC8*
5,1,8,0,0,1.08239X$1,22.5*%
G01*
%ADD10R,1.200000X1.200000*%
%ADD11R,1.270000X1.470000*%
%ADD12R,0.800000X1.200000*%
%ADD13R,1.780000X3.200000*%
%ADD14R,2.800000X2.400000*%
%ADD15R,1.200000X0.800000*%
%ADD16R,1.470000X1.270000*%
%ADD17R,3.810000X2.082800*%
%ADD18R,8.890000X11.430000*%
%ADD19C,1.524000*%
%ADD20R,1.308000X1.308000*%
%ADD21C,1.308000*%
%ADD22C,2.095500*%
%ADD23R,1.500000X0.400000*%
%ADD24R,1.700000X3.300000*%
%ADD25R,1.200000X2.000000*%
%ADD26C,2.100000*%
%ADD27R,1.270000X0.558800*%
%ADD28R,0.558800X1.270000*%
%ADD29C,0.450000*%
%ADD30C,0.254000*%
%ADD31C,1.524000*%
%ADD32P,1.649562X8X202.500000*%
%ADD33R,4.300000X2.500000*%
%ADD34R,5.500000X4.000000*%
%ADD35R,10.800000X10.410000*%
%ADD36R,1.066800X2.159000*%
%ADD37R,2.400000X2.400000*%
%ADD38C,0.127000*%
%ADD39C,0.101600*%
%ADD40P,1.649562X8X292.500000*%
%ADD41C,2.247900*%
%ADD42C,0.756400*%
%ADD43C,0.203200*%


D10*
X812500Y233000D03*
X812500Y212000D03*
D11*
X684000Y55000D03*
X641000Y55000D03*
D12*
X766500Y212500D03*
X748500Y212500D03*
D13*
X592400Y55000D03*
X542600Y55000D03*
D14*
X810000Y43000D03*
X810000Y157000D03*
X749000Y43000D03*
X749000Y157000D03*
D15*
X412500Y914000D03*
X412500Y896000D03*
D16*
X170000Y883500D03*
X170000Y926500D03*
D17*
X371400Y859600D03*
X371400Y910400D03*
D18*
X257100Y885000D03*
D15*
X712500Y589000D03*
X712500Y571000D03*
D19*
X772380Y620000D02*
X787620Y620000D01*
X787620Y595000D02*
X772380Y595000D01*
X772380Y570000D02*
X787620Y570000D01*
D15*
X715000Y731500D03*
X715000Y713500D03*
D19*
X772380Y762500D02*
X787620Y762500D01*
X787620Y737500D02*
X772380Y737500D01*
X772380Y712500D02*
X787620Y712500D01*
D15*
X415000Y784000D03*
X415000Y766000D03*
D16*
X170000Y738500D03*
X170000Y781500D03*
D17*
X371400Y729600D03*
X371400Y780400D03*
D18*
X257100Y755000D03*
D20*
X251125Y418250D03*
X251125Y342050D03*
D21*
X251125Y392850D03*
X251125Y367450D03*
X225725Y367450D03*
X225725Y392850D03*
X225725Y418250D03*
X225725Y342050D03*
D22*
X78778Y904500D02*
X57823Y904500D01*
X57823Y853700D02*
X78778Y853700D01*
X78778Y650500D02*
X57823Y650500D01*
X57823Y802900D02*
X78778Y802900D01*
X78778Y752100D02*
X57823Y752100D01*
X57823Y701300D02*
X78778Y701300D01*
X81278Y319500D02*
X60323Y319500D01*
X60323Y268700D02*
X81278Y268700D01*
X81278Y65500D02*
X60323Y65500D01*
X60323Y217900D02*
X81278Y217900D01*
X81278Y167100D02*
X60323Y167100D01*
X60323Y116300D02*
X81278Y116300D01*
D15*
X415000Y634000D03*
X415000Y616000D03*
D16*
X172500Y611000D03*
X172500Y654000D03*
D17*
X373900Y599600D03*
X373900Y650400D03*
D18*
X259600Y625000D03*
D15*
X712500Y874000D03*
X712500Y856000D03*
D19*
X772380Y905000D02*
X787620Y905000D01*
X787620Y880000D02*
X772380Y880000D01*
X772380Y855000D02*
X787620Y855000D01*
D15*
X132500Y184000D03*
X132500Y166000D03*
X132500Y134000D03*
X132500Y116000D03*
X132500Y84000D03*
X132500Y66000D03*
D23*
X371250Y419750D03*
X371250Y413250D03*
X371250Y406750D03*
X371250Y400250D03*
X371250Y393750D03*
X371250Y387250D03*
X371250Y380750D03*
X371250Y374250D03*
X371250Y367750D03*
X371250Y361250D03*
X371250Y354750D03*
X371250Y348250D03*
X371250Y341750D03*
X371250Y335250D03*
X443750Y335250D03*
X443750Y341750D03*
X443750Y348250D03*
X443750Y354750D03*
X443750Y361250D03*
X443750Y367750D03*
X443750Y374250D03*
X443750Y380750D03*
X443750Y387250D03*
X443750Y393750D03*
X443750Y400250D03*
X443750Y406750D03*
X443750Y413250D03*
X443750Y419750D03*
D12*
X316500Y350000D03*
X298500Y350000D03*
X316500Y382500D03*
X298500Y382500D03*
X341500Y322500D03*
X323500Y322500D03*
D24*
X511500Y420000D03*
X548500Y420000D03*
D12*
X503500Y340000D03*
X521500Y340000D03*
X503500Y367500D03*
X521500Y367500D03*
D15*
X560000Y358500D03*
X560000Y376500D03*
X602500Y358500D03*
X602500Y376500D03*
X602500Y303500D03*
X602500Y321500D03*
X560000Y303500D03*
X560000Y321500D03*
D12*
X521500Y315000D03*
X503500Y315000D03*
D15*
X602500Y431500D03*
X602500Y413500D03*
D12*
X521500Y287500D03*
X503500Y287500D03*
D25*
X320000Y416000D03*
X320000Y444000D03*
D12*
X504000Y472500D03*
X486000Y472500D03*
X461500Y472500D03*
X443500Y472500D03*
D26*
X722700Y275750D03*
X722700Y430650D03*
D21*
X808400Y419450D03*
X808400Y394050D03*
X808400Y312350D03*
X808400Y286950D03*
X664300Y397600D03*
X664300Y372200D03*
X664300Y346800D03*
X664300Y321400D03*
X689700Y385000D03*
X689700Y359600D03*
X689700Y334200D03*
X689700Y308800D03*
D19*
X122620Y404400D02*
X107380Y404400D01*
X107380Y429800D02*
X122620Y429800D01*
X122620Y455200D02*
X107380Y455200D01*
X107380Y480600D02*
X122620Y480600D01*
D15*
X482500Y869000D03*
X482500Y851000D03*
D12*
X466000Y812500D03*
X484000Y812500D03*
X466000Y765000D03*
X484000Y765000D03*
D15*
X767500Y491500D03*
X767500Y473500D03*
D10*
X812500Y493000D03*
X812500Y472000D03*
D27*
G36*
X613040Y716313D02*
X622019Y707334D01*
X618068Y703383D01*
X609089Y712362D01*
X613040Y716313D01*
G37*
G36*
X618697Y721970D02*
X627676Y712991D01*
X623725Y709040D01*
X614746Y718019D01*
X618697Y721970D01*
G37*
G36*
X624354Y727626D02*
X633333Y718647D01*
X629382Y714696D01*
X620403Y723675D01*
X624354Y727626D01*
G37*
G36*
X630011Y733283D02*
X638990Y724304D01*
X635039Y720353D01*
X626060Y729332D01*
X630011Y733283D01*
G37*
G36*
X635668Y738940D02*
X644647Y729961D01*
X640696Y726010D01*
X631717Y734989D01*
X635668Y738940D01*
G37*
G36*
X641325Y744597D02*
X650304Y735618D01*
X646353Y731667D01*
X637374Y740646D01*
X641325Y744597D01*
G37*
G36*
X646981Y750254D02*
X655960Y741275D01*
X652009Y737324D01*
X643030Y746303D01*
X646981Y750254D01*
G37*
G36*
X652638Y755911D02*
X661617Y746932D01*
X657666Y742981D01*
X648687Y751960D01*
X652638Y755911D01*
G37*
D28*
G36*
X657666Y777019D02*
X661617Y773068D01*
X652638Y764089D01*
X648687Y768040D01*
X657666Y777019D01*
G37*
G36*
X652009Y782676D02*
X655960Y778725D01*
X646981Y769746D01*
X643030Y773697D01*
X652009Y782676D01*
G37*
G36*
X646353Y788333D02*
X650304Y784382D01*
X641325Y775403D01*
X637374Y779354D01*
X646353Y788333D01*
G37*
G36*
X640696Y793990D02*
X644647Y790039D01*
X635668Y781060D01*
X631717Y785011D01*
X640696Y793990D01*
G37*
G36*
X635039Y799647D02*
X638990Y795696D01*
X630011Y786717D01*
X626060Y790668D01*
X635039Y799647D01*
G37*
G36*
X629382Y805304D02*
X633333Y801353D01*
X624354Y792374D01*
X620403Y796325D01*
X629382Y805304D01*
G37*
G36*
X623725Y810960D02*
X627676Y807009D01*
X618697Y798030D01*
X614746Y801981D01*
X623725Y810960D01*
G37*
G36*
X618068Y816617D02*
X622019Y812666D01*
X613040Y803687D01*
X609089Y807638D01*
X618068Y816617D01*
G37*
D27*
G36*
X591932Y816617D02*
X600911Y807638D01*
X596960Y803687D01*
X587981Y812666D01*
X591932Y816617D01*
G37*
G36*
X586275Y810960D02*
X595254Y801981D01*
X591303Y798030D01*
X582324Y807009D01*
X586275Y810960D01*
G37*
G36*
X580618Y805304D02*
X589597Y796325D01*
X585646Y792374D01*
X576667Y801353D01*
X580618Y805304D01*
G37*
G36*
X574961Y799647D02*
X583940Y790668D01*
X579989Y786717D01*
X571010Y795696D01*
X574961Y799647D01*
G37*
G36*
X569304Y793990D02*
X578283Y785011D01*
X574332Y781060D01*
X565353Y790039D01*
X569304Y793990D01*
G37*
G36*
X563647Y788333D02*
X572626Y779354D01*
X568675Y775403D01*
X559696Y784382D01*
X563647Y788333D01*
G37*
G36*
X557991Y782676D02*
X566970Y773697D01*
X563019Y769746D01*
X554040Y778725D01*
X557991Y782676D01*
G37*
G36*
X552334Y777019D02*
X561313Y768040D01*
X557362Y764089D01*
X548383Y773068D01*
X552334Y777019D01*
G37*
D28*
G36*
X557362Y755911D02*
X561313Y751960D01*
X552334Y742981D01*
X548383Y746932D01*
X557362Y755911D01*
G37*
G36*
X563019Y750254D02*
X566970Y746303D01*
X557991Y737324D01*
X554040Y741275D01*
X563019Y750254D01*
G37*
G36*
X568675Y744597D02*
X572626Y740646D01*
X563647Y731667D01*
X559696Y735618D01*
X568675Y744597D01*
G37*
G36*
X574332Y738940D02*
X578283Y734989D01*
X569304Y726010D01*
X565353Y729961D01*
X574332Y738940D01*
G37*
G36*
X579989Y733283D02*
X583940Y729332D01*
X574961Y720353D01*
X571010Y724304D01*
X579989Y733283D01*
G37*
G36*
X585646Y727626D02*
X589597Y723675D01*
X580618Y714696D01*
X576667Y718647D01*
X585646Y727626D01*
G37*
G36*
X591303Y721970D02*
X595254Y718019D01*
X586275Y709040D01*
X582324Y712991D01*
X591303Y721970D01*
G37*
G36*
X596960Y716313D02*
X600911Y712362D01*
X591932Y703383D01*
X587981Y707334D01*
X596960Y716313D01*
G37*
D15*
X517500Y869000D03*
X517500Y851000D03*
D12*
X484000Y692500D03*
X466000Y692500D03*
D29*
X648000Y667275D02*
X648000Y652725D01*
X660000Y652725D02*
X660000Y667275D01*
X672000Y667275D02*
X672000Y652725D01*
D30*
X648000Y660000D02*
X648000Y670160D01*
X648000Y660000D02*
X648000Y649840D01*
X672000Y660000D02*
X672000Y670160D01*
X672000Y660000D02*
X672000Y649840D01*
X660000Y660000D02*
X660000Y670160D01*
X660000Y660000D02*
X660000Y649840D01*
D12*
X484000Y637500D03*
X466000Y637500D03*
D31*
X622900Y910200D03*
D32*
X597500Y910200D03*
X572100Y910200D03*
X622900Y884800D03*
X597500Y884800D03*
X572100Y884800D03*
D33*
X464000Y235000D03*
X381000Y235000D03*
X629000Y175000D03*
X546000Y175000D03*
D34*
X430000Y125000D03*
X430000Y40000D03*
D35*
X267500Y190400D03*
D36*
X233464Y107088D03*
X250482Y107088D03*
X267500Y107088D03*
X284518Y107088D03*
X301536Y107088D03*
D37*
X260500Y45000D03*
X304500Y45000D03*
D38*
X177500Y48530D02*
X177500Y76470D01*
X180040Y59960D02*
X180040Y48530D01*
X188930Y51070D02*
X180040Y59960D01*
X174960Y65040D02*
X166070Y73930D01*
X174960Y76470D02*
X174960Y65040D01*
X168610Y76471D02*
X168949Y76680D01*
X169293Y76881D01*
X169642Y77074D01*
X169995Y77258D01*
X170353Y77433D01*
X170715Y77600D01*
X171081Y77758D01*
X171451Y77907D01*
X171824Y78046D01*
X172201Y78177D01*
X172580Y78298D01*
X172963Y78411D01*
X173348Y78513D01*
X173735Y78607D01*
X174125Y78691D01*
X174516Y78765D01*
X174909Y78830D01*
X175304Y78885D01*
X175700Y78931D01*
X176097Y78967D01*
X176495Y78993D01*
X176893Y79010D01*
X177291Y79017D01*
X177690Y79014D01*
X178088Y79001D01*
X178486Y78979D01*
X178883Y78947D01*
X179280Y78906D01*
X179675Y78855D01*
X180069Y78794D01*
X180461Y78724D01*
X180851Y78644D01*
X181240Y78554D01*
X181626Y78455D01*
X182009Y78347D01*
X182390Y78230D01*
X182768Y78103D01*
X183143Y77967D01*
X183514Y77822D01*
X183882Y77668D01*
X184245Y77505D01*
X184605Y77333D01*
X184960Y77153D01*
X185311Y76964D01*
X185657Y76767D01*
X185999Y76561D01*
X186335Y76347D01*
X186665Y76124D01*
X186991Y75894D01*
X187310Y75656D01*
X187624Y75410D01*
X187932Y75157D01*
X188233Y74896D01*
X188528Y74628D01*
X188816Y74353D01*
X189098Y74071D01*
X189372Y73782D01*
X189640Y73486D01*
X189900Y73184D01*
X190153Y72876D01*
X190398Y72562D01*
X190635Y72242D01*
X190865Y71916D01*
X191086Y71585D01*
X191300Y71248D01*
X191505Y70907D01*
X191702Y70560D01*
X191890Y70209D01*
X192070Y69853D01*
X192241Y69493D01*
X192403Y69129D01*
X192556Y68761D01*
X192700Y68390D01*
X192835Y68015D01*
X192961Y67637D01*
X193078Y67256D01*
X193185Y66872D01*
X193283Y66485D01*
X193372Y66097D01*
X193451Y65706D01*
X193521Y65314D01*
X193580Y64920D01*
X193631Y64525D01*
X193672Y64128D01*
X193703Y63731D01*
X193724Y63333D01*
X193736Y62935D01*
X193738Y62536D01*
X193730Y62138D01*
X193712Y61739D01*
X193685Y61342D01*
X193648Y60945D01*
X193602Y60549D01*
X193546Y60155D01*
X193480Y59761D01*
X193405Y59370D01*
X193320Y58981D01*
X193226Y58593D01*
X193122Y58209D01*
X193009Y57826D01*
X192887Y57447D01*
X192756Y57071D01*
X192615Y56698D01*
X192465Y56329D01*
X192307Y55963D01*
X192139Y55601D01*
X191963Y55244D01*
X191778Y54891D01*
X191585Y54542D01*
X191383Y54199D01*
X191173Y53860D01*
X190955Y53527D01*
X190729Y53199D01*
X190494Y52876D01*
X190252Y52560D01*
X190003Y52249D01*
X189745Y51945D01*
X189481Y51646D01*
X189209Y51355D01*
X188930Y51070D01*
X186390Y48529D02*
X186051Y48320D01*
X185707Y48119D01*
X185358Y47926D01*
X185005Y47742D01*
X184647Y47567D01*
X184285Y47400D01*
X183919Y47242D01*
X183549Y47093D01*
X183176Y46954D01*
X182799Y46823D01*
X182420Y46702D01*
X182037Y46589D01*
X181652Y46487D01*
X181265Y46393D01*
X180875Y46309D01*
X180484Y46235D01*
X180091Y46170D01*
X179696Y46115D01*
X179300Y46069D01*
X178903Y46033D01*
X178505Y46007D01*
X178107Y45990D01*
X177709Y45983D01*
X177310Y45986D01*
X176912Y45999D01*
X176514Y46021D01*
X176117Y46053D01*
X175720Y46094D01*
X175325Y46145D01*
X174931Y46206D01*
X174539Y46276D01*
X174149Y46356D01*
X173760Y46446D01*
X173374Y46545D01*
X172991Y46653D01*
X172610Y46770D01*
X172232Y46897D01*
X171857Y47033D01*
X171486Y47178D01*
X171118Y47332D01*
X170755Y47495D01*
X170395Y47667D01*
X170040Y47847D01*
X169689Y48036D01*
X169343Y48233D01*
X169001Y48439D01*
X168665Y48653D01*
X168335Y48876D01*
X168009Y49106D01*
X167690Y49344D01*
X167376Y49590D01*
X167068Y49843D01*
X166767Y50104D01*
X166472Y50372D01*
X166184Y50647D01*
X165902Y50929D01*
X165628Y51218D01*
X165360Y51514D01*
X165100Y51816D01*
X164847Y52124D01*
X164602Y52438D01*
X164365Y52758D01*
X164135Y53084D01*
X163914Y53415D01*
X163700Y53752D01*
X163495Y54093D01*
X163298Y54440D01*
X163110Y54791D01*
X162930Y55147D01*
X162759Y55507D01*
X162597Y55871D01*
X162444Y56239D01*
X162300Y56610D01*
X162165Y56985D01*
X162039Y57363D01*
X161922Y57744D01*
X161815Y58128D01*
X161717Y58515D01*
X161628Y58903D01*
X161549Y59294D01*
X161479Y59686D01*
X161420Y60080D01*
X161369Y60475D01*
X161328Y60872D01*
X161297Y61269D01*
X161276Y61667D01*
X161264Y62065D01*
X161262Y62464D01*
X161270Y62862D01*
X161288Y63261D01*
X161315Y63658D01*
X161352Y64055D01*
X161398Y64451D01*
X161454Y64845D01*
X161520Y65239D01*
X161595Y65630D01*
X161680Y66019D01*
X161774Y66407D01*
X161878Y66791D01*
X161991Y67174D01*
X162113Y67553D01*
X162244Y67929D01*
X162385Y68302D01*
X162535Y68671D01*
X162693Y69037D01*
X162861Y69399D01*
X163037Y69756D01*
X163222Y70109D01*
X163415Y70458D01*
X163617Y70801D01*
X163827Y71140D01*
X164045Y71473D01*
X164271Y71801D01*
X164506Y72124D01*
X164748Y72440D01*
X164997Y72751D01*
X165255Y73055D01*
X165519Y73354D01*
X165791Y73645D01*
X166070Y73930D01*
D39*
X147556Y40402D02*
X147556Y28718D01*
X146258Y28718D02*
X148854Y28718D01*
X148854Y40402D02*
X146258Y40402D01*
X153455Y37156D02*
X153455Y31964D01*
X153454Y37156D02*
X153456Y37269D01*
X153462Y37382D01*
X153472Y37495D01*
X153486Y37608D01*
X153503Y37720D01*
X153525Y37831D01*
X153550Y37941D01*
X153580Y38051D01*
X153613Y38159D01*
X153650Y38266D01*
X153690Y38372D01*
X153735Y38476D01*
X153783Y38579D01*
X153834Y38680D01*
X153889Y38779D01*
X153947Y38876D01*
X154009Y38971D01*
X154074Y39064D01*
X154142Y39154D01*
X154213Y39242D01*
X154288Y39328D01*
X154365Y39411D01*
X154445Y39491D01*
X154528Y39568D01*
X154614Y39643D01*
X154702Y39714D01*
X154792Y39782D01*
X154885Y39847D01*
X154980Y39909D01*
X155077Y39967D01*
X155176Y40022D01*
X155277Y40073D01*
X155380Y40121D01*
X155484Y40166D01*
X155590Y40206D01*
X155697Y40243D01*
X155805Y40276D01*
X155915Y40306D01*
X156025Y40331D01*
X156136Y40353D01*
X156248Y40370D01*
X156361Y40384D01*
X156474Y40394D01*
X156587Y40400D01*
X156700Y40402D01*
X156813Y40400D01*
X156926Y40394D01*
X157039Y40384D01*
X157152Y40370D01*
X157264Y40353D01*
X157375Y40331D01*
X157485Y40306D01*
X157595Y40276D01*
X157703Y40243D01*
X157810Y40206D01*
X157916Y40166D01*
X158020Y40121D01*
X158123Y40073D01*
X158224Y40022D01*
X158323Y39967D01*
X158420Y39909D01*
X158515Y39847D01*
X158608Y39782D01*
X158698Y39714D01*
X158786Y39643D01*
X158872Y39568D01*
X158955Y39491D01*
X159035Y39411D01*
X159112Y39328D01*
X159187Y39242D01*
X159258Y39154D01*
X159326Y39064D01*
X159391Y38971D01*
X159453Y38876D01*
X159511Y38779D01*
X159566Y38680D01*
X159617Y38579D01*
X159665Y38476D01*
X159710Y38372D01*
X159750Y38266D01*
X159787Y38159D01*
X159820Y38051D01*
X159850Y37941D01*
X159875Y37831D01*
X159897Y37720D01*
X159914Y37608D01*
X159928Y37495D01*
X159938Y37382D01*
X159944Y37269D01*
X159946Y37156D01*
X159946Y31964D01*
X159944Y31851D01*
X159938Y31738D01*
X159928Y31625D01*
X159914Y31512D01*
X159897Y31400D01*
X159875Y31289D01*
X159850Y31179D01*
X159820Y31069D01*
X159787Y30961D01*
X159750Y30854D01*
X159710Y30748D01*
X159665Y30644D01*
X159617Y30541D01*
X159566Y30440D01*
X159511Y30341D01*
X159453Y30244D01*
X159391Y30149D01*
X159326Y30056D01*
X159258Y29966D01*
X159187Y29878D01*
X159112Y29792D01*
X159035Y29709D01*
X158955Y29629D01*
X158872Y29552D01*
X158786Y29477D01*
X158698Y29406D01*
X158608Y29338D01*
X158515Y29273D01*
X158420Y29211D01*
X158323Y29153D01*
X158224Y29098D01*
X158123Y29047D01*
X158020Y28999D01*
X157916Y28954D01*
X157810Y28914D01*
X157703Y28877D01*
X157595Y28844D01*
X157485Y28814D01*
X157375Y28789D01*
X157264Y28767D01*
X157152Y28750D01*
X157039Y28736D01*
X156926Y28726D01*
X156813Y28720D01*
X156700Y28718D01*
X156587Y28720D01*
X156474Y28726D01*
X156361Y28736D01*
X156248Y28750D01*
X156136Y28767D01*
X156025Y28789D01*
X155915Y28814D01*
X155805Y28844D01*
X155697Y28877D01*
X155590Y28914D01*
X155484Y28954D01*
X155380Y28999D01*
X155277Y29047D01*
X155176Y29098D01*
X155077Y29153D01*
X154980Y29211D01*
X154885Y29273D01*
X154792Y29338D01*
X154702Y29406D01*
X154614Y29477D01*
X154528Y29552D01*
X154445Y29629D01*
X154365Y29709D01*
X154288Y29792D01*
X154213Y29878D01*
X154142Y29966D01*
X154074Y30056D01*
X154009Y30149D01*
X153947Y30244D01*
X153889Y30341D01*
X153834Y30440D01*
X153783Y30541D01*
X153735Y30644D01*
X153690Y30748D01*
X153650Y30854D01*
X153613Y30961D01*
X153580Y31069D01*
X153550Y31179D01*
X153525Y31289D01*
X153503Y31400D01*
X153486Y31512D01*
X153472Y31625D01*
X153462Y31738D01*
X153456Y31851D01*
X153454Y31964D01*
X167368Y28718D02*
X167368Y40402D01*
X164123Y40402D02*
X170614Y40402D01*
X175194Y28718D02*
X180387Y28718D01*
X175194Y28718D02*
X175194Y40402D01*
X180387Y40402D01*
X179089Y35209D02*
X175194Y35209D01*
X187260Y28718D02*
X189856Y28718D01*
X187260Y28718D02*
X187161Y28720D01*
X187061Y28726D01*
X186962Y28735D01*
X186864Y28748D01*
X186766Y28765D01*
X186668Y28786D01*
X186572Y28811D01*
X186477Y28839D01*
X186383Y28871D01*
X186290Y28906D01*
X186198Y28945D01*
X186108Y28988D01*
X186020Y29033D01*
X185933Y29083D01*
X185849Y29135D01*
X185766Y29191D01*
X185686Y29249D01*
X185608Y29311D01*
X185533Y29376D01*
X185460Y29444D01*
X185390Y29514D01*
X185322Y29587D01*
X185257Y29662D01*
X185195Y29740D01*
X185137Y29820D01*
X185081Y29903D01*
X185029Y29987D01*
X184979Y30074D01*
X184934Y30162D01*
X184891Y30252D01*
X184852Y30344D01*
X184817Y30437D01*
X184785Y30531D01*
X184757Y30626D01*
X184732Y30722D01*
X184711Y30820D01*
X184694Y30918D01*
X184681Y31016D01*
X184672Y31115D01*
X184666Y31215D01*
X184664Y31314D01*
X184663Y31314D02*
X184663Y37806D01*
X184664Y37806D02*
X184666Y37905D01*
X184672Y38005D01*
X184681Y38104D01*
X184694Y38202D01*
X184711Y38300D01*
X184732Y38398D01*
X184757Y38494D01*
X184785Y38589D01*
X184817Y38683D01*
X184852Y38776D01*
X184891Y38868D01*
X184934Y38958D01*
X184979Y39046D01*
X185029Y39133D01*
X185081Y39217D01*
X185137Y39300D01*
X185195Y39380D01*
X185257Y39458D01*
X185322Y39533D01*
X185390Y39606D01*
X185460Y39676D01*
X185533Y39744D01*
X185608Y39809D01*
X185686Y39871D01*
X185766Y39929D01*
X185849Y39985D01*
X185933Y40037D01*
X186020Y40087D01*
X186108Y40132D01*
X186198Y40175D01*
X186290Y40214D01*
X186382Y40249D01*
X186477Y40281D01*
X186572Y40309D01*
X186668Y40334D01*
X186766Y40355D01*
X186864Y40372D01*
X186962Y40385D01*
X187061Y40394D01*
X187161Y40400D01*
X187260Y40402D01*
X189856Y40402D01*
X194603Y40402D02*
X194603Y28718D01*
X194603Y35209D02*
X201094Y35209D01*
X201094Y40402D02*
X201094Y28718D01*
D40*
X22554Y580106D03*
X22554Y534894D03*
D41*
X47446Y592552D03*
X47446Y522448D03*
D30*
X88784Y925594D02*
X169403Y925594D01*
X88784Y925594D02*
X68374Y905184D01*
X169403Y925594D02*
X170000Y926500D01*
X68374Y905184D02*
X68300Y904500D01*
X88784Y781703D02*
X169403Y781703D01*
X78068Y792418D02*
X68374Y802113D01*
X78068Y792418D02*
X88784Y781703D01*
X169403Y781703D02*
X170000Y781500D01*
X68374Y802113D02*
X68300Y802900D01*
X123481Y654141D02*
X172465Y654141D01*
X123481Y654141D02*
X76538Y701084D01*
X68374Y701084D01*
X172465Y654141D02*
X172500Y654000D01*
X68374Y701084D02*
X68300Y701300D01*
X43882Y758232D02*
X78068Y792418D01*
X43882Y758232D02*
X43882Y725576D01*
X67353Y702104D01*
X68300Y701300D01*
X67353Y883753D02*
X67353Y904163D01*
X67353Y883753D02*
X43882Y860282D01*
X43882Y828646D01*
X68374Y804154D01*
X67353Y904163D02*
X68300Y904500D01*
X68374Y804154D02*
X68300Y802900D01*
X541886Y139809D02*
X541886Y55107D01*
X541886Y139809D02*
X464328Y217367D01*
X464328Y234715D01*
X541886Y55107D02*
X542600Y55000D01*
X464328Y234715D02*
X464000Y235000D01*
X232674Y107153D02*
X197977Y141850D01*
X197977Y192875D01*
X71435Y319417D01*
X232674Y107153D02*
X233464Y107088D01*
X71435Y319417D02*
X70800Y319500D01*
X375544Y217367D02*
X464328Y217367D01*
X375544Y217367D02*
X374524Y216346D01*
X198998Y192875D02*
X197977Y192875D01*
X68374Y680674D02*
X68374Y700063D01*
X68374Y680674D02*
X43882Y656182D01*
X43882Y617403D01*
X70415Y590870D01*
X70415Y320437D01*
X68374Y700063D02*
X68300Y701300D01*
X70415Y320437D02*
X70800Y319500D01*
D42*
X374524Y216346D03*
X198998Y192875D03*
D43*
X268392Y106132D02*
X268392Y102050D01*
X277576Y92866D01*
X290843Y92866D01*
X291353Y93376D02*
X301048Y103071D01*
X291353Y93376D02*
X290843Y92866D01*
X301048Y103071D02*
X301048Y106132D01*
X268392Y106132D02*
X267500Y107088D01*
X301048Y106132D02*
X301536Y107088D01*
X304109Y80620D02*
X304109Y45923D01*
X304109Y80620D02*
X291353Y93376D01*
X304109Y45923D02*
X304500Y45000D01*
X435754Y355134D02*
X442897Y355134D01*
X433202Y357685D02*
X432692Y358196D01*
X433202Y357685D02*
X435754Y355134D01*
X432692Y358196D02*
X432692Y371462D01*
X434733Y373503D01*
X442897Y373503D01*
X442897Y355134D02*
X443750Y354750D01*
X442897Y373503D02*
X443750Y374250D01*
X443918Y374524D02*
X443918Y380647D01*
X443750Y380750D01*
X443918Y374524D02*
X443750Y374250D01*
X327581Y323499D02*
X324519Y323499D01*
X327581Y323499D02*
X358196Y354114D01*
X370442Y354114D01*
X324519Y323499D02*
X323500Y322500D01*
X370442Y354114D02*
X371250Y354750D01*
X370442Y412282D02*
X362278Y412282D01*
X344929Y394934D01*
X344929Y378606D01*
X325540Y359216D01*
X311253Y359216D01*
X309212Y357175D01*
X309212Y337786D01*
X309722Y337275D02*
X323499Y323499D01*
X309722Y337275D02*
X309212Y337786D01*
X370442Y412282D02*
X371250Y413250D01*
X323499Y323499D02*
X323500Y322500D01*
X381667Y357175D02*
X432692Y357175D01*
X381667Y357175D02*
X379626Y355134D01*
X371462Y355134D01*
X432692Y357175D02*
X433202Y357685D01*
X371462Y355134D02*
X371250Y354750D01*
X380647Y266351D02*
X380647Y251043D01*
X380647Y235736D01*
X380647Y266351D02*
X324519Y322478D01*
X380647Y235736D02*
X381000Y235000D01*
X324519Y322478D02*
X323500Y322500D01*
X545968Y191854D02*
X545968Y175526D01*
X545457Y192364D02*
X486779Y251043D01*
X545457Y192364D02*
X545968Y191854D01*
X486779Y251043D02*
X380647Y251043D01*
X545968Y175526D02*
X546000Y175000D01*
X267371Y111235D02*
X267371Y107153D01*
X267371Y111235D02*
X243900Y134706D01*
X212264Y134706D01*
X210223Y136747D01*
X210223Y243900D01*
X259717Y293394D02*
X303089Y336765D01*
X259717Y293394D02*
X210223Y243900D01*
X303089Y336765D02*
X309212Y336765D01*
X267371Y107153D02*
X267500Y107088D01*
X309212Y336765D02*
X309722Y337275D01*
X131645Y93886D02*
X131645Y84702D01*
X131645Y93886D02*
X122460Y103071D01*
X122460Y124501D01*
X131645Y133686D01*
X131645Y84702D02*
X132500Y84000D01*
X131645Y133686D02*
X132500Y134000D01*
X132665Y180629D02*
X132665Y183690D01*
X132665Y180629D02*
X141850Y171444D01*
X141850Y143891D01*
X132665Y134706D01*
X132665Y183690D02*
X132500Y184000D01*
X132665Y134706D02*
X132500Y134000D01*
X71435Y246961D02*
X71435Y268392D01*
X71435Y246961D02*
X131645Y186752D01*
X131645Y184711D01*
X71435Y268392D02*
X70800Y268700D01*
X131645Y184711D02*
X132500Y184000D01*
X277576Y443918D02*
X319417Y443918D01*
X277576Y443918D02*
X252064Y418405D01*
X319417Y443918D02*
X320000Y444000D01*
X252064Y418405D02*
X251125Y418250D01*
X215326Y337786D02*
X259717Y293394D01*
X215326Y337786D02*
X215326Y396975D01*
X226551Y408200D01*
X241859Y408200D01*
X251043Y417385D01*
X251125Y418250D01*
X373503Y913348D02*
X412282Y913348D01*
X373503Y913348D02*
X371462Y911307D01*
X412282Y913348D02*
X412500Y914000D01*
X371462Y911307D02*
X371400Y910400D01*
X389831Y634751D02*
X414323Y634751D01*
X389831Y634751D02*
X374524Y650059D01*
X414323Y634751D02*
X415000Y634000D01*
X374524Y650059D02*
X373900Y650400D01*
X374524Y783744D02*
X414323Y783744D01*
X374524Y783744D02*
X371462Y780683D01*
X414323Y783744D02*
X415000Y784000D01*
X371462Y780683D02*
X371400Y780400D01*
X373503Y692920D02*
X373503Y651079D01*
X373503Y692920D02*
X349011Y717412D01*
X349011Y758232D01*
X370442Y779662D01*
X373503Y651079D02*
X373900Y650400D01*
X370442Y779662D02*
X371400Y780400D01*
X425549Y899061D02*
X425038Y899571D01*
X412282Y912327D01*
X425549Y899061D02*
X425549Y794970D01*
X415344Y784765D01*
X412282Y912327D02*
X412500Y914000D01*
X415344Y784765D02*
X415000Y784000D01*
X466369Y800072D02*
X466369Y812318D01*
X466369Y800072D02*
X466369Y765375D01*
X466000Y765000D01*
X466369Y812318D02*
X466000Y812500D01*
X562296Y797011D02*
X571480Y787826D01*
X571818Y787525D01*
X509230Y800072D02*
X466369Y800072D01*
X641895Y904163D02*
X779662Y904163D01*
X641384Y903653D02*
X623526Y885794D01*
X641384Y903653D02*
X641895Y904163D01*
X779662Y904163D02*
X780000Y905000D01*
X623526Y885794D02*
X622900Y884800D01*
X486779Y900081D02*
X425549Y900081D01*
X486779Y900081D02*
X516373Y929676D01*
X619444Y929676D01*
X640874Y908245D01*
X640874Y904163D01*
X425549Y900081D02*
X425038Y899571D01*
X640874Y904163D02*
X641384Y903653D01*
X813339Y492902D02*
X813339Y487799D01*
X822523Y478615D01*
X822523Y408200D01*
X809257Y394934D01*
X813339Y492902D02*
X812500Y493000D01*
X809257Y394934D02*
X808400Y394050D01*
X813339Y277576D02*
X813339Y265330D01*
X813339Y233695D01*
X813339Y277576D02*
X818441Y282679D01*
X818441Y303089D01*
X809257Y312273D01*
X813339Y233695D02*
X812500Y233000D01*
X809257Y312273D02*
X808400Y312350D01*
X810277Y192875D02*
X810277Y157157D01*
X810277Y192875D02*
X822523Y205121D01*
X822523Y223490D01*
X813339Y232674D01*
X810277Y157157D02*
X810000Y157000D01*
X813339Y232674D02*
X812500Y233000D01*
X730678Y275535D02*
X723535Y275535D01*
X730678Y275535D02*
X740883Y265330D01*
X813339Y265330D01*
X723535Y275535D02*
X722700Y275750D01*
X808236Y313294D02*
X808236Y393913D01*
X808400Y394050D01*
X808236Y313294D02*
X808400Y312350D01*
X521476Y340847D02*
X521476Y367380D01*
X521476Y340847D02*
X521500Y340000D01*
X521476Y367380D02*
X521500Y367500D01*
X504127Y314314D02*
X504127Y287781D01*
X503500Y287500D01*
X504127Y314314D02*
X503500Y315000D01*
X503107Y315335D02*
X493922Y324519D01*
X503107Y315335D02*
X503500Y315000D01*
X522496Y368401D02*
X536783Y368401D01*
X589849Y421467D01*
X639854Y421467D01*
X663325Y397995D01*
X522496Y368401D02*
X521500Y367500D01*
X663325Y397995D02*
X664300Y397600D01*
X629649Y720473D02*
X627608Y720473D01*
X629649Y720473D02*
X633731Y716391D01*
X635772Y716391D01*
X636282Y716901D02*
X642915Y723535D01*
X636282Y716901D02*
X635772Y716391D01*
X642915Y723535D02*
X642915Y727617D01*
X638833Y731699D01*
X627608Y720473D02*
X626868Y721161D01*
X638833Y731699D02*
X638182Y732475D01*
X654141Y649038D02*
X659243Y649038D01*
X654141Y649038D02*
X650059Y644956D01*
X645977Y644956D01*
X636792Y654141D01*
X636792Y716391D01*
X660000Y649840D02*
X659243Y649038D01*
X636792Y716391D02*
X636282Y716901D01*
X660264Y649038D02*
X698022Y611280D01*
X660264Y649038D02*
X660000Y649840D01*
X766396Y440856D02*
X810277Y396975D01*
X766396Y440856D02*
X733740Y440856D01*
X723535Y430651D01*
X808400Y394050D02*
X810277Y396975D01*
X723535Y430651D02*
X722700Y430650D01*
X639854Y192875D02*
X545968Y192875D01*
X639854Y192875D02*
X722514Y275535D01*
X545968Y192875D02*
X545457Y192364D01*
X722514Y275535D02*
X722700Y275750D01*
D42*
X562296Y797011D03*
X509230Y800072D03*
X493922Y324519D03*
X698022Y611280D03*
D43*
X767416Y212264D02*
X812318Y212264D01*
X812500Y212000D01*
X767416Y212264D02*
X766500Y212500D01*
X640874Y55107D02*
X592911Y55107D01*
X640874Y55107D02*
X641000Y55000D01*
X592911Y55107D02*
X592400Y55000D01*
X255125Y883753D02*
X170424Y883753D01*
X255125Y883753D02*
X256146Y884774D01*
X170424Y883753D02*
X170000Y883500D01*
X256146Y884774D02*
X257100Y885000D01*
X140829Y854159D02*
X68374Y854159D01*
X140829Y854159D02*
X169403Y882733D01*
X68374Y854159D02*
X68300Y853700D01*
X169403Y882733D02*
X170000Y883500D01*
X616382Y810277D02*
X618423Y810277D01*
X622505Y814359D01*
X653120Y814359D01*
X718432Y749047D01*
X791908Y749047D01*
X799052Y741904D01*
X799052Y590870D01*
X789867Y581685D01*
X537804Y581685D01*
X390852Y434733D01*
X390852Y392893D01*
X379626Y381667D01*
X371462Y381667D01*
X615554Y810152D02*
X616382Y810277D01*
X371462Y381667D02*
X371250Y380750D01*
X131645Y166342D02*
X71435Y166342D01*
X131645Y166342D02*
X132500Y166000D01*
X71435Y166342D02*
X70800Y167100D01*
X537804Y770478D02*
X554132Y770478D01*
X349011Y648018D02*
X349011Y561275D01*
X153075Y365339D01*
X153075Y249002D01*
X554132Y770478D02*
X554848Y770554D01*
D42*
X537804Y770478D03*
X349011Y648018D03*
X153075Y249002D03*
D43*
X170424Y738842D02*
X240838Y738842D01*
X256146Y754150D01*
X170424Y738842D02*
X170000Y738500D01*
X256146Y754150D02*
X257100Y755000D01*
X157157Y751088D02*
X68374Y751088D01*
X157157Y751088D02*
X169403Y738842D01*
X68374Y751088D02*
X68300Y752100D01*
X169403Y738842D02*
X170000Y738500D01*
X485758Y601075D02*
X593931Y709248D01*
X485758Y601075D02*
X484738Y601075D01*
X484738Y544947D02*
X484738Y540865D01*
X382688Y438815D01*
X382688Y404118D01*
X379626Y401057D01*
X371462Y401057D01*
X593931Y709248D02*
X594446Y709848D01*
X371462Y401057D02*
X371250Y400250D01*
D42*
X484738Y601075D03*
X484738Y544947D03*
D43*
X609239Y709248D02*
X615362Y709248D01*
X609239Y709248D02*
X357175Y457184D01*
X265330Y457184D01*
X226551Y418405D01*
X615362Y709248D02*
X615554Y709848D01*
X226551Y418405D02*
X225725Y418250D01*
X621485Y712309D02*
X621485Y715371D01*
X621485Y712309D02*
X625567Y708227D01*
X625567Y706186D01*
X349011Y429631D01*
X313294Y429631D01*
X261248Y377585D01*
X261248Y352073D01*
X252064Y342888D01*
X621211Y715505D02*
X621485Y715371D01*
X252064Y342888D02*
X251125Y342050D01*
X389831Y615362D02*
X414323Y615362D01*
X389831Y615362D02*
X374524Y600054D01*
X414323Y615362D02*
X415000Y616000D01*
X374524Y600054D02*
X373900Y599600D01*
X611280Y727617D02*
X654141Y770478D01*
X611280Y727617D02*
X611280Y726596D01*
X425549Y625567D02*
X415344Y615362D01*
X654141Y770478D02*
X655152Y770554D01*
X415000Y616000D02*
X415344Y615362D01*
D42*
X611280Y726596D03*
X425549Y625567D03*
D43*
X414323Y765375D02*
X407180Y765375D01*
X371462Y729658D01*
X414323Y765375D02*
X415000Y766000D01*
X371462Y729658D02*
X371400Y729600D01*
X649038Y773539D02*
X649038Y775580D01*
X649038Y773539D02*
X628628Y753129D01*
X628628Y751088D01*
X611280Y733740D01*
X608218Y733740D01*
X604136Y729658D01*
X604136Y710268D01*
X487799Y593931D01*
X481676Y593931D01*
X442897Y632710D01*
X442897Y657202D01*
X371462Y728637D01*
X649038Y775580D02*
X649495Y776211D01*
X371400Y729600D02*
X371462Y728637D01*
X713330Y874569D02*
X774560Y874569D01*
X779662Y879671D01*
X713330Y874569D02*
X712500Y874000D01*
X779662Y879671D02*
X780000Y880000D01*
X563316Y775580D02*
X561275Y775580D01*
X563316Y775580D02*
X567398Y771498D01*
X569439Y771498D01*
X605157Y807216D01*
X605157Y808236D01*
X670469Y873548D01*
X712309Y873548D01*
X561275Y775580D02*
X560505Y776211D01*
X712309Y873548D02*
X712500Y874000D01*
X768437Y534742D02*
X768437Y491881D01*
X768437Y534742D02*
X803134Y569439D01*
X803134Y879671D01*
X791908Y890897D01*
X675571Y890897D01*
X594952Y810277D01*
X767500Y491500D02*
X768437Y491881D01*
X594952Y810277D02*
X594446Y810152D01*
X420446Y374524D02*
X371462Y374524D01*
X530660Y484738D02*
X761293Y484738D01*
X767416Y490861D01*
X371462Y374524D02*
X371250Y374250D01*
X767416Y490861D02*
X767500Y491500D01*
D42*
X420446Y374524D03*
X530660Y484738D03*
D43*
X620464Y801093D02*
X620464Y804154D01*
X620464Y801093D02*
X614341Y794970D01*
X614341Y767416D01*
X628628Y678633D02*
X386770Y436774D01*
X386770Y394934D01*
X379626Y387790D01*
X371462Y387790D01*
X620464Y804154D02*
X621211Y804495D01*
X371462Y387790D02*
X371250Y387250D01*
D42*
X614341Y767416D03*
X628628Y678633D03*
D43*
X337786Y381667D02*
X317376Y381667D01*
X351052Y368401D02*
X370442Y368401D01*
X317376Y381667D02*
X316500Y382500D01*
X370442Y368401D02*
X371250Y367750D01*
X626587Y795990D02*
X626587Y798031D01*
X626587Y795990D02*
X621485Y790888D01*
X621485Y754150D01*
X626587Y798031D02*
X626868Y798839D01*
D42*
X337786Y381667D03*
X351052Y368401D03*
X621485Y754150D03*
D43*
X412282Y895999D02*
X407180Y895999D01*
X371462Y860282D01*
X412282Y895999D02*
X412500Y896000D01*
X371462Y860282D02*
X371400Y859600D01*
X643936Y782724D02*
X645977Y782724D01*
X653120Y789867D01*
X418405Y885794D02*
X418405Y890897D01*
X413303Y895999D01*
X643936Y782724D02*
X643839Y781868D01*
X413303Y895999D02*
X412500Y896000D01*
D42*
X653120Y789867D03*
X418405Y885794D03*
D43*
X713330Y589849D02*
X774560Y589849D01*
X779662Y594952D01*
X713330Y589849D02*
X712500Y589000D01*
X779662Y594952D02*
X780000Y595000D01*
X640874Y787826D02*
X638833Y787826D01*
X640874Y787826D02*
X650059Y797011D01*
X656182Y797011D01*
X705166Y748027D01*
X705166Y596993D01*
X712309Y589849D01*
X638182Y787525D02*
X638833Y787826D01*
X712309Y589849D02*
X712500Y589000D01*
X715371Y731699D02*
X774560Y731699D01*
X779662Y736801D01*
X715371Y731699D02*
X715000Y731500D01*
X779662Y736801D02*
X780000Y737500D01*
X635772Y793949D02*
X632710Y793949D01*
X635772Y793949D02*
X642915Y801093D01*
X658223Y801093D01*
X715371Y743945D01*
X715371Y732719D01*
X632525Y793182D02*
X632710Y793949D01*
X715371Y732719D02*
X715000Y731500D01*
X131645Y66333D02*
X71435Y66333D01*
X131645Y66333D02*
X132500Y66000D01*
X71435Y66333D02*
X70800Y65500D01*
X561275Y743945D02*
X563316Y743945D01*
X570460Y751088D01*
X596993Y751088D01*
X561275Y743945D02*
X560505Y743789D01*
D42*
X596993Y751088D03*
D43*
X132665Y115317D02*
X132665Y98989D01*
X141850Y89804D01*
X141850Y78579D01*
X139809Y76538D01*
X110214Y76538D01*
X71435Y115317D01*
X132500Y116000D02*
X132665Y115317D01*
X71435Y115317D02*
X70800Y116300D01*
X544947Y749047D02*
X554132Y749047D01*
X544947Y749047D02*
X541886Y745986D01*
X435754Y639854D02*
X435754Y621485D01*
X275535Y461266D01*
X255125Y461266D01*
X178588Y384729D01*
X178588Y223490D01*
X554132Y749047D02*
X554848Y749446D01*
D42*
X541886Y745986D03*
X435754Y639854D03*
X178588Y223490D03*
D43*
X173485Y611280D02*
X245941Y611280D01*
X259207Y624546D01*
X173485Y611280D02*
X172500Y611000D01*
X259207Y624546D02*
X259600Y625000D01*
X120419Y650059D02*
X68374Y650059D01*
X120419Y650059D02*
X159198Y611280D01*
X172465Y611280D01*
X68374Y650059D02*
X68300Y650500D01*
X172465Y611280D02*
X172500Y611000D01*
X466369Y637813D02*
X466369Y691899D01*
X466369Y637813D02*
X466000Y637500D01*
X466369Y691899D02*
X466000Y692500D01*
X483717Y813339D02*
X483717Y849056D01*
X482697Y850077D01*
X483717Y813339D02*
X484000Y812500D01*
X482697Y850077D02*
X482500Y851000D01*
X587808Y808236D02*
X587808Y805175D01*
X587808Y808236D02*
X584747Y811298D01*
X584747Y856200D01*
X611280Y882733D01*
X611280Y898040D01*
X622505Y909266D01*
X587808Y805175D02*
X588789Y804495D01*
X622505Y909266D02*
X622900Y910200D01*
X482697Y854159D02*
X482697Y851097D01*
X482697Y854159D02*
X504127Y875589D01*
X504127Y880692D01*
X482697Y851097D02*
X482500Y851000D01*
X465348Y713330D02*
X465348Y692920D01*
X465348Y713330D02*
X454123Y724555D01*
X454123Y861302D01*
X518414Y925594D01*
X599034Y925594D01*
X618423Y906204D01*
X466000Y692500D02*
X465348Y692920D01*
X618423Y906204D02*
X622900Y910200D01*
X713330Y855179D02*
X779662Y855179D01*
X713330Y855179D02*
X712500Y856000D01*
X779662Y855179D02*
X780000Y855000D01*
X779662Y570460D02*
X713330Y570460D01*
X712500Y571000D01*
X779662Y570460D02*
X780000Y570000D01*
X631690Y727617D02*
X631690Y730678D01*
X628628Y733740D01*
X628628Y736801D01*
X634751Y742924D01*
X638833Y742924D01*
X642915Y738842D01*
X631690Y727617D02*
X632525Y726818D01*
X642915Y738842D02*
X643839Y738132D01*
X715371Y713330D02*
X779662Y713330D01*
X715371Y713330D02*
X715000Y713500D01*
X779662Y713330D02*
X780000Y712500D01*
X653120Y728637D02*
X643936Y737822D01*
X643839Y738132D01*
X666387Y212264D02*
X748027Y212264D01*
X666387Y212264D02*
X629649Y175526D01*
X748027Y212264D02*
X748500Y212500D01*
X629649Y175526D02*
X629000Y175000D01*
X284720Y111235D02*
X284720Y107153D01*
X284720Y111235D02*
X308191Y134706D01*
X364319Y134706D01*
X364829Y135216D02*
X365339Y135727D01*
X364829Y135216D02*
X364319Y134706D01*
X365339Y135727D02*
X380647Y135727D01*
X390852Y125522D01*
X429631Y125522D01*
X284720Y107153D02*
X284518Y107088D01*
X429631Y125522D02*
X430000Y125000D01*
X628628Y121440D02*
X628628Y174506D01*
X628628Y121440D02*
X555152Y47964D01*
X555152Y37759D01*
X545968Y28574D01*
X485758Y28574D01*
X461266Y53066D01*
X461266Y93886D01*
X430651Y124501D01*
X628628Y174506D02*
X629000Y175000D01*
X430651Y124501D02*
X430000Y125000D01*
X443918Y334724D02*
X457184Y334724D01*
X457184Y356155D02*
X453102Y360237D01*
X443918Y360237D01*
X443750Y335250D02*
X443918Y334724D01*
X443918Y360237D02*
X443750Y361250D01*
X443918Y362278D02*
X443918Y367380D01*
X443750Y367750D01*
X443918Y362278D02*
X443750Y361250D01*
X566378Y431672D02*
X602095Y431672D01*
X566378Y431672D02*
X558214Y439836D01*
X493922Y439836D02*
X490861Y439836D01*
X493922Y439836D02*
X558214Y439836D01*
X454633Y403608D02*
X452082Y401057D01*
X454633Y403608D02*
X490861Y439836D01*
X452082Y401057D02*
X443918Y401057D01*
X602095Y431672D02*
X602500Y431500D01*
X443918Y401057D02*
X443750Y400250D01*
X443918Y420446D02*
X443918Y428610D01*
X466879Y451571D02*
X478615Y463307D01*
X466879Y451571D02*
X443918Y428610D01*
X478615Y463307D02*
X478615Y479635D01*
X480656Y481676D01*
X491881Y481676D01*
X493922Y479635D01*
X493922Y439836D01*
X443918Y420446D02*
X443750Y419750D01*
X454633Y403608D02*
X457184Y401057D01*
X299007Y381667D02*
X299007Y350032D01*
X298500Y350000D01*
X299007Y381667D02*
X298500Y382500D01*
X297986Y349011D02*
X275535Y349011D01*
X258187Y331663D01*
X236756Y331663D01*
X226551Y341868D01*
X297986Y349011D02*
X298500Y350000D01*
X226551Y341868D02*
X225725Y342050D01*
X226551Y380647D02*
X226551Y391872D01*
X226551Y380647D02*
X235736Y371462D01*
X235736Y352073D01*
X226551Y342888D01*
X226551Y391872D02*
X225725Y392850D01*
X226551Y342888D02*
X225725Y342050D01*
X364319Y216346D02*
X364319Y135727D01*
X364829Y135216D01*
X544947Y570460D02*
X712309Y570460D01*
X544947Y570460D02*
X454123Y479635D01*
X454123Y464328D01*
X466879Y451571D01*
X712309Y570460D02*
X712500Y571000D01*
D42*
X504127Y880692D03*
X653120Y728637D03*
X457184Y334724D03*
X457184Y356155D03*
X457184Y401057D03*
X364319Y216346D03*
D43*
X504127Y472492D02*
X754150Y472492D01*
X806195Y420446D01*
X808236Y420446D01*
X504127Y472492D02*
X504000Y472500D01*
X808236Y420446D02*
X808400Y419450D01*
X466369Y473512D02*
X462287Y473512D01*
X466369Y473512D02*
X484738Y491881D01*
X715371Y491881D01*
X462287Y473512D02*
X461500Y472500D01*
D42*
X715371Y491881D03*
D43*
X370442Y419426D02*
X323499Y419426D01*
X320437Y416364D01*
X370442Y419426D02*
X371250Y419750D01*
X320437Y416364D02*
X320000Y416000D01*
X317376Y350032D02*
X347991Y350032D01*
X358196Y360237D01*
X370442Y360237D01*
X317376Y350032D02*
X316500Y350000D01*
X370442Y360237D02*
X371250Y361250D01*
X359216Y323499D02*
X341868Y323499D01*
X359216Y323499D02*
X370442Y334724D01*
X341868Y323499D02*
X341500Y322500D01*
X370442Y334724D02*
X371250Y335250D01*
X504127Y393913D02*
X504127Y412282D01*
X504127Y393913D02*
X504127Y368401D01*
X504127Y412282D02*
X511271Y419426D01*
X504127Y368401D02*
X503500Y367500D01*
X511271Y419426D02*
X511500Y420000D01*
X504127Y393913D02*
X443918Y393913D01*
X443750Y393750D01*
X498004Y340847D02*
X503107Y340847D01*
X498004Y340847D02*
X452082Y386770D01*
X443918Y386770D01*
X503107Y340847D02*
X503500Y340000D01*
X443918Y386770D02*
X443750Y387250D01*
X548009Y409221D02*
X548009Y419426D01*
X548009Y409221D02*
X511271Y372483D01*
X511271Y350032D01*
X503107Y341868D01*
X548009Y419426D02*
X548500Y420000D01*
X503107Y341868D02*
X503500Y340000D01*
X603116Y376565D02*
X603116Y413303D01*
X603116Y376565D02*
X602500Y376500D01*
X603116Y413303D02*
X602500Y413500D01*
X522496Y326560D02*
X522496Y315335D01*
X522496Y326560D02*
X550050Y354114D01*
X550050Y366360D01*
X559234Y375544D01*
X522496Y315335D02*
X521500Y315000D01*
X559234Y375544D02*
X560000Y376500D01*
X560255Y376565D02*
X602095Y376565D01*
X602500Y376500D01*
X560255Y376565D02*
X560000Y376500D01*
X645977Y346970D02*
X663325Y346970D01*
X645977Y346970D02*
X616382Y376565D01*
X604136Y376565D01*
X663325Y346970D02*
X664300Y346800D01*
X604136Y376565D02*
X602500Y376500D01*
X543927Y287781D02*
X522496Y287781D01*
X543927Y287781D02*
X559234Y303089D01*
X522496Y287781D02*
X521500Y287500D01*
X559234Y303089D02*
X560000Y303500D01*
X560255Y304109D02*
X602095Y304109D01*
X602500Y303500D01*
X560255Y304109D02*
X560000Y303500D01*
X603116Y358196D02*
X628628Y358196D01*
X655161Y331663D01*
X668428Y331663D01*
X679143Y320947D02*
X688838Y311253D01*
X679143Y320947D02*
X668428Y331663D01*
X688838Y311253D02*
X688838Y309212D01*
X603116Y358196D02*
X602500Y358500D01*
X688838Y309212D02*
X689700Y308800D01*
X442897Y347991D02*
X435754Y347991D01*
X432692Y344929D01*
X432692Y331663D01*
X486779Y277576D01*
X635772Y277576D01*
X679143Y320947D01*
X443750Y348250D02*
X442897Y347991D01*
X560255Y358196D02*
X587808Y358196D01*
X611280Y334724D01*
X645977Y334724D01*
X659243Y321458D01*
X663325Y321458D01*
X560255Y358196D02*
X560000Y358500D01*
X663325Y321458D02*
X664300Y321400D01*
X486779Y341868D02*
X443918Y341868D01*
X486779Y341868D02*
X504127Y324519D01*
X509230Y324519D01*
X514332Y319417D01*
X514332Y307171D01*
X516373Y305130D01*
X526578Y305130D01*
X559234Y337786D01*
X559234Y358196D01*
X443918Y341868D02*
X443750Y341750D01*
X559234Y358196D02*
X560000Y358500D01*
X603116Y321458D02*
X614341Y321458D01*
X603116Y321458D02*
X602500Y321500D01*
X422487Y347991D02*
X371462Y347991D01*
X422487Y347991D02*
X425549Y344929D01*
X371462Y347991D02*
X371250Y348250D01*
D42*
X614341Y321458D03*
X425549Y344929D03*
D43*
X560255Y322478D02*
X588829Y322478D01*
X594952Y328601D01*
X641895Y328601D01*
X642915Y327581D01*
X560255Y322478D02*
X560000Y321500D01*
X417385Y340847D02*
X371462Y340847D01*
X417385Y340847D02*
X484738Y273494D01*
X668428Y273494D01*
X700063Y305130D01*
X700063Y323499D01*
X689858Y333704D01*
X371462Y340847D02*
X371250Y341750D01*
X689700Y334200D02*
X689858Y333704D01*
D42*
X642915Y327581D03*
D43*
X485758Y446979D02*
X485758Y472492D01*
X485758Y446979D02*
X452082Y413303D01*
X443918Y413303D01*
X485758Y472492D02*
X486000Y472500D01*
X443918Y413303D02*
X443750Y413250D01*
X442897Y433713D02*
X442897Y472492D01*
X442897Y433713D02*
X432692Y423508D01*
X432692Y410241D01*
X435754Y407180D01*
X442897Y407180D01*
X442897Y472492D02*
X443500Y472500D01*
X442897Y407180D02*
X443750Y406750D01*
X484738Y765375D02*
X525558Y806195D01*
X525558Y807216D01*
X558214Y812318D02*
X558214Y830687D01*
X558214Y812318D02*
X576583Y793949D01*
X484738Y765375D02*
X484000Y765000D01*
X576583Y793949D02*
X577475Y793182D01*
D42*
X525558Y807216D03*
X558214Y830687D03*
D43*
X501066Y887835D02*
X482697Y869466D01*
X501066Y887835D02*
X507189Y887835D01*
X517394Y877630D01*
X517394Y869466D01*
X482697Y869466D02*
X482500Y869000D01*
X517394Y869466D02*
X517500Y869000D01*
X577603Y729658D02*
X577603Y727617D01*
X577603Y729658D02*
X581685Y733740D01*
X581685Y743945D01*
X532701Y792929D02*
X532701Y854159D01*
X518414Y868446D01*
X577603Y727617D02*
X577475Y726818D01*
X518414Y868446D02*
X517500Y869000D01*
D42*
X581685Y743945D03*
X532701Y792929D03*
D43*
X768437Y472492D02*
X812318Y472492D01*
X812500Y472000D01*
X768437Y472492D02*
X767500Y473500D01*
X587808Y715371D02*
X487799Y615362D01*
X587808Y715371D02*
X588789Y715505D01*
D42*
X487799Y615362D03*
D43*
X484738Y637813D02*
X484738Y644956D01*
X500555Y660774D02*
X571480Y731699D01*
X500555Y660774D02*
X484738Y644956D01*
X484738Y637813D02*
X484000Y637500D01*
X571480Y731699D02*
X571818Y732475D01*
X596993Y885794D02*
X596993Y894979D01*
X583726Y908245D01*
X583726Y914368D01*
X576583Y921512D01*
X520455Y921512D01*
X458205Y859261D01*
X458205Y726596D01*
X476574Y708227D01*
X476574Y684756D01*
X500555Y660774D01*
X597500Y884800D02*
X596993Y885794D01*
X520455Y692920D02*
X484738Y692920D01*
X552601Y725065D02*
X565357Y737822D01*
X552601Y725065D02*
X520455Y692920D01*
X484738Y692920D02*
X484000Y692500D01*
X565357Y737822D02*
X566161Y738132D01*
X552091Y871507D02*
X552091Y880692D01*
X552091Y871507D02*
X539845Y859261D01*
X539845Y782724D01*
X530660Y773539D01*
X530660Y747006D01*
X552601Y725065D01*
D42*
X552091Y880692D03*
D43*
X655161Y749047D02*
X655161Y747006D01*
X671489Y730678D01*
X671489Y670469D01*
X655161Y749047D02*
X655152Y749446D01*
X671489Y670469D02*
X672000Y660000D01*
X660264Y732719D02*
X650059Y742924D01*
X660264Y732719D02*
X660264Y681694D01*
X649038Y670469D01*
X650059Y742924D02*
X649495Y743789D01*
X649038Y670469D02*
X648000Y660000D01*
X517394Y828646D02*
X517394Y850077D01*
X356155Y667407D02*
X341868Y653120D01*
X341868Y644956D01*
X343909Y642915D01*
X343909Y596993D01*
X152055Y405139D01*
X115317Y405139D01*
X517394Y850077D02*
X517500Y851000D01*
X115317Y405139D02*
X115000Y404400D01*
D42*
X517394Y828646D03*
X356155Y667407D03*
D43*
X579644Y720473D02*
X582706Y720473D01*
X579644Y720473D02*
X510250Y651079D01*
X507189Y651079D01*
X582706Y720473D02*
X583132Y721161D01*
D42*
X507189Y651079D03*
D43*
X582706Y799052D02*
X582706Y802113D01*
X578624Y806195D01*
X578624Y875589D01*
X583726Y880692D01*
X583726Y898040D01*
X572501Y909266D01*
X582706Y799052D02*
X583132Y798839D01*
X572501Y909266D02*
X572100Y910200D01*
X551070Y797011D02*
X565357Y782724D01*
X551070Y797011D02*
X551070Y864364D01*
X571480Y884774D01*
X565357Y782724D02*
X566161Y781868D01*
X571480Y884774D02*
X572100Y884800D01*
X251043Y106132D02*
X251043Y55107D01*
X260228Y45923D01*
X251043Y106132D02*
X250482Y107088D01*
X260228Y45923D02*
X260500Y45000D01*
X261248Y44902D02*
X275535Y44902D01*
X290843Y29595D01*
X380647Y29595D01*
X390852Y39800D01*
X429631Y39800D01*
X261248Y44902D02*
X260500Y45000D01*
X429631Y39800D02*
X430000Y40000D01*
X684756Y55107D02*
X730678Y55107D01*
X733740Y58169D01*
X794970Y58169D01*
X809257Y43882D01*
X684756Y55107D02*
X684000Y55000D01*
X809257Y43882D02*
X810000Y43000D01*
M02*
