M48
;GenerationSoftware,Autodesk,EAGLE,9.1.3*%
;CreationDate,2018-09-19T12:41:41Z*%
FMAT,2
ICI,OFF
METRIC,TZ,000.000
T9C0.350
T8C0.800
T7C1.016
T6C1.397
T5C1.400
T4C1.499
T3C2.032
T2C3.000
T1C3.500
%
G90
M71
T1
X75300Y29620
X75300Y41020
T2
X17250Y83250
X67250Y83250
X17250Y13250
X67250Y13250
T3
X81000Y10000
X76428Y10000
T4
X4745Y59255
X4745Y52245
T5
X72270Y27575
X72270Y43065
T6
X7080Y11630
X7080Y16710
X7080Y21790
X7080Y6550
X7080Y26870
X7080Y31950
X6830Y70130
X6830Y75210
X6830Y80290
X6830Y85370
X6830Y65050
X6830Y90450
T7
X59750Y91020
X57210Y91020
X62290Y88480
X59750Y88480
X57210Y88480
X2255Y58011
X2255Y53489
X11500Y40440
X78000Y62000
X78000Y59500
X78000Y57000
X78000Y76250
X78000Y73750
X78000Y71250
X78000Y90500
X78000Y88000
X78000Y85500
X11500Y42980
X11500Y45520
X11500Y48060
X62290Y91020
T8
X22572Y34205
X80840Y39405
X25112Y41825
X25112Y34205
X25112Y39285
X80840Y41945
X80840Y31235
X80840Y28695
X66430Y39760
X66430Y37220
X66430Y34680
X66430Y32140
X68970Y38500
X68970Y35960
X68970Y33420
X68970Y30880
X25112Y36745
X22572Y36745
X22572Y39285
X22572Y41825
T9
X65312Y78987
X41841Y88579
X59699Y75109
X54189Y74599
X43575Y63985
X50413Y88069
X65312Y72864
X45718Y33472
X45718Y35615
X55821Y83069
X52556Y80722
X64291Y32758
X15307Y24900
X61434Y32146
X37452Y21635
X19900Y19287
X56230Y79701
X71537Y49188
X36432Y21635
X50923Y80007
X42555Y34493
X49392Y32452
X69802Y61128
X53780Y77048
X34901Y64802
X48474Y60107
X48474Y54495
X61128Y72660
X42555Y62557
X53066Y48474
X61434Y76742
X42045Y37452
X62863Y67863
X33779Y38167
X35105Y36840
X62148Y75415
X17859Y22349
X50719Y65108
X51739Y82865
X35615Y66741
X55209Y88069
X48780Y61536
X53270Y79293
X45718Y40106
X58168Y74394
M30