G04 EAGLE Gerber RS-274X export*
G75*
%MOMM*%
%FSLAX34Y34*%
%LPD*%
%AMOC8*
5,1,8,0,0,1.08239X$1,22.5*%
G01*
%ADD10C,3.203200*%
%ADD11C,2.235200*%
%ADD12C,1.727200*%
%ADD13R,1.511200X1.511200*%
%ADD14C,1.511200*%
%ADD15C,2.298700*%
%ADD16C,2.303200*%
%ADD17C,3.703200*%
%ADD18C,1.727200*%
%ADD19P,1.869504X8X202.500000*%
%ADD20P,1.869504X8X292.500000*%
%ADD21C,2.451100*%
%ADD22C,0.959600*%


D10*
X172500Y832500D03*
X672500Y832500D03*
X172500Y132500D03*
X672500Y132500D03*
D11*
X810000Y100000D03*
X764280Y100000D03*
D12*
X772380Y620000D02*
X787620Y620000D01*
X787620Y595000D02*
X772380Y595000D01*
X772380Y570000D02*
X787620Y570000D01*
X787620Y762500D02*
X772380Y762500D01*
X772380Y737500D02*
X787620Y737500D01*
X787620Y712500D02*
X772380Y712500D01*
D13*
X251125Y418250D03*
X251125Y342050D03*
D14*
X251125Y392850D03*
X251125Y367450D03*
X225725Y367450D03*
X225725Y392850D03*
X225725Y418250D03*
X225725Y342050D03*
D15*
X78778Y904500D02*
X57823Y904500D01*
X57823Y853700D02*
X78778Y853700D01*
X78778Y650500D02*
X57823Y650500D01*
X57823Y802900D02*
X78778Y802900D01*
X78778Y752100D02*
X57823Y752100D01*
X57823Y701300D02*
X78778Y701300D01*
X81278Y319500D02*
X60323Y319500D01*
X60323Y268700D02*
X81278Y268700D01*
X81278Y65500D02*
X60323Y65500D01*
X60323Y217900D02*
X81278Y217900D01*
X81278Y167100D02*
X60323Y167100D01*
X60323Y116300D02*
X81278Y116300D01*
D12*
X772380Y905000D02*
X787620Y905000D01*
X787620Y880000D02*
X772380Y880000D01*
X772380Y855000D02*
X787620Y855000D01*
D16*
X722700Y275750D03*
X722700Y430650D03*
D14*
X808400Y419450D03*
X808400Y394050D03*
X808400Y312350D03*
X808400Y286950D03*
X664300Y397600D03*
X664300Y372200D03*
X664300Y346800D03*
X664300Y321400D03*
X689700Y385000D03*
X689700Y359600D03*
X689700Y334200D03*
X689700Y308800D03*
D17*
X753000Y296200D03*
X753000Y410200D03*
D12*
X122620Y404400D02*
X107380Y404400D01*
X107380Y429800D02*
X122620Y429800D01*
X122620Y455200D02*
X107380Y455200D01*
X107380Y480600D02*
X122620Y480600D01*
D18*
X622900Y910200D03*
D19*
X597500Y910200D03*
X572100Y910200D03*
X622900Y884800D03*
X597500Y884800D03*
X572100Y884800D03*
D20*
X22554Y580106D03*
X22554Y534894D03*
D21*
X47446Y592552D03*
X47446Y522448D03*
D22*
X374524Y216346D03*
X198998Y192875D03*
X562296Y797011D03*
X509230Y800072D03*
X493922Y324519D03*
X698022Y611280D03*
X537804Y770478D03*
X349011Y648018D03*
X153075Y249002D03*
X484738Y601075D03*
X484738Y544947D03*
X611280Y726596D03*
X425549Y625567D03*
X420446Y374524D03*
X530660Y484738D03*
X614341Y767416D03*
X628628Y678633D03*
X337786Y381667D03*
X351052Y368401D03*
X621485Y754150D03*
X653120Y789867D03*
X418405Y885794D03*
X596993Y751088D03*
X541886Y745986D03*
X435754Y639854D03*
X178588Y223490D03*
X504127Y880692D03*
X653120Y728637D03*
X457184Y334724D03*
X457184Y356155D03*
X457184Y401057D03*
X364319Y216346D03*
X715371Y491881D03*
X614341Y321458D03*
X425549Y344929D03*
X642915Y327581D03*
X525558Y807216D03*
X558214Y830687D03*
X581685Y743945D03*
X532701Y792929D03*
X487799Y615362D03*
X552091Y880692D03*
X517394Y828646D03*
X356155Y667407D03*
X507189Y651079D03*
M02*
