M48
;GenerationSoftware,Autodesk,EAGLE,9.3.2*%
;CreationDate,2019-04-02T12:07:33Z*%
FMAT,2
ICI,OFF
METRIC,TZ,000.000
T11C0.350
T10C0.800
T9C0.813
T8C1.000
T7C1.016
T6C1.270
T5C1.400
T4C1.499
T3C2.032
T2C3.000
T1C3.500
%
G90
M71
T1
X75300Y30620
X75300Y42020
T2
X17250Y83250
X67250Y83250
X17250Y13250
X67250Y13250
T3
X77428Y10000
X82000Y10000
T4
X79005Y26755
X79005Y19745
T5
X72270Y44065
X72270Y28575
T6
X5000Y83905
X5000Y56000
X5000Y59810
X5000Y72475
X5000Y76285
X5000Y80095
X5000Y28215
X5000Y87715
X5000Y91525
X5000Y52190
X5000Y5355
X5000Y9165
X5000Y12975
X5000Y16785
X5000Y20595
X5000Y24405
X5000Y32025
X5000Y35835
X5000Y39645
T7
X79750Y77750
X79750Y60250
X79750Y62750
X79750Y72750
X79750Y85250
X81495Y25511
X81495Y20989
X72250Y47440
X79750Y65250
X79750Y87750
X72250Y52520
X72250Y55060
X79750Y90250
X79750Y75250
X72250Y49980
T8
X59960Y91270
X59960Y88730
X65040Y91270
X65040Y88730
X62500Y91270
X62500Y88730
T9
X44440Y90750
X52060Y90750
T10
X66430Y38220
X66430Y35680
X68970Y39500
X68970Y36960
X68970Y34420
X68970Y31880
X25112Y39285
X25112Y41825
X25112Y34205
X66430Y33140
X25112Y36745
X22572Y36745
X22572Y39285
X22572Y41825
X22572Y34205
X80840Y42945
X80840Y40405
X80840Y32235
X80840Y29695
X66430Y40760
T11
X26941Y29492
X46637Y23063
X49290Y28778
X26227Y33064
X62353Y83885
X39800Y39595
X17553Y33166
X57250Y73578
X48678Y70823
X60209Y72353
X31738Y56332
X20512Y12042
X47657Y65924
X49902Y71537
X54291Y75925
X67557Y87763
X17451Y18777
X54291Y67965
X48678Y67965
X21328Y41943
X20512Y14491
X13879Y14185
X57862Y55209
X58679Y70108
X64496Y32860
X40514Y34901
X61434Y32146
X48882Y33472
X67557Y46535
X62353Y18981
X42861Y35207
X45718Y36024
X16430Y18777
X51739Y66639
X46025Y85824
X59495Y73782
X38473Y36636
X63169Y71231
X64598Y76742
X62148Y74599
X38779Y39595
X61230Y82763
X40922Y38473
X42861Y61638
X29799Y33779
X59903Y68271
X40208Y46127
X59291Y65210
X38473Y40616
X58271Y66230
X17451Y29288
X50107Y73272
X62863Y77456
M30