G04 EAGLE Gerber RS-274X export*
G75*
%MOMM*%
%FSLAX34Y34*%
%LPD*%
%INTop Copper*%
%IPPOS*%
%AMOC8*
5,1,8,0,0,1.08239X$1,22.5*%
G01*
%ADD10R,1.200000X1.200000*%
%ADD11R,1.270000X1.470000*%
%ADD12R,0.800000X1.200000*%
%ADD13R,1.780000X3.200000*%
%ADD14R,2.800000X2.400000*%
%ADD15R,1.200000X0.800000*%
%ADD16R,1.470000X1.270000*%
%ADD17R,3.810000X2.082800*%
%ADD18R,8.890000X11.430000*%
%ADD19R,1.308000X1.308000*%
%ADD20C,1.308000*%
%ADD21C,2.095500*%
%ADD22R,1.500000X0.400000*%
%ADD23R,1.700000X3.300000*%
%ADD24R,1.200000X2.000000*%
%ADD25C,2.100000*%
%ADD26C,1.524000*%
%ADD27R,1.270000X0.558800*%
%ADD28R,0.558800X1.270000*%
%ADD29C,0.450000*%
%ADD30C,0.254000*%
%ADD31R,2.500000X4.300000*%
%ADD32R,5.500000X4.000000*%
%ADD33R,10.800000X10.410000*%
%ADD34R,1.066800X2.159000*%
%ADD35R,2.400000X2.400000*%
%ADD36C,0.127000*%
%ADD37C,0.101600*%
%ADD38P,1.649562X8X112.500000*%
%ADD39C,2.247900*%
%ADD40P,1.632244X8X22.500000*%
%ADD41R,1.000000X1.400000*%
%ADD42C,0.756400*%
%ADD43C,0.203200*%


D10*
X728000Y200000D03*
X707000Y200000D03*
D11*
X686500Y55000D03*
X643500Y55000D03*
D12*
X681500Y200000D03*
X663500Y200000D03*
D13*
X614900Y55000D03*
X565100Y55000D03*
D14*
X820000Y43000D03*
X820000Y157000D03*
X759000Y43000D03*
X759000Y157000D03*
D15*
X412500Y914000D03*
X412500Y896000D03*
D16*
X170000Y883500D03*
X170000Y926500D03*
D17*
X371400Y859600D03*
X371400Y910400D03*
D18*
X257100Y885000D03*
D15*
X732500Y621500D03*
X732500Y603500D03*
X732500Y746500D03*
X732500Y728500D03*
X415000Y784000D03*
X415000Y766000D03*
D16*
X170000Y738500D03*
X170000Y781500D03*
D17*
X371400Y729600D03*
X371400Y780400D03*
D18*
X257100Y755000D03*
D19*
X251125Y418250D03*
X251125Y342050D03*
D20*
X251125Y392850D03*
X251125Y367450D03*
X225725Y367450D03*
X225725Y392850D03*
X225725Y418250D03*
X225725Y342050D03*
D21*
X81278Y904500D02*
X60323Y904500D01*
X60323Y853700D02*
X81278Y853700D01*
X81278Y650500D02*
X60323Y650500D01*
X60323Y802900D02*
X81278Y802900D01*
X81278Y752100D02*
X60323Y752100D01*
X60323Y701300D02*
X81278Y701300D01*
D15*
X415000Y634000D03*
X415000Y616000D03*
D16*
X175000Y616000D03*
X175000Y659000D03*
D17*
X373900Y599600D03*
X373900Y650400D03*
D18*
X259600Y625000D03*
D15*
X732500Y871500D03*
X732500Y853500D03*
X115000Y361000D03*
X115000Y379000D03*
X115000Y311000D03*
X115000Y329000D03*
X115000Y261000D03*
X115000Y279000D03*
D22*
X371250Y419750D03*
X371250Y413250D03*
X371250Y406750D03*
X371250Y400250D03*
X371250Y393750D03*
X371250Y387250D03*
X371250Y380750D03*
X371250Y374250D03*
X371250Y367750D03*
X371250Y361250D03*
X371250Y354750D03*
X371250Y348250D03*
X371250Y341750D03*
X371250Y335250D03*
X443750Y335250D03*
X443750Y341750D03*
X443750Y348250D03*
X443750Y354750D03*
X443750Y361250D03*
X443750Y367750D03*
X443750Y374250D03*
X443750Y380750D03*
X443750Y387250D03*
X443750Y393750D03*
X443750Y400250D03*
X443750Y406750D03*
X443750Y413250D03*
X443750Y419750D03*
D12*
X316500Y350000D03*
X298500Y350000D03*
X316500Y382500D03*
X298500Y382500D03*
X341500Y322500D03*
X323500Y322500D03*
D23*
X511500Y420000D03*
X548500Y420000D03*
D12*
X503500Y340000D03*
X521500Y340000D03*
X503500Y367500D03*
X521500Y367500D03*
D15*
X560000Y358500D03*
X560000Y376500D03*
X602500Y358500D03*
X602500Y376500D03*
X602500Y303500D03*
X602500Y321500D03*
X560000Y303500D03*
X560000Y321500D03*
D12*
X521500Y315000D03*
X503500Y315000D03*
D15*
X602500Y431500D03*
X602500Y413500D03*
D12*
X521500Y287500D03*
X503500Y287500D03*
D24*
X320000Y416000D03*
X320000Y444000D03*
D12*
X504000Y472500D03*
X486000Y472500D03*
X461500Y472500D03*
X443500Y472500D03*
D25*
X722700Y285750D03*
X722700Y440650D03*
D20*
X808400Y429450D03*
X808400Y404050D03*
X808400Y322350D03*
X808400Y296950D03*
X664300Y407600D03*
X664300Y382200D03*
X664300Y356800D03*
X664300Y331400D03*
X689700Y395000D03*
X689700Y369600D03*
X689700Y344200D03*
X689700Y318800D03*
D26*
X714880Y550600D02*
X730120Y550600D01*
X730120Y525200D02*
X714880Y525200D01*
X714880Y499800D02*
X730120Y499800D01*
X730120Y474400D02*
X714880Y474400D01*
D12*
X524000Y840000D03*
X506000Y840000D03*
X473500Y795000D03*
X491500Y795000D03*
X473500Y752500D03*
X491500Y752500D03*
X663500Y252500D03*
X681500Y252500D03*
D10*
X728000Y252500D03*
X707000Y252500D03*
D27*
G36*
X610540Y678813D02*
X619519Y669834D01*
X615568Y665883D01*
X606589Y674862D01*
X610540Y678813D01*
G37*
G36*
X616197Y684470D02*
X625176Y675491D01*
X621225Y671540D01*
X612246Y680519D01*
X616197Y684470D01*
G37*
G36*
X621854Y690126D02*
X630833Y681147D01*
X626882Y677196D01*
X617903Y686175D01*
X621854Y690126D01*
G37*
G36*
X627511Y695783D02*
X636490Y686804D01*
X632539Y682853D01*
X623560Y691832D01*
X627511Y695783D01*
G37*
G36*
X633168Y701440D02*
X642147Y692461D01*
X638196Y688510D01*
X629217Y697489D01*
X633168Y701440D01*
G37*
G36*
X638825Y707097D02*
X647804Y698118D01*
X643853Y694167D01*
X634874Y703146D01*
X638825Y707097D01*
G37*
G36*
X644481Y712754D02*
X653460Y703775D01*
X649509Y699824D01*
X640530Y708803D01*
X644481Y712754D01*
G37*
G36*
X650138Y718411D02*
X659117Y709432D01*
X655166Y705481D01*
X646187Y714460D01*
X650138Y718411D01*
G37*
D28*
G36*
X655166Y739519D02*
X659117Y735568D01*
X650138Y726589D01*
X646187Y730540D01*
X655166Y739519D01*
G37*
G36*
X649509Y745176D02*
X653460Y741225D01*
X644481Y732246D01*
X640530Y736197D01*
X649509Y745176D01*
G37*
G36*
X643853Y750833D02*
X647804Y746882D01*
X638825Y737903D01*
X634874Y741854D01*
X643853Y750833D01*
G37*
G36*
X638196Y756490D02*
X642147Y752539D01*
X633168Y743560D01*
X629217Y747511D01*
X638196Y756490D01*
G37*
G36*
X632539Y762147D02*
X636490Y758196D01*
X627511Y749217D01*
X623560Y753168D01*
X632539Y762147D01*
G37*
G36*
X626882Y767804D02*
X630833Y763853D01*
X621854Y754874D01*
X617903Y758825D01*
X626882Y767804D01*
G37*
G36*
X621225Y773460D02*
X625176Y769509D01*
X616197Y760530D01*
X612246Y764481D01*
X621225Y773460D01*
G37*
G36*
X615568Y779117D02*
X619519Y775166D01*
X610540Y766187D01*
X606589Y770138D01*
X615568Y779117D01*
G37*
D27*
G36*
X589432Y779117D02*
X598411Y770138D01*
X594460Y766187D01*
X585481Y775166D01*
X589432Y779117D01*
G37*
G36*
X583775Y773460D02*
X592754Y764481D01*
X588803Y760530D01*
X579824Y769509D01*
X583775Y773460D01*
G37*
G36*
X578118Y767804D02*
X587097Y758825D01*
X583146Y754874D01*
X574167Y763853D01*
X578118Y767804D01*
G37*
G36*
X572461Y762147D02*
X581440Y753168D01*
X577489Y749217D01*
X568510Y758196D01*
X572461Y762147D01*
G37*
G36*
X566804Y756490D02*
X575783Y747511D01*
X571832Y743560D01*
X562853Y752539D01*
X566804Y756490D01*
G37*
G36*
X561147Y750833D02*
X570126Y741854D01*
X566175Y737903D01*
X557196Y746882D01*
X561147Y750833D01*
G37*
G36*
X555491Y745176D02*
X564470Y736197D01*
X560519Y732246D01*
X551540Y741225D01*
X555491Y745176D01*
G37*
G36*
X549834Y739519D02*
X558813Y730540D01*
X554862Y726589D01*
X545883Y735568D01*
X549834Y739519D01*
G37*
D28*
G36*
X554862Y718411D02*
X558813Y714460D01*
X549834Y705481D01*
X545883Y709432D01*
X554862Y718411D01*
G37*
G36*
X560519Y712754D02*
X564470Y708803D01*
X555491Y699824D01*
X551540Y703775D01*
X560519Y712754D01*
G37*
G36*
X566175Y707097D02*
X570126Y703146D01*
X561147Y694167D01*
X557196Y698118D01*
X566175Y707097D01*
G37*
G36*
X571832Y701440D02*
X575783Y697489D01*
X566804Y688510D01*
X562853Y692461D01*
X571832Y701440D01*
G37*
G36*
X577489Y695783D02*
X581440Y691832D01*
X572461Y682853D01*
X568510Y686804D01*
X577489Y695783D01*
G37*
G36*
X583146Y690126D02*
X587097Y686175D01*
X578118Y677196D01*
X574167Y681147D01*
X583146Y690126D01*
G37*
G36*
X588803Y684470D02*
X592754Y680519D01*
X583775Y671540D01*
X579824Y675491D01*
X588803Y684470D01*
G37*
G36*
X594460Y678813D02*
X598411Y674862D01*
X589432Y665883D01*
X585481Y669834D01*
X594460Y678813D01*
G37*
D12*
X541000Y805000D03*
X559000Y805000D03*
X486500Y692500D03*
X468500Y692500D03*
D29*
X661371Y651659D02*
X671659Y641371D01*
X680144Y649856D02*
X669856Y660144D01*
X678341Y668629D02*
X688629Y658341D01*
D30*
X666515Y646515D02*
X659331Y653699D01*
X666515Y646515D02*
X673699Y639331D01*
X683485Y663485D02*
X676301Y670669D01*
X683485Y663485D02*
X690669Y656301D01*
X675000Y655000D02*
X667816Y662184D01*
X675000Y655000D02*
X682184Y647816D01*
D12*
X486500Y637500D03*
X468500Y637500D03*
D31*
X327500Y193500D03*
X327500Y276500D03*
X597500Y113500D03*
X597500Y196500D03*
D32*
X332500Y135000D03*
X332500Y50000D03*
D33*
X472500Y82100D03*
D34*
X506536Y165412D03*
X489518Y165412D03*
X472500Y165412D03*
X455482Y165412D03*
X438464Y165412D03*
D35*
X492000Y220000D03*
X448000Y220000D03*
D36*
X160000Y511030D02*
X160000Y538970D01*
X162540Y522460D02*
X162540Y511030D01*
X171430Y513570D02*
X162540Y522460D01*
X157460Y527540D02*
X148570Y536430D01*
X157460Y538970D02*
X157460Y527540D01*
X151110Y538971D02*
X151449Y539180D01*
X151793Y539381D01*
X152142Y539574D01*
X152495Y539758D01*
X152853Y539933D01*
X153215Y540100D01*
X153581Y540258D01*
X153951Y540407D01*
X154324Y540546D01*
X154701Y540677D01*
X155080Y540798D01*
X155463Y540911D01*
X155848Y541013D01*
X156235Y541107D01*
X156625Y541191D01*
X157016Y541265D01*
X157409Y541330D01*
X157804Y541385D01*
X158200Y541431D01*
X158597Y541467D01*
X158995Y541493D01*
X159393Y541510D01*
X159791Y541517D01*
X160190Y541514D01*
X160588Y541501D01*
X160986Y541479D01*
X161383Y541447D01*
X161780Y541406D01*
X162175Y541355D01*
X162569Y541294D01*
X162961Y541224D01*
X163351Y541144D01*
X163740Y541054D01*
X164126Y540955D01*
X164509Y540847D01*
X164890Y540730D01*
X165268Y540603D01*
X165643Y540467D01*
X166014Y540322D01*
X166382Y540168D01*
X166745Y540005D01*
X167105Y539833D01*
X167460Y539653D01*
X167811Y539464D01*
X168157Y539267D01*
X168499Y539061D01*
X168835Y538847D01*
X169165Y538624D01*
X169491Y538394D01*
X169810Y538156D01*
X170124Y537910D01*
X170432Y537657D01*
X170733Y537396D01*
X171028Y537128D01*
X171316Y536853D01*
X171598Y536571D01*
X171872Y536282D01*
X172140Y535986D01*
X172400Y535684D01*
X172653Y535376D01*
X172898Y535062D01*
X173135Y534742D01*
X173365Y534416D01*
X173586Y534085D01*
X173800Y533748D01*
X174005Y533407D01*
X174202Y533060D01*
X174390Y532709D01*
X174570Y532353D01*
X174741Y531993D01*
X174903Y531629D01*
X175056Y531261D01*
X175200Y530890D01*
X175335Y530515D01*
X175461Y530137D01*
X175578Y529756D01*
X175685Y529372D01*
X175783Y528985D01*
X175872Y528597D01*
X175951Y528206D01*
X176021Y527814D01*
X176080Y527420D01*
X176131Y527025D01*
X176172Y526628D01*
X176203Y526231D01*
X176224Y525833D01*
X176236Y525435D01*
X176238Y525036D01*
X176230Y524638D01*
X176212Y524239D01*
X176185Y523842D01*
X176148Y523445D01*
X176102Y523049D01*
X176046Y522655D01*
X175980Y522261D01*
X175905Y521870D01*
X175820Y521481D01*
X175726Y521093D01*
X175622Y520709D01*
X175509Y520326D01*
X175387Y519947D01*
X175256Y519571D01*
X175115Y519198D01*
X174965Y518829D01*
X174807Y518463D01*
X174639Y518101D01*
X174463Y517744D01*
X174278Y517391D01*
X174085Y517042D01*
X173883Y516699D01*
X173673Y516360D01*
X173455Y516027D01*
X173229Y515699D01*
X172994Y515376D01*
X172752Y515060D01*
X172503Y514749D01*
X172245Y514445D01*
X171981Y514146D01*
X171709Y513855D01*
X171430Y513570D01*
X168890Y511029D02*
X168551Y510820D01*
X168207Y510619D01*
X167858Y510426D01*
X167505Y510242D01*
X167147Y510067D01*
X166785Y509900D01*
X166419Y509742D01*
X166049Y509593D01*
X165676Y509454D01*
X165299Y509323D01*
X164920Y509202D01*
X164537Y509089D01*
X164152Y508987D01*
X163765Y508893D01*
X163375Y508809D01*
X162984Y508735D01*
X162591Y508670D01*
X162196Y508615D01*
X161800Y508569D01*
X161403Y508533D01*
X161005Y508507D01*
X160607Y508490D01*
X160209Y508483D01*
X159810Y508486D01*
X159412Y508499D01*
X159014Y508521D01*
X158617Y508553D01*
X158220Y508594D01*
X157825Y508645D01*
X157431Y508706D01*
X157039Y508776D01*
X156649Y508856D01*
X156260Y508946D01*
X155874Y509045D01*
X155491Y509153D01*
X155110Y509270D01*
X154732Y509397D01*
X154357Y509533D01*
X153986Y509678D01*
X153618Y509832D01*
X153255Y509995D01*
X152895Y510167D01*
X152540Y510347D01*
X152189Y510536D01*
X151843Y510733D01*
X151501Y510939D01*
X151165Y511153D01*
X150835Y511376D01*
X150509Y511606D01*
X150190Y511844D01*
X149876Y512090D01*
X149568Y512343D01*
X149267Y512604D01*
X148972Y512872D01*
X148684Y513147D01*
X148402Y513429D01*
X148128Y513718D01*
X147860Y514014D01*
X147600Y514316D01*
X147347Y514624D01*
X147102Y514938D01*
X146865Y515258D01*
X146635Y515584D01*
X146414Y515915D01*
X146200Y516252D01*
X145995Y516593D01*
X145798Y516940D01*
X145610Y517291D01*
X145430Y517647D01*
X145259Y518007D01*
X145097Y518371D01*
X144944Y518739D01*
X144800Y519110D01*
X144665Y519485D01*
X144539Y519863D01*
X144422Y520244D01*
X144315Y520628D01*
X144217Y521015D01*
X144128Y521403D01*
X144049Y521794D01*
X143979Y522186D01*
X143920Y522580D01*
X143869Y522975D01*
X143828Y523372D01*
X143797Y523769D01*
X143776Y524167D01*
X143764Y524565D01*
X143762Y524964D01*
X143770Y525362D01*
X143788Y525761D01*
X143815Y526158D01*
X143852Y526555D01*
X143898Y526951D01*
X143954Y527345D01*
X144020Y527739D01*
X144095Y528130D01*
X144180Y528519D01*
X144274Y528907D01*
X144378Y529291D01*
X144491Y529674D01*
X144613Y530053D01*
X144744Y530429D01*
X144885Y530802D01*
X145035Y531171D01*
X145193Y531537D01*
X145361Y531899D01*
X145537Y532256D01*
X145722Y532609D01*
X145915Y532958D01*
X146117Y533301D01*
X146327Y533640D01*
X146545Y533973D01*
X146771Y534301D01*
X147006Y534624D01*
X147248Y534940D01*
X147497Y535251D01*
X147755Y535555D01*
X148019Y535854D01*
X148291Y536145D01*
X148570Y536430D01*
D37*
X130056Y502902D02*
X130056Y491218D01*
X128758Y491218D02*
X131354Y491218D01*
X131354Y502902D02*
X128758Y502902D01*
X135955Y499656D02*
X135955Y494464D01*
X135954Y499656D02*
X135956Y499769D01*
X135962Y499882D01*
X135972Y499995D01*
X135986Y500108D01*
X136003Y500220D01*
X136025Y500331D01*
X136050Y500441D01*
X136080Y500551D01*
X136113Y500659D01*
X136150Y500766D01*
X136190Y500872D01*
X136235Y500976D01*
X136283Y501079D01*
X136334Y501180D01*
X136389Y501279D01*
X136447Y501376D01*
X136509Y501471D01*
X136574Y501564D01*
X136642Y501654D01*
X136713Y501742D01*
X136788Y501828D01*
X136865Y501911D01*
X136945Y501991D01*
X137028Y502068D01*
X137114Y502143D01*
X137202Y502214D01*
X137292Y502282D01*
X137385Y502347D01*
X137480Y502409D01*
X137577Y502467D01*
X137676Y502522D01*
X137777Y502573D01*
X137880Y502621D01*
X137984Y502666D01*
X138090Y502706D01*
X138197Y502743D01*
X138305Y502776D01*
X138415Y502806D01*
X138525Y502831D01*
X138636Y502853D01*
X138748Y502870D01*
X138861Y502884D01*
X138974Y502894D01*
X139087Y502900D01*
X139200Y502902D01*
X139313Y502900D01*
X139426Y502894D01*
X139539Y502884D01*
X139652Y502870D01*
X139764Y502853D01*
X139875Y502831D01*
X139985Y502806D01*
X140095Y502776D01*
X140203Y502743D01*
X140310Y502706D01*
X140416Y502666D01*
X140520Y502621D01*
X140623Y502573D01*
X140724Y502522D01*
X140823Y502467D01*
X140920Y502409D01*
X141015Y502347D01*
X141108Y502282D01*
X141198Y502214D01*
X141286Y502143D01*
X141372Y502068D01*
X141455Y501991D01*
X141535Y501911D01*
X141612Y501828D01*
X141687Y501742D01*
X141758Y501654D01*
X141826Y501564D01*
X141891Y501471D01*
X141953Y501376D01*
X142011Y501279D01*
X142066Y501180D01*
X142117Y501079D01*
X142165Y500976D01*
X142210Y500872D01*
X142250Y500766D01*
X142287Y500659D01*
X142320Y500551D01*
X142350Y500441D01*
X142375Y500331D01*
X142397Y500220D01*
X142414Y500108D01*
X142428Y499995D01*
X142438Y499882D01*
X142444Y499769D01*
X142446Y499656D01*
X142446Y494464D01*
X142444Y494351D01*
X142438Y494238D01*
X142428Y494125D01*
X142414Y494012D01*
X142397Y493900D01*
X142375Y493789D01*
X142350Y493679D01*
X142320Y493569D01*
X142287Y493461D01*
X142250Y493354D01*
X142210Y493248D01*
X142165Y493144D01*
X142117Y493041D01*
X142066Y492940D01*
X142011Y492841D01*
X141953Y492744D01*
X141891Y492649D01*
X141826Y492556D01*
X141758Y492466D01*
X141687Y492378D01*
X141612Y492292D01*
X141535Y492209D01*
X141455Y492129D01*
X141372Y492052D01*
X141286Y491977D01*
X141198Y491906D01*
X141108Y491838D01*
X141015Y491773D01*
X140920Y491711D01*
X140823Y491653D01*
X140724Y491598D01*
X140623Y491547D01*
X140520Y491499D01*
X140416Y491454D01*
X140310Y491414D01*
X140203Y491377D01*
X140095Y491344D01*
X139985Y491314D01*
X139875Y491289D01*
X139764Y491267D01*
X139652Y491250D01*
X139539Y491236D01*
X139426Y491226D01*
X139313Y491220D01*
X139200Y491218D01*
X139087Y491220D01*
X138974Y491226D01*
X138861Y491236D01*
X138748Y491250D01*
X138636Y491267D01*
X138525Y491289D01*
X138415Y491314D01*
X138305Y491344D01*
X138197Y491377D01*
X138090Y491414D01*
X137984Y491454D01*
X137880Y491499D01*
X137777Y491547D01*
X137676Y491598D01*
X137577Y491653D01*
X137480Y491711D01*
X137385Y491773D01*
X137292Y491838D01*
X137202Y491906D01*
X137114Y491977D01*
X137028Y492052D01*
X136945Y492129D01*
X136865Y492209D01*
X136788Y492292D01*
X136713Y492378D01*
X136642Y492466D01*
X136574Y492556D01*
X136509Y492649D01*
X136447Y492744D01*
X136389Y492841D01*
X136334Y492940D01*
X136283Y493041D01*
X136235Y493144D01*
X136190Y493248D01*
X136150Y493354D01*
X136113Y493461D01*
X136080Y493569D01*
X136050Y493679D01*
X136025Y493789D01*
X136003Y493900D01*
X135986Y494012D01*
X135972Y494125D01*
X135962Y494238D01*
X135956Y494351D01*
X135954Y494464D01*
X149868Y491218D02*
X149868Y502902D01*
X146623Y502902D02*
X153114Y502902D01*
X157694Y491218D02*
X162887Y491218D01*
X157694Y491218D02*
X157694Y502902D01*
X162887Y502902D01*
X161589Y497709D02*
X157694Y497709D01*
X169760Y491218D02*
X172356Y491218D01*
X169760Y491218D02*
X169661Y491220D01*
X169561Y491226D01*
X169462Y491235D01*
X169364Y491248D01*
X169266Y491265D01*
X169168Y491286D01*
X169072Y491311D01*
X168977Y491339D01*
X168883Y491371D01*
X168790Y491406D01*
X168698Y491445D01*
X168608Y491488D01*
X168520Y491533D01*
X168433Y491583D01*
X168349Y491635D01*
X168266Y491691D01*
X168186Y491749D01*
X168108Y491811D01*
X168033Y491876D01*
X167960Y491944D01*
X167890Y492014D01*
X167822Y492087D01*
X167757Y492162D01*
X167695Y492240D01*
X167637Y492320D01*
X167581Y492403D01*
X167529Y492487D01*
X167479Y492574D01*
X167434Y492662D01*
X167391Y492752D01*
X167352Y492844D01*
X167317Y492937D01*
X167285Y493031D01*
X167257Y493126D01*
X167232Y493222D01*
X167211Y493320D01*
X167194Y493418D01*
X167181Y493516D01*
X167172Y493615D01*
X167166Y493715D01*
X167164Y493814D01*
X167163Y493814D02*
X167163Y500306D01*
X167164Y500306D02*
X167166Y500405D01*
X167172Y500505D01*
X167181Y500604D01*
X167194Y500702D01*
X167211Y500800D01*
X167232Y500898D01*
X167257Y500994D01*
X167285Y501089D01*
X167317Y501183D01*
X167352Y501276D01*
X167391Y501368D01*
X167434Y501458D01*
X167479Y501546D01*
X167529Y501633D01*
X167581Y501717D01*
X167637Y501800D01*
X167695Y501880D01*
X167757Y501958D01*
X167822Y502033D01*
X167890Y502106D01*
X167960Y502176D01*
X168033Y502244D01*
X168108Y502309D01*
X168186Y502371D01*
X168266Y502429D01*
X168349Y502485D01*
X168433Y502537D01*
X168520Y502587D01*
X168608Y502632D01*
X168698Y502675D01*
X168790Y502714D01*
X168882Y502749D01*
X168977Y502781D01*
X169072Y502809D01*
X169168Y502834D01*
X169266Y502855D01*
X169364Y502872D01*
X169462Y502885D01*
X169561Y502894D01*
X169661Y502900D01*
X169760Y502902D01*
X172356Y502902D01*
X177103Y502902D02*
X177103Y491218D01*
X177103Y497709D02*
X183594Y497709D01*
X183594Y502902D02*
X183594Y491218D01*
D38*
X814946Y209894D03*
X814946Y255106D03*
D39*
X790054Y197448D03*
X790054Y267552D03*
D26*
X789880Y652500D02*
X805120Y652500D01*
X805120Y627500D02*
X789880Y627500D01*
X789880Y602500D02*
X805120Y602500D01*
X805120Y777500D02*
X789880Y777500D01*
X789880Y752500D02*
X805120Y752500D01*
X805120Y727500D02*
X789880Y727500D01*
X789880Y902500D02*
X805120Y902500D01*
X805120Y877500D02*
X789880Y877500D01*
X789880Y852500D02*
X805120Y852500D01*
D21*
X81278Y521100D02*
X60323Y521100D01*
X60323Y470300D02*
X81278Y470300D01*
X81278Y63900D02*
X60323Y63900D01*
X60323Y419500D02*
X81278Y419500D01*
X81278Y368700D02*
X60323Y368700D01*
X60323Y114700D02*
X81278Y114700D01*
X81278Y317900D02*
X60323Y317900D01*
X60323Y267100D02*
X81278Y267100D01*
X81278Y165500D02*
X60323Y165500D01*
X60323Y216300D02*
X81278Y216300D01*
D15*
X115000Y208500D03*
X115000Y226500D03*
X115000Y158500D03*
X115000Y176500D03*
X115000Y106000D03*
X115000Y124000D03*
X112500Y41000D03*
X112500Y59000D03*
D40*
X599600Y887300D03*
X599600Y912700D03*
X625000Y887300D03*
X625000Y912700D03*
X650400Y887300D03*
X650400Y912700D03*
D11*
X514000Y902500D03*
X471000Y902500D03*
D15*
X125000Y601500D03*
X125000Y583500D03*
D10*
X122500Y685500D03*
X122500Y664500D03*
D12*
X123500Y825000D03*
X141500Y825000D03*
D10*
X122500Y888000D03*
X122500Y867000D03*
D12*
X128500Y720000D03*
X146500Y720000D03*
D10*
X122500Y785500D03*
X122500Y764500D03*
D11*
X469000Y842500D03*
X426000Y842500D03*
D12*
X139000Y397500D03*
X121000Y397500D03*
D15*
X147500Y379000D03*
X147500Y361000D03*
D41*
X177500Y383500D03*
X187000Y361500D03*
X168000Y361500D03*
D12*
X139000Y345000D03*
X121000Y345000D03*
D15*
X150000Y329000D03*
X150000Y311000D03*
D41*
X182500Y318500D03*
X192000Y296500D03*
X173000Y296500D03*
D12*
X139000Y295000D03*
X121000Y295000D03*
D15*
X150000Y279000D03*
X150000Y261000D03*
D41*
X230000Y273500D03*
X239500Y251500D03*
X220500Y251500D03*
D12*
X139000Y245000D03*
X121000Y245000D03*
D15*
X150000Y226500D03*
X150000Y208500D03*
D41*
X182500Y236000D03*
X192000Y214000D03*
X173000Y214000D03*
D12*
X139000Y192500D03*
X121000Y192500D03*
D15*
X150000Y176500D03*
X150000Y158500D03*
D41*
X230000Y176000D03*
X239500Y154000D03*
X220500Y154000D03*
D12*
X139000Y142500D03*
X121000Y142500D03*
D15*
X145000Y114000D03*
X145000Y96000D03*
D41*
X230000Y106000D03*
X239500Y84000D03*
X220500Y84000D03*
D12*
X139000Y75000D03*
X121000Y75000D03*
D15*
X150000Y56500D03*
X150000Y38500D03*
D41*
X185000Y81000D03*
X194500Y59000D03*
X175500Y59000D03*
D30*
X507189Y158178D02*
X507189Y165321D01*
X507189Y158178D02*
X564337Y101030D01*
X564337Y55107D01*
X507189Y165321D02*
X506536Y165412D01*
X564337Y55107D02*
X565100Y55000D01*
X440856Y192875D02*
X327581Y192875D01*
X498004Y181649D02*
X498004Y178588D01*
X506168Y170424D01*
X506168Y166342D01*
X327581Y192875D02*
X327500Y193500D01*
X506168Y166342D02*
X506536Y165412D01*
X169403Y925594D02*
X91845Y925594D01*
X71435Y905184D01*
X169403Y925594D02*
X170000Y926500D01*
X71435Y905184D02*
X70800Y904500D01*
X143891Y781703D02*
X169403Y781703D01*
X143891Y781703D02*
X123481Y802113D01*
X71435Y802113D01*
X169403Y781703D02*
X170000Y781500D01*
X71435Y802113D02*
X70800Y802900D01*
X144911Y659243D02*
X174506Y659243D01*
X144911Y659243D02*
X128583Y675571D01*
X96948Y675571D01*
X71435Y701084D01*
X174506Y659243D02*
X175000Y659000D01*
X71435Y701084D02*
X70800Y701300D01*
X70415Y620464D02*
X70415Y521476D01*
X70415Y620464D02*
X45923Y644956D01*
X45923Y656182D01*
X80620Y690879D01*
X70415Y521476D02*
X70800Y521100D01*
X80620Y690879D02*
X70800Y701300D01*
D42*
X440856Y192875D03*
X498004Y181649D03*
D43*
X438815Y165321D02*
X438815Y161239D01*
X449020Y151034D01*
X462287Y151034D01*
X472492Y161239D01*
X472492Y165321D01*
X438815Y165321D02*
X438464Y165412D01*
X472492Y165321D02*
X472500Y165412D01*
X448000Y178588D02*
X448000Y219408D01*
X448000Y178588D02*
X438815Y169403D01*
X438815Y166342D01*
X448000Y219408D02*
X448000Y220000D01*
X438815Y166342D02*
X438464Y165412D01*
X543927Y196957D02*
X581685Y196957D01*
X596993Y196957D01*
X543927Y196957D02*
X505148Y235736D01*
X478615Y235736D01*
X474533Y231654D01*
X474533Y167362D01*
X473512Y166342D01*
X596993Y196957D02*
X597500Y196500D01*
X473512Y166342D02*
X472500Y165412D01*
X504127Y287781D02*
X504127Y314314D01*
X504127Y287781D02*
X503500Y287500D01*
X504127Y314314D02*
X503500Y315000D01*
X727617Y235736D02*
X727617Y200018D01*
X727617Y235736D02*
X718432Y244920D01*
X718432Y274515D02*
X718432Y281658D01*
X718432Y274515D02*
X718432Y273494D01*
X718432Y244920D01*
X718432Y281658D02*
X722514Y285740D01*
X727617Y200018D02*
X728000Y200000D01*
X722700Y285750D02*
X722514Y285740D01*
X504127Y286761D02*
X504127Y283699D01*
X514332Y273494D01*
X718432Y273494D01*
X504127Y286761D02*
X503500Y287500D01*
X789867Y157157D02*
X819462Y157157D01*
X789867Y157157D02*
X748027Y198998D01*
X728637Y198998D01*
X819462Y157157D02*
X820000Y157000D01*
X728637Y198998D02*
X728000Y200000D01*
X581685Y196957D02*
X581685Y90825D01*
X583726Y88784D01*
X611280Y88784D01*
X645977Y123481D01*
X645977Y143891D01*
X692920Y190834D01*
X719453Y190834D01*
X727617Y198998D01*
X728000Y200000D01*
X798031Y653120D02*
X798031Y705166D01*
X816400Y723535D01*
X816400Y758232D01*
X798031Y776601D01*
X798031Y653120D02*
X797500Y652500D01*
X798031Y776601D02*
X797500Y777500D01*
X798031Y900081D02*
X798031Y902122D01*
X798031Y900081D02*
X816400Y881712D01*
X816400Y795990D01*
X798031Y777621D01*
X798031Y902122D02*
X797500Y902500D01*
X798031Y777621D02*
X797500Y777500D01*
X521476Y367380D02*
X521476Y340847D01*
X521500Y340000D01*
X521476Y367380D02*
X521500Y367500D01*
X452082Y355134D02*
X443918Y355134D01*
X454633Y357685D02*
X455143Y358196D01*
X454633Y357685D02*
X452082Y355134D01*
X455143Y358196D02*
X455143Y370442D01*
X452082Y373503D01*
X443918Y373503D01*
X443918Y355134D02*
X443750Y354750D01*
X443918Y373503D02*
X443750Y374250D01*
X443918Y374524D02*
X443918Y380647D01*
X443750Y380750D01*
X443918Y374524D02*
X443750Y374250D01*
X518414Y339827D02*
X521476Y339827D01*
X518414Y339827D02*
X509230Y330642D01*
X484738Y330642D01*
X458205Y357175D01*
X455143Y357175D01*
X521500Y340000D02*
X521476Y339827D01*
X455143Y357175D02*
X454633Y357685D01*
X808236Y322478D02*
X808236Y403098D01*
X808236Y322478D02*
X808400Y322350D01*
X808236Y403098D02*
X808400Y404050D01*
X690879Y408200D02*
X664346Y408200D01*
X690879Y408200D02*
X722514Y439836D01*
X664346Y408200D02*
X664300Y407600D01*
X722514Y439836D02*
X722700Y440650D01*
X542906Y368401D02*
X522496Y368401D01*
X521500Y367500D01*
X718432Y274515D02*
X764355Y274515D01*
X808236Y318396D01*
X808236Y321458D01*
X808400Y322350D01*
X414323Y634751D02*
X389831Y634751D01*
X374524Y650059D01*
X414323Y634751D02*
X415000Y634000D01*
X374524Y650059D02*
X373900Y650400D01*
X374524Y783744D02*
X414323Y783744D01*
X374524Y783744D02*
X371462Y780683D01*
X414323Y783744D02*
X415000Y784000D01*
X371462Y780683D02*
X371400Y780400D01*
X425549Y794970D02*
X432692Y794970D01*
X472492Y794970D01*
X425549Y794970D02*
X415344Y784765D01*
X472492Y794970D02*
X473500Y795000D01*
X415344Y784765D02*
X415000Y784000D01*
X415344Y751088D02*
X415344Y634751D01*
X415344Y751088D02*
X432692Y768437D01*
X432692Y794970D01*
X415344Y634751D02*
X415000Y634000D01*
X412282Y913348D02*
X373503Y913348D01*
X371462Y911307D01*
X412282Y913348D02*
X412500Y914000D01*
X371462Y911307D02*
X371400Y910400D01*
X425549Y899061D02*
X425549Y842933D01*
X425549Y899061D02*
X412282Y912327D01*
X425549Y842933D02*
X426000Y842500D01*
X412282Y912327D02*
X412500Y914000D01*
X122460Y685776D02*
X116337Y685776D01*
X64292Y737822D01*
X55107Y737822D01*
X54597Y738332D02*
X45923Y747006D01*
X54597Y738332D02*
X55107Y737822D01*
X45923Y747006D02*
X45923Y757211D01*
X65822Y777111D02*
X73476Y784765D01*
X65822Y777111D02*
X45923Y757211D01*
X73476Y784765D02*
X122460Y784765D01*
X122460Y685776D02*
X122500Y685500D01*
X122460Y784765D02*
X122500Y785500D01*
X122460Y887835D02*
X74497Y887835D01*
X45923Y859261D01*
X45923Y797011D01*
X65822Y777111D01*
X122460Y887835D02*
X122500Y888000D01*
X336765Y911307D02*
X370442Y911307D01*
X336765Y911307D02*
X302068Y946004D01*
X208182Y946004D01*
X151034Y888856D01*
X123481Y888856D01*
X370442Y911307D02*
X371400Y910400D01*
X123481Y888856D02*
X122500Y888000D01*
X339827Y651079D02*
X373503Y651079D01*
X339827Y651079D02*
X305130Y685776D01*
X123481Y685776D01*
X373503Y651079D02*
X373900Y650400D01*
X123481Y685776D02*
X122500Y685500D01*
X324519Y322478D02*
X324519Y278597D01*
X326560Y276556D01*
X324519Y322478D02*
X323500Y322500D01*
X326560Y276556D02*
X327500Y276500D01*
X355134Y354114D02*
X370442Y354114D01*
X355134Y354114D02*
X324519Y323499D01*
X370442Y354114D02*
X371250Y354750D01*
X324519Y323499D02*
X323500Y322500D01*
X371462Y413303D02*
X379626Y413303D01*
X382688Y416364D01*
X382688Y422487D01*
X361257Y443918D01*
X320437Y443918D01*
X371250Y413250D02*
X371462Y413303D01*
X320437Y443918D02*
X320000Y444000D01*
X293904Y418405D02*
X252064Y418405D01*
X294414Y418915D02*
X319417Y443918D01*
X294414Y418915D02*
X293904Y418405D01*
X252064Y418405D02*
X251125Y418250D01*
X319417Y443918D02*
X320000Y444000D01*
X306150Y344929D02*
X325540Y325540D01*
X306150Y344929D02*
X306150Y407180D01*
X294414Y418915D01*
X325540Y325540D02*
X323500Y322500D01*
X146952Y40820D02*
X131645Y40820D01*
X113276Y40820D01*
X146952Y40820D02*
X148993Y38779D01*
X113276Y40820D02*
X112500Y41000D01*
X148993Y38779D02*
X150000Y38500D01*
X169403Y58169D02*
X174506Y58169D01*
X169403Y58169D02*
X150014Y38779D01*
X174506Y58169D02*
X175500Y59000D01*
X150014Y38779D02*
X150000Y38500D01*
X204100Y83681D02*
X220428Y83681D01*
X204100Y83681D02*
X189813Y69394D01*
X185731Y69394D01*
X175526Y59189D01*
X220428Y83681D02*
X220500Y84000D01*
X175526Y59189D02*
X175500Y59000D01*
X148993Y208182D02*
X131645Y208182D01*
X115317Y208182D01*
X115000Y208500D01*
X148993Y208182D02*
X150000Y208500D01*
X154096Y213285D02*
X172465Y213285D01*
X154096Y213285D02*
X150014Y209203D01*
X172465Y213285D02*
X173000Y214000D01*
X150014Y209203D02*
X150000Y208500D01*
X214305Y251043D02*
X220428Y251043D01*
X199508Y236246D02*
X187772Y224510D01*
X199508Y236246D02*
X214305Y251043D01*
X187772Y224510D02*
X183690Y224510D01*
X173485Y214305D01*
X220428Y251043D02*
X220500Y251500D01*
X173485Y214305D02*
X173000Y214000D01*
X136747Y105112D02*
X128583Y105112D01*
X115317Y105112D01*
X136747Y105112D02*
X144911Y96948D01*
X115317Y105112D02*
X115000Y106000D01*
X144911Y96948D02*
X145000Y96000D01*
X148993Y158178D02*
X131645Y158178D01*
X128583Y158178D01*
X115317Y158178D01*
X115000Y158500D01*
X148993Y158178D02*
X150000Y158500D01*
X187772Y154096D02*
X220428Y154096D01*
X187772Y154096D02*
X182670Y159198D01*
X150014Y159198D01*
X220428Y154096D02*
X220500Y154000D01*
X150000Y158500D02*
X150014Y159198D01*
X128583Y158178D02*
X128583Y105112D01*
X131645Y158178D02*
X131645Y208182D01*
X131645Y82661D02*
X131645Y40820D01*
X131645Y82661D02*
X144911Y95927D01*
X145000Y96000D01*
X146952Y361257D02*
X131645Y361257D01*
X115317Y361257D01*
X115000Y361000D01*
X146952Y361257D02*
X147500Y361000D01*
X147973Y361257D02*
X167362Y361257D01*
X168000Y361500D01*
X147973Y361257D02*
X147500Y361000D01*
X148993Y261248D02*
X131645Y261248D01*
X115317Y261248D01*
X115000Y261000D01*
X148993Y261248D02*
X150000Y261000D01*
X148993Y311253D02*
X131645Y311253D01*
X115317Y311253D01*
X115000Y311000D01*
X148993Y311253D02*
X150000Y311000D01*
X163280Y296966D02*
X172465Y296966D01*
X163280Y296966D02*
X150014Y310232D01*
X172465Y296966D02*
X173000Y296500D01*
X150014Y310232D02*
X150000Y311000D01*
X131645Y311253D02*
X131645Y261248D01*
X131645Y311253D02*
X131645Y361257D01*
X71435Y462287D02*
X71435Y469430D01*
X71435Y462287D02*
X128583Y405139D01*
X128583Y389831D01*
X125522Y386770D01*
X108173Y386770D01*
X105112Y383708D01*
X105112Y372483D01*
X115317Y362278D01*
X71435Y469430D02*
X70800Y470300D01*
X115317Y362278D02*
X115000Y361000D01*
X174506Y261248D02*
X199508Y236246D01*
X174506Y261248D02*
X151034Y261248D01*
X150000Y261000D01*
X238797Y417385D02*
X251043Y417385D01*
X238797Y417385D02*
X224510Y403098D01*
X214305Y403098D01*
X183690Y372483D01*
X178588Y372483D01*
X168383Y362278D01*
X251043Y417385D02*
X251125Y418250D01*
X168383Y362278D02*
X168000Y361500D01*
X54087Y714350D02*
X54087Y737822D01*
X54087Y714350D02*
X40820Y701084D01*
X40820Y500045D01*
X70415Y470451D01*
X54087Y737822D02*
X54597Y738332D01*
X70415Y470451D02*
X70800Y470300D01*
X380647Y355134D02*
X393913Y368401D01*
X380647Y355134D02*
X371462Y355134D01*
X371250Y354750D01*
D42*
X542906Y368401D03*
X393913Y368401D03*
D43*
X681694Y200018D02*
X706186Y200018D01*
X681694Y200018D02*
X681500Y200000D01*
X706186Y200018D02*
X707000Y200000D01*
X642915Y55107D02*
X615362Y55107D01*
X642915Y55107D02*
X643500Y55000D01*
X615362Y55107D02*
X614900Y55000D01*
X255125Y883753D02*
X170424Y883753D01*
X255125Y883753D02*
X256146Y884774D01*
X170424Y883753D02*
X170000Y883500D01*
X256146Y884774D02*
X257100Y885000D01*
X92866Y854159D02*
X71435Y854159D01*
X92866Y854159D02*
X117358Y878651D01*
X165321Y878651D01*
X169403Y882733D01*
X71435Y854159D02*
X70800Y853700D01*
X169403Y882733D02*
X170000Y883500D01*
X612300Y816400D02*
X612300Y783744D01*
X612300Y773539D01*
X613054Y772652D01*
X379626Y381667D02*
X371462Y381667D01*
X379626Y381667D02*
X431672Y433713D01*
X431672Y478615D01*
X640874Y774560D02*
X646997Y774560D01*
X640874Y774560D02*
X631690Y783744D01*
X612300Y783744D01*
X371462Y381667D02*
X371250Y380750D01*
D42*
X612300Y816400D03*
X431672Y478615D03*
X646997Y774560D03*
D43*
X146952Y379626D02*
X139809Y379626D01*
X115317Y379626D01*
X115000Y379000D01*
X146952Y379626D02*
X147500Y379000D01*
X139809Y379626D02*
X139809Y396975D01*
X139000Y397500D01*
X515353Y732719D02*
X552091Y732719D01*
X206141Y423508D02*
X206141Y412282D01*
X177567Y383708D01*
X552091Y732719D02*
X552348Y733054D01*
X177567Y383708D02*
X177500Y383500D01*
X173485Y379626D02*
X147973Y379626D01*
X173485Y379626D02*
X176547Y382688D01*
X147973Y379626D02*
X147500Y379000D01*
X176547Y382688D02*
X177500Y383500D01*
D42*
X515353Y732719D03*
X206141Y423508D03*
D43*
X240838Y738842D02*
X170424Y738842D01*
X240838Y738842D02*
X256146Y754150D01*
X170424Y738842D02*
X170000Y738500D01*
X256146Y754150D02*
X257100Y755000D01*
X92866Y752109D02*
X71435Y752109D01*
X92866Y752109D02*
X115317Y774560D01*
X133686Y774560D01*
X169403Y738842D01*
X71435Y752109D02*
X70800Y752100D01*
X169403Y738842D02*
X170000Y738500D01*
X592911Y675571D02*
X592911Y672510D01*
X592911Y675571D02*
X595972Y678633D01*
X595972Y698022D01*
X582706Y711289D01*
X570460Y711289D01*
X389831Y419426D02*
X389831Y411262D01*
X379626Y401057D01*
X371462Y401057D01*
X591946Y672348D02*
X592911Y672510D01*
X371462Y401057D02*
X371250Y400250D01*
D42*
X570460Y711289D03*
X389831Y419426D03*
D43*
X613321Y671489D02*
X616382Y671489D01*
X725576Y562296D01*
X733740Y562296D01*
X740883Y555152D01*
X740883Y469430D01*
X734760Y463307D01*
X532701Y463307D01*
X510250Y485758D01*
X293904Y485758D01*
X226551Y418405D01*
X613321Y671489D02*
X613054Y672348D01*
X226551Y418405D02*
X225725Y418250D01*
X618423Y678633D02*
X618423Y680674D01*
X600054Y699043D01*
X600054Y700063D01*
X579644Y720473D01*
X557193Y720473D01*
X556173Y721494D01*
X524537Y721494D01*
X618423Y678633D02*
X618711Y678005D01*
D42*
X524537Y721494D03*
D43*
X195936Y582706D02*
X125522Y582706D01*
X195936Y582706D02*
X214305Y564337D01*
X338806Y564337D01*
X373503Y599034D01*
X125522Y582706D02*
X125000Y583500D01*
X373503Y599034D02*
X373900Y599600D01*
X389831Y615362D02*
X414323Y615362D01*
X389831Y615362D02*
X374524Y600054D01*
X414323Y615362D02*
X415000Y616000D01*
X374524Y600054D02*
X373900Y599600D01*
X631690Y712309D02*
X652100Y732719D01*
X566378Y680674D02*
X558214Y680674D01*
X493922Y616382D01*
X415344Y616382D01*
X652100Y732719D02*
X652652Y733054D01*
X415344Y616382D02*
X415000Y616000D01*
D42*
X631690Y712309D03*
X566378Y680674D03*
D43*
X185731Y719453D02*
X146952Y719453D01*
X185731Y719453D02*
X211244Y693940D01*
X335745Y693940D01*
X370442Y728637D01*
X146952Y719453D02*
X146500Y720000D01*
X370442Y728637D02*
X371400Y729600D01*
X407180Y765375D02*
X414323Y765375D01*
X407180Y765375D02*
X371462Y729658D01*
X414323Y765375D02*
X415000Y766000D01*
X371462Y729658D02*
X371400Y729600D01*
X646997Y738842D02*
X656182Y748027D01*
X425549Y775580D02*
X415344Y765375D01*
X646997Y738842D02*
X646995Y738711D01*
X415344Y765375D02*
X415000Y766000D01*
D42*
X656182Y748027D03*
X425549Y775580D03*
D43*
X732719Y871507D02*
X791908Y871507D01*
X797011Y876610D01*
X732719Y871507D02*
X732500Y871500D01*
X797011Y876610D02*
X797500Y877500D01*
X561275Y737822D02*
X558214Y737822D01*
X561275Y737822D02*
X574542Y724555D01*
X586788Y724555D01*
X602095Y739863D01*
X602095Y816400D01*
X653120Y867425D01*
X728637Y867425D01*
X731699Y870487D01*
X558005Y738711D02*
X558214Y737822D01*
X731699Y870487D02*
X732500Y871500D01*
X592911Y851097D02*
X592911Y773539D01*
X592911Y851097D02*
X607198Y865384D01*
X592911Y773539D02*
X591946Y772652D01*
X663325Y253084D02*
X481676Y253084D01*
X360237Y377585D02*
X357175Y377585D01*
X360237Y377585D02*
X363298Y374524D01*
X370442Y374524D01*
X663325Y253084D02*
X663500Y252500D01*
X371250Y374250D02*
X370442Y374524D01*
X592911Y769457D02*
X592911Y772519D01*
X592911Y769457D02*
X595972Y766396D01*
X595972Y743945D01*
X583726Y731699D01*
X591946Y772652D02*
X592911Y772519D01*
D42*
X607198Y865384D03*
X481676Y253084D03*
X357175Y377585D03*
X583726Y731699D03*
D43*
X619444Y767416D02*
X628628Y776601D01*
X619444Y767416D02*
X618711Y766995D01*
X379626Y387790D02*
X371462Y387790D01*
X379626Y387790D02*
X413303Y421467D01*
X413303Y478615D01*
X371462Y387790D02*
X371250Y387250D01*
D42*
X628628Y776601D03*
X413303Y478615D03*
D43*
X342888Y381667D02*
X317376Y381667D01*
X342888Y381667D02*
X356155Y368401D01*
X370442Y368401D01*
X317376Y381667D02*
X316500Y382500D01*
X370442Y368401D02*
X371250Y367750D01*
X624546Y762314D02*
X627608Y762314D01*
X630669Y765375D01*
X655161Y765375D01*
X670469Y750068D01*
X670469Y708227D01*
X384729Y373503D02*
X379626Y368401D01*
X371462Y368401D01*
X624368Y761339D02*
X624546Y762314D01*
X371462Y368401D02*
X371250Y367750D01*
D42*
X670469Y708227D03*
X384729Y373503D03*
D43*
X160219Y806195D02*
X141850Y824564D01*
X160219Y806195D02*
X202059Y806195D01*
X220428Y824564D01*
X335745Y824564D01*
X370442Y859261D01*
X141850Y824564D02*
X141500Y825000D01*
X370442Y859261D02*
X371400Y859600D01*
X407180Y895999D02*
X412282Y895999D01*
X407180Y895999D02*
X371462Y860282D01*
X412282Y895999D02*
X412500Y896000D01*
X371462Y860282D02*
X371400Y859600D01*
X638833Y743945D02*
X640874Y743945D01*
X638833Y743945D02*
X633731Y738842D01*
X628628Y738842D01*
X564337Y781703D02*
X531681Y781703D01*
X481676Y831708D01*
X417385Y831708D01*
X380647Y868446D01*
X640874Y743945D02*
X641339Y744368D01*
X380647Y868446D02*
X371400Y859600D01*
D42*
X628628Y738842D03*
X564337Y781703D03*
D43*
X732719Y622505D02*
X792929Y622505D01*
X797011Y626587D01*
X732719Y622505D02*
X732500Y621500D01*
X797011Y626587D02*
X797500Y627500D01*
X637813Y750068D02*
X635772Y750068D01*
X637813Y750068D02*
X642915Y755170D01*
X659243Y755170D01*
X663325Y751088D01*
X663325Y705166D01*
X732719Y635772D01*
X732719Y623526D01*
X635772Y750068D02*
X635682Y750025D01*
X732719Y623526D02*
X732500Y621500D01*
X732719Y747006D02*
X791908Y747006D01*
X797011Y752109D01*
X732719Y747006D02*
X732500Y746500D01*
X797011Y752109D02*
X797500Y752500D01*
X629649Y755170D02*
X620464Y745986D01*
X629649Y755170D02*
X630025Y755682D01*
D42*
X620464Y745986D03*
D43*
X114296Y278597D02*
X97968Y262269D01*
X533722Y702104D02*
X553111Y702104D01*
X557193Y706186D01*
X115000Y279000D02*
X114296Y278597D01*
X557193Y706186D02*
X558005Y706289D01*
D42*
X97968Y262269D03*
X533722Y702104D03*
D43*
X114296Y329622D02*
X106132Y337786D01*
X105112Y337786D01*
X483717Y711289D02*
X552091Y711289D01*
X115000Y329000D02*
X114296Y329622D01*
X552091Y711289D02*
X552348Y711946D01*
D42*
X105112Y337786D03*
X483717Y711289D03*
D43*
X251043Y616382D02*
X175526Y616382D01*
X251043Y616382D02*
X259207Y624546D01*
X175526Y616382D02*
X175000Y616000D01*
X259207Y624546D02*
X259600Y625000D01*
X71435Y639854D02*
X71435Y650059D01*
X71435Y639854D02*
X117358Y593931D01*
X153075Y593931D01*
X174506Y615362D01*
X71435Y650059D02*
X70800Y650500D01*
X174506Y615362D02*
X175000Y616000D01*
X732719Y603116D02*
X797011Y603116D01*
X732719Y603116D02*
X732500Y603500D01*
X797011Y603116D02*
X797500Y602500D01*
X797011Y727617D02*
X732719Y727617D01*
X732500Y728500D01*
X797011Y727617D02*
X797500Y727500D01*
X797011Y853138D02*
X732719Y853138D01*
X732500Y853500D01*
X797011Y853138D02*
X797500Y852500D01*
X560255Y903143D02*
X514332Y903143D01*
X560255Y903143D02*
X584747Y927635D01*
X722514Y927635D01*
X514332Y903143D02*
X514000Y902500D01*
X731699Y732719D02*
X731699Y728637D01*
X731699Y732719D02*
X722514Y741904D01*
X722514Y841913D01*
X732719Y852118D01*
X731699Y728637D02*
X732500Y728500D01*
X732719Y852118D02*
X732500Y853500D01*
X602095Y431672D02*
X566378Y431672D01*
X558214Y439836D01*
X493922Y439836D02*
X490861Y439836D01*
X493922Y439836D02*
X558214Y439836D01*
X490861Y439836D02*
X452082Y401057D01*
X443918Y401057D01*
X602095Y431672D02*
X602500Y431500D01*
X443918Y401057D02*
X443750Y400250D01*
X443918Y420446D02*
X443918Y425549D01*
X478615Y460246D01*
X478615Y479635D01*
X480656Y481676D01*
X491881Y481676D01*
X493922Y479635D01*
X493922Y439836D01*
X443918Y420446D02*
X443750Y419750D01*
X663325Y198998D02*
X663325Y179608D01*
X598013Y114296D01*
X663325Y198998D02*
X663500Y200000D01*
X598013Y114296D02*
X597500Y113500D01*
X442897Y335745D02*
X435754Y335745D01*
X432692Y338806D01*
X432692Y358196D01*
X433202Y358706D02*
X434733Y360237D01*
X433202Y358706D02*
X432692Y358196D01*
X434733Y360237D02*
X442897Y360237D01*
X442897Y335745D02*
X443750Y335250D01*
X442897Y360237D02*
X443750Y361250D01*
X443918Y362278D02*
X443918Y367380D01*
X443750Y367750D01*
X443918Y362278D02*
X443750Y361250D01*
X456164Y198998D02*
X456164Y166342D01*
X456164Y198998D02*
X470451Y213285D01*
X470451Y251043D02*
X470451Y320437D01*
X470451Y251043D02*
X470451Y239818D01*
X470451Y213285D01*
X470451Y320437D02*
X456164Y334724D01*
X443918Y334724D01*
X456164Y166342D02*
X455482Y165412D01*
X443918Y334724D02*
X443750Y335250D01*
X633731Y198998D02*
X662305Y198998D01*
X633731Y198998D02*
X592911Y239818D01*
X470451Y239818D01*
X662305Y198998D02*
X663500Y200000D01*
X442897Y400036D02*
X435754Y400036D01*
X432692Y396975D01*
X432692Y359216D01*
X442897Y400036D02*
X443750Y400250D01*
X432692Y359216D02*
X433202Y358706D01*
X299007Y350032D02*
X299007Y381667D01*
X299007Y350032D02*
X298500Y350000D01*
X299007Y381667D02*
X298500Y382500D01*
X297986Y382688D02*
X235736Y382688D01*
X226551Y391872D01*
X297986Y382688D02*
X298500Y382500D01*
X226551Y391872D02*
X225725Y392850D01*
X226551Y354114D02*
X226551Y342888D01*
X226551Y354114D02*
X235736Y363298D01*
X235736Y382688D01*
X226551Y342888D02*
X225725Y342050D01*
X292884Y135727D02*
X331663Y135727D01*
X292884Y135727D02*
X279617Y148993D01*
X279617Y251043D02*
X279617Y330642D01*
X279617Y251043D02*
X279617Y148993D01*
X279617Y330642D02*
X297986Y349011D01*
X331663Y135727D02*
X332500Y135000D01*
X297986Y349011D02*
X298500Y350000D01*
X279617Y251043D02*
X470451Y251043D01*
X798031Y454123D02*
X798031Y602095D01*
X798031Y454123D02*
X818441Y433713D01*
X818441Y425549D01*
X807216Y414323D01*
X789867Y414323D01*
X760273Y384729D01*
X675571Y384729D01*
X663325Y396975D01*
X636792Y396975D01*
X603116Y430651D01*
X797500Y602500D02*
X798031Y602095D01*
X602500Y431500D02*
X603116Y430651D01*
D42*
X722514Y927635D03*
D43*
X517394Y472492D02*
X504127Y472492D01*
X517394Y472492D02*
X534742Y455143D01*
X782724Y455143D01*
X808236Y429631D01*
X504127Y472492D02*
X504000Y472500D01*
X808236Y429631D02*
X808400Y429450D01*
X471471Y463307D02*
X462287Y472492D01*
X461500Y472500D01*
D42*
X471471Y463307D03*
D43*
X370442Y419426D02*
X323499Y419426D01*
X320437Y416364D01*
X370442Y419426D02*
X371250Y419750D01*
X320437Y416364D02*
X320000Y416000D01*
X317376Y350032D02*
X344929Y350032D01*
X355134Y360237D01*
X370442Y360237D01*
X317376Y350032D02*
X316500Y350000D01*
X370442Y360237D02*
X371250Y361250D01*
X359216Y323499D02*
X341868Y323499D01*
X359216Y323499D02*
X370442Y334724D01*
X341868Y323499D02*
X341500Y322500D01*
X370442Y334724D02*
X371250Y335250D01*
X504127Y393913D02*
X504127Y412282D01*
X504127Y393913D02*
X504127Y368401D01*
X504127Y412282D02*
X511271Y419426D01*
X504127Y368401D02*
X503500Y367500D01*
X511271Y419426D02*
X511500Y420000D01*
X504127Y393913D02*
X443918Y393913D01*
X443750Y393750D01*
X498004Y340847D02*
X503107Y340847D01*
X498004Y340847D02*
X452082Y386770D01*
X443918Y386770D01*
X503107Y340847D02*
X503500Y340000D01*
X443918Y386770D02*
X443750Y387250D01*
X548009Y409221D02*
X548009Y419426D01*
X548009Y409221D02*
X511271Y372483D01*
X511271Y350032D01*
X503107Y341868D01*
X548009Y419426D02*
X548500Y420000D01*
X503107Y341868D02*
X503500Y340000D01*
X603116Y376565D02*
X603116Y413303D01*
X603116Y376565D02*
X602500Y376500D01*
X603116Y413303D02*
X602500Y413500D01*
X522496Y326560D02*
X522496Y315335D01*
X522496Y326560D02*
X550050Y354114D01*
X550050Y366360D01*
X559234Y375544D01*
X522496Y315335D02*
X521500Y315000D01*
X559234Y375544D02*
X560000Y376500D01*
X560255Y376565D02*
X602095Y376565D01*
X602500Y376500D01*
X560255Y376565D02*
X560000Y376500D01*
X631690Y357175D02*
X663325Y357175D01*
X631690Y357175D02*
X612300Y376565D01*
X604136Y376565D01*
X663325Y357175D02*
X664300Y356800D01*
X604136Y376565D02*
X602500Y376500D01*
X543927Y287781D02*
X522496Y287781D01*
X543927Y287781D02*
X559234Y303089D01*
X522496Y287781D02*
X521500Y287500D01*
X559234Y303089D02*
X560000Y303500D01*
X560255Y304109D02*
X602095Y304109D01*
X602500Y303500D01*
X560255Y304109D02*
X560000Y303500D01*
X688838Y361257D02*
X688838Y369421D01*
X688838Y361257D02*
X669448Y341868D01*
X660264Y341868D01*
X652100Y333704D01*
X652100Y325540D01*
X630669Y304109D01*
X603116Y304109D01*
X688838Y369421D02*
X689700Y369600D01*
X603116Y304109D02*
X602500Y303500D01*
X603116Y358196D02*
X624546Y358196D01*
X635772Y346970D01*
X668428Y346970D01*
X679653Y358196D01*
X679653Y373503D01*
X685776Y379626D01*
X693940Y379626D01*
X700063Y373503D01*
X700063Y329622D01*
X689858Y319417D01*
X603116Y358196D02*
X602500Y358500D01*
X689858Y319417D02*
X689700Y318800D01*
X457184Y347991D02*
X443918Y347991D01*
X443750Y348250D01*
D42*
X457184Y347991D03*
D43*
X559234Y337786D02*
X559234Y358196D01*
X559234Y337786D02*
X526578Y305130D01*
X516373Y305130D01*
X514842Y306660D02*
X511271Y310232D01*
X514842Y306660D02*
X516373Y305130D01*
X511271Y310232D02*
X511271Y322478D01*
X507189Y326560D01*
X470451Y326560D01*
X456164Y340847D01*
X443918Y340847D01*
X559234Y358196D02*
X560000Y358500D01*
X443918Y340847D02*
X443750Y341750D01*
X610259Y277576D02*
X663325Y330642D01*
X610259Y277576D02*
X516373Y277576D01*
X514332Y279617D01*
X514332Y306150D01*
X663325Y330642D02*
X664300Y331400D01*
X514842Y306660D02*
X514332Y306150D01*
X603116Y321458D02*
X616382Y321458D01*
X603116Y321458D02*
X602500Y321500D01*
X416364Y347991D02*
X371462Y347991D01*
X416364Y347991D02*
X440856Y323499D01*
X457184Y323499D01*
X371462Y347991D02*
X371250Y348250D01*
D42*
X616382Y321458D03*
X457184Y323499D03*
D43*
X560255Y322478D02*
X588829Y322478D01*
X594952Y328601D01*
X644956Y328601D01*
X560255Y322478D02*
X560000Y321500D01*
X417385Y340847D02*
X371462Y340847D01*
X417385Y340847D02*
X442897Y315335D01*
X463307Y315335D01*
X371462Y340847D02*
X371250Y341750D01*
D42*
X644956Y328601D03*
X463307Y315335D03*
D43*
X485758Y446979D02*
X485758Y472492D01*
X485758Y446979D02*
X452082Y413303D01*
X443918Y413303D01*
X485758Y472492D02*
X486000Y472500D01*
X443918Y413303D02*
X443750Y413250D01*
X442897Y433713D02*
X442897Y472492D01*
X442897Y433713D02*
X432692Y423508D01*
X432692Y410241D01*
X435754Y407180D01*
X442897Y407180D01*
X442897Y472492D02*
X443500Y472500D01*
X442897Y407180D02*
X443750Y406750D01*
X491881Y753129D02*
X536783Y753129D01*
X554132Y770478D01*
X560255Y770478D01*
X574542Y756191D01*
X491881Y753129D02*
X491500Y752500D01*
X574542Y756191D02*
X574975Y755682D01*
X543927Y805175D02*
X541886Y805175D01*
X543927Y805175D02*
X553111Y814359D01*
X564337Y814359D01*
X566378Y812318D01*
X566378Y798031D01*
X559234Y790888D01*
X533722Y790888D01*
X524537Y800072D01*
X524537Y839872D01*
X541000Y805000D02*
X541886Y805175D01*
X524537Y839872D02*
X524000Y840000D01*
X584747Y699043D02*
X575562Y689858D01*
X574975Y689318D01*
X815380Y239818D02*
X815380Y210223D01*
X815380Y239818D02*
X826605Y251043D01*
X826605Y621485D01*
X807216Y640874D01*
X785785Y640874D01*
X654141Y772519D01*
X654141Y777621D01*
X640874Y790888D01*
X621485Y790888D01*
X815380Y210223D02*
X814946Y209894D01*
X555152Y839872D02*
X525558Y839872D01*
X555152Y839872D02*
X591890Y876610D01*
X639854Y876610D01*
X650059Y886815D01*
X525558Y839872D02*
X524000Y840000D01*
X650059Y886815D02*
X650400Y887300D01*
D42*
X584747Y699043D03*
X621485Y790888D03*
D43*
X681694Y253084D02*
X706186Y253084D01*
X681694Y253084D02*
X681500Y252500D01*
X706186Y253084D02*
X707000Y252500D01*
X585767Y674551D02*
X585767Y677612D01*
X585767Y674551D02*
X581685Y670469D01*
X581685Y639854D01*
X721494Y500045D01*
X586289Y678005D02*
X585767Y677612D01*
X721494Y500045D02*
X722500Y499800D01*
X114296Y176547D02*
X112255Y176547D01*
X104091Y184711D01*
X450041Y627608D02*
X476574Y627608D01*
X485758Y636792D01*
X115000Y176500D02*
X114296Y176547D01*
X485758Y636792D02*
X486500Y637500D01*
X566378Y694961D02*
X568419Y694961D01*
X566378Y694961D02*
X509230Y637813D01*
X486779Y637813D01*
X568419Y694961D02*
X569318Y694975D01*
X486779Y637813D02*
X486500Y637500D01*
D42*
X104091Y184711D03*
X450041Y627608D03*
D43*
X137768Y226551D02*
X115317Y226551D01*
X484738Y679653D02*
X484738Y690879D01*
X485758Y691899D01*
X115317Y226551D02*
X115000Y226500D01*
X485758Y691899D02*
X486500Y692500D01*
X560255Y700063D02*
X563316Y700063D01*
X560255Y700063D02*
X553111Y692920D01*
X486779Y692920D01*
X563316Y700063D02*
X563661Y700632D01*
X486779Y692920D02*
X486500Y692500D01*
D42*
X137768Y226551D03*
X484738Y679653D03*
D43*
X653120Y709248D02*
X653120Y711289D01*
X653120Y709248D02*
X675571Y686797D01*
X675571Y671489D01*
X653120Y711289D02*
X652652Y711946D01*
X675571Y671489D02*
X676301Y670669D01*
X658223Y694961D02*
X646997Y706186D01*
X658223Y694961D02*
X658223Y654141D01*
X646997Y706186D02*
X646995Y706289D01*
X658223Y654141D02*
X659331Y653699D01*
X558214Y804154D02*
X555152Y804154D01*
X545968Y794970D01*
X535763Y794970D01*
X533722Y797011D01*
X533722Y812318D01*
X593931Y872528D01*
X677612Y872528D01*
X679653Y874569D01*
X559000Y805000D02*
X558214Y804154D01*
D42*
X679653Y874569D03*
D43*
X579644Y682715D02*
X579644Y679653D01*
X576583Y676592D01*
X576583Y619444D01*
X721494Y474533D01*
X579644Y682715D02*
X580632Y683661D01*
X721494Y474533D02*
X722500Y474400D01*
X114296Y123481D02*
X110214Y123481D01*
X87763Y101030D01*
X54087Y101030D01*
X45923Y109194D01*
X45923Y170424D01*
X77558Y202059D01*
X86743Y202059D01*
X105112Y220428D01*
X105112Y237777D01*
X584747Y748027D02*
X584747Y757211D01*
X580665Y761293D01*
X115000Y124000D02*
X114296Y123481D01*
X580665Y761293D02*
X580632Y761339D01*
D42*
X105112Y237777D03*
X584747Y748027D03*
D43*
X112255Y59189D02*
X110214Y59189D01*
X102050Y67353D01*
X551070Y749047D02*
X559234Y749047D01*
X563316Y744965D01*
X112255Y59189D02*
X112500Y59000D01*
X563661Y744368D02*
X563316Y744965D01*
D42*
X102050Y67353D03*
X551070Y749047D03*
D43*
X489840Y217367D02*
X489840Y166342D01*
X489840Y217367D02*
X491881Y219408D01*
X489840Y166342D02*
X489518Y165412D01*
X491881Y219408D02*
X492000Y220000D01*
X488820Y165321D02*
X488820Y161239D01*
X474533Y146952D01*
X388811Y146952D01*
X363298Y121440D01*
X363298Y80620D01*
X332683Y50005D01*
X488820Y165321D02*
X489518Y165412D01*
X332683Y50005D02*
X332500Y50000D01*
X686797Y55107D02*
X739863Y55107D01*
X742924Y58169D01*
X805175Y58169D01*
X819462Y43882D01*
X686797Y55107D02*
X686500Y55000D01*
X819462Y43882D02*
X820000Y43000D01*
X469430Y637813D02*
X469430Y691899D01*
X469430Y637813D02*
X468500Y637500D01*
X469430Y691899D02*
X468500Y692500D01*
X508209Y794970D02*
X512291Y794970D01*
X508209Y794970D02*
X491881Y794970D01*
X512291Y794970D02*
X532701Y774560D01*
X578624Y774560D01*
X585767Y767416D01*
X491881Y794970D02*
X491500Y795000D01*
X585767Y767416D02*
X586289Y766995D01*
X468410Y742924D02*
X468410Y692920D01*
X468410Y742924D02*
X466369Y744965D01*
X466369Y770478D01*
X490861Y794970D01*
X468410Y692920D02*
X468500Y692500D01*
X490861Y794970D02*
X491500Y795000D01*
X505148Y840892D02*
X505148Y868446D01*
X504637Y868956D02*
X471471Y902122D01*
X504637Y868956D02*
X505148Y868446D01*
X505148Y840892D02*
X506000Y840000D01*
X471471Y902122D02*
X471000Y902500D01*
X630669Y688838D02*
X632710Y688838D01*
X636792Y684756D01*
X638833Y684756D01*
X645977Y691899D01*
X645977Y695981D01*
X641895Y700063D01*
X630669Y688838D02*
X630025Y689318D01*
X641339Y700632D02*
X641895Y700063D01*
X645977Y691899D02*
X650059Y691899D01*
X672510Y881712D02*
X672510Y906204D01*
X655161Y923553D01*
X610259Y923553D01*
X600054Y913348D01*
X599600Y912700D01*
X532701Y869466D02*
X505148Y869466D01*
X532701Y869466D02*
X575562Y912327D01*
X599034Y912327D01*
X505148Y869466D02*
X504637Y868956D01*
X599034Y912327D02*
X599600Y912700D01*
D42*
X650059Y691899D03*
X672510Y881712D03*
X508209Y794970D03*
D43*
X123481Y664346D02*
X123481Y603116D01*
X124501Y602095D01*
X123481Y664346D02*
X122500Y664500D01*
X124501Y602095D02*
X125000Y601500D01*
X123481Y825585D02*
X123481Y866405D01*
X122500Y867000D01*
X123481Y825585D02*
X123500Y825000D01*
X123481Y764355D02*
X123481Y724555D01*
X127563Y720473D01*
X123481Y764355D02*
X122500Y764500D01*
X127563Y720473D02*
X128500Y720000D01*
X728637Y253084D02*
X813339Y253084D01*
X814359Y254105D01*
X728637Y253084D02*
X728000Y252500D01*
X814359Y254105D02*
X814946Y255106D01*
X623526Y683735D02*
X623526Y686797D01*
X620464Y689858D01*
X620464Y693940D01*
X625056Y698532D02*
X625567Y699043D01*
X625056Y698532D02*
X620464Y693940D01*
X625567Y699043D02*
X631690Y699043D01*
X634751Y695981D01*
X624368Y683661D02*
X623526Y683735D01*
X635682Y694975D02*
X634751Y695981D01*
X681694Y646997D02*
X681694Y640874D01*
X681184Y640364D02*
X675571Y634751D01*
X681184Y640364D02*
X681694Y640874D01*
X675571Y634751D02*
X670469Y634751D01*
X624546Y680674D01*
X624546Y682715D01*
X675000Y655000D02*
X681694Y646997D01*
X624546Y682715D02*
X624368Y683661D01*
X476574Y752109D02*
X473512Y752109D01*
X476574Y752109D02*
X485758Y742924D01*
X534742Y742924D01*
X548009Y756191D01*
X557193Y756191D02*
X562296Y756191D01*
X557193Y756191D02*
X548009Y756191D01*
X562296Y756191D02*
X568419Y750068D01*
X473512Y752109D02*
X473500Y752500D01*
X568419Y750068D02*
X569318Y750025D01*
X488820Y841913D02*
X469430Y841913D01*
X488820Y841913D02*
X500045Y830687D01*
X511271Y830687D01*
X516373Y835790D01*
X516373Y847015D01*
X570460Y901102D01*
X638833Y901102D01*
X650059Y912327D01*
X469430Y841913D02*
X469000Y842500D01*
X650059Y912327D02*
X650400Y912700D01*
X557193Y763334D02*
X557193Y756191D01*
X624546Y730678D02*
X624546Y699043D01*
X624546Y730678D02*
X609239Y745986D01*
X624546Y699043D02*
X625056Y698532D01*
X815380Y289822D02*
X815380Y255125D01*
X815380Y289822D02*
X822523Y296966D01*
X822523Y601075D01*
X809257Y614341D01*
X707207Y614341D01*
X681184Y640364D01*
X814946Y255106D02*
X815380Y255125D01*
D42*
X557193Y763334D03*
X609239Y745986D03*
D43*
X120419Y396975D02*
X98989Y396975D01*
X71435Y369421D01*
X120419Y396975D02*
X121000Y397500D01*
X71435Y369421D02*
X70800Y368700D01*
X139809Y344929D02*
X139809Y338806D01*
X148993Y329622D01*
X139809Y344929D02*
X139000Y345000D01*
X148993Y329622D02*
X150000Y329000D01*
X159198Y319417D02*
X181649Y319417D01*
X159198Y319417D02*
X150014Y328601D01*
X181649Y319417D02*
X182500Y318500D01*
X150014Y328601D02*
X150000Y329000D01*
X120419Y344929D02*
X97968Y344929D01*
X71435Y318396D01*
X120419Y344929D02*
X121000Y345000D01*
X71435Y318396D02*
X70800Y317900D01*
X139809Y294925D02*
X139809Y288802D01*
X148993Y279617D01*
X139809Y294925D02*
X139000Y295000D01*
X148993Y279617D02*
X150000Y279000D01*
X154096Y274515D02*
X229613Y274515D01*
X154096Y274515D02*
X150014Y278597D01*
X229613Y274515D02*
X230000Y273500D01*
X150014Y278597D02*
X150000Y279000D01*
X120419Y294925D02*
X98989Y294925D01*
X71435Y267371D01*
X120419Y294925D02*
X121000Y295000D01*
X71435Y267371D02*
X70800Y267100D01*
X139809Y244920D02*
X139809Y235736D01*
X148993Y226551D01*
X139809Y244920D02*
X139000Y245000D01*
X148993Y226551D02*
X150000Y226500D01*
X159198Y235736D02*
X181649Y235736D01*
X159198Y235736D02*
X150014Y226551D01*
X181649Y235736D02*
X182500Y236000D01*
X150014Y226551D02*
X150000Y226500D01*
X120419Y244920D02*
X100009Y244920D01*
X71435Y216346D01*
X120419Y244920D02*
X121000Y245000D01*
X71435Y216346D02*
X70800Y216300D01*
X139809Y191854D02*
X139809Y185731D01*
X148993Y176547D01*
X139809Y191854D02*
X139000Y192500D01*
X148993Y176547D02*
X150000Y176500D01*
X150014Y176547D02*
X229613Y176547D01*
X230000Y176000D01*
X150014Y176547D02*
X150000Y176500D01*
X120419Y191854D02*
X96948Y191854D01*
X71435Y166342D01*
X120419Y191854D02*
X121000Y192500D01*
X71435Y166342D02*
X70800Y165500D01*
X139809Y141850D02*
X139809Y119399D01*
X144911Y114296D01*
X139809Y141850D02*
X139000Y142500D01*
X144911Y114296D02*
X145000Y114000D01*
X153075Y106132D02*
X229613Y106132D01*
X153075Y106132D02*
X145932Y113276D01*
X229613Y106132D02*
X230000Y106000D01*
X145932Y113276D02*
X145000Y114000D01*
X120419Y141850D02*
X97968Y141850D01*
X71435Y115317D01*
X120419Y141850D02*
X121000Y142500D01*
X71435Y115317D02*
X70800Y114700D01*
X139809Y74497D02*
X139809Y66333D01*
X148993Y57148D01*
X139809Y74497D02*
X139000Y75000D01*
X148993Y57148D02*
X150000Y56500D01*
X173485Y80620D02*
X184711Y80620D01*
X173485Y80620D02*
X150014Y57148D01*
X184711Y80620D02*
X185000Y81000D01*
X150014Y57148D02*
X150000Y56500D01*
X120419Y74497D02*
X81640Y74497D01*
X71435Y64292D01*
X120419Y74497D02*
X121000Y75000D01*
X71435Y64292D02*
X70800Y63900D01*
M02*
