G04 EAGLE Gerber RS-274X export*
G75*
%MOMM*%
%FSLAX34Y34*%
%LPD*%
%INBottom Copper*%
%IPPOS*%
%AMOC8*
5,1,8,0,0,1.08239X$1,22.5*%
G01*
%ADD10R,1.308000X1.308000*%
%ADD11C,1.308000*%
%ADD12C,2.095500*%
%ADD13C,2.100000*%
%ADD14C,1.524000*%
%ADD15C,0.127000*%
%ADD16C,0.101600*%
%ADD17P,1.649562X8X112.500000*%
%ADD18C,2.247900*%
%ADD19P,1.632244X8X22.500000*%
%ADD20C,0.254000*%
%ADD21C,0.756400*%
%ADD22C,0.203200*%


D10*
X251125Y418250D03*
X251125Y342050D03*
D11*
X251125Y392850D03*
X251125Y367450D03*
X225725Y367450D03*
X225725Y392850D03*
X225725Y418250D03*
X225725Y342050D03*
D12*
X81278Y904500D02*
X60323Y904500D01*
X60323Y853700D02*
X81278Y853700D01*
X81278Y650500D02*
X60323Y650500D01*
X60323Y802900D02*
X81278Y802900D01*
X81278Y752100D02*
X60323Y752100D01*
X60323Y701300D02*
X81278Y701300D01*
D13*
X722700Y285750D03*
X722700Y440650D03*
D11*
X808400Y429450D03*
X808400Y404050D03*
X808400Y322350D03*
X808400Y296950D03*
X664300Y407600D03*
X664300Y382200D03*
X664300Y356800D03*
X664300Y331400D03*
X689700Y395000D03*
X689700Y369600D03*
X689700Y344200D03*
X689700Y318800D03*
D14*
X714880Y550600D02*
X730120Y550600D01*
X730120Y525200D02*
X714880Y525200D01*
X714880Y499800D02*
X730120Y499800D01*
X730120Y474400D02*
X714880Y474400D01*
D15*
X222500Y73970D02*
X222500Y46030D01*
X219960Y46030D02*
X219960Y57460D01*
X211070Y48570D01*
X225040Y62540D02*
X233930Y71430D01*
X225040Y73970D02*
X225040Y62540D01*
X231390Y73971D02*
X231051Y74180D01*
X230707Y74381D01*
X230358Y74574D01*
X230005Y74758D01*
X229647Y74933D01*
X229285Y75100D01*
X228919Y75258D01*
X228549Y75407D01*
X228176Y75546D01*
X227799Y75677D01*
X227420Y75798D01*
X227037Y75911D01*
X226652Y76013D01*
X226265Y76107D01*
X225875Y76191D01*
X225484Y76265D01*
X225091Y76330D01*
X224696Y76385D01*
X224300Y76431D01*
X223903Y76467D01*
X223505Y76493D01*
X223107Y76510D01*
X222709Y76517D01*
X222310Y76514D01*
X221912Y76501D01*
X221514Y76479D01*
X221117Y76447D01*
X220720Y76406D01*
X220325Y76355D01*
X219931Y76294D01*
X219539Y76224D01*
X219149Y76144D01*
X218760Y76054D01*
X218374Y75955D01*
X217991Y75847D01*
X217610Y75730D01*
X217232Y75603D01*
X216857Y75467D01*
X216486Y75322D01*
X216118Y75168D01*
X215755Y75005D01*
X215395Y74833D01*
X215040Y74653D01*
X214689Y74464D01*
X214343Y74267D01*
X214001Y74061D01*
X213665Y73847D01*
X213335Y73624D01*
X213009Y73394D01*
X212690Y73156D01*
X212376Y72910D01*
X212068Y72657D01*
X211767Y72396D01*
X211472Y72128D01*
X211184Y71853D01*
X210902Y71571D01*
X210628Y71282D01*
X210360Y70986D01*
X210100Y70684D01*
X209847Y70376D01*
X209602Y70062D01*
X209365Y69742D01*
X209135Y69416D01*
X208914Y69085D01*
X208700Y68748D01*
X208495Y68407D01*
X208298Y68060D01*
X208110Y67709D01*
X207930Y67353D01*
X207759Y66993D01*
X207597Y66629D01*
X207444Y66261D01*
X207300Y65890D01*
X207165Y65515D01*
X207039Y65137D01*
X206922Y64756D01*
X206815Y64372D01*
X206717Y63985D01*
X206628Y63597D01*
X206549Y63206D01*
X206479Y62814D01*
X206420Y62420D01*
X206369Y62025D01*
X206328Y61628D01*
X206297Y61231D01*
X206276Y60833D01*
X206264Y60435D01*
X206262Y60036D01*
X206270Y59638D01*
X206288Y59239D01*
X206315Y58842D01*
X206352Y58445D01*
X206398Y58049D01*
X206454Y57655D01*
X206520Y57261D01*
X206595Y56870D01*
X206680Y56481D01*
X206774Y56093D01*
X206878Y55709D01*
X206991Y55326D01*
X207113Y54947D01*
X207244Y54571D01*
X207385Y54198D01*
X207535Y53829D01*
X207693Y53463D01*
X207861Y53101D01*
X208037Y52744D01*
X208222Y52391D01*
X208415Y52042D01*
X208617Y51699D01*
X208827Y51360D01*
X209045Y51027D01*
X209271Y50699D01*
X209506Y50376D01*
X209748Y50060D01*
X209997Y49749D01*
X210255Y49445D01*
X210519Y49146D01*
X210791Y48855D01*
X211070Y48570D01*
X213610Y46029D02*
X213949Y45820D01*
X214293Y45619D01*
X214642Y45426D01*
X214995Y45242D01*
X215353Y45067D01*
X215715Y44900D01*
X216081Y44742D01*
X216451Y44593D01*
X216824Y44454D01*
X217201Y44323D01*
X217580Y44202D01*
X217963Y44089D01*
X218348Y43987D01*
X218735Y43893D01*
X219125Y43809D01*
X219516Y43735D01*
X219909Y43670D01*
X220304Y43615D01*
X220700Y43569D01*
X221097Y43533D01*
X221495Y43507D01*
X221893Y43490D01*
X222291Y43483D01*
X222690Y43486D01*
X223088Y43499D01*
X223486Y43521D01*
X223883Y43553D01*
X224280Y43594D01*
X224675Y43645D01*
X225069Y43706D01*
X225461Y43776D01*
X225851Y43856D01*
X226240Y43946D01*
X226626Y44045D01*
X227009Y44153D01*
X227390Y44270D01*
X227768Y44397D01*
X228143Y44533D01*
X228514Y44678D01*
X228882Y44832D01*
X229245Y44995D01*
X229605Y45167D01*
X229960Y45347D01*
X230311Y45536D01*
X230657Y45733D01*
X230999Y45939D01*
X231335Y46153D01*
X231665Y46376D01*
X231991Y46606D01*
X232310Y46844D01*
X232624Y47090D01*
X232932Y47343D01*
X233233Y47604D01*
X233528Y47872D01*
X233816Y48147D01*
X234098Y48429D01*
X234372Y48718D01*
X234640Y49014D01*
X234900Y49316D01*
X235153Y49624D01*
X235398Y49938D01*
X235635Y50258D01*
X235865Y50584D01*
X236086Y50915D01*
X236300Y51252D01*
X236505Y51593D01*
X236702Y51940D01*
X236890Y52291D01*
X237070Y52647D01*
X237241Y53007D01*
X237403Y53371D01*
X237556Y53739D01*
X237700Y54110D01*
X237835Y54485D01*
X237961Y54863D01*
X238078Y55244D01*
X238185Y55628D01*
X238283Y56015D01*
X238372Y56403D01*
X238451Y56794D01*
X238521Y57186D01*
X238580Y57580D01*
X238631Y57975D01*
X238672Y58372D01*
X238703Y58769D01*
X238724Y59167D01*
X238736Y59565D01*
X238738Y59964D01*
X238730Y60362D01*
X238712Y60761D01*
X238685Y61158D01*
X238648Y61555D01*
X238602Y61951D01*
X238546Y62345D01*
X238480Y62739D01*
X238405Y63130D01*
X238320Y63519D01*
X238226Y63907D01*
X238122Y64291D01*
X238009Y64674D01*
X237887Y65053D01*
X237756Y65429D01*
X237615Y65802D01*
X237465Y66171D01*
X237307Y66537D01*
X237139Y66899D01*
X236963Y67256D01*
X236778Y67609D01*
X236585Y67958D01*
X236383Y68301D01*
X236173Y68640D01*
X235955Y68973D01*
X235729Y69301D01*
X235494Y69624D01*
X235252Y69940D01*
X235003Y70251D01*
X234745Y70555D01*
X234481Y70854D01*
X234209Y71145D01*
X233930Y71430D01*
D16*
X252444Y37902D02*
X252444Y26218D01*
X253742Y26218D02*
X251146Y26218D01*
X251146Y37902D02*
X253742Y37902D01*
X246545Y34656D02*
X246545Y29464D01*
X246546Y34656D02*
X246544Y34769D01*
X246538Y34882D01*
X246528Y34995D01*
X246514Y35108D01*
X246497Y35220D01*
X246475Y35331D01*
X246450Y35441D01*
X246420Y35551D01*
X246387Y35659D01*
X246350Y35766D01*
X246310Y35872D01*
X246265Y35976D01*
X246217Y36079D01*
X246166Y36180D01*
X246111Y36279D01*
X246053Y36376D01*
X245991Y36471D01*
X245926Y36564D01*
X245858Y36654D01*
X245787Y36742D01*
X245712Y36828D01*
X245635Y36911D01*
X245555Y36991D01*
X245472Y37068D01*
X245386Y37143D01*
X245298Y37214D01*
X245208Y37282D01*
X245115Y37347D01*
X245020Y37409D01*
X244923Y37467D01*
X244824Y37522D01*
X244723Y37573D01*
X244620Y37621D01*
X244516Y37666D01*
X244410Y37706D01*
X244303Y37743D01*
X244195Y37776D01*
X244085Y37806D01*
X243975Y37831D01*
X243864Y37853D01*
X243752Y37870D01*
X243639Y37884D01*
X243526Y37894D01*
X243413Y37900D01*
X243300Y37902D01*
X243187Y37900D01*
X243074Y37894D01*
X242961Y37884D01*
X242848Y37870D01*
X242736Y37853D01*
X242625Y37831D01*
X242515Y37806D01*
X242405Y37776D01*
X242297Y37743D01*
X242190Y37706D01*
X242084Y37666D01*
X241980Y37621D01*
X241877Y37573D01*
X241776Y37522D01*
X241677Y37467D01*
X241580Y37409D01*
X241485Y37347D01*
X241392Y37282D01*
X241302Y37214D01*
X241214Y37143D01*
X241128Y37068D01*
X241045Y36991D01*
X240965Y36911D01*
X240888Y36828D01*
X240813Y36742D01*
X240742Y36654D01*
X240674Y36564D01*
X240609Y36471D01*
X240547Y36376D01*
X240489Y36279D01*
X240434Y36180D01*
X240383Y36079D01*
X240335Y35976D01*
X240290Y35872D01*
X240250Y35766D01*
X240213Y35659D01*
X240180Y35551D01*
X240150Y35441D01*
X240125Y35331D01*
X240103Y35220D01*
X240086Y35108D01*
X240072Y34995D01*
X240062Y34882D01*
X240056Y34769D01*
X240054Y34656D01*
X240054Y29464D01*
X240056Y29351D01*
X240062Y29238D01*
X240072Y29125D01*
X240086Y29012D01*
X240103Y28900D01*
X240125Y28789D01*
X240150Y28679D01*
X240180Y28569D01*
X240213Y28461D01*
X240250Y28354D01*
X240290Y28248D01*
X240335Y28144D01*
X240383Y28041D01*
X240434Y27940D01*
X240489Y27841D01*
X240547Y27744D01*
X240609Y27649D01*
X240674Y27556D01*
X240742Y27466D01*
X240813Y27378D01*
X240888Y27292D01*
X240965Y27209D01*
X241045Y27129D01*
X241128Y27052D01*
X241214Y26977D01*
X241302Y26906D01*
X241392Y26838D01*
X241485Y26773D01*
X241580Y26711D01*
X241677Y26653D01*
X241776Y26598D01*
X241877Y26547D01*
X241980Y26499D01*
X242084Y26454D01*
X242190Y26414D01*
X242297Y26377D01*
X242405Y26344D01*
X242515Y26314D01*
X242625Y26289D01*
X242736Y26267D01*
X242848Y26250D01*
X242961Y26236D01*
X243074Y26226D01*
X243187Y26220D01*
X243300Y26218D01*
X243413Y26220D01*
X243526Y26226D01*
X243639Y26236D01*
X243752Y26250D01*
X243864Y26267D01*
X243975Y26289D01*
X244085Y26314D01*
X244195Y26344D01*
X244303Y26377D01*
X244410Y26414D01*
X244516Y26454D01*
X244620Y26499D01*
X244723Y26547D01*
X244824Y26598D01*
X244923Y26653D01*
X245020Y26711D01*
X245115Y26773D01*
X245208Y26838D01*
X245298Y26906D01*
X245386Y26977D01*
X245472Y27052D01*
X245555Y27129D01*
X245635Y27209D01*
X245712Y27292D01*
X245787Y27378D01*
X245858Y27466D01*
X245926Y27556D01*
X245991Y27649D01*
X246053Y27744D01*
X246111Y27841D01*
X246166Y27940D01*
X246217Y28041D01*
X246265Y28144D01*
X246310Y28248D01*
X246350Y28354D01*
X246387Y28461D01*
X246420Y28569D01*
X246450Y28679D01*
X246475Y28789D01*
X246497Y28900D01*
X246514Y29012D01*
X246528Y29125D01*
X246538Y29238D01*
X246544Y29351D01*
X246546Y29464D01*
X232632Y26218D02*
X232632Y37902D01*
X235877Y37902D02*
X229386Y37902D01*
X224806Y26218D02*
X219613Y26218D01*
X224806Y26218D02*
X224806Y37902D01*
X219613Y37902D01*
X220911Y32709D02*
X224806Y32709D01*
X212740Y26218D02*
X210144Y26218D01*
X212740Y26218D02*
X212839Y26220D01*
X212939Y26226D01*
X213038Y26235D01*
X213136Y26248D01*
X213234Y26265D01*
X213332Y26286D01*
X213428Y26311D01*
X213523Y26339D01*
X213617Y26371D01*
X213710Y26406D01*
X213802Y26445D01*
X213892Y26488D01*
X213980Y26533D01*
X214067Y26583D01*
X214151Y26635D01*
X214234Y26691D01*
X214314Y26749D01*
X214392Y26811D01*
X214467Y26876D01*
X214540Y26944D01*
X214610Y27014D01*
X214678Y27087D01*
X214743Y27162D01*
X214805Y27240D01*
X214863Y27320D01*
X214919Y27403D01*
X214971Y27487D01*
X215021Y27574D01*
X215066Y27662D01*
X215109Y27752D01*
X215148Y27844D01*
X215183Y27937D01*
X215215Y28031D01*
X215243Y28126D01*
X215268Y28222D01*
X215289Y28320D01*
X215306Y28418D01*
X215319Y28516D01*
X215328Y28615D01*
X215334Y28715D01*
X215336Y28814D01*
X215337Y28814D02*
X215337Y35306D01*
X215336Y35306D02*
X215334Y35405D01*
X215328Y35505D01*
X215319Y35604D01*
X215306Y35702D01*
X215289Y35800D01*
X215268Y35898D01*
X215243Y35994D01*
X215215Y36089D01*
X215183Y36183D01*
X215148Y36276D01*
X215109Y36368D01*
X215066Y36458D01*
X215021Y36546D01*
X214971Y36633D01*
X214919Y36717D01*
X214863Y36800D01*
X214805Y36880D01*
X214743Y36958D01*
X214678Y37033D01*
X214610Y37106D01*
X214540Y37176D01*
X214467Y37244D01*
X214392Y37309D01*
X214314Y37371D01*
X214234Y37429D01*
X214151Y37485D01*
X214067Y37537D01*
X213980Y37587D01*
X213892Y37632D01*
X213802Y37675D01*
X213710Y37714D01*
X213617Y37749D01*
X213523Y37781D01*
X213428Y37809D01*
X213332Y37834D01*
X213234Y37855D01*
X213136Y37872D01*
X213038Y37885D01*
X212939Y37894D01*
X212839Y37900D01*
X212740Y37902D01*
X210144Y37902D01*
X205397Y37902D02*
X205397Y26218D01*
X205397Y32709D02*
X198906Y32709D01*
X198906Y37902D02*
X198906Y26218D01*
D17*
X814946Y209894D03*
X814946Y255106D03*
D18*
X790054Y197448D03*
X790054Y267552D03*
D14*
X789880Y652500D02*
X805120Y652500D01*
X805120Y627500D02*
X789880Y627500D01*
X789880Y602500D02*
X805120Y602500D01*
X805120Y777500D02*
X789880Y777500D01*
X789880Y752500D02*
X805120Y752500D01*
X805120Y727500D02*
X789880Y727500D01*
X789880Y902500D02*
X805120Y902500D01*
X805120Y877500D02*
X789880Y877500D01*
X789880Y852500D02*
X805120Y852500D01*
D12*
X81278Y521100D02*
X60323Y521100D01*
X60323Y470300D02*
X81278Y470300D01*
X81278Y63900D02*
X60323Y63900D01*
X60323Y419500D02*
X81278Y419500D01*
X81278Y368700D02*
X60323Y368700D01*
X60323Y114700D02*
X81278Y114700D01*
X81278Y317900D02*
X60323Y317900D01*
X60323Y267100D02*
X81278Y267100D01*
X81278Y165500D02*
X60323Y165500D01*
X60323Y216300D02*
X81278Y216300D01*
D19*
X599600Y887300D03*
X599600Y912700D03*
X625000Y887300D03*
X625000Y912700D03*
X650400Y887300D03*
X650400Y912700D03*
D20*
X486779Y192875D02*
X440856Y192875D01*
X486779Y192875D02*
X498004Y181649D01*
X71435Y781703D02*
X71435Y802113D01*
X71435Y781703D02*
X95927Y757211D01*
X95927Y726596D01*
X71435Y702104D01*
X71435Y802113D02*
X70800Y802900D01*
X71435Y702104D02*
X70800Y701300D01*
X70415Y883753D02*
X70415Y904163D01*
X70415Y883753D02*
X45923Y859261D01*
X45923Y828646D01*
X70415Y804154D01*
X70415Y904163D02*
X70800Y904500D01*
X70415Y804154D02*
X70800Y802900D01*
X138788Y192875D02*
X440856Y192875D01*
X138788Y192875D02*
X118378Y172465D01*
X93886Y172465D01*
X64292Y202059D01*
X54087Y202059D01*
X40820Y215326D01*
X40820Y490861D01*
X70415Y520455D01*
X70800Y521100D01*
D21*
X440856Y192875D03*
X498004Y181649D03*
D22*
X740883Y506168D02*
X722514Y524537D01*
X740883Y506168D02*
X740883Y458205D01*
X740373Y457694D02*
X723535Y440856D01*
X740373Y457694D02*
X740883Y458205D01*
X722514Y524537D02*
X722500Y525200D01*
X723535Y440856D02*
X722700Y440650D01*
X808236Y408200D02*
X808236Y404118D01*
X808236Y408200D02*
X759252Y457184D01*
X740883Y457184D01*
X808236Y404118D02*
X808400Y404050D01*
X740883Y457184D02*
X740373Y457694D01*
X624546Y368401D02*
X542906Y368401D01*
X624546Y368401D02*
X663325Y407180D01*
X664300Y407600D01*
X797011Y650059D02*
X797011Y652100D01*
X797011Y650059D02*
X740883Y593931D01*
X740883Y543927D01*
X722514Y525558D01*
X797011Y652100D02*
X797500Y652500D01*
X722514Y525558D02*
X722500Y525200D01*
X542906Y368401D02*
X393913Y368401D01*
D21*
X542906Y368401D03*
X393913Y368401D03*
D22*
X612300Y816400D02*
X612300Y850077D01*
X600054Y862323D01*
X600054Y886815D01*
X599600Y887300D01*
X431672Y495963D02*
X431672Y478615D01*
X431672Y495963D02*
X663325Y727617D01*
X663325Y758232D01*
X646997Y774560D01*
D21*
X612300Y816400D03*
X431672Y478615D03*
X646997Y774560D03*
D22*
X515353Y732719D02*
X206141Y423508D01*
D21*
X515353Y732719D03*
X206141Y423508D03*
D22*
X570460Y707207D02*
X570460Y711289D01*
X570460Y707207D02*
X420446Y557193D01*
X420446Y450041D01*
X389831Y419426D01*
D21*
X570460Y711289D03*
X389831Y419426D03*
D22*
X516373Y721494D02*
X524537Y721494D01*
X516373Y721494D02*
X261248Y466369D01*
X261248Y352073D01*
X252064Y342888D01*
X251125Y342050D01*
D21*
X524537Y721494D03*
D22*
X616382Y712309D02*
X631690Y712309D01*
X616382Y712309D02*
X584747Y680674D01*
X566378Y680674D01*
D21*
X631690Y712309D03*
X566378Y680674D03*
D22*
X656182Y748027D02*
X656182Y755170D01*
X639854Y771498D01*
X639854Y855179D01*
X665366Y880692D01*
X665366Y919471D01*
X657202Y927635D01*
X577603Y927635D01*
X425549Y775580D01*
D21*
X656182Y748027D03*
X425549Y775580D03*
D22*
X607198Y865384D02*
X607198Y869466D01*
X624546Y886815D01*
X625000Y887300D01*
X357175Y377585D02*
X481676Y253084D01*
X583726Y714350D02*
X583726Y731699D01*
X583726Y714350D02*
X424528Y555152D01*
X424528Y443918D01*
X358196Y377585D01*
X357175Y377585D01*
D21*
X607198Y865384D03*
X481676Y253084D03*
X357175Y377585D03*
X583726Y731699D03*
D22*
X628628Y776601D02*
X628628Y850077D01*
X661284Y882733D01*
X661284Y917430D01*
X655161Y923553D01*
X635772Y923553D01*
X625567Y913348D01*
X625000Y912700D01*
X413303Y571480D02*
X413303Y478615D01*
X413303Y571480D02*
X580665Y738842D01*
X586788Y738842D01*
X590870Y734760D01*
X590870Y715371D01*
X559234Y683735D01*
X559234Y677612D01*
X563316Y673530D01*
X603116Y673530D01*
X639854Y710268D01*
X639854Y765375D01*
X628628Y776601D01*
D21*
X628628Y776601D03*
X413303Y478615D03*
D22*
X670469Y672510D02*
X670469Y708227D01*
X670469Y672510D02*
X384729Y386770D01*
X384729Y373503D01*
D21*
X670469Y708227D03*
X384729Y373503D03*
D22*
X628628Y738842D02*
X628628Y748027D01*
X594952Y781703D01*
X564337Y781703D01*
D21*
X628628Y738842D03*
X564337Y781703D03*
D22*
X613321Y738842D02*
X620464Y745986D01*
X613321Y738842D02*
X604136Y738842D01*
X586788Y756191D01*
X434733Y756191D01*
X418405Y772519D01*
X418405Y778642D01*
X571480Y931717D01*
X659243Y931717D01*
X778642Y812318D01*
X778642Y771498D01*
X797011Y753129D01*
X797500Y752500D01*
D21*
X620464Y745986D03*
D22*
X97968Y262269D02*
X97968Y188793D01*
X96948Y187772D01*
X96948Y181649D01*
X101030Y177567D01*
X116337Y177567D01*
X406159Y467389D01*
X406159Y573521D01*
X533722Y701084D01*
X533722Y702104D01*
D21*
X97968Y262269D03*
X533722Y702104D03*
D22*
X105112Y364319D02*
X105112Y337786D01*
X105112Y364319D02*
X64292Y405139D01*
X55107Y405139D01*
X45923Y414323D01*
X45923Y424528D01*
X77558Y456164D01*
X228592Y456164D01*
X483717Y711289D01*
D21*
X105112Y337786D03*
X483717Y711289D03*
D22*
X798031Y605157D02*
X798031Y603116D01*
X798031Y605157D02*
X816400Y623526D01*
X816400Y708227D01*
X798031Y726596D01*
X798031Y603116D02*
X797500Y602500D01*
X798031Y726596D02*
X797500Y727500D01*
X797011Y853138D02*
X722514Y927635D01*
X797011Y853138D02*
X797500Y852500D01*
X198998Y419426D02*
X71435Y419426D01*
X198998Y419426D02*
X225531Y392893D01*
X71435Y419426D02*
X70800Y419500D01*
X225531Y392893D02*
X225725Y392850D01*
D21*
X722514Y927635D03*
D22*
X641895Y463307D02*
X471471Y463307D01*
X641895Y463307D02*
X808236Y296966D01*
X808400Y296950D01*
D21*
X471471Y463307D03*
D22*
X457184Y347991D02*
X457184Y333704D01*
X450041Y326560D01*
X450041Y318396D01*
X460246Y308191D01*
X678633Y308191D01*
X688838Y318396D01*
X689700Y318800D01*
D21*
X457184Y347991D03*
D22*
X616382Y334724D02*
X616382Y323499D01*
X616382Y334724D02*
X663325Y381667D01*
X664300Y382200D01*
X616382Y323499D02*
X457184Y323499D01*
X616382Y323499D02*
X616382Y321458D01*
D21*
X616382Y321458D03*
X457184Y323499D03*
D22*
X644956Y328601D02*
X646997Y328601D01*
X662305Y343909D01*
X688838Y343909D01*
X689700Y344200D01*
X612300Y315335D02*
X463307Y315335D01*
X612300Y315335D02*
X613321Y314314D01*
X630669Y314314D01*
X644956Y328601D01*
D21*
X644956Y328601D03*
X463307Y315335D03*
D22*
X584747Y699043D02*
X596993Y699043D01*
X629649Y731699D01*
X631690Y731699D01*
X635772Y735781D01*
X635772Y759252D01*
X621485Y773539D01*
X621485Y790888D02*
X621485Y858241D01*
X621485Y790888D02*
X621485Y773539D01*
X621485Y858241D02*
X650059Y886815D01*
X650400Y887300D01*
D21*
X584747Y699043D03*
X621485Y790888D03*
D22*
X117358Y184711D02*
X104091Y184711D01*
X117358Y184711D02*
X402077Y469430D01*
X402077Y579644D01*
X450041Y627608D01*
D21*
X104091Y184711D03*
X450041Y627608D03*
D22*
X153075Y226551D02*
X137768Y226551D01*
X153075Y226551D02*
X397995Y471471D01*
X397995Y592911D01*
X484738Y679653D01*
D21*
X137768Y226551D03*
X484738Y679653D03*
D22*
X679653Y863343D02*
X679653Y874569D01*
X679653Y863343D02*
X721494Y821503D01*
X721494Y551070D01*
X722500Y550600D01*
D21*
X679653Y874569D03*
D22*
X105112Y261248D02*
X105112Y237777D01*
X105112Y261248D02*
X226551Y382688D01*
X229613Y382688D01*
X240838Y393913D01*
X240838Y452082D01*
X514332Y725576D01*
X518414Y725576D01*
X534742Y741904D01*
X577603Y741904D01*
X583726Y748027D01*
X584747Y748027D01*
D21*
X105112Y237777D03*
X584747Y748027D03*
D22*
X102050Y113276D02*
X102050Y67353D01*
X102050Y113276D02*
X64292Y151034D01*
X55107Y151034D01*
X35718Y170424D01*
X35718Y516373D01*
X268392Y749047D01*
X551070Y749047D01*
D21*
X102050Y67353D03*
X551070Y749047D03*
D22*
X650059Y708227D02*
X650059Y691899D01*
X650059Y708227D02*
X667407Y725576D01*
X667407Y800072D01*
X645977Y821503D01*
X645977Y855179D01*
X672510Y881712D01*
X508209Y821503D02*
X508209Y794970D01*
X508209Y821503D02*
X599034Y912327D01*
X599600Y912700D01*
D21*
X650059Y691899D03*
X672510Y881712D03*
X508209Y794970D03*
D22*
X557193Y763334D02*
X557193Y860282D01*
X598013Y901102D01*
X638833Y901102D01*
X650059Y912327D01*
X650400Y912700D01*
X609239Y745986D02*
X603116Y745986D01*
X585767Y763334D01*
X557193Y763334D01*
D21*
X557193Y763334D03*
X609239Y745986D03*
M02*
