G04 EAGLE Gerber RS-274X export*
G75*
%MOMM*%
%FSLAX34Y34*%
%LPD*%
%INSilkscreen Bottom*%
%IPPOS*%
%AMOC8*
5,1,8,0,0,1.08239X$1,22.5*%
G01*
%ADD10C,0.127000*%
%ADD11C,0.152400*%


D10*
X685143Y488629D02*
X685143Y473135D01*
X683422Y473135D02*
X686865Y473135D01*
X686865Y488629D02*
X683422Y488629D01*
X677555Y484325D02*
X677555Y477439D01*
X677555Y484325D02*
X677553Y484455D01*
X677547Y484585D01*
X677537Y484715D01*
X677524Y484844D01*
X677506Y484973D01*
X677485Y485101D01*
X677459Y485228D01*
X677430Y485355D01*
X677397Y485481D01*
X677360Y485605D01*
X677320Y485729D01*
X677275Y485851D01*
X677227Y485972D01*
X677176Y486091D01*
X677121Y486209D01*
X677062Y486325D01*
X677000Y486439D01*
X676934Y486552D01*
X676865Y486662D01*
X676793Y486770D01*
X676718Y486876D01*
X676639Y486979D01*
X676557Y487080D01*
X676473Y487179D01*
X676385Y487275D01*
X676294Y487368D01*
X676201Y487459D01*
X676105Y487547D01*
X676006Y487631D01*
X675905Y487713D01*
X675802Y487792D01*
X675696Y487867D01*
X675588Y487939D01*
X675478Y488008D01*
X675365Y488074D01*
X675251Y488136D01*
X675135Y488195D01*
X675017Y488250D01*
X674898Y488301D01*
X674777Y488349D01*
X674655Y488394D01*
X674531Y488434D01*
X674407Y488471D01*
X674281Y488504D01*
X674154Y488533D01*
X674027Y488559D01*
X673899Y488580D01*
X673770Y488598D01*
X673641Y488611D01*
X673511Y488621D01*
X673381Y488627D01*
X673251Y488629D01*
X673121Y488627D01*
X672991Y488621D01*
X672861Y488611D01*
X672732Y488598D01*
X672603Y488580D01*
X672475Y488559D01*
X672348Y488533D01*
X672221Y488504D01*
X672095Y488471D01*
X671971Y488434D01*
X671847Y488394D01*
X671725Y488349D01*
X671604Y488301D01*
X671485Y488250D01*
X671367Y488195D01*
X671251Y488136D01*
X671137Y488074D01*
X671024Y488008D01*
X670914Y487939D01*
X670806Y487867D01*
X670700Y487792D01*
X670597Y487713D01*
X670496Y487631D01*
X670397Y487547D01*
X670301Y487459D01*
X670208Y487368D01*
X670117Y487275D01*
X670029Y487179D01*
X669945Y487080D01*
X669863Y486979D01*
X669784Y486876D01*
X669709Y486770D01*
X669637Y486662D01*
X669568Y486552D01*
X669502Y486439D01*
X669440Y486325D01*
X669381Y486209D01*
X669326Y486091D01*
X669275Y485972D01*
X669227Y485851D01*
X669182Y485729D01*
X669142Y485605D01*
X669105Y485481D01*
X669072Y485355D01*
X669043Y485228D01*
X669017Y485101D01*
X668996Y484973D01*
X668978Y484844D01*
X668965Y484715D01*
X668955Y484585D01*
X668949Y484455D01*
X668947Y484325D01*
X668947Y477439D01*
X668949Y477309D01*
X668955Y477179D01*
X668965Y477049D01*
X668978Y476920D01*
X668996Y476791D01*
X669017Y476663D01*
X669043Y476536D01*
X669072Y476409D01*
X669105Y476283D01*
X669142Y476159D01*
X669182Y476035D01*
X669227Y475913D01*
X669275Y475792D01*
X669326Y475673D01*
X669381Y475555D01*
X669440Y475439D01*
X669502Y475325D01*
X669568Y475212D01*
X669637Y475102D01*
X669709Y474994D01*
X669784Y474888D01*
X669863Y474785D01*
X669945Y474684D01*
X670029Y474585D01*
X670117Y474489D01*
X670208Y474396D01*
X670301Y474305D01*
X670397Y474217D01*
X670496Y474133D01*
X670597Y474051D01*
X670700Y473972D01*
X670806Y473897D01*
X670914Y473825D01*
X671024Y473756D01*
X671137Y473690D01*
X671251Y473628D01*
X671367Y473569D01*
X671485Y473514D01*
X671604Y473463D01*
X671725Y473415D01*
X671847Y473370D01*
X671971Y473330D01*
X672095Y473293D01*
X672221Y473260D01*
X672348Y473231D01*
X672475Y473205D01*
X672603Y473184D01*
X672732Y473166D01*
X672861Y473153D01*
X672991Y473143D01*
X673121Y473137D01*
X673251Y473135D01*
X673381Y473137D01*
X673511Y473143D01*
X673641Y473153D01*
X673770Y473166D01*
X673899Y473184D01*
X674027Y473205D01*
X674154Y473231D01*
X674281Y473260D01*
X674407Y473293D01*
X674531Y473330D01*
X674655Y473370D01*
X674777Y473415D01*
X674898Y473463D01*
X675017Y473514D01*
X675135Y473569D01*
X675251Y473628D01*
X675365Y473690D01*
X675478Y473756D01*
X675588Y473825D01*
X675696Y473897D01*
X675802Y473972D01*
X675905Y474051D01*
X676006Y474133D01*
X676105Y474217D01*
X676201Y474305D01*
X676294Y474396D01*
X676385Y474489D01*
X676473Y474585D01*
X676557Y474684D01*
X676639Y474785D01*
X676718Y474888D01*
X676793Y474994D01*
X676865Y475102D01*
X676934Y475212D01*
X677000Y475325D01*
X677062Y475439D01*
X677121Y475555D01*
X677176Y475673D01*
X677227Y475792D01*
X677275Y475913D01*
X677320Y476035D01*
X677360Y476159D01*
X677397Y476283D01*
X677430Y476409D01*
X677459Y476536D01*
X677485Y476663D01*
X677506Y476791D01*
X677524Y476920D01*
X677537Y477049D01*
X677547Y477179D01*
X677553Y477309D01*
X677555Y477439D01*
X659376Y473135D02*
X659376Y488629D01*
X663680Y488629D02*
X655072Y488629D01*
X649113Y481743D02*
X644809Y481743D01*
X644679Y481741D01*
X644549Y481735D01*
X644419Y481725D01*
X644290Y481712D01*
X644161Y481694D01*
X644033Y481673D01*
X643906Y481647D01*
X643779Y481618D01*
X643653Y481585D01*
X643529Y481548D01*
X643405Y481508D01*
X643283Y481463D01*
X643162Y481415D01*
X643043Y481364D01*
X642925Y481309D01*
X642809Y481250D01*
X642695Y481188D01*
X642582Y481122D01*
X642472Y481053D01*
X642364Y480981D01*
X642258Y480906D01*
X642155Y480827D01*
X642054Y480745D01*
X641955Y480661D01*
X641859Y480573D01*
X641766Y480482D01*
X641675Y480389D01*
X641587Y480293D01*
X641503Y480194D01*
X641421Y480093D01*
X641342Y479990D01*
X641267Y479884D01*
X641195Y479776D01*
X641126Y479666D01*
X641060Y479553D01*
X640998Y479439D01*
X640939Y479323D01*
X640884Y479205D01*
X640833Y479086D01*
X640785Y478965D01*
X640740Y478843D01*
X640700Y478719D01*
X640663Y478595D01*
X640630Y478469D01*
X640601Y478342D01*
X640575Y478215D01*
X640554Y478087D01*
X640536Y477958D01*
X640523Y477829D01*
X640513Y477699D01*
X640507Y477569D01*
X640505Y477439D01*
X640507Y477309D01*
X640513Y477179D01*
X640523Y477049D01*
X640536Y476920D01*
X640554Y476791D01*
X640575Y476663D01*
X640601Y476536D01*
X640630Y476409D01*
X640663Y476283D01*
X640700Y476159D01*
X640740Y476035D01*
X640785Y475913D01*
X640833Y475792D01*
X640884Y475673D01*
X640939Y475555D01*
X640998Y475439D01*
X641060Y475325D01*
X641126Y475212D01*
X641195Y475102D01*
X641267Y474994D01*
X641342Y474888D01*
X641421Y474785D01*
X641503Y474684D01*
X641587Y474585D01*
X641675Y474489D01*
X641766Y474396D01*
X641859Y474305D01*
X641955Y474217D01*
X642054Y474133D01*
X642155Y474051D01*
X642258Y473972D01*
X642364Y473897D01*
X642472Y473825D01*
X642582Y473756D01*
X642695Y473690D01*
X642809Y473628D01*
X642925Y473569D01*
X643043Y473514D01*
X643162Y473463D01*
X643283Y473415D01*
X643405Y473370D01*
X643529Y473330D01*
X643653Y473293D01*
X643779Y473260D01*
X643906Y473231D01*
X644033Y473205D01*
X644161Y473184D01*
X644290Y473166D01*
X644419Y473153D01*
X644549Y473143D01*
X644679Y473137D01*
X644809Y473135D01*
X649113Y473135D01*
X649113Y488629D01*
X644809Y488629D01*
X644693Y488627D01*
X644577Y488621D01*
X644461Y488611D01*
X644345Y488598D01*
X644230Y488580D01*
X644116Y488559D01*
X644002Y488533D01*
X643890Y488504D01*
X643778Y488471D01*
X643668Y488434D01*
X643559Y488394D01*
X643451Y488350D01*
X643345Y488302D01*
X643241Y488251D01*
X643138Y488196D01*
X643037Y488138D01*
X642939Y488077D01*
X642842Y488012D01*
X642748Y487944D01*
X642656Y487873D01*
X642566Y487798D01*
X642479Y487721D01*
X642395Y487641D01*
X642314Y487558D01*
X642235Y487472D01*
X642159Y487384D01*
X642086Y487293D01*
X642017Y487200D01*
X641950Y487105D01*
X641887Y487007D01*
X641827Y486908D01*
X641771Y486806D01*
X641718Y486702D01*
X641668Y486597D01*
X641623Y486490D01*
X641580Y486382D01*
X641542Y486272D01*
X641507Y486161D01*
X641476Y486049D01*
X641449Y485936D01*
X641425Y485822D01*
X641406Y485707D01*
X641390Y485592D01*
X641378Y485476D01*
X641370Y485360D01*
X641366Y485244D01*
X641366Y485128D01*
X641370Y485012D01*
X641378Y484896D01*
X641390Y484780D01*
X641406Y484665D01*
X641425Y484550D01*
X641449Y484436D01*
X641476Y484323D01*
X641507Y484211D01*
X641542Y484100D01*
X641580Y483990D01*
X641623Y483882D01*
X641668Y483775D01*
X641718Y483670D01*
X641771Y483566D01*
X641827Y483465D01*
X641887Y483365D01*
X641950Y483267D01*
X642017Y483172D01*
X642086Y483079D01*
X642159Y482988D01*
X642235Y482900D01*
X642314Y482814D01*
X642395Y482731D01*
X642479Y482651D01*
X642566Y482574D01*
X642656Y482499D01*
X642748Y482428D01*
X642842Y482360D01*
X642939Y482295D01*
X643037Y482234D01*
X643138Y482176D01*
X643241Y482121D01*
X643345Y482070D01*
X643451Y482022D01*
X643559Y481978D01*
X643668Y481938D01*
X643778Y481901D01*
X643890Y481868D01*
X644002Y481839D01*
X644116Y481813D01*
X644230Y481792D01*
X644345Y481774D01*
X644461Y481761D01*
X644577Y481751D01*
X644693Y481745D01*
X644809Y481743D01*
X626319Y481743D02*
X622015Y481743D01*
X621885Y481741D01*
X621755Y481735D01*
X621625Y481725D01*
X621496Y481712D01*
X621367Y481694D01*
X621239Y481673D01*
X621112Y481647D01*
X620985Y481618D01*
X620859Y481585D01*
X620735Y481548D01*
X620611Y481508D01*
X620489Y481463D01*
X620368Y481415D01*
X620249Y481364D01*
X620131Y481309D01*
X620015Y481250D01*
X619901Y481188D01*
X619788Y481122D01*
X619678Y481053D01*
X619570Y480981D01*
X619464Y480906D01*
X619361Y480827D01*
X619260Y480745D01*
X619161Y480661D01*
X619065Y480573D01*
X618972Y480482D01*
X618881Y480389D01*
X618793Y480293D01*
X618709Y480194D01*
X618627Y480093D01*
X618548Y479990D01*
X618473Y479884D01*
X618401Y479776D01*
X618332Y479666D01*
X618266Y479553D01*
X618204Y479439D01*
X618145Y479323D01*
X618090Y479205D01*
X618039Y479086D01*
X617991Y478965D01*
X617946Y478843D01*
X617906Y478719D01*
X617869Y478595D01*
X617836Y478469D01*
X617807Y478342D01*
X617781Y478215D01*
X617760Y478087D01*
X617742Y477958D01*
X617729Y477829D01*
X617719Y477699D01*
X617713Y477569D01*
X617711Y477439D01*
X617713Y477309D01*
X617719Y477179D01*
X617729Y477049D01*
X617742Y476920D01*
X617760Y476791D01*
X617781Y476663D01*
X617807Y476536D01*
X617836Y476409D01*
X617869Y476283D01*
X617906Y476159D01*
X617946Y476035D01*
X617991Y475913D01*
X618039Y475792D01*
X618090Y475673D01*
X618145Y475555D01*
X618204Y475439D01*
X618266Y475325D01*
X618332Y475212D01*
X618401Y475102D01*
X618473Y474994D01*
X618548Y474888D01*
X618627Y474785D01*
X618709Y474684D01*
X618793Y474585D01*
X618881Y474489D01*
X618972Y474396D01*
X619065Y474305D01*
X619161Y474217D01*
X619260Y474133D01*
X619361Y474051D01*
X619464Y473972D01*
X619570Y473897D01*
X619678Y473825D01*
X619788Y473756D01*
X619901Y473690D01*
X620015Y473628D01*
X620131Y473569D01*
X620249Y473514D01*
X620368Y473463D01*
X620489Y473415D01*
X620611Y473370D01*
X620735Y473330D01*
X620859Y473293D01*
X620985Y473260D01*
X621112Y473231D01*
X621239Y473205D01*
X621367Y473184D01*
X621496Y473166D01*
X621625Y473153D01*
X621755Y473143D01*
X621885Y473137D01*
X622015Y473135D01*
X626319Y473135D01*
X626319Y488629D01*
X622015Y488629D01*
X621899Y488627D01*
X621783Y488621D01*
X621667Y488611D01*
X621551Y488598D01*
X621436Y488580D01*
X621322Y488559D01*
X621208Y488533D01*
X621096Y488504D01*
X620984Y488471D01*
X620874Y488434D01*
X620765Y488394D01*
X620657Y488350D01*
X620551Y488302D01*
X620447Y488251D01*
X620344Y488196D01*
X620243Y488138D01*
X620145Y488077D01*
X620048Y488012D01*
X619954Y487944D01*
X619862Y487873D01*
X619772Y487798D01*
X619685Y487721D01*
X619601Y487641D01*
X619520Y487558D01*
X619441Y487472D01*
X619365Y487384D01*
X619292Y487293D01*
X619223Y487200D01*
X619156Y487105D01*
X619093Y487007D01*
X619033Y486908D01*
X618977Y486806D01*
X618924Y486702D01*
X618874Y486597D01*
X618829Y486490D01*
X618786Y486382D01*
X618748Y486272D01*
X618713Y486161D01*
X618682Y486049D01*
X618655Y485936D01*
X618631Y485822D01*
X618612Y485707D01*
X618596Y485592D01*
X618584Y485476D01*
X618576Y485360D01*
X618572Y485244D01*
X618572Y485128D01*
X618576Y485012D01*
X618584Y484896D01*
X618596Y484780D01*
X618612Y484665D01*
X618631Y484550D01*
X618655Y484436D01*
X618682Y484323D01*
X618713Y484211D01*
X618748Y484100D01*
X618786Y483990D01*
X618829Y483882D01*
X618874Y483775D01*
X618924Y483670D01*
X618977Y483566D01*
X619033Y483465D01*
X619093Y483365D01*
X619156Y483267D01*
X619223Y483172D01*
X619292Y483079D01*
X619365Y482988D01*
X619441Y482900D01*
X619520Y482814D01*
X619601Y482731D01*
X619685Y482651D01*
X619772Y482574D01*
X619862Y482499D01*
X619954Y482428D01*
X620048Y482360D01*
X620145Y482295D01*
X620243Y482234D01*
X620344Y482176D01*
X620447Y482121D01*
X620551Y482070D01*
X620657Y482022D01*
X620765Y481978D01*
X620874Y481938D01*
X620984Y481901D01*
X621096Y481868D01*
X621208Y481839D01*
X621322Y481813D01*
X621436Y481792D01*
X621551Y481774D01*
X621667Y481761D01*
X621783Y481751D01*
X621899Y481745D01*
X622015Y481743D01*
X612145Y484325D02*
X612145Y477439D01*
X612145Y484325D02*
X612143Y484455D01*
X612137Y484585D01*
X612127Y484715D01*
X612114Y484844D01*
X612096Y484973D01*
X612075Y485101D01*
X612049Y485228D01*
X612020Y485355D01*
X611987Y485481D01*
X611950Y485605D01*
X611910Y485729D01*
X611865Y485851D01*
X611817Y485972D01*
X611766Y486091D01*
X611711Y486209D01*
X611652Y486325D01*
X611590Y486439D01*
X611524Y486552D01*
X611455Y486662D01*
X611383Y486770D01*
X611308Y486876D01*
X611229Y486979D01*
X611147Y487080D01*
X611063Y487179D01*
X610975Y487275D01*
X610884Y487368D01*
X610791Y487459D01*
X610695Y487547D01*
X610596Y487631D01*
X610495Y487713D01*
X610392Y487792D01*
X610286Y487867D01*
X610178Y487939D01*
X610068Y488008D01*
X609955Y488074D01*
X609841Y488136D01*
X609725Y488195D01*
X609607Y488250D01*
X609488Y488301D01*
X609367Y488349D01*
X609245Y488394D01*
X609121Y488434D01*
X608997Y488471D01*
X608871Y488504D01*
X608744Y488533D01*
X608617Y488559D01*
X608489Y488580D01*
X608360Y488598D01*
X608231Y488611D01*
X608101Y488621D01*
X607971Y488627D01*
X607841Y488629D01*
X607711Y488627D01*
X607581Y488621D01*
X607451Y488611D01*
X607322Y488598D01*
X607193Y488580D01*
X607065Y488559D01*
X606938Y488533D01*
X606811Y488504D01*
X606685Y488471D01*
X606561Y488434D01*
X606437Y488394D01*
X606315Y488349D01*
X606194Y488301D01*
X606075Y488250D01*
X605957Y488195D01*
X605841Y488136D01*
X605727Y488074D01*
X605614Y488008D01*
X605504Y487939D01*
X605396Y487867D01*
X605290Y487792D01*
X605187Y487713D01*
X605086Y487631D01*
X604987Y487547D01*
X604891Y487459D01*
X604798Y487368D01*
X604707Y487275D01*
X604619Y487179D01*
X604535Y487080D01*
X604453Y486979D01*
X604374Y486876D01*
X604299Y486770D01*
X604227Y486662D01*
X604158Y486552D01*
X604092Y486439D01*
X604030Y486325D01*
X603971Y486209D01*
X603916Y486091D01*
X603865Y485972D01*
X603817Y485851D01*
X603772Y485729D01*
X603732Y485605D01*
X603695Y485481D01*
X603662Y485355D01*
X603633Y485228D01*
X603607Y485101D01*
X603586Y484973D01*
X603568Y484844D01*
X603555Y484715D01*
X603545Y484585D01*
X603539Y484455D01*
X603537Y484325D01*
X603538Y484325D02*
X603538Y477439D01*
X603537Y477439D02*
X603539Y477309D01*
X603545Y477179D01*
X603555Y477049D01*
X603568Y476920D01*
X603586Y476791D01*
X603607Y476663D01*
X603633Y476536D01*
X603662Y476409D01*
X603695Y476283D01*
X603732Y476159D01*
X603772Y476035D01*
X603817Y475913D01*
X603865Y475792D01*
X603916Y475673D01*
X603971Y475555D01*
X604030Y475439D01*
X604092Y475325D01*
X604158Y475212D01*
X604227Y475102D01*
X604299Y474994D01*
X604374Y474888D01*
X604453Y474785D01*
X604535Y474684D01*
X604619Y474585D01*
X604707Y474489D01*
X604798Y474396D01*
X604891Y474305D01*
X604987Y474217D01*
X605086Y474133D01*
X605187Y474051D01*
X605290Y473972D01*
X605396Y473897D01*
X605504Y473825D01*
X605614Y473756D01*
X605727Y473690D01*
X605841Y473628D01*
X605957Y473569D01*
X606075Y473514D01*
X606194Y473463D01*
X606315Y473415D01*
X606437Y473370D01*
X606561Y473330D01*
X606685Y473293D01*
X606811Y473260D01*
X606938Y473231D01*
X607065Y473205D01*
X607193Y473184D01*
X607322Y473166D01*
X607451Y473153D01*
X607581Y473143D01*
X607711Y473137D01*
X607841Y473135D01*
X607971Y473137D01*
X608101Y473143D01*
X608231Y473153D01*
X608360Y473166D01*
X608489Y473184D01*
X608617Y473205D01*
X608744Y473231D01*
X608871Y473260D01*
X608997Y473293D01*
X609121Y473330D01*
X609245Y473370D01*
X609367Y473415D01*
X609488Y473463D01*
X609607Y473514D01*
X609725Y473569D01*
X609841Y473628D01*
X609955Y473690D01*
X610068Y473756D01*
X610178Y473825D01*
X610286Y473897D01*
X610392Y473972D01*
X610495Y474051D01*
X610596Y474133D01*
X610695Y474217D01*
X610791Y474305D01*
X610884Y474396D01*
X610975Y474489D01*
X611063Y474585D01*
X611147Y474684D01*
X611229Y474785D01*
X611308Y474888D01*
X611383Y474994D01*
X611455Y475102D01*
X611524Y475212D01*
X611590Y475325D01*
X611652Y475439D01*
X611711Y475555D01*
X611766Y475673D01*
X611817Y475792D01*
X611865Y475913D01*
X611910Y476035D01*
X611950Y476159D01*
X611987Y476283D01*
X612020Y476409D01*
X612049Y476536D01*
X612075Y476663D01*
X612096Y476791D01*
X612114Y476920D01*
X612127Y477049D01*
X612137Y477179D01*
X612143Y477309D01*
X612145Y477439D01*
X593967Y473135D02*
X593967Y488629D01*
X598271Y488629D02*
X589663Y488629D01*
X657643Y503135D02*
X657643Y518629D01*
X659365Y503135D02*
X655922Y503135D01*
X655922Y518629D02*
X659365Y518629D01*
X650055Y514325D02*
X650055Y507439D01*
X650055Y514325D02*
X650053Y514455D01*
X650047Y514585D01*
X650037Y514715D01*
X650024Y514844D01*
X650006Y514973D01*
X649985Y515101D01*
X649959Y515228D01*
X649930Y515355D01*
X649897Y515481D01*
X649860Y515605D01*
X649820Y515729D01*
X649775Y515851D01*
X649727Y515972D01*
X649676Y516091D01*
X649621Y516209D01*
X649562Y516325D01*
X649500Y516439D01*
X649434Y516552D01*
X649365Y516662D01*
X649293Y516770D01*
X649218Y516876D01*
X649139Y516979D01*
X649057Y517080D01*
X648973Y517179D01*
X648885Y517275D01*
X648794Y517368D01*
X648701Y517459D01*
X648605Y517547D01*
X648506Y517631D01*
X648405Y517713D01*
X648302Y517792D01*
X648196Y517867D01*
X648088Y517939D01*
X647978Y518008D01*
X647865Y518074D01*
X647751Y518136D01*
X647635Y518195D01*
X647517Y518250D01*
X647398Y518301D01*
X647277Y518349D01*
X647155Y518394D01*
X647031Y518434D01*
X646907Y518471D01*
X646781Y518504D01*
X646654Y518533D01*
X646527Y518559D01*
X646399Y518580D01*
X646270Y518598D01*
X646141Y518611D01*
X646011Y518621D01*
X645881Y518627D01*
X645751Y518629D01*
X645621Y518627D01*
X645491Y518621D01*
X645361Y518611D01*
X645232Y518598D01*
X645103Y518580D01*
X644975Y518559D01*
X644848Y518533D01*
X644721Y518504D01*
X644595Y518471D01*
X644471Y518434D01*
X644347Y518394D01*
X644225Y518349D01*
X644104Y518301D01*
X643985Y518250D01*
X643867Y518195D01*
X643751Y518136D01*
X643637Y518074D01*
X643524Y518008D01*
X643414Y517939D01*
X643306Y517867D01*
X643200Y517792D01*
X643097Y517713D01*
X642996Y517631D01*
X642897Y517547D01*
X642801Y517459D01*
X642708Y517368D01*
X642617Y517275D01*
X642529Y517179D01*
X642445Y517080D01*
X642363Y516979D01*
X642284Y516876D01*
X642209Y516770D01*
X642137Y516662D01*
X642068Y516552D01*
X642002Y516439D01*
X641940Y516325D01*
X641881Y516209D01*
X641826Y516091D01*
X641775Y515972D01*
X641727Y515851D01*
X641682Y515729D01*
X641642Y515605D01*
X641605Y515481D01*
X641572Y515355D01*
X641543Y515228D01*
X641517Y515101D01*
X641496Y514973D01*
X641478Y514844D01*
X641465Y514715D01*
X641455Y514585D01*
X641449Y514455D01*
X641447Y514325D01*
X641447Y507439D01*
X641449Y507309D01*
X641455Y507179D01*
X641465Y507049D01*
X641478Y506920D01*
X641496Y506791D01*
X641517Y506663D01*
X641543Y506536D01*
X641572Y506409D01*
X641605Y506283D01*
X641642Y506159D01*
X641682Y506035D01*
X641727Y505913D01*
X641775Y505792D01*
X641826Y505673D01*
X641881Y505555D01*
X641940Y505439D01*
X642002Y505325D01*
X642068Y505212D01*
X642137Y505102D01*
X642209Y504994D01*
X642284Y504888D01*
X642363Y504785D01*
X642445Y504684D01*
X642529Y504585D01*
X642617Y504489D01*
X642708Y504396D01*
X642801Y504305D01*
X642897Y504217D01*
X642996Y504133D01*
X643097Y504051D01*
X643200Y503972D01*
X643306Y503897D01*
X643414Y503825D01*
X643524Y503756D01*
X643637Y503690D01*
X643751Y503628D01*
X643867Y503569D01*
X643985Y503514D01*
X644104Y503463D01*
X644225Y503415D01*
X644347Y503370D01*
X644471Y503330D01*
X644595Y503293D01*
X644721Y503260D01*
X644848Y503231D01*
X644975Y503205D01*
X645103Y503184D01*
X645232Y503166D01*
X645361Y503153D01*
X645491Y503143D01*
X645621Y503137D01*
X645751Y503135D01*
X645881Y503137D01*
X646011Y503143D01*
X646141Y503153D01*
X646270Y503166D01*
X646399Y503184D01*
X646527Y503205D01*
X646654Y503231D01*
X646781Y503260D01*
X646907Y503293D01*
X647031Y503330D01*
X647155Y503370D01*
X647277Y503415D01*
X647398Y503463D01*
X647517Y503514D01*
X647635Y503569D01*
X647751Y503628D01*
X647865Y503690D01*
X647978Y503756D01*
X648088Y503825D01*
X648196Y503897D01*
X648302Y503972D01*
X648405Y504051D01*
X648506Y504133D01*
X648605Y504217D01*
X648701Y504305D01*
X648794Y504396D01*
X648885Y504489D01*
X648973Y504585D01*
X649057Y504684D01*
X649139Y504785D01*
X649218Y504888D01*
X649293Y504994D01*
X649365Y505102D01*
X649434Y505212D01*
X649500Y505325D01*
X649562Y505439D01*
X649621Y505555D01*
X649676Y505673D01*
X649727Y505792D01*
X649775Y505913D01*
X649820Y506035D01*
X649860Y506159D01*
X649897Y506283D01*
X649930Y506409D01*
X649959Y506536D01*
X649985Y506663D01*
X650006Y506791D01*
X650024Y506920D01*
X650037Y507049D01*
X650047Y507179D01*
X650053Y507309D01*
X650055Y507439D01*
X631876Y503135D02*
X631876Y518629D01*
X636180Y518629D02*
X627572Y518629D01*
X621783Y503135D02*
X614896Y503135D01*
X621783Y503135D02*
X621783Y518629D01*
X614896Y518629D01*
X616618Y511743D02*
X621783Y511743D01*
X606016Y503135D02*
X602573Y503135D01*
X606016Y503135D02*
X606131Y503137D01*
X606246Y503143D01*
X606361Y503152D01*
X606475Y503166D01*
X606589Y503183D01*
X606702Y503204D01*
X606814Y503229D01*
X606926Y503257D01*
X607036Y503290D01*
X607145Y503326D01*
X607253Y503365D01*
X607360Y503408D01*
X607465Y503455D01*
X607569Y503505D01*
X607671Y503559D01*
X607771Y503616D01*
X607869Y503676D01*
X607965Y503739D01*
X608058Y503806D01*
X608150Y503876D01*
X608239Y503949D01*
X608326Y504025D01*
X608410Y504103D01*
X608491Y504184D01*
X608570Y504269D01*
X608645Y504355D01*
X608718Y504444D01*
X608788Y504536D01*
X608855Y504629D01*
X608918Y504725D01*
X608978Y504823D01*
X609035Y504923D01*
X609089Y505025D01*
X609139Y505129D01*
X609186Y505234D01*
X609229Y505341D01*
X609269Y505449D01*
X609304Y505558D01*
X609337Y505668D01*
X609365Y505780D01*
X609390Y505892D01*
X609411Y506005D01*
X609428Y506119D01*
X609442Y506233D01*
X609451Y506348D01*
X609457Y506463D01*
X609459Y506578D01*
X609459Y515186D01*
X609457Y515301D01*
X609451Y515416D01*
X609442Y515531D01*
X609428Y515645D01*
X609411Y515759D01*
X609390Y515872D01*
X609365Y515984D01*
X609337Y516096D01*
X609304Y516206D01*
X609269Y516315D01*
X609229Y516423D01*
X609186Y516530D01*
X609139Y516635D01*
X609089Y516739D01*
X609035Y516841D01*
X608978Y516941D01*
X608918Y517039D01*
X608855Y517135D01*
X608788Y517228D01*
X608718Y517320D01*
X608645Y517409D01*
X608570Y517495D01*
X608491Y517580D01*
X608410Y517661D01*
X608326Y517739D01*
X608239Y517815D01*
X608150Y517888D01*
X608058Y517958D01*
X607965Y518025D01*
X607869Y518088D01*
X607771Y518148D01*
X607671Y518205D01*
X607569Y518259D01*
X607465Y518309D01*
X607360Y518356D01*
X607253Y518399D01*
X607145Y518438D01*
X607036Y518474D01*
X606926Y518507D01*
X606814Y518535D01*
X606702Y518560D01*
X606589Y518581D01*
X606475Y518598D01*
X606361Y518612D01*
X606246Y518621D01*
X606131Y518627D01*
X606016Y518629D01*
X602573Y518629D01*
X596538Y518629D02*
X596538Y503135D01*
X596538Y511743D02*
X587930Y511743D01*
X587930Y518629D02*
X587930Y503135D01*
D11*
X682500Y512500D02*
X690000Y520000D01*
X677500Y507500D02*
X670000Y500000D01*
X682500Y512500D02*
X682500Y520000D01*
X677500Y507500D02*
X677500Y500000D01*
X680000Y500000D02*
X680000Y520000D01*
X687500Y522500D02*
X687198Y522676D01*
X686892Y522844D01*
X686581Y523005D01*
X686267Y523158D01*
X685949Y523303D01*
X685628Y523441D01*
X685303Y523571D01*
X684976Y523693D01*
X684645Y523806D01*
X684312Y523912D01*
X683976Y524010D01*
X683638Y524099D01*
X683298Y524180D01*
X682957Y524253D01*
X682613Y524318D01*
X682268Y524374D01*
X681922Y524421D01*
X681574Y524461D01*
X681226Y524491D01*
X680877Y524514D01*
X680528Y524528D01*
X680179Y524533D01*
X679829Y524530D01*
X679480Y524518D01*
X679131Y524498D01*
X678783Y524469D01*
X678435Y524432D01*
X678088Y524386D01*
X677743Y524332D01*
X677399Y524270D01*
X677057Y524199D01*
X676716Y524120D01*
X676378Y524033D01*
X676042Y523937D01*
X675708Y523834D01*
X675377Y523722D01*
X675048Y523602D01*
X674723Y523474D01*
X674401Y523339D01*
X674082Y523195D01*
X673767Y523044D01*
X673456Y522885D01*
X673148Y522719D01*
X672845Y522545D01*
X672546Y522364D01*
X672252Y522176D01*
X671962Y521980D01*
X671677Y521778D01*
X671397Y521568D01*
X671122Y521352D01*
X670853Y521130D01*
X670589Y520901D01*
X670331Y520665D01*
X670078Y520423D01*
X669832Y520175D01*
X669591Y519922D01*
X669357Y519662D01*
X669129Y519397D01*
X668908Y519126D01*
X668693Y518851D01*
X668486Y518570D01*
X668285Y518284D01*
X668091Y517993D01*
X667904Y517697D01*
X667725Y517397D01*
X667552Y517093D01*
X667388Y516785D01*
X667231Y516473D01*
X667081Y516157D01*
X666939Y515837D01*
X666805Y515514D01*
X666679Y515188D01*
X666561Y514859D01*
X666451Y514528D01*
X666349Y514193D01*
X666255Y513857D01*
X666170Y513518D01*
X666093Y513177D01*
X666024Y512834D01*
X665963Y512490D01*
X665911Y512144D01*
X665867Y511797D01*
X665832Y511450D01*
X665805Y511101D01*
X665787Y510752D01*
X665777Y510403D01*
X665775Y510053D01*
X665783Y509704D01*
X665798Y509355D01*
X665823Y509006D01*
X665855Y508658D01*
X665896Y508311D01*
X665946Y507965D01*
X666004Y507620D01*
X666070Y507277D01*
X666145Y506935D01*
X666228Y506596D01*
X666319Y506258D01*
X666418Y505923D01*
X666526Y505591D01*
X666641Y505261D01*
X666765Y504934D01*
X666896Y504610D01*
X667036Y504289D01*
X667183Y503972D01*
X667337Y503659D01*
X667500Y503349D01*
X667670Y503044D01*
X667847Y502743D01*
X668031Y502446D01*
X668223Y502153D01*
X668422Y501866D01*
X668627Y501583D01*
X668840Y501306D01*
X669059Y501033D01*
X669285Y500767D01*
X669517Y500505D01*
X669755Y500250D01*
X670000Y500000D01*
X672500Y497500D02*
X672802Y497324D01*
X673108Y497156D01*
X673419Y496995D01*
X673733Y496842D01*
X674051Y496697D01*
X674372Y496559D01*
X674697Y496429D01*
X675024Y496307D01*
X675355Y496194D01*
X675688Y496088D01*
X676024Y495990D01*
X676362Y495901D01*
X676702Y495820D01*
X677043Y495747D01*
X677387Y495682D01*
X677732Y495626D01*
X678078Y495579D01*
X678426Y495539D01*
X678774Y495509D01*
X679123Y495486D01*
X679472Y495472D01*
X679821Y495467D01*
X680171Y495470D01*
X680520Y495482D01*
X680869Y495502D01*
X681217Y495531D01*
X681565Y495568D01*
X681912Y495614D01*
X682257Y495668D01*
X682601Y495730D01*
X682943Y495801D01*
X683284Y495880D01*
X683622Y495967D01*
X683958Y496063D01*
X684292Y496166D01*
X684623Y496278D01*
X684952Y496398D01*
X685277Y496526D01*
X685599Y496661D01*
X685918Y496805D01*
X686233Y496956D01*
X686544Y497115D01*
X686852Y497281D01*
X687155Y497455D01*
X687454Y497636D01*
X687748Y497824D01*
X688038Y498020D01*
X688323Y498222D01*
X688603Y498432D01*
X688878Y498648D01*
X689147Y498870D01*
X689411Y499099D01*
X689669Y499335D01*
X689922Y499577D01*
X690168Y499825D01*
X690409Y500078D01*
X690643Y500338D01*
X690871Y500603D01*
X691092Y500874D01*
X691307Y501149D01*
X691514Y501430D01*
X691715Y501716D01*
X691909Y502007D01*
X692096Y502303D01*
X692275Y502603D01*
X692448Y502907D01*
X692612Y503215D01*
X692769Y503527D01*
X692919Y503843D01*
X693061Y504163D01*
X693195Y504486D01*
X693321Y504812D01*
X693439Y505141D01*
X693549Y505472D01*
X693651Y505807D01*
X693745Y506143D01*
X693830Y506482D01*
X693907Y506823D01*
X693976Y507166D01*
X694037Y507510D01*
X694089Y507856D01*
X694133Y508203D01*
X694168Y508550D01*
X694195Y508899D01*
X694213Y509248D01*
X694223Y509597D01*
X694225Y509947D01*
X694217Y510296D01*
X694202Y510645D01*
X694177Y510994D01*
X694145Y511342D01*
X694104Y511689D01*
X694054Y512035D01*
X693996Y512380D01*
X693930Y512723D01*
X693855Y513065D01*
X693772Y513404D01*
X693681Y513742D01*
X693582Y514077D01*
X693474Y514409D01*
X693359Y514739D01*
X693235Y515066D01*
X693104Y515390D01*
X692964Y515711D01*
X692817Y516028D01*
X692663Y516341D01*
X692500Y516651D01*
X692330Y516956D01*
X692153Y517257D01*
X691969Y517554D01*
X691777Y517847D01*
X691578Y518134D01*
X691373Y518417D01*
X691160Y518694D01*
X690941Y518967D01*
X690715Y519233D01*
X690483Y519495D01*
X690245Y519750D01*
X690000Y520000D01*
M02*
