G04 EAGLE Gerber RS-274X export*
G75*
%MOMM*%
%FSLAX34Y34*%
%LPD*%
%INSoldermask Bottom*%
%IPPOS*%
%AMOC8*
5,1,8,0,0,1.08239X$1,22.5*%
G01*
%ADD10C,3.203200*%
%ADD11C,2.235200*%
%ADD12R,1.511200X1.511200*%
%ADD13C,1.511200*%
%ADD14C,2.298700*%
%ADD15C,2.303200*%
%ADD16C,3.703200*%
%ADD17C,1.727200*%
%ADD18P,1.869504X8X112.500000*%
%ADD19C,2.451100*%
%ADD20P,1.852186X8X22.500000*%
%ADD21C,0.959600*%


D10*
X172500Y832500D03*
X672500Y832500D03*
X172500Y132500D03*
X672500Y132500D03*
D11*
X820000Y100000D03*
X774280Y100000D03*
D12*
X251125Y418250D03*
X251125Y342050D03*
D13*
X251125Y392850D03*
X251125Y367450D03*
X225725Y367450D03*
X225725Y392850D03*
X225725Y418250D03*
X225725Y342050D03*
D14*
X81278Y904500D02*
X60323Y904500D01*
X60323Y853700D02*
X81278Y853700D01*
X81278Y650500D02*
X60323Y650500D01*
X60323Y802900D02*
X81278Y802900D01*
X81278Y752100D02*
X60323Y752100D01*
X60323Y701300D02*
X81278Y701300D01*
D15*
X722700Y285750D03*
X722700Y440650D03*
D13*
X808400Y429450D03*
X808400Y404050D03*
X808400Y322350D03*
X808400Y296950D03*
X664300Y407600D03*
X664300Y382200D03*
X664300Y356800D03*
X664300Y331400D03*
X689700Y395000D03*
X689700Y369600D03*
X689700Y344200D03*
X689700Y318800D03*
D16*
X753000Y306200D03*
X753000Y420200D03*
D17*
X730120Y550600D02*
X714880Y550600D01*
X714880Y525200D02*
X730120Y525200D01*
X730120Y499800D02*
X714880Y499800D01*
X714880Y474400D02*
X730120Y474400D01*
D18*
X814946Y209894D03*
X814946Y255106D03*
D19*
X790054Y197448D03*
X790054Y267552D03*
D17*
X789880Y652500D02*
X805120Y652500D01*
X805120Y627500D02*
X789880Y627500D01*
X789880Y602500D02*
X805120Y602500D01*
X805120Y777500D02*
X789880Y777500D01*
X789880Y752500D02*
X805120Y752500D01*
X805120Y727500D02*
X789880Y727500D01*
X789880Y902500D02*
X805120Y902500D01*
X805120Y877500D02*
X789880Y877500D01*
X789880Y852500D02*
X805120Y852500D01*
D14*
X81278Y521100D02*
X60323Y521100D01*
X60323Y470300D02*
X81278Y470300D01*
X81278Y63900D02*
X60323Y63900D01*
X60323Y419500D02*
X81278Y419500D01*
X81278Y368700D02*
X60323Y368700D01*
X60323Y114700D02*
X81278Y114700D01*
X81278Y317900D02*
X60323Y317900D01*
X60323Y267100D02*
X81278Y267100D01*
X81278Y165500D02*
X60323Y165500D01*
X60323Y216300D02*
X81278Y216300D01*
D20*
X599600Y887300D03*
X599600Y912700D03*
X625000Y887300D03*
X625000Y912700D03*
X650400Y887300D03*
X650400Y912700D03*
D21*
X440856Y192875D03*
X498004Y181649D03*
X542906Y368401D03*
X393913Y368401D03*
X612300Y816400D03*
X431672Y478615D03*
X646997Y774560D03*
X515353Y732719D03*
X206141Y423508D03*
X570460Y711289D03*
X389831Y419426D03*
X524537Y721494D03*
X631690Y712309D03*
X566378Y680674D03*
X656182Y748027D03*
X425549Y775580D03*
X607198Y865384D03*
X481676Y253084D03*
X357175Y377585D03*
X583726Y731699D03*
X628628Y776601D03*
X413303Y478615D03*
X670469Y708227D03*
X384729Y373503D03*
X628628Y738842D03*
X564337Y781703D03*
X620464Y745986D03*
X97968Y262269D03*
X533722Y702104D03*
X105112Y337786D03*
X483717Y711289D03*
X722514Y927635D03*
X471471Y463307D03*
X457184Y347991D03*
X616382Y321458D03*
X457184Y323499D03*
X644956Y328601D03*
X463307Y315335D03*
X584747Y699043D03*
X621485Y790888D03*
X104091Y184711D03*
X450041Y627608D03*
X137768Y226551D03*
X484738Y679653D03*
X679653Y874569D03*
X105112Y237777D03*
X584747Y748027D03*
X102050Y67353D03*
X551070Y749047D03*
X650059Y691899D03*
X672510Y881712D03*
X508209Y794970D03*
X557193Y763334D03*
X609239Y745986D03*
M02*
