M48
;GenerationSoftware,Autodesk,EAGLE,9.4.0*%
;CreationDate,2019-05-05T19:22:37Z*%
FMAT,2
ICI,OFF
METRIC,TZ,000.000
T11C0.350
T10C0.800
T9C0.813
T8C1.000
T7C1.016
T6C1.270
T5C1.400
T4C1.499
T3C2.032
T2C3.000
T1C3.500
%
G90
M71
T1
X75300Y30620
X75300Y42020
T2
X17250Y83250
X67250Y83250
X17250Y13250
X67250Y13250
T3
X82000Y10000
X77428Y10000
T4
X79005Y19745
X79005Y26755
T5
X72270Y28575
X72270Y44065
T6
X5000Y72345
X5000Y79965
X5000Y76155
X5000Y83775
X5000Y87585
X5000Y91395
X5000Y5130
X5000Y8940
X5000Y16560
X5000Y20370
X5000Y26130
X5000Y29940
X5000Y33750
X5000Y37560
X5000Y41370
X5000Y47345
X5000Y51155
X5000Y57105
X5000Y12750
X5000Y68535
X5000Y64725
X5000Y60915
T7
X79750Y90250
X81495Y20989
X79750Y85250
X79750Y65250
X72250Y47440
X79750Y87750
X79750Y62750
X79750Y60250
X81495Y25511
X79750Y75250
X79750Y72750
X72250Y55060
X72250Y52520
X72250Y49980
X79750Y77750
T8
X66000Y91270
X68540Y88730
X68540Y91270
X40520Y37420
X63460Y88730
X63460Y91270
X66000Y88730
X40520Y34880
X37980Y34880
X37980Y37420
X40520Y39960
X37980Y39960
X40520Y42500
X37980Y42500
X40520Y45040
X37980Y45040
X40520Y47580
X37980Y47580
X40520Y50120
X37980Y50120
T9
X56310Y92000
X48690Y92000
T10
X67255Y64362
X64715Y64362
X62175Y64362
X67255Y61822
X68970Y31880
X68970Y34420
X68970Y36960
X68970Y39500
X69795Y64362
X66430Y33140
X66430Y35680
X66430Y38220
X66430Y40760
X80840Y29695
X80840Y32235
X80840Y40405
X80840Y42945
X69795Y61822
X62175Y61822
X64715Y61822
T11
X49494Y80824
X18675Y60822
X12960Y66537
X15716Y72660
X16736Y67965
X15716Y76027
X18777Y68169
X18879Y75925
X47963Y69088
X43984Y69088
X46943Y65414
X44086Y65414
X28472Y69190
X63577Y41228
X38983Y65516
X18879Y51127
X35207Y82048
X18165Y49392
X31942Y78374
X27758Y58985
X35105Y77456
X28064Y54495
X38065Y64496
X22859Y49086
X37656Y63067
X26329Y16226
X30717Y6327
X55923Y77150
X58066Y77252
X60107Y77252
X54291Y46943
X51637Y5000
X51637Y7041
X51637Y17451
X29697Y57556
X29084Y58985
X26941Y36738
X17757Y40922
X69496Y79803
X30105Y65516
X46331Y47147
X46025Y48882
X55209Y65006
X59291Y74803
X57148Y71843
X39289Y45718
X73578Y70619
X79089Y41432
X71537Y41432
X35309Y36330
X70619Y75313
X68067Y86640
X67149Y78681
X49290Y39493
X65618Y43269
X45412Y35003
X46025Y36432
X68986Y72251
X67149Y49290
X70312Y63067
X53780Y34799
X18165Y39493
X19594Y40922
X51127Y37554
X64904Y46025
X58883Y32452
X57454Y32656
X57250Y34187
X65108Y31125
X52352Y35513
X59087Y68884
X56638Y76435
X58781Y71333
X60516Y69598
X17042Y41636
X59597Y72456
X61842Y71843
X67455Y71945
X63883Y75721
X65822Y65720
X64087Y58781
X62965Y73374
X52352Y11940
X52352Y21839
X52045Y83375
X62761Y74599
X57862Y73476
X13879Y13981
X17246Y17349
X14287Y33064
X18981Y37759
X12450Y14287
X28472Y30003
X19185Y27451
X19390Y35003
X12858Y31329
X18675Y33268
X16838Y25512
X25308Y30411
X20512Y16634
X23880Y16634
X28472Y17042
X21635Y35003
X19594Y15920
X26125Y11940
X21635Y37759
X26227Y9695
X20308Y37759
X11838Y13471
X26125Y7654
X18675Y32248
X49188Y76640
X50209Y83579
X18777Y61842
X20716Y62353
X43269Y90416
X23471Y79089
X31023Y88069
M30