M48
;GenerationSoftware,Autodesk,EAGLE,9.4.0*%
;CreationDate,2019-05-03T13:06:03Z*%
FMAT,2
ICI,OFF
METRIC,TZ,000.000
T11C0.350
T10C0.800
T9C0.813
T8C1.000
T7C1.016
T6C1.270
T5C1.400
T4C1.499
T3C2.032
T2C3.000
T1C3.500
%
G90
M71
T1
X75300Y30620
X75300Y42020
T2
X17250Y83250
X67250Y83250
X17250Y13250
X67250Y13250
T3
X82000Y10000
X77428Y10000
T4
X79005Y19745
X79005Y26755
T5
X72270Y44065
X72270Y28575
T6
X5000Y76155
X5000Y72345
X5000Y79965
X5000Y83775
X5000Y87585
X5000Y91395
X5000Y8940
X5000Y12750
X5000Y16560
X5000Y20370
X5000Y26130
X5000Y29940
X5000Y33750
X5000Y37560
X5000Y41370
X5000Y47345
X5000Y51155
X5000Y57105
X5000Y5130
X5000Y68535
X5000Y64725
X5000Y60915
T7
X79750Y90250
X81495Y20989
X79750Y85250
X79750Y75250
X72250Y47440
X79750Y65250
X79750Y62750
X79750Y60250
X81495Y25511
X79750Y87750
X79750Y72750
X72250Y55060
X72250Y52520
X72250Y49980
X79750Y77750
T8
X66000Y91270
X68540Y88730
X68540Y91270
X40520Y37420
X63460Y88730
X63460Y91270
X66000Y88730
X40520Y34880
X37980Y34880
X37980Y37420
X40520Y39960
X37980Y39960
X40520Y42500
X37980Y42500
X40520Y45040
X37980Y45040
X40520Y47580
X37980Y47580
X40520Y50120
X37980Y50120
T9
X56310Y92000
X48690Y92000
T10
X67255Y61822
X67255Y64362
X64715Y64362
X62175Y64362
X68970Y31880
X68970Y34420
X68970Y36960
X68970Y39500
X69795Y64362
X66430Y33140
X66430Y35680
X66430Y38220
X66430Y40760
X80840Y29695
X80840Y32235
X80840Y40405
X80840Y42945
X69795Y61822
X62175Y61822
X64715Y61822
T11
X46943Y65414
X44086Y65414
X40004Y65108
X24798Y67353
X35207Y82048
X28268Y60107
X44596Y34697
X28268Y59087
X34697Y77048
X22145Y51331
X35411Y70619
X25609Y55045
X35513Y67761
X51637Y5000
X51637Y7041
X51637Y17451
X30207Y57454
X30105Y58985
X58066Y74701
X60107Y77252
X54291Y46943
X33166Y37452
X55617Y76844
X67863Y77966
X58679Y59903
X62250Y60516
X68986Y63067
X59393Y73374
X57454Y71435
X60357Y59541
X32656Y77456
X56714Y55898
X77558Y66537
X17757Y37759
X70721Y75109
X64291Y86334
X67149Y78681
X50730Y50934
X46025Y36126
X61842Y71945
X61842Y67557
X70006Y75823
X71639Y64291
X71639Y56740
X53270Y35309
X53270Y39697
X64394Y46433
X58883Y32452
X57454Y32656
X57250Y34187
X62965Y31125
X53576Y32962
X62965Y72047
X56638Y76742
X56434Y71231
X61026Y69088
X17655Y41024
X35922Y41024
X59189Y71945
X60312Y69802
X42453Y37759
X65108Y69292
X67521Y53581
X62148Y77456
X62250Y74088
X57556Y72558
X52352Y11940
X52352Y21839
X62353Y78476
X65006Y74088
X13777Y13777
X18879Y17349
X13471Y32146
X19083Y37759
X19594Y29799
X20308Y33677
X18165Y31533
X14083Y15205
X25921Y15920
X26125Y8878
X16532Y16634
X23471Y16634
X21635Y31738
X11940Y13573
X24390Y8164
X22349Y33472
X13777Y12756
X23063Y31023
X49188Y76640
X50107Y83579
X18777Y62455
X20716Y62455
X42963Y89600
X23471Y79089
X32962Y88681
X18675Y61434
X13164Y66945
X15716Y72660
X16736Y67965
X15716Y76027
X18777Y65924
X18879Y75925
X47963Y69088
X43984Y69088
M30