M48
;GenerationSoftware,Autodesk,EAGLE,9.3.1*%
;CreationDate,2019-02-25T12:44:22Z*%
FMAT,2
ICI,OFF
METRIC,TZ,000.000
T11C0.350
T10C0.800
T9C0.813
T8C1.000
T7C1.016
T6C1.397
T5C1.400
T4C1.499
T3C2.032
T2C3.000
T1C3.500
%
G90
M71
T1
X75300Y30620
X75300Y42020
T2
X67250Y13250
X17250Y13250
X67250Y83250
X17250Y83250
T3
X82000Y10000
X77428Y10000
T4
X79005Y26755
X79005Y19745
T5
X72270Y44065
X72270Y28575
T6
X7080Y70130
X7080Y75210
X7080Y65050
X7080Y85370
X7080Y90450
X7080Y21630
X7080Y16550
X7080Y26710
X7080Y31790
X7080Y80290
X7080Y11470
X7080Y36870
X7080Y41950
X7080Y6390
X7080Y52110
X7080Y47030
T7
X79750Y65250
X79750Y62750
X79750Y60250
X79750Y77750
X79750Y75250
X79750Y72750
X79750Y90250
X79750Y87750
X79750Y85250
X72250Y49980
X72250Y55060
X72250Y52520
X72250Y47440
X81495Y20989
X81495Y25511
T8
X59960Y88730
X59960Y91270
X62500Y88730
X62500Y91270
X65040Y88730
X65040Y91270
T9
X44440Y90750
X52060Y90750
T10
X80840Y42945
X80840Y40405
X22572Y39285
X80840Y32235
X80840Y29695
X66430Y40760
X66430Y38220
X66430Y35680
X66430Y33140
X68970Y39500
X68970Y36960
X68970Y34420
X68970Y31880
X25112Y41825
X25112Y34205
X25112Y39285
X25112Y36745
X22572Y36745
X22572Y41825
X22572Y34205
T11
X40208Y57964
X45922Y71129
X31533Y37044
X35718Y37044
X59903Y75619
X29084Y40820
X62761Y73986
X40310Y85926
X54903Y69802
X16634Y27860
X21839Y27860
X28370Y38269
X14899Y25104
X58985Y32248
X15307Y38983
X54189Y69088
X52250Y69190
X58781Y70210
X24186Y47759
X29084Y22961
X50923Y30003
X49290Y33983
X13369Y77456
X13369Y69496
X46637Y23063
X62353Y86334
X35718Y38677
X38779Y56536
X34901Y60107
X48576Y70517
X60822Y71741
X46331Y32044
X19287Y10205
X52760Y74905
X50107Y73272
X39391Y34901
X62659Y34595
X58271Y66230
X38473Y40616
X58679Y64598
X39493Y45922
X59903Y68271
X41330Y55719
X63475Y71537
X5103Y54189
X48066Y76742
X52454Y32758
X28370Y45922
X62761Y45820
X30513Y36330
X56127Y11430
X37350Y13471
X30513Y50107
X42861Y35207
X45718Y36024
X16328Y41943
X62046Y70925
X57250Y70925
X43167Y62965
X66537Y87763
X61332Y57250
X61230Y85314
X40208Y54291
X45616Y20206
M30