M48
;GenerationSoftware,Autodesk,EAGLE,9.2.2*%
;CreationDate,2019-01-09T10:08:13Z*%
FMAT,2
ICI,OFF
METRIC,TZ,000.000
T10C0.350
T9C0.800
T8C1.000
T7C1.016
T6C1.397
T5C1.400
T4C1.499
T3C2.032
T2C3.000
T1C3.500
%
G90
M71
T1
X75300Y30620
X75300Y42020
T2
X67250Y13250
X17250Y13250
X67250Y83250
X17250Y83250
T3
X82000Y10000
X77428Y10000
T4
X79005Y26755
X79005Y19745
T5
X72270Y44065
X72270Y28575
T6
X7080Y65050
X7080Y85370
X7080Y90450
X7080Y21630
X7080Y16550
X7080Y26710
X7080Y31790
X7080Y11470
X7080Y36870
X7080Y75210
X7080Y41950
X7080Y6390
X7080Y47030
X7080Y52110
X7080Y70130
X7080Y80290
T7
X79750Y62750
X79750Y60250
X79750Y77750
X79750Y75250
X79750Y72750
X79750Y90250
X79750Y87750
X79750Y85250
X72250Y55060
X72250Y52520
X72250Y49980
X72250Y47440
X81495Y20989
X81495Y25511
X79750Y65250
T8
X65040Y88730
X62500Y91270
X62500Y88730
X59960Y91270
X59960Y88730
X65040Y91270
T9
X80840Y29695
X66430Y40760
X66430Y38220
X66430Y35680
X66430Y33140
X68970Y39500
X68970Y36960
X68970Y34420
X25112Y41825
X25112Y34205
X68970Y31880
X25112Y39285
X25112Y36745
X22572Y36745
X80840Y40405
X22572Y39285
X22572Y41825
X80840Y42945
X22572Y34205
X80840Y32235
T10
X21328Y33677
X23369Y40310
X38983Y79905
X42555Y83477
X46331Y37759
X63883Y78681
X35615Y38473
X38983Y38473
X38983Y41841
X50107Y72864
X17757Y42555
X59189Y64496
X35718Y40616
X60312Y68067
X59393Y68782
X44902Y63271
X60618Y85314
X54597Y25206
X35718Y37452
X67047Y87559
X61332Y83477
X35003Y39902
X65210Y76742
X40106Y42759
X36840Y42759
X33983Y39902
X59699Y73986
X41841Y88579
X53168Y92763
X45718Y36024
X42861Y35207
X45514Y20206
X44698Y18165
X56127Y11430
X13164Y23369
X47453Y62557
X47351Y76640
X36636Y13471
X60720Y69496
X47351Y78068
X47759Y68271
X54189Y71435
X60414Y71741
X50107Y91029
X63475Y71537
X10409Y18471
X60414Y70721
X49290Y31840
X58985Y32146
X48576Y32554
X18777Y41534
X46841Y33370
X59291Y34901
X49188Y34901
X61128Y44188
X55413Y69088
X10205Y6735
X50617Y62557
X57250Y73578
X33268Y39187
X62659Y34595
M30