M48
;GenerationSoftware,Autodesk,EAGLE,9.2.2*%
;CreationDate,2019-01-07T07:04:18Z*%
FMAT,2
ICI,OFF
METRIC,TZ,000.000
T10C0.350
T9C0.800
T8C1.000
T7C1.016
T6C1.397
T5C1.400
T4C1.499
T3C2.032
T2C3.000
T1C3.500
%
G90
M71
T1
X75300Y30620
X75300Y42020
T2
X67250Y13250
X17250Y13250
X67250Y83250
X17250Y83250
T3
X82000Y10000
X77428Y10000
T4
X79005Y26755
X79005Y19745
T5
X72270Y44065
X72270Y28575
T6
X7080Y85370
X7080Y90450
X7080Y21630
X7080Y16550
X7080Y26710
X7080Y31790
X7080Y11470
X7080Y36870
X7080Y41950
X7080Y75210
X7080Y6390
X7080Y47030
X7080Y52110
X7080Y70130
X7080Y80290
X7080Y65050
T7
X79750Y60250
X79750Y77750
X79750Y75250
X79750Y72750
X79750Y90250
X79750Y87750
X79750Y85250
X72250Y55060
X72250Y52520
X72250Y49980
X72250Y47440
X81495Y20989
X81495Y25511
X79750Y65250
X79750Y62750
T8
X65040Y91270
X59960Y88730
X59960Y91270
X62500Y88730
X62500Y91270
X65040Y88730
T9
X80840Y32235
X80840Y40405
X22572Y34205
X80840Y42945
X80840Y29695
X66430Y40760
X66430Y38220
X66430Y35680
X66430Y33140
X68970Y39500
X68970Y36960
X68970Y34420
X68970Y31880
X25112Y41825
X25112Y34205
X25112Y39285
X25112Y36745
X22572Y36745
X22572Y39285
X22572Y41825
T10
X61434Y86538
X59087Y25206
X38473Y37044
X65210Y86436
X61026Y81844
X38473Y39289
X62659Y77660
X62046Y74701
X35309Y37861
X63067Y73374
X9695Y28268
X12960Y55821
X10409Y13471
X67251Y51331
X66843Y87253
X52964Y66639
X48576Y66639
X35718Y39289
X35513Y19287
X49800Y18165
X53474Y34085
X53168Y37350
X48882Y35718
X56230Y26023
X13369Y77456
X13369Y69496
X39187Y36228
X66843Y66843
X54291Y71537
X60924Y75823
X62455Y79395
X60618Y68986
X50923Y72660
X13675Y22859
X59495Y73374
X18777Y40514
X58883Y63781
X35718Y40616
X27656Y45106
X59903Y64496
X46127Y65210
X12858Y9797
X48474Y76435
X59903Y65822
X38473Y34085
X64496Y32860
X39187Y34799
X61434Y32146
X55923Y48576
X38881Y87661
X71435Y59189
X75211Y89804
X48780Y71945
X8674Y43677
X64189Y72251
X42759Y62863
X20614Y72047
X34595Y72047
X63169Y72353
X60209Y45310
M30