G04 EAGLE Gerber RS-274X export*
G75*
%MOMM*%
%FSLAX34Y34*%
%LPD*%
%INBottom Copper*%
%IPPOS*%
%AMOC8*
5,1,8,0,0,1.08239X$1,22.5*%
G01*
%ADD10R,1.308000X1.308000*%
%ADD11C,1.308000*%
%ADD12C,2.100000*%
%ADD13C,1.524000*%
%ADD14C,0.127000*%
%ADD15C,0.101600*%
%ADD16P,1.649562X8X112.500000*%
%ADD17C,2.247900*%
%ADD18P,1.632244X8X22.500000*%
%ADD19C,1.320800*%
%ADD20C,1.905000*%
%ADD21C,0.254000*%
%ADD22C,0.756400*%
%ADD23C,0.203200*%


D10*
X251125Y418250D03*
X251125Y342050D03*
D11*
X251125Y392850D03*
X251125Y367450D03*
X225725Y367450D03*
X225725Y392850D03*
X225725Y418250D03*
X225725Y342050D03*
D12*
X722700Y285750D03*
X722700Y440650D03*
D11*
X808400Y429450D03*
X808400Y404050D03*
X808400Y322350D03*
X808400Y296950D03*
X664300Y407600D03*
X664300Y382200D03*
X664300Y356800D03*
X664300Y331400D03*
X689700Y395000D03*
X689700Y369600D03*
X689700Y344200D03*
X689700Y318800D03*
D13*
X714880Y550600D02*
X730120Y550600D01*
X730120Y525200D02*
X714880Y525200D01*
X714880Y499800D02*
X730120Y499800D01*
X730120Y474400D02*
X714880Y474400D01*
D14*
X200000Y93970D02*
X200000Y66030D01*
X197460Y66030D02*
X197460Y77460D01*
X188570Y68570D01*
X202540Y82540D02*
X211430Y91430D01*
X202540Y93970D02*
X202540Y82540D01*
X208890Y93971D02*
X208551Y94180D01*
X208207Y94381D01*
X207858Y94574D01*
X207505Y94758D01*
X207147Y94933D01*
X206785Y95100D01*
X206419Y95258D01*
X206049Y95407D01*
X205676Y95546D01*
X205299Y95677D01*
X204920Y95798D01*
X204537Y95911D01*
X204152Y96013D01*
X203765Y96107D01*
X203375Y96191D01*
X202984Y96265D01*
X202591Y96330D01*
X202196Y96385D01*
X201800Y96431D01*
X201403Y96467D01*
X201005Y96493D01*
X200607Y96510D01*
X200209Y96517D01*
X199810Y96514D01*
X199412Y96501D01*
X199014Y96479D01*
X198617Y96447D01*
X198220Y96406D01*
X197825Y96355D01*
X197431Y96294D01*
X197039Y96224D01*
X196649Y96144D01*
X196260Y96054D01*
X195874Y95955D01*
X195491Y95847D01*
X195110Y95730D01*
X194732Y95603D01*
X194357Y95467D01*
X193986Y95322D01*
X193618Y95168D01*
X193255Y95005D01*
X192895Y94833D01*
X192540Y94653D01*
X192189Y94464D01*
X191843Y94267D01*
X191501Y94061D01*
X191165Y93847D01*
X190835Y93624D01*
X190509Y93394D01*
X190190Y93156D01*
X189876Y92910D01*
X189568Y92657D01*
X189267Y92396D01*
X188972Y92128D01*
X188684Y91853D01*
X188402Y91571D01*
X188128Y91282D01*
X187860Y90986D01*
X187600Y90684D01*
X187347Y90376D01*
X187102Y90062D01*
X186865Y89742D01*
X186635Y89416D01*
X186414Y89085D01*
X186200Y88748D01*
X185995Y88407D01*
X185798Y88060D01*
X185610Y87709D01*
X185430Y87353D01*
X185259Y86993D01*
X185097Y86629D01*
X184944Y86261D01*
X184800Y85890D01*
X184665Y85515D01*
X184539Y85137D01*
X184422Y84756D01*
X184315Y84372D01*
X184217Y83985D01*
X184128Y83597D01*
X184049Y83206D01*
X183979Y82814D01*
X183920Y82420D01*
X183869Y82025D01*
X183828Y81628D01*
X183797Y81231D01*
X183776Y80833D01*
X183764Y80435D01*
X183762Y80036D01*
X183770Y79638D01*
X183788Y79239D01*
X183815Y78842D01*
X183852Y78445D01*
X183898Y78049D01*
X183954Y77655D01*
X184020Y77261D01*
X184095Y76870D01*
X184180Y76481D01*
X184274Y76093D01*
X184378Y75709D01*
X184491Y75326D01*
X184613Y74947D01*
X184744Y74571D01*
X184885Y74198D01*
X185035Y73829D01*
X185193Y73463D01*
X185361Y73101D01*
X185537Y72744D01*
X185722Y72391D01*
X185915Y72042D01*
X186117Y71699D01*
X186327Y71360D01*
X186545Y71027D01*
X186771Y70699D01*
X187006Y70376D01*
X187248Y70060D01*
X187497Y69749D01*
X187755Y69445D01*
X188019Y69146D01*
X188291Y68855D01*
X188570Y68570D01*
X191110Y66029D02*
X191449Y65820D01*
X191793Y65619D01*
X192142Y65426D01*
X192495Y65242D01*
X192853Y65067D01*
X193215Y64900D01*
X193581Y64742D01*
X193951Y64593D01*
X194324Y64454D01*
X194701Y64323D01*
X195080Y64202D01*
X195463Y64089D01*
X195848Y63987D01*
X196235Y63893D01*
X196625Y63809D01*
X197016Y63735D01*
X197409Y63670D01*
X197804Y63615D01*
X198200Y63569D01*
X198597Y63533D01*
X198995Y63507D01*
X199393Y63490D01*
X199791Y63483D01*
X200190Y63486D01*
X200588Y63499D01*
X200986Y63521D01*
X201383Y63553D01*
X201780Y63594D01*
X202175Y63645D01*
X202569Y63706D01*
X202961Y63776D01*
X203351Y63856D01*
X203740Y63946D01*
X204126Y64045D01*
X204509Y64153D01*
X204890Y64270D01*
X205268Y64397D01*
X205643Y64533D01*
X206014Y64678D01*
X206382Y64832D01*
X206745Y64995D01*
X207105Y65167D01*
X207460Y65347D01*
X207811Y65536D01*
X208157Y65733D01*
X208499Y65939D01*
X208835Y66153D01*
X209165Y66376D01*
X209491Y66606D01*
X209810Y66844D01*
X210124Y67090D01*
X210432Y67343D01*
X210733Y67604D01*
X211028Y67872D01*
X211316Y68147D01*
X211598Y68429D01*
X211872Y68718D01*
X212140Y69014D01*
X212400Y69316D01*
X212653Y69624D01*
X212898Y69938D01*
X213135Y70258D01*
X213365Y70584D01*
X213586Y70915D01*
X213800Y71252D01*
X214005Y71593D01*
X214202Y71940D01*
X214390Y72291D01*
X214570Y72647D01*
X214741Y73007D01*
X214903Y73371D01*
X215056Y73739D01*
X215200Y74110D01*
X215335Y74485D01*
X215461Y74863D01*
X215578Y75244D01*
X215685Y75628D01*
X215783Y76015D01*
X215872Y76403D01*
X215951Y76794D01*
X216021Y77186D01*
X216080Y77580D01*
X216131Y77975D01*
X216172Y78372D01*
X216203Y78769D01*
X216224Y79167D01*
X216236Y79565D01*
X216238Y79964D01*
X216230Y80362D01*
X216212Y80761D01*
X216185Y81158D01*
X216148Y81555D01*
X216102Y81951D01*
X216046Y82345D01*
X215980Y82739D01*
X215905Y83130D01*
X215820Y83519D01*
X215726Y83907D01*
X215622Y84291D01*
X215509Y84674D01*
X215387Y85053D01*
X215256Y85429D01*
X215115Y85802D01*
X214965Y86171D01*
X214807Y86537D01*
X214639Y86899D01*
X214463Y87256D01*
X214278Y87609D01*
X214085Y87958D01*
X213883Y88301D01*
X213673Y88640D01*
X213455Y88973D01*
X213229Y89301D01*
X212994Y89624D01*
X212752Y89940D01*
X212503Y90251D01*
X212245Y90555D01*
X211981Y90854D01*
X211709Y91145D01*
X211430Y91430D01*
D15*
X229944Y57902D02*
X229944Y46218D01*
X231242Y46218D02*
X228646Y46218D01*
X228646Y57902D02*
X231242Y57902D01*
X224045Y54656D02*
X224045Y49464D01*
X224046Y54656D02*
X224044Y54769D01*
X224038Y54882D01*
X224028Y54995D01*
X224014Y55108D01*
X223997Y55220D01*
X223975Y55331D01*
X223950Y55441D01*
X223920Y55551D01*
X223887Y55659D01*
X223850Y55766D01*
X223810Y55872D01*
X223765Y55976D01*
X223717Y56079D01*
X223666Y56180D01*
X223611Y56279D01*
X223553Y56376D01*
X223491Y56471D01*
X223426Y56564D01*
X223358Y56654D01*
X223287Y56742D01*
X223212Y56828D01*
X223135Y56911D01*
X223055Y56991D01*
X222972Y57068D01*
X222886Y57143D01*
X222798Y57214D01*
X222708Y57282D01*
X222615Y57347D01*
X222520Y57409D01*
X222423Y57467D01*
X222324Y57522D01*
X222223Y57573D01*
X222120Y57621D01*
X222016Y57666D01*
X221910Y57706D01*
X221803Y57743D01*
X221695Y57776D01*
X221585Y57806D01*
X221475Y57831D01*
X221364Y57853D01*
X221252Y57870D01*
X221139Y57884D01*
X221026Y57894D01*
X220913Y57900D01*
X220800Y57902D01*
X220687Y57900D01*
X220574Y57894D01*
X220461Y57884D01*
X220348Y57870D01*
X220236Y57853D01*
X220125Y57831D01*
X220015Y57806D01*
X219905Y57776D01*
X219797Y57743D01*
X219690Y57706D01*
X219584Y57666D01*
X219480Y57621D01*
X219377Y57573D01*
X219276Y57522D01*
X219177Y57467D01*
X219080Y57409D01*
X218985Y57347D01*
X218892Y57282D01*
X218802Y57214D01*
X218714Y57143D01*
X218628Y57068D01*
X218545Y56991D01*
X218465Y56911D01*
X218388Y56828D01*
X218313Y56742D01*
X218242Y56654D01*
X218174Y56564D01*
X218109Y56471D01*
X218047Y56376D01*
X217989Y56279D01*
X217934Y56180D01*
X217883Y56079D01*
X217835Y55976D01*
X217790Y55872D01*
X217750Y55766D01*
X217713Y55659D01*
X217680Y55551D01*
X217650Y55441D01*
X217625Y55331D01*
X217603Y55220D01*
X217586Y55108D01*
X217572Y54995D01*
X217562Y54882D01*
X217556Y54769D01*
X217554Y54656D01*
X217554Y49464D01*
X217556Y49351D01*
X217562Y49238D01*
X217572Y49125D01*
X217586Y49012D01*
X217603Y48900D01*
X217625Y48789D01*
X217650Y48679D01*
X217680Y48569D01*
X217713Y48461D01*
X217750Y48354D01*
X217790Y48248D01*
X217835Y48144D01*
X217883Y48041D01*
X217934Y47940D01*
X217989Y47841D01*
X218047Y47744D01*
X218109Y47649D01*
X218174Y47556D01*
X218242Y47466D01*
X218313Y47378D01*
X218388Y47292D01*
X218465Y47209D01*
X218545Y47129D01*
X218628Y47052D01*
X218714Y46977D01*
X218802Y46906D01*
X218892Y46838D01*
X218985Y46773D01*
X219080Y46711D01*
X219177Y46653D01*
X219276Y46598D01*
X219377Y46547D01*
X219480Y46499D01*
X219584Y46454D01*
X219690Y46414D01*
X219797Y46377D01*
X219905Y46344D01*
X220015Y46314D01*
X220125Y46289D01*
X220236Y46267D01*
X220348Y46250D01*
X220461Y46236D01*
X220574Y46226D01*
X220687Y46220D01*
X220800Y46218D01*
X220913Y46220D01*
X221026Y46226D01*
X221139Y46236D01*
X221252Y46250D01*
X221364Y46267D01*
X221475Y46289D01*
X221585Y46314D01*
X221695Y46344D01*
X221803Y46377D01*
X221910Y46414D01*
X222016Y46454D01*
X222120Y46499D01*
X222223Y46547D01*
X222324Y46598D01*
X222423Y46653D01*
X222520Y46711D01*
X222615Y46773D01*
X222708Y46838D01*
X222798Y46906D01*
X222886Y46977D01*
X222972Y47052D01*
X223055Y47129D01*
X223135Y47209D01*
X223212Y47292D01*
X223287Y47378D01*
X223358Y47466D01*
X223426Y47556D01*
X223491Y47649D01*
X223553Y47744D01*
X223611Y47841D01*
X223666Y47940D01*
X223717Y48041D01*
X223765Y48144D01*
X223810Y48248D01*
X223850Y48354D01*
X223887Y48461D01*
X223920Y48569D01*
X223950Y48679D01*
X223975Y48789D01*
X223997Y48900D01*
X224014Y49012D01*
X224028Y49125D01*
X224038Y49238D01*
X224044Y49351D01*
X224046Y49464D01*
X210132Y46218D02*
X210132Y57902D01*
X213377Y57902D02*
X206886Y57902D01*
X202306Y46218D02*
X197113Y46218D01*
X202306Y46218D02*
X202306Y57902D01*
X197113Y57902D01*
X198411Y52709D02*
X202306Y52709D01*
X190240Y46218D02*
X187644Y46218D01*
X190240Y46218D02*
X190339Y46220D01*
X190439Y46226D01*
X190538Y46235D01*
X190636Y46248D01*
X190734Y46265D01*
X190832Y46286D01*
X190928Y46311D01*
X191023Y46339D01*
X191117Y46371D01*
X191210Y46406D01*
X191302Y46445D01*
X191392Y46488D01*
X191480Y46533D01*
X191567Y46583D01*
X191651Y46635D01*
X191734Y46691D01*
X191814Y46749D01*
X191892Y46811D01*
X191967Y46876D01*
X192040Y46944D01*
X192110Y47014D01*
X192178Y47087D01*
X192243Y47162D01*
X192305Y47240D01*
X192363Y47320D01*
X192419Y47403D01*
X192471Y47487D01*
X192521Y47574D01*
X192566Y47662D01*
X192609Y47752D01*
X192648Y47844D01*
X192683Y47937D01*
X192715Y48031D01*
X192743Y48126D01*
X192768Y48222D01*
X192789Y48320D01*
X192806Y48418D01*
X192819Y48516D01*
X192828Y48615D01*
X192834Y48715D01*
X192836Y48814D01*
X192837Y48814D02*
X192837Y55306D01*
X192836Y55306D02*
X192834Y55405D01*
X192828Y55505D01*
X192819Y55604D01*
X192806Y55702D01*
X192789Y55800D01*
X192768Y55898D01*
X192743Y55994D01*
X192715Y56089D01*
X192683Y56183D01*
X192648Y56276D01*
X192609Y56368D01*
X192566Y56458D01*
X192521Y56546D01*
X192471Y56633D01*
X192419Y56717D01*
X192363Y56800D01*
X192305Y56880D01*
X192243Y56958D01*
X192178Y57033D01*
X192110Y57106D01*
X192040Y57176D01*
X191967Y57244D01*
X191892Y57309D01*
X191814Y57371D01*
X191734Y57429D01*
X191651Y57485D01*
X191567Y57537D01*
X191480Y57587D01*
X191392Y57632D01*
X191302Y57675D01*
X191210Y57714D01*
X191117Y57749D01*
X191023Y57781D01*
X190928Y57809D01*
X190832Y57834D01*
X190734Y57855D01*
X190636Y57872D01*
X190538Y57885D01*
X190439Y57894D01*
X190339Y57900D01*
X190240Y57902D01*
X187644Y57902D01*
X182897Y57902D02*
X182897Y46218D01*
X182897Y52709D02*
X176406Y52709D01*
X176406Y57902D02*
X176406Y46218D01*
D16*
X814946Y209894D03*
X814946Y255106D03*
D17*
X790054Y197448D03*
X790054Y267552D03*
D13*
X789880Y652500D02*
X805120Y652500D01*
X805120Y627500D02*
X789880Y627500D01*
X789880Y602500D02*
X805120Y602500D01*
X805120Y777500D02*
X789880Y777500D01*
X789880Y752500D02*
X805120Y752500D01*
X805120Y727500D02*
X789880Y727500D01*
X789880Y902500D02*
X805120Y902500D01*
X805120Y877500D02*
X789880Y877500D01*
X789880Y852500D02*
X805120Y852500D01*
D18*
X599600Y887300D03*
X599600Y912700D03*
X625000Y887300D03*
X625000Y912700D03*
X650400Y887300D03*
X650400Y912700D03*
D19*
X527204Y907500D02*
X513996Y907500D01*
X451004Y907500D02*
X437796Y907500D01*
D20*
X59525Y396450D02*
X40475Y396450D01*
X40475Y358350D02*
X59525Y358350D01*
X59525Y320250D02*
X40475Y320250D01*
X40475Y282150D02*
X59525Y282150D01*
X59525Y244050D02*
X40475Y244050D01*
X40475Y205950D02*
X59525Y205950D01*
X59525Y167850D02*
X40475Y167850D01*
X40475Y129750D02*
X59525Y129750D01*
X59525Y91650D02*
X40475Y91650D01*
X40475Y53550D02*
X59525Y53550D01*
X59525Y915250D02*
X40475Y915250D01*
X40475Y877150D02*
X59525Y877150D01*
X59525Y839050D02*
X40475Y839050D01*
X40475Y800950D02*
X59525Y800950D01*
X59525Y762850D02*
X40475Y762850D01*
X40475Y724750D02*
X59525Y724750D01*
X59525Y598100D02*
X40475Y598100D01*
X40475Y560000D02*
X59525Y560000D01*
X59525Y521900D02*
X40475Y521900D01*
D21*
X48984Y599034D02*
X48984Y698022D01*
X27554Y719453D01*
X27554Y740883D01*
X48984Y762314D01*
X48984Y599034D02*
X50000Y598100D01*
X48984Y762314D02*
X50000Y762850D01*
X48984Y827626D02*
X48984Y838851D01*
X48984Y827626D02*
X27554Y806195D01*
X27554Y784765D01*
X48984Y763334D01*
X48984Y838851D02*
X50000Y839050D01*
X48984Y763334D02*
X50000Y762850D01*
X269412Y418405D02*
X269412Y294925D01*
X269412Y418405D02*
X89804Y598013D01*
X51025Y598013D01*
X50000Y598100D01*
D22*
X269412Y294925D03*
D23*
X251043Y418405D02*
X239818Y418405D01*
X98989Y559234D01*
X50005Y559234D01*
X251043Y418405D02*
X251125Y418250D01*
X50005Y559234D02*
X50000Y560000D01*
X809257Y321458D02*
X809257Y310232D01*
X818441Y301048D01*
X818441Y258187D01*
X815380Y255125D01*
X809257Y321458D02*
X808400Y322350D01*
X814946Y255106D02*
X815380Y255125D01*
X466369Y261248D02*
X466369Y230633D01*
X466369Y261248D02*
X492902Y287781D01*
X798031Y653120D02*
X798031Y705166D01*
X816400Y723535D01*
X816400Y758232D01*
X798031Y776601D01*
X798031Y653120D02*
X797500Y652500D01*
X798031Y776601D02*
X797500Y777500D01*
X798031Y900081D02*
X798031Y902122D01*
X798031Y900081D02*
X816400Y881712D01*
X816400Y795990D01*
X798031Y777621D01*
X798031Y902122D02*
X797500Y902500D01*
X798031Y777621D02*
X797500Y777500D01*
X733229Y513822D02*
X740883Y506168D01*
X733229Y513822D02*
X722514Y524537D01*
X740883Y506168D02*
X740883Y458205D01*
X740373Y457694D02*
X723535Y440856D01*
X740373Y457694D02*
X740883Y458205D01*
X722514Y524537D02*
X722500Y525200D01*
X723535Y440856D02*
X722700Y440650D01*
X798031Y650059D02*
X798031Y652100D01*
X798031Y650059D02*
X816400Y631690D01*
X816400Y596993D01*
X733229Y513822D01*
X798031Y652100D02*
X797500Y652500D01*
X808236Y408200D02*
X808236Y404118D01*
X808236Y408200D02*
X759252Y457184D01*
X740883Y457184D01*
X808236Y404118D02*
X808400Y404050D01*
X740883Y457184D02*
X740373Y457694D01*
X252064Y417385D02*
X252064Y406159D01*
X262269Y395954D01*
X262269Y330642D01*
X252064Y417385D02*
X251125Y418250D01*
D22*
X466369Y230633D03*
X492902Y287781D03*
X262269Y330642D03*
D23*
X623526Y838851D02*
X623526Y873548D01*
X614341Y882733D01*
X614341Y902122D01*
X624546Y912327D01*
X625000Y912700D01*
X397995Y403098D02*
X397995Y395954D01*
X397995Y403098D02*
X642915Y648018D01*
X642915Y760273D01*
X628628Y774560D01*
D22*
X623526Y838851D03*
X397995Y395954D03*
X628628Y774560D03*
D23*
X501066Y732719D02*
X276556Y508209D01*
X276556Y291863D01*
X272474Y287781D01*
X179608Y287781D01*
X174506Y292884D01*
D22*
X501066Y732719D03*
X174506Y292884D03*
D23*
X582706Y652100D02*
X582706Y662305D01*
X582706Y652100D02*
X384729Y454123D01*
X384729Y406159D01*
D22*
X582706Y662305D03*
X384729Y406159D03*
D23*
X402077Y461266D02*
X592911Y652100D01*
D22*
X592911Y652100D03*
X402077Y461266D03*
D23*
X592911Y682715D02*
X599034Y682715D01*
X592911Y682715D02*
X297986Y387790D01*
X297986Y337786D01*
D22*
X599034Y682715D03*
X297986Y337786D03*
D23*
X608218Y712309D02*
X631690Y712309D01*
X608218Y712309D02*
X512291Y616382D01*
X428610Y616382D01*
D22*
X631690Y712309D03*
X428610Y616382D03*
D23*
X625567Y887835D02*
X635772Y887835D01*
X645977Y898040D01*
X655161Y898040D01*
X661284Y891917D01*
X661284Y859261D01*
X645977Y843954D01*
X645977Y777621D01*
X653120Y770478D01*
X653120Y636792D01*
X409221Y392893D01*
X409221Y384729D01*
X625000Y887300D02*
X625567Y887835D01*
D22*
X409221Y384729D03*
D23*
X612300Y827626D02*
X612300Y874569D01*
X600054Y886815D01*
X599600Y887300D01*
X387790Y399016D02*
X387790Y395954D01*
X387790Y399016D02*
X638833Y650059D01*
X638833Y728637D01*
X621485Y745986D01*
D22*
X612300Y827626D03*
X387790Y395954D03*
X621485Y745986D03*
D23*
X645977Y763334D02*
X645977Y767416D01*
X645977Y763334D02*
X646997Y762314D01*
X646997Y636792D01*
X405139Y394934D01*
X405139Y390852D01*
X384729Y370442D01*
X384729Y366360D01*
D22*
X645977Y767416D03*
X384729Y366360D03*
D23*
X580665Y737822D02*
X594952Y737822D01*
X580665Y737822D02*
X460246Y858241D01*
D22*
X594952Y737822D03*
X460246Y858241D03*
D23*
X462287Y666387D02*
X517394Y666387D01*
X462287Y666387D02*
X286761Y490861D01*
X286761Y289822D01*
X177567Y180629D01*
X171444Y180629D01*
X164301Y187772D01*
D22*
X517394Y666387D03*
X164301Y187772D03*
D23*
X521476Y908245D02*
X579644Y908245D01*
X594952Y923553D01*
X726596Y923553D01*
X797011Y853138D01*
X521476Y908245D02*
X520600Y907500D01*
X797011Y853138D02*
X797500Y852500D01*
X457184Y360237D02*
X436774Y360237D01*
X428610Y352073D01*
X457184Y356155D02*
X623526Y189813D01*
X457184Y356155D02*
X457184Y360237D01*
X226551Y380647D02*
X226551Y391872D01*
X226551Y380647D02*
X235736Y371462D01*
X235736Y352073D01*
X226551Y342888D01*
X226551Y391872D02*
X225725Y392850D01*
X226551Y342888D02*
X225725Y342050D01*
X731699Y536783D02*
X797011Y602095D01*
X731699Y536783D02*
X711289Y536783D01*
X675571Y501066D01*
X675571Y465348D01*
X797011Y602095D02*
X797500Y602500D01*
D22*
X457184Y360237D03*
X428610Y352073D03*
X623526Y189813D03*
X675571Y465348D03*
D23*
X590870Y334724D02*
X488820Y334724D01*
X590870Y334724D02*
X611280Y314314D01*
X684756Y314314D01*
X688838Y318396D01*
X689700Y318800D01*
D22*
X488820Y334724D03*
D23*
X614341Y332683D02*
X614341Y321458D01*
X614851Y333193D02*
X663325Y381667D01*
X614851Y333193D02*
X614341Y332683D01*
X663325Y381667D02*
X664300Y382200D01*
X415344Y349011D02*
X405139Y349011D01*
X415344Y349011D02*
X433713Y367380D01*
X580665Y367380D01*
X614851Y333193D01*
D22*
X614341Y321458D03*
X405139Y349011D03*
D23*
X644956Y328601D02*
X646997Y328601D01*
X662305Y343909D01*
X688838Y343909D01*
X689700Y344200D01*
D22*
X644956Y328601D03*
D23*
X589849Y701084D02*
X586788Y701084D01*
X589849Y701084D02*
X614341Y725576D01*
X614341Y819462D01*
X650059Y855179D01*
X650059Y886815D01*
X650400Y887300D01*
X814359Y239818D02*
X814359Y210223D01*
X814359Y239818D02*
X804154Y250023D01*
X804154Y261248D01*
X805175Y262269D01*
X805175Y285740D01*
X783744Y307171D01*
X783744Y346970D01*
X578624Y552091D01*
X814359Y210223D02*
X814946Y209894D01*
D22*
X586788Y701084D03*
X578624Y552091D03*
D23*
X143891Y141850D02*
X138788Y141850D01*
X160729Y158688D02*
X161239Y159198D01*
X160729Y158688D02*
X143891Y141850D01*
X161239Y159198D02*
X190834Y159198D01*
X205121Y144911D01*
X160219Y159198D02*
X160219Y181649D01*
X157157Y184711D01*
X157157Y363298D01*
X213285Y419426D01*
X160219Y159198D02*
X160729Y158688D01*
D22*
X138788Y141850D03*
X205121Y144911D03*
X213285Y419426D03*
D23*
X486779Y679653D02*
X542906Y679653D01*
X178588Y187772D02*
X174506Y187772D01*
X178588Y187772D02*
X282679Y291863D01*
X282679Y492902D01*
X469430Y679653D01*
X486779Y679653D01*
D22*
X486779Y679653D03*
X542906Y679653D03*
X174506Y187772D03*
D23*
X675571Y867425D02*
X675571Y877630D01*
X675571Y867425D02*
X721494Y821503D01*
X721494Y551070D01*
X722500Y550600D01*
D22*
X675571Y877630D03*
D23*
X542906Y759252D02*
X499025Y715371D01*
X476574Y659243D02*
X461266Y659243D01*
X290843Y488820D01*
X290843Y206141D01*
X205121Y120419D01*
D22*
X542906Y759252D03*
X499025Y715371D03*
X476574Y659243D03*
X205121Y120419D03*
D23*
X572501Y735781D02*
X572501Y739863D01*
X545968Y766396D01*
X520455Y766396D01*
X317376Y563316D01*
D22*
X572501Y735781D03*
X317376Y563316D03*
D23*
X602095Y723535D02*
X602095Y869466D01*
X588829Y882733D01*
X588829Y902122D01*
X599034Y912327D01*
X599600Y912700D01*
X586788Y708227D02*
X486779Y708227D01*
X586788Y708227D02*
X602095Y723535D01*
D22*
X602095Y723535D03*
X486779Y708227D03*
D23*
X229613Y331663D02*
X175526Y331663D01*
X229613Y331663D02*
X240838Y342888D01*
X240838Y381667D01*
X251043Y391872D01*
X251125Y392850D01*
D22*
X175526Y331663D03*
M02*
