G04 EAGLE Gerber RS-274X export*
G75*
%MOMM*%
%FSLAX34Y34*%
%LPD*%
%INSoldermask Bottom*%
%IPPOS*%
%AMOC8*
5,1,8,0,0,1.08239X$1,22.5*%
G01*
%ADD10C,3.203200*%
%ADD11C,2.235200*%
%ADD12R,1.511200X1.511200*%
%ADD13C,1.511200*%
%ADD14C,2.303200*%
%ADD15C,3.703200*%
%ADD16C,1.727200*%
%ADD17P,1.869504X8X112.500000*%
%ADD18C,2.451100*%
%ADD19P,1.852186X8X22.500000*%
%ADD20C,1.524000*%
%ADD21C,2.108200*%
%ADD22C,0.959600*%


D10*
X172500Y832500D03*
X672500Y832500D03*
X172500Y132500D03*
X672500Y132500D03*
D11*
X820000Y100000D03*
X774280Y100000D03*
D12*
X251125Y418250D03*
X251125Y342050D03*
D13*
X251125Y392850D03*
X251125Y367450D03*
X225725Y367450D03*
X225725Y392850D03*
X225725Y418250D03*
X225725Y342050D03*
D14*
X722700Y285750D03*
X722700Y440650D03*
D13*
X808400Y429450D03*
X808400Y404050D03*
X808400Y322350D03*
X808400Y296950D03*
X664300Y407600D03*
X664300Y382200D03*
X664300Y356800D03*
X664300Y331400D03*
X689700Y395000D03*
X689700Y369600D03*
X689700Y344200D03*
X689700Y318800D03*
D15*
X753000Y306200D03*
X753000Y420200D03*
D16*
X730120Y550600D02*
X714880Y550600D01*
X714880Y525200D02*
X730120Y525200D01*
X730120Y499800D02*
X714880Y499800D01*
X714880Y474400D02*
X730120Y474400D01*
D17*
X814946Y209894D03*
X814946Y255106D03*
D18*
X790054Y197448D03*
X790054Y267552D03*
D16*
X789880Y652500D02*
X805120Y652500D01*
X805120Y627500D02*
X789880Y627500D01*
X789880Y602500D02*
X805120Y602500D01*
X805120Y777500D02*
X789880Y777500D01*
X789880Y752500D02*
X805120Y752500D01*
X805120Y727500D02*
X789880Y727500D01*
X789880Y902500D02*
X805120Y902500D01*
X805120Y877500D02*
X789880Y877500D01*
X789880Y852500D02*
X805120Y852500D01*
D19*
X599600Y887300D03*
X599600Y912700D03*
X625000Y887300D03*
X625000Y912700D03*
X650400Y887300D03*
X650400Y912700D03*
D20*
X527204Y907500D02*
X513996Y907500D01*
X451004Y907500D02*
X437796Y907500D01*
D21*
X59525Y396450D02*
X40475Y396450D01*
X40475Y358350D02*
X59525Y358350D01*
X59525Y320250D02*
X40475Y320250D01*
X40475Y282150D02*
X59525Y282150D01*
X59525Y244050D02*
X40475Y244050D01*
X40475Y205950D02*
X59525Y205950D01*
X59525Y167850D02*
X40475Y167850D01*
X40475Y129750D02*
X59525Y129750D01*
X59525Y91650D02*
X40475Y91650D01*
X40475Y53550D02*
X59525Y53550D01*
X59525Y915250D02*
X40475Y915250D01*
X40475Y877150D02*
X59525Y877150D01*
X59525Y839050D02*
X40475Y839050D01*
X40475Y800950D02*
X59525Y800950D01*
X59525Y762850D02*
X40475Y762850D01*
X40475Y724750D02*
X59525Y724750D01*
X59525Y598100D02*
X40475Y598100D01*
X40475Y560000D02*
X59525Y560000D01*
X59525Y521900D02*
X40475Y521900D01*
D22*
X269412Y294925D03*
X466369Y230633D03*
X492902Y287781D03*
X262269Y330642D03*
X623526Y838851D03*
X397995Y395954D03*
X628628Y774560D03*
X501066Y732719D03*
X174506Y292884D03*
X582706Y662305D03*
X384729Y406159D03*
X592911Y652100D03*
X402077Y461266D03*
X599034Y682715D03*
X297986Y337786D03*
X631690Y712309D03*
X428610Y616382D03*
X409221Y384729D03*
X612300Y827626D03*
X387790Y395954D03*
X621485Y745986D03*
X645977Y767416D03*
X384729Y366360D03*
X594952Y737822D03*
X460246Y858241D03*
X517394Y666387D03*
X164301Y187772D03*
X457184Y360237D03*
X428610Y352073D03*
X623526Y189813D03*
X675571Y465348D03*
X488820Y334724D03*
X614341Y321458D03*
X405139Y349011D03*
X644956Y328601D03*
X586788Y701084D03*
X578624Y552091D03*
X138788Y141850D03*
X205121Y144911D03*
X213285Y419426D03*
X486779Y679653D03*
X542906Y679653D03*
X174506Y187772D03*
X675571Y877630D03*
X542906Y759252D03*
X499025Y715371D03*
X476574Y659243D03*
X205121Y120419D03*
X572501Y735781D03*
X317376Y563316D03*
X602095Y723535D03*
X486779Y708227D03*
X175526Y331663D03*
M02*
