G04 EAGLE Gerber RS-274X export*
G75*
%MOMM*%
%FSLAX34Y34*%
%LPD*%
%INBottom Copper*%
%IPPOS*%
%AMOC8*
5,1,8,0,0,1.08239X$1,22.5*%
G01*
%ADD10R,1.308000X1.308000*%
%ADD11C,1.308000*%
%ADD12C,2.100000*%
%ADD13C,1.524000*%
%ADD14C,0.127000*%
%ADD15C,0.101600*%
%ADD16P,1.649562X8X112.500000*%
%ADD17C,2.247900*%
%ADD18P,1.632244X8X22.500000*%
%ADD19C,1.320800*%
%ADD20C,1.905000*%
%ADD21P,1.632244X8X112.500000*%
%ADD22C,0.254000*%
%ADD23C,0.756400*%
%ADD24C,0.203200*%

G36*
X833336Y10926D02*
X833336Y10926D01*
X833355Y10924D01*
X833457Y10946D01*
X833559Y10962D01*
X833576Y10972D01*
X833596Y10976D01*
X833685Y11029D01*
X833776Y11078D01*
X833790Y11092D01*
X833807Y11102D01*
X833874Y11181D01*
X833946Y11256D01*
X833954Y11274D01*
X833967Y11289D01*
X834006Y11385D01*
X834049Y11479D01*
X834051Y11499D01*
X834059Y11517D01*
X834077Y11684D01*
X834077Y83502D01*
X834066Y83572D01*
X834064Y83644D01*
X834046Y83693D01*
X834038Y83744D01*
X834004Y83808D01*
X833979Y83875D01*
X833947Y83916D01*
X833922Y83962D01*
X833870Y84011D01*
X833826Y84067D01*
X833782Y84095D01*
X833744Y84131D01*
X833679Y84161D01*
X833619Y84200D01*
X833568Y84213D01*
X833521Y84235D01*
X833450Y84243D01*
X833380Y84260D01*
X833328Y84256D01*
X833277Y84262D01*
X833206Y84247D01*
X833135Y84241D01*
X833087Y84221D01*
X833036Y84210D01*
X832975Y84173D01*
X832909Y84145D01*
X832853Y84100D01*
X832825Y84083D01*
X832810Y84066D01*
X832778Y84040D01*
X831511Y82773D01*
X824042Y79679D01*
X815958Y79679D01*
X808489Y82773D01*
X802773Y88489D01*
X799679Y95958D01*
X799679Y104042D01*
X802773Y111511D01*
X808489Y117227D01*
X815958Y120321D01*
X824042Y120321D01*
X831511Y117227D01*
X832778Y115960D01*
X832836Y115918D01*
X832888Y115869D01*
X832935Y115847D01*
X832977Y115817D01*
X833046Y115795D01*
X833111Y115765D01*
X833163Y115760D01*
X833213Y115744D01*
X833284Y115746D01*
X833355Y115738D01*
X833406Y115749D01*
X833458Y115751D01*
X833526Y115775D01*
X833596Y115790D01*
X833641Y115817D01*
X833689Y115835D01*
X833745Y115880D01*
X833807Y115917D01*
X833841Y115956D01*
X833881Y115989D01*
X833920Y116049D01*
X833967Y116104D01*
X833986Y116152D01*
X834014Y116196D01*
X834032Y116265D01*
X834059Y116332D01*
X834067Y116403D01*
X834075Y116434D01*
X834073Y116457D01*
X834077Y116498D01*
X834077Y953316D01*
X834074Y953336D01*
X834076Y953355D01*
X834054Y953457D01*
X834038Y953559D01*
X834028Y953576D01*
X834024Y953596D01*
X833971Y953685D01*
X833922Y953776D01*
X833908Y953790D01*
X833898Y953807D01*
X833819Y953874D01*
X833744Y953946D01*
X833726Y953954D01*
X833711Y953967D01*
X833615Y954006D01*
X833521Y954049D01*
X833501Y954051D01*
X833483Y954059D01*
X833316Y954077D01*
X11684Y954077D01*
X11664Y954074D01*
X11645Y954076D01*
X11543Y954054D01*
X11441Y954038D01*
X11424Y954028D01*
X11404Y954024D01*
X11315Y953971D01*
X11224Y953922D01*
X11210Y953908D01*
X11193Y953898D01*
X11126Y953819D01*
X11054Y953744D01*
X11046Y953726D01*
X11033Y953711D01*
X10994Y953615D01*
X10951Y953521D01*
X10949Y953501D01*
X10941Y953483D01*
X10923Y953316D01*
X10923Y11684D01*
X10926Y11664D01*
X10924Y11645D01*
X10946Y11543D01*
X10962Y11441D01*
X10972Y11424D01*
X10976Y11404D01*
X11029Y11315D01*
X11078Y11224D01*
X11092Y11210D01*
X11102Y11193D01*
X11181Y11126D01*
X11256Y11054D01*
X11274Y11046D01*
X11289Y11033D01*
X11385Y10994D01*
X11479Y10951D01*
X11499Y10949D01*
X11517Y10941D01*
X11684Y10923D01*
X833316Y10923D01*
X833336Y10926D01*
G37*
%LPC*%
G36*
X810527Y199225D02*
X810527Y199225D01*
X804277Y205475D01*
X804277Y214313D01*
X810071Y220107D01*
X810124Y220181D01*
X810184Y220251D01*
X810196Y220281D01*
X810215Y220307D01*
X810242Y220394D01*
X810276Y220479D01*
X810280Y220520D01*
X810287Y220542D01*
X810286Y220574D01*
X810294Y220645D01*
X810294Y237819D01*
X810280Y237909D01*
X810272Y238000D01*
X810260Y238029D01*
X810255Y238061D01*
X810212Y238142D01*
X810176Y238226D01*
X810150Y238258D01*
X810139Y238279D01*
X810116Y238301D01*
X810071Y238357D01*
X800089Y248339D01*
X800089Y255543D01*
X800078Y255614D01*
X800076Y255685D01*
X800058Y255734D01*
X800050Y255786D01*
X800016Y255849D01*
X799991Y255916D01*
X799959Y255957D01*
X799934Y256003D01*
X799882Y256052D01*
X799838Y256108D01*
X799794Y256136D01*
X799756Y256172D01*
X799691Y256203D01*
X799631Y256241D01*
X799580Y256254D01*
X799533Y256276D01*
X799462Y256284D01*
X799392Y256301D01*
X799340Y256297D01*
X799289Y256303D01*
X799218Y256288D01*
X799147Y256282D01*
X799099Y256262D01*
X799048Y256251D01*
X798987Y256214D01*
X798921Y256186D01*
X798865Y256141D01*
X798837Y256125D01*
X798822Y256107D01*
X798790Y256081D01*
X798148Y255439D01*
X792896Y253264D01*
X787212Y253264D01*
X781960Y255439D01*
X777941Y259458D01*
X775766Y264710D01*
X775766Y270394D01*
X777941Y275646D01*
X781960Y279665D01*
X787212Y281840D01*
X792896Y281840D01*
X798148Y279665D01*
X799810Y278002D01*
X799868Y277961D01*
X799920Y277911D01*
X799968Y277889D01*
X800010Y277859D01*
X800078Y277838D01*
X800144Y277808D01*
X800195Y277802D01*
X800245Y277786D01*
X800317Y277788D01*
X800388Y277780D01*
X800439Y277791D01*
X800491Y277793D01*
X800558Y277817D01*
X800628Y277833D01*
X800673Y277859D01*
X800722Y277877D01*
X800778Y277922D01*
X800839Y277959D01*
X800873Y277998D01*
X800914Y278031D01*
X800953Y278091D01*
X800999Y278146D01*
X801019Y278194D01*
X801047Y278238D01*
X801064Y278307D01*
X801091Y278374D01*
X801099Y278445D01*
X801107Y278476D01*
X801105Y278500D01*
X801110Y278541D01*
X801110Y283741D01*
X801095Y283831D01*
X801088Y283922D01*
X801075Y283952D01*
X801070Y283984D01*
X801027Y284064D01*
X800992Y284148D01*
X800966Y284180D01*
X800955Y284201D01*
X800932Y284223D01*
X800887Y284279D01*
X782588Y302578D01*
X782584Y302581D01*
X782581Y302585D01*
X782484Y302653D01*
X782388Y302722D01*
X782383Y302723D01*
X782379Y302726D01*
X782266Y302759D01*
X782153Y302794D01*
X782148Y302794D01*
X782143Y302795D01*
X782026Y302791D01*
X781907Y302788D01*
X781902Y302786D01*
X781897Y302785D01*
X781788Y302744D01*
X781676Y302703D01*
X781672Y302700D01*
X781667Y302698D01*
X781577Y302624D01*
X781484Y302549D01*
X781482Y302545D01*
X781477Y302542D01*
X781415Y302442D01*
X781351Y302342D01*
X781350Y302337D01*
X781347Y302333D01*
X781300Y302172D01*
X780248Y296205D01*
X775250Y287548D01*
X767592Y281122D01*
X758198Y277703D01*
X748202Y277703D01*
X738808Y281122D01*
X736608Y282968D01*
X736572Y282990D01*
X736540Y283019D01*
X736467Y283052D01*
X736397Y283094D01*
X736355Y283103D01*
X736316Y283120D01*
X736236Y283128D01*
X736156Y283145D01*
X736114Y283141D01*
X736072Y283145D01*
X735993Y283127D01*
X735912Y283118D01*
X735873Y283100D01*
X735832Y283090D01*
X735762Y283048D01*
X735689Y283013D01*
X735658Y282984D01*
X735622Y282962D01*
X735570Y282899D01*
X735511Y282843D01*
X735491Y282806D01*
X735464Y282773D01*
X735401Y282635D01*
X735397Y282626D01*
X735396Y282623D01*
X735395Y282620D01*
X734785Y280744D01*
X733853Y278915D01*
X732647Y277254D01*
X731196Y275803D01*
X729535Y274597D01*
X727706Y273665D01*
X725754Y273030D01*
X724223Y272788D01*
X724223Y284988D01*
X724221Y285001D01*
X724222Y285012D01*
X724221Y285017D01*
X724222Y285027D01*
X724200Y285129D01*
X724183Y285231D01*
X724174Y285248D01*
X724170Y285268D01*
X724117Y285357D01*
X724068Y285448D01*
X724054Y285462D01*
X724044Y285479D01*
X723965Y285546D01*
X723890Y285617D01*
X723872Y285626D01*
X723857Y285639D01*
X723761Y285677D01*
X723667Y285721D01*
X723647Y285723D01*
X723629Y285731D01*
X723462Y285749D01*
X722699Y285749D01*
X722699Y285751D01*
X723462Y285751D01*
X723482Y285754D01*
X723501Y285752D01*
X723603Y285774D01*
X723705Y285791D01*
X723722Y285800D01*
X723742Y285804D01*
X723831Y285857D01*
X723922Y285906D01*
X723936Y285920D01*
X723953Y285930D01*
X724020Y286009D01*
X724091Y286084D01*
X724100Y286102D01*
X724113Y286117D01*
X724152Y286213D01*
X724195Y286307D01*
X724197Y286327D01*
X724205Y286345D01*
X724223Y286512D01*
X724223Y298712D01*
X724699Y298637D01*
X724721Y298637D01*
X724743Y298631D01*
X724844Y298638D01*
X724944Y298638D01*
X724966Y298645D01*
X724988Y298647D01*
X725082Y298685D01*
X725177Y298718D01*
X725195Y298731D01*
X725216Y298740D01*
X725292Y298806D01*
X725372Y298867D01*
X725385Y298886D01*
X725402Y298901D01*
X725453Y298988D01*
X725510Y299071D01*
X725516Y299093D01*
X725527Y299113D01*
X725548Y299211D01*
X725575Y299309D01*
X725573Y299331D01*
X725578Y299353D01*
X725567Y299521D01*
X724416Y306050D01*
X726152Y315895D01*
X731150Y324552D01*
X738808Y330978D01*
X748202Y334397D01*
X758198Y334397D01*
X767592Y330978D01*
X775250Y324552D01*
X778259Y319340D01*
X778289Y319303D01*
X778312Y319261D01*
X778367Y319209D01*
X778415Y319150D01*
X778455Y319125D01*
X778490Y319091D01*
X778559Y319060D01*
X778623Y319019D01*
X778670Y319008D01*
X778713Y318988D01*
X778788Y318979D01*
X778862Y318962D01*
X778910Y318966D01*
X778957Y318961D01*
X779032Y318977D01*
X779107Y318984D01*
X779151Y319003D01*
X779198Y319013D01*
X779263Y319052D01*
X779332Y319082D01*
X779368Y319115D01*
X779409Y319139D01*
X779458Y319197D01*
X779514Y319248D01*
X779538Y319290D01*
X779569Y319326D01*
X779597Y319397D01*
X779634Y319463D01*
X779643Y319510D01*
X779661Y319554D01*
X779675Y319683D01*
X779679Y319704D01*
X779678Y319711D01*
X779679Y319721D01*
X779679Y406679D01*
X779672Y406726D01*
X779673Y406774D01*
X779652Y406847D01*
X779640Y406922D01*
X779617Y406964D01*
X779603Y407010D01*
X779560Y407072D01*
X779524Y407139D01*
X779490Y407172D01*
X779462Y407211D01*
X779401Y407256D01*
X779346Y407309D01*
X779303Y407329D01*
X779264Y407357D01*
X779192Y407380D01*
X779123Y407412D01*
X779075Y407417D01*
X779030Y407432D01*
X778954Y407431D01*
X778879Y407439D01*
X778832Y407429D01*
X778784Y407428D01*
X778712Y407403D01*
X778638Y407387D01*
X778597Y407362D01*
X778552Y407346D01*
X778492Y407300D01*
X778427Y407261D01*
X778396Y407224D01*
X778358Y407195D01*
X778282Y407091D01*
X778267Y407074D01*
X778265Y407068D01*
X778259Y407060D01*
X775250Y401848D01*
X767592Y395422D01*
X758198Y392003D01*
X748202Y392003D01*
X738808Y395422D01*
X731150Y401848D01*
X726152Y410505D01*
X724416Y420350D01*
X725567Y426879D01*
X725568Y426902D01*
X725574Y426924D01*
X725569Y427024D01*
X725570Y427125D01*
X725563Y427147D01*
X725562Y427169D01*
X725526Y427263D01*
X725495Y427359D01*
X725481Y427377D01*
X725473Y427398D01*
X725408Y427476D01*
X725348Y427557D01*
X725330Y427570D01*
X725315Y427587D01*
X725229Y427640D01*
X725147Y427698D01*
X725125Y427704D01*
X725106Y427716D01*
X725007Y427739D01*
X724911Y427767D01*
X724888Y427766D01*
X724866Y427771D01*
X724699Y427763D01*
X724223Y427688D01*
X724223Y439127D01*
X731201Y439127D01*
X731258Y439136D01*
X731316Y439136D01*
X731379Y439156D01*
X731443Y439167D01*
X731495Y439194D01*
X731550Y439212D01*
X731633Y439267D01*
X731661Y439282D01*
X731671Y439292D01*
X731690Y439305D01*
X733506Y440829D01*
X733574Y440908D01*
X733646Y440984D01*
X733654Y441001D01*
X733666Y441015D01*
X733706Y441112D01*
X733750Y441207D01*
X733752Y441226D01*
X733759Y441243D01*
X733765Y441348D01*
X733777Y441451D01*
X733773Y441470D01*
X733774Y441489D01*
X733747Y441589D01*
X733725Y441692D01*
X733715Y441708D01*
X733710Y441726D01*
X733652Y441813D01*
X733599Y441903D01*
X733584Y441915D01*
X733574Y441931D01*
X733491Y441995D01*
X733412Y442063D01*
X733394Y442070D01*
X733379Y442081D01*
X733281Y442116D01*
X733183Y442155D01*
X733161Y442157D01*
X733147Y442162D01*
X733115Y442162D01*
X733017Y442173D01*
X724223Y442173D01*
X724223Y453612D01*
X725754Y453370D01*
X727706Y452735D01*
X729535Y451803D01*
X731196Y450597D01*
X732647Y449146D01*
X733853Y447485D01*
X734785Y445656D01*
X735395Y443780D01*
X735414Y443742D01*
X735426Y443701D01*
X735471Y443633D01*
X735508Y443561D01*
X735538Y443532D01*
X735562Y443496D01*
X735626Y443446D01*
X735684Y443390D01*
X735723Y443372D01*
X735756Y443346D01*
X735833Y443319D01*
X735906Y443284D01*
X735949Y443279D01*
X735989Y443265D01*
X736070Y443264D01*
X736151Y443254D01*
X736192Y443263D01*
X736235Y443263D01*
X736312Y443288D01*
X736391Y443304D01*
X736428Y443326D01*
X736469Y443339D01*
X736595Y443423D01*
X736604Y443428D01*
X736605Y443430D01*
X736608Y443432D01*
X738808Y445278D01*
X748202Y448697D01*
X758198Y448697D01*
X767592Y445278D01*
X775250Y438852D01*
X778259Y433640D01*
X778289Y433603D01*
X778312Y433561D01*
X778367Y433509D01*
X778415Y433450D01*
X778455Y433424D01*
X778490Y433391D01*
X778559Y433359D01*
X778623Y433319D01*
X778670Y433308D01*
X778713Y433288D01*
X778788Y433279D01*
X778862Y433262D01*
X778910Y433266D01*
X778957Y433261D01*
X779032Y433277D01*
X779107Y433284D01*
X779151Y433303D01*
X779198Y433313D01*
X779263Y433352D01*
X779332Y433382D01*
X779368Y433415D01*
X779409Y433439D01*
X779458Y433497D01*
X779514Y433548D01*
X779538Y433590D01*
X779569Y433626D01*
X779597Y433696D01*
X779634Y433763D01*
X779643Y433810D01*
X779661Y433854D01*
X779675Y433982D01*
X779679Y434004D01*
X779678Y434011D01*
X779679Y434021D01*
X779679Y489882D01*
X779665Y489972D01*
X779657Y490063D01*
X779645Y490093D01*
X779640Y490125D01*
X779597Y490205D01*
X779561Y490289D01*
X779535Y490321D01*
X779524Y490342D01*
X779501Y490364D01*
X779456Y490420D01*
X743504Y526372D01*
X741182Y528695D01*
X741127Y528735D01*
X741078Y528782D01*
X741027Y528806D01*
X740982Y528839D01*
X740917Y528858D01*
X740856Y528888D01*
X740800Y528894D01*
X740747Y528911D01*
X740679Y528909D01*
X740612Y528917D01*
X740557Y528906D01*
X740501Y528905D01*
X740437Y528881D01*
X740371Y528868D01*
X740323Y528839D01*
X740270Y528820D01*
X740217Y528778D01*
X740158Y528744D01*
X740122Y528701D01*
X740078Y528666D01*
X740041Y528609D01*
X739997Y528558D01*
X739975Y528507D01*
X739945Y528459D01*
X739928Y528394D01*
X739902Y528331D01*
X739899Y528275D01*
X739885Y528221D01*
X739890Y528153D01*
X739885Y528086D01*
X739901Y528008D01*
X739904Y527976D01*
X739912Y527957D01*
X739919Y527921D01*
X740031Y527579D01*
X740166Y526723D01*
X723262Y526723D01*
X723242Y526720D01*
X723223Y526722D01*
X723121Y526700D01*
X723019Y526683D01*
X723002Y526674D01*
X722982Y526670D01*
X722893Y526617D01*
X722802Y526568D01*
X722788Y526554D01*
X722771Y526544D01*
X722704Y526465D01*
X722633Y526390D01*
X722624Y526372D01*
X722611Y526357D01*
X722573Y526261D01*
X722529Y526167D01*
X722527Y526147D01*
X722519Y526129D01*
X722501Y525962D01*
X722501Y525199D01*
X721738Y525199D01*
X721718Y525196D01*
X721699Y525198D01*
X721597Y525176D01*
X721495Y525159D01*
X721478Y525150D01*
X721458Y525146D01*
X721369Y525093D01*
X721278Y525044D01*
X721264Y525030D01*
X721247Y525020D01*
X721180Y524941D01*
X721109Y524866D01*
X721100Y524848D01*
X721087Y524833D01*
X721048Y524737D01*
X721005Y524643D01*
X721003Y524623D01*
X720995Y524605D01*
X720977Y524438D01*
X720977Y515039D01*
X714080Y515039D01*
X712501Y515289D01*
X710980Y515784D01*
X709555Y516510D01*
X708261Y517450D01*
X707130Y518581D01*
X706190Y519875D01*
X705464Y521300D01*
X704969Y522821D01*
X704944Y522981D01*
X704940Y522992D01*
X704940Y523004D01*
X704902Y523109D01*
X704867Y523214D01*
X704860Y523224D01*
X704856Y523235D01*
X704786Y523322D01*
X704719Y523411D01*
X704709Y523418D01*
X704702Y523427D01*
X704608Y523488D01*
X704517Y523550D01*
X704505Y523554D01*
X704495Y523560D01*
X704387Y523587D01*
X704280Y523618D01*
X704268Y523617D01*
X704256Y523620D01*
X704146Y523612D01*
X704034Y523606D01*
X704023Y523602D01*
X704011Y523601D01*
X703909Y523558D01*
X703805Y523517D01*
X703796Y523510D01*
X703785Y523505D01*
X703654Y523400D01*
X677565Y497311D01*
X677497Y497216D01*
X677427Y497122D01*
X677425Y497116D01*
X677421Y497111D01*
X677387Y497000D01*
X677351Y496888D01*
X677351Y496882D01*
X677349Y496876D01*
X677352Y496759D01*
X677353Y496642D01*
X677355Y496635D01*
X677355Y496630D01*
X677362Y496613D01*
X677400Y496481D01*
X678320Y494260D01*
X678320Y491543D01*
X677280Y489032D01*
X675358Y487111D01*
X672848Y486071D01*
X670130Y486071D01*
X667620Y487111D01*
X665698Y489032D01*
X665392Y489772D01*
X665367Y489811D01*
X665352Y489854D01*
X665303Y489915D01*
X665262Y489981D01*
X665227Y490011D01*
X665198Y490046D01*
X665133Y490088D01*
X665073Y490138D01*
X665030Y490155D01*
X664991Y490179D01*
X664916Y490198D01*
X664843Y490226D01*
X664797Y490228D01*
X664753Y490239D01*
X664675Y490233D01*
X664597Y490237D01*
X664553Y490224D01*
X664507Y490220D01*
X664436Y490190D01*
X664361Y490168D01*
X664323Y490142D01*
X664281Y490124D01*
X664174Y490039D01*
X664159Y490028D01*
X664156Y490024D01*
X664150Y490019D01*
X660469Y486338D01*
X660416Y486264D01*
X660357Y486195D01*
X660345Y486165D01*
X660326Y486139D01*
X660299Y486051D01*
X660265Y485967D01*
X660260Y485926D01*
X660253Y485903D01*
X660254Y485871D01*
X660246Y485800D01*
X660246Y438603D01*
X660261Y438513D01*
X660268Y438422D01*
X660281Y438392D01*
X660286Y438360D01*
X660329Y438279D01*
X660364Y438195D01*
X660390Y438163D01*
X660401Y438143D01*
X660424Y438120D01*
X660469Y438064D01*
X661972Y436561D01*
X663012Y434051D01*
X663012Y431333D01*
X661972Y428823D01*
X660051Y426901D01*
X657540Y425861D01*
X654823Y425861D01*
X652312Y426901D01*
X650391Y428823D01*
X649351Y431333D01*
X649351Y434051D01*
X650391Y436561D01*
X651894Y438064D01*
X651947Y438138D01*
X652006Y438208D01*
X652019Y438238D01*
X652037Y438264D01*
X652064Y438351D01*
X652098Y438436D01*
X652103Y438477D01*
X652110Y438499D01*
X652109Y438531D01*
X652117Y438603D01*
X652117Y452988D01*
X652109Y453033D01*
X652111Y453079D01*
X652090Y453154D01*
X652077Y453231D01*
X652056Y453271D01*
X652043Y453315D01*
X651998Y453379D01*
X651962Y453448D01*
X651929Y453480D01*
X651902Y453517D01*
X651840Y453564D01*
X651784Y453617D01*
X651742Y453637D01*
X651705Y453664D01*
X651631Y453688D01*
X651561Y453721D01*
X651515Y453726D01*
X651471Y453740D01*
X651393Y453740D01*
X651316Y453748D01*
X651271Y453738D01*
X651225Y453738D01*
X651094Y453700D01*
X651076Y453696D01*
X651071Y453693D01*
X651064Y453691D01*
X650397Y453415D01*
X647679Y453415D01*
X645169Y454455D01*
X643247Y456376D01*
X642207Y458887D01*
X642207Y461604D01*
X643247Y464115D01*
X644496Y465364D01*
X644549Y465438D01*
X644609Y465507D01*
X644621Y465537D01*
X644640Y465564D01*
X644667Y465651D01*
X644701Y465735D01*
X644705Y465776D01*
X644712Y465799D01*
X644711Y465831D01*
X644719Y465902D01*
X644719Y489588D01*
X692460Y537328D01*
X692513Y537402D01*
X692572Y537472D01*
X692585Y537502D01*
X692603Y537528D01*
X692630Y537615D01*
X692664Y537700D01*
X692669Y537741D01*
X692676Y537763D01*
X692675Y537795D01*
X692683Y537867D01*
X692683Y609616D01*
X692668Y609706D01*
X692661Y609797D01*
X692648Y609827D01*
X692643Y609859D01*
X692600Y609940D01*
X692565Y610024D01*
X692539Y610056D01*
X692528Y610077D01*
X692505Y610099D01*
X692460Y610155D01*
X689821Y612793D01*
X688509Y615960D01*
X688485Y615999D01*
X688469Y616043D01*
X688421Y616103D01*
X688380Y616169D01*
X688344Y616199D01*
X688316Y616235D01*
X688250Y616277D01*
X688190Y616326D01*
X688147Y616343D01*
X688109Y616368D01*
X688033Y616387D01*
X687961Y616414D01*
X687915Y616416D01*
X687870Y616428D01*
X687793Y616422D01*
X687715Y616425D01*
X687671Y616412D01*
X687625Y616408D01*
X687553Y616378D01*
X687479Y616356D01*
X687441Y616330D01*
X687399Y616312D01*
X687292Y616227D01*
X687277Y616216D01*
X687274Y616212D01*
X687268Y616207D01*
X687002Y615942D01*
X686949Y615868D01*
X686890Y615798D01*
X686877Y615768D01*
X686859Y615742D01*
X686832Y615655D01*
X686798Y615570D01*
X686793Y615529D01*
X686786Y615507D01*
X686787Y615475D01*
X686779Y615404D01*
X686779Y612657D01*
X546631Y472509D01*
X480613Y472509D01*
X480523Y472494D01*
X480432Y472487D01*
X480403Y472474D01*
X480371Y472469D01*
X480290Y472426D01*
X480206Y472391D01*
X480174Y472365D01*
X480153Y472354D01*
X480131Y472331D01*
X480075Y472286D01*
X429273Y421484D01*
X416550Y421484D01*
X416530Y421481D01*
X416511Y421483D01*
X416409Y421461D01*
X416307Y421444D01*
X416290Y421435D01*
X416270Y421430D01*
X416181Y421377D01*
X416090Y421329D01*
X416076Y421315D01*
X416059Y421304D01*
X415992Y421226D01*
X415920Y421151D01*
X415912Y421133D01*
X415899Y421117D01*
X415860Y421021D01*
X415817Y420928D01*
X415815Y420908D01*
X415807Y420889D01*
X415789Y420723D01*
X415789Y420614D01*
X410780Y415605D01*
X410738Y415547D01*
X410689Y415495D01*
X410667Y415448D01*
X410636Y415406D01*
X410615Y415337D01*
X410585Y415272D01*
X410579Y415220D01*
X410564Y415170D01*
X410566Y415099D01*
X410558Y415028D01*
X410569Y414977D01*
X410570Y414925D01*
X410595Y414857D01*
X410610Y414787D01*
X410637Y414742D01*
X410655Y414694D01*
X410700Y414638D01*
X410736Y414576D01*
X410776Y414542D01*
X410809Y414502D01*
X410869Y414463D01*
X410923Y414416D01*
X410972Y414397D01*
X411015Y414369D01*
X411085Y414351D01*
X411152Y414324D01*
X411223Y414316D01*
X411254Y414308D01*
X411277Y414310D01*
X411318Y414306D01*
X411925Y414306D01*
X420429Y405802D01*
X420429Y393250D01*
X411925Y384746D01*
X410748Y384746D01*
X410678Y384734D01*
X410606Y384732D01*
X410557Y384714D01*
X410506Y384706D01*
X410442Y384672D01*
X410375Y384648D01*
X410334Y384615D01*
X410288Y384591D01*
X410239Y384539D01*
X410183Y384494D01*
X410155Y384450D01*
X410119Y384413D01*
X410089Y384348D01*
X410050Y384287D01*
X410037Y384237D01*
X410015Y384190D01*
X410007Y384118D01*
X409990Y384049D01*
X409994Y383997D01*
X409988Y383945D01*
X410003Y383875D01*
X410009Y383804D01*
X410029Y383756D01*
X410040Y383705D01*
X410077Y383643D01*
X410105Y383577D01*
X410150Y383521D01*
X410167Y383494D01*
X410184Y383478D01*
X410210Y383446D01*
X415281Y378376D01*
X415281Y375924D01*
X415292Y375853D01*
X415294Y375781D01*
X415312Y375733D01*
X415320Y375681D01*
X415324Y375675D01*
X415313Y375678D01*
X415247Y375705D01*
X415175Y375713D01*
X415144Y375720D01*
X415121Y375719D01*
X415080Y375723D01*
X405962Y375723D01*
X405942Y375720D01*
X405923Y375722D01*
X405821Y375700D01*
X405719Y375683D01*
X405702Y375674D01*
X405682Y375670D01*
X405593Y375617D01*
X405502Y375568D01*
X405488Y375554D01*
X405471Y375544D01*
X405404Y375465D01*
X405333Y375390D01*
X405324Y375372D01*
X405311Y375357D01*
X405273Y375261D01*
X405229Y375167D01*
X405227Y375147D01*
X405219Y375129D01*
X405201Y374962D01*
X405201Y373438D01*
X405204Y373418D01*
X405202Y373399D01*
X405224Y373297D01*
X405241Y373195D01*
X405250Y373178D01*
X405254Y373158D01*
X405307Y373069D01*
X405356Y372978D01*
X405370Y372964D01*
X405380Y372947D01*
X405459Y372880D01*
X405534Y372809D01*
X405552Y372800D01*
X405567Y372787D01*
X405663Y372748D01*
X405757Y372705D01*
X405777Y372703D01*
X405795Y372695D01*
X405962Y372677D01*
X413556Y372677D01*
X413646Y372692D01*
X413737Y372699D01*
X413767Y372711D01*
X413799Y372717D01*
X413880Y372759D01*
X413963Y372795D01*
X413996Y372821D01*
X414016Y372832D01*
X414038Y372855D01*
X414094Y372900D01*
X415618Y374424D01*
X415660Y374482D01*
X415710Y374534D01*
X415732Y374581D01*
X415762Y374623D01*
X415783Y374692D01*
X415813Y374757D01*
X415819Y374809D01*
X415834Y374858D01*
X415832Y374930D01*
X415840Y375001D01*
X415829Y375052D01*
X415828Y375104D01*
X415803Y375172D01*
X415795Y375210D01*
X415837Y375191D01*
X415908Y375183D01*
X415978Y375165D01*
X416030Y375169D01*
X416081Y375164D01*
X416152Y375179D01*
X416223Y375185D01*
X416271Y375205D01*
X416322Y375216D01*
X416383Y375253D01*
X416449Y375281D01*
X416505Y375326D01*
X416533Y375342D01*
X416548Y375360D01*
X416580Y375386D01*
X427947Y386752D01*
X490976Y386752D01*
X491072Y386768D01*
X491169Y386777D01*
X491193Y386788D01*
X491219Y386792D01*
X491305Y386837D01*
X491394Y386877D01*
X491413Y386895D01*
X491436Y386907D01*
X491503Y386978D01*
X491575Y387044D01*
X491588Y387066D01*
X491606Y387085D01*
X491647Y387174D01*
X491694Y387259D01*
X491698Y387285D01*
X491709Y387308D01*
X491720Y387405D01*
X491737Y387501D01*
X491734Y387527D01*
X491736Y387553D01*
X491716Y387648D01*
X491702Y387744D01*
X491690Y387768D01*
X491684Y387793D01*
X491634Y387877D01*
X491590Y387964D01*
X491571Y387982D01*
X491558Y388004D01*
X491484Y388068D01*
X491415Y388136D01*
X491386Y388152D01*
X491371Y388164D01*
X491340Y388177D01*
X491268Y388217D01*
X489032Y389143D01*
X487111Y391064D01*
X486071Y393575D01*
X486071Y396292D01*
X487111Y398803D01*
X489032Y400724D01*
X491543Y401764D01*
X494260Y401764D01*
X496771Y400724D01*
X498274Y399221D01*
X498348Y399168D01*
X498417Y399109D01*
X498447Y399096D01*
X498474Y399078D01*
X498561Y399051D01*
X498645Y399017D01*
X498686Y399012D01*
X498709Y399005D01*
X498741Y399006D01*
X498812Y398998D01*
X616424Y398998D01*
X616514Y399013D01*
X616605Y399020D01*
X616635Y399033D01*
X616667Y399038D01*
X616747Y399081D01*
X616831Y399116D01*
X616863Y399142D01*
X616884Y399153D01*
X616906Y399176D01*
X616962Y399221D01*
X628718Y410977D01*
X628771Y411051D01*
X628830Y411120D01*
X628842Y411150D01*
X628861Y411176D01*
X628888Y411263D01*
X628922Y411348D01*
X628927Y411389D01*
X628934Y411411D01*
X628933Y411444D01*
X628941Y411515D01*
X628941Y413641D01*
X629981Y416151D01*
X631902Y418073D01*
X634413Y419113D01*
X637130Y419113D01*
X639641Y418073D01*
X641562Y416151D01*
X642602Y413641D01*
X642602Y410923D01*
X641562Y408413D01*
X639641Y406491D01*
X637130Y405451D01*
X635004Y405451D01*
X634914Y405437D01*
X634823Y405429D01*
X634794Y405417D01*
X634762Y405412D01*
X634681Y405369D01*
X634597Y405333D01*
X634565Y405307D01*
X634544Y405296D01*
X634522Y405273D01*
X634466Y405228D01*
X626474Y397236D01*
X626432Y397178D01*
X626383Y397126D01*
X626361Y397079D01*
X626331Y397037D01*
X626310Y396968D01*
X626279Y396903D01*
X626274Y396851D01*
X626258Y396801D01*
X626260Y396730D01*
X626252Y396659D01*
X626263Y396608D01*
X626265Y396556D01*
X626289Y396488D01*
X626304Y396418D01*
X626331Y396374D01*
X626349Y396325D01*
X626394Y396269D01*
X626431Y396207D01*
X626470Y396173D01*
X626503Y396133D01*
X626563Y396094D01*
X626618Y396047D01*
X626666Y396028D01*
X626710Y396000D01*
X626779Y395982D01*
X626846Y395955D01*
X626917Y395947D01*
X626948Y395939D01*
X626971Y395941D01*
X627012Y395937D01*
X660306Y395937D01*
X660396Y395951D01*
X660487Y395959D01*
X660516Y395971D01*
X660548Y395976D01*
X660629Y396019D01*
X660713Y396055D01*
X660745Y396081D01*
X660766Y396092D01*
X660788Y396115D01*
X660844Y396160D01*
X662230Y397546D01*
X662300Y397643D01*
X662371Y397740D01*
X662372Y397743D01*
X662373Y397745D01*
X662409Y397860D01*
X662445Y397974D01*
X662445Y397978D01*
X662446Y397981D01*
X662443Y398101D01*
X662441Y398220D01*
X662440Y398223D01*
X662439Y398226D01*
X662398Y398340D01*
X662358Y398452D01*
X662356Y398455D01*
X662355Y398457D01*
X662279Y398552D01*
X662206Y398645D01*
X662203Y398647D01*
X662201Y398650D01*
X662099Y398715D01*
X662000Y398780D01*
X661997Y398781D01*
X661994Y398783D01*
X661983Y398785D01*
X661840Y398831D01*
X661651Y398868D01*
X659999Y399553D01*
X658511Y400547D01*
X657247Y401811D01*
X656253Y403299D01*
X655568Y404951D01*
X655344Y406077D01*
X663538Y406077D01*
X663558Y406080D01*
X663577Y406078D01*
X663679Y406100D01*
X663781Y406117D01*
X663798Y406126D01*
X663818Y406130D01*
X663907Y406183D01*
X663998Y406232D01*
X664012Y406246D01*
X664029Y406256D01*
X664096Y406335D01*
X664167Y406410D01*
X664176Y406428D01*
X664189Y406443D01*
X664227Y406539D01*
X664271Y406633D01*
X664273Y406653D01*
X664281Y406671D01*
X664299Y406838D01*
X664299Y407601D01*
X664301Y407601D01*
X664301Y406838D01*
X664304Y406818D01*
X664302Y406799D01*
X664324Y406697D01*
X664341Y406595D01*
X664350Y406578D01*
X664354Y406558D01*
X664407Y406469D01*
X664456Y406378D01*
X664470Y406364D01*
X664480Y406347D01*
X664559Y406280D01*
X664634Y406209D01*
X664652Y406200D01*
X664667Y406187D01*
X664763Y406148D01*
X664857Y406105D01*
X664877Y406103D01*
X664895Y406095D01*
X665062Y406077D01*
X670446Y406077D01*
X670536Y406092D01*
X670627Y406099D01*
X670656Y406111D01*
X670688Y406117D01*
X670769Y406159D01*
X670853Y406195D01*
X670885Y406221D01*
X670906Y406232D01*
X670928Y406255D01*
X670984Y406300D01*
X672508Y407824D01*
X672550Y407882D01*
X672599Y407934D01*
X672621Y407981D01*
X672651Y408023D01*
X672672Y408092D01*
X672703Y408157D01*
X672708Y408209D01*
X672724Y408258D01*
X672722Y408330D01*
X672730Y408401D01*
X672719Y408452D01*
X672717Y408504D01*
X672693Y408572D01*
X672677Y408642D01*
X672651Y408686D01*
X672633Y408735D01*
X672588Y408791D01*
X672551Y408853D01*
X672512Y408887D01*
X672479Y408927D01*
X672419Y408966D01*
X672364Y409013D01*
X672316Y409032D01*
X672272Y409060D01*
X672203Y409078D01*
X672136Y409105D01*
X672065Y409113D01*
X672034Y409120D01*
X672010Y409119D01*
X671970Y409123D01*
X665823Y409123D01*
X665823Y416556D01*
X666949Y416332D01*
X668601Y415647D01*
X670089Y414653D01*
X671353Y413389D01*
X672347Y411901D01*
X673032Y410249D01*
X673069Y410060D01*
X673112Y409947D01*
X673153Y409835D01*
X673155Y409833D01*
X673156Y409830D01*
X673233Y409735D01*
X673306Y409643D01*
X673309Y409641D01*
X673311Y409639D01*
X673413Y409574D01*
X673513Y409510D01*
X673516Y409509D01*
X673519Y409507D01*
X673636Y409479D01*
X673752Y409450D01*
X673755Y409450D01*
X673758Y409449D01*
X673879Y409460D01*
X673997Y409469D01*
X674000Y409470D01*
X674003Y409470D01*
X674115Y409519D01*
X674223Y409565D01*
X674226Y409568D01*
X674228Y409569D01*
X674237Y409576D01*
X674354Y409670D01*
X683072Y418388D01*
X709460Y418388D01*
X709550Y418402D01*
X709641Y418410D01*
X709671Y418422D01*
X709703Y418427D01*
X709783Y418470D01*
X709867Y418506D01*
X709899Y418532D01*
X709920Y418543D01*
X709942Y418566D01*
X709998Y418611D01*
X711501Y420114D01*
X714012Y421154D01*
X716729Y421154D01*
X719240Y420114D01*
X721161Y418192D01*
X722201Y415682D01*
X722201Y412964D01*
X721161Y410454D01*
X719240Y408532D01*
X716729Y407492D01*
X714012Y407492D01*
X711501Y408532D01*
X709998Y410035D01*
X709924Y410088D01*
X709855Y410148D01*
X709825Y410160D01*
X709798Y410179D01*
X709711Y410206D01*
X709627Y410240D01*
X709586Y410244D01*
X709563Y410251D01*
X709531Y410250D01*
X709460Y410258D01*
X686754Y410258D01*
X686664Y410244D01*
X686573Y410236D01*
X686544Y410224D01*
X686512Y410219D01*
X686431Y410176D01*
X686347Y410140D01*
X686315Y410114D01*
X686294Y410103D01*
X686272Y410080D01*
X686216Y410035D01*
X668259Y392078D01*
X668232Y392041D01*
X668198Y392010D01*
X668185Y391986D01*
X668176Y391976D01*
X668158Y391937D01*
X668116Y391878D01*
X668102Y391835D01*
X668080Y391794D01*
X668073Y391754D01*
X668072Y391753D01*
X668072Y391748D01*
X668066Y391718D01*
X668043Y391643D01*
X668044Y391597D01*
X668036Y391552D01*
X668047Y391475D01*
X668050Y391397D01*
X668065Y391354D01*
X668072Y391309D01*
X668107Y391240D01*
X668134Y391166D01*
X668163Y391131D01*
X668183Y391090D01*
X668239Y391035D01*
X668288Y390974D01*
X668326Y390950D01*
X668359Y390917D01*
X668479Y390851D01*
X668495Y390841D01*
X668499Y390840D01*
X668506Y390837D01*
X669732Y390329D01*
X672429Y387632D01*
X673021Y386202D01*
X673083Y386102D01*
X673143Y386002D01*
X673147Y385998D01*
X673151Y385993D01*
X673241Y385918D01*
X673330Y385842D01*
X673335Y385840D01*
X673340Y385836D01*
X673449Y385794D01*
X673558Y385750D01*
X673565Y385749D01*
X673570Y385748D01*
X673588Y385747D01*
X673725Y385732D01*
X683570Y385732D01*
X683641Y385743D01*
X683712Y385745D01*
X683761Y385763D01*
X683813Y385771D01*
X683876Y385805D01*
X683943Y385830D01*
X683984Y385862D01*
X684030Y385887D01*
X684079Y385939D01*
X684135Y385983D01*
X684164Y386027D01*
X684199Y386065D01*
X684230Y386130D01*
X684268Y386190D01*
X684281Y386241D01*
X684303Y386288D01*
X684311Y386359D01*
X684328Y386429D01*
X684324Y386481D01*
X684330Y386532D01*
X684315Y386603D01*
X684309Y386674D01*
X684289Y386722D01*
X684278Y386773D01*
X684241Y386834D01*
X684213Y386900D01*
X684168Y386956D01*
X684152Y386984D01*
X684134Y386999D01*
X684108Y387031D01*
X681571Y389568D01*
X680111Y393093D01*
X680111Y396907D01*
X681571Y400432D01*
X684268Y403129D01*
X687793Y404589D01*
X691607Y404589D01*
X695132Y403129D01*
X697829Y400432D01*
X699289Y396907D01*
X699289Y393093D01*
X697829Y389568D01*
X695132Y386871D01*
X694283Y386520D01*
X694244Y386496D01*
X694201Y386480D01*
X694140Y386431D01*
X694074Y386390D01*
X694045Y386355D01*
X694009Y386326D01*
X693967Y386261D01*
X693917Y386201D01*
X693901Y386158D01*
X693876Y386119D01*
X693857Y386044D01*
X693829Y385971D01*
X693827Y385925D01*
X693816Y385881D01*
X693822Y385803D01*
X693819Y385725D01*
X693832Y385681D01*
X693835Y385635D01*
X693866Y385564D01*
X693887Y385489D01*
X693914Y385451D01*
X693931Y385409D01*
X694017Y385302D01*
X694028Y385287D01*
X694032Y385284D01*
X694036Y385278D01*
X704128Y375187D01*
X704128Y313651D01*
X694603Y304126D01*
X684092Y304126D01*
X681254Y306965D01*
X681180Y307018D01*
X681110Y307077D01*
X681080Y307090D01*
X681054Y307108D01*
X680967Y307135D01*
X680882Y307169D01*
X680841Y307174D01*
X680819Y307181D01*
X680787Y307180D01*
X680716Y307188D01*
X656990Y307188D01*
X656900Y307173D01*
X656809Y307166D01*
X656779Y307153D01*
X656747Y307148D01*
X656666Y307105D01*
X656582Y307070D01*
X656550Y307044D01*
X656530Y307033D01*
X656507Y307010D01*
X656451Y306965D01*
X654948Y305462D01*
X652438Y304422D01*
X649720Y304422D01*
X647210Y305462D01*
X645288Y307383D01*
X644248Y309894D01*
X644248Y312550D01*
X644245Y312569D01*
X644247Y312589D01*
X644225Y312690D01*
X644209Y312792D01*
X644199Y312810D01*
X644195Y312829D01*
X644142Y312918D01*
X644093Y313010D01*
X644079Y313023D01*
X644069Y313040D01*
X643990Y313108D01*
X643915Y313179D01*
X643897Y313187D01*
X643882Y313200D01*
X643786Y313239D01*
X643692Y313283D01*
X643672Y313285D01*
X643654Y313292D01*
X643487Y313311D01*
X584083Y313311D01*
X581479Y315915D01*
X577508Y319886D01*
X577412Y319955D01*
X577319Y320024D01*
X577313Y320026D01*
X577308Y320030D01*
X577197Y320064D01*
X577085Y320101D01*
X577079Y320101D01*
X577073Y320102D01*
X576956Y320099D01*
X576839Y320098D01*
X576832Y320096D01*
X576827Y320096D01*
X576810Y320090D01*
X576678Y320051D01*
X575900Y319729D01*
X573183Y319729D01*
X570672Y320769D01*
X568751Y322691D01*
X567711Y325201D01*
X567711Y327919D01*
X568378Y329529D01*
X568393Y329593D01*
X568417Y329654D01*
X568426Y329737D01*
X568434Y329769D01*
X568432Y329788D01*
X568436Y329820D01*
X568436Y335957D01*
X568421Y336047D01*
X568414Y336138D01*
X568401Y336168D01*
X568396Y336200D01*
X568353Y336280D01*
X568318Y336364D01*
X568292Y336396D01*
X568281Y336417D01*
X568258Y336439D01*
X568242Y336459D01*
X568237Y336467D01*
X568231Y336472D01*
X568213Y336495D01*
X566710Y337998D01*
X565670Y340509D01*
X565670Y343226D01*
X566710Y345737D01*
X568631Y347658D01*
X571142Y348698D01*
X573859Y348698D01*
X576370Y347658D01*
X578291Y345737D01*
X579331Y343226D01*
X579331Y340509D01*
X578291Y337998D01*
X576788Y336495D01*
X576743Y336433D01*
X576717Y336405D01*
X576712Y336394D01*
X576676Y336352D01*
X576663Y336322D01*
X576645Y336295D01*
X576618Y336208D01*
X576584Y336124D01*
X576579Y336083D01*
X576572Y336060D01*
X576573Y336028D01*
X576565Y335957D01*
X576565Y333624D01*
X576584Y333509D01*
X576601Y333393D01*
X576604Y333387D01*
X576605Y333381D01*
X576659Y333279D01*
X576713Y333174D01*
X576717Y333169D01*
X576720Y333164D01*
X576804Y333084D01*
X576888Y333001D01*
X576895Y332998D01*
X576898Y332994D01*
X576915Y332987D01*
X577035Y332921D01*
X578411Y332351D01*
X580332Y330429D01*
X581404Y327841D01*
X581442Y327780D01*
X581471Y327715D01*
X581507Y327676D01*
X581534Y327632D01*
X581589Y327586D01*
X581638Y327533D01*
X581683Y327508D01*
X581723Y327475D01*
X581790Y327449D01*
X581853Y327415D01*
X581905Y327406D01*
X581953Y327387D01*
X582025Y327384D01*
X582095Y327371D01*
X582147Y327379D01*
X582199Y327377D01*
X582268Y327397D01*
X582339Y327407D01*
X582385Y327431D01*
X582435Y327445D01*
X582494Y327486D01*
X582558Y327518D01*
X582594Y327556D01*
X582637Y327585D01*
X582680Y327643D01*
X582730Y327694D01*
X582765Y327757D01*
X582784Y327783D01*
X582791Y327805D01*
X582811Y327841D01*
X583038Y328388D01*
X584959Y330310D01*
X587470Y331350D01*
X590187Y331350D01*
X592698Y330310D01*
X594201Y328807D01*
X594275Y328754D01*
X594344Y328694D01*
X594374Y328682D01*
X594401Y328663D01*
X594488Y328636D01*
X594572Y328602D01*
X594613Y328598D01*
X594636Y328591D01*
X594668Y328592D01*
X594739Y328584D01*
X616424Y328584D01*
X616514Y328598D01*
X616605Y328606D01*
X616635Y328618D01*
X616667Y328623D01*
X616747Y328666D01*
X616831Y328702D01*
X616863Y328728D01*
X616884Y328739D01*
X616906Y328762D01*
X616962Y328807D01*
X637925Y349770D01*
X637967Y349828D01*
X638017Y349880D01*
X638039Y349927D01*
X638069Y349969D01*
X638090Y350038D01*
X638120Y350103D01*
X638126Y350155D01*
X638141Y350205D01*
X638139Y350276D01*
X638147Y350347D01*
X638136Y350398D01*
X638135Y350450D01*
X638110Y350518D01*
X638095Y350588D01*
X638068Y350633D01*
X638050Y350681D01*
X638006Y350737D01*
X637969Y350799D01*
X637929Y350833D01*
X637897Y350873D01*
X637836Y350912D01*
X637782Y350959D01*
X637734Y350978D01*
X637690Y351006D01*
X637620Y351024D01*
X637554Y351051D01*
X637482Y351059D01*
X637451Y351067D01*
X637428Y351065D01*
X637387Y351069D01*
X545061Y351069D01*
X545016Y351062D01*
X544970Y351064D01*
X544895Y351042D01*
X544818Y351030D01*
X544778Y351008D01*
X544734Y350995D01*
X544670Y350951D01*
X544601Y350914D01*
X544569Y350881D01*
X544532Y350855D01*
X544485Y350793D01*
X544432Y350736D01*
X544412Y350694D01*
X544385Y350658D01*
X544361Y350584D01*
X544328Y350513D01*
X544323Y350467D01*
X544309Y350424D01*
X544309Y350346D01*
X544301Y350269D01*
X544311Y350224D01*
X544311Y350178D01*
X544349Y350046D01*
X544353Y350028D01*
X544356Y350024D01*
X544358Y350017D01*
X544634Y349349D01*
X544634Y346632D01*
X543594Y344121D01*
X541673Y342200D01*
X539162Y341160D01*
X536445Y341160D01*
X533934Y342200D01*
X532685Y343449D01*
X532611Y343502D01*
X532542Y343561D01*
X532512Y343573D01*
X532485Y343592D01*
X532398Y343619D01*
X532314Y343653D01*
X532273Y343658D01*
X532250Y343665D01*
X532218Y343664D01*
X532147Y343672D01*
X464391Y343672D01*
X464301Y343657D01*
X464210Y343650D01*
X464180Y343637D01*
X464148Y343632D01*
X464067Y343589D01*
X463983Y343554D01*
X463951Y343528D01*
X463931Y343517D01*
X463908Y343494D01*
X463852Y343449D01*
X453870Y333467D01*
X389063Y333467D01*
X384541Y337988D01*
X384467Y338041D01*
X384398Y338101D01*
X384368Y338113D01*
X384341Y338132D01*
X384254Y338159D01*
X384170Y338193D01*
X384129Y338197D01*
X384106Y338204D01*
X384074Y338203D01*
X384003Y338211D01*
X375414Y338211D01*
X369211Y344414D01*
X369211Y353186D01*
X373959Y357934D01*
X374001Y357992D01*
X374050Y358044D01*
X374072Y358091D01*
X374103Y358133D01*
X374124Y358202D01*
X374154Y358267D01*
X374160Y358319D01*
X374175Y358369D01*
X374173Y358440D01*
X374181Y358511D01*
X374170Y358562D01*
X374169Y358614D01*
X374144Y358682D01*
X374129Y358752D01*
X374102Y358797D01*
X374084Y358845D01*
X374039Y358901D01*
X374003Y358963D01*
X373963Y358997D01*
X373930Y359037D01*
X373870Y359076D01*
X373816Y359123D01*
X373767Y359142D01*
X373724Y359170D01*
X373654Y359188D01*
X373587Y359215D01*
X373516Y359223D01*
X373485Y359231D01*
X373462Y359229D01*
X373421Y359233D01*
X359004Y359233D01*
X358914Y359219D01*
X358823Y359211D01*
X358793Y359199D01*
X358761Y359194D01*
X358680Y359151D01*
X358596Y359115D01*
X358564Y359089D01*
X358544Y359078D01*
X358521Y359055D01*
X358465Y359010D01*
X356962Y357507D01*
X354452Y356467D01*
X351734Y356467D01*
X349224Y357507D01*
X347302Y359429D01*
X346262Y361939D01*
X346262Y364657D01*
X347302Y367167D01*
X349224Y369089D01*
X351734Y370129D01*
X354452Y370129D01*
X356962Y369089D01*
X358465Y367586D01*
X358539Y367533D01*
X358609Y367473D01*
X358639Y367461D01*
X358665Y367442D01*
X358752Y367415D01*
X358837Y367381D01*
X358878Y367377D01*
X358900Y367370D01*
X358932Y367371D01*
X359004Y367363D01*
X369825Y367363D01*
X369895Y367374D01*
X369967Y367376D01*
X370016Y367394D01*
X370068Y367402D01*
X370131Y367436D01*
X370198Y367461D01*
X370239Y367493D01*
X370285Y367518D01*
X370334Y367570D01*
X370390Y367614D01*
X370418Y367658D01*
X370454Y367696D01*
X370484Y367761D01*
X370523Y367821D01*
X370536Y367872D01*
X370558Y367919D01*
X370566Y367990D01*
X370583Y368060D01*
X370579Y368112D01*
X370585Y368163D01*
X370570Y368234D01*
X370564Y368305D01*
X370544Y368353D01*
X370533Y368404D01*
X370496Y368465D01*
X370468Y368531D01*
X370423Y368587D01*
X370407Y368615D01*
X370389Y368630D01*
X370363Y368662D01*
X369211Y369814D01*
X369211Y378586D01*
X375414Y384789D01*
X384186Y384789D01*
X390389Y378586D01*
X390389Y369814D01*
X389237Y368662D01*
X389195Y368604D01*
X389146Y368552D01*
X389124Y368505D01*
X389093Y368463D01*
X389072Y368394D01*
X389042Y368329D01*
X389036Y368277D01*
X389021Y368227D01*
X389023Y368156D01*
X389015Y368085D01*
X389026Y368034D01*
X389027Y367982D01*
X389052Y367914D01*
X389067Y367844D01*
X389094Y367799D01*
X389112Y367751D01*
X389157Y367695D01*
X389193Y367633D01*
X389233Y367599D01*
X389266Y367559D01*
X389326Y367520D01*
X389380Y367473D01*
X389429Y367454D01*
X389472Y367426D01*
X389542Y367408D01*
X389609Y367381D01*
X389680Y367373D01*
X389711Y367365D01*
X389734Y367367D01*
X389775Y367363D01*
X395943Y367363D01*
X396014Y367374D01*
X396086Y367376D01*
X396135Y367394D01*
X396186Y367402D01*
X396249Y367436D01*
X396317Y367461D01*
X396357Y367493D01*
X396403Y367518D01*
X396453Y367570D01*
X396509Y367614D01*
X396537Y367658D01*
X396573Y367696D01*
X396603Y367761D01*
X396642Y367821D01*
X396654Y367872D01*
X396676Y367919D01*
X396684Y367990D01*
X396702Y368060D01*
X396698Y368112D01*
X396703Y368163D01*
X396688Y368234D01*
X396683Y368305D01*
X396662Y368353D01*
X396651Y368404D01*
X396614Y368465D01*
X396586Y368531D01*
X396541Y368587D01*
X396525Y368615D01*
X396507Y368630D01*
X396481Y368662D01*
X395119Y370024D01*
X395119Y372677D01*
X404438Y372677D01*
X404458Y372680D01*
X404477Y372678D01*
X404579Y372700D01*
X404681Y372717D01*
X404698Y372726D01*
X404718Y372730D01*
X404807Y372783D01*
X404898Y372832D01*
X404912Y372846D01*
X404929Y372856D01*
X404996Y372935D01*
X405067Y373010D01*
X405076Y373028D01*
X405089Y373043D01*
X405127Y373139D01*
X405171Y373233D01*
X405173Y373253D01*
X405181Y373271D01*
X405199Y373438D01*
X405199Y374962D01*
X405196Y374982D01*
X405198Y375001D01*
X405176Y375103D01*
X405159Y375205D01*
X405150Y375222D01*
X405146Y375242D01*
X405093Y375331D01*
X405044Y375422D01*
X405030Y375436D01*
X405020Y375453D01*
X404941Y375520D01*
X404866Y375591D01*
X404848Y375600D01*
X404833Y375613D01*
X404737Y375652D01*
X404643Y375695D01*
X404623Y375697D01*
X404605Y375705D01*
X404438Y375723D01*
X395119Y375723D01*
X395119Y378376D01*
X400190Y383446D01*
X400232Y383504D01*
X400281Y383556D01*
X400303Y383604D01*
X400333Y383646D01*
X400355Y383714D01*
X400385Y383780D01*
X400391Y383831D01*
X400406Y383881D01*
X400404Y383953D01*
X400412Y384024D01*
X400401Y384075D01*
X400399Y384127D01*
X400375Y384194D01*
X400360Y384264D01*
X400333Y384309D01*
X400315Y384358D01*
X400270Y384414D01*
X400233Y384475D01*
X400194Y384509D01*
X400161Y384550D01*
X400101Y384589D01*
X400047Y384635D01*
X399998Y384655D01*
X399954Y384683D01*
X399885Y384700D01*
X399818Y384727D01*
X399747Y384735D01*
X399716Y384743D01*
X399693Y384741D01*
X399652Y384746D01*
X396311Y384746D01*
X388654Y392403D01*
X388638Y392415D01*
X388626Y392430D01*
X388538Y392486D01*
X388454Y392546D01*
X388435Y392552D01*
X388419Y392563D01*
X388318Y392588D01*
X388219Y392619D01*
X388199Y392618D01*
X388180Y392623D01*
X388077Y392615D01*
X387974Y392612D01*
X387955Y392606D01*
X387935Y392604D01*
X387840Y392564D01*
X387742Y392528D01*
X387727Y392515D01*
X387709Y392508D01*
X387578Y392403D01*
X384186Y389011D01*
X375414Y389011D01*
X369211Y395214D01*
X369211Y403986D01*
X373623Y408398D01*
X373635Y408414D01*
X373651Y408427D01*
X373707Y408514D01*
X373767Y408598D01*
X373773Y408617D01*
X373784Y408634D01*
X373809Y408734D01*
X373839Y408833D01*
X373839Y408853D01*
X373844Y408872D01*
X373836Y408975D01*
X373833Y409079D01*
X373826Y409098D01*
X373825Y409117D01*
X373784Y409212D01*
X373749Y409310D01*
X373736Y409325D01*
X373728Y409344D01*
X373623Y409475D01*
X371022Y412076D01*
X370948Y412129D01*
X370878Y412189D01*
X370848Y412201D01*
X370822Y412220D01*
X370735Y412247D01*
X370650Y412281D01*
X370609Y412285D01*
X370587Y412292D01*
X370555Y412291D01*
X370484Y412299D01*
X203194Y412299D01*
X203148Y412292D01*
X203102Y412294D01*
X203028Y412272D01*
X202951Y412260D01*
X202910Y412238D01*
X202866Y412225D01*
X202802Y412181D01*
X202733Y412144D01*
X202702Y412111D01*
X202664Y412085D01*
X202618Y412023D01*
X202564Y411966D01*
X202545Y411924D01*
X202517Y411888D01*
X202493Y411814D01*
X202460Y411743D01*
X202455Y411697D01*
X202441Y411654D01*
X202442Y411576D01*
X202433Y411499D01*
X202443Y411454D01*
X202444Y411408D01*
X202482Y411276D01*
X202486Y411258D01*
X202488Y411254D01*
X202490Y411247D01*
X202767Y410579D01*
X202767Y407862D01*
X201727Y405351D01*
X199805Y403430D01*
X197295Y402390D01*
X195528Y402390D01*
X195438Y402375D01*
X195347Y402368D01*
X195317Y402355D01*
X195285Y402350D01*
X195205Y402307D01*
X195121Y402272D01*
X195089Y402246D01*
X195068Y402235D01*
X195046Y402212D01*
X194990Y402167D01*
X188703Y395880D01*
X188659Y395819D01*
X188624Y395782D01*
X188618Y395769D01*
X188590Y395736D01*
X188578Y395706D01*
X188559Y395680D01*
X188532Y395593D01*
X188498Y395508D01*
X188494Y395467D01*
X188487Y395445D01*
X188488Y395413D01*
X188480Y395341D01*
X188480Y393575D01*
X187440Y391064D01*
X185518Y389143D01*
X183008Y388103D01*
X180290Y388103D01*
X177780Y389143D01*
X175858Y391064D01*
X174818Y393575D01*
X174818Y396292D01*
X175858Y398803D01*
X177780Y400724D01*
X180290Y401764D01*
X182057Y401764D01*
X182147Y401779D01*
X182238Y401786D01*
X182268Y401799D01*
X182300Y401804D01*
X182380Y401847D01*
X182464Y401882D01*
X182496Y401908D01*
X182517Y401919D01*
X182539Y401942D01*
X182595Y401987D01*
X188882Y408274D01*
X188935Y408348D01*
X188995Y408418D01*
X189007Y408448D01*
X189026Y408474D01*
X189053Y408561D01*
X189087Y408646D01*
X189091Y408687D01*
X189098Y408709D01*
X189097Y408741D01*
X189105Y408813D01*
X189105Y410579D01*
X189382Y411247D01*
X189392Y411291D01*
X189412Y411333D01*
X189420Y411410D01*
X189438Y411486D01*
X189434Y411532D01*
X189439Y411577D01*
X189422Y411654D01*
X189415Y411731D01*
X189396Y411773D01*
X189386Y411818D01*
X189346Y411885D01*
X189315Y411956D01*
X189284Y411990D01*
X189260Y412029D01*
X189201Y412080D01*
X189148Y412137D01*
X189108Y412159D01*
X189073Y412189D01*
X189001Y412218D01*
X188933Y412255D01*
X188888Y412264D01*
X188845Y412281D01*
X188709Y412296D01*
X188691Y412299D01*
X188686Y412298D01*
X188678Y412299D01*
X176334Y412299D01*
X176244Y412285D01*
X176153Y412277D01*
X176123Y412265D01*
X176091Y412260D01*
X176011Y412217D01*
X175927Y412181D01*
X175895Y412155D01*
X175874Y412144D01*
X175852Y412121D01*
X175796Y412076D01*
X174293Y410573D01*
X171782Y409533D01*
X169065Y409533D01*
X166554Y410573D01*
X164633Y412495D01*
X163593Y415005D01*
X163593Y417723D01*
X164633Y420233D01*
X166554Y422155D01*
X169065Y423195D01*
X171782Y423195D01*
X174293Y422155D01*
X175796Y420652D01*
X175870Y420599D01*
X175939Y420539D01*
X175969Y420527D01*
X175996Y420508D01*
X176083Y420481D01*
X176167Y420447D01*
X176208Y420443D01*
X176231Y420436D01*
X176263Y420437D01*
X176334Y420429D01*
X368450Y420429D01*
X368470Y420432D01*
X368489Y420430D01*
X368591Y420452D01*
X368693Y420468D01*
X368710Y420478D01*
X368730Y420482D01*
X368819Y420535D01*
X368910Y420584D01*
X368924Y420598D01*
X368941Y420608D01*
X369008Y420687D01*
X369080Y420762D01*
X369088Y420780D01*
X369101Y420795D01*
X369140Y420891D01*
X369183Y420985D01*
X369185Y421005D01*
X369193Y421023D01*
X369211Y421190D01*
X369211Y429386D01*
X375414Y435589D01*
X384267Y435589D01*
X384360Y435565D01*
X384458Y435535D01*
X384479Y435535D01*
X384498Y435531D01*
X384601Y435539D01*
X384704Y435541D01*
X384723Y435548D01*
X384743Y435550D01*
X384838Y435590D01*
X384935Y435626D01*
X384951Y435638D01*
X384969Y435646D01*
X385100Y435751D01*
X388605Y439255D01*
X388658Y439329D01*
X388717Y439399D01*
X388730Y439429D01*
X388748Y439455D01*
X388775Y439542D01*
X388809Y439627D01*
X388814Y439668D01*
X388821Y439690D01*
X388820Y439722D01*
X388828Y439793D01*
X388828Y442615D01*
X388816Y442686D01*
X388814Y442758D01*
X388796Y442807D01*
X388788Y442858D01*
X388754Y442921D01*
X388730Y442989D01*
X388697Y443029D01*
X388673Y443075D01*
X388621Y443125D01*
X388576Y443181D01*
X388532Y443209D01*
X388495Y443245D01*
X388430Y443275D01*
X388369Y443314D01*
X388319Y443326D01*
X388272Y443348D01*
X388200Y443356D01*
X388131Y443374D01*
X388079Y443370D01*
X388027Y443375D01*
X387957Y443360D01*
X387886Y443355D01*
X387838Y443334D01*
X387787Y443323D01*
X387725Y443286D01*
X387659Y443258D01*
X387603Y443214D01*
X387576Y443197D01*
X387560Y443179D01*
X387528Y443154D01*
X384186Y439811D01*
X375414Y439811D01*
X369211Y446014D01*
X369211Y454786D01*
X373736Y459311D01*
X373748Y459327D01*
X373763Y459339D01*
X373819Y459426D01*
X373879Y459510D01*
X373885Y459529D01*
X373896Y459546D01*
X373921Y459647D01*
X373952Y459745D01*
X373951Y459765D01*
X373956Y459785D01*
X373948Y459888D01*
X373945Y459991D01*
X373939Y460010D01*
X373937Y460030D01*
X373897Y460125D01*
X373861Y460222D01*
X373848Y460238D01*
X373841Y460256D01*
X373736Y460387D01*
X364336Y469787D01*
X364336Y506831D01*
X494737Y637232D01*
X494790Y637306D01*
X494849Y637376D01*
X494862Y637406D01*
X494880Y637432D01*
X494907Y637519D01*
X494941Y637604D01*
X494946Y637645D01*
X494953Y637667D01*
X494952Y637699D01*
X494960Y637770D01*
X494960Y759138D01*
X494952Y759183D01*
X494954Y759229D01*
X494933Y759304D01*
X494920Y759381D01*
X494899Y759421D01*
X494886Y759465D01*
X494841Y759529D01*
X494805Y759598D01*
X494772Y759630D01*
X494745Y759667D01*
X494683Y759714D01*
X494627Y759767D01*
X494585Y759787D01*
X494548Y759814D01*
X494474Y759838D01*
X494404Y759871D01*
X494358Y759876D01*
X494314Y759890D01*
X494236Y759890D01*
X494159Y759898D01*
X494114Y759888D01*
X494068Y759888D01*
X493937Y759850D01*
X493919Y759846D01*
X493914Y759843D01*
X493907Y759841D01*
X493240Y759565D01*
X490522Y759565D01*
X488012Y760605D01*
X486090Y762526D01*
X485050Y765037D01*
X485050Y767754D01*
X486090Y770265D01*
X487339Y771514D01*
X487392Y771588D01*
X487452Y771657D01*
X487464Y771687D01*
X487483Y771714D01*
X487510Y771801D01*
X487544Y771885D01*
X487548Y771926D01*
X487555Y771949D01*
X487554Y771981D01*
X487562Y772052D01*
X487562Y796758D01*
X491806Y801002D01*
X491833Y801040D01*
X491867Y801071D01*
X491904Y801139D01*
X491950Y801202D01*
X491963Y801246D01*
X491985Y801286D01*
X491999Y801363D01*
X492022Y801437D01*
X492021Y801483D01*
X492029Y801528D01*
X492018Y801605D01*
X492016Y801683D01*
X492000Y801726D01*
X491993Y801772D01*
X491958Y801841D01*
X491931Y801914D01*
X491903Y801950D01*
X491882Y801991D01*
X491826Y802045D01*
X491778Y802106D01*
X491739Y802131D01*
X491706Y802163D01*
X491587Y802229D01*
X491571Y802239D01*
X491566Y802240D01*
X491559Y802244D01*
X491073Y802445D01*
X489824Y803694D01*
X489750Y803747D01*
X489681Y803807D01*
X489651Y803819D01*
X489624Y803838D01*
X489537Y803865D01*
X489453Y803899D01*
X489412Y803903D01*
X489389Y803910D01*
X489357Y803909D01*
X489286Y803917D01*
X372735Y803917D01*
X359306Y817346D01*
X359269Y817372D01*
X359238Y817406D01*
X359170Y817444D01*
X359106Y817489D01*
X359063Y817503D01*
X359022Y817525D01*
X358946Y817539D01*
X358871Y817562D01*
X358826Y817560D01*
X358780Y817569D01*
X358703Y817557D01*
X358626Y817555D01*
X358582Y817539D01*
X358537Y817533D01*
X358468Y817498D01*
X358394Y817471D01*
X358359Y817442D01*
X358318Y817421D01*
X358263Y817366D01*
X358202Y817317D01*
X358178Y817278D01*
X358145Y817246D01*
X358080Y817126D01*
X358069Y817110D01*
X358068Y817105D01*
X358065Y817099D01*
X357863Y816613D01*
X356360Y815110D01*
X356307Y815036D01*
X356248Y814966D01*
X356235Y814936D01*
X356217Y814910D01*
X356190Y814823D01*
X356156Y814738D01*
X356151Y814697D01*
X356144Y814675D01*
X356145Y814643D01*
X356137Y814571D01*
X356137Y804511D01*
X277782Y726156D01*
X277729Y726082D01*
X277669Y726012D01*
X277657Y725982D01*
X277638Y725956D01*
X277611Y725869D01*
X277577Y725784D01*
X277573Y725743D01*
X277566Y725721D01*
X277567Y725689D01*
X277559Y725618D01*
X277559Y708652D01*
X277570Y708582D01*
X277572Y708510D01*
X277590Y708461D01*
X277598Y708410D01*
X277632Y708346D01*
X277657Y708279D01*
X277689Y708238D01*
X277714Y708192D01*
X277766Y708143D01*
X277810Y708087D01*
X277854Y708059D01*
X277892Y708023D01*
X277957Y707993D01*
X278017Y707954D01*
X278068Y707941D01*
X278115Y707919D01*
X278186Y707911D01*
X278256Y707894D01*
X278308Y707898D01*
X278359Y707892D01*
X278430Y707907D01*
X278501Y707913D01*
X278549Y707933D01*
X278600Y707944D01*
X278661Y707981D01*
X278727Y708009D01*
X278783Y708054D01*
X278811Y708071D01*
X278826Y708088D01*
X278858Y708114D01*
X343998Y773254D01*
X344051Y773328D01*
X344111Y773398D01*
X344123Y773428D01*
X344142Y773454D01*
X344169Y773541D01*
X344203Y773626D01*
X344207Y773667D01*
X344214Y773689D01*
X344213Y773721D01*
X344221Y773792D01*
X344221Y775918D01*
X345261Y778429D01*
X347183Y780350D01*
X349693Y781390D01*
X352411Y781390D01*
X354921Y780350D01*
X356843Y778429D01*
X357883Y775918D01*
X357883Y773201D01*
X356843Y770690D01*
X354921Y768769D01*
X352411Y767729D01*
X350285Y767729D01*
X350195Y767714D01*
X350104Y767707D01*
X350074Y767694D01*
X350042Y767689D01*
X349962Y767646D01*
X349878Y767611D01*
X349846Y767585D01*
X349825Y767574D01*
X349803Y767551D01*
X349747Y767506D01*
X281987Y699746D01*
X281930Y699667D01*
X281868Y699592D01*
X281858Y699567D01*
X281843Y699546D01*
X281814Y699453D01*
X281780Y699362D01*
X281778Y699336D01*
X281771Y699311D01*
X281773Y699214D01*
X281769Y699116D01*
X281776Y699091D01*
X281777Y699065D01*
X281811Y698974D01*
X281838Y698880D01*
X281853Y698859D01*
X281862Y698834D01*
X281923Y698758D01*
X281978Y698678D01*
X281999Y698662D01*
X282015Y698642D01*
X282097Y698589D01*
X282175Y698531D01*
X282200Y698523D01*
X282222Y698509D01*
X282317Y698485D01*
X282409Y698455D01*
X282435Y698455D01*
X282461Y698449D01*
X282558Y698456D01*
X282655Y698457D01*
X282687Y698467D01*
X282706Y698468D01*
X282736Y698481D01*
X282816Y698504D01*
X283361Y698730D01*
X286078Y698730D01*
X288589Y697690D01*
X290092Y696187D01*
X290166Y696134D01*
X290235Y696074D01*
X290265Y696062D01*
X290292Y696043D01*
X290379Y696016D01*
X290463Y695982D01*
X290504Y695978D01*
X290527Y695971D01*
X290559Y695972D01*
X290630Y695964D01*
X404781Y695964D01*
X439551Y661194D01*
X439625Y661141D01*
X439694Y661082D01*
X439724Y661069D01*
X439750Y661051D01*
X439837Y661024D01*
X439922Y660990D01*
X439963Y660985D01*
X439986Y660978D01*
X440018Y660979D01*
X440089Y660971D01*
X442215Y660971D01*
X444725Y659931D01*
X446228Y658428D01*
X446302Y658375D01*
X446372Y658316D01*
X446402Y658303D01*
X446428Y658285D01*
X446515Y658258D01*
X446600Y658224D01*
X446641Y658219D01*
X446663Y658212D01*
X446695Y658213D01*
X446767Y658205D01*
X463519Y658205D01*
X463609Y658220D01*
X463700Y658227D01*
X463730Y658240D01*
X463762Y658245D01*
X463843Y658288D01*
X463927Y658323D01*
X463959Y658349D01*
X463979Y658360D01*
X464002Y658383D01*
X464058Y658428D01*
X465561Y659931D01*
X468071Y660971D01*
X470789Y660971D01*
X473299Y659931D01*
X475221Y658010D01*
X476261Y655499D01*
X476261Y652782D01*
X475221Y650271D01*
X473299Y648350D01*
X470789Y647310D01*
X468071Y647310D01*
X465561Y648350D01*
X464058Y649853D01*
X463984Y649906D01*
X463914Y649965D01*
X463884Y649978D01*
X463858Y649996D01*
X463771Y650023D01*
X463686Y650057D01*
X463645Y650062D01*
X463623Y650069D01*
X463591Y650068D01*
X463519Y650076D01*
X446767Y650076D01*
X446677Y650061D01*
X446586Y650054D01*
X446556Y650041D01*
X446524Y650036D01*
X446443Y649993D01*
X446359Y649958D01*
X446327Y649932D01*
X446307Y649921D01*
X446284Y649898D01*
X446228Y649853D01*
X444725Y648350D01*
X442215Y647310D01*
X439497Y647310D01*
X436987Y648350D01*
X435065Y650271D01*
X434025Y652782D01*
X434025Y654908D01*
X434011Y654998D01*
X434003Y655089D01*
X433991Y655118D01*
X433986Y655150D01*
X433943Y655231D01*
X433907Y655315D01*
X433881Y655347D01*
X433870Y655368D01*
X433847Y655390D01*
X433802Y655446D01*
X401637Y687611D01*
X401563Y687664D01*
X401493Y687724D01*
X401463Y687736D01*
X401437Y687755D01*
X401350Y687782D01*
X401265Y687816D01*
X401224Y687820D01*
X401202Y687827D01*
X401170Y687826D01*
X401099Y687834D01*
X290630Y687834D01*
X290540Y687820D01*
X290449Y687812D01*
X290419Y687800D01*
X290387Y687795D01*
X290307Y687752D01*
X290223Y687716D01*
X290191Y687690D01*
X290170Y687679D01*
X290148Y687656D01*
X290092Y687611D01*
X288589Y686108D01*
X286078Y685068D01*
X283361Y685068D01*
X282693Y685345D01*
X282649Y685355D01*
X282607Y685375D01*
X282530Y685383D01*
X282454Y685401D01*
X282408Y685397D01*
X282363Y685402D01*
X282286Y685385D01*
X282209Y685378D01*
X282167Y685359D01*
X282122Y685349D01*
X282055Y685309D01*
X281984Y685278D01*
X281950Y685247D01*
X281911Y685223D01*
X281860Y685164D01*
X281803Y685111D01*
X281781Y685071D01*
X281751Y685036D01*
X281722Y684964D01*
X281685Y684896D01*
X281676Y684851D01*
X281674Y684846D01*
X281669Y684834D01*
X281669Y684831D01*
X281659Y684808D01*
X281644Y684672D01*
X281641Y684654D01*
X281642Y684649D01*
X281641Y684641D01*
X281641Y595760D01*
X281655Y595670D01*
X281663Y595579D01*
X281675Y595549D01*
X281680Y595517D01*
X281723Y595436D01*
X281759Y595352D01*
X281785Y595320D01*
X281796Y595300D01*
X281819Y595277D01*
X281864Y595221D01*
X283367Y593718D01*
X284407Y591208D01*
X284407Y588490D01*
X283367Y585980D01*
X281445Y584058D01*
X278935Y583018D01*
X276217Y583018D01*
X273707Y584058D01*
X271785Y585980D01*
X270745Y588490D01*
X270745Y591208D01*
X271785Y593718D01*
X273288Y595221D01*
X273341Y595295D01*
X273401Y595365D01*
X273413Y595395D01*
X273432Y595421D01*
X273459Y595508D01*
X273493Y595593D01*
X273497Y595634D01*
X273504Y595656D01*
X273503Y595688D01*
X273511Y595760D01*
X273511Y665961D01*
X273500Y666032D01*
X273498Y666104D01*
X273480Y666152D01*
X273472Y666204D01*
X273438Y666267D01*
X273413Y666335D01*
X273381Y666375D01*
X273356Y666421D01*
X273304Y666471D01*
X273260Y666527D01*
X273216Y666555D01*
X273178Y666591D01*
X273113Y666621D01*
X273053Y666660D01*
X273002Y666672D01*
X272955Y666694D01*
X272884Y666702D01*
X272814Y666720D01*
X272762Y666716D01*
X272711Y666721D01*
X272640Y666706D01*
X272569Y666700D01*
X272521Y666680D01*
X272470Y666669D01*
X272409Y666632D01*
X272343Y666604D01*
X272287Y666559D01*
X272259Y666543D01*
X272244Y666525D01*
X272212Y666499D01*
X193080Y587368D01*
X193027Y587294D01*
X192968Y587224D01*
X192955Y587194D01*
X192937Y587168D01*
X192910Y587081D01*
X192876Y586996D01*
X192871Y586955D01*
X192864Y586933D01*
X192865Y586901D01*
X192857Y586830D01*
X192857Y517181D01*
X192872Y517091D01*
X192879Y517000D01*
X192892Y516970D01*
X192897Y516938D01*
X192940Y516858D01*
X192975Y516774D01*
X193001Y516742D01*
X193012Y516721D01*
X193035Y516699D01*
X193063Y516664D01*
X193064Y516663D01*
X193080Y516643D01*
X194583Y515140D01*
X195623Y512629D01*
X195623Y509912D01*
X194583Y507401D01*
X192662Y505480D01*
X190151Y504440D01*
X187434Y504440D01*
X186766Y504716D01*
X186722Y504727D01*
X186680Y504746D01*
X186603Y504755D01*
X186527Y504772D01*
X186481Y504768D01*
X186436Y504773D01*
X186359Y504757D01*
X186282Y504749D01*
X186240Y504731D01*
X186195Y504721D01*
X186128Y504681D01*
X186057Y504649D01*
X186023Y504618D01*
X185984Y504595D01*
X185933Y504536D01*
X185876Y504483D01*
X185854Y504443D01*
X185824Y504408D01*
X185795Y504336D01*
X185758Y504267D01*
X185749Y504222D01*
X185732Y504180D01*
X185717Y504044D01*
X185714Y504025D01*
X185715Y504020D01*
X185714Y504013D01*
X185714Y499833D01*
X185728Y499743D01*
X185736Y499652D01*
X185748Y499622D01*
X185753Y499590D01*
X185796Y499509D01*
X185832Y499425D01*
X185858Y499393D01*
X185869Y499373D01*
X185892Y499350D01*
X185937Y499294D01*
X187440Y497791D01*
X188480Y495281D01*
X188480Y492563D01*
X187440Y490053D01*
X185518Y488131D01*
X183008Y487091D01*
X180290Y487091D01*
X177780Y488131D01*
X175858Y490053D01*
X174818Y492563D01*
X174818Y495281D01*
X175858Y497791D01*
X177361Y499294D01*
X177414Y499368D01*
X177474Y499438D01*
X177486Y499468D01*
X177505Y499494D01*
X177532Y499581D01*
X177566Y499666D01*
X177570Y499707D01*
X177577Y499729D01*
X177576Y499761D01*
X177584Y499833D01*
X177584Y589492D01*
X188180Y600088D01*
X188222Y600146D01*
X188272Y600198D01*
X188294Y600245D01*
X188324Y600287D01*
X188345Y600356D01*
X188375Y600421D01*
X188381Y600473D01*
X188396Y600523D01*
X188394Y600594D01*
X188402Y600665D01*
X188391Y600716D01*
X188390Y600768D01*
X188365Y600836D01*
X188350Y600906D01*
X188323Y600951D01*
X188305Y600999D01*
X188261Y601055D01*
X188224Y601117D01*
X188184Y601151D01*
X188152Y601191D01*
X188091Y601230D01*
X188037Y601277D01*
X187989Y601296D01*
X187945Y601324D01*
X187875Y601342D01*
X187809Y601369D01*
X187737Y601377D01*
X187706Y601385D01*
X187683Y601383D01*
X187642Y601387D01*
X185393Y601387D01*
X182882Y602427D01*
X180961Y604349D01*
X179921Y606859D01*
X179921Y608985D01*
X179906Y609075D01*
X179899Y609166D01*
X179886Y609196D01*
X179881Y609228D01*
X179838Y609308D01*
X179803Y609392D01*
X179777Y609424D01*
X179766Y609445D01*
X179743Y609467D01*
X179698Y609523D01*
X130909Y658312D01*
X130835Y658365D01*
X130765Y658425D01*
X130735Y658437D01*
X130709Y658456D01*
X130622Y658483D01*
X130537Y658517D01*
X130496Y658521D01*
X130474Y658528D01*
X130442Y658527D01*
X130371Y658535D01*
X128245Y658535D01*
X125734Y659575D01*
X123813Y661497D01*
X122773Y664007D01*
X122773Y666725D01*
X123813Y669235D01*
X125734Y671157D01*
X128245Y672197D01*
X130962Y672197D01*
X131018Y672173D01*
X131132Y672147D01*
X131246Y672118D01*
X131252Y672119D01*
X131258Y672117D01*
X131374Y672128D01*
X131491Y672137D01*
X131497Y672140D01*
X131503Y672140D01*
X131610Y672188D01*
X131717Y672234D01*
X131723Y672238D01*
X131727Y672240D01*
X131741Y672253D01*
X131848Y672338D01*
X152869Y693360D01*
X152922Y693434D01*
X152982Y693503D01*
X152994Y693533D01*
X153013Y693559D01*
X153040Y693646D01*
X153074Y693731D01*
X153078Y693772D01*
X153085Y693795D01*
X153084Y693827D01*
X153092Y693898D01*
X153092Y720685D01*
X153078Y720775D01*
X153070Y720866D01*
X153058Y720896D01*
X153053Y720928D01*
X153010Y721009D01*
X152974Y721093D01*
X152948Y721125D01*
X152937Y721145D01*
X152914Y721168D01*
X152869Y721224D01*
X151366Y722727D01*
X150326Y725237D01*
X150326Y727955D01*
X151366Y730465D01*
X153288Y732387D01*
X155798Y733427D01*
X158516Y733427D01*
X161026Y732387D01*
X161998Y731415D01*
X162056Y731374D01*
X162108Y731324D01*
X162155Y731302D01*
X162197Y731272D01*
X162266Y731251D01*
X162331Y731221D01*
X162383Y731215D01*
X162433Y731199D01*
X162504Y731201D01*
X162575Y731193D01*
X162626Y731204D01*
X162678Y731206D01*
X162746Y731230D01*
X162816Y731246D01*
X162861Y731272D01*
X162909Y731290D01*
X162965Y731335D01*
X163027Y731372D01*
X163061Y731411D01*
X163101Y731444D01*
X163140Y731504D01*
X163187Y731559D01*
X163206Y731607D01*
X163234Y731651D01*
X163252Y731720D01*
X163279Y731787D01*
X163287Y731858D01*
X163295Y731889D01*
X163293Y731913D01*
X163297Y731954D01*
X163297Y748069D01*
X163283Y748159D01*
X163275Y748250D01*
X163263Y748279D01*
X163258Y748311D01*
X163215Y748392D01*
X163179Y748476D01*
X163153Y748508D01*
X163142Y748529D01*
X163119Y748551D01*
X163074Y748607D01*
X158462Y753219D01*
X158388Y753272D01*
X158319Y753331D01*
X158289Y753344D01*
X158263Y753362D01*
X158176Y753389D01*
X158091Y753423D01*
X158050Y753428D01*
X158027Y753435D01*
X157995Y753434D01*
X157924Y753442D01*
X155798Y753442D01*
X153288Y754482D01*
X151366Y756403D01*
X150326Y758914D01*
X150326Y761631D01*
X151366Y764142D01*
X153288Y766063D01*
X155798Y767103D01*
X158516Y767103D01*
X161026Y766063D01*
X162948Y764142D01*
X163988Y761631D01*
X163988Y759505D01*
X164002Y759415D01*
X164010Y759324D01*
X164022Y759295D01*
X164027Y759263D01*
X164070Y759182D01*
X164106Y759098D01*
X164132Y759066D01*
X164143Y759045D01*
X164166Y759023D01*
X164211Y758967D01*
X171427Y751751D01*
X171427Y685564D01*
X171441Y685474D01*
X171449Y685383D01*
X171461Y685353D01*
X171466Y685321D01*
X171509Y685240D01*
X171545Y685156D01*
X171571Y685124D01*
X171582Y685104D01*
X171605Y685081D01*
X171650Y685025D01*
X173153Y683522D01*
X174193Y681012D01*
X174193Y678294D01*
X173153Y675784D01*
X171231Y673862D01*
X168721Y672822D01*
X166003Y672822D01*
X163493Y673862D01*
X161571Y675784D01*
X160531Y678294D01*
X160531Y681012D01*
X161571Y683522D01*
X163074Y685025D01*
X163127Y685099D01*
X163187Y685169D01*
X163199Y685199D01*
X163218Y685225D01*
X163245Y685312D01*
X163279Y685397D01*
X163283Y685438D01*
X163290Y685460D01*
X163289Y685492D01*
X163297Y685564D01*
X163297Y721238D01*
X163286Y721309D01*
X163284Y721381D01*
X163266Y721430D01*
X163258Y721481D01*
X163224Y721544D01*
X163199Y721612D01*
X163167Y721653D01*
X163142Y721698D01*
X163090Y721748D01*
X163046Y721804D01*
X163002Y721832D01*
X162964Y721868D01*
X162899Y721898D01*
X162839Y721937D01*
X162788Y721950D01*
X162741Y721971D01*
X162670Y721979D01*
X162600Y721997D01*
X162548Y721993D01*
X162497Y721999D01*
X162426Y721983D01*
X162355Y721978D01*
X162307Y721957D01*
X162256Y721946D01*
X162195Y721910D01*
X162129Y721881D01*
X162073Y721837D01*
X162045Y721820D01*
X162030Y721802D01*
X161998Y721777D01*
X161445Y721224D01*
X161391Y721149D01*
X161332Y721080D01*
X161320Y721050D01*
X161301Y721024D01*
X161274Y720937D01*
X161240Y720852D01*
X161236Y720811D01*
X161229Y720789D01*
X161230Y720757D01*
X161222Y720685D01*
X161222Y690215D01*
X136657Y665651D01*
X136604Y665577D01*
X136545Y665507D01*
X136532Y665477D01*
X136514Y665451D01*
X136487Y665364D01*
X136453Y665279D01*
X136448Y665238D01*
X136441Y665216D01*
X136442Y665184D01*
X136434Y665113D01*
X136434Y664599D01*
X136449Y664509D01*
X136456Y664418D01*
X136469Y664388D01*
X136474Y664356D01*
X136517Y664276D01*
X136552Y664192D01*
X136578Y664160D01*
X136589Y664139D01*
X136612Y664117D01*
X136657Y664061D01*
X180134Y620584D01*
X180171Y620557D01*
X180202Y620523D01*
X180271Y620485D01*
X180334Y620440D01*
X180378Y620427D01*
X180418Y620405D01*
X180495Y620391D01*
X180569Y620368D01*
X180615Y620369D01*
X180660Y620361D01*
X180737Y620372D01*
X180815Y620374D01*
X180858Y620390D01*
X180903Y620397D01*
X180973Y620432D01*
X181046Y620459D01*
X181082Y620487D01*
X181123Y620508D01*
X181177Y620564D01*
X181238Y620612D01*
X181263Y620651D01*
X181295Y620684D01*
X181361Y620804D01*
X181371Y620819D01*
X181372Y620824D01*
X181376Y620831D01*
X181981Y622292D01*
X183903Y624214D01*
X186413Y625254D01*
X189131Y625254D01*
X191641Y624214D01*
X192890Y622965D01*
X192964Y622912D01*
X193034Y622852D01*
X193064Y622840D01*
X193090Y622821D01*
X193177Y622794D01*
X193262Y622760D01*
X193303Y622756D01*
X193325Y622749D01*
X193357Y622750D01*
X193429Y622742D01*
X199570Y622742D01*
X199589Y622745D01*
X199609Y622743D01*
X199710Y622765D01*
X199812Y622781D01*
X199830Y622791D01*
X199849Y622795D01*
X199938Y622848D01*
X200030Y622897D01*
X200043Y622911D01*
X200060Y622921D01*
X200128Y623000D01*
X200199Y623075D01*
X200207Y623093D01*
X200220Y623108D01*
X200259Y623204D01*
X200303Y623298D01*
X200305Y623318D01*
X200312Y623336D01*
X200331Y623503D01*
X200331Y624884D01*
X201371Y627395D01*
X203292Y629316D01*
X205803Y630356D01*
X208520Y630356D01*
X211031Y629316D01*
X212952Y627395D01*
X213259Y626655D01*
X213283Y626616D01*
X213299Y626573D01*
X213347Y626512D01*
X213388Y626446D01*
X213424Y626416D01*
X213452Y626381D01*
X213518Y626339D01*
X213578Y626289D01*
X213621Y626272D01*
X213659Y626248D01*
X213735Y626229D01*
X213808Y626201D01*
X213853Y626199D01*
X213898Y626188D01*
X213975Y626194D01*
X214053Y626190D01*
X214097Y626203D01*
X214143Y626207D01*
X214215Y626237D01*
X214290Y626259D01*
X214327Y626285D01*
X214369Y626303D01*
X214476Y626388D01*
X214492Y626399D01*
X214495Y626403D01*
X214500Y626408D01*
X265124Y677032D01*
X265177Y677106D01*
X265237Y677175D01*
X265249Y677205D01*
X265268Y677231D01*
X265295Y677318D01*
X265329Y677403D01*
X265333Y677444D01*
X265340Y677467D01*
X265339Y677499D01*
X265347Y677570D01*
X265347Y735423D01*
X312363Y782439D01*
X312416Y782513D01*
X312475Y782582D01*
X312488Y782612D01*
X312506Y782638D01*
X312533Y782725D01*
X312567Y782810D01*
X312572Y782851D01*
X312579Y782874D01*
X312578Y782906D01*
X312586Y782977D01*
X312586Y785103D01*
X313626Y787613D01*
X315547Y789535D01*
X318058Y790575D01*
X320775Y790575D01*
X323286Y789535D01*
X325207Y787613D01*
X325514Y786873D01*
X325538Y786834D01*
X325554Y786791D01*
X325602Y786731D01*
X325643Y786664D01*
X325679Y786635D01*
X325707Y786599D01*
X325773Y786557D01*
X325833Y786507D01*
X325876Y786491D01*
X325914Y786466D01*
X325990Y786447D01*
X326063Y786419D01*
X326108Y786417D01*
X326153Y786406D01*
X326230Y786412D01*
X326308Y786409D01*
X326352Y786422D01*
X326398Y786425D01*
X326470Y786456D01*
X326545Y786477D01*
X326582Y786504D01*
X326624Y786521D01*
X326731Y786607D01*
X326747Y786618D01*
X326750Y786622D01*
X326755Y786626D01*
X347785Y807656D01*
X347838Y807730D01*
X347897Y807799D01*
X347910Y807829D01*
X347928Y807855D01*
X347955Y807942D01*
X347989Y808027D01*
X347994Y808068D01*
X348001Y808091D01*
X348000Y808123D01*
X348008Y808194D01*
X348008Y814571D01*
X347993Y814661D01*
X347986Y814752D01*
X347973Y814782D01*
X347968Y814814D01*
X347925Y814895D01*
X347890Y814979D01*
X347864Y815011D01*
X347853Y815031D01*
X347830Y815054D01*
X347785Y815110D01*
X346282Y816613D01*
X345242Y819123D01*
X345242Y821841D01*
X346282Y824351D01*
X348203Y826273D01*
X348689Y826474D01*
X348728Y826498D01*
X348771Y826514D01*
X348832Y826563D01*
X348898Y826604D01*
X348928Y826639D01*
X348963Y826668D01*
X349005Y826733D01*
X349055Y826793D01*
X349072Y826836D01*
X349096Y826875D01*
X349115Y826950D01*
X349143Y827023D01*
X349145Y827069D01*
X349156Y827113D01*
X349150Y827191D01*
X349154Y827269D01*
X349141Y827313D01*
X349137Y827358D01*
X349107Y827430D01*
X349085Y827505D01*
X349059Y827543D01*
X349041Y827585D01*
X348956Y827691D01*
X348945Y827707D01*
X348941Y827710D01*
X348936Y827716D01*
X313769Y862883D01*
X313695Y862936D01*
X313625Y862996D01*
X313595Y863008D01*
X313569Y863027D01*
X313482Y863054D01*
X313397Y863088D01*
X313356Y863092D01*
X313334Y863099D01*
X313302Y863098D01*
X313230Y863106D01*
X312336Y863106D01*
X312246Y863092D01*
X312155Y863084D01*
X312125Y863072D01*
X312093Y863067D01*
X312013Y863024D01*
X311929Y862988D01*
X311897Y862962D01*
X311876Y862951D01*
X311854Y862928D01*
X311798Y862883D01*
X241769Y792854D01*
X241716Y792780D01*
X241656Y792711D01*
X241644Y792681D01*
X241625Y792654D01*
X241598Y792567D01*
X241564Y792483D01*
X241560Y792442D01*
X241553Y792419D01*
X241554Y792387D01*
X241546Y792316D01*
X241546Y789529D01*
X240506Y787018D01*
X238584Y785097D01*
X236074Y784057D01*
X233356Y784057D01*
X230846Y785097D01*
X229597Y786346D01*
X229523Y786399D01*
X229453Y786458D01*
X229423Y786471D01*
X229397Y786489D01*
X229310Y786516D01*
X229225Y786550D01*
X229184Y786555D01*
X229162Y786562D01*
X229130Y786561D01*
X229058Y786569D01*
X132917Y786569D01*
X56433Y863053D01*
X56359Y863106D01*
X56289Y863166D01*
X56259Y863178D01*
X56233Y863197D01*
X56146Y863224D01*
X56061Y863258D01*
X56020Y863262D01*
X55998Y863269D01*
X55966Y863268D01*
X55894Y863276D01*
X37974Y863276D01*
X33353Y865191D01*
X29816Y868728D01*
X27901Y873349D01*
X27901Y878351D01*
X29816Y882972D01*
X33353Y886509D01*
X37974Y888424D01*
X62026Y888424D01*
X66647Y886509D01*
X70184Y882972D01*
X72099Y878351D01*
X72099Y873349D01*
X70184Y868728D01*
X67117Y865660D01*
X67106Y865644D01*
X67090Y865632D01*
X67034Y865545D01*
X66974Y865461D01*
X66968Y865442D01*
X66957Y865425D01*
X66932Y865324D01*
X66901Y865226D01*
X66902Y865206D01*
X66897Y865186D01*
X66905Y865083D01*
X66908Y864980D01*
X66915Y864961D01*
X66916Y864941D01*
X66957Y864846D01*
X66992Y864749D01*
X67005Y864733D01*
X67012Y864715D01*
X67117Y864584D01*
X136272Y795429D01*
X136346Y795376D01*
X136415Y795317D01*
X136445Y795304D01*
X136472Y795286D01*
X136559Y795259D01*
X136643Y795225D01*
X136684Y795220D01*
X136707Y795213D01*
X136739Y795214D01*
X136810Y795206D01*
X229058Y795206D01*
X229148Y795221D01*
X229239Y795228D01*
X229269Y795241D01*
X229301Y795246D01*
X229382Y795289D01*
X229466Y795324D01*
X229498Y795350D01*
X229518Y795361D01*
X229541Y795384D01*
X229597Y795429D01*
X230846Y796678D01*
X233356Y797718D01*
X234102Y797718D01*
X234192Y797733D01*
X234283Y797740D01*
X234313Y797753D01*
X234345Y797758D01*
X234426Y797801D01*
X234510Y797836D01*
X234542Y797862D01*
X234562Y797873D01*
X234585Y797896D01*
X234641Y797941D01*
X305690Y868991D01*
X305743Y869065D01*
X305803Y869134D01*
X305815Y869164D01*
X305834Y869191D01*
X305861Y869278D01*
X305895Y869362D01*
X305899Y869403D01*
X305906Y869426D01*
X305905Y869458D01*
X305913Y869529D01*
X305913Y875035D01*
X305899Y875125D01*
X305891Y875216D01*
X305879Y875246D01*
X305874Y875278D01*
X305831Y875358D01*
X305795Y875442D01*
X305769Y875474D01*
X305758Y875495D01*
X305735Y875517D01*
X305690Y875573D01*
X304441Y876822D01*
X303401Y879333D01*
X303401Y882050D01*
X304441Y884561D01*
X306363Y886482D01*
X308873Y887522D01*
X311591Y887522D01*
X314101Y886482D01*
X316023Y884561D01*
X317063Y882050D01*
X317063Y879333D01*
X316023Y876822D01*
X314774Y875573D01*
X314721Y875499D01*
X314661Y875430D01*
X314649Y875400D01*
X314630Y875373D01*
X314603Y875286D01*
X314569Y875202D01*
X314565Y875161D01*
X314558Y875138D01*
X314559Y875106D01*
X314551Y875035D01*
X314551Y872505D01*
X314554Y872485D01*
X314552Y872466D01*
X314574Y872364D01*
X314590Y872262D01*
X314600Y872245D01*
X314604Y872225D01*
X314657Y872136D01*
X314706Y872045D01*
X314720Y872031D01*
X314730Y872014D01*
X314809Y871947D01*
X314884Y871875D01*
X314902Y871867D01*
X314917Y871854D01*
X315013Y871815D01*
X315107Y871772D01*
X315127Y871770D01*
X315145Y871762D01*
X315312Y871744D01*
X317123Y871744D01*
X376089Y812778D01*
X376163Y812725D01*
X376233Y812665D01*
X376263Y812653D01*
X376289Y812634D01*
X376376Y812607D01*
X376461Y812573D01*
X376502Y812569D01*
X376524Y812562D01*
X376556Y812563D01*
X376628Y812555D01*
X489286Y812555D01*
X489376Y812569D01*
X489467Y812577D01*
X489497Y812589D01*
X489529Y812594D01*
X489609Y812637D01*
X489693Y812673D01*
X489725Y812699D01*
X489746Y812710D01*
X489768Y812733D01*
X489824Y812778D01*
X491073Y814027D01*
X493584Y815067D01*
X496301Y815067D01*
X496715Y814895D01*
X496759Y814885D01*
X496801Y814866D01*
X496878Y814857D01*
X496954Y814839D01*
X497000Y814844D01*
X497045Y814839D01*
X497122Y814855D01*
X497199Y814862D01*
X497241Y814881D01*
X497286Y814891D01*
X497353Y814931D01*
X497424Y814962D01*
X497458Y814993D01*
X497497Y815017D01*
X497548Y815076D01*
X497605Y815129D01*
X497627Y815169D01*
X497657Y815204D01*
X497686Y815276D01*
X497723Y815344D01*
X497732Y815389D01*
X497749Y815432D01*
X497764Y815568D01*
X497767Y815586D01*
X497766Y815591D01*
X497767Y815599D01*
X497767Y830133D01*
X497753Y830223D01*
X497745Y830314D01*
X497733Y830344D01*
X497728Y830376D01*
X497685Y830456D01*
X497649Y830540D01*
X497623Y830572D01*
X497612Y830593D01*
X497589Y830615D01*
X497544Y830671D01*
X496295Y831920D01*
X495255Y834431D01*
X495255Y835177D01*
X495241Y835267D01*
X495233Y835358D01*
X495221Y835388D01*
X495216Y835420D01*
X495173Y835500D01*
X495137Y835584D01*
X495111Y835616D01*
X495100Y835637D01*
X495077Y835659D01*
X495032Y835715D01*
X433638Y897109D01*
X433564Y897162D01*
X433495Y897222D01*
X433465Y897234D01*
X433438Y897253D01*
X433351Y897280D01*
X433267Y897314D01*
X433226Y897318D01*
X433203Y897325D01*
X433171Y897324D01*
X433100Y897332D01*
X431333Y897332D01*
X428823Y898372D01*
X426901Y900294D01*
X425861Y902804D01*
X425861Y905522D01*
X426901Y908032D01*
X428823Y909954D01*
X431333Y910994D01*
X434051Y910994D01*
X436561Y909954D01*
X438483Y908032D01*
X439523Y905522D01*
X439523Y903755D01*
X439537Y903665D01*
X439545Y903574D01*
X439557Y903544D01*
X439562Y903512D01*
X439605Y903432D01*
X439641Y903348D01*
X439667Y903316D01*
X439678Y903295D01*
X439701Y903273D01*
X439746Y903217D01*
X500119Y842843D01*
X500193Y842790D01*
X500263Y842731D01*
X500293Y842718D01*
X500319Y842700D01*
X500406Y842673D01*
X500491Y842639D01*
X500532Y842634D01*
X500554Y842627D01*
X500586Y842628D01*
X500658Y842620D01*
X503445Y842620D01*
X505955Y841580D01*
X507877Y839659D01*
X508917Y837148D01*
X508917Y834431D01*
X507877Y831920D01*
X506628Y830671D01*
X506575Y830597D01*
X506515Y830528D01*
X506503Y830498D01*
X506484Y830471D01*
X506457Y830384D01*
X506423Y830300D01*
X506419Y830259D01*
X506412Y830236D01*
X506413Y830204D01*
X506405Y830133D01*
X506405Y807895D01*
X506416Y807824D01*
X506418Y807752D01*
X506436Y807703D01*
X506444Y807652D01*
X506478Y807589D01*
X506503Y807521D01*
X506535Y807481D01*
X506560Y807435D01*
X506611Y807385D01*
X506656Y807329D01*
X506700Y807301D01*
X506738Y807265D01*
X506803Y807235D01*
X506863Y807196D01*
X506914Y807184D01*
X506961Y807162D01*
X507032Y807154D01*
X507102Y807136D01*
X507154Y807140D01*
X507205Y807135D01*
X507276Y807150D01*
X507347Y807156D01*
X507395Y807176D01*
X507446Y807187D01*
X507507Y807224D01*
X507573Y807252D01*
X507629Y807297D01*
X507657Y807313D01*
X507672Y807331D01*
X507704Y807357D01*
X615220Y914873D01*
X615262Y914931D01*
X615312Y914983D01*
X615334Y915030D01*
X615364Y915072D01*
X615385Y915141D01*
X615415Y915206D01*
X615421Y915258D01*
X615436Y915308D01*
X615434Y915379D01*
X615442Y915450D01*
X615431Y915501D01*
X615430Y915553D01*
X615405Y915621D01*
X615390Y915691D01*
X615363Y915735D01*
X615345Y915784D01*
X615301Y915840D01*
X615264Y915902D01*
X615224Y915936D01*
X615192Y915976D01*
X615131Y916015D01*
X615077Y916062D01*
X615029Y916081D01*
X614985Y916109D01*
X614915Y916127D01*
X614849Y916154D01*
X614777Y916162D01*
X614746Y916170D01*
X614723Y916168D01*
X614682Y916172D01*
X579075Y916172D01*
X578960Y916153D01*
X578844Y916136D01*
X578839Y916134D01*
X578832Y916133D01*
X578730Y916078D01*
X578625Y916025D01*
X578621Y916020D01*
X578615Y916017D01*
X578535Y915933D01*
X578453Y915849D01*
X578449Y915843D01*
X578446Y915839D01*
X578438Y915822D01*
X578372Y915702D01*
X577887Y914532D01*
X575172Y911817D01*
X571624Y910347D01*
X554576Y910347D01*
X551028Y911817D01*
X548313Y914532D01*
X546843Y918080D01*
X546843Y921920D01*
X548313Y925468D01*
X551028Y928183D01*
X554576Y929653D01*
X571624Y929653D01*
X575172Y928183D01*
X577887Y925468D01*
X577965Y925280D01*
X578027Y925181D01*
X578087Y925080D01*
X578091Y925076D01*
X578095Y925071D01*
X578184Y924997D01*
X578274Y924920D01*
X578279Y924918D01*
X578284Y924914D01*
X578392Y924872D01*
X578502Y924828D01*
X578509Y924827D01*
X578514Y924826D01*
X578532Y924825D01*
X578668Y924810D01*
X617339Y924810D01*
X617429Y924824D01*
X617520Y924832D01*
X617550Y924844D01*
X617582Y924849D01*
X617663Y924892D01*
X617747Y924928D01*
X617779Y924954D01*
X617799Y924965D01*
X617822Y924988D01*
X617878Y925033D01*
X625819Y932974D01*
X723282Y932974D01*
X777912Y878344D01*
X777970Y878303D01*
X778022Y878253D01*
X778069Y878231D01*
X778111Y878201D01*
X778180Y878180D01*
X778245Y878150D01*
X778297Y878144D01*
X778347Y878128D01*
X778418Y878130D01*
X778489Y878122D01*
X778540Y878133D01*
X778592Y878135D01*
X778660Y878159D01*
X778730Y878175D01*
X778775Y878201D01*
X778823Y878219D01*
X778879Y878264D01*
X778941Y878301D01*
X778975Y878340D01*
X779015Y878373D01*
X779054Y878433D01*
X779101Y878488D01*
X779120Y878536D01*
X779148Y878580D01*
X779166Y878649D01*
X779193Y878716D01*
X779201Y878787D01*
X779209Y878818D01*
X779207Y878842D01*
X779211Y878883D01*
X779211Y879622D01*
X780835Y883543D01*
X783837Y886545D01*
X787758Y888169D01*
X807242Y888169D01*
X811163Y886545D01*
X814165Y883543D01*
X815789Y879622D01*
X815789Y875378D01*
X814165Y871457D01*
X811163Y868455D01*
X807242Y866831D01*
X791263Y866831D01*
X791192Y866820D01*
X791120Y866818D01*
X791071Y866800D01*
X791020Y866792D01*
X790957Y866758D01*
X790889Y866733D01*
X790849Y866701D01*
X790803Y866676D01*
X790753Y866624D01*
X790697Y866580D01*
X790669Y866536D01*
X790633Y866498D01*
X790603Y866433D01*
X790564Y866373D01*
X790551Y866322D01*
X790530Y866275D01*
X790522Y866204D01*
X790504Y866134D01*
X790508Y866082D01*
X790502Y866031D01*
X790518Y865960D01*
X790523Y865889D01*
X790544Y865841D01*
X790555Y865790D01*
X790591Y865729D01*
X790620Y865663D01*
X790664Y865607D01*
X790681Y865579D01*
X790699Y865564D01*
X790724Y865532D01*
X792864Y863392D01*
X792938Y863339D01*
X793008Y863279D01*
X793038Y863267D01*
X793064Y863248D01*
X793151Y863221D01*
X793236Y863187D01*
X793277Y863183D01*
X793299Y863176D01*
X793331Y863177D01*
X793403Y863169D01*
X807242Y863169D01*
X811163Y861545D01*
X814165Y858543D01*
X815789Y854622D01*
X815789Y850378D01*
X814165Y846457D01*
X811163Y843455D01*
X807242Y841831D01*
X793147Y841831D01*
X793057Y841817D01*
X792966Y841809D01*
X792936Y841797D01*
X792904Y841792D01*
X792824Y841749D01*
X792740Y841713D01*
X792708Y841687D01*
X792687Y841676D01*
X792665Y841653D01*
X792609Y841608D01*
X783183Y832183D01*
X783130Y832109D01*
X783071Y832039D01*
X783058Y832009D01*
X783040Y831983D01*
X783013Y831896D01*
X782979Y831811D01*
X782974Y831770D01*
X782967Y831748D01*
X782968Y831716D01*
X782960Y831644D01*
X782960Y786526D01*
X782962Y786514D01*
X782961Y786502D01*
X782982Y786393D01*
X783000Y786283D01*
X783006Y786273D01*
X783008Y786261D01*
X783063Y786164D01*
X783115Y786066D01*
X783124Y786058D01*
X783130Y786047D01*
X783213Y785973D01*
X783293Y785896D01*
X783304Y785891D01*
X783313Y785883D01*
X783416Y785840D01*
X783516Y785793D01*
X783528Y785791D01*
X783539Y785787D01*
X783650Y785778D01*
X783761Y785766D01*
X783773Y785768D01*
X783785Y785767D01*
X783893Y785794D01*
X784001Y785818D01*
X784012Y785824D01*
X784023Y785827D01*
X784169Y785910D01*
X784555Y786190D01*
X785980Y786916D01*
X787501Y787411D01*
X789080Y787661D01*
X795977Y787661D01*
X795977Y778262D01*
X795980Y778243D01*
X795978Y778223D01*
X796000Y778121D01*
X796017Y778019D01*
X796026Y778002D01*
X796030Y777982D01*
X796083Y777893D01*
X796132Y777802D01*
X796146Y777788D01*
X796156Y777771D01*
X796235Y777704D01*
X796310Y777633D01*
X796328Y777624D01*
X796343Y777611D01*
X796439Y777573D01*
X796533Y777529D01*
X796553Y777527D01*
X796571Y777519D01*
X796738Y777501D01*
X797501Y777501D01*
X797501Y777499D01*
X796738Y777499D01*
X796718Y777496D01*
X796699Y777498D01*
X796597Y777476D01*
X796495Y777459D01*
X796478Y777450D01*
X796458Y777446D01*
X796369Y777393D01*
X796278Y777344D01*
X796264Y777330D01*
X796247Y777320D01*
X796180Y777241D01*
X796109Y777166D01*
X796100Y777148D01*
X796087Y777133D01*
X796048Y777037D01*
X796005Y776943D01*
X796003Y776923D01*
X795995Y776905D01*
X795977Y776738D01*
X795977Y767339D01*
X789080Y767339D01*
X787501Y767589D01*
X785980Y768084D01*
X784555Y768810D01*
X784169Y769090D01*
X784158Y769095D01*
X784150Y769104D01*
X784049Y769151D01*
X783949Y769201D01*
X783937Y769202D01*
X783926Y769207D01*
X783816Y769220D01*
X783706Y769235D01*
X783694Y769233D01*
X783682Y769234D01*
X783574Y769211D01*
X783464Y769190D01*
X783453Y769185D01*
X783442Y769182D01*
X783347Y769125D01*
X783249Y769071D01*
X783241Y769062D01*
X783231Y769056D01*
X783159Y768972D01*
X783083Y768889D01*
X783078Y768878D01*
X783071Y768869D01*
X783029Y768766D01*
X782984Y768664D01*
X782983Y768652D01*
X782979Y768641D01*
X782960Y768474D01*
X782960Y762321D01*
X782968Y762276D01*
X782966Y762230D01*
X782987Y762155D01*
X783000Y762078D01*
X783021Y762038D01*
X783034Y761993D01*
X783079Y761929D01*
X783115Y761861D01*
X783148Y761829D01*
X783174Y761791D01*
X783237Y761745D01*
X783293Y761691D01*
X783335Y761672D01*
X783372Y761645D01*
X783446Y761620D01*
X783516Y761588D01*
X783562Y761583D01*
X783606Y761568D01*
X783684Y761569D01*
X783761Y761561D01*
X783806Y761570D01*
X783852Y761571D01*
X783983Y761609D01*
X784001Y761613D01*
X784006Y761615D01*
X784013Y761617D01*
X787758Y763169D01*
X807242Y763169D01*
X811163Y761545D01*
X814165Y758543D01*
X815789Y754622D01*
X815789Y750378D01*
X814165Y746457D01*
X811163Y743455D01*
X807242Y741831D01*
X792782Y741831D01*
X792711Y741820D01*
X792640Y741818D01*
X792591Y741800D01*
X792539Y741792D01*
X792476Y741758D01*
X792409Y741733D01*
X792368Y741701D01*
X792322Y741676D01*
X792273Y741624D01*
X792217Y741580D01*
X792188Y741536D01*
X792153Y741498D01*
X792122Y741433D01*
X792084Y741373D01*
X792071Y741322D01*
X792049Y741275D01*
X792041Y741204D01*
X792024Y741134D01*
X792028Y741082D01*
X792022Y741031D01*
X792037Y740960D01*
X792043Y740889D01*
X792063Y740841D01*
X792074Y740790D01*
X792111Y740729D01*
X792139Y740663D01*
X792184Y740607D01*
X792200Y740579D01*
X792218Y740564D01*
X792244Y740532D01*
X794384Y738392D01*
X794458Y738339D01*
X794527Y738279D01*
X794557Y738267D01*
X794584Y738248D01*
X794671Y738221D01*
X794755Y738187D01*
X794796Y738183D01*
X794819Y738176D01*
X794851Y738177D01*
X794922Y738169D01*
X807242Y738169D01*
X811163Y736545D01*
X814165Y733543D01*
X815789Y729622D01*
X815789Y725378D01*
X814165Y721457D01*
X811163Y718455D01*
X807242Y716831D01*
X787758Y716831D01*
X783837Y718455D01*
X780835Y721457D01*
X779211Y725378D01*
X779211Y729622D01*
X780835Y733543D01*
X783388Y736096D01*
X783400Y736112D01*
X783415Y736124D01*
X783471Y736212D01*
X783532Y736296D01*
X783537Y736315D01*
X783548Y736331D01*
X783573Y736432D01*
X783604Y736531D01*
X783603Y736551D01*
X783608Y736570D01*
X783600Y736673D01*
X783598Y736777D01*
X783591Y736795D01*
X783589Y736815D01*
X783549Y736910D01*
X783513Y737008D01*
X783501Y737023D01*
X783493Y737041D01*
X783388Y737172D01*
X777076Y743485D01*
X774323Y746238D01*
X774323Y835537D01*
X782500Y843715D01*
X782512Y843731D01*
X782528Y843744D01*
X782584Y843831D01*
X782644Y843915D01*
X782650Y843934D01*
X782661Y843951D01*
X782686Y844051D01*
X782716Y844150D01*
X782716Y844170D01*
X782721Y844189D01*
X782713Y844292D01*
X782710Y844396D01*
X782703Y844415D01*
X782702Y844434D01*
X782661Y844529D01*
X782626Y844627D01*
X782613Y844642D01*
X782605Y844661D01*
X782500Y844792D01*
X780835Y846457D01*
X779211Y850378D01*
X779211Y854622D01*
X780835Y858543D01*
X782628Y860336D01*
X782640Y860352D01*
X782655Y860365D01*
X782711Y860452D01*
X782772Y860536D01*
X782778Y860555D01*
X782788Y860572D01*
X782814Y860672D01*
X782844Y860771D01*
X782844Y860791D01*
X782848Y860810D01*
X782840Y860913D01*
X782838Y861017D01*
X782831Y861036D01*
X782829Y861055D01*
X782789Y861150D01*
X782753Y861248D01*
X782741Y861263D01*
X782733Y861282D01*
X782628Y861413D01*
X719928Y924113D01*
X719854Y924166D01*
X719784Y924226D01*
X719754Y924238D01*
X719728Y924257D01*
X719641Y924284D01*
X719556Y924318D01*
X719515Y924322D01*
X719493Y924329D01*
X719461Y924328D01*
X719389Y924336D01*
X671148Y924336D01*
X671077Y924325D01*
X671005Y924323D01*
X670956Y924305D01*
X670905Y924297D01*
X670842Y924263D01*
X670774Y924238D01*
X670734Y924206D01*
X670688Y924181D01*
X670638Y924130D01*
X670582Y924085D01*
X670554Y924041D01*
X670518Y924003D01*
X670488Y923938D01*
X670449Y923878D01*
X670437Y923827D01*
X670415Y923780D01*
X670407Y923709D01*
X670389Y923639D01*
X670393Y923587D01*
X670388Y923536D01*
X670403Y923465D01*
X670409Y923394D01*
X670429Y923346D01*
X670440Y923295D01*
X670477Y923234D01*
X670505Y923168D01*
X670550Y923112D01*
X670566Y923084D01*
X670584Y923069D01*
X670610Y923037D01*
X675507Y918140D01*
X675523Y918128D01*
X675535Y918112D01*
X675623Y918056D01*
X675707Y917996D01*
X675725Y917990D01*
X675742Y917979D01*
X675843Y917954D01*
X675942Y917924D01*
X675962Y917924D01*
X675981Y917919D01*
X676084Y917927D01*
X676187Y917930D01*
X676206Y917937D01*
X676226Y917938D01*
X676321Y917979D01*
X676418Y918015D01*
X676434Y918027D01*
X676452Y918035D01*
X676583Y918140D01*
X681224Y922781D01*
X683877Y922781D01*
X683877Y913462D01*
X683880Y913442D01*
X683878Y913423D01*
X683900Y913321D01*
X683917Y913219D01*
X683926Y913202D01*
X683930Y913182D01*
X683983Y913093D01*
X684032Y913002D01*
X684046Y912988D01*
X684056Y912971D01*
X684135Y912904D01*
X684210Y912833D01*
X684228Y912824D01*
X684243Y912811D01*
X684339Y912773D01*
X684433Y912729D01*
X684453Y912727D01*
X684471Y912719D01*
X684638Y912701D01*
X685401Y912701D01*
X685401Y911938D01*
X685404Y911918D01*
X685402Y911899D01*
X685424Y911797D01*
X685441Y911695D01*
X685450Y911678D01*
X685454Y911658D01*
X685507Y911569D01*
X685556Y911478D01*
X685570Y911464D01*
X685580Y911447D01*
X685659Y911380D01*
X685734Y911309D01*
X685752Y911300D01*
X685767Y911287D01*
X685863Y911248D01*
X685957Y911205D01*
X685977Y911203D01*
X685995Y911195D01*
X686162Y911177D01*
X695481Y911177D01*
X695481Y908524D01*
X690840Y903883D01*
X690828Y903867D01*
X690812Y903855D01*
X690756Y903768D01*
X690696Y903684D01*
X690690Y903665D01*
X690679Y903648D01*
X690654Y903548D01*
X690624Y903449D01*
X690624Y903429D01*
X690619Y903409D01*
X690627Y903306D01*
X690630Y903203D01*
X690637Y903184D01*
X690638Y903164D01*
X690679Y903069D01*
X690715Y902972D01*
X690727Y902956D01*
X690735Y902938D01*
X690840Y902807D01*
X691084Y902562D01*
X711271Y882375D01*
X711271Y816757D01*
X710474Y815960D01*
X710421Y815886D01*
X710361Y815816D01*
X710349Y815786D01*
X710330Y815760D01*
X710303Y815673D01*
X710269Y815588D01*
X710265Y815547D01*
X710258Y815525D01*
X710259Y815493D01*
X710251Y815422D01*
X710251Y759040D01*
X710265Y758950D01*
X710273Y758859D01*
X710285Y758829D01*
X710290Y758797D01*
X710333Y758716D01*
X710369Y758632D01*
X710395Y758600D01*
X710406Y758580D01*
X710429Y758557D01*
X710474Y758501D01*
X711977Y756998D01*
X713017Y754488D01*
X713017Y751770D01*
X711977Y749260D01*
X710055Y747338D01*
X707545Y746298D01*
X704827Y746298D01*
X704160Y746575D01*
X704115Y746585D01*
X704073Y746605D01*
X703996Y746613D01*
X703920Y746631D01*
X703875Y746627D01*
X703829Y746632D01*
X703753Y746615D01*
X703675Y746608D01*
X703634Y746589D01*
X703589Y746579D01*
X703522Y746539D01*
X703451Y746508D01*
X703417Y746477D01*
X703378Y746453D01*
X703327Y746394D01*
X703270Y746341D01*
X703247Y746301D01*
X703218Y746266D01*
X703189Y746194D01*
X703151Y746126D01*
X703143Y746081D01*
X703126Y746038D01*
X703111Y745902D01*
X703107Y745884D01*
X703108Y745879D01*
X703107Y745871D01*
X703107Y734718D01*
X703122Y734628D01*
X703129Y734537D01*
X703142Y734507D01*
X703147Y734475D01*
X703190Y734395D01*
X703225Y734311D01*
X703251Y734279D01*
X703262Y734258D01*
X703285Y734236D01*
X703330Y734180D01*
X728442Y709068D01*
X728479Y709042D01*
X728510Y709008D01*
X728578Y708970D01*
X728641Y708925D01*
X728685Y708911D01*
X728725Y708889D01*
X728802Y708875D01*
X728876Y708852D01*
X728922Y708854D01*
X728967Y708845D01*
X729044Y708857D01*
X729122Y708859D01*
X729165Y708875D01*
X729211Y708881D01*
X729280Y708916D01*
X729353Y708943D01*
X729389Y708972D01*
X729430Y708993D01*
X729485Y709048D01*
X729545Y709097D01*
X729570Y709136D01*
X729602Y709168D01*
X729668Y709288D01*
X729678Y709304D01*
X729680Y709309D01*
X729683Y709315D01*
X729990Y710055D01*
X731911Y711977D01*
X734422Y713017D01*
X737139Y713017D01*
X739650Y711977D01*
X741571Y710055D01*
X742611Y707545D01*
X742611Y704827D01*
X741691Y702606D01*
X741665Y702493D01*
X741636Y702379D01*
X741636Y702373D01*
X741635Y702367D01*
X741646Y702250D01*
X741655Y702134D01*
X741658Y702128D01*
X741658Y702122D01*
X741706Y702014D01*
X741751Y701908D01*
X741756Y701902D01*
X741758Y701897D01*
X741771Y701883D01*
X741856Y701777D01*
X780102Y663531D01*
X782872Y660761D01*
X782939Y660713D01*
X783002Y660657D01*
X783039Y660641D01*
X783071Y660618D01*
X783151Y660593D01*
X783228Y660560D01*
X783268Y660557D01*
X783306Y660545D01*
X783390Y660547D01*
X783473Y660541D01*
X783512Y660551D01*
X783552Y660552D01*
X783631Y660580D01*
X783712Y660601D01*
X783757Y660627D01*
X783783Y660636D01*
X783807Y660655D01*
X783857Y660684D01*
X784555Y661190D01*
X785980Y661916D01*
X787501Y662411D01*
X789080Y662661D01*
X795977Y662661D01*
X795977Y653262D01*
X795980Y653242D01*
X795978Y653223D01*
X796000Y653121D01*
X796017Y653019D01*
X796026Y653002D01*
X796030Y652982D01*
X796083Y652893D01*
X796132Y652802D01*
X796146Y652788D01*
X796156Y652771D01*
X796235Y652704D01*
X796310Y652633D01*
X796328Y652624D01*
X796343Y652611D01*
X796439Y652573D01*
X796533Y652529D01*
X796553Y652527D01*
X796571Y652519D01*
X796738Y652501D01*
X797501Y652501D01*
X797501Y652499D01*
X796738Y652499D01*
X796718Y652496D01*
X796699Y652498D01*
X796597Y652476D01*
X796495Y652459D01*
X796478Y652450D01*
X796458Y652446D01*
X796369Y652393D01*
X796278Y652344D01*
X796264Y652330D01*
X796247Y652320D01*
X796180Y652241D01*
X796109Y652166D01*
X796100Y652148D01*
X796087Y652133D01*
X796048Y652037D01*
X796005Y651943D01*
X796003Y651923D01*
X795995Y651905D01*
X795977Y651738D01*
X795977Y642339D01*
X789080Y642339D01*
X787501Y642589D01*
X785980Y643084D01*
X784555Y643810D01*
X783915Y644275D01*
X783904Y644280D01*
X783896Y644288D01*
X783794Y644335D01*
X783695Y644385D01*
X783683Y644387D01*
X783672Y644392D01*
X783562Y644404D01*
X783452Y644420D01*
X783440Y644418D01*
X783428Y644419D01*
X783320Y644395D01*
X783210Y644375D01*
X783199Y644369D01*
X783188Y644367D01*
X783092Y644310D01*
X782995Y644255D01*
X782987Y644247D01*
X782977Y644240D01*
X782904Y644156D01*
X782829Y644074D01*
X782824Y644063D01*
X782817Y644054D01*
X782775Y643950D01*
X782730Y643848D01*
X782729Y643837D01*
X782725Y643825D01*
X782706Y643659D01*
X782706Y637216D01*
X782714Y637170D01*
X782712Y637124D01*
X782733Y637050D01*
X782746Y636973D01*
X782767Y636932D01*
X782780Y636888D01*
X782825Y636824D01*
X782861Y636755D01*
X782894Y636724D01*
X782920Y636686D01*
X782983Y636640D01*
X783039Y636586D01*
X783081Y636567D01*
X783118Y636539D01*
X783192Y636515D01*
X783262Y636482D01*
X783308Y636477D01*
X783352Y636463D01*
X783430Y636464D01*
X783507Y636455D01*
X783552Y636465D01*
X783598Y636466D01*
X783729Y636504D01*
X783747Y636508D01*
X783752Y636510D01*
X783759Y636512D01*
X787758Y638169D01*
X807242Y638169D01*
X811163Y636545D01*
X814165Y633543D01*
X815789Y629622D01*
X815789Y625378D01*
X814165Y621457D01*
X811163Y618455D01*
X807242Y616831D01*
X787758Y616831D01*
X783759Y618488D01*
X783714Y618498D01*
X783672Y618518D01*
X783595Y618526D01*
X783519Y618544D01*
X783474Y618540D01*
X783428Y618545D01*
X783352Y618528D01*
X783274Y618521D01*
X783233Y618502D01*
X783188Y618492D01*
X783121Y618452D01*
X783050Y618421D01*
X783016Y618390D01*
X782977Y618366D01*
X782926Y618307D01*
X782869Y618254D01*
X782846Y618214D01*
X782817Y618179D01*
X782788Y618107D01*
X782750Y618039D01*
X782742Y617994D01*
X782725Y617951D01*
X782710Y617815D01*
X782706Y617797D01*
X782707Y617792D01*
X782706Y617784D01*
X782706Y612216D01*
X782714Y612170D01*
X782712Y612124D01*
X782733Y612050D01*
X782746Y611973D01*
X782767Y611932D01*
X782780Y611888D01*
X782825Y611824D01*
X782861Y611755D01*
X782894Y611724D01*
X782920Y611686D01*
X782983Y611640D01*
X783039Y611586D01*
X783081Y611567D01*
X783118Y611539D01*
X783192Y611515D01*
X783262Y611482D01*
X783308Y611477D01*
X783352Y611463D01*
X783430Y611464D01*
X783507Y611455D01*
X783552Y611465D01*
X783598Y611466D01*
X783729Y611504D01*
X783747Y611508D01*
X783752Y611510D01*
X783759Y611512D01*
X787758Y613169D01*
X807242Y613169D01*
X811163Y611545D01*
X814165Y608543D01*
X815789Y604622D01*
X815789Y600378D01*
X814165Y596457D01*
X811163Y593455D01*
X807242Y591831D01*
X787758Y591831D01*
X783759Y593488D01*
X783714Y593498D01*
X783672Y593518D01*
X783595Y593526D01*
X783519Y593544D01*
X783474Y593540D01*
X783428Y593545D01*
X783352Y593528D01*
X783274Y593521D01*
X783233Y593502D01*
X783188Y593492D01*
X783121Y593452D01*
X783050Y593421D01*
X783016Y593390D01*
X782977Y593366D01*
X782926Y593307D01*
X782869Y593254D01*
X782846Y593214D01*
X782817Y593179D01*
X782788Y593107D01*
X782750Y593039D01*
X782742Y592994D01*
X782725Y592951D01*
X782710Y592815D01*
X782706Y592797D01*
X782707Y592792D01*
X782706Y592784D01*
X782706Y505105D01*
X782721Y505015D01*
X782728Y504924D01*
X782741Y504895D01*
X782746Y504863D01*
X782789Y504782D01*
X782824Y504698D01*
X782850Y504666D01*
X782861Y504645D01*
X782884Y504623D01*
X782929Y504567D01*
X794952Y492544D01*
X794952Y420234D01*
X794967Y420144D01*
X794974Y420053D01*
X794987Y420023D01*
X794992Y419991D01*
X795035Y419910D01*
X795070Y419826D01*
X795096Y419794D01*
X795107Y419774D01*
X795130Y419751D01*
X795175Y419695D01*
X796678Y418192D01*
X797718Y415682D01*
X797718Y412964D01*
X796678Y410454D01*
X794757Y408532D01*
X792246Y407492D01*
X789529Y407492D01*
X788861Y407769D01*
X788817Y407779D01*
X788775Y407799D01*
X788698Y407807D01*
X788622Y407825D01*
X788576Y407821D01*
X788531Y407826D01*
X788454Y407809D01*
X788377Y407802D01*
X788335Y407783D01*
X788290Y407773D01*
X788223Y407733D01*
X788152Y407702D01*
X788118Y407671D01*
X788079Y407647D01*
X788028Y407588D01*
X787971Y407535D01*
X787949Y407495D01*
X787919Y407460D01*
X787890Y407388D01*
X787853Y407320D01*
X787844Y407275D01*
X787827Y407232D01*
X787812Y407096D01*
X787809Y407078D01*
X787810Y407073D01*
X787809Y407065D01*
X787809Y309169D01*
X787823Y309079D01*
X787831Y308988D01*
X787843Y308959D01*
X787848Y308927D01*
X787891Y308846D01*
X787927Y308762D01*
X787953Y308730D01*
X787964Y308709D01*
X787987Y308687D01*
X788032Y308631D01*
X797711Y298952D01*
X797748Y298925D01*
X797779Y298891D01*
X797848Y298854D01*
X797911Y298808D01*
X797955Y298795D01*
X797995Y298773D01*
X798072Y298759D01*
X798146Y298736D01*
X798192Y298737D01*
X798237Y298729D01*
X798314Y298740D01*
X798392Y298742D01*
X798435Y298758D01*
X798480Y298765D01*
X798550Y298800D01*
X798623Y298827D01*
X798659Y298855D01*
X798700Y298876D01*
X798754Y298932D01*
X798815Y298980D01*
X798840Y299019D01*
X798872Y299052D01*
X798938Y299172D01*
X798948Y299187D01*
X798949Y299192D01*
X798953Y299199D01*
X800271Y302382D01*
X802968Y305079D01*
X806493Y306539D01*
X810307Y306539D01*
X813832Y305079D01*
X816529Y302382D01*
X817989Y298857D01*
X817989Y295043D01*
X816529Y291518D01*
X813832Y288821D01*
X810307Y287361D01*
X810000Y287361D01*
X809981Y287358D01*
X809961Y287360D01*
X809860Y287338D01*
X809758Y287322D01*
X809740Y287312D01*
X809721Y287308D01*
X809632Y287255D01*
X809540Y287206D01*
X809527Y287192D01*
X809510Y287182D01*
X809442Y287103D01*
X809371Y287028D01*
X809363Y287010D01*
X809350Y286995D01*
X809311Y286899D01*
X809267Y286805D01*
X809265Y286785D01*
X809258Y286767D01*
X809239Y286600D01*
X809239Y265606D01*
X809251Y265536D01*
X809253Y265464D01*
X809271Y265415D01*
X809279Y265364D01*
X809312Y265300D01*
X809337Y265233D01*
X809370Y265192D01*
X809394Y265146D01*
X809446Y265097D01*
X809491Y265041D01*
X809535Y265013D01*
X809572Y264977D01*
X809637Y264947D01*
X809698Y264908D01*
X809748Y264895D01*
X809795Y264873D01*
X809867Y264865D01*
X809936Y264848D01*
X809988Y264852D01*
X810040Y264846D01*
X810110Y264861D01*
X810182Y264867D01*
X810229Y264887D01*
X810280Y264898D01*
X810342Y264935D01*
X810408Y264963D01*
X810464Y265008D01*
X810491Y265025D01*
X810507Y265042D01*
X810539Y265068D01*
X810737Y265267D01*
X813423Y265267D01*
X813423Y255868D01*
X813426Y255848D01*
X813424Y255829D01*
X813446Y255727D01*
X813463Y255625D01*
X813472Y255608D01*
X813476Y255588D01*
X813529Y255499D01*
X813578Y255408D01*
X813592Y255394D01*
X813602Y255377D01*
X813681Y255310D01*
X813756Y255239D01*
X813774Y255230D01*
X813789Y255217D01*
X813885Y255179D01*
X813979Y255135D01*
X813999Y255133D01*
X814017Y255125D01*
X814184Y255107D01*
X814947Y255107D01*
X814947Y254344D01*
X814950Y254324D01*
X814948Y254305D01*
X814970Y254203D01*
X814987Y254101D01*
X814996Y254084D01*
X815000Y254064D01*
X815053Y253975D01*
X815102Y253884D01*
X815116Y253870D01*
X815126Y253853D01*
X815205Y253786D01*
X815280Y253715D01*
X815298Y253706D01*
X815313Y253693D01*
X815409Y253654D01*
X815503Y253611D01*
X815523Y253609D01*
X815541Y253601D01*
X815708Y253583D01*
X825107Y253583D01*
X825107Y250897D01*
X819155Y244945D01*
X816817Y244945D01*
X816747Y244934D01*
X816675Y244932D01*
X816626Y244914D01*
X816575Y244905D01*
X816511Y244872D01*
X816444Y244847D01*
X816403Y244815D01*
X816357Y244790D01*
X816308Y244738D01*
X816252Y244694D01*
X816224Y244650D01*
X816188Y244612D01*
X816158Y244547D01*
X816119Y244487D01*
X816106Y244436D01*
X816084Y244389D01*
X816076Y244318D01*
X816059Y244248D01*
X816063Y244196D01*
X816057Y244145D01*
X816072Y244074D01*
X816078Y244003D01*
X816098Y243955D01*
X816109Y243904D01*
X816146Y243843D01*
X816174Y243777D01*
X816219Y243721D01*
X816236Y243693D01*
X816254Y243678D01*
X816279Y243646D01*
X818424Y241501D01*
X818424Y221324D01*
X818427Y221304D01*
X818425Y221285D01*
X818447Y221183D01*
X818463Y221081D01*
X818473Y221064D01*
X818477Y221044D01*
X818530Y220955D01*
X818579Y220864D01*
X818593Y220850D01*
X818603Y220833D01*
X818682Y220766D01*
X818757Y220694D01*
X818775Y220686D01*
X818790Y220673D01*
X818886Y220634D01*
X818980Y220591D01*
X819000Y220589D01*
X819018Y220581D01*
X819185Y220563D01*
X819365Y220563D01*
X825615Y214313D01*
X825615Y205475D01*
X819365Y199225D01*
X810527Y199225D01*
G37*
%LPD*%
%LPC*%
G36*
X302425Y52063D02*
X302425Y52063D01*
X273012Y81476D01*
X272996Y81488D01*
X272983Y81504D01*
X272896Y81560D01*
X272812Y81620D01*
X272793Y81626D01*
X272776Y81637D01*
X272676Y81662D01*
X272577Y81692D01*
X272557Y81692D01*
X272538Y81697D01*
X272435Y81689D01*
X272331Y81686D01*
X272312Y81679D01*
X272292Y81677D01*
X272198Y81637D01*
X272100Y81601D01*
X272084Y81589D01*
X272066Y81581D01*
X271935Y81476D01*
X268302Y77843D01*
X268249Y77769D01*
X268189Y77699D01*
X268177Y77669D01*
X268158Y77643D01*
X268131Y77556D01*
X268097Y77471D01*
X268093Y77430D01*
X268086Y77408D01*
X268087Y77376D01*
X268079Y77305D01*
X268079Y75179D01*
X267039Y72668D01*
X265117Y70747D01*
X262607Y69707D01*
X259889Y69707D01*
X257379Y70747D01*
X255876Y72250D01*
X255802Y72303D01*
X255732Y72362D01*
X255702Y72375D01*
X255676Y72393D01*
X255589Y72420D01*
X255504Y72454D01*
X255463Y72459D01*
X255441Y72466D01*
X255409Y72465D01*
X255337Y72473D01*
X183027Y72473D01*
X125081Y130418D01*
X125007Y130471D01*
X124938Y130531D01*
X124908Y130543D01*
X124882Y130562D01*
X124795Y130589D01*
X124710Y130623D01*
X124669Y130627D01*
X124646Y130634D01*
X124614Y130633D01*
X124543Y130641D01*
X124289Y130641D01*
X124199Y130627D01*
X124108Y130619D01*
X124078Y130607D01*
X124046Y130602D01*
X123965Y130559D01*
X123881Y130523D01*
X123849Y130497D01*
X123829Y130486D01*
X123806Y130463D01*
X123750Y130418D01*
X122247Y128915D01*
X119737Y127875D01*
X117019Y127875D01*
X114509Y128915D01*
X112587Y130837D01*
X111547Y133347D01*
X111547Y136065D01*
X112587Y138575D01*
X114509Y140497D01*
X117091Y141567D01*
X117152Y141576D01*
X117169Y141586D01*
X117189Y141590D01*
X117278Y141643D01*
X117369Y141692D01*
X117383Y141706D01*
X117400Y141716D01*
X117467Y141795D01*
X117539Y141870D01*
X117547Y141888D01*
X117560Y141903D01*
X117599Y141999D01*
X117642Y142093D01*
X117644Y142113D01*
X117652Y142131D01*
X117670Y142298D01*
X117670Y143637D01*
X117656Y143727D01*
X117648Y143818D01*
X117636Y143848D01*
X117631Y143880D01*
X117588Y143960D01*
X117552Y144044D01*
X117526Y144076D01*
X117515Y144097D01*
X117492Y144119D01*
X117447Y144175D01*
X117375Y144248D01*
X117375Y318039D01*
X123838Y324502D01*
X137512Y324502D01*
X137583Y324513D01*
X137655Y324515D01*
X137704Y324533D01*
X137755Y324541D01*
X137818Y324575D01*
X137886Y324600D01*
X137926Y324632D01*
X137972Y324657D01*
X138022Y324709D01*
X138078Y324753D01*
X138106Y324797D01*
X138142Y324835D01*
X138172Y324900D01*
X138211Y324960D01*
X138224Y325011D01*
X138245Y325058D01*
X138253Y325129D01*
X138271Y325199D01*
X138267Y325251D01*
X138273Y325302D01*
X138257Y325373D01*
X138252Y325444D01*
X138231Y325492D01*
X138220Y325543D01*
X138184Y325604D01*
X138155Y325670D01*
X138111Y325726D01*
X138094Y325754D01*
X138076Y325769D01*
X138051Y325801D01*
X137079Y326773D01*
X136039Y329283D01*
X136039Y332001D01*
X137079Y334511D01*
X139001Y336433D01*
X141511Y337473D01*
X143637Y337473D01*
X143727Y337487D01*
X143818Y337495D01*
X143848Y337507D01*
X143880Y337512D01*
X143960Y337555D01*
X144044Y337591D01*
X144076Y337617D01*
X144097Y337628D01*
X144119Y337651D01*
X144122Y337653D01*
X144123Y337654D01*
X144125Y337655D01*
X144175Y337696D01*
X182759Y376280D01*
X182812Y376354D01*
X182872Y376423D01*
X182884Y376453D01*
X182903Y376479D01*
X182930Y376566D01*
X182964Y376651D01*
X182968Y376692D01*
X182975Y376715D01*
X182974Y376747D01*
X182982Y376818D01*
X182982Y378944D01*
X184022Y381454D01*
X185944Y383376D01*
X188454Y384416D01*
X191172Y384416D01*
X193682Y383376D01*
X195604Y381454D01*
X195743Y381118D01*
X195781Y381057D01*
X195810Y380992D01*
X195845Y380954D01*
X195873Y380909D01*
X195928Y380864D01*
X195976Y380811D01*
X196022Y380786D01*
X196062Y380753D01*
X196129Y380727D01*
X196192Y380692D01*
X196243Y380683D01*
X196292Y380664D01*
X196363Y380661D01*
X196434Y380649D01*
X196485Y380656D01*
X196537Y380654D01*
X196606Y380674D01*
X196677Y380684D01*
X196724Y380708D01*
X196774Y380722D01*
X196833Y380763D01*
X196896Y380796D01*
X196933Y380833D01*
X196976Y380863D01*
X197018Y380920D01*
X197069Y380971D01*
X197103Y381034D01*
X197122Y381060D01*
X197130Y381082D01*
X197150Y381118D01*
X197289Y381454D01*
X199210Y383376D01*
X201721Y384416D01*
X204438Y384416D01*
X206949Y383376D01*
X208870Y381454D01*
X209009Y381118D01*
X209047Y381057D01*
X209076Y380992D01*
X209112Y380954D01*
X209139Y380909D01*
X209194Y380864D01*
X209243Y380811D01*
X209289Y380786D01*
X209329Y380753D01*
X209395Y380727D01*
X209458Y380692D01*
X209510Y380683D01*
X209558Y380664D01*
X209630Y380661D01*
X209700Y380649D01*
X209752Y380656D01*
X209804Y380654D01*
X209873Y380674D01*
X209944Y380684D01*
X209990Y380708D01*
X210040Y380722D01*
X210099Y380763D01*
X210163Y380796D01*
X210199Y380833D01*
X210242Y380863D01*
X210285Y380920D01*
X210335Y380971D01*
X210370Y381034D01*
X210389Y381060D01*
X210396Y381082D01*
X210416Y381118D01*
X210555Y381454D01*
X212477Y383376D01*
X214987Y384416D01*
X217705Y384416D01*
X220215Y383376D01*
X221718Y381873D01*
X221792Y381820D01*
X221862Y381760D01*
X221892Y381748D01*
X221918Y381729D01*
X222005Y381702D01*
X222090Y381668D01*
X222131Y381664D01*
X222153Y381657D01*
X222185Y381658D01*
X222257Y381650D01*
X225173Y381650D01*
X318379Y288444D01*
X318379Y58526D01*
X311916Y52063D01*
X302425Y52063D01*
G37*
%LPD*%
G36*
X384376Y511803D02*
X384376Y511803D01*
X384467Y511811D01*
X384496Y511823D01*
X384528Y511828D01*
X384609Y511871D01*
X384693Y511907D01*
X384725Y511933D01*
X384746Y511944D01*
X384768Y511967D01*
X384824Y512012D01*
X505505Y632693D01*
X622547Y632693D01*
X622637Y632707D01*
X622728Y632715D01*
X622758Y632727D01*
X622790Y632732D01*
X622870Y632775D01*
X622954Y632811D01*
X622986Y632837D01*
X623007Y632848D01*
X623029Y632871D01*
X623085Y632916D01*
X623414Y633245D01*
X623456Y633303D01*
X623506Y633355D01*
X623528Y633402D01*
X623558Y633444D01*
X623579Y633513D01*
X623609Y633578D01*
X623615Y633630D01*
X623630Y633680D01*
X623628Y633751D01*
X623636Y633822D01*
X623625Y633873D01*
X623624Y633925D01*
X623599Y633993D01*
X623584Y634063D01*
X623557Y634108D01*
X623539Y634156D01*
X623495Y634212D01*
X623458Y634274D01*
X623418Y634308D01*
X623386Y634348D01*
X623326Y634387D01*
X623273Y634432D01*
X623273Y642102D01*
X630948Y642102D01*
X630961Y642085D01*
X630986Y642039D01*
X631037Y641989D01*
X631082Y641933D01*
X631126Y641905D01*
X631164Y641869D01*
X631229Y641839D01*
X631289Y641800D01*
X631340Y641788D01*
X631387Y641766D01*
X631458Y641758D01*
X631528Y641740D01*
X631580Y641744D01*
X631631Y641739D01*
X631702Y641754D01*
X631773Y641759D01*
X631821Y641780D01*
X631872Y641791D01*
X631933Y641828D01*
X631999Y641856D01*
X632055Y641901D01*
X632083Y641917D01*
X632098Y641935D01*
X632130Y641961D01*
X637149Y646980D01*
X637652Y646980D01*
X637767Y646999D01*
X637883Y647016D01*
X637889Y647018D01*
X637895Y647019D01*
X637998Y647074D01*
X638102Y647127D01*
X638107Y647132D01*
X638112Y647135D01*
X638192Y647219D01*
X638275Y647303D01*
X638278Y647309D01*
X638282Y647313D01*
X638289Y647330D01*
X638355Y647450D01*
X639021Y649057D01*
X641718Y651754D01*
X644908Y653075D01*
X644947Y653099D01*
X644990Y653115D01*
X645051Y653164D01*
X645117Y653205D01*
X645146Y653240D01*
X645182Y653269D01*
X645224Y653334D01*
X645273Y653394D01*
X645290Y653437D01*
X645315Y653475D01*
X645334Y653551D01*
X645362Y653624D01*
X645364Y653669D01*
X645375Y653714D01*
X645369Y653792D01*
X645372Y653869D01*
X645359Y653914D01*
X645356Y653959D01*
X645325Y654031D01*
X645304Y654106D01*
X645277Y654143D01*
X645259Y654186D01*
X645174Y654292D01*
X645163Y654308D01*
X645159Y654311D01*
X645155Y654317D01*
X625584Y673887D01*
X625584Y714095D01*
X625572Y714166D01*
X625570Y714237D01*
X625552Y714286D01*
X625544Y714338D01*
X625510Y714401D01*
X625486Y714468D01*
X625453Y714509D01*
X625429Y714555D01*
X625377Y714604D01*
X625332Y714660D01*
X625288Y714689D01*
X625251Y714724D01*
X625186Y714755D01*
X625125Y714793D01*
X625075Y714806D01*
X625028Y714828D01*
X624956Y714836D01*
X624887Y714853D01*
X624835Y714849D01*
X624783Y714855D01*
X624713Y714840D01*
X624642Y714834D01*
X624594Y714814D01*
X624543Y714803D01*
X624481Y714766D01*
X624415Y714738D01*
X624359Y714693D01*
X624332Y714677D01*
X624316Y714659D01*
X624284Y714633D01*
X622292Y712641D01*
X619782Y711601D01*
X617064Y711601D01*
X614554Y712641D01*
X612632Y714563D01*
X611592Y717073D01*
X611592Y719199D01*
X611578Y719289D01*
X611570Y719380D01*
X611558Y719410D01*
X611553Y719442D01*
X611510Y719522D01*
X611474Y719606D01*
X611448Y719638D01*
X611437Y719659D01*
X611414Y719681D01*
X611369Y719737D01*
X610839Y720267D01*
X610765Y720320D01*
X610696Y720380D01*
X610666Y720392D01*
X610640Y720411D01*
X610553Y720438D01*
X610468Y720472D01*
X610427Y720476D01*
X610404Y720483D01*
X610372Y720482D01*
X610301Y720490D01*
X601883Y720490D01*
X601793Y720476D01*
X601702Y720468D01*
X601672Y720456D01*
X601640Y720451D01*
X601559Y720408D01*
X601475Y720372D01*
X601443Y720346D01*
X601423Y720335D01*
X601400Y720312D01*
X601344Y720267D01*
X599841Y718764D01*
X597331Y717724D01*
X594520Y717724D01*
X594475Y717717D01*
X594429Y717719D01*
X594354Y717697D01*
X594278Y717685D01*
X594237Y717663D01*
X594193Y717650D01*
X594129Y717606D01*
X594060Y717569D01*
X594029Y717536D01*
X593991Y717510D01*
X593945Y717448D01*
X593891Y717391D01*
X593872Y717349D01*
X593844Y717313D01*
X593820Y717239D01*
X593787Y717168D01*
X593782Y717122D01*
X593768Y717079D01*
X593769Y717001D01*
X593760Y716924D01*
X593770Y716879D01*
X593770Y716833D01*
X593808Y716701D01*
X593812Y716683D01*
X593815Y716679D01*
X593817Y716672D01*
X594639Y714688D01*
X594639Y712562D01*
X594653Y712472D01*
X594661Y712381D01*
X594673Y712352D01*
X594678Y712320D01*
X594721Y712239D01*
X594757Y712155D01*
X594783Y712123D01*
X594794Y712102D01*
X594817Y712080D01*
X594862Y712024D01*
X603851Y703035D01*
X603925Y702982D01*
X603995Y702922D01*
X604025Y702910D01*
X604051Y702891D01*
X604138Y702864D01*
X604223Y702830D01*
X604264Y702826D01*
X604286Y702819D01*
X604318Y702820D01*
X604389Y702812D01*
X606515Y702812D01*
X609026Y701772D01*
X610947Y699850D01*
X611987Y697340D01*
X611987Y694622D01*
X610947Y692112D01*
X609026Y690190D01*
X606515Y689150D01*
X603798Y689150D01*
X601287Y690190D01*
X599366Y692112D01*
X598326Y694622D01*
X598326Y696748D01*
X598311Y696838D01*
X598304Y696929D01*
X598291Y696959D01*
X598286Y696991D01*
X598243Y697071D01*
X598208Y697155D01*
X598182Y697187D01*
X598171Y697208D01*
X598148Y697230D01*
X598103Y697286D01*
X589113Y706276D01*
X589039Y706329D01*
X588970Y706388D01*
X588940Y706401D01*
X588914Y706419D01*
X588827Y706446D01*
X588742Y706480D01*
X588701Y706485D01*
X588678Y706492D01*
X588646Y706491D01*
X588575Y706499D01*
X586449Y706499D01*
X583939Y707539D01*
X582017Y709460D01*
X580977Y711971D01*
X580977Y714688D01*
X582017Y717199D01*
X583939Y719120D01*
X586449Y720160D01*
X589260Y720160D01*
X589305Y720168D01*
X589351Y720166D01*
X589426Y720187D01*
X589502Y720200D01*
X589543Y720221D01*
X589587Y720234D01*
X589651Y720279D01*
X589720Y720315D01*
X589751Y720348D01*
X589789Y720375D01*
X589835Y720437D01*
X589889Y720493D01*
X589908Y720535D01*
X589936Y720572D01*
X589960Y720646D01*
X589993Y720716D01*
X589998Y720762D01*
X590012Y720806D01*
X590011Y720884D01*
X590020Y720961D01*
X590010Y721006D01*
X590010Y721052D01*
X589972Y721183D01*
X589968Y721201D01*
X589965Y721206D01*
X589963Y721213D01*
X589141Y723196D01*
X589141Y725914D01*
X590181Y728424D01*
X591153Y729396D01*
X591194Y729454D01*
X591244Y729506D01*
X591266Y729553D01*
X591296Y729595D01*
X591317Y729664D01*
X591347Y729729D01*
X591353Y729781D01*
X591369Y729831D01*
X591367Y729902D01*
X591375Y729973D01*
X591364Y730024D01*
X591362Y730076D01*
X591338Y730144D01*
X591322Y730214D01*
X591296Y730259D01*
X591278Y730307D01*
X591233Y730363D01*
X591196Y730425D01*
X591157Y730459D01*
X591124Y730499D01*
X591064Y730538D01*
X591009Y730585D01*
X590961Y730604D01*
X590917Y730632D01*
X590848Y730650D01*
X590781Y730677D01*
X590710Y730685D01*
X590679Y730693D01*
X590655Y730691D01*
X590614Y730695D01*
X584534Y730695D01*
X584444Y730681D01*
X584353Y730673D01*
X584323Y730661D01*
X584291Y730656D01*
X584211Y730613D01*
X584127Y730577D01*
X584095Y730551D01*
X584074Y730540D01*
X584052Y730517D01*
X583996Y730472D01*
X582493Y728969D01*
X579982Y727929D01*
X577265Y727929D01*
X576597Y728206D01*
X576553Y728216D01*
X576511Y728236D01*
X576434Y728244D01*
X576358Y728262D01*
X576312Y728258D01*
X576267Y728263D01*
X576190Y728246D01*
X576113Y728239D01*
X576071Y728220D01*
X576026Y728210D01*
X575959Y728170D01*
X575888Y728139D01*
X575854Y728108D01*
X575815Y728084D01*
X575764Y728025D01*
X575707Y727972D01*
X575685Y727932D01*
X575655Y727897D01*
X575626Y727825D01*
X575589Y727757D01*
X575580Y727712D01*
X575563Y727669D01*
X575548Y727533D01*
X575545Y727515D01*
X575546Y727510D01*
X575545Y727502D01*
X575545Y724343D01*
X575559Y724253D01*
X575567Y724162D01*
X575579Y724132D01*
X575584Y724100D01*
X575627Y724019D01*
X575663Y723935D01*
X575689Y723903D01*
X575700Y723883D01*
X575723Y723860D01*
X575768Y723804D01*
X577271Y722301D01*
X578311Y719791D01*
X578311Y717073D01*
X577271Y714563D01*
X575349Y712641D01*
X574609Y712335D01*
X574570Y712310D01*
X574527Y712295D01*
X574466Y712246D01*
X574400Y712205D01*
X574371Y712170D01*
X574335Y712141D01*
X574293Y712076D01*
X574243Y712016D01*
X574227Y711973D01*
X574202Y711934D01*
X574183Y711859D01*
X574155Y711786D01*
X574153Y711740D01*
X574142Y711696D01*
X574148Y711618D01*
X574145Y711540D01*
X574158Y711496D01*
X574161Y711450D01*
X574192Y711379D01*
X574213Y711304D01*
X574240Y711266D01*
X574257Y711224D01*
X574343Y711117D01*
X574354Y711102D01*
X574358Y711099D01*
X574362Y711093D01*
X589564Y695891D01*
X589638Y695838D01*
X589708Y695779D01*
X589738Y695766D01*
X589764Y695748D01*
X589851Y695721D01*
X589936Y695687D01*
X589977Y695682D01*
X589999Y695675D01*
X590031Y695676D01*
X590102Y695668D01*
X592228Y695668D01*
X594739Y694628D01*
X596660Y692707D01*
X597700Y690196D01*
X597700Y687479D01*
X596660Y684968D01*
X594739Y683047D01*
X592228Y682007D01*
X589511Y682007D01*
X587000Y683047D01*
X585079Y684968D01*
X584039Y687479D01*
X584039Y689605D01*
X584024Y689695D01*
X584017Y689786D01*
X584004Y689815D01*
X583999Y689847D01*
X583956Y689928D01*
X583921Y690012D01*
X583895Y690044D01*
X583884Y690065D01*
X583861Y690087D01*
X583816Y690143D01*
X562876Y711083D01*
X560272Y713687D01*
X560272Y761094D01*
X560261Y761159D01*
X560261Y761224D01*
X560237Y761304D01*
X560232Y761337D01*
X560223Y761354D01*
X560214Y761385D01*
X559547Y762996D01*
X559547Y765713D01*
X560587Y768224D01*
X562508Y770145D01*
X565019Y771185D01*
X567736Y771185D01*
X570247Y770145D01*
X572168Y768224D01*
X573208Y765713D01*
X573208Y762996D01*
X572168Y760485D01*
X570247Y758564D01*
X568871Y757994D01*
X568772Y757932D01*
X568672Y757872D01*
X568667Y757868D01*
X568662Y757864D01*
X568588Y757775D01*
X568512Y757685D01*
X568509Y757680D01*
X568505Y757675D01*
X568464Y757567D01*
X568420Y757457D01*
X568419Y757450D01*
X568417Y757445D01*
X568416Y757427D01*
X568401Y757291D01*
X568401Y742329D01*
X568413Y742258D01*
X568415Y742186D01*
X568433Y742137D01*
X568441Y742086D01*
X568474Y742023D01*
X568499Y741955D01*
X568532Y741915D01*
X568556Y741869D01*
X568608Y741819D01*
X568653Y741763D01*
X568697Y741735D01*
X568734Y741699D01*
X568799Y741669D01*
X568860Y741630D01*
X568910Y741618D01*
X568957Y741596D01*
X569029Y741588D01*
X569098Y741570D01*
X569150Y741574D01*
X569202Y741569D01*
X569272Y741584D01*
X569344Y741590D01*
X569391Y741610D01*
X569442Y741621D01*
X569504Y741658D01*
X569570Y741686D01*
X569626Y741731D01*
X569653Y741747D01*
X569669Y741765D01*
X569701Y741791D01*
X570019Y742109D01*
X580001Y752091D01*
X587000Y752091D01*
X587090Y752106D01*
X587181Y752113D01*
X587211Y752126D01*
X587243Y752131D01*
X587323Y752174D01*
X587407Y752209D01*
X587439Y752235D01*
X587460Y752246D01*
X587482Y752269D01*
X587538Y752314D01*
X589041Y753817D01*
X591552Y754857D01*
X594269Y754857D01*
X596780Y753817D01*
X598701Y751896D01*
X599271Y750520D01*
X599333Y750421D01*
X599393Y750321D01*
X599397Y750316D01*
X599401Y750311D01*
X599490Y750237D01*
X599580Y750161D01*
X599585Y750158D01*
X599590Y750154D01*
X599698Y750113D01*
X599808Y750069D01*
X599815Y750068D01*
X599820Y750066D01*
X599838Y750065D01*
X599974Y750050D01*
X621697Y750050D01*
X621787Y750065D01*
X621878Y750072D01*
X621908Y750085D01*
X621940Y750090D01*
X622020Y750133D01*
X622104Y750168D01*
X622136Y750194D01*
X622157Y750205D01*
X622179Y750228D01*
X622235Y750273D01*
X623738Y751776D01*
X626249Y752816D01*
X628966Y752816D01*
X631477Y751776D01*
X633469Y749784D01*
X633527Y749743D01*
X633579Y749693D01*
X633626Y749671D01*
X633668Y749641D01*
X633737Y749620D01*
X633802Y749590D01*
X633854Y749584D01*
X633904Y749568D01*
X633975Y749570D01*
X634046Y749562D01*
X634097Y749573D01*
X634149Y749575D01*
X634217Y749599D01*
X634287Y749615D01*
X634332Y749641D01*
X634380Y749659D01*
X634436Y749704D01*
X634498Y749741D01*
X634532Y749780D01*
X634572Y749813D01*
X634611Y749873D01*
X634658Y749928D01*
X634677Y749976D01*
X634705Y750020D01*
X634723Y750089D01*
X634750Y750156D01*
X634758Y750227D01*
X634766Y750258D01*
X634764Y750282D01*
X634768Y750323D01*
X634768Y751300D01*
X634754Y751390D01*
X634746Y751481D01*
X634734Y751511D01*
X634729Y751543D01*
X634686Y751624D01*
X634650Y751708D01*
X634624Y751740D01*
X634613Y751760D01*
X634590Y751783D01*
X634545Y751839D01*
X633042Y753342D01*
X632002Y755852D01*
X632002Y758570D01*
X633042Y761080D01*
X634964Y763002D01*
X637474Y764042D01*
X640192Y764042D01*
X642702Y763002D01*
X644624Y761080D01*
X645664Y758570D01*
X645664Y755852D01*
X644624Y753342D01*
X643121Y751839D01*
X643068Y751765D01*
X643008Y751695D01*
X642996Y751665D01*
X642977Y751639D01*
X642950Y751552D01*
X642916Y751467D01*
X642912Y751426D01*
X642905Y751404D01*
X642906Y751372D01*
X642898Y751300D01*
X642898Y678590D01*
X642912Y678500D01*
X642920Y678409D01*
X642932Y678380D01*
X642937Y678348D01*
X642980Y678267D01*
X643016Y678183D01*
X643042Y678151D01*
X643053Y678130D01*
X643076Y678108D01*
X643121Y678052D01*
X656917Y664256D01*
X656991Y664203D01*
X657061Y664143D01*
X657091Y664131D01*
X657117Y664112D01*
X657204Y664085D01*
X657289Y664051D01*
X657330Y664047D01*
X657352Y664040D01*
X657384Y664041D01*
X657455Y664033D01*
X659581Y664033D01*
X662092Y662993D01*
X664013Y661071D01*
X665053Y658561D01*
X665053Y655843D01*
X664013Y653333D01*
X662092Y651411D01*
X661352Y651105D01*
X661313Y651080D01*
X661270Y651065D01*
X661209Y651016D01*
X661143Y650975D01*
X661113Y650940D01*
X661078Y650911D01*
X661036Y650846D01*
X660986Y650786D01*
X660969Y650743D01*
X660945Y650704D01*
X660926Y650629D01*
X660898Y650556D01*
X660896Y650510D01*
X660885Y650466D01*
X660891Y650388D01*
X660887Y650310D01*
X660900Y650266D01*
X660904Y650220D01*
X660934Y650149D01*
X660956Y650074D01*
X660982Y650036D01*
X661000Y649994D01*
X661085Y649887D01*
X661096Y649872D01*
X661100Y649869D01*
X661105Y649863D01*
X661267Y649701D01*
X661267Y638170D01*
X651173Y628077D01*
X651147Y628039D01*
X651113Y628008D01*
X651075Y627940D01*
X651030Y627877D01*
X651016Y627833D01*
X650994Y627793D01*
X650980Y627716D01*
X650957Y627642D01*
X650959Y627596D01*
X650951Y627551D01*
X650962Y627474D01*
X650964Y627396D01*
X650980Y627353D01*
X650986Y627307D01*
X651010Y627261D01*
X651011Y627255D01*
X651022Y627237D01*
X651048Y627165D01*
X651077Y627129D01*
X651098Y627088D01*
X651130Y627057D01*
X651137Y627044D01*
X651161Y627024D01*
X651202Y626973D01*
X651241Y626948D01*
X651273Y626916D01*
X651312Y626894D01*
X651324Y626884D01*
X651348Y626875D01*
X651393Y626850D01*
X651409Y626840D01*
X651414Y626839D01*
X651420Y626835D01*
X652582Y626354D01*
X655279Y623657D01*
X655554Y622992D01*
X655578Y622953D01*
X655594Y622910D01*
X655643Y622849D01*
X655684Y622783D01*
X655719Y622753D01*
X655748Y622718D01*
X655813Y622675D01*
X655873Y622626D01*
X655916Y622609D01*
X655955Y622585D01*
X656030Y622566D01*
X656103Y622538D01*
X656149Y622536D01*
X656193Y622525D01*
X656271Y622531D01*
X656349Y622527D01*
X656393Y622540D01*
X656439Y622544D01*
X656510Y622574D01*
X656585Y622596D01*
X656623Y622622D01*
X656665Y622640D01*
X656772Y622725D01*
X656787Y622736D01*
X656790Y622740D01*
X656796Y622745D01*
X668030Y633979D01*
X668057Y634016D01*
X668091Y634047D01*
X668128Y634116D01*
X668174Y634179D01*
X668187Y634223D01*
X668209Y634263D01*
X668223Y634340D01*
X668246Y634414D01*
X668245Y634460D01*
X668253Y634505D01*
X668242Y634582D01*
X668240Y634660D01*
X668224Y634703D01*
X668217Y634748D01*
X668182Y634818D01*
X668155Y634891D01*
X668127Y634927D01*
X668106Y634968D01*
X668050Y635022D01*
X668002Y635083D01*
X667963Y635108D01*
X667930Y635140D01*
X667810Y635206D01*
X667795Y635216D01*
X667790Y635217D01*
X667783Y635221D01*
X667118Y635496D01*
X664421Y638193D01*
X662961Y641718D01*
X662961Y645532D01*
X664421Y649057D01*
X667118Y651754D01*
X670643Y653214D01*
X674457Y653214D01*
X677982Y651754D01*
X680679Y649057D01*
X682139Y645532D01*
X682139Y641718D01*
X680679Y638193D01*
X677982Y635496D01*
X677044Y635108D01*
X676944Y635046D01*
X676845Y634986D01*
X676841Y634982D01*
X676835Y634978D01*
X676760Y634888D01*
X676685Y634799D01*
X676682Y634794D01*
X676678Y634789D01*
X676637Y634680D01*
X676593Y634571D01*
X676592Y634564D01*
X676590Y634559D01*
X676589Y634541D01*
X676574Y634404D01*
X676574Y631026D01*
X674488Y628940D01*
X674461Y628903D01*
X674428Y628872D01*
X674390Y628804D01*
X674345Y628741D01*
X674331Y628697D01*
X674309Y628656D01*
X674295Y628580D01*
X674272Y628505D01*
X674273Y628460D01*
X674265Y628414D01*
X674277Y628337D01*
X674279Y628260D01*
X674294Y628216D01*
X674301Y628171D01*
X674336Y628102D01*
X674363Y628029D01*
X674392Y627993D01*
X674413Y627952D01*
X674468Y627897D01*
X674517Y627837D01*
X674555Y627812D01*
X674588Y627780D01*
X674708Y627714D01*
X674724Y627704D01*
X674729Y627702D01*
X674735Y627699D01*
X677982Y626354D01*
X680679Y623657D01*
X680987Y622912D01*
X681011Y622873D01*
X681027Y622830D01*
X681076Y622769D01*
X681117Y622703D01*
X681152Y622674D01*
X681181Y622638D01*
X681246Y622596D01*
X681306Y622546D01*
X681349Y622530D01*
X681388Y622505D01*
X681463Y622486D01*
X681536Y622458D01*
X681582Y622456D01*
X681626Y622445D01*
X681704Y622451D01*
X681782Y622448D01*
X681826Y622461D01*
X681872Y622464D01*
X681943Y622495D01*
X682018Y622516D01*
X682056Y622542D01*
X682098Y622560D01*
X682205Y622646D01*
X682220Y622657D01*
X682223Y622661D01*
X682229Y622665D01*
X692300Y632737D01*
X692342Y632795D01*
X692392Y632847D01*
X692414Y632894D01*
X692444Y632936D01*
X692465Y633005D01*
X692495Y633070D01*
X692501Y633122D01*
X692516Y633172D01*
X692514Y633243D01*
X692522Y633314D01*
X692511Y633365D01*
X692510Y633417D01*
X692485Y633485D01*
X692470Y633555D01*
X692443Y633599D01*
X692425Y633648D01*
X692381Y633704D01*
X692344Y633766D01*
X692304Y633800D01*
X692272Y633840D01*
X692211Y633879D01*
X692157Y633926D01*
X692109Y633945D01*
X692065Y633973D01*
X691995Y633991D01*
X691929Y634018D01*
X691857Y634026D01*
X691826Y634034D01*
X691803Y634032D01*
X691762Y634036D01*
X690147Y634036D01*
X688361Y635822D01*
X688361Y651428D01*
X690147Y653214D01*
X705442Y653214D01*
X705462Y653217D01*
X705481Y653215D01*
X705583Y653237D01*
X705685Y653253D01*
X705702Y653263D01*
X705722Y653267D01*
X705811Y653320D01*
X705902Y653369D01*
X705916Y653383D01*
X705933Y653393D01*
X706000Y653472D01*
X706072Y653547D01*
X706080Y653565D01*
X706093Y653580D01*
X706132Y653676D01*
X706175Y653770D01*
X706177Y653790D01*
X706185Y653808D01*
X706203Y653975D01*
X706203Y671531D01*
X706189Y671621D01*
X706181Y671712D01*
X706169Y671742D01*
X706164Y671774D01*
X706121Y671854D01*
X706085Y671938D01*
X706059Y671970D01*
X706048Y671991D01*
X706025Y672013D01*
X705980Y672069D01*
X663342Y714707D01*
X663342Y784407D01*
X664435Y785500D01*
X664488Y785574D01*
X664548Y785644D01*
X664560Y785674D01*
X664579Y785700D01*
X664606Y785787D01*
X664640Y785872D01*
X664644Y785913D01*
X664651Y785935D01*
X664650Y785967D01*
X664658Y786038D01*
X664658Y788164D01*
X665698Y790675D01*
X667201Y792178D01*
X667254Y792252D01*
X667314Y792321D01*
X667326Y792351D01*
X667345Y792378D01*
X667372Y792465D01*
X667384Y792495D01*
X667396Y792521D01*
X667397Y792527D01*
X667406Y792549D01*
X667410Y792590D01*
X667417Y792613D01*
X667416Y792645D01*
X667424Y792716D01*
X667424Y793991D01*
X667410Y794081D01*
X667402Y794172D01*
X667390Y794202D01*
X667385Y794234D01*
X667342Y794314D01*
X667306Y794398D01*
X667280Y794430D01*
X667269Y794451D01*
X667246Y794473D01*
X667201Y794529D01*
X630686Y831044D01*
X630686Y875950D01*
X630683Y875970D01*
X630685Y875989D01*
X630663Y876091D01*
X630647Y876193D01*
X630637Y876210D01*
X630633Y876230D01*
X630580Y876319D01*
X630531Y876410D01*
X630517Y876424D01*
X630507Y876441D01*
X630428Y876508D01*
X630353Y876580D01*
X630339Y876586D01*
X624011Y882914D01*
X624011Y884817D01*
X624000Y884887D01*
X623998Y884959D01*
X623980Y885008D01*
X623972Y885059D01*
X623938Y885123D01*
X623913Y885190D01*
X623881Y885231D01*
X623856Y885277D01*
X623804Y885326D01*
X623760Y885382D01*
X623716Y885410D01*
X623678Y885446D01*
X623613Y885476D01*
X623553Y885515D01*
X623502Y885528D01*
X623455Y885550D01*
X623384Y885558D01*
X623314Y885575D01*
X623262Y885571D01*
X623211Y885577D01*
X623140Y885562D01*
X623069Y885556D01*
X623021Y885536D01*
X622970Y885525D01*
X622909Y885488D01*
X622843Y885460D01*
X622787Y885415D01*
X622759Y885398D01*
X622744Y885381D01*
X622712Y885355D01*
X556378Y819021D01*
X556325Y818947D01*
X556266Y818878D01*
X556253Y818848D01*
X556235Y818822D01*
X556208Y818735D01*
X556174Y818650D01*
X556169Y818609D01*
X556162Y818586D01*
X556163Y818554D01*
X556155Y818483D01*
X556155Y655969D01*
X556170Y655879D01*
X556177Y655788D01*
X556190Y655758D01*
X556195Y655726D01*
X556238Y655646D01*
X556273Y655562D01*
X556299Y655530D01*
X556310Y655509D01*
X556333Y655487D01*
X556378Y655431D01*
X557881Y653928D01*
X558921Y651417D01*
X558921Y648700D01*
X557881Y646189D01*
X555960Y644268D01*
X553449Y643228D01*
X550732Y643228D01*
X548221Y644268D01*
X546300Y646189D01*
X545260Y648700D01*
X545260Y651417D01*
X546300Y653928D01*
X547803Y655431D01*
X547856Y655505D01*
X547915Y655574D01*
X547928Y655604D01*
X547946Y655631D01*
X547973Y655718D01*
X548007Y655802D01*
X548012Y655843D01*
X548019Y655866D01*
X548018Y655898D01*
X548026Y655969D01*
X548026Y822166D01*
X628422Y902562D01*
X628554Y902694D01*
X628566Y902710D01*
X628582Y902723D01*
X628638Y902810D01*
X628698Y902894D01*
X628704Y902913D01*
X628715Y902930D01*
X628740Y903030D01*
X628770Y903129D01*
X628770Y903149D01*
X628775Y903168D01*
X628767Y903271D01*
X628764Y903375D01*
X628757Y903394D01*
X628756Y903414D01*
X628715Y903508D01*
X628680Y903606D01*
X628667Y903622D01*
X628659Y903640D01*
X628554Y903771D01*
X624011Y908314D01*
X624011Y910329D01*
X624000Y910400D01*
X623998Y910472D01*
X623980Y910520D01*
X623972Y910572D01*
X623938Y910635D01*
X623913Y910703D01*
X623881Y910743D01*
X623856Y910789D01*
X623804Y910839D01*
X623760Y910895D01*
X623716Y910923D01*
X623678Y910959D01*
X623613Y910989D01*
X623553Y911028D01*
X623502Y911040D01*
X623455Y911062D01*
X623384Y911070D01*
X623314Y911088D01*
X623262Y911084D01*
X623211Y911089D01*
X623140Y911074D01*
X623069Y911068D01*
X623021Y911048D01*
X622970Y911037D01*
X622909Y911000D01*
X622843Y910972D01*
X622787Y910927D01*
X622759Y910911D01*
X622744Y910893D01*
X622712Y910867D01*
X503312Y791468D01*
X503259Y791394D01*
X503200Y791324D01*
X503187Y791294D01*
X503169Y791268D01*
X503142Y791181D01*
X503108Y791096D01*
X503103Y791055D01*
X503096Y791033D01*
X503097Y791001D01*
X503089Y790930D01*
X503089Y634088D01*
X382090Y513088D01*
X382048Y513030D01*
X381998Y512978D01*
X381976Y512931D01*
X381946Y512889D01*
X381925Y512820D01*
X381895Y512755D01*
X381889Y512703D01*
X381874Y512653D01*
X381876Y512582D01*
X381868Y512511D01*
X381879Y512460D01*
X381880Y512408D01*
X381905Y512340D01*
X381920Y512270D01*
X381947Y512226D01*
X381965Y512177D01*
X382009Y512121D01*
X382046Y512059D01*
X382086Y512025D01*
X382118Y511985D01*
X382179Y511946D01*
X382233Y511899D01*
X382281Y511880D01*
X382325Y511852D01*
X382395Y511834D01*
X382461Y511807D01*
X382533Y511799D01*
X382564Y511791D01*
X382587Y511793D01*
X382628Y511789D01*
X384286Y511789D01*
X384376Y511803D01*
G37*
%LPC*%
G36*
X227233Y484030D02*
X227233Y484030D01*
X224723Y485070D01*
X222801Y486991D01*
X221761Y489502D01*
X221761Y492219D01*
X222801Y494730D01*
X224723Y496651D01*
X227233Y497691D01*
X229951Y497691D01*
X232461Y496651D01*
X233964Y495148D01*
X234038Y495095D01*
X234108Y495036D01*
X234138Y495023D01*
X234164Y495005D01*
X234251Y494978D01*
X234336Y494944D01*
X234377Y494939D01*
X234399Y494932D01*
X234431Y494933D01*
X234503Y494925D01*
X234757Y494925D01*
X234847Y494940D01*
X234938Y494947D01*
X234968Y494960D01*
X235000Y494965D01*
X235080Y495008D01*
X235164Y495043D01*
X235196Y495069D01*
X235217Y495080D01*
X235239Y495103D01*
X235295Y495148D01*
X277755Y537608D01*
X277782Y537645D01*
X277816Y537676D01*
X277853Y537745D01*
X277899Y537808D01*
X277912Y537852D01*
X277934Y537892D01*
X277948Y537969D01*
X277971Y538043D01*
X277970Y538089D01*
X277978Y538134D01*
X277967Y538211D01*
X277965Y538289D01*
X277949Y538332D01*
X277942Y538377D01*
X277907Y538447D01*
X277880Y538520D01*
X277852Y538556D01*
X277831Y538597D01*
X277775Y538651D01*
X277727Y538712D01*
X277688Y538737D01*
X277655Y538769D01*
X277535Y538835D01*
X277520Y538845D01*
X277515Y538846D01*
X277508Y538850D01*
X276768Y539156D01*
X274847Y541078D01*
X273807Y543588D01*
X273807Y546306D01*
X274847Y548816D01*
X276768Y550738D01*
X279279Y551778D01*
X281405Y551778D01*
X281495Y551792D01*
X281586Y551800D01*
X281615Y551812D01*
X281647Y551817D01*
X281728Y551860D01*
X281812Y551896D01*
X281844Y551922D01*
X281865Y551933D01*
X281887Y551956D01*
X281943Y552001D01*
X373593Y643651D01*
X373646Y643725D01*
X373705Y643794D01*
X373718Y643824D01*
X373736Y643850D01*
X373763Y643937D01*
X373797Y644022D01*
X373802Y644063D01*
X373809Y644086D01*
X373808Y644118D01*
X373816Y644189D01*
X373816Y646315D01*
X374856Y648825D01*
X375827Y649797D01*
X375869Y649855D01*
X375918Y649907D01*
X375940Y649954D01*
X375971Y649996D01*
X375992Y650065D01*
X376022Y650130D01*
X376028Y650182D01*
X376043Y650232D01*
X376041Y650303D01*
X376049Y650374D01*
X376038Y650425D01*
X376037Y650477D01*
X376012Y650545D01*
X375997Y650615D01*
X375970Y650660D01*
X375952Y650708D01*
X375907Y650764D01*
X375871Y650826D01*
X375831Y650860D01*
X375799Y650900D01*
X375738Y650939D01*
X375684Y650986D01*
X375635Y651005D01*
X375592Y651033D01*
X375522Y651051D01*
X375456Y651078D01*
X375384Y651086D01*
X375353Y651094D01*
X375330Y651092D01*
X375289Y651096D01*
X306958Y651096D01*
X306868Y651082D01*
X306777Y651074D01*
X306747Y651062D01*
X306715Y651057D01*
X306635Y651014D01*
X306551Y650978D01*
X306519Y650952D01*
X306498Y650941D01*
X306476Y650918D01*
X306420Y650873D01*
X304917Y649370D01*
X302406Y648330D01*
X299689Y648330D01*
X297178Y649370D01*
X295257Y651292D01*
X294217Y653802D01*
X294217Y656520D01*
X295257Y659030D01*
X297178Y660952D01*
X299689Y661992D01*
X302406Y661992D01*
X304917Y660952D01*
X306420Y659449D01*
X306494Y659396D01*
X306563Y659336D01*
X306593Y659324D01*
X306620Y659305D01*
X306707Y659278D01*
X306791Y659244D01*
X306832Y659240D01*
X306855Y659233D01*
X306887Y659234D01*
X306958Y659226D01*
X383920Y659226D01*
X384010Y659240D01*
X384101Y659248D01*
X384131Y659260D01*
X384163Y659265D01*
X384244Y659308D01*
X384328Y659344D01*
X384360Y659370D01*
X384380Y659381D01*
X384403Y659404D01*
X384459Y659449D01*
X385962Y660952D01*
X388472Y661992D01*
X391190Y661992D01*
X393700Y660952D01*
X395622Y659030D01*
X396662Y656520D01*
X396662Y653802D01*
X395622Y651292D01*
X393700Y649370D01*
X391190Y648330D01*
X388472Y648330D01*
X387961Y648542D01*
X387891Y648558D01*
X387825Y648584D01*
X387773Y648586D01*
X387722Y648598D01*
X387651Y648591D01*
X387579Y648594D01*
X387529Y648580D01*
X387477Y648575D01*
X387411Y648546D01*
X387343Y648526D01*
X387300Y648496D01*
X387252Y648475D01*
X387199Y648426D01*
X387141Y648386D01*
X387110Y648344D01*
X387071Y648309D01*
X387036Y648246D01*
X386994Y648188D01*
X386978Y648139D01*
X386952Y648093D01*
X386940Y648022D01*
X386918Y647954D01*
X386918Y647902D01*
X386909Y647851D01*
X386919Y647780D01*
X386920Y647708D01*
X386940Y647640D01*
X386945Y647608D01*
X386955Y647587D01*
X386967Y647547D01*
X387477Y646315D01*
X387477Y643597D01*
X386437Y641087D01*
X384516Y639165D01*
X382005Y638125D01*
X380240Y638125D01*
X380144Y638110D01*
X380047Y638100D01*
X380023Y638090D01*
X379997Y638086D01*
X379911Y638040D01*
X379822Y638000D01*
X379803Y637983D01*
X379780Y637970D01*
X379713Y637900D01*
X379641Y637834D01*
X379629Y637811D01*
X379611Y637792D01*
X379570Y637704D01*
X379523Y637618D01*
X379518Y637593D01*
X379507Y637569D01*
X379496Y637472D01*
X379479Y637376D01*
X379483Y637350D01*
X379480Y637325D01*
X379501Y637229D01*
X379515Y637133D01*
X379527Y637110D01*
X379532Y637084D01*
X379582Y637001D01*
X379626Y636914D01*
X379645Y636895D01*
X379658Y636873D01*
X379732Y636810D01*
X379802Y636742D01*
X379830Y636726D01*
X379845Y636713D01*
X379876Y636701D01*
X379949Y636661D01*
X380434Y636460D01*
X382355Y634538D01*
X383395Y632028D01*
X383395Y629310D01*
X382355Y626800D01*
X380434Y624878D01*
X377923Y623838D01*
X375797Y623838D01*
X375707Y623824D01*
X375616Y623816D01*
X375587Y623804D01*
X375555Y623799D01*
X375474Y623756D01*
X375390Y623720D01*
X375358Y623694D01*
X375337Y623683D01*
X375315Y623660D01*
X375259Y623615D01*
X238440Y486796D01*
X234503Y486796D01*
X234413Y486781D01*
X234322Y486774D01*
X234292Y486761D01*
X234260Y486756D01*
X234179Y486713D01*
X234095Y486678D01*
X234063Y486652D01*
X234043Y486641D01*
X234020Y486618D01*
X233964Y486573D01*
X232461Y485070D01*
X229951Y484030D01*
X227233Y484030D01*
G37*
%LPD*%
%LPC*%
G36*
X174096Y23677D02*
X174096Y23677D01*
X172566Y25783D01*
X172560Y25789D01*
X172556Y25796D01*
X172473Y25875D01*
X172391Y25956D01*
X172384Y25960D01*
X172378Y25965D01*
X172273Y26014D01*
X172170Y26064D01*
X172162Y26065D01*
X172155Y26069D01*
X172041Y26081D01*
X171926Y26097D01*
X171918Y26095D01*
X171910Y26096D01*
X171798Y26071D01*
X171685Y26049D01*
X171678Y26045D01*
X171670Y26044D01*
X171571Y25985D01*
X171471Y25928D01*
X171466Y25922D01*
X171459Y25917D01*
X171384Y25830D01*
X171307Y25744D01*
X171304Y25737D01*
X171299Y25731D01*
X171256Y25623D01*
X171211Y25518D01*
X171210Y25510D01*
X171207Y25502D01*
X171189Y25336D01*
X171189Y24745D01*
X169105Y22661D01*
X166159Y22661D01*
X164257Y24563D01*
X164241Y24574D01*
X164228Y24590D01*
X164141Y24646D01*
X164057Y24706D01*
X164038Y24712D01*
X164022Y24723D01*
X163921Y24748D01*
X163822Y24779D01*
X163802Y24778D01*
X163783Y24783D01*
X163680Y24775D01*
X163576Y24772D01*
X163558Y24765D01*
X163538Y24764D01*
X163443Y24723D01*
X163345Y24688D01*
X163330Y24675D01*
X163311Y24668D01*
X163181Y24563D01*
X161279Y22661D01*
X153140Y22661D01*
X152180Y23621D01*
X152144Y23647D01*
X152115Y23679D01*
X152045Y23718D01*
X151980Y23765D01*
X151938Y23778D01*
X151900Y23799D01*
X151821Y23814D01*
X151745Y23837D01*
X151701Y23836D01*
X151658Y23844D01*
X151579Y23833D01*
X151499Y23831D01*
X151458Y23816D01*
X151415Y23809D01*
X151281Y23751D01*
X151268Y23746D01*
X151265Y23744D01*
X151261Y23742D01*
X149389Y22661D01*
X143670Y22661D01*
X143309Y23023D01*
X143293Y23035D01*
X143280Y23050D01*
X143193Y23106D01*
X143109Y23166D01*
X143090Y23172D01*
X143073Y23183D01*
X142973Y23208D01*
X142874Y23239D01*
X142854Y23238D01*
X142835Y23243D01*
X142732Y23235D01*
X142628Y23232D01*
X142609Y23226D01*
X142590Y23224D01*
X142495Y23184D01*
X142397Y23148D01*
X142382Y23135D01*
X142363Y23128D01*
X142232Y23023D01*
X141871Y22661D01*
X138924Y22661D01*
X137690Y23895D01*
X137674Y23907D01*
X137662Y23922D01*
X137574Y23979D01*
X137490Y24039D01*
X137471Y24045D01*
X137455Y24055D01*
X137354Y24081D01*
X137255Y24111D01*
X137235Y24111D01*
X137216Y24116D01*
X137113Y24108D01*
X137009Y24105D01*
X136991Y24098D01*
X136971Y24096D01*
X136876Y24056D01*
X136778Y24020D01*
X136763Y24008D01*
X136745Y24000D01*
X136614Y23895D01*
X135380Y22661D01*
X132433Y22661D01*
X130350Y24745D01*
X130350Y39375D01*
X132433Y41459D01*
X135380Y41459D01*
X136614Y40225D01*
X136630Y40213D01*
X136642Y40198D01*
X136729Y40141D01*
X136813Y40081D01*
X136832Y40075D01*
X136849Y40065D01*
X136950Y40039D01*
X137048Y40009D01*
X137068Y40009D01*
X137088Y40004D01*
X137191Y40012D01*
X137294Y40015D01*
X137313Y40022D01*
X137333Y40024D01*
X137428Y40064D01*
X137525Y40100D01*
X137541Y40112D01*
X137559Y40120D01*
X137690Y40225D01*
X138924Y41459D01*
X141871Y41459D01*
X142232Y41097D01*
X142249Y41085D01*
X142261Y41070D01*
X142348Y41014D01*
X142432Y40954D01*
X142451Y40948D01*
X142468Y40937D01*
X142568Y40912D01*
X142667Y40881D01*
X142687Y40882D01*
X142706Y40877D01*
X142809Y40885D01*
X142913Y40888D01*
X142932Y40894D01*
X142952Y40896D01*
X143047Y40936D01*
X143144Y40972D01*
X143160Y40985D01*
X143178Y40992D01*
X143309Y41097D01*
X143670Y41459D01*
X146318Y41459D01*
X146350Y41464D01*
X146382Y41461D01*
X146471Y41484D01*
X146561Y41498D01*
X146589Y41514D01*
X146621Y41521D01*
X146698Y41571D01*
X146778Y41614D01*
X146800Y41637D01*
X146827Y41654D01*
X146885Y41726D01*
X146948Y41792D01*
X146961Y41821D01*
X146981Y41846D01*
X147013Y41932D01*
X147051Y42015D01*
X147055Y42047D01*
X147066Y42077D01*
X147068Y42169D01*
X147078Y42259D01*
X147072Y42291D01*
X147072Y42323D01*
X147046Y42410D01*
X147026Y42500D01*
X147010Y42527D01*
X147000Y42558D01*
X146947Y42632D01*
X146900Y42711D01*
X146875Y42732D01*
X146857Y42758D01*
X146726Y42863D01*
X146636Y42920D01*
X145348Y43737D01*
X145225Y44289D01*
X145202Y44345D01*
X145189Y44404D01*
X145157Y44458D01*
X145133Y44517D01*
X145094Y44563D01*
X145063Y44615D01*
X145014Y44656D01*
X144973Y44704D01*
X144921Y44735D01*
X144876Y44774D01*
X144817Y44798D01*
X144762Y44831D01*
X144703Y44843D01*
X144647Y44866D01*
X144554Y44876D01*
X143465Y45966D01*
X143464Y45966D01*
X143464Y45967D01*
X140462Y48961D01*
X137397Y56883D01*
X137808Y65367D01*
X141624Y72955D01*
X148189Y78344D01*
X156376Y80607D01*
X164778Y79356D01*
X168364Y77080D01*
X169652Y76263D01*
X169775Y75711D01*
X169798Y75655D01*
X169811Y75596D01*
X169843Y75542D01*
X169867Y75483D01*
X169906Y75437D01*
X169937Y75385D01*
X169986Y75344D01*
X170027Y75296D01*
X170079Y75265D01*
X170124Y75226D01*
X170183Y75202D01*
X170238Y75169D01*
X170297Y75157D01*
X170353Y75134D01*
X170446Y75124D01*
X171528Y74042D01*
X171529Y74041D01*
X171531Y74039D01*
X171534Y74036D01*
X174538Y71039D01*
X177603Y63117D01*
X177192Y54633D01*
X173376Y47045D01*
X168214Y42808D01*
X168142Y42727D01*
X168068Y42648D01*
X168062Y42635D01*
X168052Y42624D01*
X168010Y42523D01*
X167964Y42425D01*
X167962Y42410D01*
X167957Y42397D01*
X167949Y42288D01*
X167937Y42181D01*
X167940Y42166D01*
X167939Y42152D01*
X167966Y42047D01*
X167989Y41940D01*
X167997Y41928D01*
X168000Y41913D01*
X168060Y41822D01*
X168115Y41729D01*
X168127Y41719D01*
X168135Y41707D01*
X168220Y41640D01*
X168302Y41569D01*
X168316Y41564D01*
X168328Y41555D01*
X168429Y41518D01*
X168531Y41477D01*
X168548Y41475D01*
X168559Y41471D01*
X168588Y41471D01*
X168697Y41459D01*
X172351Y41459D01*
X173215Y40594D01*
X173286Y40543D01*
X173352Y40485D01*
X173386Y40471D01*
X173415Y40450D01*
X173499Y40425D01*
X173579Y40391D01*
X173616Y40389D01*
X173650Y40378D01*
X173738Y40380D01*
X173825Y40374D01*
X173871Y40384D01*
X173896Y40384D01*
X173925Y40395D01*
X173989Y40408D01*
X178300Y41809D01*
X182525Y40436D01*
X182571Y40378D01*
X182608Y40354D01*
X182640Y40323D01*
X182711Y40288D01*
X182778Y40245D01*
X182821Y40235D01*
X182861Y40215D01*
X182939Y40205D01*
X183017Y40185D01*
X183061Y40189D01*
X183105Y40183D01*
X183183Y40198D01*
X183262Y40204D01*
X183302Y40222D01*
X183346Y40230D01*
X183415Y40270D01*
X183488Y40301D01*
X183534Y40337D01*
X183560Y40352D01*
X183578Y40373D01*
X183619Y40406D01*
X184672Y41459D01*
X190215Y41459D01*
X192299Y39375D01*
X192299Y36429D01*
X191223Y35353D01*
X191170Y35280D01*
X191111Y35210D01*
X191099Y35180D01*
X191080Y35154D01*
X191053Y35067D01*
X191019Y34982D01*
X191014Y34941D01*
X191008Y34919D01*
X191008Y34886D01*
X191001Y34815D01*
X191001Y29305D01*
X191015Y29215D01*
X191022Y29124D01*
X191035Y29094D01*
X191040Y29062D01*
X191083Y28981D01*
X191119Y28897D01*
X191144Y28865D01*
X191155Y28845D01*
X191179Y28822D01*
X191223Y28767D01*
X192299Y27691D01*
X192299Y24745D01*
X190215Y22661D01*
X184672Y22661D01*
X183619Y23715D01*
X183554Y23761D01*
X183496Y23815D01*
X183455Y23832D01*
X183419Y23858D01*
X183343Y23881D01*
X183270Y23913D01*
X183226Y23917D01*
X183184Y23930D01*
X183105Y23928D01*
X183025Y23935D01*
X182982Y23925D01*
X182938Y23924D01*
X182864Y23897D01*
X182786Y23878D01*
X182749Y23855D01*
X182707Y23840D01*
X182645Y23790D01*
X182578Y23748D01*
X182538Y23704D01*
X182515Y23686D01*
X182511Y23680D01*
X178300Y22311D01*
X174096Y23677D01*
G37*
%LPD*%
%LPC*%
G36*
X368777Y137823D02*
X368777Y137823D01*
X364669Y139525D01*
X361525Y142669D01*
X359823Y146777D01*
X359823Y151223D01*
X361525Y155331D01*
X364669Y158475D01*
X368777Y160177D01*
X456223Y160177D01*
X460331Y158475D01*
X463475Y155331D01*
X465177Y151223D01*
X465177Y146777D01*
X463475Y142669D01*
X460331Y139525D01*
X456223Y137823D01*
X368777Y137823D01*
G37*
%LPD*%
%LPC*%
G36*
X471979Y35839D02*
X471979Y35839D01*
X468244Y37386D01*
X465386Y40244D01*
X463839Y43979D01*
X463839Y131021D01*
X465386Y134756D01*
X468244Y137614D01*
X471979Y139161D01*
X476021Y139161D01*
X479756Y137614D01*
X482614Y134756D01*
X484161Y131021D01*
X484161Y43979D01*
X482614Y40244D01*
X479756Y37386D01*
X476021Y35839D01*
X471979Y35839D01*
G37*
%LPD*%
%LPC*%
G36*
X348979Y35839D02*
X348979Y35839D01*
X345244Y37386D01*
X342386Y40244D01*
X340839Y43979D01*
X340839Y131021D01*
X342386Y134756D01*
X345244Y137614D01*
X348979Y139161D01*
X353021Y139161D01*
X356756Y137614D01*
X359614Y134756D01*
X361161Y131021D01*
X361161Y43979D01*
X359614Y40244D01*
X356756Y37386D01*
X353021Y35839D01*
X348979Y35839D01*
G37*
%LPD*%
%LPC*%
G36*
X368979Y15839D02*
X368979Y15839D01*
X365244Y17386D01*
X362386Y20244D01*
X360839Y23979D01*
X360839Y28021D01*
X362386Y31756D01*
X365244Y34614D01*
X368979Y36161D01*
X456021Y36161D01*
X459756Y34614D01*
X462614Y31756D01*
X464161Y28021D01*
X464161Y23979D01*
X462614Y20244D01*
X459756Y17386D01*
X456021Y15839D01*
X368979Y15839D01*
G37*
%LPD*%
%LPC*%
G36*
X669188Y107339D02*
X669188Y107339D01*
X662788Y109054D01*
X657051Y112366D01*
X652366Y117051D01*
X649054Y122788D01*
X647339Y129188D01*
X647339Y135812D01*
X649054Y142212D01*
X652366Y147949D01*
X657051Y152634D01*
X662788Y155946D01*
X669188Y157661D01*
X675812Y157661D01*
X682212Y155946D01*
X687949Y152634D01*
X692634Y147949D01*
X695946Y142212D01*
X697661Y135812D01*
X697661Y129188D01*
X695946Y122788D01*
X692634Y117051D01*
X687949Y112366D01*
X682212Y109054D01*
X675812Y107339D01*
X669188Y107339D01*
G37*
%LPD*%
%LPC*%
G36*
X169188Y807339D02*
X169188Y807339D01*
X162788Y809054D01*
X157051Y812366D01*
X152366Y817051D01*
X149054Y822788D01*
X147339Y829188D01*
X147339Y835812D01*
X149054Y842212D01*
X152366Y847949D01*
X157051Y852634D01*
X162788Y855946D01*
X169188Y857661D01*
X175812Y857661D01*
X182212Y855946D01*
X187949Y852634D01*
X192634Y847949D01*
X195946Y842212D01*
X197661Y835812D01*
X197661Y829188D01*
X195946Y822788D01*
X192634Y817051D01*
X187949Y812366D01*
X182212Y809054D01*
X175812Y807339D01*
X169188Y807339D01*
G37*
%LPD*%
%LPC*%
G36*
X519096Y826918D02*
X519096Y826918D01*
X516586Y827958D01*
X514664Y829879D01*
X513624Y832390D01*
X513624Y835107D01*
X514664Y837618D01*
X516167Y839121D01*
X516220Y839195D01*
X516280Y839264D01*
X516292Y839294D01*
X516311Y839321D01*
X516338Y839408D01*
X516372Y839492D01*
X516376Y839533D01*
X516383Y839556D01*
X516382Y839588D01*
X516390Y839659D01*
X516390Y884816D01*
X516376Y884906D01*
X516368Y884997D01*
X516356Y885026D01*
X516351Y885058D01*
X516308Y885139D01*
X516272Y885223D01*
X516246Y885255D01*
X516235Y885276D01*
X516212Y885298D01*
X516192Y885323D01*
X516189Y885329D01*
X516185Y885332D01*
X516167Y885354D01*
X491397Y910124D01*
X491323Y910177D01*
X491253Y910237D01*
X491223Y910249D01*
X491197Y910268D01*
X491110Y910295D01*
X491025Y910329D01*
X490984Y910333D01*
X490962Y910340D01*
X490930Y910339D01*
X490859Y910347D01*
X478376Y910347D01*
X474828Y911817D01*
X472113Y914532D01*
X470643Y918080D01*
X470643Y921920D01*
X472113Y925468D01*
X474828Y928183D01*
X478376Y929653D01*
X495424Y929653D01*
X498972Y928183D01*
X501687Y925468D01*
X503157Y921920D01*
X503157Y918080D01*
X501687Y914532D01*
X500625Y913470D01*
X500613Y913454D01*
X500598Y913441D01*
X500541Y913354D01*
X500481Y913270D01*
X500475Y913251D01*
X500465Y913234D01*
X500439Y913134D01*
X500409Y913035D01*
X500409Y913015D01*
X500404Y912996D01*
X500413Y912893D01*
X500415Y912789D01*
X500422Y912770D01*
X500424Y912750D01*
X500464Y912656D01*
X500500Y912558D01*
X500512Y912542D01*
X500520Y912524D01*
X500625Y912393D01*
X524520Y888498D01*
X524520Y839659D01*
X524534Y839569D01*
X524542Y839478D01*
X524554Y839448D01*
X524559Y839416D01*
X524602Y839336D01*
X524638Y839252D01*
X524664Y839220D01*
X524675Y839199D01*
X524698Y839177D01*
X524743Y839121D01*
X526246Y837618D01*
X527286Y835107D01*
X527286Y832390D01*
X526246Y829879D01*
X524324Y827958D01*
X521814Y826918D01*
X519096Y826918D01*
G37*
%LPD*%
%LPC*%
G36*
X770238Y79679D02*
X770238Y79679D01*
X762769Y82773D01*
X757053Y88489D01*
X753959Y95958D01*
X753959Y104042D01*
X757053Y111511D01*
X762769Y117227D01*
X770238Y120321D01*
X778322Y120321D01*
X785791Y117227D01*
X791507Y111511D01*
X794601Y104042D01*
X794601Y95958D01*
X791507Y88489D01*
X785791Y82773D01*
X778322Y79679D01*
X770238Y79679D01*
G37*
%LPD*%
%LPC*%
G36*
X522158Y112568D02*
X522158Y112568D01*
X519647Y113608D01*
X517726Y115529D01*
X516686Y118040D01*
X516686Y120757D01*
X517726Y123268D01*
X519229Y124771D01*
X519282Y124845D01*
X519341Y124914D01*
X519354Y124944D01*
X519372Y124971D01*
X519399Y125058D01*
X519433Y125142D01*
X519438Y125183D01*
X519445Y125206D01*
X519444Y125238D01*
X519452Y125309D01*
X519452Y212476D01*
X519437Y212566D01*
X519430Y212657D01*
X519417Y212687D01*
X519412Y212719D01*
X519369Y212800D01*
X519334Y212884D01*
X519308Y212916D01*
X519297Y212936D01*
X519274Y212959D01*
X519229Y213015D01*
X517726Y214518D01*
X516686Y217028D01*
X516686Y219746D01*
X517726Y222256D01*
X519647Y224178D01*
X522158Y225218D01*
X524875Y225218D01*
X527386Y224178D01*
X529307Y222256D01*
X530347Y219746D01*
X530347Y217028D01*
X529307Y214518D01*
X527804Y213015D01*
X527751Y212941D01*
X527692Y212871D01*
X527679Y212841D01*
X527661Y212815D01*
X527634Y212728D01*
X527600Y212643D01*
X527595Y212602D01*
X527588Y212580D01*
X527589Y212548D01*
X527581Y212476D01*
X527581Y125309D01*
X527596Y125219D01*
X527603Y125128D01*
X527616Y125098D01*
X527621Y125066D01*
X527664Y124986D01*
X527699Y124902D01*
X527725Y124870D01*
X527736Y124849D01*
X527759Y124827D01*
X527804Y124771D01*
X529307Y123268D01*
X530347Y120757D01*
X530347Y118040D01*
X529307Y115529D01*
X527386Y113608D01*
X524875Y112568D01*
X522158Y112568D01*
G37*
%LPD*%
%LPC*%
G36*
X37974Y901376D02*
X37974Y901376D01*
X33353Y903291D01*
X29816Y906828D01*
X27901Y911449D01*
X27901Y916451D01*
X29816Y921072D01*
X33353Y924609D01*
X37974Y926524D01*
X62026Y926524D01*
X66647Y924609D01*
X70184Y921072D01*
X72099Y916451D01*
X72099Y911449D01*
X70184Y906828D01*
X66647Y903291D01*
X62026Y901376D01*
X37974Y901376D01*
G37*
%LPD*%
%LPC*%
G36*
X37974Y286826D02*
X37974Y286826D01*
X33353Y288741D01*
X29816Y292278D01*
X27901Y296899D01*
X27901Y301901D01*
X29816Y306522D01*
X33353Y310059D01*
X37974Y311974D01*
X62026Y311974D01*
X66647Y310059D01*
X70184Y306522D01*
X72099Y301901D01*
X72099Y296899D01*
X70184Y292278D01*
X66647Y288741D01*
X62026Y286826D01*
X37974Y286826D01*
G37*
%LPD*%
%LPC*%
G36*
X37974Y596576D02*
X37974Y596576D01*
X33353Y598491D01*
X29816Y602028D01*
X27901Y606649D01*
X27901Y611651D01*
X29816Y616272D01*
X33353Y619809D01*
X37974Y621724D01*
X62026Y621724D01*
X66647Y619809D01*
X70184Y616272D01*
X72099Y611651D01*
X72099Y606649D01*
X70184Y602028D01*
X66647Y598491D01*
X62026Y596576D01*
X37974Y596576D01*
G37*
%LPD*%
%LPC*%
G36*
X37974Y558476D02*
X37974Y558476D01*
X33353Y560391D01*
X29816Y563928D01*
X27901Y568549D01*
X27901Y573551D01*
X29816Y578172D01*
X33353Y581709D01*
X37974Y583624D01*
X62026Y583624D01*
X66647Y581709D01*
X70184Y578172D01*
X72099Y573551D01*
X72099Y568549D01*
X70184Y563928D01*
X66647Y560391D01*
X62026Y558476D01*
X37974Y558476D01*
G37*
%LPD*%
%LPC*%
G36*
X37974Y460876D02*
X37974Y460876D01*
X33353Y462791D01*
X29816Y466328D01*
X27901Y470949D01*
X27901Y475951D01*
X29816Y480572D01*
X33353Y484109D01*
X37974Y486024D01*
X62026Y486024D01*
X66647Y484109D01*
X70184Y480572D01*
X72099Y475951D01*
X72099Y470949D01*
X70184Y466328D01*
X66647Y462791D01*
X62026Y460876D01*
X37974Y460876D01*
G37*
%LPD*%
%LPC*%
G36*
X37974Y710876D02*
X37974Y710876D01*
X33353Y712791D01*
X29816Y716328D01*
X27901Y720949D01*
X27901Y725951D01*
X29816Y730572D01*
X33353Y734109D01*
X37974Y736024D01*
X62026Y736024D01*
X66647Y734109D01*
X70184Y730572D01*
X72099Y725951D01*
X72099Y720949D01*
X70184Y716328D01*
X66647Y712791D01*
X62026Y710876D01*
X37974Y710876D01*
G37*
%LPD*%
%LPC*%
G36*
X37974Y825176D02*
X37974Y825176D01*
X33353Y827091D01*
X29816Y830628D01*
X27901Y835249D01*
X27901Y840251D01*
X29816Y844872D01*
X33353Y848409D01*
X37974Y850324D01*
X62026Y850324D01*
X66647Y848409D01*
X70184Y844872D01*
X72099Y840251D01*
X72099Y835249D01*
X70184Y830628D01*
X66647Y827091D01*
X62026Y825176D01*
X37974Y825176D01*
G37*
%LPD*%
%LPC*%
G36*
X37974Y787076D02*
X37974Y787076D01*
X33353Y788991D01*
X29816Y792528D01*
X27901Y797149D01*
X27901Y802151D01*
X29816Y806772D01*
X33353Y810309D01*
X37974Y812224D01*
X62026Y812224D01*
X66647Y810309D01*
X70184Y806772D01*
X72099Y802151D01*
X72099Y797149D01*
X70184Y792528D01*
X66647Y788991D01*
X62026Y787076D01*
X37974Y787076D01*
G37*
%LPD*%
%LPC*%
G36*
X37974Y401126D02*
X37974Y401126D01*
X33353Y403041D01*
X29816Y406578D01*
X27901Y411199D01*
X27901Y416201D01*
X29816Y420822D01*
X33353Y424359D01*
X37974Y426274D01*
X62026Y426274D01*
X66647Y424359D01*
X70184Y420822D01*
X72099Y416201D01*
X72099Y411199D01*
X70184Y406578D01*
X66647Y403041D01*
X62026Y401126D01*
X37974Y401126D01*
G37*
%LPD*%
%LPC*%
G36*
X37974Y363026D02*
X37974Y363026D01*
X33353Y364941D01*
X29816Y368478D01*
X27901Y373099D01*
X27901Y378101D01*
X29816Y382722D01*
X33353Y386259D01*
X37974Y388174D01*
X62026Y388174D01*
X66647Y386259D01*
X70184Y382722D01*
X72099Y378101D01*
X72099Y373099D01*
X70184Y368478D01*
X66647Y364941D01*
X62026Y363026D01*
X37974Y363026D01*
G37*
%LPD*%
%LPC*%
G36*
X37974Y748976D02*
X37974Y748976D01*
X33353Y750891D01*
X29816Y754428D01*
X27901Y759049D01*
X27901Y764051D01*
X29816Y768672D01*
X33353Y772209D01*
X37974Y774124D01*
X62026Y774124D01*
X66647Y772209D01*
X70184Y768672D01*
X72099Y764051D01*
X72099Y759049D01*
X70184Y754428D01*
X66647Y750891D01*
X62026Y748976D01*
X37974Y748976D01*
G37*
%LPD*%
%LPC*%
G36*
X37974Y324926D02*
X37974Y324926D01*
X33353Y326841D01*
X29816Y330378D01*
X27901Y334999D01*
X27901Y340001D01*
X29816Y344622D01*
X33353Y348159D01*
X37974Y350074D01*
X62026Y350074D01*
X66647Y348159D01*
X70184Y344622D01*
X72099Y340001D01*
X72099Y334999D01*
X70184Y330378D01*
X66647Y326841D01*
X62026Y324926D01*
X37974Y324926D01*
G37*
%LPD*%
%LPC*%
G36*
X37974Y248726D02*
X37974Y248726D01*
X33353Y250641D01*
X29816Y254178D01*
X27901Y258799D01*
X27901Y263801D01*
X29816Y268422D01*
X33353Y271959D01*
X37974Y273874D01*
X62026Y273874D01*
X66647Y271959D01*
X70184Y268422D01*
X72099Y263801D01*
X72099Y258799D01*
X70184Y254178D01*
X66647Y250641D01*
X62026Y248726D01*
X37974Y248726D01*
G37*
%LPD*%
%LPC*%
G36*
X37974Y672776D02*
X37974Y672776D01*
X33353Y674691D01*
X29816Y678228D01*
X27901Y682849D01*
X27901Y687851D01*
X29816Y692472D01*
X33353Y696009D01*
X37974Y697924D01*
X62026Y697924D01*
X66647Y696009D01*
X70184Y692472D01*
X72099Y687851D01*
X72099Y682849D01*
X70184Y678228D01*
X66647Y674691D01*
X62026Y672776D01*
X37974Y672776D01*
G37*
%LPD*%
%LPC*%
G36*
X37974Y191126D02*
X37974Y191126D01*
X33353Y193041D01*
X29816Y196578D01*
X27901Y201199D01*
X27901Y206201D01*
X29816Y210822D01*
X33353Y214359D01*
X37974Y216274D01*
X62026Y216274D01*
X66647Y214359D01*
X70184Y210822D01*
X72099Y206201D01*
X72099Y201199D01*
X70184Y196578D01*
X66647Y193041D01*
X62026Y191126D01*
X37974Y191126D01*
G37*
%LPD*%
%LPC*%
G36*
X37974Y153026D02*
X37974Y153026D01*
X33353Y154941D01*
X29816Y158478D01*
X27901Y163099D01*
X27901Y168101D01*
X29816Y172722D01*
X33353Y176259D01*
X37974Y178174D01*
X62026Y178174D01*
X66647Y176259D01*
X70184Y172722D01*
X72099Y168101D01*
X72099Y163099D01*
X70184Y158478D01*
X66647Y154941D01*
X62026Y153026D01*
X37974Y153026D01*
G37*
%LPD*%
%LPC*%
G36*
X37974Y634676D02*
X37974Y634676D01*
X33353Y636591D01*
X29816Y640128D01*
X27901Y644749D01*
X27901Y649751D01*
X29816Y654372D01*
X33353Y657909D01*
X37974Y659824D01*
X62026Y659824D01*
X66647Y657909D01*
X70184Y654372D01*
X72099Y649751D01*
X72099Y644749D01*
X70184Y640128D01*
X66647Y636591D01*
X62026Y634676D01*
X37974Y634676D01*
G37*
%LPD*%
%LPC*%
G36*
X37974Y114926D02*
X37974Y114926D01*
X33353Y116841D01*
X29816Y120378D01*
X27901Y124999D01*
X27901Y130001D01*
X29816Y134622D01*
X33353Y138159D01*
X37974Y140074D01*
X62026Y140074D01*
X66647Y138159D01*
X70184Y134622D01*
X72099Y130001D01*
X72099Y124999D01*
X70184Y120378D01*
X66647Y116841D01*
X62026Y114926D01*
X37974Y114926D01*
G37*
%LPD*%
%LPC*%
G36*
X37974Y76826D02*
X37974Y76826D01*
X33353Y78741D01*
X29816Y82278D01*
X27901Y86899D01*
X27901Y91901D01*
X29816Y96522D01*
X33353Y100059D01*
X37974Y101974D01*
X62026Y101974D01*
X66647Y100059D01*
X70184Y96522D01*
X72099Y91901D01*
X72099Y86899D01*
X70184Y82278D01*
X66647Y78741D01*
X62026Y76826D01*
X37974Y76826D01*
G37*
%LPD*%
%LPC*%
G36*
X37974Y38726D02*
X37974Y38726D01*
X33353Y40641D01*
X29816Y44178D01*
X27901Y48799D01*
X27901Y53801D01*
X29816Y58422D01*
X33353Y61959D01*
X37974Y63874D01*
X62026Y63874D01*
X66647Y61959D01*
X70184Y58422D01*
X72099Y53801D01*
X72099Y48799D01*
X70184Y44178D01*
X66647Y40641D01*
X62026Y38726D01*
X37974Y38726D01*
G37*
%LPD*%
%LPC*%
G36*
X186413Y674863D02*
X186413Y674863D01*
X183903Y675903D01*
X181981Y677825D01*
X180941Y680335D01*
X180941Y683053D01*
X181981Y685563D01*
X183484Y687066D01*
X183537Y687140D01*
X183597Y687210D01*
X183609Y687240D01*
X183628Y687266D01*
X183655Y687353D01*
X183689Y687438D01*
X183693Y687479D01*
X183700Y687501D01*
X183699Y687533D01*
X183707Y687605D01*
X183707Y754362D01*
X183693Y754452D01*
X183685Y754543D01*
X183673Y754573D01*
X183668Y754605D01*
X183625Y754685D01*
X183589Y754769D01*
X183563Y754801D01*
X183552Y754822D01*
X183529Y754844D01*
X183484Y754900D01*
X183002Y755383D01*
X181962Y757893D01*
X181962Y760611D01*
X183002Y763121D01*
X184923Y765043D01*
X187434Y766083D01*
X190151Y766083D01*
X192662Y765043D01*
X194583Y763121D01*
X195623Y760611D01*
X195623Y757893D01*
X194583Y755383D01*
X192662Y753461D01*
X192307Y753314D01*
X192208Y753253D01*
X192107Y753193D01*
X192103Y753188D01*
X192098Y753185D01*
X192023Y753095D01*
X191947Y753006D01*
X191945Y753000D01*
X191941Y752995D01*
X191899Y752886D01*
X191855Y752778D01*
X191854Y752770D01*
X191853Y752765D01*
X191852Y752747D01*
X191837Y752611D01*
X191837Y687605D01*
X191851Y687515D01*
X191859Y687424D01*
X191871Y687394D01*
X191876Y687362D01*
X191919Y687281D01*
X191955Y687197D01*
X191981Y687165D01*
X191992Y687145D01*
X192015Y687122D01*
X192060Y687066D01*
X193563Y685563D01*
X194603Y683053D01*
X194603Y680335D01*
X193563Y677825D01*
X191641Y675903D01*
X189131Y674863D01*
X186413Y674863D01*
G37*
%LPD*%
%LPC*%
G36*
X712758Y489131D02*
X712758Y489131D01*
X708837Y490755D01*
X705835Y493757D01*
X704211Y497678D01*
X704211Y501922D01*
X705835Y505843D01*
X708837Y508845D01*
X712758Y510469D01*
X732242Y510469D01*
X736163Y508845D01*
X739165Y505843D01*
X740789Y501922D01*
X740789Y497678D01*
X739165Y493757D01*
X736163Y490755D01*
X732242Y489131D01*
X712758Y489131D01*
G37*
%LPD*%
%LPC*%
G36*
X712758Y463731D02*
X712758Y463731D01*
X708837Y465355D01*
X705835Y468357D01*
X704211Y472278D01*
X704211Y476522D01*
X705835Y480443D01*
X708837Y483445D01*
X712758Y485069D01*
X732242Y485069D01*
X736163Y483445D01*
X739165Y480443D01*
X740789Y476522D01*
X740789Y472278D01*
X739165Y468357D01*
X736163Y465355D01*
X732242Y463731D01*
X712758Y463731D01*
G37*
%LPD*%
%LPC*%
G36*
X787212Y183160D02*
X787212Y183160D01*
X781960Y185335D01*
X777941Y189354D01*
X775766Y194606D01*
X775766Y200290D01*
X777941Y205542D01*
X781960Y209561D01*
X787212Y211736D01*
X792896Y211736D01*
X798148Y209561D01*
X802167Y205542D01*
X804342Y200290D01*
X804342Y194606D01*
X802167Y189354D01*
X798148Y185335D01*
X792896Y183160D01*
X787212Y183160D01*
G37*
%LPD*%
%LPC*%
G36*
X438477Y684048D02*
X438477Y684048D01*
X435966Y685088D01*
X434045Y687009D01*
X433005Y689520D01*
X433005Y692237D01*
X434045Y694748D01*
X435966Y696669D01*
X438477Y697709D01*
X441194Y697709D01*
X443705Y696669D01*
X445208Y695166D01*
X445282Y695113D01*
X445351Y695054D01*
X445381Y695041D01*
X445408Y695023D01*
X445495Y694996D01*
X445579Y694962D01*
X445620Y694957D01*
X445643Y694950D01*
X445675Y694951D01*
X445746Y694943D01*
X473724Y694943D01*
X473814Y694958D01*
X473905Y694965D01*
X473935Y694978D01*
X473967Y694983D01*
X474048Y695026D01*
X474132Y695061D01*
X474164Y695087D01*
X474184Y695098D01*
X474207Y695121D01*
X474263Y695166D01*
X475766Y696669D01*
X478276Y697709D01*
X480994Y697709D01*
X483504Y696669D01*
X485426Y694748D01*
X486466Y692237D01*
X486466Y689520D01*
X485426Y687009D01*
X483504Y685088D01*
X480994Y684048D01*
X478276Y684048D01*
X475766Y685088D01*
X474263Y686591D01*
X474189Y686644D01*
X474119Y686703D01*
X474089Y686716D01*
X474063Y686734D01*
X473976Y686761D01*
X473891Y686795D01*
X473850Y686800D01*
X473828Y686807D01*
X473796Y686806D01*
X473724Y686814D01*
X445746Y686814D01*
X445656Y686799D01*
X445565Y686792D01*
X445535Y686779D01*
X445503Y686774D01*
X445423Y686731D01*
X445339Y686696D01*
X445307Y686670D01*
X445286Y686659D01*
X445264Y686636D01*
X445208Y686591D01*
X443705Y685088D01*
X441194Y684048D01*
X438477Y684048D01*
G37*
%LPD*%
%LPC*%
G36*
X806493Y419861D02*
X806493Y419861D01*
X802968Y421321D01*
X800271Y424018D01*
X798811Y427543D01*
X798811Y431357D01*
X800271Y434882D01*
X802968Y437579D01*
X806493Y439039D01*
X810307Y439039D01*
X813832Y437579D01*
X816529Y434882D01*
X817989Y431357D01*
X817989Y427543D01*
X816529Y424018D01*
X813832Y421321D01*
X810307Y419861D01*
X806493Y419861D01*
G37*
%LPD*%
%LPC*%
G36*
X51523Y513073D02*
X51523Y513073D01*
X51523Y523616D01*
X60475Y523616D01*
X62350Y523319D01*
X64157Y522732D01*
X65849Y521870D01*
X67385Y520753D01*
X68728Y519410D01*
X69845Y517874D01*
X70707Y516182D01*
X71294Y514375D01*
X71500Y513073D01*
X51523Y513073D01*
G37*
%LPD*%
%LPC*%
G36*
X28500Y513073D02*
X28500Y513073D01*
X28706Y514375D01*
X29293Y516182D01*
X30155Y517874D01*
X31272Y519410D01*
X32615Y520753D01*
X34151Y521870D01*
X35843Y522732D01*
X37650Y523319D01*
X39525Y523616D01*
X48477Y523616D01*
X48477Y513073D01*
X28500Y513073D01*
G37*
%LPD*%
%LPC*%
G36*
X51523Y499484D02*
X51523Y499484D01*
X51523Y510027D01*
X71500Y510027D01*
X71294Y508725D01*
X70707Y506918D01*
X69845Y505226D01*
X68728Y503690D01*
X67385Y502347D01*
X65849Y501230D01*
X64157Y500368D01*
X62350Y499781D01*
X60475Y499484D01*
X51523Y499484D01*
G37*
%LPD*%
%LPC*%
G36*
X39525Y499484D02*
X39525Y499484D01*
X37650Y499781D01*
X35843Y500368D01*
X34151Y501230D01*
X32615Y502347D01*
X31272Y503690D01*
X30155Y505226D01*
X29293Y506918D01*
X28706Y508725D01*
X28500Y510027D01*
X48477Y510027D01*
X48477Y499484D01*
X39525Y499484D01*
G37*
%LPD*%
%LPC*%
G36*
X799023Y779023D02*
X799023Y779023D01*
X799023Y787661D01*
X805920Y787661D01*
X807499Y787411D01*
X809020Y786916D01*
X810445Y786190D01*
X811739Y785250D01*
X812870Y784119D01*
X813810Y782825D01*
X814536Y781400D01*
X815031Y779879D01*
X815166Y779023D01*
X799023Y779023D01*
G37*
%LPD*%
%LPC*%
G36*
X799023Y904023D02*
X799023Y904023D01*
X799023Y912661D01*
X805920Y912661D01*
X807499Y912411D01*
X809020Y911916D01*
X810445Y911190D01*
X811739Y910250D01*
X812870Y909119D01*
X813810Y907825D01*
X814536Y906400D01*
X815031Y904879D01*
X815166Y904023D01*
X799023Y904023D01*
G37*
%LPD*%
%LPC*%
G36*
X799023Y654023D02*
X799023Y654023D01*
X799023Y662661D01*
X805920Y662661D01*
X807499Y662411D01*
X809020Y661916D01*
X810445Y661190D01*
X811739Y660250D01*
X812870Y659119D01*
X813810Y657825D01*
X814536Y656400D01*
X815031Y654879D01*
X815166Y654023D01*
X799023Y654023D01*
G37*
%LPD*%
%LPC*%
G36*
X779834Y904023D02*
X779834Y904023D01*
X779969Y904879D01*
X780464Y906400D01*
X781190Y907825D01*
X782130Y909119D01*
X783261Y910250D01*
X784555Y911190D01*
X785980Y911916D01*
X787501Y912411D01*
X789080Y912661D01*
X795977Y912661D01*
X795977Y904023D01*
X779834Y904023D01*
G37*
%LPD*%
%LPC*%
G36*
X799023Y767339D02*
X799023Y767339D01*
X799023Y775977D01*
X815166Y775977D01*
X815031Y775121D01*
X814536Y773600D01*
X813810Y772175D01*
X812870Y770881D01*
X811739Y769750D01*
X810445Y768810D01*
X809020Y768084D01*
X807499Y767589D01*
X805920Y767339D01*
X799023Y767339D01*
G37*
%LPD*%
%LPC*%
G36*
X799023Y892339D02*
X799023Y892339D01*
X799023Y900977D01*
X815166Y900977D01*
X815031Y900121D01*
X814536Y898600D01*
X813810Y897175D01*
X812870Y895881D01*
X811739Y894750D01*
X810445Y893810D01*
X809020Y893084D01*
X807499Y892589D01*
X805920Y892339D01*
X799023Y892339D01*
G37*
%LPD*%
%LPC*%
G36*
X799023Y642339D02*
X799023Y642339D01*
X799023Y650977D01*
X815166Y650977D01*
X815031Y650121D01*
X814536Y648600D01*
X813810Y647175D01*
X812870Y645881D01*
X811739Y644750D01*
X810445Y643810D01*
X809020Y643084D01*
X807499Y642589D01*
X805920Y642339D01*
X799023Y642339D01*
G37*
%LPD*%
%LPC*%
G36*
X724023Y515039D02*
X724023Y515039D01*
X724023Y523677D01*
X740166Y523677D01*
X740031Y522821D01*
X739536Y521300D01*
X738810Y519875D01*
X737870Y518581D01*
X736739Y517450D01*
X735445Y516510D01*
X734020Y515784D01*
X732499Y515289D01*
X730920Y515039D01*
X724023Y515039D01*
G37*
%LPD*%
%LPC*%
G36*
X789080Y892339D02*
X789080Y892339D01*
X787501Y892589D01*
X785980Y893084D01*
X784555Y893810D01*
X783261Y894750D01*
X782130Y895881D01*
X781190Y897175D01*
X780464Y898600D01*
X779969Y900121D01*
X779834Y900977D01*
X795977Y900977D01*
X795977Y892339D01*
X789080Y892339D01*
G37*
%LPD*%
%LPC*%
G36*
X709738Y287273D02*
X709738Y287273D01*
X709980Y288804D01*
X710615Y290756D01*
X711547Y292585D01*
X712753Y294246D01*
X714204Y295697D01*
X715865Y296903D01*
X717694Y297835D01*
X719646Y298470D01*
X721177Y298712D01*
X721177Y287273D01*
X709738Y287273D01*
G37*
%LPD*%
%LPC*%
G36*
X709738Y442173D02*
X709738Y442173D01*
X709980Y443704D01*
X710615Y445656D01*
X711547Y447485D01*
X712753Y449146D01*
X714204Y450597D01*
X715865Y451803D01*
X717694Y452735D01*
X719646Y453370D01*
X721177Y453612D01*
X721177Y442173D01*
X709738Y442173D01*
G37*
%LPD*%
%LPC*%
G36*
X719646Y273030D02*
X719646Y273030D01*
X717694Y273665D01*
X715865Y274597D01*
X714204Y275803D01*
X712753Y277254D01*
X711547Y278915D01*
X710615Y280744D01*
X709980Y282696D01*
X709738Y284227D01*
X721177Y284227D01*
X721177Y272788D01*
X719646Y273030D01*
G37*
%LPD*%
%LPC*%
G36*
X719646Y427930D02*
X719646Y427930D01*
X717694Y428565D01*
X715865Y429497D01*
X714204Y430703D01*
X712753Y432154D01*
X711547Y433815D01*
X710615Y435644D01*
X709980Y437596D01*
X709738Y439127D01*
X721177Y439127D01*
X721177Y427688D01*
X719646Y427930D01*
G37*
%LPD*%
%LPC*%
G36*
X816469Y256629D02*
X816469Y256629D01*
X816469Y265267D01*
X819155Y265267D01*
X825107Y259315D01*
X825107Y256629D01*
X816469Y256629D01*
G37*
%LPD*%
%LPC*%
G36*
X686923Y914223D02*
X686923Y914223D01*
X686923Y922781D01*
X689576Y922781D01*
X695481Y916876D01*
X695481Y914223D01*
X686923Y914223D01*
G37*
%LPD*%
%LPC*%
G36*
X623273Y645148D02*
X623273Y645148D01*
X623273Y652706D01*
X628624Y652706D01*
X629271Y652533D01*
X629850Y652198D01*
X630323Y651725D01*
X630658Y651146D01*
X630831Y650499D01*
X630831Y645148D01*
X623273Y645148D01*
G37*
%LPD*%
%LPC*%
G36*
X612669Y645148D02*
X612669Y645148D01*
X612669Y650499D01*
X612842Y651146D01*
X613177Y651725D01*
X613650Y652198D01*
X614229Y652533D01*
X614876Y652706D01*
X620227Y652706D01*
X620227Y645148D01*
X612669Y645148D01*
G37*
%LPD*%
%LPC*%
G36*
X614876Y634544D02*
X614876Y634544D01*
X614229Y634717D01*
X613650Y635052D01*
X613177Y635525D01*
X612842Y636104D01*
X612669Y636751D01*
X612669Y642102D01*
X620227Y642102D01*
X620227Y634544D01*
X614876Y634544D01*
G37*
%LPD*%
%LPC*%
G36*
X809923Y323873D02*
X809923Y323873D01*
X809923Y331306D01*
X811049Y331082D01*
X812701Y330397D01*
X814189Y329403D01*
X815453Y328139D01*
X816447Y326651D01*
X817132Y324999D01*
X817356Y323873D01*
X809923Y323873D01*
G37*
%LPD*%
%LPC*%
G36*
X809923Y405573D02*
X809923Y405573D01*
X809923Y413006D01*
X811049Y412782D01*
X812701Y412097D01*
X814189Y411103D01*
X815453Y409839D01*
X816447Y408351D01*
X817132Y406699D01*
X817356Y405573D01*
X809923Y405573D01*
G37*
%LPD*%
%LPC*%
G36*
X655344Y409123D02*
X655344Y409123D01*
X655568Y410249D01*
X656253Y411901D01*
X657247Y413389D01*
X658511Y414653D01*
X659999Y415647D01*
X661651Y416332D01*
X662777Y416556D01*
X662777Y409123D01*
X655344Y409123D01*
G37*
%LPD*%
%LPC*%
G36*
X809923Y320827D02*
X809923Y320827D01*
X817356Y320827D01*
X817132Y319701D01*
X816447Y318049D01*
X815453Y316561D01*
X814189Y315297D01*
X812701Y314303D01*
X811049Y313618D01*
X809923Y313394D01*
X809923Y320827D01*
G37*
%LPD*%
%LPC*%
G36*
X799444Y405573D02*
X799444Y405573D01*
X799668Y406699D01*
X800353Y408351D01*
X801347Y409839D01*
X802611Y411103D01*
X804099Y412097D01*
X805751Y412782D01*
X806877Y413006D01*
X806877Y405573D01*
X799444Y405573D01*
G37*
%LPD*%
%LPC*%
G36*
X799444Y323873D02*
X799444Y323873D01*
X799668Y324999D01*
X800353Y326651D01*
X801347Y328139D01*
X802611Y329403D01*
X804099Y330397D01*
X805751Y331082D01*
X806877Y331306D01*
X806877Y323873D01*
X799444Y323873D01*
G37*
%LPD*%
%LPC*%
G36*
X809923Y402527D02*
X809923Y402527D01*
X817356Y402527D01*
X817132Y401401D01*
X816447Y399749D01*
X815453Y398261D01*
X814189Y396997D01*
X812701Y396003D01*
X811049Y395318D01*
X809923Y395094D01*
X809923Y402527D01*
G37*
%LPD*%
%LPC*%
G36*
X805751Y395318D02*
X805751Y395318D01*
X804099Y396003D01*
X802611Y396997D01*
X801347Y398261D01*
X800353Y399749D01*
X799668Y401401D01*
X799444Y402527D01*
X806877Y402527D01*
X806877Y395094D01*
X805751Y395318D01*
G37*
%LPD*%
%LPC*%
G36*
X805751Y313618D02*
X805751Y313618D01*
X804099Y314303D01*
X802611Y315297D01*
X801347Y316561D01*
X800353Y318049D01*
X799668Y319701D01*
X799444Y320827D01*
X806877Y320827D01*
X806877Y313394D01*
X805751Y313618D01*
G37*
%LPD*%
%LPC*%
G36*
X621749Y643624D02*
X621749Y643624D01*
X621749Y643626D01*
X621751Y643626D01*
X621751Y643624D01*
X621749Y643624D01*
G37*
%LPD*%
%LPC*%
G36*
X722699Y440649D02*
X722699Y440649D01*
X722699Y440651D01*
X722701Y440651D01*
X722701Y440649D01*
X722699Y440649D01*
G37*
%LPD*%
%LPC*%
G36*
X808399Y322349D02*
X808399Y322349D01*
X808399Y322351D01*
X808401Y322351D01*
X808401Y322349D01*
X808399Y322349D01*
G37*
%LPD*%
%LPC*%
G36*
X797499Y902499D02*
X797499Y902499D01*
X797499Y902501D01*
X797501Y902501D01*
X797501Y902499D01*
X797499Y902499D01*
G37*
%LPD*%
%LPC*%
G36*
X808399Y404049D02*
X808399Y404049D01*
X808399Y404051D01*
X808401Y404051D01*
X808401Y404049D01*
X808399Y404049D01*
G37*
%LPD*%
%LPC*%
G36*
X49999Y511549D02*
X49999Y511549D01*
X49999Y511551D01*
X50001Y511551D01*
X50001Y511549D01*
X49999Y511549D01*
G37*
%LPD*%
D10*
X621750Y643625D03*
X697950Y643625D03*
D11*
X647150Y643625D03*
X672550Y643625D03*
X672550Y618225D03*
X647150Y618225D03*
X621750Y618225D03*
X697950Y618225D03*
D12*
X722700Y285750D03*
X722700Y440650D03*
D11*
X808400Y429450D03*
X808400Y404050D03*
X808400Y322350D03*
X808400Y296950D03*
X664300Y407600D03*
X664300Y382200D03*
X664300Y356800D03*
X664300Y331400D03*
X689700Y395000D03*
X689700Y369600D03*
X689700Y344200D03*
X689700Y318800D03*
D13*
X714880Y550600D02*
X730120Y550600D01*
X730120Y525200D02*
X714880Y525200D01*
X714880Y499800D02*
X730120Y499800D01*
X730120Y474400D02*
X714880Y474400D01*
D14*
X157500Y73970D02*
X157500Y46030D01*
X154960Y46030D02*
X154960Y57460D01*
X146070Y48570D01*
X160040Y62540D02*
X168930Y71430D01*
X160040Y73970D02*
X160040Y62540D01*
X166390Y73971D02*
X166051Y74180D01*
X165707Y74381D01*
X165358Y74574D01*
X165005Y74758D01*
X164647Y74933D01*
X164285Y75100D01*
X163919Y75258D01*
X163549Y75407D01*
X163176Y75546D01*
X162799Y75677D01*
X162420Y75798D01*
X162037Y75911D01*
X161652Y76013D01*
X161265Y76107D01*
X160875Y76191D01*
X160484Y76265D01*
X160091Y76330D01*
X159696Y76385D01*
X159300Y76431D01*
X158903Y76467D01*
X158505Y76493D01*
X158107Y76510D01*
X157709Y76517D01*
X157310Y76514D01*
X156912Y76501D01*
X156514Y76479D01*
X156117Y76447D01*
X155720Y76406D01*
X155325Y76355D01*
X154931Y76294D01*
X154539Y76224D01*
X154149Y76144D01*
X153760Y76054D01*
X153374Y75955D01*
X152991Y75847D01*
X152610Y75730D01*
X152232Y75603D01*
X151857Y75467D01*
X151486Y75322D01*
X151118Y75168D01*
X150755Y75005D01*
X150395Y74833D01*
X150040Y74653D01*
X149689Y74464D01*
X149343Y74267D01*
X149001Y74061D01*
X148665Y73847D01*
X148335Y73624D01*
X148009Y73394D01*
X147690Y73156D01*
X147376Y72910D01*
X147068Y72657D01*
X146767Y72396D01*
X146472Y72128D01*
X146184Y71853D01*
X145902Y71571D01*
X145628Y71282D01*
X145360Y70986D01*
X145100Y70684D01*
X144847Y70376D01*
X144602Y70062D01*
X144365Y69742D01*
X144135Y69416D01*
X143914Y69085D01*
X143700Y68748D01*
X143495Y68407D01*
X143298Y68060D01*
X143110Y67709D01*
X142930Y67353D01*
X142759Y66993D01*
X142597Y66629D01*
X142444Y66261D01*
X142300Y65890D01*
X142165Y65515D01*
X142039Y65137D01*
X141922Y64756D01*
X141815Y64372D01*
X141717Y63985D01*
X141628Y63597D01*
X141549Y63206D01*
X141479Y62814D01*
X141420Y62420D01*
X141369Y62025D01*
X141328Y61628D01*
X141297Y61231D01*
X141276Y60833D01*
X141264Y60435D01*
X141262Y60036D01*
X141270Y59638D01*
X141288Y59239D01*
X141315Y58842D01*
X141352Y58445D01*
X141398Y58049D01*
X141454Y57655D01*
X141520Y57261D01*
X141595Y56870D01*
X141680Y56481D01*
X141774Y56093D01*
X141878Y55709D01*
X141991Y55326D01*
X142113Y54947D01*
X142244Y54571D01*
X142385Y54198D01*
X142535Y53829D01*
X142693Y53463D01*
X142861Y53101D01*
X143037Y52744D01*
X143222Y52391D01*
X143415Y52042D01*
X143617Y51699D01*
X143827Y51360D01*
X144045Y51027D01*
X144271Y50699D01*
X144506Y50376D01*
X144748Y50060D01*
X144997Y49749D01*
X145255Y49445D01*
X145519Y49146D01*
X145791Y48855D01*
X146070Y48570D01*
X148610Y46029D02*
X148949Y45820D01*
X149293Y45619D01*
X149642Y45426D01*
X149995Y45242D01*
X150353Y45067D01*
X150715Y44900D01*
X151081Y44742D01*
X151451Y44593D01*
X151824Y44454D01*
X152201Y44323D01*
X152580Y44202D01*
X152963Y44089D01*
X153348Y43987D01*
X153735Y43893D01*
X154125Y43809D01*
X154516Y43735D01*
X154909Y43670D01*
X155304Y43615D01*
X155700Y43569D01*
X156097Y43533D01*
X156495Y43507D01*
X156893Y43490D01*
X157291Y43483D01*
X157690Y43486D01*
X158088Y43499D01*
X158486Y43521D01*
X158883Y43553D01*
X159280Y43594D01*
X159675Y43645D01*
X160069Y43706D01*
X160461Y43776D01*
X160851Y43856D01*
X161240Y43946D01*
X161626Y44045D01*
X162009Y44153D01*
X162390Y44270D01*
X162768Y44397D01*
X163143Y44533D01*
X163514Y44678D01*
X163882Y44832D01*
X164245Y44995D01*
X164605Y45167D01*
X164960Y45347D01*
X165311Y45536D01*
X165657Y45733D01*
X165999Y45939D01*
X166335Y46153D01*
X166665Y46376D01*
X166991Y46606D01*
X167310Y46844D01*
X167624Y47090D01*
X167932Y47343D01*
X168233Y47604D01*
X168528Y47872D01*
X168816Y48147D01*
X169098Y48429D01*
X169372Y48718D01*
X169640Y49014D01*
X169900Y49316D01*
X170153Y49624D01*
X170398Y49938D01*
X170635Y50258D01*
X170865Y50584D01*
X171086Y50915D01*
X171300Y51252D01*
X171505Y51593D01*
X171702Y51940D01*
X171890Y52291D01*
X172070Y52647D01*
X172241Y53007D01*
X172403Y53371D01*
X172556Y53739D01*
X172700Y54110D01*
X172835Y54485D01*
X172961Y54863D01*
X173078Y55244D01*
X173185Y55628D01*
X173283Y56015D01*
X173372Y56403D01*
X173451Y56794D01*
X173521Y57186D01*
X173580Y57580D01*
X173631Y57975D01*
X173672Y58372D01*
X173703Y58769D01*
X173724Y59167D01*
X173736Y59565D01*
X173738Y59964D01*
X173730Y60362D01*
X173712Y60761D01*
X173685Y61158D01*
X173648Y61555D01*
X173602Y61951D01*
X173546Y62345D01*
X173480Y62739D01*
X173405Y63130D01*
X173320Y63519D01*
X173226Y63907D01*
X173122Y64291D01*
X173009Y64674D01*
X172887Y65053D01*
X172756Y65429D01*
X172615Y65802D01*
X172465Y66171D01*
X172307Y66537D01*
X172139Y66899D01*
X171963Y67256D01*
X171778Y67609D01*
X171585Y67958D01*
X171383Y68301D01*
X171173Y68640D01*
X170955Y68973D01*
X170729Y69301D01*
X170494Y69624D01*
X170252Y69940D01*
X170003Y70251D01*
X169745Y70555D01*
X169481Y70854D01*
X169209Y71145D01*
X168930Y71430D01*
D15*
X187444Y37902D02*
X187444Y26218D01*
X188742Y26218D02*
X186146Y26218D01*
X186146Y37902D02*
X188742Y37902D01*
X181545Y34656D02*
X181545Y29464D01*
X181546Y34656D02*
X181544Y34769D01*
X181538Y34882D01*
X181528Y34995D01*
X181514Y35108D01*
X181497Y35220D01*
X181475Y35331D01*
X181450Y35441D01*
X181420Y35551D01*
X181387Y35659D01*
X181350Y35766D01*
X181310Y35872D01*
X181265Y35976D01*
X181217Y36079D01*
X181166Y36180D01*
X181111Y36279D01*
X181053Y36376D01*
X180991Y36471D01*
X180926Y36564D01*
X180858Y36654D01*
X180787Y36742D01*
X180712Y36828D01*
X180635Y36911D01*
X180555Y36991D01*
X180472Y37068D01*
X180386Y37143D01*
X180298Y37214D01*
X180208Y37282D01*
X180115Y37347D01*
X180020Y37409D01*
X179923Y37467D01*
X179824Y37522D01*
X179723Y37573D01*
X179620Y37621D01*
X179516Y37666D01*
X179410Y37706D01*
X179303Y37743D01*
X179195Y37776D01*
X179085Y37806D01*
X178975Y37831D01*
X178864Y37853D01*
X178752Y37870D01*
X178639Y37884D01*
X178526Y37894D01*
X178413Y37900D01*
X178300Y37902D01*
X178187Y37900D01*
X178074Y37894D01*
X177961Y37884D01*
X177848Y37870D01*
X177736Y37853D01*
X177625Y37831D01*
X177515Y37806D01*
X177405Y37776D01*
X177297Y37743D01*
X177190Y37706D01*
X177084Y37666D01*
X176980Y37621D01*
X176877Y37573D01*
X176776Y37522D01*
X176677Y37467D01*
X176580Y37409D01*
X176485Y37347D01*
X176392Y37282D01*
X176302Y37214D01*
X176214Y37143D01*
X176128Y37068D01*
X176045Y36991D01*
X175965Y36911D01*
X175888Y36828D01*
X175813Y36742D01*
X175742Y36654D01*
X175674Y36564D01*
X175609Y36471D01*
X175547Y36376D01*
X175489Y36279D01*
X175434Y36180D01*
X175383Y36079D01*
X175335Y35976D01*
X175290Y35872D01*
X175250Y35766D01*
X175213Y35659D01*
X175180Y35551D01*
X175150Y35441D01*
X175125Y35331D01*
X175103Y35220D01*
X175086Y35108D01*
X175072Y34995D01*
X175062Y34882D01*
X175056Y34769D01*
X175054Y34656D01*
X175054Y29464D01*
X175056Y29351D01*
X175062Y29238D01*
X175072Y29125D01*
X175086Y29012D01*
X175103Y28900D01*
X175125Y28789D01*
X175150Y28679D01*
X175180Y28569D01*
X175213Y28461D01*
X175250Y28354D01*
X175290Y28248D01*
X175335Y28144D01*
X175383Y28041D01*
X175434Y27940D01*
X175489Y27841D01*
X175547Y27744D01*
X175609Y27649D01*
X175674Y27556D01*
X175742Y27466D01*
X175813Y27378D01*
X175888Y27292D01*
X175965Y27209D01*
X176045Y27129D01*
X176128Y27052D01*
X176214Y26977D01*
X176302Y26906D01*
X176392Y26838D01*
X176485Y26773D01*
X176580Y26711D01*
X176677Y26653D01*
X176776Y26598D01*
X176877Y26547D01*
X176980Y26499D01*
X177084Y26454D01*
X177190Y26414D01*
X177297Y26377D01*
X177405Y26344D01*
X177515Y26314D01*
X177625Y26289D01*
X177736Y26267D01*
X177848Y26250D01*
X177961Y26236D01*
X178074Y26226D01*
X178187Y26220D01*
X178300Y26218D01*
X178413Y26220D01*
X178526Y26226D01*
X178639Y26236D01*
X178752Y26250D01*
X178864Y26267D01*
X178975Y26289D01*
X179085Y26314D01*
X179195Y26344D01*
X179303Y26377D01*
X179410Y26414D01*
X179516Y26454D01*
X179620Y26499D01*
X179723Y26547D01*
X179824Y26598D01*
X179923Y26653D01*
X180020Y26711D01*
X180115Y26773D01*
X180208Y26838D01*
X180298Y26906D01*
X180386Y26977D01*
X180472Y27052D01*
X180555Y27129D01*
X180635Y27209D01*
X180712Y27292D01*
X180787Y27378D01*
X180858Y27466D01*
X180926Y27556D01*
X180991Y27649D01*
X181053Y27744D01*
X181111Y27841D01*
X181166Y27940D01*
X181217Y28041D01*
X181265Y28144D01*
X181310Y28248D01*
X181350Y28354D01*
X181387Y28461D01*
X181420Y28569D01*
X181450Y28679D01*
X181475Y28789D01*
X181497Y28900D01*
X181514Y29012D01*
X181528Y29125D01*
X181538Y29238D01*
X181544Y29351D01*
X181546Y29464D01*
X167632Y26218D02*
X167632Y37902D01*
X170877Y37902D02*
X164386Y37902D01*
X159806Y26218D02*
X154613Y26218D01*
X159806Y26218D02*
X159806Y37902D01*
X154613Y37902D01*
X155911Y32709D02*
X159806Y32709D01*
X147740Y26218D02*
X145144Y26218D01*
X147740Y26218D02*
X147839Y26220D01*
X147939Y26226D01*
X148038Y26235D01*
X148136Y26248D01*
X148234Y26265D01*
X148332Y26286D01*
X148428Y26311D01*
X148523Y26339D01*
X148617Y26371D01*
X148710Y26406D01*
X148802Y26445D01*
X148892Y26488D01*
X148980Y26533D01*
X149067Y26583D01*
X149151Y26635D01*
X149234Y26691D01*
X149314Y26749D01*
X149392Y26811D01*
X149467Y26876D01*
X149540Y26944D01*
X149610Y27014D01*
X149678Y27087D01*
X149743Y27162D01*
X149805Y27240D01*
X149863Y27320D01*
X149919Y27403D01*
X149971Y27487D01*
X150021Y27574D01*
X150066Y27662D01*
X150109Y27752D01*
X150148Y27844D01*
X150183Y27937D01*
X150215Y28031D01*
X150243Y28126D01*
X150268Y28222D01*
X150289Y28320D01*
X150306Y28418D01*
X150319Y28516D01*
X150328Y28615D01*
X150334Y28715D01*
X150336Y28814D01*
X150337Y28814D02*
X150337Y35306D01*
X150336Y35306D02*
X150334Y35405D01*
X150328Y35505D01*
X150319Y35604D01*
X150306Y35702D01*
X150289Y35800D01*
X150268Y35898D01*
X150243Y35994D01*
X150215Y36089D01*
X150183Y36183D01*
X150148Y36276D01*
X150109Y36368D01*
X150066Y36458D01*
X150021Y36546D01*
X149971Y36633D01*
X149919Y36717D01*
X149863Y36800D01*
X149805Y36880D01*
X149743Y36958D01*
X149678Y37033D01*
X149610Y37106D01*
X149540Y37176D01*
X149467Y37244D01*
X149392Y37309D01*
X149314Y37371D01*
X149234Y37429D01*
X149151Y37485D01*
X149067Y37537D01*
X148980Y37587D01*
X148892Y37632D01*
X148802Y37675D01*
X148710Y37714D01*
X148617Y37749D01*
X148523Y37781D01*
X148428Y37809D01*
X148332Y37834D01*
X148234Y37855D01*
X148136Y37872D01*
X148038Y37885D01*
X147939Y37894D01*
X147839Y37900D01*
X147740Y37902D01*
X145144Y37902D01*
X140397Y37902D02*
X140397Y26218D01*
X140397Y32709D02*
X133906Y32709D01*
X133906Y37902D02*
X133906Y26218D01*
D16*
X814946Y209894D03*
X814946Y255106D03*
D17*
X790054Y197448D03*
X790054Y267552D03*
D13*
X789880Y652500D02*
X805120Y652500D01*
X805120Y627500D02*
X789880Y627500D01*
X789880Y602500D02*
X805120Y602500D01*
X805120Y777500D02*
X789880Y777500D01*
X789880Y752500D02*
X805120Y752500D01*
X805120Y727500D02*
X789880Y727500D01*
X789880Y902500D02*
X805120Y902500D01*
X805120Y877500D02*
X789880Y877500D01*
X789880Y852500D02*
X805120Y852500D01*
D18*
X634600Y887300D03*
X634600Y912700D03*
X660000Y887300D03*
X660000Y912700D03*
X685400Y887300D03*
X685400Y912700D03*
D19*
X569704Y920000D02*
X556496Y920000D01*
X493504Y920000D02*
X480296Y920000D01*
D20*
X59525Y511550D02*
X40475Y511550D01*
X40475Y473450D02*
X59525Y473450D01*
X59525Y413700D02*
X40475Y413700D01*
X40475Y375600D02*
X59525Y375600D01*
X59525Y337500D02*
X40475Y337500D01*
X40475Y299400D02*
X59525Y299400D01*
X59525Y261300D02*
X40475Y261300D01*
X40475Y203700D02*
X59525Y203700D01*
X59525Y165600D02*
X40475Y165600D01*
X40475Y127500D02*
X59525Y127500D01*
X59525Y89400D02*
X40475Y89400D01*
X40475Y51300D02*
X59525Y51300D01*
X59525Y913950D02*
X40475Y913950D01*
X40475Y875850D02*
X59525Y875850D01*
X59525Y837750D02*
X40475Y837750D01*
X40475Y799650D02*
X59525Y799650D01*
X59525Y761550D02*
X40475Y761550D01*
X40475Y723450D02*
X59525Y723450D01*
X59525Y685350D02*
X40475Y685350D01*
X40475Y647250D02*
X59525Y647250D01*
X59525Y609150D02*
X40475Y609150D01*
X40475Y571050D02*
X59525Y571050D01*
D21*
X405200Y348800D03*
X379800Y348800D03*
X405200Y374200D03*
X379800Y374200D03*
X405200Y399600D03*
X379800Y399600D03*
X405200Y425000D03*
X379800Y425000D03*
X405200Y450400D03*
X379800Y450400D03*
X405200Y475800D03*
X379800Y475800D03*
X405200Y501200D03*
X379800Y501200D03*
D22*
X559234Y706186D02*
X559234Y771498D01*
X559234Y706186D02*
X621485Y643936D01*
X621750Y643625D01*
X580665Y772519D02*
X559234Y772519D01*
X559234Y771498D01*
X580665Y772519D02*
X601075Y772519D01*
X722514Y524537D02*
X741904Y505148D01*
X741904Y459225D01*
X723535Y440856D01*
X722514Y524537D02*
X722500Y525200D01*
X723535Y440856D02*
X722700Y440650D01*
X602095Y469430D02*
X542906Y469430D01*
X602095Y469430D02*
X663325Y408200D01*
X664300Y407600D01*
X698022Y440856D02*
X721494Y440856D01*
X698022Y440856D02*
X665366Y408200D01*
X721494Y440856D02*
X722700Y440650D01*
X665366Y408200D02*
X664300Y407600D01*
X722514Y439836D02*
X722514Y286761D01*
X722700Y285750D01*
X722514Y439836D02*
X722700Y440650D01*
X798031Y653120D02*
X798031Y704145D01*
X816400Y722514D01*
X816400Y758232D01*
X798031Y776601D01*
X798031Y653120D02*
X797500Y652500D01*
X798031Y776601D02*
X797500Y777500D01*
X798031Y900081D02*
X798031Y902122D01*
X798031Y900081D02*
X816400Y881712D01*
X816400Y797011D01*
X798031Y778642D01*
X798031Y902122D02*
X797500Y902500D01*
X798031Y778642D02*
X797500Y777500D01*
X809257Y321458D02*
X809257Y310232D01*
X818441Y301048D01*
X818441Y258187D01*
X815380Y255125D01*
X809257Y321458D02*
X808400Y322350D01*
X814946Y255106D02*
X815380Y255125D01*
X808236Y323499D02*
X808236Y403098D01*
X808400Y404050D01*
X808236Y323499D02*
X808400Y322350D01*
X818441Y631690D02*
X798031Y652100D01*
X818441Y631690D02*
X818441Y415344D01*
X808236Y405139D01*
X798031Y652100D02*
X797500Y652500D01*
X808236Y405139D02*
X808400Y404050D01*
X516373Y70415D02*
X516373Y50005D01*
X516373Y70415D02*
X516373Y174506D01*
X296966Y575562D02*
X296966Y583726D01*
X290843Y589849D01*
X345950Y367380D02*
X346970Y367380D01*
X345950Y367380D02*
X269412Y367380D01*
X346970Y367380D02*
X365339Y385749D01*
X393913Y385749D01*
X405139Y374524D01*
X405200Y374200D01*
X177567Y401057D02*
X177567Y409221D01*
X177567Y401057D02*
X174506Y397995D01*
X174506Y391872D01*
X181649Y384729D01*
X251043Y384729D01*
X268392Y367380D01*
X269412Y367380D01*
X296966Y571480D02*
X296966Y575562D01*
X296966Y571480D02*
X163280Y437795D01*
X163280Y413303D01*
X167362Y409221D01*
X177567Y409221D01*
X516373Y189813D02*
X516373Y174506D01*
X516373Y189813D02*
X345950Y360237D01*
X345950Y367380D01*
X88784Y511271D02*
X50005Y511271D01*
X88784Y511271D02*
X162260Y437795D01*
X50005Y511271D02*
X50000Y511550D01*
X162260Y437795D02*
X163280Y437795D01*
X501066Y469430D02*
X542906Y469430D01*
X501066Y469430D02*
X406159Y374524D01*
X405200Y374200D01*
D23*
X559234Y771498D03*
X580665Y772519D03*
X601075Y772519D03*
X542906Y469430D03*
X516373Y50005D03*
X516373Y70415D03*
X516373Y174506D03*
X296966Y575562D03*
X290843Y589849D03*
X269412Y367380D03*
X177567Y409221D03*
D24*
X694961Y798031D02*
X694961Y818441D01*
X699043Y822523D01*
X699043Y858241D01*
X671489Y885794D01*
X671489Y901102D01*
X660264Y912327D01*
X660000Y912700D01*
X463307Y485758D02*
X463307Y471471D01*
X463307Y485758D02*
X460246Y488820D01*
X552091Y650059D02*
X552091Y820482D01*
X632710Y901102D01*
X648018Y901102D01*
X659243Y912327D01*
X660000Y912700D01*
D23*
X694961Y798031D03*
X463307Y471471D03*
X460246Y488820D03*
X552091Y650059D03*
D24*
X581685Y748027D02*
X592911Y748027D01*
X581685Y748027D02*
X571480Y737822D01*
X571480Y718432D01*
X392893Y457184D02*
X392893Y437795D01*
X380647Y425549D01*
X379800Y425000D01*
D23*
X592911Y748027D03*
X571480Y718432D03*
X392893Y457184D03*
D24*
X735781Y702104D02*
X735781Y706186D01*
X735781Y702104D02*
X778642Y659243D01*
X778642Y503107D01*
X790888Y490861D01*
X790888Y414323D01*
X715371Y414323D02*
X684756Y414323D01*
X662305Y391872D01*
X621485Y391872D01*
X612300Y382688D01*
X429631Y382688D01*
X410241Y363298D01*
X353093Y363298D01*
D23*
X735781Y706186D03*
X790888Y414323D03*
X715371Y414323D03*
X353093Y363298D03*
D24*
X706186Y753129D02*
X706186Y817421D01*
X707207Y818441D01*
X707207Y880692D01*
X686797Y901102D01*
X681694Y901102D01*
X671489Y911307D01*
X671489Y916409D01*
X664346Y923553D01*
X629649Y923553D01*
X499025Y792929D01*
X499025Y635772D01*
X368401Y505148D01*
X368401Y471471D01*
X375544Y464328D01*
X407180Y464328D01*
X416364Y455143D01*
X416364Y445959D01*
X406159Y435754D01*
X400036Y435754D01*
X393913Y429631D01*
X393913Y420446D01*
X404118Y410241D01*
X410241Y410241D01*
X416364Y404118D01*
X416364Y394934D01*
X410241Y388811D01*
X397995Y388811D01*
X387790Y399016D01*
X380647Y399016D01*
X379800Y399600D01*
D23*
X706186Y753129D03*
D24*
X680674Y866405D02*
X660264Y886815D01*
X660000Y887300D01*
D23*
X680674Y866405D03*
D24*
X671489Y795990D02*
X671489Y786806D01*
X671489Y795990D02*
X634751Y832728D01*
X634751Y886815D01*
X634600Y887300D01*
X618423Y394934D02*
X492902Y394934D01*
X618423Y394934D02*
X635772Y412282D01*
X656182Y432692D02*
X656182Y487799D01*
X704145Y535763D01*
X704145Y610259D01*
X710268Y616382D01*
X710268Y673530D01*
X667407Y716391D01*
X667407Y782724D01*
X671489Y786806D01*
D23*
X671489Y786806D03*
X492902Y394934D03*
X635772Y412282D03*
X656182Y432692D03*
D24*
X454123Y358196D02*
X454123Y350032D01*
X454123Y358196D02*
X460246Y364319D01*
X689858Y706186D02*
X689858Y722514D01*
X689858Y706186D02*
X740883Y655161D01*
X740883Y545968D01*
X731699Y536783D01*
X711289Y536783D01*
X671489Y496984D01*
X671489Y492902D01*
D23*
X454123Y350032D03*
X460246Y364319D03*
X689858Y722514D03*
X671489Y492902D03*
D24*
X695981Y630669D02*
X703125Y630669D01*
X695981Y630669D02*
X682715Y617403D01*
X682715Y614341D01*
X544947Y476574D01*
X478615Y476574D01*
X427590Y425549D01*
X406159Y425549D01*
X405200Y425000D01*
D23*
X703125Y630669D03*
D22*
X619444Y920491D02*
X563316Y920491D01*
X619444Y920491D02*
X627608Y928655D01*
X721494Y928655D01*
X797011Y853138D01*
X563316Y920491D02*
X563100Y920000D01*
X797011Y853138D02*
X797500Y852500D01*
X797011Y729658D02*
X797011Y727617D01*
X797011Y729658D02*
X778642Y748027D01*
X778642Y833749D01*
X797011Y852118D01*
X797011Y727617D02*
X797500Y727500D01*
X797011Y852118D02*
X797500Y852500D01*
X511271Y347991D02*
X462287Y347991D01*
X511271Y347991D02*
X537804Y347991D01*
X462287Y347991D02*
X452082Y337786D01*
X390852Y337786D01*
X380647Y347991D01*
X379800Y348800D01*
X195936Y409221D02*
X181649Y394934D01*
X511271Y375544D02*
X511271Y347991D01*
X697002Y535763D02*
X697002Y617403D01*
X697002Y535763D02*
X649038Y487799D01*
X649038Y460246D01*
X697002Y617403D02*
X697950Y618225D01*
D23*
X537804Y347991D03*
X181649Y394934D03*
X195936Y409221D03*
X511271Y375544D03*
X649038Y460246D03*
D24*
X618423Y324519D02*
X588829Y324519D01*
X618423Y324519D02*
X663325Y369421D01*
X688838Y369421D01*
X689700Y369600D01*
D23*
X588829Y324519D03*
D24*
X576583Y326560D02*
X574542Y326560D01*
X576583Y326560D02*
X585767Y317376D01*
X646997Y317376D01*
X648018Y318396D01*
X688838Y318396D01*
X689700Y318800D01*
X572501Y328601D02*
X572501Y341868D01*
X572501Y328601D02*
X574542Y326560D01*
D23*
X574542Y326560D03*
X572501Y341868D03*
D24*
X651079Y311253D02*
X682715Y311253D01*
X685776Y308191D01*
X692920Y308191D01*
X700063Y315335D01*
X700063Y373503D01*
X691899Y381667D01*
X664346Y381667D01*
X664300Y382200D01*
X636792Y355134D02*
X523517Y355134D01*
X636792Y355134D02*
X663325Y381667D01*
X664300Y382200D01*
D23*
X651079Y311253D03*
X523517Y355134D03*
D24*
X590870Y688838D02*
X564337Y715371D01*
X564337Y762314D01*
X566378Y764355D01*
X814359Y239818D02*
X814359Y210223D01*
X814359Y239818D02*
X804154Y250023D01*
X804154Y261248D01*
X805175Y262269D01*
X805175Y285740D01*
X783744Y307171D01*
X783744Y491881D01*
X744965Y530660D01*
X744965Y686797D01*
X699043Y732719D01*
X699043Y791908D01*
X702104Y794970D01*
X702104Y819462D01*
X703125Y820482D01*
X703125Y869466D01*
X685776Y886815D01*
X814359Y210223D02*
X814946Y209894D01*
X685776Y886815D02*
X685400Y887300D01*
D23*
X590870Y688838D03*
X566378Y764355D03*
D24*
X587808Y713330D02*
X605157Y695981D01*
X372483Y416364D02*
X170424Y416364D01*
X372483Y416364D02*
X378606Y410241D01*
X394934Y410241D01*
X405139Y400036D01*
X405200Y399600D01*
D23*
X587808Y713330D03*
X605157Y695981D03*
X170424Y416364D03*
D24*
X595972Y724555D02*
X612300Y724555D01*
X618423Y718432D01*
D23*
X595972Y724555D03*
X618423Y718432D03*
D24*
X674551Y719453D02*
X674551Y715371D01*
X721494Y668428D01*
X721494Y551070D01*
X722500Y550600D01*
D23*
X674551Y719453D03*
D24*
X638833Y757211D02*
X638833Y676592D01*
X658223Y657202D01*
X640874Y587808D02*
X636792Y587808D01*
X544947Y495963D01*
X425549Y495963D01*
X406159Y476574D01*
X405200Y475800D01*
D23*
X638833Y757211D03*
X658223Y657202D03*
X640874Y587808D03*
D24*
X629649Y675571D02*
X629649Y733740D01*
X629649Y675571D02*
X657202Y648018D01*
X657202Y639854D01*
X645977Y628628D01*
X643936Y628628D01*
X631690Y616382D01*
X631690Y614341D01*
X529640Y512291D01*
X401057Y512291D01*
X390852Y502086D01*
X390852Y486779D01*
X380647Y476574D01*
X379800Y475800D01*
D23*
X629649Y733740D03*
D24*
X523517Y218387D02*
X523517Y119399D01*
D23*
X523517Y119399D03*
X523517Y218387D03*
D24*
X520455Y833749D02*
X520455Y886815D01*
X487799Y919471D01*
X486900Y920000D01*
X601075Y745986D02*
X627608Y745986D01*
X601075Y745986D02*
X589849Y734760D01*
X578624Y734760D01*
D23*
X520455Y833749D03*
X627608Y745986D03*
X578624Y734760D03*
D24*
X672510Y642915D02*
X672510Y632710D01*
X657202Y617403D01*
X657202Y614341D01*
X544947Y502086D01*
X406159Y502086D01*
X672510Y642915D02*
X672550Y643625D01*
X406159Y502086D02*
X405200Y501200D01*
X638833Y642915D02*
X646997Y642915D01*
X638833Y642915D02*
X624546Y628628D01*
X507189Y628628D01*
X380647Y502086D01*
X646997Y642915D02*
X647150Y643625D01*
X380647Y502086D02*
X379800Y501200D01*
X172465Y173485D02*
X138788Y139809D01*
D23*
X138788Y139809D03*
X172465Y173485D03*
D24*
X142870Y330642D02*
X189813Y377585D01*
D23*
X142870Y330642D03*
X189813Y377585D03*
D24*
X259207Y300027D02*
X284720Y300027D01*
X259207Y300027D02*
X233695Y274515D01*
X193895Y274515D01*
X193895Y350032D01*
X193895Y274515D02*
X191854Y274515D01*
D23*
X284720Y300027D03*
X191854Y274515D03*
X193895Y350032D03*
D24*
X167362Y313294D02*
X128583Y313294D01*
X167872Y313804D02*
X186752Y332683D01*
X167872Y313804D02*
X167362Y313294D01*
X168383Y313294D02*
X168383Y255125D01*
X168383Y313294D02*
X167872Y313804D01*
X250023Y304109D02*
X253084Y304109D01*
X250023Y304109D02*
X196957Y357175D01*
X190834Y357175D01*
X186752Y353093D01*
X186752Y332683D01*
D23*
X128583Y313294D03*
X186752Y332683D03*
X168383Y255125D03*
X253084Y304109D03*
D24*
X238797Y166342D02*
X205121Y166342D01*
X242879Y170424D02*
X284720Y170424D01*
X242879Y170424D02*
X238797Y166342D01*
X244920Y350032D02*
X216346Y350032D01*
X244920Y350032D02*
X291863Y303089D01*
X291863Y177567D01*
X284720Y170424D01*
D23*
X205121Y166342D03*
X238797Y166342D03*
X284720Y170424D03*
X216346Y350032D03*
D24*
X221449Y159198D02*
X195936Y159198D01*
X221449Y159198D02*
X261248Y119399D01*
X223490Y377585D02*
X216346Y377585D01*
X223490Y377585D02*
X314314Y286761D01*
X314314Y60210D01*
X310232Y56128D01*
X304109Y56128D01*
X273494Y86743D01*
X273494Y107153D01*
X261248Y119399D01*
D23*
X195936Y159198D03*
X261248Y119399D03*
X216346Y377585D03*
D24*
X124501Y142870D02*
X170424Y96948D01*
X262269Y96948D01*
X203080Y377585D02*
X200018Y377585D01*
X142870Y320437D01*
X125522Y320437D01*
X121440Y316355D01*
X121440Y145932D01*
X124501Y142870D01*
D23*
X124501Y142870D03*
X262269Y96948D03*
X203080Y377585D03*
D24*
X126542Y134706D02*
X118378Y134706D01*
X126542Y134706D02*
X184711Y76538D01*
X261248Y76538D01*
X186752Y279617D02*
X186752Y322478D01*
X186752Y279617D02*
X184711Y277576D01*
X184711Y160219D01*
X240838Y104091D01*
X265330Y104091D01*
X269412Y100009D01*
X269412Y84702D01*
X261248Y76538D01*
D23*
X118378Y134706D03*
X261248Y76538D03*
X186752Y322478D03*
D22*
X491881Y766396D02*
X491881Y794970D01*
X502086Y805175D01*
X502086Y835790D01*
X202059Y618423D02*
X187772Y618423D01*
X202059Y618423D02*
X207162Y623526D01*
X432692Y904163D02*
X501066Y835790D01*
X502086Y835790D01*
D23*
X491881Y766396D03*
X502086Y835790D03*
X187772Y618423D03*
X207162Y623526D03*
X432692Y904163D03*
D22*
X234715Y790888D02*
X134706Y790888D01*
X50005Y875589D01*
X50000Y875850D01*
X310232Y880692D02*
X310232Y867425D01*
X234715Y791908D01*
X234715Y790888D01*
X374524Y808236D02*
X494943Y808236D01*
X374524Y808236D02*
X315335Y867425D01*
X310232Y867425D01*
D23*
X234715Y790888D03*
X310232Y880692D03*
X494943Y808236D03*
D24*
X186752Y608218D02*
X129604Y665366D01*
X157157Y691899D02*
X157157Y726596D01*
X157157Y691899D02*
X130624Y665366D01*
X129604Y665366D01*
D23*
X186752Y608218D03*
X129604Y665366D03*
X157157Y726596D03*
D24*
X167362Y750068D02*
X167362Y679653D01*
X167362Y750068D02*
X157157Y760273D01*
D23*
X167362Y679653D03*
X157157Y760273D03*
D24*
X187772Y758232D02*
X187772Y681694D01*
X187772Y758232D02*
X188793Y759252D01*
D23*
X187772Y681694D03*
X188793Y759252D03*
D24*
X439836Y690879D02*
X479635Y690879D01*
D23*
X479635Y690879D03*
X439836Y690879D03*
D24*
X440856Y654141D02*
X469430Y654141D01*
X403098Y691899D02*
X284720Y691899D01*
X403098Y691899D02*
X440856Y654141D01*
D23*
X469430Y654141D03*
X440856Y654141D03*
X284720Y691899D03*
D24*
X301048Y655161D02*
X389831Y655161D01*
D23*
X301048Y655161D03*
X389831Y655161D03*
D24*
X188793Y588829D02*
X188793Y511271D01*
X188793Y588829D02*
X273494Y673530D01*
X273494Y727617D01*
X352073Y806195D01*
X352073Y820482D01*
D23*
X188793Y511271D03*
X352073Y820482D03*
D24*
X181649Y587808D02*
X181649Y493922D01*
X181649Y587808D02*
X269412Y675571D01*
X269412Y733740D01*
X319417Y783744D01*
D23*
X181649Y493922D03*
X319417Y783744D03*
D24*
X277576Y701084D02*
X277576Y589849D01*
X277576Y701084D02*
X351052Y774560D01*
D23*
X277576Y589849D03*
X351052Y774560D03*
D24*
X380647Y644956D02*
X280638Y544947D01*
D23*
X280638Y544947D03*
X380647Y644956D03*
D24*
X236756Y490861D02*
X228592Y490861D01*
X236756Y490861D02*
X376565Y630669D01*
D23*
X228592Y490861D03*
X376565Y630669D03*
D24*
X263289Y162260D02*
X263289Y127563D01*
X307171Y83681D01*
X307171Y63271D01*
D23*
X263289Y162260D03*
X307171Y63271D03*
M02*
