G04 EAGLE Gerber RS-274X export*
G75*
%MOMM*%
%FSLAX34Y34*%
%LPD*%
%INSilkscreen Bottom*%
%IPPOS*%
%AMOC8*
5,1,8,0,0,1.08239X$1,22.5*%
G01*
%ADD10C,0.127000*%
%ADD11C,0.152400*%
%ADD12R,12.954000X0.254000*%
%ADD13R,9.398000X0.254000*%
%ADD14R,13.462000X0.254000*%
%ADD15R,9.652000X0.254000*%
%ADD16R,8.382000X0.254000*%
%ADD17R,5.842000X0.254000*%
%ADD18R,2.540000X0.254000*%
%ADD19R,1.778000X0.254000*%
%ADD20R,0.254000X0.254000*%
%ADD21R,1.524000X0.254000*%
%ADD22R,3.810000X0.254000*%
%ADD23R,0.508000X0.254000*%
%ADD24R,2.794000X0.254000*%
%ADD25R,4.318000X0.254000*%
%ADD26R,7.366000X0.254000*%
%ADD27R,1.270000X0.254000*%
%ADD28R,3.556000X0.254000*%
%ADD29R,2.286000X0.254000*%
%ADD30R,6.858000X0.254000*%
%ADD31R,3.302000X0.254000*%
%ADD32R,2.032000X0.254000*%
%ADD33R,6.604000X0.254000*%
%ADD34R,1.016000X0.254000*%
%ADD35R,3.048000X0.254000*%
%ADD36R,7.112000X0.254000*%
%ADD37R,9.906000X0.254000*%
%ADD38R,0.762000X0.254000*%
%ADD39R,6.350000X0.254000*%
%ADD40R,4.572000X0.254000*%
%ADD41R,4.064000X0.254000*%
%ADD42R,7.874000X0.254000*%
%ADD43R,17.780000X0.254000*%
%ADD44R,29.972000X0.254000*%
%ADD45R,48.768000X0.254000*%
%ADD46R,4.826000X0.254000*%
%ADD47R,13.208000X0.254000*%
%ADD48R,5.080000X0.254000*%
%ADD49R,6.096000X0.254000*%
%ADD50R,55.626000X0.254000*%
%ADD51R,14.478000X0.254000*%
%ADD52R,26.162000X0.254000*%
%ADD53R,14.224000X0.254000*%
%ADD54R,25.146000X0.254000*%
%ADD55R,13.970000X0.254000*%
%ADD56R,24.638000X0.254000*%
%ADD57R,13.716000X0.254000*%
%ADD58R,23.622000X0.254000*%
%ADD59R,23.114000X0.254000*%
%ADD60R,22.098000X0.254000*%
%ADD61R,21.590000X0.254000*%
%ADD62R,12.700000X0.254000*%
%ADD63R,20.574000X0.254000*%
%ADD64R,12.446000X0.254000*%
%ADD65R,12.192000X0.254000*%
%ADD66R,11.938000X0.254000*%
%ADD67R,11.684000X0.254000*%
%ADD68R,11.430000X0.254000*%
%ADD69R,11.176000X0.254000*%
%ADD70R,10.922000X0.254000*%
%ADD71R,10.668000X0.254000*%
%ADD72R,10.414000X0.254000*%
%ADD73R,8.890000X0.254000*%
%ADD74R,5.334000X0.254000*%
%ADD75R,9.144000X0.254000*%
%ADD76R,7.620000X0.254000*%
%ADD77R,8.636000X0.254000*%
%ADD78R,24.130000X0.254000*%
%ADD79R,24.384000X0.254000*%
%ADD80R,24.892000X0.254000*%
%ADD81C,0.050800*%


D10*
X685143Y488629D02*
X685143Y473135D01*
X683422Y473135D02*
X686865Y473135D01*
X686865Y488629D02*
X683422Y488629D01*
X677555Y484325D02*
X677555Y477439D01*
X677555Y484325D02*
X677553Y484455D01*
X677547Y484585D01*
X677537Y484715D01*
X677524Y484844D01*
X677506Y484973D01*
X677485Y485101D01*
X677459Y485228D01*
X677430Y485355D01*
X677397Y485481D01*
X677360Y485605D01*
X677320Y485729D01*
X677275Y485851D01*
X677227Y485972D01*
X677176Y486091D01*
X677121Y486209D01*
X677062Y486325D01*
X677000Y486439D01*
X676934Y486552D01*
X676865Y486662D01*
X676793Y486770D01*
X676718Y486876D01*
X676639Y486979D01*
X676557Y487080D01*
X676473Y487179D01*
X676385Y487275D01*
X676294Y487368D01*
X676201Y487459D01*
X676105Y487547D01*
X676006Y487631D01*
X675905Y487713D01*
X675802Y487792D01*
X675696Y487867D01*
X675588Y487939D01*
X675478Y488008D01*
X675365Y488074D01*
X675251Y488136D01*
X675135Y488195D01*
X675017Y488250D01*
X674898Y488301D01*
X674777Y488349D01*
X674655Y488394D01*
X674531Y488434D01*
X674407Y488471D01*
X674281Y488504D01*
X674154Y488533D01*
X674027Y488559D01*
X673899Y488580D01*
X673770Y488598D01*
X673641Y488611D01*
X673511Y488621D01*
X673381Y488627D01*
X673251Y488629D01*
X673121Y488627D01*
X672991Y488621D01*
X672861Y488611D01*
X672732Y488598D01*
X672603Y488580D01*
X672475Y488559D01*
X672348Y488533D01*
X672221Y488504D01*
X672095Y488471D01*
X671971Y488434D01*
X671847Y488394D01*
X671725Y488349D01*
X671604Y488301D01*
X671485Y488250D01*
X671367Y488195D01*
X671251Y488136D01*
X671137Y488074D01*
X671024Y488008D01*
X670914Y487939D01*
X670806Y487867D01*
X670700Y487792D01*
X670597Y487713D01*
X670496Y487631D01*
X670397Y487547D01*
X670301Y487459D01*
X670208Y487368D01*
X670117Y487275D01*
X670029Y487179D01*
X669945Y487080D01*
X669863Y486979D01*
X669784Y486876D01*
X669709Y486770D01*
X669637Y486662D01*
X669568Y486552D01*
X669502Y486439D01*
X669440Y486325D01*
X669381Y486209D01*
X669326Y486091D01*
X669275Y485972D01*
X669227Y485851D01*
X669182Y485729D01*
X669142Y485605D01*
X669105Y485481D01*
X669072Y485355D01*
X669043Y485228D01*
X669017Y485101D01*
X668996Y484973D01*
X668978Y484844D01*
X668965Y484715D01*
X668955Y484585D01*
X668949Y484455D01*
X668947Y484325D01*
X668947Y477439D01*
X668949Y477309D01*
X668955Y477179D01*
X668965Y477049D01*
X668978Y476920D01*
X668996Y476791D01*
X669017Y476663D01*
X669043Y476536D01*
X669072Y476409D01*
X669105Y476283D01*
X669142Y476159D01*
X669182Y476035D01*
X669227Y475913D01*
X669275Y475792D01*
X669326Y475673D01*
X669381Y475555D01*
X669440Y475439D01*
X669502Y475325D01*
X669568Y475212D01*
X669637Y475102D01*
X669709Y474994D01*
X669784Y474888D01*
X669863Y474785D01*
X669945Y474684D01*
X670029Y474585D01*
X670117Y474489D01*
X670208Y474396D01*
X670301Y474305D01*
X670397Y474217D01*
X670496Y474133D01*
X670597Y474051D01*
X670700Y473972D01*
X670806Y473897D01*
X670914Y473825D01*
X671024Y473756D01*
X671137Y473690D01*
X671251Y473628D01*
X671367Y473569D01*
X671485Y473514D01*
X671604Y473463D01*
X671725Y473415D01*
X671847Y473370D01*
X671971Y473330D01*
X672095Y473293D01*
X672221Y473260D01*
X672348Y473231D01*
X672475Y473205D01*
X672603Y473184D01*
X672732Y473166D01*
X672861Y473153D01*
X672991Y473143D01*
X673121Y473137D01*
X673251Y473135D01*
X673381Y473137D01*
X673511Y473143D01*
X673641Y473153D01*
X673770Y473166D01*
X673899Y473184D01*
X674027Y473205D01*
X674154Y473231D01*
X674281Y473260D01*
X674407Y473293D01*
X674531Y473330D01*
X674655Y473370D01*
X674777Y473415D01*
X674898Y473463D01*
X675017Y473514D01*
X675135Y473569D01*
X675251Y473628D01*
X675365Y473690D01*
X675478Y473756D01*
X675588Y473825D01*
X675696Y473897D01*
X675802Y473972D01*
X675905Y474051D01*
X676006Y474133D01*
X676105Y474217D01*
X676201Y474305D01*
X676294Y474396D01*
X676385Y474489D01*
X676473Y474585D01*
X676557Y474684D01*
X676639Y474785D01*
X676718Y474888D01*
X676793Y474994D01*
X676865Y475102D01*
X676934Y475212D01*
X677000Y475325D01*
X677062Y475439D01*
X677121Y475555D01*
X677176Y475673D01*
X677227Y475792D01*
X677275Y475913D01*
X677320Y476035D01*
X677360Y476159D01*
X677397Y476283D01*
X677430Y476409D01*
X677459Y476536D01*
X677485Y476663D01*
X677506Y476791D01*
X677524Y476920D01*
X677537Y477049D01*
X677547Y477179D01*
X677553Y477309D01*
X677555Y477439D01*
X659376Y473135D02*
X659376Y488629D01*
X663680Y488629D02*
X655072Y488629D01*
X649113Y481743D02*
X644809Y481743D01*
X644679Y481741D01*
X644549Y481735D01*
X644419Y481725D01*
X644290Y481712D01*
X644161Y481694D01*
X644033Y481673D01*
X643906Y481647D01*
X643779Y481618D01*
X643653Y481585D01*
X643529Y481548D01*
X643405Y481508D01*
X643283Y481463D01*
X643162Y481415D01*
X643043Y481364D01*
X642925Y481309D01*
X642809Y481250D01*
X642695Y481188D01*
X642582Y481122D01*
X642472Y481053D01*
X642364Y480981D01*
X642258Y480906D01*
X642155Y480827D01*
X642054Y480745D01*
X641955Y480661D01*
X641859Y480573D01*
X641766Y480482D01*
X641675Y480389D01*
X641587Y480293D01*
X641503Y480194D01*
X641421Y480093D01*
X641342Y479990D01*
X641267Y479884D01*
X641195Y479776D01*
X641126Y479666D01*
X641060Y479553D01*
X640998Y479439D01*
X640939Y479323D01*
X640884Y479205D01*
X640833Y479086D01*
X640785Y478965D01*
X640740Y478843D01*
X640700Y478719D01*
X640663Y478595D01*
X640630Y478469D01*
X640601Y478342D01*
X640575Y478215D01*
X640554Y478087D01*
X640536Y477958D01*
X640523Y477829D01*
X640513Y477699D01*
X640507Y477569D01*
X640505Y477439D01*
X640507Y477309D01*
X640513Y477179D01*
X640523Y477049D01*
X640536Y476920D01*
X640554Y476791D01*
X640575Y476663D01*
X640601Y476536D01*
X640630Y476409D01*
X640663Y476283D01*
X640700Y476159D01*
X640740Y476035D01*
X640785Y475913D01*
X640833Y475792D01*
X640884Y475673D01*
X640939Y475555D01*
X640998Y475439D01*
X641060Y475325D01*
X641126Y475212D01*
X641195Y475102D01*
X641267Y474994D01*
X641342Y474888D01*
X641421Y474785D01*
X641503Y474684D01*
X641587Y474585D01*
X641675Y474489D01*
X641766Y474396D01*
X641859Y474305D01*
X641955Y474217D01*
X642054Y474133D01*
X642155Y474051D01*
X642258Y473972D01*
X642364Y473897D01*
X642472Y473825D01*
X642582Y473756D01*
X642695Y473690D01*
X642809Y473628D01*
X642925Y473569D01*
X643043Y473514D01*
X643162Y473463D01*
X643283Y473415D01*
X643405Y473370D01*
X643529Y473330D01*
X643653Y473293D01*
X643779Y473260D01*
X643906Y473231D01*
X644033Y473205D01*
X644161Y473184D01*
X644290Y473166D01*
X644419Y473153D01*
X644549Y473143D01*
X644679Y473137D01*
X644809Y473135D01*
X649113Y473135D01*
X649113Y488629D01*
X644809Y488629D01*
X644693Y488627D01*
X644577Y488621D01*
X644461Y488611D01*
X644345Y488598D01*
X644230Y488580D01*
X644116Y488559D01*
X644002Y488533D01*
X643890Y488504D01*
X643778Y488471D01*
X643668Y488434D01*
X643559Y488394D01*
X643451Y488350D01*
X643345Y488302D01*
X643241Y488251D01*
X643138Y488196D01*
X643037Y488138D01*
X642939Y488077D01*
X642842Y488012D01*
X642748Y487944D01*
X642656Y487873D01*
X642566Y487798D01*
X642479Y487721D01*
X642395Y487641D01*
X642314Y487558D01*
X642235Y487472D01*
X642159Y487384D01*
X642086Y487293D01*
X642017Y487200D01*
X641950Y487105D01*
X641887Y487007D01*
X641827Y486908D01*
X641771Y486806D01*
X641718Y486702D01*
X641668Y486597D01*
X641623Y486490D01*
X641580Y486382D01*
X641542Y486272D01*
X641507Y486161D01*
X641476Y486049D01*
X641449Y485936D01*
X641425Y485822D01*
X641406Y485707D01*
X641390Y485592D01*
X641378Y485476D01*
X641370Y485360D01*
X641366Y485244D01*
X641366Y485128D01*
X641370Y485012D01*
X641378Y484896D01*
X641390Y484780D01*
X641406Y484665D01*
X641425Y484550D01*
X641449Y484436D01*
X641476Y484323D01*
X641507Y484211D01*
X641542Y484100D01*
X641580Y483990D01*
X641623Y483882D01*
X641668Y483775D01*
X641718Y483670D01*
X641771Y483566D01*
X641827Y483465D01*
X641887Y483365D01*
X641950Y483267D01*
X642017Y483172D01*
X642086Y483079D01*
X642159Y482988D01*
X642235Y482900D01*
X642314Y482814D01*
X642395Y482731D01*
X642479Y482651D01*
X642566Y482574D01*
X642656Y482499D01*
X642748Y482428D01*
X642842Y482360D01*
X642939Y482295D01*
X643037Y482234D01*
X643138Y482176D01*
X643241Y482121D01*
X643345Y482070D01*
X643451Y482022D01*
X643559Y481978D01*
X643668Y481938D01*
X643778Y481901D01*
X643890Y481868D01*
X644002Y481839D01*
X644116Y481813D01*
X644230Y481792D01*
X644345Y481774D01*
X644461Y481761D01*
X644577Y481751D01*
X644693Y481745D01*
X644809Y481743D01*
X626319Y481743D02*
X622015Y481743D01*
X621885Y481741D01*
X621755Y481735D01*
X621625Y481725D01*
X621496Y481712D01*
X621367Y481694D01*
X621239Y481673D01*
X621112Y481647D01*
X620985Y481618D01*
X620859Y481585D01*
X620735Y481548D01*
X620611Y481508D01*
X620489Y481463D01*
X620368Y481415D01*
X620249Y481364D01*
X620131Y481309D01*
X620015Y481250D01*
X619901Y481188D01*
X619788Y481122D01*
X619678Y481053D01*
X619570Y480981D01*
X619464Y480906D01*
X619361Y480827D01*
X619260Y480745D01*
X619161Y480661D01*
X619065Y480573D01*
X618972Y480482D01*
X618881Y480389D01*
X618793Y480293D01*
X618709Y480194D01*
X618627Y480093D01*
X618548Y479990D01*
X618473Y479884D01*
X618401Y479776D01*
X618332Y479666D01*
X618266Y479553D01*
X618204Y479439D01*
X618145Y479323D01*
X618090Y479205D01*
X618039Y479086D01*
X617991Y478965D01*
X617946Y478843D01*
X617906Y478719D01*
X617869Y478595D01*
X617836Y478469D01*
X617807Y478342D01*
X617781Y478215D01*
X617760Y478087D01*
X617742Y477958D01*
X617729Y477829D01*
X617719Y477699D01*
X617713Y477569D01*
X617711Y477439D01*
X617713Y477309D01*
X617719Y477179D01*
X617729Y477049D01*
X617742Y476920D01*
X617760Y476791D01*
X617781Y476663D01*
X617807Y476536D01*
X617836Y476409D01*
X617869Y476283D01*
X617906Y476159D01*
X617946Y476035D01*
X617991Y475913D01*
X618039Y475792D01*
X618090Y475673D01*
X618145Y475555D01*
X618204Y475439D01*
X618266Y475325D01*
X618332Y475212D01*
X618401Y475102D01*
X618473Y474994D01*
X618548Y474888D01*
X618627Y474785D01*
X618709Y474684D01*
X618793Y474585D01*
X618881Y474489D01*
X618972Y474396D01*
X619065Y474305D01*
X619161Y474217D01*
X619260Y474133D01*
X619361Y474051D01*
X619464Y473972D01*
X619570Y473897D01*
X619678Y473825D01*
X619788Y473756D01*
X619901Y473690D01*
X620015Y473628D01*
X620131Y473569D01*
X620249Y473514D01*
X620368Y473463D01*
X620489Y473415D01*
X620611Y473370D01*
X620735Y473330D01*
X620859Y473293D01*
X620985Y473260D01*
X621112Y473231D01*
X621239Y473205D01*
X621367Y473184D01*
X621496Y473166D01*
X621625Y473153D01*
X621755Y473143D01*
X621885Y473137D01*
X622015Y473135D01*
X626319Y473135D01*
X626319Y488629D01*
X622015Y488629D01*
X621899Y488627D01*
X621783Y488621D01*
X621667Y488611D01*
X621551Y488598D01*
X621436Y488580D01*
X621322Y488559D01*
X621208Y488533D01*
X621096Y488504D01*
X620984Y488471D01*
X620874Y488434D01*
X620765Y488394D01*
X620657Y488350D01*
X620551Y488302D01*
X620447Y488251D01*
X620344Y488196D01*
X620243Y488138D01*
X620145Y488077D01*
X620048Y488012D01*
X619954Y487944D01*
X619862Y487873D01*
X619772Y487798D01*
X619685Y487721D01*
X619601Y487641D01*
X619520Y487558D01*
X619441Y487472D01*
X619365Y487384D01*
X619292Y487293D01*
X619223Y487200D01*
X619156Y487105D01*
X619093Y487007D01*
X619033Y486908D01*
X618977Y486806D01*
X618924Y486702D01*
X618874Y486597D01*
X618829Y486490D01*
X618786Y486382D01*
X618748Y486272D01*
X618713Y486161D01*
X618682Y486049D01*
X618655Y485936D01*
X618631Y485822D01*
X618612Y485707D01*
X618596Y485592D01*
X618584Y485476D01*
X618576Y485360D01*
X618572Y485244D01*
X618572Y485128D01*
X618576Y485012D01*
X618584Y484896D01*
X618596Y484780D01*
X618612Y484665D01*
X618631Y484550D01*
X618655Y484436D01*
X618682Y484323D01*
X618713Y484211D01*
X618748Y484100D01*
X618786Y483990D01*
X618829Y483882D01*
X618874Y483775D01*
X618924Y483670D01*
X618977Y483566D01*
X619033Y483465D01*
X619093Y483365D01*
X619156Y483267D01*
X619223Y483172D01*
X619292Y483079D01*
X619365Y482988D01*
X619441Y482900D01*
X619520Y482814D01*
X619601Y482731D01*
X619685Y482651D01*
X619772Y482574D01*
X619862Y482499D01*
X619954Y482428D01*
X620048Y482360D01*
X620145Y482295D01*
X620243Y482234D01*
X620344Y482176D01*
X620447Y482121D01*
X620551Y482070D01*
X620657Y482022D01*
X620765Y481978D01*
X620874Y481938D01*
X620984Y481901D01*
X621096Y481868D01*
X621208Y481839D01*
X621322Y481813D01*
X621436Y481792D01*
X621551Y481774D01*
X621667Y481761D01*
X621783Y481751D01*
X621899Y481745D01*
X622015Y481743D01*
X612145Y484325D02*
X612145Y477439D01*
X612145Y484325D02*
X612143Y484455D01*
X612137Y484585D01*
X612127Y484715D01*
X612114Y484844D01*
X612096Y484973D01*
X612075Y485101D01*
X612049Y485228D01*
X612020Y485355D01*
X611987Y485481D01*
X611950Y485605D01*
X611910Y485729D01*
X611865Y485851D01*
X611817Y485972D01*
X611766Y486091D01*
X611711Y486209D01*
X611652Y486325D01*
X611590Y486439D01*
X611524Y486552D01*
X611455Y486662D01*
X611383Y486770D01*
X611308Y486876D01*
X611229Y486979D01*
X611147Y487080D01*
X611063Y487179D01*
X610975Y487275D01*
X610884Y487368D01*
X610791Y487459D01*
X610695Y487547D01*
X610596Y487631D01*
X610495Y487713D01*
X610392Y487792D01*
X610286Y487867D01*
X610178Y487939D01*
X610068Y488008D01*
X609955Y488074D01*
X609841Y488136D01*
X609725Y488195D01*
X609607Y488250D01*
X609488Y488301D01*
X609367Y488349D01*
X609245Y488394D01*
X609121Y488434D01*
X608997Y488471D01*
X608871Y488504D01*
X608744Y488533D01*
X608617Y488559D01*
X608489Y488580D01*
X608360Y488598D01*
X608231Y488611D01*
X608101Y488621D01*
X607971Y488627D01*
X607841Y488629D01*
X607711Y488627D01*
X607581Y488621D01*
X607451Y488611D01*
X607322Y488598D01*
X607193Y488580D01*
X607065Y488559D01*
X606938Y488533D01*
X606811Y488504D01*
X606685Y488471D01*
X606561Y488434D01*
X606437Y488394D01*
X606315Y488349D01*
X606194Y488301D01*
X606075Y488250D01*
X605957Y488195D01*
X605841Y488136D01*
X605727Y488074D01*
X605614Y488008D01*
X605504Y487939D01*
X605396Y487867D01*
X605290Y487792D01*
X605187Y487713D01*
X605086Y487631D01*
X604987Y487547D01*
X604891Y487459D01*
X604798Y487368D01*
X604707Y487275D01*
X604619Y487179D01*
X604535Y487080D01*
X604453Y486979D01*
X604374Y486876D01*
X604299Y486770D01*
X604227Y486662D01*
X604158Y486552D01*
X604092Y486439D01*
X604030Y486325D01*
X603971Y486209D01*
X603916Y486091D01*
X603865Y485972D01*
X603817Y485851D01*
X603772Y485729D01*
X603732Y485605D01*
X603695Y485481D01*
X603662Y485355D01*
X603633Y485228D01*
X603607Y485101D01*
X603586Y484973D01*
X603568Y484844D01*
X603555Y484715D01*
X603545Y484585D01*
X603539Y484455D01*
X603537Y484325D01*
X603538Y484325D02*
X603538Y477439D01*
X603537Y477439D02*
X603539Y477309D01*
X603545Y477179D01*
X603555Y477049D01*
X603568Y476920D01*
X603586Y476791D01*
X603607Y476663D01*
X603633Y476536D01*
X603662Y476409D01*
X603695Y476283D01*
X603732Y476159D01*
X603772Y476035D01*
X603817Y475913D01*
X603865Y475792D01*
X603916Y475673D01*
X603971Y475555D01*
X604030Y475439D01*
X604092Y475325D01*
X604158Y475212D01*
X604227Y475102D01*
X604299Y474994D01*
X604374Y474888D01*
X604453Y474785D01*
X604535Y474684D01*
X604619Y474585D01*
X604707Y474489D01*
X604798Y474396D01*
X604891Y474305D01*
X604987Y474217D01*
X605086Y474133D01*
X605187Y474051D01*
X605290Y473972D01*
X605396Y473897D01*
X605504Y473825D01*
X605614Y473756D01*
X605727Y473690D01*
X605841Y473628D01*
X605957Y473569D01*
X606075Y473514D01*
X606194Y473463D01*
X606315Y473415D01*
X606437Y473370D01*
X606561Y473330D01*
X606685Y473293D01*
X606811Y473260D01*
X606938Y473231D01*
X607065Y473205D01*
X607193Y473184D01*
X607322Y473166D01*
X607451Y473153D01*
X607581Y473143D01*
X607711Y473137D01*
X607841Y473135D01*
X607971Y473137D01*
X608101Y473143D01*
X608231Y473153D01*
X608360Y473166D01*
X608489Y473184D01*
X608617Y473205D01*
X608744Y473231D01*
X608871Y473260D01*
X608997Y473293D01*
X609121Y473330D01*
X609245Y473370D01*
X609367Y473415D01*
X609488Y473463D01*
X609607Y473514D01*
X609725Y473569D01*
X609841Y473628D01*
X609955Y473690D01*
X610068Y473756D01*
X610178Y473825D01*
X610286Y473897D01*
X610392Y473972D01*
X610495Y474051D01*
X610596Y474133D01*
X610695Y474217D01*
X610791Y474305D01*
X610884Y474396D01*
X610975Y474489D01*
X611063Y474585D01*
X611147Y474684D01*
X611229Y474785D01*
X611308Y474888D01*
X611383Y474994D01*
X611455Y475102D01*
X611524Y475212D01*
X611590Y475325D01*
X611652Y475439D01*
X611711Y475555D01*
X611766Y475673D01*
X611817Y475792D01*
X611865Y475913D01*
X611910Y476035D01*
X611950Y476159D01*
X611987Y476283D01*
X612020Y476409D01*
X612049Y476536D01*
X612075Y476663D01*
X612096Y476791D01*
X612114Y476920D01*
X612127Y477049D01*
X612137Y477179D01*
X612143Y477309D01*
X612145Y477439D01*
X593967Y473135D02*
X593967Y488629D01*
X598271Y488629D02*
X589663Y488629D01*
X657643Y503135D02*
X657643Y518629D01*
X659365Y503135D02*
X655922Y503135D01*
X655922Y518629D02*
X659365Y518629D01*
X650055Y514325D02*
X650055Y507439D01*
X650055Y514325D02*
X650053Y514455D01*
X650047Y514585D01*
X650037Y514715D01*
X650024Y514844D01*
X650006Y514973D01*
X649985Y515101D01*
X649959Y515228D01*
X649930Y515355D01*
X649897Y515481D01*
X649860Y515605D01*
X649820Y515729D01*
X649775Y515851D01*
X649727Y515972D01*
X649676Y516091D01*
X649621Y516209D01*
X649562Y516325D01*
X649500Y516439D01*
X649434Y516552D01*
X649365Y516662D01*
X649293Y516770D01*
X649218Y516876D01*
X649139Y516979D01*
X649057Y517080D01*
X648973Y517179D01*
X648885Y517275D01*
X648794Y517368D01*
X648701Y517459D01*
X648605Y517547D01*
X648506Y517631D01*
X648405Y517713D01*
X648302Y517792D01*
X648196Y517867D01*
X648088Y517939D01*
X647978Y518008D01*
X647865Y518074D01*
X647751Y518136D01*
X647635Y518195D01*
X647517Y518250D01*
X647398Y518301D01*
X647277Y518349D01*
X647155Y518394D01*
X647031Y518434D01*
X646907Y518471D01*
X646781Y518504D01*
X646654Y518533D01*
X646527Y518559D01*
X646399Y518580D01*
X646270Y518598D01*
X646141Y518611D01*
X646011Y518621D01*
X645881Y518627D01*
X645751Y518629D01*
X645621Y518627D01*
X645491Y518621D01*
X645361Y518611D01*
X645232Y518598D01*
X645103Y518580D01*
X644975Y518559D01*
X644848Y518533D01*
X644721Y518504D01*
X644595Y518471D01*
X644471Y518434D01*
X644347Y518394D01*
X644225Y518349D01*
X644104Y518301D01*
X643985Y518250D01*
X643867Y518195D01*
X643751Y518136D01*
X643637Y518074D01*
X643524Y518008D01*
X643414Y517939D01*
X643306Y517867D01*
X643200Y517792D01*
X643097Y517713D01*
X642996Y517631D01*
X642897Y517547D01*
X642801Y517459D01*
X642708Y517368D01*
X642617Y517275D01*
X642529Y517179D01*
X642445Y517080D01*
X642363Y516979D01*
X642284Y516876D01*
X642209Y516770D01*
X642137Y516662D01*
X642068Y516552D01*
X642002Y516439D01*
X641940Y516325D01*
X641881Y516209D01*
X641826Y516091D01*
X641775Y515972D01*
X641727Y515851D01*
X641682Y515729D01*
X641642Y515605D01*
X641605Y515481D01*
X641572Y515355D01*
X641543Y515228D01*
X641517Y515101D01*
X641496Y514973D01*
X641478Y514844D01*
X641465Y514715D01*
X641455Y514585D01*
X641449Y514455D01*
X641447Y514325D01*
X641447Y507439D01*
X641449Y507309D01*
X641455Y507179D01*
X641465Y507049D01*
X641478Y506920D01*
X641496Y506791D01*
X641517Y506663D01*
X641543Y506536D01*
X641572Y506409D01*
X641605Y506283D01*
X641642Y506159D01*
X641682Y506035D01*
X641727Y505913D01*
X641775Y505792D01*
X641826Y505673D01*
X641881Y505555D01*
X641940Y505439D01*
X642002Y505325D01*
X642068Y505212D01*
X642137Y505102D01*
X642209Y504994D01*
X642284Y504888D01*
X642363Y504785D01*
X642445Y504684D01*
X642529Y504585D01*
X642617Y504489D01*
X642708Y504396D01*
X642801Y504305D01*
X642897Y504217D01*
X642996Y504133D01*
X643097Y504051D01*
X643200Y503972D01*
X643306Y503897D01*
X643414Y503825D01*
X643524Y503756D01*
X643637Y503690D01*
X643751Y503628D01*
X643867Y503569D01*
X643985Y503514D01*
X644104Y503463D01*
X644225Y503415D01*
X644347Y503370D01*
X644471Y503330D01*
X644595Y503293D01*
X644721Y503260D01*
X644848Y503231D01*
X644975Y503205D01*
X645103Y503184D01*
X645232Y503166D01*
X645361Y503153D01*
X645491Y503143D01*
X645621Y503137D01*
X645751Y503135D01*
X645881Y503137D01*
X646011Y503143D01*
X646141Y503153D01*
X646270Y503166D01*
X646399Y503184D01*
X646527Y503205D01*
X646654Y503231D01*
X646781Y503260D01*
X646907Y503293D01*
X647031Y503330D01*
X647155Y503370D01*
X647277Y503415D01*
X647398Y503463D01*
X647517Y503514D01*
X647635Y503569D01*
X647751Y503628D01*
X647865Y503690D01*
X647978Y503756D01*
X648088Y503825D01*
X648196Y503897D01*
X648302Y503972D01*
X648405Y504051D01*
X648506Y504133D01*
X648605Y504217D01*
X648701Y504305D01*
X648794Y504396D01*
X648885Y504489D01*
X648973Y504585D01*
X649057Y504684D01*
X649139Y504785D01*
X649218Y504888D01*
X649293Y504994D01*
X649365Y505102D01*
X649434Y505212D01*
X649500Y505325D01*
X649562Y505439D01*
X649621Y505555D01*
X649676Y505673D01*
X649727Y505792D01*
X649775Y505913D01*
X649820Y506035D01*
X649860Y506159D01*
X649897Y506283D01*
X649930Y506409D01*
X649959Y506536D01*
X649985Y506663D01*
X650006Y506791D01*
X650024Y506920D01*
X650037Y507049D01*
X650047Y507179D01*
X650053Y507309D01*
X650055Y507439D01*
X631876Y503135D02*
X631876Y518629D01*
X636180Y518629D02*
X627572Y518629D01*
X621783Y503135D02*
X614896Y503135D01*
X621783Y503135D02*
X621783Y518629D01*
X614896Y518629D01*
X616618Y511743D02*
X621783Y511743D01*
X606016Y503135D02*
X602573Y503135D01*
X606016Y503135D02*
X606131Y503137D01*
X606246Y503143D01*
X606361Y503152D01*
X606475Y503166D01*
X606589Y503183D01*
X606702Y503204D01*
X606814Y503229D01*
X606926Y503257D01*
X607036Y503290D01*
X607145Y503326D01*
X607253Y503365D01*
X607360Y503408D01*
X607465Y503455D01*
X607569Y503505D01*
X607671Y503559D01*
X607771Y503616D01*
X607869Y503676D01*
X607965Y503739D01*
X608058Y503806D01*
X608150Y503876D01*
X608239Y503949D01*
X608326Y504025D01*
X608410Y504103D01*
X608491Y504184D01*
X608570Y504269D01*
X608645Y504355D01*
X608718Y504444D01*
X608788Y504536D01*
X608855Y504629D01*
X608918Y504725D01*
X608978Y504823D01*
X609035Y504923D01*
X609089Y505025D01*
X609139Y505129D01*
X609186Y505234D01*
X609229Y505341D01*
X609269Y505449D01*
X609304Y505558D01*
X609337Y505668D01*
X609365Y505780D01*
X609390Y505892D01*
X609411Y506005D01*
X609428Y506119D01*
X609442Y506233D01*
X609451Y506348D01*
X609457Y506463D01*
X609459Y506578D01*
X609459Y515186D01*
X609457Y515301D01*
X609451Y515416D01*
X609442Y515531D01*
X609428Y515645D01*
X609411Y515759D01*
X609390Y515872D01*
X609365Y515984D01*
X609337Y516096D01*
X609304Y516206D01*
X609269Y516315D01*
X609229Y516423D01*
X609186Y516530D01*
X609139Y516635D01*
X609089Y516739D01*
X609035Y516841D01*
X608978Y516941D01*
X608918Y517039D01*
X608855Y517135D01*
X608788Y517228D01*
X608718Y517320D01*
X608645Y517409D01*
X608570Y517495D01*
X608491Y517580D01*
X608410Y517661D01*
X608326Y517739D01*
X608239Y517815D01*
X608150Y517888D01*
X608058Y517958D01*
X607965Y518025D01*
X607869Y518088D01*
X607771Y518148D01*
X607671Y518205D01*
X607569Y518259D01*
X607465Y518309D01*
X607360Y518356D01*
X607253Y518399D01*
X607145Y518438D01*
X607036Y518474D01*
X606926Y518507D01*
X606814Y518535D01*
X606702Y518560D01*
X606589Y518581D01*
X606475Y518598D01*
X606361Y518612D01*
X606246Y518621D01*
X606131Y518627D01*
X606016Y518629D01*
X602573Y518629D01*
X596538Y518629D02*
X596538Y503135D01*
X596538Y511743D02*
X587930Y511743D01*
X587930Y518629D02*
X587930Y503135D01*
D11*
X682500Y512500D02*
X690000Y520000D01*
X677500Y507500D02*
X670000Y500000D01*
X682500Y512500D02*
X682500Y520000D01*
X677500Y507500D02*
X677500Y500000D01*
X680000Y500000D02*
X680000Y520000D01*
X687500Y522500D02*
X687198Y522676D01*
X686892Y522844D01*
X686581Y523005D01*
X686267Y523158D01*
X685949Y523303D01*
X685628Y523441D01*
X685303Y523571D01*
X684976Y523693D01*
X684645Y523806D01*
X684312Y523912D01*
X683976Y524010D01*
X683638Y524099D01*
X683298Y524180D01*
X682957Y524253D01*
X682613Y524318D01*
X682268Y524374D01*
X681922Y524421D01*
X681574Y524461D01*
X681226Y524491D01*
X680877Y524514D01*
X680528Y524528D01*
X680179Y524533D01*
X679829Y524530D01*
X679480Y524518D01*
X679131Y524498D01*
X678783Y524469D01*
X678435Y524432D01*
X678088Y524386D01*
X677743Y524332D01*
X677399Y524270D01*
X677057Y524199D01*
X676716Y524120D01*
X676378Y524033D01*
X676042Y523937D01*
X675708Y523834D01*
X675377Y523722D01*
X675048Y523602D01*
X674723Y523474D01*
X674401Y523339D01*
X674082Y523195D01*
X673767Y523044D01*
X673456Y522885D01*
X673148Y522719D01*
X672845Y522545D01*
X672546Y522364D01*
X672252Y522176D01*
X671962Y521980D01*
X671677Y521778D01*
X671397Y521568D01*
X671122Y521352D01*
X670853Y521130D01*
X670589Y520901D01*
X670331Y520665D01*
X670078Y520423D01*
X669832Y520175D01*
X669591Y519922D01*
X669357Y519662D01*
X669129Y519397D01*
X668908Y519126D01*
X668693Y518851D01*
X668486Y518570D01*
X668285Y518284D01*
X668091Y517993D01*
X667904Y517697D01*
X667725Y517397D01*
X667552Y517093D01*
X667388Y516785D01*
X667231Y516473D01*
X667081Y516157D01*
X666939Y515837D01*
X666805Y515514D01*
X666679Y515188D01*
X666561Y514859D01*
X666451Y514528D01*
X666349Y514193D01*
X666255Y513857D01*
X666170Y513518D01*
X666093Y513177D01*
X666024Y512834D01*
X665963Y512490D01*
X665911Y512144D01*
X665867Y511797D01*
X665832Y511450D01*
X665805Y511101D01*
X665787Y510752D01*
X665777Y510403D01*
X665775Y510053D01*
X665783Y509704D01*
X665798Y509355D01*
X665823Y509006D01*
X665855Y508658D01*
X665896Y508311D01*
X665946Y507965D01*
X666004Y507620D01*
X666070Y507277D01*
X666145Y506935D01*
X666228Y506596D01*
X666319Y506258D01*
X666418Y505923D01*
X666526Y505591D01*
X666641Y505261D01*
X666765Y504934D01*
X666896Y504610D01*
X667036Y504289D01*
X667183Y503972D01*
X667337Y503659D01*
X667500Y503349D01*
X667670Y503044D01*
X667847Y502743D01*
X668031Y502446D01*
X668223Y502153D01*
X668422Y501866D01*
X668627Y501583D01*
X668840Y501306D01*
X669059Y501033D01*
X669285Y500767D01*
X669517Y500505D01*
X669755Y500250D01*
X670000Y500000D01*
X672500Y497500D02*
X672802Y497324D01*
X673108Y497156D01*
X673419Y496995D01*
X673733Y496842D01*
X674051Y496697D01*
X674372Y496559D01*
X674697Y496429D01*
X675024Y496307D01*
X675355Y496194D01*
X675688Y496088D01*
X676024Y495990D01*
X676362Y495901D01*
X676702Y495820D01*
X677043Y495747D01*
X677387Y495682D01*
X677732Y495626D01*
X678078Y495579D01*
X678426Y495539D01*
X678774Y495509D01*
X679123Y495486D01*
X679472Y495472D01*
X679821Y495467D01*
X680171Y495470D01*
X680520Y495482D01*
X680869Y495502D01*
X681217Y495531D01*
X681565Y495568D01*
X681912Y495614D01*
X682257Y495668D01*
X682601Y495730D01*
X682943Y495801D01*
X683284Y495880D01*
X683622Y495967D01*
X683958Y496063D01*
X684292Y496166D01*
X684623Y496278D01*
X684952Y496398D01*
X685277Y496526D01*
X685599Y496661D01*
X685918Y496805D01*
X686233Y496956D01*
X686544Y497115D01*
X686852Y497281D01*
X687155Y497455D01*
X687454Y497636D01*
X687748Y497824D01*
X688038Y498020D01*
X688323Y498222D01*
X688603Y498432D01*
X688878Y498648D01*
X689147Y498870D01*
X689411Y499099D01*
X689669Y499335D01*
X689922Y499577D01*
X690168Y499825D01*
X690409Y500078D01*
X690643Y500338D01*
X690871Y500603D01*
X691092Y500874D01*
X691307Y501149D01*
X691514Y501430D01*
X691715Y501716D01*
X691909Y502007D01*
X692096Y502303D01*
X692275Y502603D01*
X692448Y502907D01*
X692612Y503215D01*
X692769Y503527D01*
X692919Y503843D01*
X693061Y504163D01*
X693195Y504486D01*
X693321Y504812D01*
X693439Y505141D01*
X693549Y505472D01*
X693651Y505807D01*
X693745Y506143D01*
X693830Y506482D01*
X693907Y506823D01*
X693976Y507166D01*
X694037Y507510D01*
X694089Y507856D01*
X694133Y508203D01*
X694168Y508550D01*
X694195Y508899D01*
X694213Y509248D01*
X694223Y509597D01*
X694225Y509947D01*
X694217Y510296D01*
X694202Y510645D01*
X694177Y510994D01*
X694145Y511342D01*
X694104Y511689D01*
X694054Y512035D01*
X693996Y512380D01*
X693930Y512723D01*
X693855Y513065D01*
X693772Y513404D01*
X693681Y513742D01*
X693582Y514077D01*
X693474Y514409D01*
X693359Y514739D01*
X693235Y515066D01*
X693104Y515390D01*
X692964Y515711D01*
X692817Y516028D01*
X692663Y516341D01*
X692500Y516651D01*
X692330Y516956D01*
X692153Y517257D01*
X691969Y517554D01*
X691777Y517847D01*
X691578Y518134D01*
X691373Y518417D01*
X691160Y518694D01*
X690941Y518967D01*
X690715Y519233D01*
X690483Y519495D01*
X690245Y519750D01*
X690000Y520000D01*
D12*
X63500Y0D03*
D13*
X180340Y0D03*
D14*
X297180Y0D03*
D15*
X417830Y0D03*
D16*
X513080Y0D03*
D17*
X27940Y2540D03*
D18*
X80010Y2540D03*
D19*
X111760Y2540D03*
D20*
X144780Y2540D03*
D21*
X163830Y2540D03*
D22*
X200660Y2540D03*
D23*
X242570Y2540D03*
D18*
X267970Y2540D03*
X303530Y2540D03*
D24*
X340360Y2540D03*
D23*
X379730Y2540D03*
D21*
X397510Y2540D03*
D25*
X436880Y2540D03*
D26*
X518160Y2540D03*
D17*
X27940Y5080D03*
D18*
X80010Y5080D03*
D27*
X109220Y5080D03*
D21*
X163830Y5080D03*
D28*
X199390Y5080D03*
D20*
X243840Y5080D03*
D18*
X267970Y5080D03*
D29*
X302260Y5080D03*
D18*
X339090Y5080D03*
D21*
X397510Y5080D03*
D22*
X434340Y5080D03*
D30*
X520700Y5080D03*
D17*
X27940Y7620D03*
D18*
X80010Y7620D03*
D27*
X109220Y7620D03*
D21*
X163830Y7620D03*
D31*
X198120Y7620D03*
D29*
X266700Y7620D03*
D32*
X303530Y7620D03*
D29*
X337820Y7620D03*
D21*
X397510Y7620D03*
D28*
X433070Y7620D03*
D33*
X521970Y7620D03*
D17*
X27940Y10160D03*
D18*
X80010Y10160D03*
D34*
X107950Y10160D03*
D19*
X134620Y10160D03*
D21*
X163830Y10160D03*
D35*
X196850Y10160D03*
D34*
X232410Y10160D03*
D29*
X266700Y10160D03*
D32*
X303530Y10160D03*
D19*
X337820Y10160D03*
X368300Y10160D03*
D21*
X397510Y10160D03*
D31*
X431800Y10160D03*
D27*
X469900Y10160D03*
D30*
X520700Y10160D03*
D17*
X27940Y12700D03*
D18*
X80010Y12700D03*
D34*
X107950Y12700D03*
D29*
X134620Y12700D03*
D21*
X163830Y12700D03*
D35*
X196850Y12700D03*
D19*
X233680Y12700D03*
D29*
X266700Y12700D03*
D32*
X303530Y12700D03*
D19*
X337820Y12700D03*
D29*
X368300Y12700D03*
D21*
X397510Y12700D03*
D31*
X431800Y12700D03*
D29*
X469900Y12700D03*
D36*
X519430Y12700D03*
D17*
X27940Y15240D03*
D18*
X80010Y15240D03*
D34*
X107950Y15240D03*
D18*
X133350Y15240D03*
D21*
X163830Y15240D03*
D35*
X196850Y15240D03*
D32*
X232410Y15240D03*
X265430Y15240D03*
D21*
X303530Y15240D03*
D19*
X337820Y15240D03*
D29*
X368300Y15240D03*
D21*
X397510Y15240D03*
D31*
X431800Y15240D03*
D15*
X506730Y15240D03*
D17*
X27940Y17780D03*
D18*
X80010Y17780D03*
D34*
X107950Y17780D03*
D18*
X133350Y17780D03*
D21*
X163830Y17780D03*
D35*
X196850Y17780D03*
D29*
X233680Y17780D03*
D32*
X265430Y17780D03*
D23*
X285750Y17780D03*
D21*
X303530Y17780D03*
D20*
X320040Y17780D03*
D21*
X339090Y17780D03*
D18*
X369570Y17780D03*
D21*
X397510Y17780D03*
D35*
X430530Y17780D03*
D37*
X505460Y17780D03*
D17*
X27940Y20320D03*
D18*
X80010Y20320D03*
D34*
X107950Y20320D03*
D18*
X133350Y20320D03*
D21*
X163830Y20320D03*
D35*
X196850Y20320D03*
D18*
X232410Y20320D03*
D32*
X265430Y20320D03*
D23*
X285750Y20320D03*
D21*
X303530Y20320D03*
D23*
X321310Y20320D03*
D21*
X339090Y20320D03*
D18*
X369570Y20320D03*
D21*
X397510Y20320D03*
D35*
X430530Y20320D03*
D37*
X505460Y20320D03*
D17*
X27940Y22860D03*
D18*
X80010Y22860D03*
D34*
X107950Y22860D03*
D29*
X134620Y22860D03*
D21*
X163830Y22860D03*
D35*
X196850Y22860D03*
D18*
X232410Y22860D03*
D32*
X265430Y22860D03*
D23*
X285750Y22860D03*
D34*
X303530Y22860D03*
D23*
X321310Y22860D03*
D21*
X339090Y22860D03*
D29*
X370840Y22860D03*
D21*
X397510Y22860D03*
D35*
X430530Y22860D03*
D37*
X505460Y22860D03*
D17*
X27940Y25400D03*
D18*
X80010Y25400D03*
D27*
X109220Y25400D03*
D21*
X163830Y25400D03*
D35*
X196850Y25400D03*
D18*
X232410Y25400D03*
D19*
X264160Y25400D03*
D38*
X287020Y25400D03*
D34*
X303530Y25400D03*
D38*
X320040Y25400D03*
D21*
X341630Y25400D03*
X397510Y25400D03*
D35*
X430530Y25400D03*
D39*
X523240Y25400D03*
D17*
X27940Y27940D03*
D18*
X80010Y27940D03*
D27*
X109220Y27940D03*
D21*
X163830Y27940D03*
D35*
X196850Y27940D03*
D18*
X232410Y27940D03*
D19*
X264160Y27940D03*
D34*
X285750Y27940D03*
X303530Y27940D03*
D38*
X320040Y27940D03*
D19*
X342900Y27940D03*
D21*
X397510Y27940D03*
D35*
X430530Y27940D03*
D39*
X523240Y27940D03*
D17*
X27940Y30480D03*
D18*
X80010Y30480D03*
D19*
X111760Y30480D03*
D21*
X163830Y30480D03*
D35*
X196850Y30480D03*
D18*
X232410Y30480D03*
D19*
X264160Y30480D03*
D34*
X285750Y30480D03*
X303530Y30480D03*
X321310Y30480D03*
D32*
X344170Y30480D03*
D21*
X397510Y30480D03*
D35*
X430530Y30480D03*
D39*
X523240Y30480D03*
D17*
X27940Y33020D03*
D18*
X80010Y33020D03*
D25*
X124460Y33020D03*
D21*
X163830Y33020D03*
D35*
X196850Y33020D03*
D18*
X232410Y33020D03*
D21*
X262890Y33020D03*
D27*
X287020Y33020D03*
D23*
X303530Y33020D03*
D27*
X320040Y33020D03*
D25*
X358140Y33020D03*
D21*
X397510Y33020D03*
D35*
X430530Y33020D03*
D18*
X468630Y33020D03*
D39*
X523240Y33020D03*
D17*
X27940Y35560D03*
D18*
X80010Y35560D03*
D25*
X124460Y35560D03*
D21*
X163830Y35560D03*
D35*
X196850Y35560D03*
D18*
X232410Y35560D03*
D21*
X262890Y35560D03*
D27*
X287020Y35560D03*
D23*
X303530Y35560D03*
D27*
X320040Y35560D03*
D40*
X359410Y35560D03*
D21*
X397510Y35560D03*
D35*
X430530Y35560D03*
D18*
X468630Y35560D03*
D39*
X523240Y35560D03*
D17*
X27940Y38100D03*
D18*
X80010Y38100D03*
D25*
X124460Y38100D03*
D21*
X163830Y38100D03*
D35*
X196850Y38100D03*
D29*
X233680Y38100D03*
D21*
X262890Y38100D03*
X285750Y38100D03*
D23*
X303530Y38100D03*
D21*
X321310Y38100D03*
D40*
X359410Y38100D03*
D21*
X397510Y38100D03*
D35*
X430530Y38100D03*
D18*
X468630Y38100D03*
D39*
X523240Y38100D03*
D17*
X27940Y40640D03*
D32*
X80010Y40640D03*
D40*
X123190Y40640D03*
D21*
X163830Y40640D03*
D35*
X196850Y40640D03*
D32*
X232410Y40640D03*
D27*
X261620Y40640D03*
D19*
X287020Y40640D03*
X320040Y40640D03*
D25*
X360680Y40640D03*
D21*
X397510Y40640D03*
D24*
X431800Y40640D03*
D29*
X467360Y40640D03*
D33*
X521970Y40640D03*
D17*
X27940Y43180D03*
D32*
X80010Y43180D03*
D40*
X123190Y43180D03*
D21*
X163830Y43180D03*
D24*
X198120Y43180D03*
D19*
X233680Y43180D03*
D27*
X261620Y43180D03*
D19*
X287020Y43180D03*
X320040Y43180D03*
D41*
X359410Y43180D03*
D21*
X397510Y43180D03*
D35*
X433070Y43180D03*
D32*
X468630Y43180D03*
D33*
X521970Y43180D03*
D17*
X27940Y45720D03*
D27*
X78740Y45720D03*
D32*
X110490Y45720D03*
D19*
X134620Y45720D03*
D21*
X163830Y45720D03*
D27*
X193040Y45720D03*
D34*
X207010Y45720D03*
D27*
X233680Y45720D03*
X261620Y45720D03*
D19*
X287020Y45720D03*
X320040Y45720D03*
D21*
X346710Y45720D03*
D32*
X369570Y45720D03*
D21*
X397510Y45720D03*
D27*
X426720Y45720D03*
X441960Y45720D03*
D21*
X468630Y45720D03*
D33*
X521970Y45720D03*
D17*
X27940Y48260D03*
D19*
X109220Y48260D03*
X162560Y48260D03*
D34*
X209550Y48260D03*
X260350Y48260D03*
D29*
X287020Y48260D03*
X320040Y48260D03*
D34*
X346710Y48260D03*
D21*
X397510Y48260D03*
D27*
X444500Y48260D03*
D30*
X520700Y48260D03*
D17*
X27940Y50800D03*
D19*
X106680Y50800D03*
X162560Y50800D03*
D20*
X182880Y50800D03*
D38*
X210820Y50800D03*
D34*
X260350Y50800D03*
D29*
X287020Y50800D03*
X320040Y50800D03*
D38*
X345440Y50800D03*
D19*
X396240Y50800D03*
D20*
X416560Y50800D03*
D27*
X447040Y50800D03*
D36*
X519430Y50800D03*
D17*
X27940Y53340D03*
D23*
X69850Y53340D03*
D29*
X106680Y53340D03*
D32*
X161290Y53340D03*
D23*
X184150Y53340D03*
D34*
X212090Y53340D03*
D23*
X242570Y53340D03*
D34*
X260350Y53340D03*
D29*
X287020Y53340D03*
X320040Y53340D03*
D27*
X347980Y53340D03*
D32*
X394970Y53340D03*
D23*
X417830Y53340D03*
D27*
X449580Y53340D03*
D26*
X518160Y53340D03*
D17*
X27940Y55880D03*
D34*
X72390Y55880D03*
D28*
X107950Y55880D03*
D24*
X157480Y55880D03*
D38*
X185420Y55880D03*
D19*
X213360Y55880D03*
D34*
X240030Y55880D03*
D38*
X259080Y55880D03*
D18*
X285750Y55880D03*
X318770Y55880D03*
D21*
X351790Y55880D03*
D18*
X392430Y55880D03*
D34*
X420370Y55880D03*
D29*
X449580Y55880D03*
D42*
X515620Y55880D03*
D17*
X27940Y58420D03*
D43*
X156210Y58420D03*
D44*
X405130Y58420D03*
D17*
X27940Y60960D03*
D43*
X156210Y60960D03*
D44*
X405130Y60960D03*
D17*
X27940Y63500D03*
D43*
X156210Y63500D03*
D44*
X405130Y63500D03*
D17*
X27940Y66040D03*
D43*
X156210Y66040D03*
D44*
X405130Y66040D03*
D17*
X27940Y68580D03*
D43*
X156210Y68580D03*
D44*
X405130Y68580D03*
D17*
X27940Y71120D03*
D43*
X156210Y71120D03*
D44*
X405130Y71120D03*
D17*
X27940Y73660D03*
D43*
X156210Y73660D03*
D44*
X405130Y73660D03*
D17*
X27940Y76200D03*
D43*
X156210Y76200D03*
D44*
X405130Y76200D03*
D17*
X27940Y78740D03*
D43*
X156210Y78740D03*
D44*
X405130Y78740D03*
D17*
X27940Y81280D03*
D45*
X311150Y81280D03*
D17*
X27940Y83820D03*
D45*
X311150Y83820D03*
D17*
X27940Y86360D03*
D45*
X311150Y86360D03*
D17*
X27940Y88900D03*
D45*
X311150Y88900D03*
D29*
X10160Y91440D03*
D31*
X40640Y91440D03*
D21*
X74930Y91440D03*
D46*
X109220Y91440D03*
D47*
X204470Y91440D03*
D46*
X299720Y91440D03*
X353060Y91440D03*
D37*
X431800Y91440D03*
D25*
X508000Y91440D03*
D32*
X544830Y91440D03*
D27*
X5080Y93980D03*
D29*
X45720Y93980D03*
D38*
X71120Y93980D03*
D35*
X107950Y93980D03*
D32*
X158750Y93980D03*
D18*
X191770Y93980D03*
D25*
X236220Y93980D03*
D35*
X300990Y93980D03*
D31*
X353060Y93980D03*
D23*
X392430Y93980D03*
D21*
X412750Y93980D03*
D41*
X450850Y93980D03*
D18*
X506730Y93980D03*
D34*
X549910Y93980D03*
D38*
X2540Y96520D03*
D32*
X46990Y96520D03*
D20*
X68580Y96520D03*
D18*
X107950Y96520D03*
D21*
X161290Y96520D03*
D18*
X191770Y96520D03*
D22*
X233680Y96520D03*
D29*
X299720Y96520D03*
D18*
X354330Y96520D03*
D20*
X393700Y96520D03*
D21*
X412750Y96520D03*
D22*
X449580Y96520D03*
D19*
X508000Y96520D03*
D23*
X552450Y96520D03*
X1270Y99060D03*
D19*
X48260Y99060D03*
D32*
X107950Y99060D03*
D27*
X162560Y99060D03*
D18*
X191770Y99060D03*
D28*
X232410Y99060D03*
D19*
X299720Y99060D03*
D32*
X354330Y99060D03*
D21*
X412750Y99060D03*
D31*
X447040Y99060D03*
D27*
X508000Y99060D03*
D20*
X553720Y99060D03*
D23*
X1270Y101600D03*
D38*
X22860Y101600D03*
D21*
X49530Y101600D03*
D34*
X80010Y101600D03*
D21*
X107950Y101600D03*
D27*
X137160Y101600D03*
D21*
X161290Y101600D03*
D18*
X191770Y101600D03*
D31*
X231140Y101600D03*
D19*
X271780Y101600D03*
D27*
X299720Y101600D03*
D34*
X326390Y101600D03*
D21*
X354330Y101600D03*
D38*
X383540Y101600D03*
D21*
X412750Y101600D03*
D31*
X447040Y101600D03*
D34*
X483870Y101600D03*
X506730Y101600D03*
D27*
X533400Y101600D03*
D23*
X552450Y101600D03*
D20*
X0Y104140D03*
D19*
X22860Y104140D03*
D27*
X50800Y104140D03*
D21*
X80010Y104140D03*
X107950Y104140D03*
D32*
X135890Y104140D03*
D19*
X160020Y104140D03*
D18*
X191770Y104140D03*
D28*
X232410Y104140D03*
D18*
X270510Y104140D03*
D27*
X299720Y104140D03*
D21*
X326390Y104140D03*
X354330Y104140D03*
D19*
X383540Y104140D03*
D21*
X412750Y104140D03*
D35*
X445770Y104140D03*
D19*
X482600Y104140D03*
D27*
X505460Y104140D03*
D32*
X532130Y104140D03*
D38*
X551180Y104140D03*
D20*
X0Y106680D03*
D29*
X22860Y106680D03*
D27*
X50800Y106680D03*
D32*
X80010Y106680D03*
D27*
X106680Y106680D03*
D40*
X146050Y106680D03*
D18*
X191770Y106680D03*
D22*
X233680Y106680D03*
D35*
X270510Y106680D03*
D34*
X298450Y106680D03*
D32*
X326390Y106680D03*
D21*
X354330Y106680D03*
D29*
X383540Y106680D03*
D21*
X412750Y106680D03*
D35*
X445770Y106680D03*
D22*
X490220Y106680D03*
D28*
X537210Y106680D03*
D20*
X0Y109220D03*
D29*
X22860Y109220D03*
D27*
X50800Y109220D03*
D29*
X78740Y109220D03*
D27*
X106680Y109220D03*
D40*
X146050Y109220D03*
D18*
X191770Y109220D03*
D36*
X250190Y109220D03*
D38*
X299720Y109220D03*
D18*
X326390Y109220D03*
D27*
X355600Y109220D03*
D29*
X383540Y109220D03*
D21*
X412750Y109220D03*
D24*
X444500Y109220D03*
D41*
X488950Y109220D03*
D28*
X537210Y109220D03*
D20*
X0Y111760D03*
D18*
X21590Y111760D03*
D27*
X50800Y111760D03*
D18*
X80010Y111760D03*
D27*
X106680Y111760D03*
D46*
X144780Y111760D03*
D18*
X191770Y111760D03*
D30*
X248920Y111760D03*
D34*
X298450Y111760D03*
D18*
X326390Y111760D03*
D27*
X355600Y111760D03*
D29*
X383540Y111760D03*
D21*
X412750Y111760D03*
D24*
X444500Y111760D03*
D41*
X488950Y111760D03*
D28*
X537210Y111760D03*
D20*
X0Y114300D03*
D24*
X22860Y114300D03*
D27*
X50800Y114300D03*
D18*
X80010Y114300D03*
D34*
X107950Y114300D03*
D46*
X144780Y114300D03*
D18*
X191770Y114300D03*
D33*
X247650Y114300D03*
D34*
X298450Y114300D03*
D18*
X326390Y114300D03*
D27*
X355600Y114300D03*
D29*
X383540Y114300D03*
D21*
X412750Y114300D03*
D24*
X444500Y114300D03*
D41*
X488950Y114300D03*
D22*
X535940Y114300D03*
D24*
X22860Y116840D03*
D27*
X50800Y116840D03*
D18*
X80010Y116840D03*
D34*
X107950Y116840D03*
X163830Y116840D03*
D18*
X191770Y116840D03*
D46*
X238760Y116840D03*
D34*
X298450Y116840D03*
D18*
X326390Y116840D03*
D27*
X355600Y116840D03*
D29*
X383540Y116840D03*
D21*
X412750Y116840D03*
D24*
X444500Y116840D03*
D41*
X488950Y116840D03*
D24*
X22860Y119380D03*
D27*
X50800Y119380D03*
D18*
X80010Y119380D03*
D38*
X106680Y119380D03*
D34*
X163830Y119380D03*
D18*
X191770Y119380D03*
D25*
X236220Y119380D03*
D27*
X297180Y119380D03*
D18*
X326390Y119380D03*
D27*
X355600Y119380D03*
D29*
X383540Y119380D03*
D21*
X412750Y119380D03*
D24*
X444500Y119380D03*
D41*
X488950Y119380D03*
D24*
X22860Y121920D03*
D27*
X50800Y121920D03*
D18*
X80010Y121920D03*
D34*
X107950Y121920D03*
X163830Y121920D03*
D18*
X191770Y121920D03*
D41*
X234950Y121920D03*
D21*
X295910Y121920D03*
D18*
X326390Y121920D03*
D27*
X355600Y121920D03*
D29*
X383540Y121920D03*
D21*
X412750Y121920D03*
D24*
X444500Y121920D03*
D41*
X488950Y121920D03*
D20*
X0Y124460D03*
D24*
X22860Y124460D03*
D27*
X50800Y124460D03*
D18*
X80010Y124460D03*
D34*
X107950Y124460D03*
D18*
X133350Y124460D03*
D34*
X163830Y124460D03*
D18*
X191770Y124460D03*
D22*
X233680Y124460D03*
D18*
X290830Y124460D03*
X326390Y124460D03*
D27*
X355600Y124460D03*
D29*
X383540Y124460D03*
D21*
X412750Y124460D03*
D24*
X444500Y124460D03*
D41*
X488950Y124460D03*
D18*
X532130Y124460D03*
D20*
X0Y127000D03*
D18*
X21590Y127000D03*
D27*
X50800Y127000D03*
D18*
X80010Y127000D03*
D34*
X107950Y127000D03*
D24*
X134620Y127000D03*
D27*
X162560Y127000D03*
D18*
X191770Y127000D03*
D22*
X233680Y127000D03*
D41*
X283210Y127000D03*
D18*
X326390Y127000D03*
D27*
X355600Y127000D03*
D29*
X383540Y127000D03*
D21*
X412750Y127000D03*
D24*
X444500Y127000D03*
D41*
X488950Y127000D03*
D24*
X530860Y127000D03*
D20*
X553720Y127000D03*
X0Y129540D03*
D29*
X22860Y129540D03*
D27*
X50800Y129540D03*
D29*
X78740Y129540D03*
D27*
X106680Y129540D03*
D29*
X134620Y129540D03*
D27*
X162560Y129540D03*
D18*
X191770Y129540D03*
D28*
X232410Y129540D03*
D25*
X281940Y129540D03*
D18*
X326390Y129540D03*
D27*
X355600Y129540D03*
D29*
X383540Y129540D03*
D21*
X412750Y129540D03*
D24*
X444500Y129540D03*
D41*
X488950Y129540D03*
D18*
X532130Y129540D03*
D20*
X553720Y129540D03*
X0Y132080D03*
D29*
X22860Y132080D03*
D27*
X50800Y132080D03*
D32*
X80010Y132080D03*
D27*
X106680Y132080D03*
D29*
X134620Y132080D03*
D27*
X162560Y132080D03*
D32*
X191770Y132080D03*
D28*
X232410Y132080D03*
D25*
X281940Y132080D03*
D32*
X326390Y132080D03*
D27*
X355600Y132080D03*
D29*
X383540Y132080D03*
D21*
X412750Y132080D03*
D35*
X445770Y132080D03*
D22*
X490220Y132080D03*
D29*
X530860Y132080D03*
D20*
X553720Y132080D03*
X0Y134620D03*
D19*
X22860Y134620D03*
D27*
X50800Y134620D03*
D32*
X80010Y134620D03*
D27*
X106680Y134620D03*
D32*
X133350Y134620D03*
D27*
X162560Y134620D03*
D32*
X191770Y134620D03*
D22*
X231140Y134620D03*
D40*
X283210Y134620D03*
D32*
X326390Y134620D03*
D21*
X354330Y134620D03*
D29*
X383540Y134620D03*
D21*
X412750Y134620D03*
D24*
X447040Y134620D03*
D32*
X483870Y134620D03*
D21*
X504190Y134620D03*
D32*
X532130Y134620D03*
D20*
X553720Y134620D03*
D23*
X1270Y137160D03*
D27*
X22860Y137160D03*
D21*
X49530Y137160D03*
X80010Y137160D03*
X107950Y137160D03*
X133350Y137160D03*
X161290Y137160D03*
D27*
X190500Y137160D03*
D41*
X232410Y137160D03*
D32*
X273050Y137160D03*
D19*
X297180Y137160D03*
D21*
X326390Y137160D03*
X354330Y137160D03*
D29*
X383540Y137160D03*
D21*
X412750Y137160D03*
D27*
X441960Y137160D03*
D34*
X455930Y137160D03*
D21*
X483870Y137160D03*
D27*
X505460Y137160D03*
D21*
X532130Y137160D03*
D23*
X552450Y137160D03*
X1270Y139700D03*
D21*
X49530Y139700D03*
D19*
X109220Y139700D03*
D21*
X161290Y139700D03*
D41*
X232410Y139700D03*
D19*
X299720Y139700D03*
X353060Y139700D03*
D29*
X383540Y139700D03*
D21*
X412750Y139700D03*
D34*
X458470Y139700D03*
D27*
X508000Y139700D03*
D23*
X552450Y139700D03*
D38*
X2540Y142240D03*
D19*
X48260Y142240D03*
D32*
X107950Y142240D03*
D19*
X160020Y142240D03*
D20*
X180340Y142240D03*
D40*
X232410Y142240D03*
D19*
X302260Y142240D03*
D32*
X351790Y142240D03*
D29*
X383540Y142240D03*
D21*
X412750Y142240D03*
D34*
X461010Y142240D03*
D21*
X506730Y142240D03*
D38*
X551180Y142240D03*
D34*
X3810Y144780D03*
D32*
X46990Y144780D03*
D23*
X69850Y144780D03*
D18*
X107950Y144780D03*
D32*
X158750Y144780D03*
D23*
X181610Y144780D03*
D48*
X232410Y144780D03*
D18*
X300990Y144780D03*
D29*
X350520Y144780D03*
X383540Y144780D03*
D21*
X412750Y144780D03*
D23*
X433070Y144780D03*
D27*
X462280Y144780D03*
D29*
X508000Y144780D03*
D34*
X549910Y144780D03*
D21*
X6350Y147320D03*
D18*
X44450Y147320D03*
D34*
X72390Y147320D03*
D28*
X107950Y147320D03*
D18*
X156210Y147320D03*
D34*
X184150Y147320D03*
D49*
X232410Y147320D03*
D22*
X299720Y147320D03*
D24*
X347980Y147320D03*
D29*
X383540Y147320D03*
D21*
X412750Y147320D03*
D38*
X434340Y147320D03*
D32*
X463550Y147320D03*
D31*
X508000Y147320D03*
D21*
X547370Y147320D03*
D50*
X276860Y149860D03*
X276860Y152400D03*
X276860Y154940D03*
X276860Y157480D03*
X276860Y160020D03*
X276860Y162560D03*
X276860Y165100D03*
X276860Y167640D03*
X276860Y170180D03*
X276860Y172720D03*
X276860Y175260D03*
X276860Y177800D03*
X276860Y180340D03*
X276860Y182880D03*
X276860Y185420D03*
X276860Y187960D03*
X276860Y190500D03*
X276860Y193040D03*
D51*
X71120Y195580D03*
D52*
X276860Y195580D03*
D51*
X482600Y195580D03*
D53*
X69850Y198120D03*
D54*
X276860Y198120D03*
D53*
X483870Y198120D03*
D55*
X68580Y200660D03*
D56*
X276860Y200660D03*
D55*
X485140Y200660D03*
D57*
X67310Y203200D03*
D58*
X276860Y203200D03*
D57*
X486410Y203200D03*
D14*
X66040Y205740D03*
D59*
X276860Y205740D03*
D14*
X487680Y205740D03*
D47*
X64770Y208280D03*
D60*
X276860Y208280D03*
D47*
X488950Y208280D03*
D12*
X63500Y210820D03*
D61*
X276860Y210820D03*
D12*
X490220Y210820D03*
D62*
X62230Y213360D03*
D63*
X276860Y213360D03*
D62*
X491490Y213360D03*
D64*
X60960Y215900D03*
D31*
X193040Y215900D03*
D64*
X276860Y215900D03*
D31*
X360680Y215900D03*
D64*
X492760Y215900D03*
D65*
X59690Y218440D03*
D29*
X193040Y218440D03*
D64*
X276860Y218440D03*
D29*
X360680Y218440D03*
D65*
X494030Y218440D03*
D66*
X58420Y220980D03*
D21*
X191770Y220980D03*
D66*
X276860Y220980D03*
D21*
X361950Y220980D03*
D66*
X495300Y220980D03*
D67*
X57150Y223520D03*
D38*
X190500Y223520D03*
D66*
X276860Y223520D03*
D38*
X363220Y223520D03*
D67*
X496570Y223520D03*
D68*
X55880Y226060D03*
D66*
X276860Y226060D03*
D68*
X497840Y226060D03*
D69*
X54610Y228600D03*
D68*
X276860Y228600D03*
D69*
X499110Y228600D03*
D70*
X53340Y231140D03*
D68*
X276860Y231140D03*
D70*
X500380Y231140D03*
D71*
X52070Y233680D03*
D70*
X276860Y233680D03*
D71*
X501650Y233680D03*
X52070Y236220D03*
D70*
X276860Y236220D03*
D71*
X501650Y236220D03*
X52070Y238760D03*
D72*
X276860Y238760D03*
D71*
X501650Y238760D03*
D70*
X53340Y241300D03*
D72*
X276860Y241300D03*
D70*
X500380Y241300D03*
D69*
X54610Y243840D03*
D72*
X276860Y243840D03*
D69*
X499110Y243840D03*
D68*
X55880Y246380D03*
D37*
X276860Y246380D03*
D68*
X497840Y246380D03*
X55880Y248920D03*
D37*
X276860Y248920D03*
D68*
X497840Y248920D03*
D67*
X57150Y251460D03*
D13*
X276860Y251460D03*
D67*
X496570Y251460D03*
D66*
X58420Y254000D03*
D13*
X276860Y254000D03*
D66*
X495300Y254000D03*
X58420Y256540D03*
D13*
X276860Y256540D03*
D66*
X495300Y256540D03*
D65*
X59690Y259080D03*
D73*
X276860Y259080D03*
D65*
X494030Y259080D03*
D64*
X60960Y261620D03*
D73*
X276860Y261620D03*
D64*
X492760Y261620D03*
X60960Y264160D03*
D16*
X276860Y264160D03*
D64*
X492760Y264160D03*
D62*
X62230Y266700D03*
D16*
X276860Y266700D03*
D62*
X491490Y266700D03*
D12*
X63500Y269240D03*
D42*
X276860Y269240D03*
D12*
X490220Y269240D03*
X63500Y271780D03*
D42*
X276860Y271780D03*
D12*
X490220Y271780D03*
D47*
X64770Y274320D03*
D42*
X276860Y274320D03*
D47*
X488950Y274320D03*
D14*
X66040Y276860D03*
D26*
X276860Y276860D03*
D14*
X487680Y276860D03*
X66040Y279400D03*
D26*
X276860Y279400D03*
D14*
X487680Y279400D03*
D57*
X67310Y281940D03*
D30*
X276860Y281940D03*
D57*
X486410Y281940D03*
X67310Y284480D03*
D30*
X276860Y284480D03*
D57*
X486410Y284480D03*
D14*
X66040Y287020D03*
D30*
X276860Y287020D03*
D14*
X487680Y287020D03*
X66040Y289560D03*
D39*
X276860Y289560D03*
D14*
X487680Y289560D03*
D47*
X64770Y292100D03*
D39*
X276860Y292100D03*
D47*
X488950Y292100D03*
X64770Y294640D03*
D17*
X276860Y294640D03*
D47*
X488950Y294640D03*
X64770Y297180D03*
D17*
X276860Y297180D03*
D47*
X488950Y297180D03*
D12*
X63500Y299720D03*
D74*
X276860Y299720D03*
D12*
X490220Y299720D03*
X63500Y302260D03*
D74*
X276860Y302260D03*
D12*
X490220Y302260D03*
D62*
X62230Y304800D03*
D74*
X276860Y304800D03*
D62*
X491490Y304800D03*
X62230Y307340D03*
D46*
X276860Y307340D03*
D62*
X491490Y307340D03*
X62230Y309880D03*
D74*
X276860Y309880D03*
D62*
X491490Y309880D03*
D64*
X60960Y312420D03*
D17*
X276860Y312420D03*
D64*
X492760Y312420D03*
X60960Y314960D03*
D33*
X275590Y314960D03*
D64*
X492760Y314960D03*
D65*
X59690Y317500D03*
D26*
X276860Y317500D03*
D65*
X494030Y317500D03*
X59690Y320040D03*
D42*
X276860Y320040D03*
D65*
X494030Y320040D03*
X59690Y322580D03*
D16*
X276860Y322580D03*
D65*
X494030Y322580D03*
D66*
X58420Y325120D03*
D73*
X276860Y325120D03*
D66*
X495300Y325120D03*
D67*
X57150Y327660D03*
D13*
X276860Y327660D03*
D67*
X496570Y327660D03*
D72*
X50800Y330200D03*
D37*
X276860Y330200D03*
D72*
X502920Y330200D03*
D75*
X44450Y332740D03*
D72*
X276860Y332740D03*
D75*
X509270Y332740D03*
D76*
X36830Y335280D03*
D72*
X276860Y335280D03*
D76*
X516890Y335280D03*
D39*
X30480Y337820D03*
D70*
X276860Y337820D03*
D39*
X523240Y337820D03*
X30480Y340360D03*
D70*
X276860Y340360D03*
D39*
X523240Y340360D03*
X30480Y342900D03*
D68*
X276860Y342900D03*
D39*
X523240Y342900D03*
X30480Y345440D03*
D68*
X276860Y345440D03*
D39*
X523240Y345440D03*
X30480Y347980D03*
D68*
X276860Y347980D03*
D39*
X523240Y347980D03*
X30480Y350520D03*
D66*
X276860Y350520D03*
D39*
X523240Y350520D03*
X30480Y353060D03*
D66*
X276860Y353060D03*
D39*
X523240Y353060D03*
X30480Y355600D03*
D66*
X276860Y355600D03*
D39*
X523240Y355600D03*
X30480Y358140D03*
D66*
X276860Y358140D03*
D39*
X523240Y358140D03*
X30480Y360680D03*
D64*
X276860Y360680D03*
D39*
X523240Y360680D03*
X30480Y363220D03*
D64*
X276860Y363220D03*
D39*
X523240Y363220D03*
X30480Y365760D03*
D64*
X276860Y365760D03*
D39*
X523240Y365760D03*
X30480Y368300D03*
D64*
X276860Y368300D03*
D39*
X523240Y368300D03*
X30480Y370840D03*
D64*
X276860Y370840D03*
D39*
X523240Y370840D03*
X30480Y373380D03*
D64*
X276860Y373380D03*
D39*
X523240Y373380D03*
X30480Y375920D03*
D66*
X276860Y375920D03*
D39*
X523240Y375920D03*
X30480Y378460D03*
D66*
X276860Y378460D03*
D39*
X523240Y378460D03*
X30480Y381000D03*
D66*
X276860Y381000D03*
D39*
X523240Y381000D03*
X30480Y383540D03*
D66*
X276860Y383540D03*
D39*
X523240Y383540D03*
X30480Y386080D03*
D68*
X276860Y386080D03*
D39*
X523240Y386080D03*
X30480Y388620D03*
D68*
X276860Y388620D03*
D39*
X523240Y388620D03*
X30480Y391160D03*
D68*
X276860Y391160D03*
D39*
X523240Y391160D03*
X30480Y393700D03*
D70*
X276860Y393700D03*
D39*
X523240Y393700D03*
D33*
X31750Y396240D03*
D70*
X276860Y396240D03*
D33*
X521970Y396240D03*
D42*
X38100Y398780D03*
D72*
X276860Y398780D03*
D42*
X515620Y398780D03*
D75*
X44450Y401320D03*
D37*
X276860Y401320D03*
D75*
X509270Y401320D03*
D71*
X52070Y403860D03*
D37*
X276860Y403860D03*
D71*
X501650Y403860D03*
D66*
X58420Y406400D03*
D13*
X276860Y406400D03*
D66*
X495300Y406400D03*
D65*
X59690Y408940D03*
D73*
X276860Y408940D03*
D65*
X494030Y408940D03*
X59690Y411480D03*
D16*
X276860Y411480D03*
D65*
X494030Y411480D03*
D64*
X60960Y414020D03*
D42*
X276860Y414020D03*
D64*
X492760Y414020D03*
X60960Y416560D03*
D30*
X276860Y416560D03*
D64*
X492760Y416560D03*
X60960Y419100D03*
D39*
X276860Y419100D03*
D64*
X492760Y419100D03*
D62*
X62230Y421640D03*
D74*
X276860Y421640D03*
D62*
X491490Y421640D03*
X62230Y424180D03*
D25*
X276860Y424180D03*
D62*
X491490Y424180D03*
D12*
X63500Y426720D03*
D29*
X276860Y426720D03*
D12*
X490220Y426720D03*
X63500Y429260D03*
X490220Y429260D03*
D47*
X64770Y431800D03*
X488950Y431800D03*
X64770Y434340D03*
X488950Y434340D03*
X64770Y436880D03*
X488950Y436880D03*
D14*
X66040Y439420D03*
X487680Y439420D03*
X66040Y441960D03*
X487680Y441960D03*
D57*
X67310Y444500D03*
X486410Y444500D03*
X67310Y447040D03*
X486410Y447040D03*
X67310Y449580D03*
X486410Y449580D03*
X67310Y452120D03*
X486410Y452120D03*
D14*
X66040Y454660D03*
X487680Y454660D03*
X66040Y457200D03*
X487680Y457200D03*
D47*
X64770Y459740D03*
X488950Y459740D03*
D12*
X63500Y462280D03*
X490220Y462280D03*
X63500Y464820D03*
X490220Y464820D03*
D62*
X62230Y467360D03*
X491490Y467360D03*
D64*
X60960Y469900D03*
X492760Y469900D03*
X60960Y472440D03*
X492760Y472440D03*
D65*
X59690Y474980D03*
X494030Y474980D03*
D66*
X58420Y477520D03*
X495300Y477520D03*
D67*
X57150Y480060D03*
X496570Y480060D03*
X57150Y482600D03*
X496570Y482600D03*
D68*
X55880Y485140D03*
X497840Y485140D03*
D69*
X54610Y487680D03*
X499110Y487680D03*
X54610Y490220D03*
X499110Y490220D03*
D70*
X53340Y492760D03*
X500380Y492760D03*
D71*
X52070Y495300D03*
X501650Y495300D03*
X52070Y497840D03*
X501650Y497840D03*
X52070Y500380D03*
X501650Y500380D03*
D70*
X53340Y502920D03*
X500380Y502920D03*
D69*
X54610Y505460D03*
X499110Y505460D03*
D68*
X55880Y508000D03*
D38*
X195580Y508000D03*
X358140Y508000D03*
D68*
X497840Y508000D03*
D67*
X57150Y510540D03*
D32*
X196850Y510540D03*
X356870Y510540D03*
D67*
X496570Y510540D03*
D66*
X58420Y513080D03*
D24*
X198120Y513080D03*
X355600Y513080D03*
D66*
X495300Y513080D03*
D65*
X59690Y515620D03*
D41*
X199390Y515620D03*
X354330Y515620D03*
D65*
X494030Y515620D03*
D64*
X60960Y518160D03*
D46*
X200660Y518160D03*
X353060Y518160D03*
D64*
X492760Y518160D03*
D62*
X62230Y520700D03*
D49*
X201930Y520700D03*
X351790Y520700D03*
D62*
X491490Y520700D03*
D12*
X63500Y523240D03*
D33*
X201930Y523240D03*
X351790Y523240D03*
D12*
X490220Y523240D03*
D47*
X64770Y525780D03*
D26*
X200660Y525780D03*
X353060Y525780D03*
D47*
X488950Y525780D03*
D14*
X66040Y528320D03*
D76*
X199390Y528320D03*
X354330Y528320D03*
D14*
X487680Y528320D03*
D57*
X67310Y530860D03*
D42*
X198120Y530860D03*
X355600Y530860D03*
D57*
X486410Y530860D03*
D55*
X68580Y533400D03*
D77*
X196850Y533400D03*
X356870Y533400D03*
D55*
X485140Y533400D03*
D53*
X69850Y535940D03*
D73*
X195580Y535940D03*
X358140Y535940D03*
D53*
X483870Y535940D03*
D51*
X71120Y538480D03*
D13*
X193040Y538480D03*
X360680Y538480D03*
D51*
X482600Y538480D03*
D78*
X119380Y541020D03*
X434340Y541020D03*
X119380Y543560D03*
X434340Y543560D03*
X119380Y546100D03*
X434340Y546100D03*
D79*
X120650Y548640D03*
X433070Y548640D03*
X120650Y551180D03*
X433070Y551180D03*
X120650Y553720D03*
X433070Y553720D03*
X120650Y556260D03*
X433070Y556260D03*
X120650Y558800D03*
X433070Y558800D03*
D56*
X121920Y561340D03*
X431800Y561340D03*
X121920Y563880D03*
X431800Y563880D03*
X121920Y566420D03*
X431800Y566420D03*
X121920Y568960D03*
X431800Y568960D03*
X121920Y571500D03*
X431800Y571500D03*
D80*
X123190Y574040D03*
X430530Y574040D03*
X123190Y576580D03*
X430530Y576580D03*
X123190Y579120D03*
X430530Y579120D03*
D54*
X124460Y581660D03*
X429260Y581660D03*
D81*
X-1270Y-12446D02*
X-2286Y-12446D01*
X-1270Y-12446D02*
X-1209Y-12444D01*
X-1148Y-12439D01*
X-1087Y-12429D01*
X-1027Y-12416D01*
X-968Y-12400D01*
X-910Y-12380D01*
X-853Y-12356D01*
X-798Y-12330D01*
X-744Y-12299D01*
X-693Y-12266D01*
X-643Y-12230D01*
X-596Y-12190D01*
X-552Y-12148D01*
X-510Y-12104D01*
X-470Y-12057D01*
X-434Y-12007D01*
X-401Y-11956D01*
X-370Y-11902D01*
X-344Y-11847D01*
X-320Y-11790D01*
X-300Y-11732D01*
X-284Y-11673D01*
X-271Y-11613D01*
X-261Y-11552D01*
X-256Y-11491D01*
X-254Y-11430D01*
X-254Y-8890D01*
X-256Y-8829D01*
X-261Y-8768D01*
X-271Y-8707D01*
X-284Y-8647D01*
X-300Y-8588D01*
X-320Y-8530D01*
X-344Y-8473D01*
X-370Y-8418D01*
X-401Y-8364D01*
X-434Y-8313D01*
X-470Y-8263D01*
X-510Y-8216D01*
X-552Y-8172D01*
X-596Y-8130D01*
X-643Y-8090D01*
X-693Y-8054D01*
X-744Y-8021D01*
X-798Y-7990D01*
X-853Y-7964D01*
X-910Y-7940D01*
X-968Y-7920D01*
X-1027Y-7904D01*
X-1087Y-7891D01*
X-1148Y-7881D01*
X-1209Y-7876D01*
X-1270Y-7874D01*
X-2286Y-7874D01*
X-4003Y-11811D02*
X-4003Y-12065D01*
X-4003Y-11811D02*
X-4257Y-11811D01*
X-4257Y-12065D01*
X-4003Y-12065D01*
X-4003Y-10033D02*
X-4003Y-9779D01*
X-4257Y-9779D01*
X-4257Y-10033D01*
X-4003Y-10033D01*
X-6009Y-12954D02*
X-8041Y-7366D01*
X-10022Y-7874D02*
X-10022Y-11176D01*
X-10024Y-11246D01*
X-10030Y-11316D01*
X-10039Y-11385D01*
X-10053Y-11454D01*
X-10070Y-11522D01*
X-10091Y-11588D01*
X-10115Y-11654D01*
X-10143Y-11718D01*
X-10175Y-11780D01*
X-10210Y-11841D01*
X-10248Y-11900D01*
X-10290Y-11956D01*
X-10334Y-12010D01*
X-10382Y-12062D01*
X-10432Y-12110D01*
X-10485Y-12156D01*
X-10540Y-12199D01*
X-10597Y-12239D01*
X-10657Y-12276D01*
X-10719Y-12309D01*
X-10782Y-12339D01*
X-10847Y-12365D01*
X-10913Y-12388D01*
X-10980Y-12407D01*
X-11049Y-12422D01*
X-11118Y-12434D01*
X-11187Y-12442D01*
X-11257Y-12446D01*
X-11327Y-12446D01*
X-11397Y-12442D01*
X-11466Y-12434D01*
X-11535Y-12422D01*
X-11604Y-12407D01*
X-11671Y-12388D01*
X-11737Y-12365D01*
X-11802Y-12339D01*
X-11865Y-12309D01*
X-11927Y-12276D01*
X-11987Y-12239D01*
X-12044Y-12199D01*
X-12099Y-12156D01*
X-12152Y-12110D01*
X-12202Y-12062D01*
X-12250Y-12010D01*
X-12294Y-11956D01*
X-12336Y-11900D01*
X-12374Y-11841D01*
X-12409Y-11780D01*
X-12441Y-11718D01*
X-12469Y-11654D01*
X-12493Y-11588D01*
X-12514Y-11522D01*
X-12531Y-11454D01*
X-12545Y-11385D01*
X-12554Y-11316D01*
X-12560Y-11246D01*
X-12562Y-11176D01*
X-12562Y-7874D01*
X-15077Y-10668D02*
X-16347Y-11176D01*
X-15077Y-10669D02*
X-15031Y-10648D01*
X-14986Y-10624D01*
X-14944Y-10596D01*
X-14903Y-10566D01*
X-14865Y-10532D01*
X-14830Y-10495D01*
X-14798Y-10456D01*
X-14768Y-10415D01*
X-14743Y-10371D01*
X-14720Y-10325D01*
X-14701Y-10278D01*
X-14686Y-10230D01*
X-14675Y-10180D01*
X-14667Y-10130D01*
X-14663Y-10079D01*
X-14664Y-10029D01*
X-14668Y-9978D01*
X-14676Y-9928D01*
X-14688Y-9878D01*
X-14703Y-9830D01*
X-14723Y-9783D01*
X-14746Y-9738D01*
X-14772Y-9694D01*
X-14801Y-9653D01*
X-14834Y-9614D01*
X-14870Y-9578D01*
X-14908Y-9544D01*
X-14949Y-9514D01*
X-14991Y-9487D01*
X-15036Y-9463D01*
X-15083Y-9443D01*
X-15131Y-9426D01*
X-15180Y-9413D01*
X-15230Y-9404D01*
X-15281Y-9399D01*
X-15331Y-9398D01*
X-15438Y-9402D01*
X-15545Y-9409D01*
X-15652Y-9421D01*
X-15758Y-9436D01*
X-15863Y-9456D01*
X-15968Y-9479D01*
X-16071Y-9506D01*
X-16174Y-9537D01*
X-16275Y-9572D01*
X-16375Y-9610D01*
X-16474Y-9652D01*
X-16347Y-11175D02*
X-16393Y-11196D01*
X-16438Y-11220D01*
X-16480Y-11248D01*
X-16521Y-11278D01*
X-16559Y-11312D01*
X-16594Y-11349D01*
X-16626Y-11388D01*
X-16656Y-11429D01*
X-16681Y-11473D01*
X-16704Y-11519D01*
X-16723Y-11566D01*
X-16738Y-11614D01*
X-16749Y-11664D01*
X-16757Y-11714D01*
X-16761Y-11765D01*
X-16760Y-11815D01*
X-16756Y-11866D01*
X-16748Y-11916D01*
X-16736Y-11966D01*
X-16721Y-12014D01*
X-16701Y-12061D01*
X-16678Y-12106D01*
X-16652Y-12150D01*
X-16623Y-12191D01*
X-16590Y-12230D01*
X-16554Y-12266D01*
X-16516Y-12300D01*
X-16475Y-12330D01*
X-16433Y-12357D01*
X-16388Y-12381D01*
X-16341Y-12401D01*
X-16293Y-12418D01*
X-16244Y-12431D01*
X-16194Y-12440D01*
X-16143Y-12445D01*
X-16093Y-12446D01*
X-16093Y-12447D02*
X-15964Y-12443D01*
X-15834Y-12435D01*
X-15705Y-12423D01*
X-15576Y-12408D01*
X-15448Y-12389D01*
X-15321Y-12365D01*
X-15194Y-12338D01*
X-15068Y-12308D01*
X-14943Y-12273D01*
X-14819Y-12235D01*
X-14696Y-12193D01*
X-19420Y-12446D02*
X-20690Y-12446D01*
X-19420Y-12446D02*
X-19366Y-12444D01*
X-19312Y-12438D01*
X-19258Y-12429D01*
X-19205Y-12415D01*
X-19154Y-12398D01*
X-19103Y-12377D01*
X-19055Y-12353D01*
X-19008Y-12325D01*
X-18963Y-12294D01*
X-18921Y-12260D01*
X-18881Y-12223D01*
X-18844Y-12183D01*
X-18810Y-12141D01*
X-18779Y-12096D01*
X-18751Y-12049D01*
X-18727Y-12001D01*
X-18706Y-11950D01*
X-18689Y-11899D01*
X-18675Y-11846D01*
X-18666Y-11792D01*
X-18660Y-11738D01*
X-18658Y-11684D01*
X-18658Y-10414D01*
X-18660Y-10351D01*
X-18666Y-10289D01*
X-18675Y-10227D01*
X-18689Y-10166D01*
X-18706Y-10106D01*
X-18727Y-10047D01*
X-18751Y-9989D01*
X-18779Y-9933D01*
X-18810Y-9879D01*
X-18845Y-9827D01*
X-18882Y-9777D01*
X-18923Y-9730D01*
X-18967Y-9685D01*
X-19013Y-9642D01*
X-19062Y-9603D01*
X-19113Y-9567D01*
X-19166Y-9534D01*
X-19221Y-9505D01*
X-19278Y-9478D01*
X-19336Y-9456D01*
X-19396Y-9437D01*
X-19457Y-9422D01*
X-19518Y-9410D01*
X-19580Y-9402D01*
X-19643Y-9398D01*
X-19705Y-9398D01*
X-19768Y-9402D01*
X-19830Y-9410D01*
X-19891Y-9422D01*
X-19952Y-9437D01*
X-20012Y-9456D01*
X-20070Y-9478D01*
X-20127Y-9505D01*
X-20182Y-9534D01*
X-20235Y-9567D01*
X-20286Y-9603D01*
X-20335Y-9642D01*
X-20381Y-9685D01*
X-20425Y-9730D01*
X-20466Y-9777D01*
X-20503Y-9827D01*
X-20538Y-9879D01*
X-20569Y-9933D01*
X-20597Y-9989D01*
X-20621Y-10047D01*
X-20642Y-10106D01*
X-20659Y-10166D01*
X-20673Y-10227D01*
X-20682Y-10289D01*
X-20688Y-10351D01*
X-20690Y-10414D01*
X-20690Y-10922D01*
X-18658Y-10922D01*
X-22803Y-12446D02*
X-22803Y-9398D01*
X-24327Y-9398D01*
X-24327Y-9906D01*
X-26202Y-10668D02*
X-27472Y-11176D01*
X-26202Y-10669D02*
X-26156Y-10648D01*
X-26111Y-10624D01*
X-26069Y-10596D01*
X-26028Y-10566D01*
X-25990Y-10532D01*
X-25955Y-10495D01*
X-25923Y-10456D01*
X-25893Y-10415D01*
X-25868Y-10371D01*
X-25845Y-10325D01*
X-25826Y-10278D01*
X-25811Y-10230D01*
X-25800Y-10180D01*
X-25792Y-10130D01*
X-25788Y-10079D01*
X-25789Y-10029D01*
X-25793Y-9978D01*
X-25801Y-9928D01*
X-25813Y-9878D01*
X-25828Y-9830D01*
X-25848Y-9783D01*
X-25871Y-9738D01*
X-25897Y-9694D01*
X-25926Y-9653D01*
X-25959Y-9614D01*
X-25995Y-9578D01*
X-26033Y-9544D01*
X-26074Y-9514D01*
X-26116Y-9487D01*
X-26161Y-9463D01*
X-26208Y-9443D01*
X-26256Y-9426D01*
X-26305Y-9413D01*
X-26355Y-9404D01*
X-26406Y-9399D01*
X-26456Y-9398D01*
X-26563Y-9402D01*
X-26670Y-9409D01*
X-26777Y-9421D01*
X-26883Y-9436D01*
X-26988Y-9456D01*
X-27093Y-9479D01*
X-27196Y-9506D01*
X-27299Y-9537D01*
X-27400Y-9572D01*
X-27500Y-9610D01*
X-27599Y-9652D01*
X-27473Y-11175D02*
X-27519Y-11196D01*
X-27564Y-11220D01*
X-27606Y-11248D01*
X-27647Y-11278D01*
X-27685Y-11312D01*
X-27720Y-11349D01*
X-27752Y-11388D01*
X-27782Y-11429D01*
X-27807Y-11473D01*
X-27830Y-11519D01*
X-27849Y-11566D01*
X-27864Y-11614D01*
X-27875Y-11664D01*
X-27883Y-11714D01*
X-27887Y-11765D01*
X-27886Y-11815D01*
X-27882Y-11866D01*
X-27874Y-11916D01*
X-27862Y-11966D01*
X-27847Y-12014D01*
X-27827Y-12061D01*
X-27804Y-12106D01*
X-27778Y-12150D01*
X-27749Y-12191D01*
X-27716Y-12230D01*
X-27680Y-12266D01*
X-27642Y-12300D01*
X-27601Y-12330D01*
X-27559Y-12357D01*
X-27514Y-12381D01*
X-27467Y-12401D01*
X-27419Y-12418D01*
X-27370Y-12431D01*
X-27320Y-12440D01*
X-27269Y-12445D01*
X-27219Y-12446D01*
X-27218Y-12447D02*
X-27089Y-12443D01*
X-26959Y-12435D01*
X-26830Y-12423D01*
X-26701Y-12408D01*
X-26573Y-12389D01*
X-26446Y-12365D01*
X-26319Y-12338D01*
X-26193Y-12308D01*
X-26068Y-12273D01*
X-25944Y-12235D01*
X-25821Y-12193D01*
X-29631Y-12954D02*
X-31663Y-7366D01*
X-34209Y-12446D02*
X-35225Y-12446D01*
X-34209Y-12446D02*
X-34155Y-12444D01*
X-34101Y-12438D01*
X-34047Y-12429D01*
X-33994Y-12415D01*
X-33943Y-12398D01*
X-33892Y-12377D01*
X-33844Y-12353D01*
X-33797Y-12325D01*
X-33752Y-12294D01*
X-33710Y-12260D01*
X-33670Y-12223D01*
X-33633Y-12183D01*
X-33599Y-12141D01*
X-33568Y-12096D01*
X-33540Y-12049D01*
X-33516Y-12001D01*
X-33495Y-11950D01*
X-33478Y-11899D01*
X-33464Y-11846D01*
X-33455Y-11792D01*
X-33449Y-11738D01*
X-33447Y-11684D01*
X-33447Y-10160D01*
X-33449Y-10106D01*
X-33455Y-10052D01*
X-33464Y-9998D01*
X-33478Y-9945D01*
X-33495Y-9894D01*
X-33516Y-9843D01*
X-33540Y-9795D01*
X-33568Y-9748D01*
X-33599Y-9703D01*
X-33633Y-9661D01*
X-33670Y-9621D01*
X-33710Y-9584D01*
X-33752Y-9550D01*
X-33797Y-9519D01*
X-33844Y-9491D01*
X-33892Y-9467D01*
X-33943Y-9446D01*
X-33994Y-9429D01*
X-34047Y-9415D01*
X-34101Y-9406D01*
X-34155Y-9400D01*
X-34209Y-9398D01*
X-35225Y-9398D01*
X-37708Y-12446D02*
X-38978Y-12446D01*
X-37708Y-12446D02*
X-37654Y-12444D01*
X-37600Y-12438D01*
X-37546Y-12429D01*
X-37493Y-12415D01*
X-37442Y-12398D01*
X-37391Y-12377D01*
X-37343Y-12353D01*
X-37296Y-12325D01*
X-37251Y-12294D01*
X-37209Y-12260D01*
X-37169Y-12223D01*
X-37132Y-12183D01*
X-37098Y-12141D01*
X-37067Y-12096D01*
X-37039Y-12049D01*
X-37015Y-12001D01*
X-36994Y-11950D01*
X-36977Y-11899D01*
X-36963Y-11846D01*
X-36954Y-11792D01*
X-36948Y-11738D01*
X-36946Y-11684D01*
X-36946Y-10414D01*
X-36948Y-10351D01*
X-36954Y-10289D01*
X-36963Y-10227D01*
X-36977Y-10166D01*
X-36994Y-10106D01*
X-37015Y-10047D01*
X-37039Y-9989D01*
X-37067Y-9933D01*
X-37098Y-9879D01*
X-37133Y-9827D01*
X-37170Y-9777D01*
X-37211Y-9730D01*
X-37255Y-9685D01*
X-37301Y-9642D01*
X-37350Y-9603D01*
X-37401Y-9567D01*
X-37454Y-9534D01*
X-37509Y-9505D01*
X-37566Y-9478D01*
X-37624Y-9456D01*
X-37684Y-9437D01*
X-37745Y-9422D01*
X-37806Y-9410D01*
X-37868Y-9402D01*
X-37931Y-9398D01*
X-37993Y-9398D01*
X-38056Y-9402D01*
X-38118Y-9410D01*
X-38179Y-9422D01*
X-38240Y-9437D01*
X-38300Y-9456D01*
X-38358Y-9478D01*
X-38415Y-9505D01*
X-38470Y-9534D01*
X-38523Y-9567D01*
X-38574Y-9603D01*
X-38623Y-9642D01*
X-38669Y-9685D01*
X-38713Y-9730D01*
X-38754Y-9777D01*
X-38791Y-9827D01*
X-38826Y-9879D01*
X-38857Y-9933D01*
X-38885Y-9989D01*
X-38909Y-10047D01*
X-38930Y-10106D01*
X-38947Y-10166D01*
X-38961Y-10227D01*
X-38970Y-10289D01*
X-38976Y-10351D01*
X-38978Y-10414D01*
X-38978Y-10922D01*
X-36946Y-10922D01*
X-40957Y-11684D02*
X-40957Y-7874D01*
X-40957Y-11684D02*
X-40959Y-11738D01*
X-40965Y-11792D01*
X-40974Y-11846D01*
X-40988Y-11899D01*
X-41005Y-11950D01*
X-41026Y-12001D01*
X-41050Y-12049D01*
X-41078Y-12096D01*
X-41109Y-12141D01*
X-41143Y-12183D01*
X-41180Y-12223D01*
X-41220Y-12260D01*
X-41262Y-12294D01*
X-41307Y-12325D01*
X-41354Y-12353D01*
X-41402Y-12377D01*
X-41453Y-12398D01*
X-41504Y-12415D01*
X-41557Y-12429D01*
X-41611Y-12438D01*
X-41665Y-12444D01*
X-41719Y-12446D01*
X-43296Y-12446D02*
X-43296Y-9398D01*
X-43169Y-8128D02*
X-43169Y-7874D01*
X-43423Y-7874D01*
X-43423Y-8128D01*
X-43169Y-8128D01*
X-45389Y-7874D02*
X-45389Y-12446D01*
X-45389Y-10922D02*
X-47421Y-9398D01*
X-46278Y-10287D02*
X-47421Y-12446D01*
X-50001Y-10668D02*
X-51144Y-10668D01*
X-50001Y-10668D02*
X-49943Y-10670D01*
X-49885Y-10676D01*
X-49828Y-10685D01*
X-49771Y-10698D01*
X-49715Y-10715D01*
X-49661Y-10736D01*
X-49608Y-10760D01*
X-49557Y-10787D01*
X-49507Y-10818D01*
X-49460Y-10852D01*
X-49415Y-10889D01*
X-49372Y-10928D01*
X-49333Y-10971D01*
X-49296Y-11016D01*
X-49262Y-11063D01*
X-49231Y-11112D01*
X-49204Y-11164D01*
X-49180Y-11217D01*
X-49159Y-11271D01*
X-49142Y-11327D01*
X-49129Y-11384D01*
X-49120Y-11441D01*
X-49114Y-11499D01*
X-49112Y-11557D01*
X-49114Y-11615D01*
X-49120Y-11673D01*
X-49129Y-11730D01*
X-49142Y-11787D01*
X-49159Y-11843D01*
X-49180Y-11897D01*
X-49204Y-11950D01*
X-49231Y-12001D01*
X-49262Y-12051D01*
X-49296Y-12098D01*
X-49333Y-12143D01*
X-49372Y-12186D01*
X-49415Y-12225D01*
X-49460Y-12262D01*
X-49507Y-12296D01*
X-49557Y-12327D01*
X-49608Y-12354D01*
X-49661Y-12378D01*
X-49715Y-12399D01*
X-49771Y-12416D01*
X-49828Y-12429D01*
X-49885Y-12438D01*
X-49943Y-12444D01*
X-50001Y-12446D01*
X-51144Y-12446D01*
X-51144Y-10160D01*
X-51142Y-10106D01*
X-51136Y-10052D01*
X-51127Y-9998D01*
X-51113Y-9945D01*
X-51096Y-9894D01*
X-51075Y-9843D01*
X-51051Y-9795D01*
X-51023Y-9748D01*
X-50992Y-9703D01*
X-50958Y-9661D01*
X-50921Y-9621D01*
X-50881Y-9584D01*
X-50839Y-9550D01*
X-50794Y-9519D01*
X-50747Y-9491D01*
X-50699Y-9467D01*
X-50648Y-9446D01*
X-50597Y-9429D01*
X-50544Y-9415D01*
X-50490Y-9406D01*
X-50436Y-9400D01*
X-50382Y-9398D01*
X-49366Y-9398D01*
X-55258Y-7874D02*
X-55258Y-12446D01*
X-53988Y-12446D01*
X-53934Y-12444D01*
X-53880Y-12438D01*
X-53826Y-12429D01*
X-53773Y-12415D01*
X-53722Y-12398D01*
X-53671Y-12377D01*
X-53623Y-12353D01*
X-53576Y-12325D01*
X-53531Y-12294D01*
X-53489Y-12260D01*
X-53449Y-12223D01*
X-53412Y-12183D01*
X-53378Y-12141D01*
X-53347Y-12096D01*
X-53319Y-12049D01*
X-53295Y-12001D01*
X-53274Y-11950D01*
X-53257Y-11899D01*
X-53243Y-11846D01*
X-53234Y-11792D01*
X-53228Y-11738D01*
X-53226Y-11684D01*
X-53226Y-10160D01*
X-53228Y-10106D01*
X-53234Y-10052D01*
X-53243Y-9998D01*
X-53257Y-9945D01*
X-53274Y-9894D01*
X-53295Y-9843D01*
X-53319Y-9795D01*
X-53347Y-9748D01*
X-53378Y-9703D01*
X-53412Y-9661D01*
X-53449Y-9621D01*
X-53489Y-9584D01*
X-53531Y-9550D01*
X-53576Y-9519D01*
X-53623Y-9491D01*
X-53671Y-9467D01*
X-53722Y-9446D01*
X-53773Y-9429D01*
X-53826Y-9415D01*
X-53880Y-9406D01*
X-53934Y-9400D01*
X-53988Y-9398D01*
X-55258Y-9398D01*
X-58230Y-10668D02*
X-59373Y-10668D01*
X-58230Y-10668D02*
X-58172Y-10670D01*
X-58114Y-10676D01*
X-58057Y-10685D01*
X-58000Y-10698D01*
X-57944Y-10715D01*
X-57890Y-10736D01*
X-57837Y-10760D01*
X-57786Y-10787D01*
X-57736Y-10818D01*
X-57689Y-10852D01*
X-57644Y-10889D01*
X-57601Y-10928D01*
X-57562Y-10971D01*
X-57525Y-11016D01*
X-57491Y-11063D01*
X-57460Y-11112D01*
X-57433Y-11164D01*
X-57409Y-11217D01*
X-57388Y-11271D01*
X-57371Y-11327D01*
X-57358Y-11384D01*
X-57349Y-11441D01*
X-57343Y-11499D01*
X-57341Y-11557D01*
X-57343Y-11615D01*
X-57349Y-11673D01*
X-57358Y-11730D01*
X-57371Y-11787D01*
X-57388Y-11843D01*
X-57409Y-11897D01*
X-57433Y-11950D01*
X-57460Y-12001D01*
X-57491Y-12051D01*
X-57525Y-12098D01*
X-57562Y-12143D01*
X-57601Y-12186D01*
X-57644Y-12225D01*
X-57689Y-12262D01*
X-57736Y-12296D01*
X-57786Y-12327D01*
X-57837Y-12354D01*
X-57890Y-12378D01*
X-57944Y-12399D01*
X-58000Y-12416D01*
X-58057Y-12429D01*
X-58114Y-12438D01*
X-58172Y-12444D01*
X-58230Y-12446D01*
X-59373Y-12446D01*
X-59373Y-10160D01*
X-59371Y-10106D01*
X-59365Y-10052D01*
X-59356Y-9998D01*
X-59342Y-9945D01*
X-59325Y-9894D01*
X-59304Y-9843D01*
X-59280Y-9795D01*
X-59252Y-9748D01*
X-59221Y-9703D01*
X-59187Y-9661D01*
X-59150Y-9621D01*
X-59110Y-9584D01*
X-59068Y-9550D01*
X-59023Y-9519D01*
X-58976Y-9491D01*
X-58928Y-9467D01*
X-58877Y-9446D01*
X-58826Y-9429D01*
X-58773Y-9415D01*
X-58719Y-9406D01*
X-58665Y-9400D01*
X-58611Y-9398D01*
X-57595Y-9398D01*
X-61330Y-12954D02*
X-63362Y-7366D01*
X-65419Y-7874D02*
X-65419Y-12446D01*
X-65419Y-7874D02*
X-66689Y-7874D01*
X-66759Y-7876D01*
X-66829Y-7882D01*
X-66898Y-7891D01*
X-66967Y-7905D01*
X-67035Y-7922D01*
X-67101Y-7943D01*
X-67167Y-7967D01*
X-67231Y-7995D01*
X-67293Y-8027D01*
X-67354Y-8062D01*
X-67413Y-8100D01*
X-67469Y-8142D01*
X-67523Y-8186D01*
X-67575Y-8234D01*
X-67623Y-8284D01*
X-67669Y-8337D01*
X-67712Y-8392D01*
X-67752Y-8449D01*
X-67789Y-8509D01*
X-67822Y-8571D01*
X-67852Y-8634D01*
X-67878Y-8699D01*
X-67901Y-8765D01*
X-67920Y-8832D01*
X-67935Y-8901D01*
X-67947Y-8970D01*
X-67955Y-9039D01*
X-67959Y-9109D01*
X-67959Y-9179D01*
X-67955Y-9249D01*
X-67947Y-9318D01*
X-67935Y-9387D01*
X-67920Y-9456D01*
X-67901Y-9523D01*
X-67878Y-9589D01*
X-67852Y-9654D01*
X-67822Y-9717D01*
X-67789Y-9779D01*
X-67752Y-9839D01*
X-67712Y-9896D01*
X-67669Y-9951D01*
X-67623Y-10004D01*
X-67575Y-10054D01*
X-67523Y-10102D01*
X-67469Y-10146D01*
X-67413Y-10188D01*
X-67354Y-10226D01*
X-67293Y-10261D01*
X-67231Y-10293D01*
X-67167Y-10321D01*
X-67101Y-10345D01*
X-67035Y-10366D01*
X-66967Y-10383D01*
X-66898Y-10397D01*
X-66829Y-10406D01*
X-66759Y-10412D01*
X-66689Y-10414D01*
X-65419Y-10414D01*
X-69661Y-9398D02*
X-69661Y-12446D01*
X-69534Y-8128D02*
X-69534Y-7874D01*
X-69788Y-7874D01*
X-69788Y-8128D01*
X-69534Y-8128D01*
X-72309Y-12446D02*
X-73325Y-12446D01*
X-72309Y-12446D02*
X-72255Y-12444D01*
X-72201Y-12438D01*
X-72147Y-12429D01*
X-72094Y-12415D01*
X-72043Y-12398D01*
X-71992Y-12377D01*
X-71944Y-12353D01*
X-71897Y-12325D01*
X-71852Y-12294D01*
X-71810Y-12260D01*
X-71770Y-12223D01*
X-71733Y-12183D01*
X-71699Y-12141D01*
X-71668Y-12096D01*
X-71640Y-12049D01*
X-71616Y-12001D01*
X-71595Y-11950D01*
X-71578Y-11899D01*
X-71564Y-11846D01*
X-71555Y-11792D01*
X-71549Y-11738D01*
X-71547Y-11684D01*
X-71547Y-10160D01*
X-71549Y-10106D01*
X-71555Y-10052D01*
X-71564Y-9998D01*
X-71578Y-9945D01*
X-71595Y-9894D01*
X-71616Y-9843D01*
X-71640Y-9795D01*
X-71668Y-9748D01*
X-71699Y-9703D01*
X-71733Y-9661D01*
X-71770Y-9621D01*
X-71810Y-9584D01*
X-71852Y-9550D01*
X-71897Y-9519D01*
X-71944Y-9491D01*
X-71992Y-9467D01*
X-72043Y-9446D01*
X-72094Y-9429D01*
X-72147Y-9415D01*
X-72201Y-9406D01*
X-72255Y-9400D01*
X-72309Y-9398D01*
X-73325Y-9398D01*
X-74649Y-9398D02*
X-76173Y-9398D01*
X-75157Y-7874D02*
X-75157Y-11684D01*
X-75159Y-11738D01*
X-75165Y-11792D01*
X-75174Y-11846D01*
X-75188Y-11899D01*
X-75205Y-11950D01*
X-75226Y-12001D01*
X-75250Y-12049D01*
X-75278Y-12096D01*
X-75309Y-12141D01*
X-75343Y-12183D01*
X-75380Y-12223D01*
X-75420Y-12260D01*
X-75462Y-12294D01*
X-75507Y-12325D01*
X-75554Y-12353D01*
X-75602Y-12377D01*
X-75653Y-12398D01*
X-75704Y-12415D01*
X-75757Y-12429D01*
X-75811Y-12438D01*
X-75865Y-12444D01*
X-75919Y-12446D01*
X-76173Y-12446D01*
X-78094Y-11684D02*
X-78094Y-9398D01*
X-78094Y-11684D02*
X-78096Y-11738D01*
X-78102Y-11792D01*
X-78111Y-11846D01*
X-78125Y-11899D01*
X-78142Y-11950D01*
X-78163Y-12001D01*
X-78187Y-12049D01*
X-78215Y-12096D01*
X-78246Y-12141D01*
X-78280Y-12183D01*
X-78317Y-12223D01*
X-78357Y-12260D01*
X-78399Y-12294D01*
X-78444Y-12325D01*
X-78491Y-12353D01*
X-78539Y-12377D01*
X-78590Y-12398D01*
X-78641Y-12415D01*
X-78694Y-12429D01*
X-78748Y-12438D01*
X-78802Y-12444D01*
X-78856Y-12446D01*
X-80126Y-12446D01*
X-80126Y-9398D01*
X-82391Y-9398D02*
X-82391Y-12446D01*
X-82391Y-9398D02*
X-83915Y-9398D01*
X-83915Y-9906D01*
X-86171Y-12446D02*
X-87441Y-12446D01*
X-86171Y-12446D02*
X-86117Y-12444D01*
X-86063Y-12438D01*
X-86009Y-12429D01*
X-85956Y-12415D01*
X-85905Y-12398D01*
X-85854Y-12377D01*
X-85806Y-12353D01*
X-85759Y-12325D01*
X-85714Y-12294D01*
X-85672Y-12260D01*
X-85632Y-12223D01*
X-85595Y-12183D01*
X-85561Y-12141D01*
X-85530Y-12096D01*
X-85502Y-12049D01*
X-85478Y-12001D01*
X-85457Y-11950D01*
X-85440Y-11899D01*
X-85426Y-11846D01*
X-85417Y-11792D01*
X-85411Y-11738D01*
X-85409Y-11684D01*
X-85409Y-10414D01*
X-85411Y-10351D01*
X-85417Y-10289D01*
X-85426Y-10227D01*
X-85440Y-10166D01*
X-85457Y-10106D01*
X-85478Y-10047D01*
X-85502Y-9989D01*
X-85530Y-9933D01*
X-85561Y-9879D01*
X-85596Y-9827D01*
X-85633Y-9777D01*
X-85674Y-9730D01*
X-85718Y-9685D01*
X-85764Y-9642D01*
X-85813Y-9603D01*
X-85864Y-9567D01*
X-85917Y-9534D01*
X-85972Y-9505D01*
X-86029Y-9478D01*
X-86087Y-9456D01*
X-86147Y-9437D01*
X-86208Y-9422D01*
X-86269Y-9410D01*
X-86331Y-9402D01*
X-86394Y-9398D01*
X-86456Y-9398D01*
X-86519Y-9402D01*
X-86581Y-9410D01*
X-86642Y-9422D01*
X-86703Y-9437D01*
X-86763Y-9456D01*
X-86821Y-9478D01*
X-86878Y-9505D01*
X-86933Y-9534D01*
X-86986Y-9567D01*
X-87037Y-9603D01*
X-87086Y-9642D01*
X-87132Y-9685D01*
X-87176Y-9730D01*
X-87217Y-9777D01*
X-87254Y-9827D01*
X-87289Y-9879D01*
X-87320Y-9933D01*
X-87348Y-9989D01*
X-87372Y-10047D01*
X-87393Y-10106D01*
X-87410Y-10166D01*
X-87424Y-10227D01*
X-87433Y-10289D01*
X-87439Y-10351D01*
X-87441Y-10414D01*
X-87441Y-10922D01*
X-85409Y-10922D01*
X-89752Y-10668D02*
X-91022Y-11176D01*
X-89752Y-10669D02*
X-89706Y-10648D01*
X-89661Y-10624D01*
X-89619Y-10596D01*
X-89578Y-10566D01*
X-89540Y-10532D01*
X-89505Y-10495D01*
X-89473Y-10456D01*
X-89443Y-10415D01*
X-89418Y-10371D01*
X-89395Y-10325D01*
X-89376Y-10278D01*
X-89361Y-10230D01*
X-89350Y-10180D01*
X-89342Y-10130D01*
X-89338Y-10079D01*
X-89339Y-10029D01*
X-89343Y-9978D01*
X-89351Y-9928D01*
X-89363Y-9878D01*
X-89378Y-9830D01*
X-89398Y-9783D01*
X-89421Y-9738D01*
X-89447Y-9694D01*
X-89476Y-9653D01*
X-89509Y-9614D01*
X-89545Y-9578D01*
X-89583Y-9544D01*
X-89624Y-9514D01*
X-89666Y-9487D01*
X-89711Y-9463D01*
X-89758Y-9443D01*
X-89806Y-9426D01*
X-89855Y-9413D01*
X-89905Y-9404D01*
X-89956Y-9399D01*
X-90006Y-9398D01*
X-90113Y-9402D01*
X-90220Y-9409D01*
X-90327Y-9421D01*
X-90433Y-9436D01*
X-90538Y-9456D01*
X-90643Y-9479D01*
X-90746Y-9506D01*
X-90849Y-9537D01*
X-90950Y-9572D01*
X-91050Y-9610D01*
X-91149Y-9652D01*
X-91023Y-11175D02*
X-91069Y-11196D01*
X-91114Y-11220D01*
X-91156Y-11248D01*
X-91197Y-11278D01*
X-91235Y-11312D01*
X-91270Y-11349D01*
X-91302Y-11388D01*
X-91332Y-11429D01*
X-91357Y-11473D01*
X-91380Y-11519D01*
X-91399Y-11566D01*
X-91414Y-11614D01*
X-91425Y-11664D01*
X-91433Y-11714D01*
X-91437Y-11765D01*
X-91436Y-11815D01*
X-91432Y-11866D01*
X-91424Y-11916D01*
X-91412Y-11966D01*
X-91397Y-12014D01*
X-91377Y-12061D01*
X-91354Y-12106D01*
X-91328Y-12150D01*
X-91299Y-12191D01*
X-91266Y-12230D01*
X-91230Y-12266D01*
X-91192Y-12300D01*
X-91151Y-12330D01*
X-91109Y-12357D01*
X-91064Y-12381D01*
X-91017Y-12401D01*
X-90969Y-12418D01*
X-90920Y-12431D01*
X-90870Y-12440D01*
X-90819Y-12445D01*
X-90769Y-12446D01*
X-90768Y-12447D02*
X-90639Y-12443D01*
X-90509Y-12435D01*
X-90380Y-12423D01*
X-90251Y-12408D01*
X-90123Y-12389D01*
X-89996Y-12365D01*
X-89869Y-12338D01*
X-89743Y-12308D01*
X-89618Y-12273D01*
X-89494Y-12235D01*
X-89371Y-12193D01*
X-93181Y-12954D02*
X-95213Y-7366D01*
X-96940Y-9398D02*
X-96940Y-12446D01*
X-96813Y-8128D02*
X-96813Y-7874D01*
X-97067Y-7874D01*
X-97067Y-8128D01*
X-96813Y-8128D01*
X-99074Y-9398D02*
X-99074Y-12446D01*
X-99074Y-9398D02*
X-101360Y-9398D01*
X-101414Y-9400D01*
X-101468Y-9406D01*
X-101522Y-9415D01*
X-101575Y-9429D01*
X-101626Y-9446D01*
X-101677Y-9467D01*
X-101725Y-9491D01*
X-101772Y-9519D01*
X-101817Y-9550D01*
X-101859Y-9584D01*
X-101899Y-9621D01*
X-101936Y-9661D01*
X-101970Y-9703D01*
X-102001Y-9748D01*
X-102029Y-9795D01*
X-102053Y-9843D01*
X-102074Y-9894D01*
X-102091Y-9945D01*
X-102105Y-9998D01*
X-102114Y-10052D01*
X-102120Y-10106D01*
X-102122Y-10160D01*
X-102122Y-12446D01*
X-100598Y-12446D02*
X-100598Y-9398D01*
X-105169Y-10668D02*
X-106312Y-10668D01*
X-105169Y-10668D02*
X-105111Y-10670D01*
X-105053Y-10676D01*
X-104996Y-10685D01*
X-104939Y-10698D01*
X-104883Y-10715D01*
X-104829Y-10736D01*
X-104776Y-10760D01*
X-104725Y-10787D01*
X-104675Y-10818D01*
X-104628Y-10852D01*
X-104583Y-10889D01*
X-104540Y-10928D01*
X-104501Y-10971D01*
X-104464Y-11016D01*
X-104430Y-11063D01*
X-104399Y-11112D01*
X-104372Y-11164D01*
X-104348Y-11217D01*
X-104327Y-11271D01*
X-104310Y-11327D01*
X-104297Y-11384D01*
X-104288Y-11441D01*
X-104282Y-11499D01*
X-104280Y-11557D01*
X-104282Y-11615D01*
X-104288Y-11673D01*
X-104297Y-11730D01*
X-104310Y-11787D01*
X-104327Y-11843D01*
X-104348Y-11897D01*
X-104372Y-11950D01*
X-104399Y-12001D01*
X-104430Y-12051D01*
X-104464Y-12098D01*
X-104501Y-12143D01*
X-104540Y-12186D01*
X-104583Y-12225D01*
X-104628Y-12262D01*
X-104675Y-12296D01*
X-104725Y-12327D01*
X-104776Y-12354D01*
X-104829Y-12378D01*
X-104883Y-12399D01*
X-104939Y-12416D01*
X-104996Y-12429D01*
X-105053Y-12438D01*
X-105111Y-12444D01*
X-105169Y-12446D01*
X-106312Y-12446D01*
X-106312Y-10160D01*
X-106310Y-10106D01*
X-106304Y-10052D01*
X-106295Y-9998D01*
X-106281Y-9945D01*
X-106264Y-9894D01*
X-106243Y-9843D01*
X-106219Y-9795D01*
X-106191Y-9748D01*
X-106160Y-9703D01*
X-106126Y-9661D01*
X-106089Y-9621D01*
X-106049Y-9584D01*
X-106007Y-9550D01*
X-105962Y-9519D01*
X-105915Y-9491D01*
X-105867Y-9467D01*
X-105816Y-9446D01*
X-105765Y-9429D01*
X-105712Y-9415D01*
X-105658Y-9406D01*
X-105604Y-9400D01*
X-105550Y-9398D01*
X-104534Y-9398D01*
X-109156Y-12446D02*
X-110426Y-12446D01*
X-109156Y-12446D02*
X-109102Y-12444D01*
X-109048Y-12438D01*
X-108994Y-12429D01*
X-108941Y-12415D01*
X-108890Y-12398D01*
X-108839Y-12377D01*
X-108791Y-12353D01*
X-108744Y-12325D01*
X-108699Y-12294D01*
X-108657Y-12260D01*
X-108617Y-12223D01*
X-108580Y-12183D01*
X-108546Y-12141D01*
X-108515Y-12096D01*
X-108487Y-12049D01*
X-108463Y-12001D01*
X-108442Y-11950D01*
X-108425Y-11899D01*
X-108411Y-11846D01*
X-108402Y-11792D01*
X-108396Y-11738D01*
X-108394Y-11684D01*
X-108394Y-10160D01*
X-108396Y-10106D01*
X-108402Y-10052D01*
X-108411Y-9998D01*
X-108425Y-9945D01*
X-108442Y-9894D01*
X-108463Y-9843D01*
X-108487Y-9795D01*
X-108515Y-9748D01*
X-108546Y-9703D01*
X-108580Y-9661D01*
X-108617Y-9621D01*
X-108657Y-9584D01*
X-108699Y-9550D01*
X-108744Y-9519D01*
X-108791Y-9491D01*
X-108839Y-9467D01*
X-108890Y-9446D01*
X-108941Y-9429D01*
X-108994Y-9415D01*
X-109048Y-9406D01*
X-109102Y-9400D01*
X-109156Y-9398D01*
X-110426Y-9398D01*
X-110426Y-13208D01*
X-110424Y-13262D01*
X-110418Y-13316D01*
X-110409Y-13370D01*
X-110395Y-13423D01*
X-110378Y-13474D01*
X-110357Y-13525D01*
X-110333Y-13573D01*
X-110305Y-13620D01*
X-110274Y-13665D01*
X-110240Y-13707D01*
X-110203Y-13747D01*
X-110163Y-13784D01*
X-110121Y-13818D01*
X-110076Y-13849D01*
X-110029Y-13877D01*
X-109981Y-13901D01*
X-109930Y-13922D01*
X-109879Y-13939D01*
X-109826Y-13953D01*
X-109772Y-13962D01*
X-109718Y-13968D01*
X-109664Y-13970D01*
X-108648Y-13970D01*
X-113298Y-12446D02*
X-114568Y-12446D01*
X-113298Y-12446D02*
X-113244Y-12444D01*
X-113190Y-12438D01*
X-113136Y-12429D01*
X-113083Y-12415D01*
X-113032Y-12398D01*
X-112981Y-12377D01*
X-112933Y-12353D01*
X-112886Y-12325D01*
X-112841Y-12294D01*
X-112799Y-12260D01*
X-112759Y-12223D01*
X-112722Y-12183D01*
X-112688Y-12141D01*
X-112657Y-12096D01*
X-112629Y-12049D01*
X-112605Y-12001D01*
X-112584Y-11950D01*
X-112567Y-11899D01*
X-112553Y-11846D01*
X-112544Y-11792D01*
X-112538Y-11738D01*
X-112536Y-11684D01*
X-112536Y-10414D01*
X-112538Y-10351D01*
X-112544Y-10289D01*
X-112553Y-10227D01*
X-112567Y-10166D01*
X-112584Y-10106D01*
X-112605Y-10047D01*
X-112629Y-9989D01*
X-112657Y-9933D01*
X-112688Y-9879D01*
X-112723Y-9827D01*
X-112760Y-9777D01*
X-112801Y-9730D01*
X-112845Y-9685D01*
X-112891Y-9642D01*
X-112940Y-9603D01*
X-112991Y-9567D01*
X-113044Y-9534D01*
X-113099Y-9505D01*
X-113156Y-9478D01*
X-113214Y-9456D01*
X-113274Y-9437D01*
X-113335Y-9422D01*
X-113396Y-9410D01*
X-113458Y-9402D01*
X-113521Y-9398D01*
X-113583Y-9398D01*
X-113646Y-9402D01*
X-113708Y-9410D01*
X-113769Y-9422D01*
X-113830Y-9437D01*
X-113890Y-9456D01*
X-113948Y-9478D01*
X-114005Y-9505D01*
X-114060Y-9534D01*
X-114113Y-9567D01*
X-114164Y-9603D01*
X-114213Y-9642D01*
X-114259Y-9685D01*
X-114303Y-9730D01*
X-114344Y-9777D01*
X-114381Y-9827D01*
X-114416Y-9879D01*
X-114447Y-9933D01*
X-114475Y-9989D01*
X-114499Y-10047D01*
X-114520Y-10106D01*
X-114537Y-10166D01*
X-114551Y-10227D01*
X-114560Y-10289D01*
X-114566Y-10351D01*
X-114568Y-10414D01*
X-114568Y-10922D01*
X-112536Y-10922D01*
X-116879Y-10668D02*
X-118149Y-11176D01*
X-116879Y-10669D02*
X-116833Y-10648D01*
X-116788Y-10624D01*
X-116746Y-10596D01*
X-116705Y-10566D01*
X-116667Y-10532D01*
X-116632Y-10495D01*
X-116600Y-10456D01*
X-116570Y-10415D01*
X-116545Y-10371D01*
X-116522Y-10325D01*
X-116503Y-10278D01*
X-116488Y-10230D01*
X-116477Y-10180D01*
X-116469Y-10130D01*
X-116465Y-10079D01*
X-116466Y-10029D01*
X-116470Y-9978D01*
X-116478Y-9928D01*
X-116490Y-9878D01*
X-116505Y-9830D01*
X-116525Y-9783D01*
X-116548Y-9738D01*
X-116574Y-9694D01*
X-116603Y-9653D01*
X-116636Y-9614D01*
X-116672Y-9578D01*
X-116710Y-9544D01*
X-116751Y-9514D01*
X-116793Y-9487D01*
X-116838Y-9463D01*
X-116885Y-9443D01*
X-116933Y-9426D01*
X-116982Y-9413D01*
X-117032Y-9404D01*
X-117083Y-9399D01*
X-117133Y-9398D01*
X-117240Y-9402D01*
X-117347Y-9409D01*
X-117454Y-9421D01*
X-117560Y-9436D01*
X-117665Y-9456D01*
X-117770Y-9479D01*
X-117873Y-9506D01*
X-117976Y-9537D01*
X-118077Y-9572D01*
X-118177Y-9610D01*
X-118276Y-9652D01*
X-118149Y-11175D02*
X-118195Y-11196D01*
X-118240Y-11220D01*
X-118282Y-11248D01*
X-118323Y-11278D01*
X-118361Y-11312D01*
X-118396Y-11349D01*
X-118428Y-11388D01*
X-118458Y-11429D01*
X-118483Y-11473D01*
X-118506Y-11519D01*
X-118525Y-11566D01*
X-118540Y-11614D01*
X-118551Y-11664D01*
X-118559Y-11714D01*
X-118563Y-11765D01*
X-118562Y-11815D01*
X-118558Y-11866D01*
X-118550Y-11916D01*
X-118538Y-11966D01*
X-118523Y-12014D01*
X-118503Y-12061D01*
X-118480Y-12106D01*
X-118454Y-12150D01*
X-118425Y-12191D01*
X-118392Y-12230D01*
X-118356Y-12266D01*
X-118318Y-12300D01*
X-118277Y-12330D01*
X-118235Y-12357D01*
X-118190Y-12381D01*
X-118143Y-12401D01*
X-118095Y-12418D01*
X-118046Y-12431D01*
X-117996Y-12440D01*
X-117945Y-12445D01*
X-117895Y-12446D01*
X-117895Y-12447D02*
X-117766Y-12443D01*
X-117636Y-12435D01*
X-117507Y-12423D01*
X-117378Y-12408D01*
X-117250Y-12389D01*
X-117123Y-12365D01*
X-116996Y-12338D01*
X-116870Y-12308D01*
X-116745Y-12273D01*
X-116621Y-12235D01*
X-116498Y-12193D01*
X-120283Y-12192D02*
X-120283Y-12446D01*
X-120283Y-12192D02*
X-120537Y-12192D01*
X-120537Y-12446D01*
X-120283Y-12446D01*
X-122468Y-12446D02*
X-122468Y-7874D01*
X-122468Y-12446D02*
X-123738Y-12446D01*
X-123792Y-12444D01*
X-123846Y-12438D01*
X-123900Y-12429D01*
X-123953Y-12415D01*
X-124004Y-12398D01*
X-124055Y-12377D01*
X-124103Y-12353D01*
X-124150Y-12325D01*
X-124195Y-12294D01*
X-124237Y-12260D01*
X-124277Y-12223D01*
X-124314Y-12183D01*
X-124348Y-12141D01*
X-124379Y-12096D01*
X-124407Y-12049D01*
X-124431Y-12001D01*
X-124452Y-11950D01*
X-124469Y-11899D01*
X-124483Y-11846D01*
X-124492Y-11792D01*
X-124498Y-11738D01*
X-124500Y-11684D01*
X-124500Y-10160D01*
X-124498Y-10106D01*
X-124492Y-10052D01*
X-124483Y-9998D01*
X-124469Y-9945D01*
X-124452Y-9894D01*
X-124431Y-9843D01*
X-124407Y-9795D01*
X-124379Y-9748D01*
X-124348Y-9703D01*
X-124314Y-9661D01*
X-124277Y-9621D01*
X-124237Y-9584D01*
X-124195Y-9550D01*
X-124150Y-9519D01*
X-124103Y-9491D01*
X-124055Y-9467D01*
X-124004Y-9446D01*
X-123953Y-9429D01*
X-123900Y-9415D01*
X-123846Y-9406D01*
X-123792Y-9400D01*
X-123738Y-9398D01*
X-122468Y-9398D01*
X-126658Y-9398D02*
X-126658Y-12446D01*
X-126658Y-9398D02*
X-128944Y-9398D01*
X-128998Y-9400D01*
X-129052Y-9406D01*
X-129106Y-9415D01*
X-129159Y-9429D01*
X-129210Y-9446D01*
X-129261Y-9467D01*
X-129309Y-9491D01*
X-129356Y-9519D01*
X-129401Y-9550D01*
X-129443Y-9584D01*
X-129483Y-9621D01*
X-129520Y-9661D01*
X-129554Y-9703D01*
X-129585Y-9748D01*
X-129613Y-9795D01*
X-129637Y-9843D01*
X-129658Y-9894D01*
X-129675Y-9945D01*
X-129689Y-9998D01*
X-129698Y-10052D01*
X-129704Y-10106D01*
X-129706Y-10160D01*
X-129706Y-12446D01*
X-128182Y-12446D02*
X-128182Y-9398D01*
X-132069Y-9398D02*
X-132069Y-13970D01*
X-132069Y-9398D02*
X-133339Y-9398D01*
X-133393Y-9400D01*
X-133447Y-9406D01*
X-133501Y-9415D01*
X-133554Y-9429D01*
X-133605Y-9446D01*
X-133656Y-9467D01*
X-133704Y-9491D01*
X-133751Y-9519D01*
X-133796Y-9550D01*
X-133838Y-9584D01*
X-133878Y-9621D01*
X-133915Y-9661D01*
X-133949Y-9703D01*
X-133980Y-9748D01*
X-134008Y-9795D01*
X-134032Y-9843D01*
X-134053Y-9894D01*
X-134070Y-9945D01*
X-134084Y-9998D01*
X-134093Y-10052D01*
X-134099Y-10106D01*
X-134101Y-10160D01*
X-134101Y-11684D01*
X-134099Y-11738D01*
X-134093Y-11792D01*
X-134084Y-11846D01*
X-134070Y-11899D01*
X-134053Y-11950D01*
X-134032Y-12001D01*
X-134008Y-12049D01*
X-133980Y-12096D01*
X-133949Y-12141D01*
X-133915Y-12183D01*
X-133878Y-12223D01*
X-133838Y-12260D01*
X-133796Y-12294D01*
X-133751Y-12325D01*
X-133704Y-12353D01*
X-133656Y-12377D01*
X-133605Y-12398D01*
X-133554Y-12415D01*
X-133501Y-12429D01*
X-133447Y-12438D01*
X-133393Y-12444D01*
X-133339Y-12446D01*
X-132069Y-12446D01*
M02*
