G04 EAGLE Gerber RS-274X export*
G75*
%MOMM*%
%FSLAX34Y34*%
%LPD*%
%AMOC8*
5,1,8,0,0,1.08239X$1,22.5*%
G01*
%ADD10R,1.200000X0.800000*%
%ADD11R,1.200000X1.200000*%
%ADD12R,1.270000X1.470000*%
%ADD13R,0.800000X1.200000*%
%ADD14R,1.780000X3.200000*%
%ADD15R,1.498600X2.006600*%
%ADD16R,3.810000X2.006600*%
%ADD17R,2.800000X2.400000*%
%ADD18R,6.200000X5.400000*%
%ADD19R,1.600000X1.000000*%
%ADD20C,1.422400*%
%ADD21R,1.470000X1.270000*%
%ADD22R,3.810000X2.082800*%
%ADD23R,8.890000X11.430000*%
%ADD24C,1.524000*%
%ADD25R,1.308000X1.308000*%
%ADD26C,1.308000*%
%ADD27C,1.879600*%
%ADD28C,2.095500*%
%ADD29R,1.500000X0.400000*%
%ADD30C,1.320800*%
%ADD31R,1.600000X3.000000*%
%ADD32C,0.127000*%
%ADD33C,0.101600*%
%ADD34C,2.100000*%
%ADD35P,1.632244X8X292.500000*%
%ADD36C,0.300000*%
%ADD37C,0.906400*%


D10*
X442500Y178500D03*
X442500Y196500D03*
D11*
X648000Y165000D03*
X627000Y165000D03*
D12*
X679000Y75000D03*
X636000Y75000D03*
D13*
X439000Y42500D03*
X421000Y42500D03*
X599000Y165000D03*
X581000Y165000D03*
D14*
X609900Y100000D03*
X560100Y100000D03*
D15*
X545106Y231496D03*
X522246Y231496D03*
X499386Y231496D03*
D16*
X522500Y168504D03*
D17*
X810000Y43000D03*
X810000Y157000D03*
X749000Y43000D03*
X749000Y157000D03*
D18*
X437500Y105000D03*
D19*
X510500Y82200D03*
X510500Y127800D03*
D13*
X496000Y37500D03*
X514000Y37500D03*
D20*
X600200Y32888D02*
X600200Y47112D01*
X574800Y47112D02*
X574800Y32888D01*
D10*
X412500Y914000D03*
X412500Y896000D03*
D21*
X170000Y883500D03*
X170000Y926500D03*
D22*
X371400Y859600D03*
X371400Y910400D03*
D23*
X257100Y885000D03*
D10*
X712500Y589000D03*
X712500Y571000D03*
D24*
X772380Y620000D02*
X787620Y620000D01*
X787620Y595000D02*
X772380Y595000D01*
X772380Y570000D02*
X787620Y570000D01*
D10*
X715000Y731500D03*
X715000Y713500D03*
D24*
X772380Y762500D02*
X787620Y762500D01*
X787620Y737500D02*
X772380Y737500D01*
X772380Y712500D02*
X787620Y712500D01*
D10*
X415000Y784000D03*
X415000Y766000D03*
D21*
X170000Y738500D03*
X170000Y781500D03*
D22*
X371400Y729600D03*
X371400Y780400D03*
D23*
X257100Y755000D03*
D25*
X346375Y129250D03*
X346375Y205450D03*
D26*
X346375Y154650D03*
X346375Y180050D03*
X371775Y180050D03*
X371775Y154650D03*
X371775Y129250D03*
X371775Y205450D03*
D27*
X626200Y633000D03*
X626200Y658400D03*
X626200Y683800D03*
X626200Y709200D03*
X626200Y734600D03*
X626200Y760000D03*
X626200Y785400D03*
X626200Y810800D03*
X626200Y836200D03*
X626200Y861600D03*
X626200Y887000D03*
X626200Y912400D03*
X473800Y912400D03*
X473800Y887000D03*
X473800Y861600D03*
X473800Y836200D03*
X473800Y810800D03*
X473800Y785400D03*
X473800Y760000D03*
X473800Y734600D03*
X473800Y709200D03*
X473800Y683800D03*
X473800Y658400D03*
X473800Y633000D03*
D28*
X78778Y904500D02*
X57823Y904500D01*
X57823Y853700D02*
X78778Y853700D01*
X78778Y650500D02*
X57823Y650500D01*
X57823Y802900D02*
X78778Y802900D01*
X78778Y752100D02*
X57823Y752100D01*
X57823Y701300D02*
X78778Y701300D01*
X81278Y319500D02*
X60323Y319500D01*
X60323Y268700D02*
X81278Y268700D01*
X81278Y65500D02*
X60323Y65500D01*
X60323Y217900D02*
X81278Y217900D01*
X81278Y167100D02*
X60323Y167100D01*
X60323Y116300D02*
X81278Y116300D01*
D10*
X415000Y634000D03*
X415000Y616000D03*
D21*
X172500Y611000D03*
X172500Y654000D03*
D22*
X373900Y599600D03*
X373900Y650400D03*
D23*
X259600Y625000D03*
D10*
X712500Y874000D03*
X712500Y856000D03*
D24*
X772380Y905000D02*
X787620Y905000D01*
X787620Y880000D02*
X772380Y880000D01*
X772380Y855000D02*
X787620Y855000D01*
D10*
X132500Y184000D03*
X132500Y166000D03*
X132500Y134000D03*
X132500Y116000D03*
X132500Y84000D03*
X132500Y66000D03*
D29*
X368750Y382250D03*
X368750Y375750D03*
X368750Y369250D03*
X368750Y362750D03*
X368750Y356250D03*
X368750Y349750D03*
X368750Y343250D03*
X368750Y336750D03*
X368750Y330250D03*
X368750Y323750D03*
X368750Y317250D03*
X368750Y310750D03*
X368750Y304250D03*
X368750Y297750D03*
X441250Y297750D03*
X441250Y304250D03*
X441250Y310750D03*
X441250Y317250D03*
X441250Y323750D03*
X441250Y330250D03*
X441250Y336750D03*
X441250Y343250D03*
X441250Y349750D03*
X441250Y356250D03*
X441250Y362750D03*
X441250Y369250D03*
X441250Y375750D03*
X441250Y382250D03*
D13*
X324000Y312500D03*
X306000Y312500D03*
X324000Y340000D03*
X306000Y340000D03*
X339000Y285000D03*
X321000Y285000D03*
D30*
X505870Y420000D03*
X554130Y420000D03*
D13*
X503500Y340000D03*
X521500Y340000D03*
X503500Y367500D03*
X521500Y367500D03*
D10*
X560000Y358500D03*
X560000Y376500D03*
X602500Y358500D03*
X602500Y376500D03*
X602500Y303500D03*
X602500Y321500D03*
X560000Y303500D03*
X560000Y321500D03*
D13*
X521500Y315000D03*
X503500Y315000D03*
D10*
X602500Y431500D03*
X602500Y413500D03*
D13*
X521500Y287500D03*
X503500Y287500D03*
D31*
X310000Y388000D03*
X310000Y432000D03*
D13*
X781500Y467500D03*
X763500Y467500D03*
X781500Y497500D03*
X763500Y497500D03*
D32*
X200000Y361470D02*
X200000Y333530D01*
X202540Y333530D02*
X202540Y344960D01*
X211430Y336070D01*
X197460Y350040D02*
X188570Y358930D01*
X197460Y361470D02*
X197460Y350040D01*
X191110Y361471D02*
X191449Y361680D01*
X191793Y361881D01*
X192142Y362074D01*
X192495Y362258D01*
X192853Y362433D01*
X193215Y362600D01*
X193581Y362758D01*
X193951Y362907D01*
X194324Y363046D01*
X194701Y363177D01*
X195080Y363298D01*
X195463Y363411D01*
X195848Y363513D01*
X196235Y363607D01*
X196625Y363691D01*
X197016Y363765D01*
X197409Y363830D01*
X197804Y363885D01*
X198200Y363931D01*
X198597Y363967D01*
X198995Y363993D01*
X199393Y364010D01*
X199791Y364017D01*
X200190Y364014D01*
X200588Y364001D01*
X200986Y363979D01*
X201383Y363947D01*
X201780Y363906D01*
X202175Y363855D01*
X202569Y363794D01*
X202961Y363724D01*
X203351Y363644D01*
X203740Y363554D01*
X204126Y363455D01*
X204509Y363347D01*
X204890Y363230D01*
X205268Y363103D01*
X205643Y362967D01*
X206014Y362822D01*
X206382Y362668D01*
X206745Y362505D01*
X207105Y362333D01*
X207460Y362153D01*
X207811Y361964D01*
X208157Y361767D01*
X208499Y361561D01*
X208835Y361347D01*
X209165Y361124D01*
X209491Y360894D01*
X209810Y360656D01*
X210124Y360410D01*
X210432Y360157D01*
X210733Y359896D01*
X211028Y359628D01*
X211316Y359353D01*
X211598Y359071D01*
X211872Y358782D01*
X212140Y358486D01*
X212400Y358184D01*
X212653Y357876D01*
X212898Y357562D01*
X213135Y357242D01*
X213365Y356916D01*
X213586Y356585D01*
X213800Y356248D01*
X214005Y355907D01*
X214202Y355560D01*
X214390Y355209D01*
X214570Y354853D01*
X214741Y354493D01*
X214903Y354129D01*
X215056Y353761D01*
X215200Y353390D01*
X215335Y353015D01*
X215461Y352637D01*
X215578Y352256D01*
X215685Y351872D01*
X215783Y351485D01*
X215872Y351097D01*
X215951Y350706D01*
X216021Y350314D01*
X216080Y349920D01*
X216131Y349525D01*
X216172Y349128D01*
X216203Y348731D01*
X216224Y348333D01*
X216236Y347935D01*
X216238Y347536D01*
X216230Y347138D01*
X216212Y346739D01*
X216185Y346342D01*
X216148Y345945D01*
X216102Y345549D01*
X216046Y345155D01*
X215980Y344761D01*
X215905Y344370D01*
X215820Y343981D01*
X215726Y343593D01*
X215622Y343209D01*
X215509Y342826D01*
X215387Y342447D01*
X215256Y342071D01*
X215115Y341698D01*
X214965Y341329D01*
X214807Y340963D01*
X214639Y340601D01*
X214463Y340244D01*
X214278Y339891D01*
X214085Y339542D01*
X213883Y339199D01*
X213673Y338860D01*
X213455Y338527D01*
X213229Y338199D01*
X212994Y337876D01*
X212752Y337560D01*
X212503Y337249D01*
X212245Y336945D01*
X211981Y336646D01*
X211709Y336355D01*
X211430Y336070D01*
X208890Y333529D02*
X208551Y333320D01*
X208207Y333119D01*
X207858Y332926D01*
X207505Y332742D01*
X207147Y332567D01*
X206785Y332400D01*
X206419Y332242D01*
X206049Y332093D01*
X205676Y331954D01*
X205299Y331823D01*
X204920Y331702D01*
X204537Y331589D01*
X204152Y331487D01*
X203765Y331393D01*
X203375Y331309D01*
X202984Y331235D01*
X202591Y331170D01*
X202196Y331115D01*
X201800Y331069D01*
X201403Y331033D01*
X201005Y331007D01*
X200607Y330990D01*
X200209Y330983D01*
X199810Y330986D01*
X199412Y330999D01*
X199014Y331021D01*
X198617Y331053D01*
X198220Y331094D01*
X197825Y331145D01*
X197431Y331206D01*
X197039Y331276D01*
X196649Y331356D01*
X196260Y331446D01*
X195874Y331545D01*
X195491Y331653D01*
X195110Y331770D01*
X194732Y331897D01*
X194357Y332033D01*
X193986Y332178D01*
X193618Y332332D01*
X193255Y332495D01*
X192895Y332667D01*
X192540Y332847D01*
X192189Y333036D01*
X191843Y333233D01*
X191501Y333439D01*
X191165Y333653D01*
X190835Y333876D01*
X190509Y334106D01*
X190190Y334344D01*
X189876Y334590D01*
X189568Y334843D01*
X189267Y335104D01*
X188972Y335372D01*
X188684Y335647D01*
X188402Y335929D01*
X188128Y336218D01*
X187860Y336514D01*
X187600Y336816D01*
X187347Y337124D01*
X187102Y337438D01*
X186865Y337758D01*
X186635Y338084D01*
X186414Y338415D01*
X186200Y338752D01*
X185995Y339093D01*
X185798Y339440D01*
X185610Y339791D01*
X185430Y340147D01*
X185259Y340507D01*
X185097Y340871D01*
X184944Y341239D01*
X184800Y341610D01*
X184665Y341985D01*
X184539Y342363D01*
X184422Y342744D01*
X184315Y343128D01*
X184217Y343515D01*
X184128Y343903D01*
X184049Y344294D01*
X183979Y344686D01*
X183920Y345080D01*
X183869Y345475D01*
X183828Y345872D01*
X183797Y346269D01*
X183776Y346667D01*
X183764Y347065D01*
X183762Y347464D01*
X183770Y347862D01*
X183788Y348261D01*
X183815Y348658D01*
X183852Y349055D01*
X183898Y349451D01*
X183954Y349845D01*
X184020Y350239D01*
X184095Y350630D01*
X184180Y351019D01*
X184274Y351407D01*
X184378Y351791D01*
X184491Y352174D01*
X184613Y352553D01*
X184744Y352929D01*
X184885Y353302D01*
X185035Y353671D01*
X185193Y354037D01*
X185361Y354399D01*
X185537Y354756D01*
X185722Y355109D01*
X185915Y355458D01*
X186117Y355801D01*
X186327Y356140D01*
X186545Y356473D01*
X186771Y356801D01*
X187006Y357124D01*
X187248Y357440D01*
X187497Y357751D01*
X187755Y358055D01*
X188019Y358354D01*
X188291Y358645D01*
X188570Y358930D01*
D33*
X170056Y325402D02*
X170056Y313718D01*
X168758Y313718D02*
X171354Y313718D01*
X171354Y325402D02*
X168758Y325402D01*
X175955Y322156D02*
X175955Y316964D01*
X175954Y322156D02*
X175956Y322269D01*
X175962Y322382D01*
X175972Y322495D01*
X175986Y322608D01*
X176003Y322720D01*
X176025Y322831D01*
X176050Y322941D01*
X176080Y323051D01*
X176113Y323159D01*
X176150Y323266D01*
X176190Y323372D01*
X176235Y323476D01*
X176283Y323579D01*
X176334Y323680D01*
X176389Y323779D01*
X176447Y323876D01*
X176509Y323971D01*
X176574Y324064D01*
X176642Y324154D01*
X176713Y324242D01*
X176788Y324328D01*
X176865Y324411D01*
X176945Y324491D01*
X177028Y324568D01*
X177114Y324643D01*
X177202Y324714D01*
X177292Y324782D01*
X177385Y324847D01*
X177480Y324909D01*
X177577Y324967D01*
X177676Y325022D01*
X177777Y325073D01*
X177880Y325121D01*
X177984Y325166D01*
X178090Y325206D01*
X178197Y325243D01*
X178305Y325276D01*
X178415Y325306D01*
X178525Y325331D01*
X178636Y325353D01*
X178748Y325370D01*
X178861Y325384D01*
X178974Y325394D01*
X179087Y325400D01*
X179200Y325402D01*
X179313Y325400D01*
X179426Y325394D01*
X179539Y325384D01*
X179652Y325370D01*
X179764Y325353D01*
X179875Y325331D01*
X179985Y325306D01*
X180095Y325276D01*
X180203Y325243D01*
X180310Y325206D01*
X180416Y325166D01*
X180520Y325121D01*
X180623Y325073D01*
X180724Y325022D01*
X180823Y324967D01*
X180920Y324909D01*
X181015Y324847D01*
X181108Y324782D01*
X181198Y324714D01*
X181286Y324643D01*
X181372Y324568D01*
X181455Y324491D01*
X181535Y324411D01*
X181612Y324328D01*
X181687Y324242D01*
X181758Y324154D01*
X181826Y324064D01*
X181891Y323971D01*
X181953Y323876D01*
X182011Y323779D01*
X182066Y323680D01*
X182117Y323579D01*
X182165Y323476D01*
X182210Y323372D01*
X182250Y323266D01*
X182287Y323159D01*
X182320Y323051D01*
X182350Y322941D01*
X182375Y322831D01*
X182397Y322720D01*
X182414Y322608D01*
X182428Y322495D01*
X182438Y322382D01*
X182444Y322269D01*
X182446Y322156D01*
X182446Y316964D01*
X182444Y316851D01*
X182438Y316738D01*
X182428Y316625D01*
X182414Y316512D01*
X182397Y316400D01*
X182375Y316289D01*
X182350Y316179D01*
X182320Y316069D01*
X182287Y315961D01*
X182250Y315854D01*
X182210Y315748D01*
X182165Y315644D01*
X182117Y315541D01*
X182066Y315440D01*
X182011Y315341D01*
X181953Y315244D01*
X181891Y315149D01*
X181826Y315056D01*
X181758Y314966D01*
X181687Y314878D01*
X181612Y314792D01*
X181535Y314709D01*
X181455Y314629D01*
X181372Y314552D01*
X181286Y314477D01*
X181198Y314406D01*
X181108Y314338D01*
X181015Y314273D01*
X180920Y314211D01*
X180823Y314153D01*
X180724Y314098D01*
X180623Y314047D01*
X180520Y313999D01*
X180416Y313954D01*
X180310Y313914D01*
X180203Y313877D01*
X180095Y313844D01*
X179985Y313814D01*
X179875Y313789D01*
X179764Y313767D01*
X179652Y313750D01*
X179539Y313736D01*
X179426Y313726D01*
X179313Y313720D01*
X179200Y313718D01*
X179087Y313720D01*
X178974Y313726D01*
X178861Y313736D01*
X178748Y313750D01*
X178636Y313767D01*
X178525Y313789D01*
X178415Y313814D01*
X178305Y313844D01*
X178197Y313877D01*
X178090Y313914D01*
X177984Y313954D01*
X177880Y313999D01*
X177777Y314047D01*
X177676Y314098D01*
X177577Y314153D01*
X177480Y314211D01*
X177385Y314273D01*
X177292Y314338D01*
X177202Y314406D01*
X177114Y314477D01*
X177028Y314552D01*
X176945Y314629D01*
X176865Y314709D01*
X176788Y314792D01*
X176713Y314878D01*
X176642Y314966D01*
X176574Y315056D01*
X176509Y315149D01*
X176447Y315244D01*
X176389Y315341D01*
X176334Y315440D01*
X176283Y315541D01*
X176235Y315644D01*
X176190Y315748D01*
X176150Y315854D01*
X176113Y315961D01*
X176080Y316069D01*
X176050Y316179D01*
X176025Y316289D01*
X176003Y316400D01*
X175986Y316512D01*
X175972Y316625D01*
X175962Y316738D01*
X175956Y316851D01*
X175954Y316964D01*
X189868Y313718D02*
X189868Y325402D01*
X186623Y325402D02*
X193114Y325402D01*
X197694Y313718D02*
X202887Y313718D01*
X197694Y313718D02*
X197694Y325402D01*
X202887Y325402D01*
X201589Y320209D02*
X197694Y320209D01*
X209760Y313718D02*
X212356Y313718D01*
X209760Y313718D02*
X209661Y313720D01*
X209561Y313726D01*
X209462Y313735D01*
X209364Y313748D01*
X209266Y313765D01*
X209168Y313786D01*
X209072Y313811D01*
X208977Y313839D01*
X208883Y313871D01*
X208790Y313906D01*
X208698Y313945D01*
X208608Y313988D01*
X208520Y314033D01*
X208433Y314083D01*
X208349Y314135D01*
X208266Y314191D01*
X208186Y314249D01*
X208108Y314311D01*
X208033Y314376D01*
X207960Y314444D01*
X207890Y314514D01*
X207822Y314587D01*
X207757Y314662D01*
X207695Y314740D01*
X207637Y314820D01*
X207581Y314903D01*
X207529Y314987D01*
X207479Y315074D01*
X207434Y315162D01*
X207391Y315252D01*
X207352Y315344D01*
X207317Y315437D01*
X207285Y315531D01*
X207257Y315626D01*
X207232Y315722D01*
X207211Y315820D01*
X207194Y315918D01*
X207181Y316016D01*
X207172Y316115D01*
X207166Y316215D01*
X207164Y316314D01*
X207163Y316314D02*
X207163Y322806D01*
X207164Y322806D02*
X207166Y322905D01*
X207172Y323005D01*
X207181Y323104D01*
X207194Y323202D01*
X207211Y323300D01*
X207232Y323398D01*
X207257Y323494D01*
X207285Y323589D01*
X207317Y323683D01*
X207352Y323776D01*
X207391Y323868D01*
X207434Y323958D01*
X207479Y324046D01*
X207529Y324133D01*
X207581Y324217D01*
X207637Y324300D01*
X207695Y324380D01*
X207757Y324458D01*
X207822Y324533D01*
X207890Y324606D01*
X207960Y324676D01*
X208033Y324744D01*
X208108Y324809D01*
X208186Y324871D01*
X208266Y324929D01*
X208349Y324985D01*
X208433Y325037D01*
X208520Y325087D01*
X208608Y325132D01*
X208698Y325175D01*
X208790Y325214D01*
X208882Y325249D01*
X208977Y325281D01*
X209072Y325309D01*
X209168Y325334D01*
X209266Y325355D01*
X209364Y325372D01*
X209462Y325385D01*
X209561Y325394D01*
X209661Y325400D01*
X209760Y325402D01*
X212356Y325402D01*
X217103Y325402D02*
X217103Y313718D01*
X217103Y320209D02*
X223594Y320209D01*
X223594Y325402D02*
X223594Y313718D01*
D34*
X722700Y275750D03*
X722700Y430650D03*
D26*
X808400Y419450D03*
X808400Y394050D03*
X808400Y312350D03*
X808400Y286950D03*
X664300Y397600D03*
X664300Y372200D03*
X664300Y346800D03*
X664300Y321400D03*
X689700Y385000D03*
X689700Y359600D03*
X689700Y334200D03*
X689700Y308800D03*
D24*
X122620Y449400D02*
X107380Y449400D01*
X107380Y474800D02*
X122620Y474800D01*
X122620Y500200D02*
X107380Y500200D01*
X107380Y525600D02*
X122620Y525600D01*
D35*
X115000Y405000D03*
D36*
X89375Y925375D02*
X169125Y925375D01*
X89375Y925375D02*
X68750Y904750D01*
X169125Y925375D02*
X170000Y926500D01*
X68750Y904750D02*
X68300Y904500D01*
X88000Y782375D02*
X169125Y782375D01*
X77688Y792688D02*
X68750Y801625D01*
X77688Y792688D02*
X88000Y782375D01*
X169125Y782375D02*
X170000Y781500D01*
X68750Y801625D02*
X68300Y802900D01*
X512875Y79750D02*
X512875Y38500D01*
X512875Y79750D02*
X511500Y81125D01*
X512875Y38500D02*
X514000Y37500D01*
X511500Y81125D02*
X510500Y82200D01*
X514250Y39875D02*
X574750Y39875D01*
X574800Y40000D01*
X514250Y39875D02*
X514000Y37500D01*
X533500Y99000D02*
X559625Y99000D01*
X533500Y99000D02*
X514250Y79750D01*
X559625Y99000D02*
X560100Y100000D01*
X514250Y79750D02*
X510500Y82200D01*
X171875Y654500D02*
X121000Y654500D01*
X74250Y701250D01*
X68750Y701250D01*
X171875Y654500D02*
X172500Y654000D01*
X68750Y701250D02*
X68300Y701300D01*
X70125Y617375D02*
X70125Y320375D01*
X70125Y617375D02*
X42625Y644875D01*
X42625Y673750D01*
X68750Y699875D01*
X70125Y320375D02*
X70800Y319500D01*
X68750Y699875D02*
X68300Y701300D01*
X512875Y37125D02*
X501875Y26125D01*
X78375Y26125D01*
X45375Y59125D01*
X45375Y294250D01*
X70125Y319000D01*
X512875Y37125D02*
X514000Y37500D01*
X70800Y319500D02*
X70125Y319000D01*
X42625Y757625D02*
X77000Y792000D01*
X42625Y757625D02*
X42625Y727375D01*
X67375Y702625D01*
X77000Y792000D02*
X77688Y792688D01*
X67375Y702625D02*
X68300Y701300D01*
X67375Y884125D02*
X67375Y903375D01*
X67375Y884125D02*
X42625Y859375D01*
X42625Y827750D01*
X67375Y803000D01*
X67375Y903375D02*
X68300Y904500D01*
X67375Y803000D02*
X68300Y802900D01*
X316250Y286000D02*
X320375Y286000D01*
X316250Y286000D02*
X297000Y305250D01*
X297000Y350625D02*
X297000Y375375D01*
X297000Y350625D02*
X297000Y305250D01*
X297000Y375375D02*
X309375Y387750D01*
X320375Y286000D02*
X321000Y285000D01*
X309375Y387750D02*
X310000Y388000D01*
X335500Y317625D02*
X368500Y317625D01*
X335500Y317625D02*
X323125Y330000D01*
X317625Y330000D01*
X314875Y332750D01*
X314875Y347875D01*
X312125Y350625D01*
X298375Y350625D01*
X368500Y317625D02*
X368750Y317250D01*
X298375Y350625D02*
X297000Y350625D01*
X196625Y474375D02*
X115500Y474375D01*
X196625Y474375D02*
X295625Y375375D01*
X115500Y474375D02*
X115000Y474800D01*
X295625Y375375D02*
X297000Y375375D01*
X132000Y92125D02*
X132000Y85250D01*
X132000Y92125D02*
X122375Y101750D01*
X122375Y123750D01*
X132000Y133375D01*
X132000Y85250D02*
X132500Y84000D01*
X132000Y133375D02*
X132500Y134000D01*
X143000Y173250D02*
X133375Y182875D01*
X143000Y159500D02*
X143000Y144375D01*
X143000Y159500D02*
X143000Y173250D01*
X143000Y144375D02*
X133375Y134750D01*
X133375Y182875D02*
X132500Y184000D01*
X133375Y134750D02*
X132500Y134000D01*
X71500Y248875D02*
X71500Y268125D01*
X71500Y248875D02*
X132000Y188375D01*
X132000Y184250D01*
X71500Y268125D02*
X70800Y268700D01*
X132000Y184250D02*
X132500Y184000D01*
X440000Y41250D02*
X492250Y41250D01*
X495000Y38500D01*
X440000Y41250D02*
X439000Y42500D01*
X495000Y38500D02*
X496000Y37500D01*
X441375Y108625D02*
X441375Y140250D01*
X441375Y177375D01*
X441375Y108625D02*
X438625Y105875D01*
X441375Y177375D02*
X442500Y178500D01*
X438625Y105875D02*
X437500Y105000D01*
X356125Y129250D02*
X346500Y129250D01*
X356125Y129250D02*
X367125Y140250D01*
X440000Y140250D01*
X346500Y129250D02*
X346375Y129250D01*
X440000Y140250D02*
X441375Y140250D01*
X438625Y41250D02*
X435875Y41250D01*
X426250Y31625D01*
X415250Y31625D01*
X412500Y34375D01*
X412500Y79750D01*
X437250Y104500D01*
X439000Y42500D02*
X438625Y41250D01*
X437250Y104500D02*
X437500Y105000D01*
X314875Y159500D02*
X144375Y159500D01*
X314875Y159500D02*
X345125Y129250D01*
X144375Y159500D02*
X143000Y159500D01*
X345125Y129250D02*
X346375Y129250D01*
X316250Y159500D02*
X316250Y284625D01*
X316250Y286000D01*
X316250Y159500D02*
X314875Y159500D01*
X374000Y913000D02*
X412500Y913000D01*
X374000Y913000D02*
X372625Y911625D01*
X412500Y913000D02*
X412500Y914000D01*
X372625Y911625D02*
X371400Y910400D01*
X415250Y783750D02*
X426250Y772750D01*
X426250Y704000D01*
X393938Y671688D02*
X374000Y651750D01*
X393938Y671688D02*
X424188Y701938D01*
X426250Y704000D01*
X415250Y783750D02*
X415000Y784000D01*
X374000Y651750D02*
X373900Y650400D01*
X371250Y765875D02*
X371250Y779625D01*
X371250Y765875D02*
X347875Y742500D01*
X347875Y717750D01*
X393250Y672375D01*
X371250Y779625D02*
X371400Y780400D01*
X393250Y672375D02*
X393938Y671688D01*
X371250Y895125D02*
X371250Y910250D01*
X371250Y895125D02*
X347875Y871750D01*
X347875Y804375D01*
X371250Y781000D01*
X371250Y910250D02*
X371400Y910400D01*
X371250Y781000D02*
X371400Y780400D01*
X415250Y635250D02*
X451000Y635250D01*
X473000Y657250D01*
X415250Y635250D02*
X415000Y634000D01*
X473000Y657250D02*
X473800Y658400D01*
X378125Y375375D02*
X369875Y375375D01*
X378125Y375375D02*
X380875Y378125D01*
X380875Y556875D01*
X350625Y587125D01*
X350625Y611875D01*
X368500Y629750D01*
X409750Y629750D01*
X413875Y633875D01*
X368750Y375750D02*
X369875Y375375D01*
X413875Y633875D02*
X415000Y634000D01*
X424875Y701250D02*
X424188Y701938D01*
X441375Y317625D02*
X451000Y317625D01*
X453750Y320375D01*
X453750Y334125D01*
X451000Y336875D01*
X441375Y336875D01*
X441375Y317625D02*
X441250Y317250D01*
X441250Y336750D02*
X441375Y336875D01*
X441375Y338250D02*
X441375Y342375D01*
X441250Y343250D01*
X441375Y338250D02*
X441250Y336750D01*
X522500Y353375D02*
X522500Y367125D01*
X522500Y353375D02*
X522500Y341000D01*
X521500Y340000D01*
X522500Y367125D02*
X521500Y367500D01*
X504625Y287375D02*
X504625Y273625D01*
X545875Y232375D01*
X504625Y287375D02*
X503500Y287500D01*
X545875Y232375D02*
X545106Y231496D01*
X503250Y314875D02*
X496375Y314875D01*
X492250Y310750D01*
X492250Y291500D02*
X500500Y291500D01*
X503250Y288750D01*
X503250Y314875D02*
X503500Y315000D01*
X503250Y288750D02*
X503500Y287500D01*
X644875Y165000D02*
X647625Y165000D01*
X613938Y195938D02*
X577500Y232375D01*
X613938Y195938D02*
X644875Y165000D01*
X577500Y232375D02*
X547250Y232375D01*
X647625Y165000D02*
X648000Y165000D01*
X547250Y232375D02*
X545106Y231496D01*
X522500Y353375D02*
X521125Y353375D01*
X477125Y320375D02*
X455125Y320375D01*
X453750Y320375D01*
X800250Y885500D02*
X781000Y904750D01*
X800250Y885500D02*
X800250Y782375D01*
X781000Y763125D01*
X781000Y904750D02*
X780000Y905000D01*
X781000Y763125D02*
X780000Y762500D01*
X690250Y398750D02*
X665500Y398750D01*
X690250Y398750D02*
X721875Y430375D01*
X665500Y398750D02*
X664300Y397600D01*
X721875Y430375D02*
X722700Y430650D01*
X809875Y188375D02*
X809875Y158125D01*
X741125Y257125D02*
X723250Y275000D01*
X741125Y257125D02*
X767938Y230313D01*
X809875Y188375D01*
X809875Y158125D02*
X810000Y157000D01*
X723250Y275000D02*
X722700Y275750D01*
X808500Y302500D02*
X808500Y312125D01*
X808500Y302500D02*
X819500Y291500D01*
X819500Y281875D01*
X768625Y231000D01*
X808500Y312125D02*
X808400Y312350D01*
X768625Y231000D02*
X767938Y230313D01*
X730125Y431750D02*
X723250Y431750D01*
X730125Y431750D02*
X739750Y441375D01*
X765875Y441375D01*
X807125Y400125D01*
X807125Y394625D01*
X723250Y431750D02*
X722700Y430650D01*
X807125Y394625D02*
X808400Y394050D01*
X741125Y257125D02*
X649000Y165000D01*
X648000Y165000D01*
X389125Y378125D02*
X382250Y378125D01*
X380875Y378125D01*
X492250Y83875D02*
X492250Y42625D01*
X492250Y83875D02*
X562375Y154000D01*
X585750Y154000D01*
X589875Y158125D01*
X589875Y171875D01*
X613250Y195250D01*
X492250Y42625D02*
X496000Y37500D01*
X613250Y195250D02*
X613938Y195938D01*
D37*
X424875Y701250D03*
X492250Y310750D03*
X492250Y291500D03*
X521125Y353375D03*
X477125Y320375D03*
X389125Y378125D03*
D36*
X599500Y165000D02*
X627000Y165000D01*
X599500Y165000D02*
X599000Y165000D01*
X679250Y74250D02*
X779625Y74250D01*
X809875Y44000D01*
X679250Y74250D02*
X679000Y75000D01*
X809875Y44000D02*
X810000Y43000D01*
X452375Y72875D02*
X422125Y42625D01*
X452375Y72875D02*
X470250Y72875D01*
X510125Y112750D01*
X510125Y126500D01*
X422125Y42625D02*
X421000Y42500D01*
X510125Y126500D02*
X510500Y127800D01*
X499125Y140250D02*
X499125Y231000D01*
X499125Y140250D02*
X510125Y129250D01*
X499125Y231000D02*
X499386Y231496D01*
X510125Y129250D02*
X510500Y127800D01*
X610500Y100375D02*
X635250Y75625D01*
X636000Y75000D01*
X610500Y100375D02*
X609900Y100000D01*
X635250Y75625D02*
X600875Y41250D01*
X600200Y40000D01*
X635250Y75625D02*
X636000Y75000D01*
X255750Y884125D02*
X170500Y884125D01*
X170000Y883500D01*
X255750Y884125D02*
X257100Y885000D01*
X140250Y853875D02*
X68750Y853875D01*
X140250Y853875D02*
X169125Y882750D01*
X68750Y853875D02*
X68300Y853700D01*
X169125Y882750D02*
X170000Y883500D01*
X369875Y343750D02*
X378125Y343750D01*
X418000Y383625D01*
X418000Y528000D01*
X503250Y613250D01*
X507375Y613250D01*
X507375Y666875D02*
X507375Y853875D01*
X474375Y886875D01*
X369875Y343750D02*
X368750Y343250D01*
X474375Y886875D02*
X473800Y887000D01*
D37*
X507375Y613250D03*
X507375Y666875D03*
D36*
X132000Y166375D02*
X71500Y166375D01*
X132000Y166375D02*
X132500Y166000D01*
X71500Y166375D02*
X70800Y167100D01*
X170500Y739750D02*
X240625Y739750D01*
X255750Y754875D01*
X170500Y739750D02*
X170000Y738500D01*
X255750Y754875D02*
X257100Y755000D01*
X158125Y750750D02*
X68750Y750750D01*
X158125Y750750D02*
X169125Y739750D01*
X68750Y750750D02*
X68300Y752100D01*
X169125Y739750D02*
X170000Y738500D01*
X369875Y363000D02*
X386375Y363000D01*
X412500Y389125D01*
X412500Y530750D01*
X616000Y734250D01*
X625625Y734250D01*
X369875Y363000D02*
X368750Y362750D01*
X625625Y734250D02*
X626200Y734600D01*
X413875Y616000D02*
X389125Y616000D01*
X374000Y600875D01*
X413875Y616000D02*
X415000Y616000D01*
X374000Y600875D02*
X373900Y599600D01*
X625625Y804375D02*
X625625Y809875D01*
X625625Y804375D02*
X526625Y705375D01*
X526625Y666875D01*
X477125Y617375D01*
X415250Y617375D01*
X625625Y809875D02*
X626200Y810800D01*
X415250Y617375D02*
X415000Y616000D01*
X413875Y765875D02*
X408375Y765875D01*
X372625Y730125D01*
X413875Y765875D02*
X415000Y766000D01*
X372625Y730125D02*
X371400Y729600D01*
X567875Y837375D02*
X625625Y837375D01*
X567875Y837375D02*
X478500Y926750D01*
X468875Y926750D01*
X404250Y862125D01*
X404250Y771375D01*
X408375Y767250D01*
X625625Y837375D02*
X626200Y836200D01*
X408375Y767250D02*
X408375Y765875D01*
X713625Y874500D02*
X774125Y874500D01*
X779625Y880000D01*
X713625Y874500D02*
X712500Y874000D01*
X779625Y880000D02*
X780000Y880000D01*
X368500Y336875D02*
X358875Y336875D01*
X323125Y372625D01*
X323125Y404250D01*
X314875Y412500D01*
X299750Y412500D01*
X297000Y415250D01*
X297000Y545875D01*
X345125Y594000D01*
X345125Y614625D01*
X365750Y635250D01*
X394625Y635250D01*
X434500Y675125D01*
X434500Y797500D01*
X473000Y836000D01*
X368500Y336875D02*
X368750Y336750D01*
X473000Y836000D02*
X473800Y836200D01*
X368500Y349250D02*
X360250Y349250D01*
X332750Y376750D01*
X287375Y422125D02*
X287375Y544500D01*
X339625Y596750D01*
X339625Y666875D01*
X368750Y349750D02*
X368500Y349250D01*
D37*
X332750Y376750D03*
X287375Y422125D03*
X339625Y666875D03*
D36*
X347875Y339625D02*
X324500Y339625D01*
X347875Y339625D02*
X357500Y330000D01*
X368500Y330000D01*
X324500Y339625D02*
X324000Y340000D01*
X368500Y330000D02*
X368750Y330250D01*
X369875Y330000D02*
X378125Y330000D01*
X423500Y375375D01*
X423500Y521125D01*
X497750Y595375D01*
X517000Y688875D02*
X517000Y869000D01*
X474375Y911625D01*
X368750Y330250D02*
X369875Y330000D01*
X474375Y911625D02*
X473800Y912400D01*
D37*
X497750Y595375D03*
X517000Y688875D03*
D36*
X412500Y895125D02*
X407000Y895125D01*
X372625Y860750D01*
X412500Y895125D02*
X412500Y896000D01*
X372625Y860750D02*
X371400Y859600D01*
X551375Y862125D02*
X625625Y862125D01*
X551375Y862125D02*
X481250Y932250D01*
X449625Y932250D01*
X413875Y896500D01*
X625625Y862125D02*
X626200Y861600D01*
X413875Y896500D02*
X412500Y896000D01*
X713625Y589875D02*
X775500Y589875D01*
X779625Y594000D01*
X713625Y589875D02*
X712500Y589000D01*
X779625Y594000D02*
X780000Y595000D01*
X627000Y880000D02*
X627000Y886875D01*
X627000Y880000D02*
X644875Y862125D01*
X644875Y660000D01*
X713625Y591250D01*
X627000Y886875D02*
X626200Y887000D01*
X713625Y591250D02*
X712500Y589000D01*
X715000Y731500D02*
X774125Y731500D01*
X779625Y737000D01*
X780000Y737500D01*
X631125Y911625D02*
X627000Y911625D01*
X631125Y911625D02*
X715000Y827750D01*
X715000Y732875D01*
X627000Y911625D02*
X626200Y912400D01*
X715000Y732875D02*
X715000Y731500D01*
X132000Y66000D02*
X71500Y66000D01*
X132000Y66000D02*
X132500Y66000D01*
X71500Y66000D02*
X70800Y65500D01*
X133375Y99000D02*
X133375Y115500D01*
X133375Y99000D02*
X143000Y89375D01*
X143000Y78375D01*
X140250Y75625D01*
X111375Y75625D01*
X71500Y115500D01*
X132500Y116000D02*
X133375Y115500D01*
X71500Y115500D02*
X70800Y116300D01*
X467500Y760375D02*
X473000Y760375D01*
X467500Y760375D02*
X444125Y783750D01*
X473000Y760375D02*
X473800Y760000D01*
D37*
X444125Y783750D03*
D36*
X246125Y611875D02*
X173250Y611875D01*
X246125Y611875D02*
X258500Y624250D01*
X173250Y611875D02*
X172500Y611000D01*
X258500Y624250D02*
X259600Y625000D01*
X116875Y650375D02*
X68750Y650375D01*
X116875Y650375D02*
X155375Y611875D01*
X171875Y611875D01*
X68750Y650375D02*
X68300Y650500D01*
X171875Y611875D02*
X172500Y611000D01*
X713625Y570625D02*
X779625Y570625D01*
X713625Y570625D02*
X712500Y571000D01*
X779625Y570625D02*
X780000Y570000D01*
X779625Y713625D02*
X715000Y713625D01*
X715000Y713500D01*
X779625Y713625D02*
X780000Y712500D01*
X779625Y855250D02*
X713625Y855250D01*
X712500Y856000D01*
X779625Y855250D02*
X780000Y855000D01*
X800250Y589875D02*
X781000Y570625D01*
X800250Y589875D02*
X800250Y693000D01*
X781000Y712250D01*
X781000Y570625D02*
X780000Y570000D01*
X781000Y712250D02*
X780000Y712500D01*
X440000Y297000D02*
X433125Y297000D01*
X429000Y301125D01*
X429000Y320375D01*
X433125Y324500D01*
X440000Y324500D01*
X441250Y297750D02*
X440000Y297000D01*
X441250Y323750D02*
X440000Y324500D01*
X440000Y325875D02*
X440000Y330000D01*
X441250Y330250D01*
X440000Y325875D02*
X440000Y324500D01*
X490875Y431750D02*
X602250Y431750D01*
X446188Y387063D02*
X441375Y382250D01*
X448000Y388875D02*
X490875Y431750D01*
X602250Y431750D02*
X602500Y431500D01*
X441375Y382250D02*
X441250Y382250D01*
X441375Y363000D02*
X458500Y363000D01*
X466250Y370750D01*
X466250Y379500D01*
X456875Y388875D01*
X441375Y363000D02*
X441250Y362750D01*
X433125Y328625D02*
X433125Y325875D01*
X433125Y328625D02*
X429000Y332750D01*
X429000Y360250D01*
X431750Y363000D01*
X440000Y363000D01*
X433125Y325875D02*
X433125Y324500D01*
X441250Y362750D02*
X440000Y363000D01*
X580250Y171875D02*
X580250Y165000D01*
X580250Y171875D02*
X521125Y231000D01*
X580250Y165000D02*
X581000Y165000D01*
X522246Y231496D02*
X521125Y231000D01*
X306625Y313500D02*
X306625Y339625D01*
X306625Y313500D02*
X306000Y312500D01*
X306625Y339625D02*
X306000Y340000D01*
X380875Y196625D02*
X383625Y196625D01*
X441375Y196625D01*
X380875Y196625D02*
X372625Y204875D01*
X441375Y196625D02*
X442500Y196500D01*
X372625Y204875D02*
X371775Y205450D01*
X323125Y295625D02*
X306625Y312125D01*
X323125Y295625D02*
X327250Y295625D01*
X330000Y292875D01*
X330000Y247500D01*
X371250Y206250D01*
X306625Y312125D02*
X306000Y312500D01*
X371250Y206250D02*
X371775Y205450D01*
X372625Y165000D02*
X372625Y155375D01*
X372625Y165000D02*
X383625Y176000D01*
X383625Y195250D01*
X372625Y155375D02*
X371775Y154650D01*
X383625Y195250D02*
X383625Y196625D01*
X511500Y242000D02*
X521125Y232375D01*
X511500Y242000D02*
X511500Y243375D01*
X508750Y246125D01*
X490875Y246125D02*
X489500Y246125D01*
X490875Y246125D02*
X508750Y246125D01*
X489500Y246125D02*
X441375Y198000D01*
X521125Y232375D02*
X522246Y231496D01*
X442500Y196500D02*
X441375Y198000D01*
X490875Y247500D02*
X441375Y297000D01*
X441250Y297750D01*
X490875Y247500D02*
X490875Y246125D01*
X772750Y460625D02*
X772750Y569250D01*
X772750Y460625D02*
X759000Y446875D01*
X618750Y446875D01*
X603625Y431750D01*
X772750Y569250D02*
X780000Y570000D01*
X603625Y431750D02*
X602500Y431500D01*
X456875Y388875D02*
X448000Y388875D01*
X446188Y387063D01*
X782375Y445500D02*
X782375Y467500D01*
X782375Y445500D02*
X807125Y420750D01*
X782375Y467500D02*
X781500Y467500D01*
X807125Y420750D02*
X808400Y419450D01*
X782375Y482625D02*
X782375Y496375D01*
X782375Y482625D02*
X819500Y445500D01*
X819500Y339625D01*
X797500Y317625D01*
X797500Y297000D01*
X807125Y287375D01*
X782375Y496375D02*
X781500Y497500D01*
X807125Y287375D02*
X808400Y286950D01*
X368500Y382250D02*
X360250Y382250D01*
X310750Y431750D01*
X368500Y382250D02*
X368750Y382250D01*
X310750Y431750D02*
X310000Y432000D01*
X324000Y312500D02*
X331500Y305000D01*
X345000Y305000D01*
D37*
X345000Y305000D03*
X345000Y327500D03*
D36*
X348750Y323750D01*
X368750Y323750D01*
X357500Y286000D02*
X339625Y286000D01*
X357500Y286000D02*
X368500Y297000D01*
X339625Y286000D02*
X339000Y285000D01*
X368500Y297000D02*
X368750Y297750D01*
X504625Y368500D02*
X504625Y419375D01*
X504625Y368500D02*
X503500Y367500D01*
X504625Y419375D02*
X505870Y420000D01*
X492250Y356125D02*
X441375Y356125D01*
X492250Y356125D02*
X503250Y367125D01*
X441375Y356125D02*
X441250Y356250D01*
X503250Y367125D02*
X503500Y367500D01*
X503250Y341000D02*
X459250Y341000D01*
X451000Y349250D01*
X441375Y349250D01*
X503250Y341000D02*
X503500Y340000D01*
X441375Y349250D02*
X441250Y349750D01*
X554125Y416625D02*
X554125Y419375D01*
X554125Y416625D02*
X511500Y374000D01*
X511500Y350625D01*
X503250Y342375D01*
X554125Y419375D02*
X554130Y420000D01*
X503250Y342375D02*
X503500Y340000D01*
X602250Y376750D02*
X602250Y412500D01*
X602250Y376750D02*
X602500Y376500D01*
X602250Y412500D02*
X602500Y413500D01*
X544500Y338250D02*
X522500Y316250D01*
X544500Y338250D02*
X544500Y367125D01*
X552750Y375375D01*
X559625Y375375D01*
X522500Y316250D02*
X521500Y315000D01*
X559625Y375375D02*
X560000Y376500D01*
X561000Y376750D02*
X600875Y376750D01*
X602500Y376500D01*
X561000Y376750D02*
X560000Y376500D01*
X660000Y347875D02*
X664125Y347875D01*
X660000Y347875D02*
X632500Y375375D01*
X603625Y375375D01*
X664125Y347875D02*
X664300Y346800D01*
X603625Y375375D02*
X602500Y376500D01*
X545875Y288750D02*
X522500Y288750D01*
X545875Y288750D02*
X559625Y302500D01*
X522500Y288750D02*
X521500Y287500D01*
X559625Y302500D02*
X560000Y303500D01*
X561000Y303875D02*
X602250Y303875D01*
X602500Y303500D01*
X561000Y303875D02*
X560000Y303500D01*
X603625Y357500D02*
X625625Y357500D01*
X650375Y332750D01*
X668250Y332750D01*
X688875Y312125D01*
X688875Y309375D01*
X603625Y357500D02*
X602500Y358500D01*
X688875Y309375D02*
X689700Y308800D01*
X479875Y310750D02*
X441375Y310750D01*
X479875Y310750D02*
X499125Y330000D01*
X528000Y330000D01*
X539000Y341000D01*
X539000Y371250D01*
X589875Y422125D01*
X610500Y422125D01*
X653125Y379500D01*
X653125Y367125D01*
X662750Y357500D01*
X669625Y357500D01*
X675125Y352000D01*
X675125Y341000D01*
X668250Y334125D01*
X441375Y310750D02*
X441250Y310750D01*
X668250Y332750D02*
X668250Y334125D01*
X587125Y357500D02*
X570625Y357500D01*
X561000Y357500D01*
X587125Y357500D02*
X618750Y325875D01*
X660000Y325875D01*
X664125Y321750D01*
X561000Y357500D02*
X560000Y358500D01*
X664125Y321750D02*
X664300Y321400D01*
X486750Y303875D02*
X441375Y303875D01*
X486750Y303875D02*
X489500Y301125D01*
X541750Y301125D01*
X554125Y313500D01*
X567875Y313500D01*
X570625Y316250D01*
X570625Y356125D01*
X441250Y304250D02*
X441375Y303875D01*
X570625Y356125D02*
X570625Y357500D01*
X603625Y320375D02*
X650375Y320375D01*
X673750Y297000D01*
X693000Y297000D01*
X701250Y305250D01*
X701250Y363000D01*
X693000Y371250D01*
X665500Y371250D01*
X603625Y320375D02*
X602500Y321500D01*
X664300Y372200D02*
X665500Y371250D01*
X394625Y310750D02*
X369875Y310750D01*
X394625Y310750D02*
X397375Y313500D01*
X589875Y313500D02*
X595375Y313500D01*
X602250Y320375D01*
X369875Y310750D02*
X368750Y310750D01*
X602250Y320375D02*
X602500Y321500D01*
D37*
X397375Y313500D03*
X589875Y313500D03*
D36*
X559625Y321750D02*
X559625Y342375D01*
X550000Y352000D01*
X550000Y364375D01*
X552750Y367125D01*
X628375Y367125D01*
X650375Y345125D01*
X560000Y321500D02*
X559625Y321750D01*
X419375Y303875D02*
X369875Y303875D01*
X545875Y317625D02*
X550000Y317625D01*
X554125Y321750D01*
X558250Y321750D01*
X369875Y303875D02*
X368750Y304250D01*
X558250Y321750D02*
X560000Y321500D01*
D37*
X650375Y345125D03*
X419375Y303875D03*
X545875Y317625D03*
D36*
X510125Y467500D02*
X763125Y467500D01*
X510125Y467500D02*
X429000Y386375D01*
X429000Y378125D01*
X431750Y375375D01*
X440000Y375375D01*
X763125Y467500D02*
X763500Y467500D01*
X441250Y375750D02*
X440000Y375375D01*
X441750Y369750D02*
X441250Y369250D01*
X441750Y369750D02*
X450407Y369750D01*
X455657Y375000D02*
X457500Y375000D01*
X455657Y375000D02*
X450407Y369750D01*
D37*
X457500Y375000D03*
X622500Y480000D03*
D36*
X746000Y480000D01*
X763500Y497500D01*
X115000Y449400D02*
X115000Y405000D01*
M02*
