G04 EAGLE Gerber RS-274X export*
G75*
%MOMM*%
%FSLAX34Y34*%
%LPD*%
%AMOC8*
5,1,8,0,0,1.08239X$1,22.5*%
G01*
%ADD10C,1.422400*%
%ADD11C,1.524000*%
%ADD12R,1.308000X1.308000*%
%ADD13C,1.308000*%
%ADD14C,1.879600*%
%ADD15C,2.095500*%
%ADD16C,1.320800*%
%ADD17C,2.100000*%
%ADD18P,1.632244X8X292.500000*%
%ADD19C,0.300000*%
%ADD20C,0.906400*%


D10*
X600200Y32888D02*
X600200Y47112D01*
X574800Y47112D02*
X574800Y32888D01*
D11*
X772380Y620000D02*
X787620Y620000D01*
X787620Y595000D02*
X772380Y595000D01*
X772380Y570000D02*
X787620Y570000D01*
X787620Y762500D02*
X772380Y762500D01*
X772380Y737500D02*
X787620Y737500D01*
X787620Y712500D02*
X772380Y712500D01*
D12*
X346375Y129250D03*
X346375Y205450D03*
D13*
X346375Y154650D03*
X346375Y180050D03*
X371775Y180050D03*
X371775Y154650D03*
X371775Y129250D03*
X371775Y205450D03*
D14*
X626200Y633000D03*
X626200Y658400D03*
X626200Y683800D03*
X626200Y709200D03*
X626200Y734600D03*
X626200Y760000D03*
X626200Y785400D03*
X626200Y810800D03*
X626200Y836200D03*
X626200Y861600D03*
X626200Y887000D03*
X626200Y912400D03*
X473800Y912400D03*
X473800Y887000D03*
X473800Y861600D03*
X473800Y836200D03*
X473800Y810800D03*
X473800Y785400D03*
X473800Y760000D03*
X473800Y734600D03*
X473800Y709200D03*
X473800Y683800D03*
X473800Y658400D03*
X473800Y633000D03*
D15*
X78778Y904500D02*
X57823Y904500D01*
X57823Y853700D02*
X78778Y853700D01*
X78778Y650500D02*
X57823Y650500D01*
X57823Y802900D02*
X78778Y802900D01*
X78778Y752100D02*
X57823Y752100D01*
X57823Y701300D02*
X78778Y701300D01*
X81278Y319500D02*
X60323Y319500D01*
X60323Y268700D02*
X81278Y268700D01*
X81278Y65500D02*
X60323Y65500D01*
X60323Y217900D02*
X81278Y217900D01*
X81278Y167100D02*
X60323Y167100D01*
X60323Y116300D02*
X81278Y116300D01*
D11*
X772380Y905000D02*
X787620Y905000D01*
X787620Y880000D02*
X772380Y880000D01*
X772380Y855000D02*
X787620Y855000D01*
D16*
X505870Y420000D03*
X554130Y420000D03*
D17*
X722700Y275750D03*
X722700Y430650D03*
D13*
X808400Y419450D03*
X808400Y394050D03*
X808400Y312350D03*
X808400Y286950D03*
X664300Y397600D03*
X664300Y372200D03*
X664300Y346800D03*
X664300Y321400D03*
X689700Y385000D03*
X689700Y359600D03*
X689700Y334200D03*
X689700Y308800D03*
D11*
X122620Y449400D02*
X107380Y449400D01*
X107380Y474800D02*
X122620Y474800D01*
X122620Y500200D02*
X107380Y500200D01*
X107380Y525600D02*
X122620Y525600D01*
D18*
X115000Y405000D03*
D19*
X523875Y708125D02*
X625625Y708125D01*
X523875Y708125D02*
X474375Y658625D01*
X625625Y708125D02*
X626200Y709200D01*
X474375Y658625D02*
X473800Y658400D01*
X430375Y701250D02*
X424875Y701250D01*
X430375Y701250D02*
X473000Y658625D01*
X473800Y658400D01*
X492250Y310750D02*
X492250Y291500D01*
X521125Y341000D02*
X521125Y353375D01*
X521125Y341000D02*
X492250Y312125D01*
X492250Y310750D01*
X482625Y320375D02*
X477125Y320375D01*
X482625Y320375D02*
X490875Y312125D01*
X492250Y310750D01*
X781000Y620125D02*
X781000Y688875D01*
X800250Y708125D01*
X800250Y742500D01*
X781000Y761750D01*
X781000Y620125D02*
X780000Y620000D01*
X781000Y761750D02*
X780000Y762500D01*
X808500Y393250D02*
X808500Y313500D01*
X808400Y312350D01*
X808500Y393250D02*
X808400Y394050D01*
X723250Y562375D02*
X779625Y618750D01*
X723250Y562375D02*
X723250Y431750D01*
X779625Y618750D02*
X780000Y620000D01*
X723250Y431750D02*
X722700Y430650D01*
X418000Y378125D02*
X389125Y378125D01*
X418000Y378125D02*
X475750Y320375D01*
X477125Y320375D01*
D20*
X424875Y701250D03*
X492250Y310750D03*
X492250Y291500D03*
X521125Y353375D03*
X477125Y320375D03*
X389125Y378125D03*
D19*
X507375Y613250D02*
X507375Y666875D01*
D20*
X507375Y613250D03*
X507375Y666875D03*
D19*
X473000Y785125D02*
X470250Y785125D01*
X228250Y543125D01*
X99000Y543125D01*
X39875Y484000D01*
X39875Y198000D01*
X70125Y167750D01*
X473000Y785125D02*
X473800Y785400D01*
X70125Y167750D02*
X70800Y167100D01*
X372625Y140250D02*
X372625Y129250D01*
X372625Y140250D02*
X383625Y151250D01*
X383625Y371250D01*
X379500Y375375D01*
X379500Y380875D01*
X493625Y495000D01*
X507375Y495000D01*
X640750Y628375D01*
X640750Y745250D01*
X627000Y759000D01*
X372625Y129250D02*
X371775Y129250D01*
X627000Y759000D02*
X626200Y760000D01*
X346500Y204875D02*
X346500Y195250D01*
X360250Y181500D01*
X360250Y125125D01*
X367125Y118250D01*
X407000Y118250D01*
X646250Y357500D01*
X646250Y765875D01*
X627000Y785125D01*
X346375Y205450D02*
X346500Y204875D01*
X626200Y785400D02*
X627000Y785125D01*
X497750Y811250D02*
X474375Y811250D01*
X497750Y811250D02*
X618750Y932250D01*
X727375Y932250D01*
X779625Y880000D01*
X474375Y811250D02*
X473800Y810800D01*
X779625Y880000D02*
X780000Y880000D01*
X287375Y422125D02*
X332750Y376750D01*
X339625Y666875D02*
X459250Y786500D01*
X459250Y847000D01*
X473000Y860750D01*
X473800Y861600D01*
D20*
X332750Y376750D03*
X287375Y422125D03*
X339625Y666875D03*
D19*
X497750Y669625D02*
X497750Y595375D01*
X497750Y669625D02*
X517000Y688875D01*
D20*
X497750Y595375D03*
X517000Y688875D03*
D19*
X473000Y734250D02*
X427625Y734250D01*
X231000Y537625D01*
X101750Y537625D01*
X45375Y481250D01*
X45375Y211750D01*
X74250Y182875D01*
X86625Y182875D01*
X96250Y173250D01*
X96250Y90750D01*
X71500Y66000D01*
X473000Y734250D02*
X473800Y734600D01*
X71500Y66000D02*
X70800Y65500D01*
X331375Y783750D02*
X444125Y783750D01*
X331375Y783750D02*
X34375Y486750D01*
X34375Y152625D01*
X70125Y116875D01*
X70800Y116300D01*
D20*
X444125Y783750D03*
D19*
X474375Y715000D02*
X474375Y709500D01*
X474375Y715000D02*
X611875Y852500D01*
X611875Y917125D01*
X621500Y926750D01*
X708125Y926750D01*
X779625Y855250D01*
X474375Y709500D02*
X473800Y709200D01*
X779625Y855250D02*
X780000Y855000D01*
X760375Y732875D02*
X779625Y713625D01*
X760375Y732875D02*
X760375Y834625D01*
X779625Y853875D01*
X779625Y713625D02*
X780000Y712500D01*
X779625Y853875D02*
X780000Y855000D01*
X360250Y217250D02*
X71500Y217250D01*
X360250Y217250D02*
X371250Y206250D01*
X71500Y217250D02*
X70800Y217900D01*
X371250Y206250D02*
X371775Y205450D01*
D20*
X345000Y305000D03*
D19*
X345000Y327500D01*
D20*
X345000Y327500D03*
D19*
X397375Y313500D02*
X434500Y276375D01*
X552750Y276375D01*
X589875Y313500D01*
D20*
X397375Y313500D03*
X589875Y313500D03*
D19*
X650375Y345125D02*
X660000Y335500D01*
X688875Y335500D01*
X689700Y334200D01*
X467500Y303875D02*
X419375Y303875D01*
X467500Y303875D02*
X489500Y281875D01*
X510125Y281875D01*
X545875Y317625D01*
D20*
X650375Y345125D03*
X419375Y303875D03*
X545875Y317625D03*
X457500Y375000D03*
D19*
X457500Y449126D02*
X488374Y480000D01*
X622500Y480000D01*
X457500Y449126D02*
X457500Y375000D01*
D20*
X622500Y480000D03*
D19*
X495000Y526625D02*
X115500Y526625D01*
X495000Y526625D02*
X625625Y657250D01*
X115500Y526625D02*
X115000Y525600D01*
X625625Y657250D02*
X626200Y658400D01*
X493625Y500500D02*
X115500Y500500D01*
X493625Y500500D02*
X625625Y632500D01*
X115500Y500500D02*
X115000Y500200D01*
X625625Y632500D02*
X626200Y633000D01*
M02*
