M48
;GenerationSoftware,Autodesk,EAGLE,9.1.3*%
;CreationDate,2018-09-10T15:35:54Z*%
FMAT,2
ICI,OFF
METRIC,TZ,000.000
T10C0.500
T9C0.800
T8C0.813
T7C0.914
T6C1.000
T5C1.016
T4C1.397
T3C1.400
T2C2.032
T1C3.000
%
G90
M71
T1
X67250Y83250
X17250Y83250
X67250Y13250
X17250Y13250
T2
X76428Y10000
X81000Y10000
T3
X72270Y27575
X72270Y43065
T4
X7080Y11630
X7080Y16710
X7080Y21790
X7080Y6550
X7080Y26870
X7080Y31950
X6830Y70130
X6830Y75210
X6830Y80290
X6830Y65050
X6830Y85370
X6830Y90450
T5
X78000Y88000
X78000Y90500
X47380Y70920
X47380Y63300
X47380Y65840
X47380Y68380
X47380Y76000
X47380Y78540
X47380Y73460
X47380Y81080
X47380Y83620
X78000Y62000
X78000Y59500
X78000Y57000
X78000Y76250
X78000Y73750
X78000Y71250
X47380Y86160
X47380Y88700
X62620Y81080
X47380Y91240
X62620Y91240
X62620Y88700
X62620Y86160
X62620Y83620
X62620Y63300
X62620Y65840
X62620Y68380
X62620Y70920
X62620Y73460
X62620Y76000
X62620Y78540
X78000Y85500
X11500Y44940
X11500Y47480
X11500Y50020
X11500Y52560
T6
X11500Y40500
T7
X57480Y4000
X60020Y4000
T8
X50587Y42000
X55413Y42000
T9
X34638Y20545
X34638Y12925
X34638Y15465
X68970Y30880
X37178Y20545
X80840Y41945
X80840Y39405
X80840Y31235
X66430Y39760
X66430Y37220
X66430Y34680
X66430Y32140
X68970Y38500
X68970Y35960
X68970Y33420
X37178Y12925
X37178Y15465
X37178Y18005
X34638Y18005
X80840Y28695
T10
X52112Y35338
X49225Y29150
X44412Y78375
X45750Y37500
X49225Y31075
X54587Y31762
X41938Y30387
X65037Y34513
X58987Y31350
X42488Y70125
X39738Y31350
X34500Y32750
X34500Y30500
X51700Y68888
X49775Y59537
X33963Y66688
X28737Y42213
X47712Y32037
X33275Y37675
X50737Y66688
X50737Y61325
X38913Y37813
X62250Y48000
M30