G04 EAGLE Gerber RS-274X export*
G75*
%MOMM*%
%FSLAX34Y34*%
%LPD*%
%AMOC8*
5,1,8,0,0,1.08239X$1,22.5*%
G01*
%ADD10C,3.203200*%
%ADD11C,2.235200*%
%ADD12C,1.625600*%
%ADD13C,1.727200*%
%ADD14R,1.511200X1.511200*%
%ADD15C,1.511200*%
%ADD16C,2.082800*%
%ADD17C,2.298700*%
%ADD18C,1.524000*%
%ADD19C,2.303200*%
%ADD20P,1.852186X8X292.500000*%
%ADD21C,1.109600*%


D10*
X172500Y832500D03*
X672500Y832500D03*
X172500Y132500D03*
X672500Y132500D03*
D11*
X810000Y100000D03*
X764280Y100000D03*
D12*
X600200Y47112D02*
X600200Y32888D01*
X574800Y32888D02*
X574800Y47112D01*
D13*
X772380Y620000D02*
X787620Y620000D01*
X787620Y595000D02*
X772380Y595000D01*
X772380Y570000D02*
X787620Y570000D01*
X787620Y762500D02*
X772380Y762500D01*
X772380Y737500D02*
X787620Y737500D01*
X787620Y712500D02*
X772380Y712500D01*
D14*
X346375Y129250D03*
X346375Y205450D03*
D15*
X346375Y154650D03*
X346375Y180050D03*
X371775Y180050D03*
X371775Y154650D03*
X371775Y129250D03*
X371775Y205450D03*
D16*
X626200Y633000D03*
X626200Y658400D03*
X626200Y683800D03*
X626200Y709200D03*
X626200Y734600D03*
X626200Y760000D03*
X626200Y785400D03*
X626200Y810800D03*
X626200Y836200D03*
X626200Y861600D03*
X626200Y887000D03*
X626200Y912400D03*
X473800Y912400D03*
X473800Y887000D03*
X473800Y861600D03*
X473800Y836200D03*
X473800Y810800D03*
X473800Y785400D03*
X473800Y760000D03*
X473800Y734600D03*
X473800Y709200D03*
X473800Y683800D03*
X473800Y658400D03*
X473800Y633000D03*
D17*
X78778Y904500D02*
X57823Y904500D01*
X57823Y853700D02*
X78778Y853700D01*
X78778Y650500D02*
X57823Y650500D01*
X57823Y802900D02*
X78778Y802900D01*
X78778Y752100D02*
X57823Y752100D01*
X57823Y701300D02*
X78778Y701300D01*
X81278Y319500D02*
X60323Y319500D01*
X60323Y268700D02*
X81278Y268700D01*
X81278Y65500D02*
X60323Y65500D01*
X60323Y217900D02*
X81278Y217900D01*
X81278Y167100D02*
X60323Y167100D01*
X60323Y116300D02*
X81278Y116300D01*
D13*
X772380Y905000D02*
X787620Y905000D01*
X787620Y880000D02*
X772380Y880000D01*
X772380Y855000D02*
X787620Y855000D01*
D18*
X505870Y420000D03*
X554130Y420000D03*
D19*
X722700Y275750D03*
X722700Y430650D03*
D15*
X808400Y419450D03*
X808400Y394050D03*
X808400Y312350D03*
X808400Y286950D03*
X664300Y397600D03*
X664300Y372200D03*
X664300Y346800D03*
X664300Y321400D03*
X689700Y385000D03*
X689700Y359600D03*
X689700Y334200D03*
X689700Y308800D03*
D13*
X122620Y449400D02*
X107380Y449400D01*
X107380Y474800D02*
X122620Y474800D01*
X122620Y500200D02*
X107380Y500200D01*
X107380Y525600D02*
X122620Y525600D01*
D20*
X115000Y405000D03*
D21*
X424875Y701250D03*
X492250Y310750D03*
X492250Y291500D03*
X521125Y353375D03*
X477125Y320375D03*
X389125Y378125D03*
X507375Y613250D03*
X507375Y666875D03*
X332750Y376750D03*
X287375Y422125D03*
X339625Y666875D03*
X497750Y595375D03*
X517000Y688875D03*
X444125Y783750D03*
X345000Y305000D03*
X345000Y327500D03*
X397375Y313500D03*
X589875Y313500D03*
X650375Y345125D03*
X419375Y303875D03*
X545875Y317625D03*
X457500Y375000D03*
X622500Y480000D03*
M02*
