M48
;GenerationSoftware,Autodesk,EAGLE,9.1.3*%
;CreationDate,2018-09-20T13:40:04Z*%
FMAT,2
ICI,OFF
METRIC,TZ,000.000
T10C0.350
T9C0.800
T8C1.016
T7C1.270
T6C1.397
T5C1.400
T4C1.499
T3C2.032
T2C3.000
T1C3.500
%
G90
M71
T1
X75300Y29620
X75300Y41020
T2
X17250Y83250
X67250Y83250
X17250Y13250
X67250Y13250
T3
X81000Y10000
X76428Y10000
T4
X4745Y52245
X4745Y59255
T5
X72270Y27575
X72270Y43065
T6
X7080Y16710
X7080Y21790
X7080Y31950
X6830Y70130
X6830Y75210
X6830Y80290
X6830Y85370
X7080Y6550
X6830Y90450
X6830Y65050
X7080Y26870
X7080Y11630
T7
X79500Y61000
X79500Y57190
X79500Y78060
X79500Y74250
X79500Y70440
X79500Y91310
X79500Y87500
X79500Y83690
X79500Y64810
T8
X57210Y88480
X2255Y53489
X59750Y88480
X11500Y42980
X11500Y40440
X57210Y91020
X59750Y91020
X62290Y88480
X62290Y91020
X11500Y48060
X2255Y58011
X11500Y45520
T9
X66430Y34680
X66430Y32140
X68970Y35960
X68970Y33420
X68970Y30880
X68970Y38500
X25112Y41825
X25112Y34205
X25112Y39285
X25112Y36745
X22572Y36745
X22572Y39285
X22572Y41825
X22572Y34205
X80840Y41945
X80840Y39405
X80840Y31235
X80840Y28695
X66430Y39760
X66430Y37220
T10
X50821Y30309
X52148Y35207
X46433Y25921
X56740Y82967
X47555Y80211
X61740Y73068
X45718Y40106
X45718Y35615
X44800Y62353
X48270Y77762
X55719Y72966
X45514Y61638
X50515Y86640
X49494Y87661
X64496Y32554
X42555Y33166
X45718Y33472
X13369Y50923
X61434Y32146
X61638Y43167
X63475Y74701
X52658Y75007
X51739Y70006
X62863Y77966
X64700Y79599
X41841Y88579
X64598Y80722
X38473Y36840
X57556Y74701
X55209Y78579
X40718Y41534
X56842Y75415
X60414Y80007
X42555Y40820
X68578Y49086
X47657Y40106
X47657Y41534
X62557Y63679
X51841Y61230
X50107Y55107
X50107Y61638
X49494Y77150
X47147Y47249
M30