G04 EAGLE Gerber RS-274X export*
G75*
%MOMM*%
%FSLAX34Y34*%
%LPD*%
%AMOC8*
5,1,8,0,0,1.08239X$1,22.5*%
G01*
%ADD10C,0.127000*%
%ADD11C,0.152400*%


D10*
X710143Y483629D02*
X710143Y468135D01*
X708422Y468135D02*
X711865Y468135D01*
X711865Y483629D02*
X708422Y483629D01*
X702555Y479325D02*
X702555Y472439D01*
X702555Y479325D02*
X702553Y479455D01*
X702547Y479585D01*
X702537Y479715D01*
X702524Y479844D01*
X702506Y479973D01*
X702485Y480101D01*
X702459Y480228D01*
X702430Y480355D01*
X702397Y480481D01*
X702360Y480605D01*
X702320Y480729D01*
X702275Y480851D01*
X702227Y480972D01*
X702176Y481091D01*
X702121Y481209D01*
X702062Y481325D01*
X702000Y481439D01*
X701934Y481552D01*
X701865Y481662D01*
X701793Y481770D01*
X701718Y481876D01*
X701639Y481979D01*
X701557Y482080D01*
X701473Y482179D01*
X701385Y482275D01*
X701294Y482368D01*
X701201Y482459D01*
X701105Y482547D01*
X701006Y482631D01*
X700905Y482713D01*
X700802Y482792D01*
X700696Y482867D01*
X700588Y482939D01*
X700478Y483008D01*
X700365Y483074D01*
X700251Y483136D01*
X700135Y483195D01*
X700017Y483250D01*
X699898Y483301D01*
X699777Y483349D01*
X699655Y483394D01*
X699531Y483434D01*
X699407Y483471D01*
X699281Y483504D01*
X699154Y483533D01*
X699027Y483559D01*
X698899Y483580D01*
X698770Y483598D01*
X698641Y483611D01*
X698511Y483621D01*
X698381Y483627D01*
X698251Y483629D01*
X698121Y483627D01*
X697991Y483621D01*
X697861Y483611D01*
X697732Y483598D01*
X697603Y483580D01*
X697475Y483559D01*
X697348Y483533D01*
X697221Y483504D01*
X697095Y483471D01*
X696971Y483434D01*
X696847Y483394D01*
X696725Y483349D01*
X696604Y483301D01*
X696485Y483250D01*
X696367Y483195D01*
X696251Y483136D01*
X696137Y483074D01*
X696024Y483008D01*
X695914Y482939D01*
X695806Y482867D01*
X695700Y482792D01*
X695597Y482713D01*
X695496Y482631D01*
X695397Y482547D01*
X695301Y482459D01*
X695208Y482368D01*
X695117Y482275D01*
X695029Y482179D01*
X694945Y482080D01*
X694863Y481979D01*
X694784Y481876D01*
X694709Y481770D01*
X694637Y481662D01*
X694568Y481552D01*
X694502Y481439D01*
X694440Y481325D01*
X694381Y481209D01*
X694326Y481091D01*
X694275Y480972D01*
X694227Y480851D01*
X694182Y480729D01*
X694142Y480605D01*
X694105Y480481D01*
X694072Y480355D01*
X694043Y480228D01*
X694017Y480101D01*
X693996Y479973D01*
X693978Y479844D01*
X693965Y479715D01*
X693955Y479585D01*
X693949Y479455D01*
X693947Y479325D01*
X693947Y472439D01*
X693949Y472309D01*
X693955Y472179D01*
X693965Y472049D01*
X693978Y471920D01*
X693996Y471791D01*
X694017Y471663D01*
X694043Y471536D01*
X694072Y471409D01*
X694105Y471283D01*
X694142Y471159D01*
X694182Y471035D01*
X694227Y470913D01*
X694275Y470792D01*
X694326Y470673D01*
X694381Y470555D01*
X694440Y470439D01*
X694502Y470325D01*
X694568Y470212D01*
X694637Y470102D01*
X694709Y469994D01*
X694784Y469888D01*
X694863Y469785D01*
X694945Y469684D01*
X695029Y469585D01*
X695117Y469489D01*
X695208Y469396D01*
X695301Y469305D01*
X695397Y469217D01*
X695496Y469133D01*
X695597Y469051D01*
X695700Y468972D01*
X695806Y468897D01*
X695914Y468825D01*
X696024Y468756D01*
X696137Y468690D01*
X696251Y468628D01*
X696367Y468569D01*
X696485Y468514D01*
X696604Y468463D01*
X696725Y468415D01*
X696847Y468370D01*
X696971Y468330D01*
X697095Y468293D01*
X697221Y468260D01*
X697348Y468231D01*
X697475Y468205D01*
X697603Y468184D01*
X697732Y468166D01*
X697861Y468153D01*
X697991Y468143D01*
X698121Y468137D01*
X698251Y468135D01*
X698381Y468137D01*
X698511Y468143D01*
X698641Y468153D01*
X698770Y468166D01*
X698899Y468184D01*
X699027Y468205D01*
X699154Y468231D01*
X699281Y468260D01*
X699407Y468293D01*
X699531Y468330D01*
X699655Y468370D01*
X699777Y468415D01*
X699898Y468463D01*
X700017Y468514D01*
X700135Y468569D01*
X700251Y468628D01*
X700365Y468690D01*
X700478Y468756D01*
X700588Y468825D01*
X700696Y468897D01*
X700802Y468972D01*
X700905Y469051D01*
X701006Y469133D01*
X701105Y469217D01*
X701201Y469305D01*
X701294Y469396D01*
X701385Y469489D01*
X701473Y469585D01*
X701557Y469684D01*
X701639Y469785D01*
X701718Y469888D01*
X701793Y469994D01*
X701865Y470102D01*
X701934Y470212D01*
X702000Y470325D01*
X702062Y470439D01*
X702121Y470555D01*
X702176Y470673D01*
X702227Y470792D01*
X702275Y470913D01*
X702320Y471035D01*
X702360Y471159D01*
X702397Y471283D01*
X702430Y471409D01*
X702459Y471536D01*
X702485Y471663D01*
X702506Y471791D01*
X702524Y471920D01*
X702537Y472049D01*
X702547Y472179D01*
X702553Y472309D01*
X702555Y472439D01*
X684376Y468135D02*
X684376Y483629D01*
X688680Y483629D02*
X680072Y483629D01*
X674113Y476743D02*
X669809Y476743D01*
X669679Y476741D01*
X669549Y476735D01*
X669419Y476725D01*
X669290Y476712D01*
X669161Y476694D01*
X669033Y476673D01*
X668906Y476647D01*
X668779Y476618D01*
X668653Y476585D01*
X668529Y476548D01*
X668405Y476508D01*
X668283Y476463D01*
X668162Y476415D01*
X668043Y476364D01*
X667925Y476309D01*
X667809Y476250D01*
X667695Y476188D01*
X667582Y476122D01*
X667472Y476053D01*
X667364Y475981D01*
X667258Y475906D01*
X667155Y475827D01*
X667054Y475745D01*
X666955Y475661D01*
X666859Y475573D01*
X666766Y475482D01*
X666675Y475389D01*
X666587Y475293D01*
X666503Y475194D01*
X666421Y475093D01*
X666342Y474990D01*
X666267Y474884D01*
X666195Y474776D01*
X666126Y474666D01*
X666060Y474553D01*
X665998Y474439D01*
X665939Y474323D01*
X665884Y474205D01*
X665833Y474086D01*
X665785Y473965D01*
X665740Y473843D01*
X665700Y473719D01*
X665663Y473595D01*
X665630Y473469D01*
X665601Y473342D01*
X665575Y473215D01*
X665554Y473087D01*
X665536Y472958D01*
X665523Y472829D01*
X665513Y472699D01*
X665507Y472569D01*
X665505Y472439D01*
X665507Y472309D01*
X665513Y472179D01*
X665523Y472049D01*
X665536Y471920D01*
X665554Y471791D01*
X665575Y471663D01*
X665601Y471536D01*
X665630Y471409D01*
X665663Y471283D01*
X665700Y471159D01*
X665740Y471035D01*
X665785Y470913D01*
X665833Y470792D01*
X665884Y470673D01*
X665939Y470555D01*
X665998Y470439D01*
X666060Y470325D01*
X666126Y470212D01*
X666195Y470102D01*
X666267Y469994D01*
X666342Y469888D01*
X666421Y469785D01*
X666503Y469684D01*
X666587Y469585D01*
X666675Y469489D01*
X666766Y469396D01*
X666859Y469305D01*
X666955Y469217D01*
X667054Y469133D01*
X667155Y469051D01*
X667258Y468972D01*
X667364Y468897D01*
X667472Y468825D01*
X667582Y468756D01*
X667695Y468690D01*
X667809Y468628D01*
X667925Y468569D01*
X668043Y468514D01*
X668162Y468463D01*
X668283Y468415D01*
X668405Y468370D01*
X668529Y468330D01*
X668653Y468293D01*
X668779Y468260D01*
X668906Y468231D01*
X669033Y468205D01*
X669161Y468184D01*
X669290Y468166D01*
X669419Y468153D01*
X669549Y468143D01*
X669679Y468137D01*
X669809Y468135D01*
X674113Y468135D01*
X674113Y483629D01*
X669809Y483629D01*
X669693Y483627D01*
X669577Y483621D01*
X669461Y483611D01*
X669345Y483598D01*
X669230Y483580D01*
X669116Y483559D01*
X669002Y483533D01*
X668890Y483504D01*
X668778Y483471D01*
X668668Y483434D01*
X668559Y483394D01*
X668451Y483350D01*
X668345Y483302D01*
X668241Y483251D01*
X668138Y483196D01*
X668037Y483138D01*
X667939Y483077D01*
X667842Y483012D01*
X667748Y482944D01*
X667656Y482873D01*
X667566Y482798D01*
X667479Y482721D01*
X667395Y482641D01*
X667314Y482558D01*
X667235Y482472D01*
X667159Y482384D01*
X667086Y482293D01*
X667017Y482200D01*
X666950Y482105D01*
X666887Y482007D01*
X666827Y481908D01*
X666771Y481806D01*
X666718Y481702D01*
X666668Y481597D01*
X666623Y481490D01*
X666580Y481382D01*
X666542Y481272D01*
X666507Y481161D01*
X666476Y481049D01*
X666449Y480936D01*
X666425Y480822D01*
X666406Y480707D01*
X666390Y480592D01*
X666378Y480476D01*
X666370Y480360D01*
X666366Y480244D01*
X666366Y480128D01*
X666370Y480012D01*
X666378Y479896D01*
X666390Y479780D01*
X666406Y479665D01*
X666425Y479550D01*
X666449Y479436D01*
X666476Y479323D01*
X666507Y479211D01*
X666542Y479100D01*
X666580Y478990D01*
X666623Y478882D01*
X666668Y478775D01*
X666718Y478670D01*
X666771Y478566D01*
X666827Y478465D01*
X666887Y478365D01*
X666950Y478267D01*
X667017Y478172D01*
X667086Y478079D01*
X667159Y477988D01*
X667235Y477900D01*
X667314Y477814D01*
X667395Y477731D01*
X667479Y477651D01*
X667566Y477574D01*
X667656Y477499D01*
X667748Y477428D01*
X667842Y477360D01*
X667939Y477295D01*
X668037Y477234D01*
X668138Y477176D01*
X668241Y477121D01*
X668345Y477070D01*
X668451Y477022D01*
X668559Y476978D01*
X668668Y476938D01*
X668778Y476901D01*
X668890Y476868D01*
X669002Y476839D01*
X669116Y476813D01*
X669230Y476792D01*
X669345Y476774D01*
X669461Y476761D01*
X669577Y476751D01*
X669693Y476745D01*
X669809Y476743D01*
X651319Y476743D02*
X647015Y476743D01*
X646885Y476741D01*
X646755Y476735D01*
X646625Y476725D01*
X646496Y476712D01*
X646367Y476694D01*
X646239Y476673D01*
X646112Y476647D01*
X645985Y476618D01*
X645859Y476585D01*
X645735Y476548D01*
X645611Y476508D01*
X645489Y476463D01*
X645368Y476415D01*
X645249Y476364D01*
X645131Y476309D01*
X645015Y476250D01*
X644901Y476188D01*
X644788Y476122D01*
X644678Y476053D01*
X644570Y475981D01*
X644464Y475906D01*
X644361Y475827D01*
X644260Y475745D01*
X644161Y475661D01*
X644065Y475573D01*
X643972Y475482D01*
X643881Y475389D01*
X643793Y475293D01*
X643709Y475194D01*
X643627Y475093D01*
X643548Y474990D01*
X643473Y474884D01*
X643401Y474776D01*
X643332Y474666D01*
X643266Y474553D01*
X643204Y474439D01*
X643145Y474323D01*
X643090Y474205D01*
X643039Y474086D01*
X642991Y473965D01*
X642946Y473843D01*
X642906Y473719D01*
X642869Y473595D01*
X642836Y473469D01*
X642807Y473342D01*
X642781Y473215D01*
X642760Y473087D01*
X642742Y472958D01*
X642729Y472829D01*
X642719Y472699D01*
X642713Y472569D01*
X642711Y472439D01*
X642713Y472309D01*
X642719Y472179D01*
X642729Y472049D01*
X642742Y471920D01*
X642760Y471791D01*
X642781Y471663D01*
X642807Y471536D01*
X642836Y471409D01*
X642869Y471283D01*
X642906Y471159D01*
X642946Y471035D01*
X642991Y470913D01*
X643039Y470792D01*
X643090Y470673D01*
X643145Y470555D01*
X643204Y470439D01*
X643266Y470325D01*
X643332Y470212D01*
X643401Y470102D01*
X643473Y469994D01*
X643548Y469888D01*
X643627Y469785D01*
X643709Y469684D01*
X643793Y469585D01*
X643881Y469489D01*
X643972Y469396D01*
X644065Y469305D01*
X644161Y469217D01*
X644260Y469133D01*
X644361Y469051D01*
X644464Y468972D01*
X644570Y468897D01*
X644678Y468825D01*
X644788Y468756D01*
X644901Y468690D01*
X645015Y468628D01*
X645131Y468569D01*
X645249Y468514D01*
X645368Y468463D01*
X645489Y468415D01*
X645611Y468370D01*
X645735Y468330D01*
X645859Y468293D01*
X645985Y468260D01*
X646112Y468231D01*
X646239Y468205D01*
X646367Y468184D01*
X646496Y468166D01*
X646625Y468153D01*
X646755Y468143D01*
X646885Y468137D01*
X647015Y468135D01*
X651319Y468135D01*
X651319Y483629D01*
X647015Y483629D01*
X646899Y483627D01*
X646783Y483621D01*
X646667Y483611D01*
X646551Y483598D01*
X646436Y483580D01*
X646322Y483559D01*
X646208Y483533D01*
X646096Y483504D01*
X645984Y483471D01*
X645874Y483434D01*
X645765Y483394D01*
X645657Y483350D01*
X645551Y483302D01*
X645447Y483251D01*
X645344Y483196D01*
X645243Y483138D01*
X645145Y483077D01*
X645048Y483012D01*
X644954Y482944D01*
X644862Y482873D01*
X644772Y482798D01*
X644685Y482721D01*
X644601Y482641D01*
X644520Y482558D01*
X644441Y482472D01*
X644365Y482384D01*
X644292Y482293D01*
X644223Y482200D01*
X644156Y482105D01*
X644093Y482007D01*
X644033Y481908D01*
X643977Y481806D01*
X643924Y481702D01*
X643874Y481597D01*
X643829Y481490D01*
X643786Y481382D01*
X643748Y481272D01*
X643713Y481161D01*
X643682Y481049D01*
X643655Y480936D01*
X643631Y480822D01*
X643612Y480707D01*
X643596Y480592D01*
X643584Y480476D01*
X643576Y480360D01*
X643572Y480244D01*
X643572Y480128D01*
X643576Y480012D01*
X643584Y479896D01*
X643596Y479780D01*
X643612Y479665D01*
X643631Y479550D01*
X643655Y479436D01*
X643682Y479323D01*
X643713Y479211D01*
X643748Y479100D01*
X643786Y478990D01*
X643829Y478882D01*
X643874Y478775D01*
X643924Y478670D01*
X643977Y478566D01*
X644033Y478465D01*
X644093Y478365D01*
X644156Y478267D01*
X644223Y478172D01*
X644292Y478079D01*
X644365Y477988D01*
X644441Y477900D01*
X644520Y477814D01*
X644601Y477731D01*
X644685Y477651D01*
X644772Y477574D01*
X644862Y477499D01*
X644954Y477428D01*
X645048Y477360D01*
X645145Y477295D01*
X645243Y477234D01*
X645344Y477176D01*
X645447Y477121D01*
X645551Y477070D01*
X645657Y477022D01*
X645765Y476978D01*
X645874Y476938D01*
X645984Y476901D01*
X646096Y476868D01*
X646208Y476839D01*
X646322Y476813D01*
X646436Y476792D01*
X646551Y476774D01*
X646667Y476761D01*
X646783Y476751D01*
X646899Y476745D01*
X647015Y476743D01*
X637145Y479325D02*
X637145Y472439D01*
X637145Y479325D02*
X637143Y479455D01*
X637137Y479585D01*
X637127Y479715D01*
X637114Y479844D01*
X637096Y479973D01*
X637075Y480101D01*
X637049Y480228D01*
X637020Y480355D01*
X636987Y480481D01*
X636950Y480605D01*
X636910Y480729D01*
X636865Y480851D01*
X636817Y480972D01*
X636766Y481091D01*
X636711Y481209D01*
X636652Y481325D01*
X636590Y481439D01*
X636524Y481552D01*
X636455Y481662D01*
X636383Y481770D01*
X636308Y481876D01*
X636229Y481979D01*
X636147Y482080D01*
X636063Y482179D01*
X635975Y482275D01*
X635884Y482368D01*
X635791Y482459D01*
X635695Y482547D01*
X635596Y482631D01*
X635495Y482713D01*
X635392Y482792D01*
X635286Y482867D01*
X635178Y482939D01*
X635068Y483008D01*
X634955Y483074D01*
X634841Y483136D01*
X634725Y483195D01*
X634607Y483250D01*
X634488Y483301D01*
X634367Y483349D01*
X634245Y483394D01*
X634121Y483434D01*
X633997Y483471D01*
X633871Y483504D01*
X633744Y483533D01*
X633617Y483559D01*
X633489Y483580D01*
X633360Y483598D01*
X633231Y483611D01*
X633101Y483621D01*
X632971Y483627D01*
X632841Y483629D01*
X632711Y483627D01*
X632581Y483621D01*
X632451Y483611D01*
X632322Y483598D01*
X632193Y483580D01*
X632065Y483559D01*
X631938Y483533D01*
X631811Y483504D01*
X631685Y483471D01*
X631561Y483434D01*
X631437Y483394D01*
X631315Y483349D01*
X631194Y483301D01*
X631075Y483250D01*
X630957Y483195D01*
X630841Y483136D01*
X630727Y483074D01*
X630614Y483008D01*
X630504Y482939D01*
X630396Y482867D01*
X630290Y482792D01*
X630187Y482713D01*
X630086Y482631D01*
X629987Y482547D01*
X629891Y482459D01*
X629798Y482368D01*
X629707Y482275D01*
X629619Y482179D01*
X629535Y482080D01*
X629453Y481979D01*
X629374Y481876D01*
X629299Y481770D01*
X629227Y481662D01*
X629158Y481552D01*
X629092Y481439D01*
X629030Y481325D01*
X628971Y481209D01*
X628916Y481091D01*
X628865Y480972D01*
X628817Y480851D01*
X628772Y480729D01*
X628732Y480605D01*
X628695Y480481D01*
X628662Y480355D01*
X628633Y480228D01*
X628607Y480101D01*
X628586Y479973D01*
X628568Y479844D01*
X628555Y479715D01*
X628545Y479585D01*
X628539Y479455D01*
X628537Y479325D01*
X628538Y479325D02*
X628538Y472439D01*
X628537Y472439D02*
X628539Y472309D01*
X628545Y472179D01*
X628555Y472049D01*
X628568Y471920D01*
X628586Y471791D01*
X628607Y471663D01*
X628633Y471536D01*
X628662Y471409D01*
X628695Y471283D01*
X628732Y471159D01*
X628772Y471035D01*
X628817Y470913D01*
X628865Y470792D01*
X628916Y470673D01*
X628971Y470555D01*
X629030Y470439D01*
X629092Y470325D01*
X629158Y470212D01*
X629227Y470102D01*
X629299Y469994D01*
X629374Y469888D01*
X629453Y469785D01*
X629535Y469684D01*
X629619Y469585D01*
X629707Y469489D01*
X629798Y469396D01*
X629891Y469305D01*
X629987Y469217D01*
X630086Y469133D01*
X630187Y469051D01*
X630290Y468972D01*
X630396Y468897D01*
X630504Y468825D01*
X630614Y468756D01*
X630727Y468690D01*
X630841Y468628D01*
X630957Y468569D01*
X631075Y468514D01*
X631194Y468463D01*
X631315Y468415D01*
X631437Y468370D01*
X631561Y468330D01*
X631685Y468293D01*
X631811Y468260D01*
X631938Y468231D01*
X632065Y468205D01*
X632193Y468184D01*
X632322Y468166D01*
X632451Y468153D01*
X632581Y468143D01*
X632711Y468137D01*
X632841Y468135D01*
X632971Y468137D01*
X633101Y468143D01*
X633231Y468153D01*
X633360Y468166D01*
X633489Y468184D01*
X633617Y468205D01*
X633744Y468231D01*
X633871Y468260D01*
X633997Y468293D01*
X634121Y468330D01*
X634245Y468370D01*
X634367Y468415D01*
X634488Y468463D01*
X634607Y468514D01*
X634725Y468569D01*
X634841Y468628D01*
X634955Y468690D01*
X635068Y468756D01*
X635178Y468825D01*
X635286Y468897D01*
X635392Y468972D01*
X635495Y469051D01*
X635596Y469133D01*
X635695Y469217D01*
X635791Y469305D01*
X635884Y469396D01*
X635975Y469489D01*
X636063Y469585D01*
X636147Y469684D01*
X636229Y469785D01*
X636308Y469888D01*
X636383Y469994D01*
X636455Y470102D01*
X636524Y470212D01*
X636590Y470325D01*
X636652Y470439D01*
X636711Y470555D01*
X636766Y470673D01*
X636817Y470792D01*
X636865Y470913D01*
X636910Y471035D01*
X636950Y471159D01*
X636987Y471283D01*
X637020Y471409D01*
X637049Y471536D01*
X637075Y471663D01*
X637096Y471791D01*
X637114Y471920D01*
X637127Y472049D01*
X637137Y472179D01*
X637143Y472309D01*
X637145Y472439D01*
X618967Y468135D02*
X618967Y483629D01*
X623271Y483629D02*
X614663Y483629D01*
X682643Y498135D02*
X682643Y513629D01*
X684365Y498135D02*
X680922Y498135D01*
X680922Y513629D02*
X684365Y513629D01*
X675055Y509325D02*
X675055Y502439D01*
X675055Y509325D02*
X675053Y509455D01*
X675047Y509585D01*
X675037Y509715D01*
X675024Y509844D01*
X675006Y509973D01*
X674985Y510101D01*
X674959Y510228D01*
X674930Y510355D01*
X674897Y510481D01*
X674860Y510605D01*
X674820Y510729D01*
X674775Y510851D01*
X674727Y510972D01*
X674676Y511091D01*
X674621Y511209D01*
X674562Y511325D01*
X674500Y511439D01*
X674434Y511552D01*
X674365Y511662D01*
X674293Y511770D01*
X674218Y511876D01*
X674139Y511979D01*
X674057Y512080D01*
X673973Y512179D01*
X673885Y512275D01*
X673794Y512368D01*
X673701Y512459D01*
X673605Y512547D01*
X673506Y512631D01*
X673405Y512713D01*
X673302Y512792D01*
X673196Y512867D01*
X673088Y512939D01*
X672978Y513008D01*
X672865Y513074D01*
X672751Y513136D01*
X672635Y513195D01*
X672517Y513250D01*
X672398Y513301D01*
X672277Y513349D01*
X672155Y513394D01*
X672031Y513434D01*
X671907Y513471D01*
X671781Y513504D01*
X671654Y513533D01*
X671527Y513559D01*
X671399Y513580D01*
X671270Y513598D01*
X671141Y513611D01*
X671011Y513621D01*
X670881Y513627D01*
X670751Y513629D01*
X670621Y513627D01*
X670491Y513621D01*
X670361Y513611D01*
X670232Y513598D01*
X670103Y513580D01*
X669975Y513559D01*
X669848Y513533D01*
X669721Y513504D01*
X669595Y513471D01*
X669471Y513434D01*
X669347Y513394D01*
X669225Y513349D01*
X669104Y513301D01*
X668985Y513250D01*
X668867Y513195D01*
X668751Y513136D01*
X668637Y513074D01*
X668524Y513008D01*
X668414Y512939D01*
X668306Y512867D01*
X668200Y512792D01*
X668097Y512713D01*
X667996Y512631D01*
X667897Y512547D01*
X667801Y512459D01*
X667708Y512368D01*
X667617Y512275D01*
X667529Y512179D01*
X667445Y512080D01*
X667363Y511979D01*
X667284Y511876D01*
X667209Y511770D01*
X667137Y511662D01*
X667068Y511552D01*
X667002Y511439D01*
X666940Y511325D01*
X666881Y511209D01*
X666826Y511091D01*
X666775Y510972D01*
X666727Y510851D01*
X666682Y510729D01*
X666642Y510605D01*
X666605Y510481D01*
X666572Y510355D01*
X666543Y510228D01*
X666517Y510101D01*
X666496Y509973D01*
X666478Y509844D01*
X666465Y509715D01*
X666455Y509585D01*
X666449Y509455D01*
X666447Y509325D01*
X666447Y502439D01*
X666449Y502309D01*
X666455Y502179D01*
X666465Y502049D01*
X666478Y501920D01*
X666496Y501791D01*
X666517Y501663D01*
X666543Y501536D01*
X666572Y501409D01*
X666605Y501283D01*
X666642Y501159D01*
X666682Y501035D01*
X666727Y500913D01*
X666775Y500792D01*
X666826Y500673D01*
X666881Y500555D01*
X666940Y500439D01*
X667002Y500325D01*
X667068Y500212D01*
X667137Y500102D01*
X667209Y499994D01*
X667284Y499888D01*
X667363Y499785D01*
X667445Y499684D01*
X667529Y499585D01*
X667617Y499489D01*
X667708Y499396D01*
X667801Y499305D01*
X667897Y499217D01*
X667996Y499133D01*
X668097Y499051D01*
X668200Y498972D01*
X668306Y498897D01*
X668414Y498825D01*
X668524Y498756D01*
X668637Y498690D01*
X668751Y498628D01*
X668867Y498569D01*
X668985Y498514D01*
X669104Y498463D01*
X669225Y498415D01*
X669347Y498370D01*
X669471Y498330D01*
X669595Y498293D01*
X669721Y498260D01*
X669848Y498231D01*
X669975Y498205D01*
X670103Y498184D01*
X670232Y498166D01*
X670361Y498153D01*
X670491Y498143D01*
X670621Y498137D01*
X670751Y498135D01*
X670881Y498137D01*
X671011Y498143D01*
X671141Y498153D01*
X671270Y498166D01*
X671399Y498184D01*
X671527Y498205D01*
X671654Y498231D01*
X671781Y498260D01*
X671907Y498293D01*
X672031Y498330D01*
X672155Y498370D01*
X672277Y498415D01*
X672398Y498463D01*
X672517Y498514D01*
X672635Y498569D01*
X672751Y498628D01*
X672865Y498690D01*
X672978Y498756D01*
X673088Y498825D01*
X673196Y498897D01*
X673302Y498972D01*
X673405Y499051D01*
X673506Y499133D01*
X673605Y499217D01*
X673701Y499305D01*
X673794Y499396D01*
X673885Y499489D01*
X673973Y499585D01*
X674057Y499684D01*
X674139Y499785D01*
X674218Y499888D01*
X674293Y499994D01*
X674365Y500102D01*
X674434Y500212D01*
X674500Y500325D01*
X674562Y500439D01*
X674621Y500555D01*
X674676Y500673D01*
X674727Y500792D01*
X674775Y500913D01*
X674820Y501035D01*
X674860Y501159D01*
X674897Y501283D01*
X674930Y501409D01*
X674959Y501536D01*
X674985Y501663D01*
X675006Y501791D01*
X675024Y501920D01*
X675037Y502049D01*
X675047Y502179D01*
X675053Y502309D01*
X675055Y502439D01*
X656876Y498135D02*
X656876Y513629D01*
X661180Y513629D02*
X652572Y513629D01*
X646783Y498135D02*
X639896Y498135D01*
X646783Y498135D02*
X646783Y513629D01*
X639896Y513629D01*
X641618Y506743D02*
X646783Y506743D01*
X631016Y498135D02*
X627573Y498135D01*
X631016Y498135D02*
X631131Y498137D01*
X631246Y498143D01*
X631361Y498152D01*
X631475Y498166D01*
X631589Y498183D01*
X631702Y498204D01*
X631814Y498229D01*
X631926Y498257D01*
X632036Y498290D01*
X632145Y498326D01*
X632253Y498365D01*
X632360Y498408D01*
X632465Y498455D01*
X632569Y498505D01*
X632671Y498559D01*
X632771Y498616D01*
X632869Y498676D01*
X632965Y498739D01*
X633058Y498806D01*
X633150Y498876D01*
X633239Y498949D01*
X633326Y499025D01*
X633410Y499103D01*
X633491Y499184D01*
X633570Y499269D01*
X633645Y499355D01*
X633718Y499444D01*
X633788Y499536D01*
X633855Y499629D01*
X633918Y499725D01*
X633978Y499823D01*
X634035Y499923D01*
X634089Y500025D01*
X634139Y500129D01*
X634186Y500234D01*
X634229Y500341D01*
X634269Y500449D01*
X634304Y500558D01*
X634337Y500668D01*
X634365Y500780D01*
X634390Y500892D01*
X634411Y501005D01*
X634428Y501119D01*
X634442Y501233D01*
X634451Y501348D01*
X634457Y501463D01*
X634459Y501578D01*
X634459Y510186D01*
X634457Y510301D01*
X634451Y510416D01*
X634442Y510531D01*
X634428Y510645D01*
X634411Y510759D01*
X634390Y510872D01*
X634365Y510984D01*
X634337Y511096D01*
X634304Y511206D01*
X634269Y511315D01*
X634229Y511423D01*
X634186Y511530D01*
X634139Y511635D01*
X634089Y511739D01*
X634035Y511841D01*
X633978Y511941D01*
X633918Y512039D01*
X633855Y512135D01*
X633788Y512228D01*
X633718Y512320D01*
X633645Y512409D01*
X633570Y512495D01*
X633491Y512580D01*
X633410Y512661D01*
X633326Y512739D01*
X633239Y512815D01*
X633150Y512888D01*
X633058Y512958D01*
X632965Y513025D01*
X632869Y513088D01*
X632771Y513148D01*
X632671Y513205D01*
X632569Y513259D01*
X632465Y513309D01*
X632360Y513356D01*
X632253Y513399D01*
X632145Y513438D01*
X632036Y513474D01*
X631926Y513507D01*
X631814Y513535D01*
X631702Y513560D01*
X631589Y513581D01*
X631475Y513598D01*
X631361Y513612D01*
X631246Y513621D01*
X631131Y513627D01*
X631016Y513629D01*
X627573Y513629D01*
X621538Y513629D02*
X621538Y498135D01*
X621538Y506743D02*
X612930Y506743D01*
X612930Y513629D02*
X612930Y498135D01*
D11*
X707500Y507500D02*
X715000Y515000D01*
X702500Y502500D02*
X695000Y495000D01*
X707500Y507500D02*
X707500Y515000D01*
X702500Y502500D02*
X702500Y495000D01*
X705000Y495000D02*
X705000Y515000D01*
X712500Y517500D02*
X712198Y517676D01*
X711892Y517844D01*
X711581Y518005D01*
X711267Y518158D01*
X710949Y518303D01*
X710628Y518441D01*
X710303Y518571D01*
X709976Y518693D01*
X709645Y518806D01*
X709312Y518912D01*
X708976Y519010D01*
X708638Y519099D01*
X708298Y519180D01*
X707957Y519253D01*
X707613Y519318D01*
X707268Y519374D01*
X706922Y519421D01*
X706574Y519461D01*
X706226Y519491D01*
X705877Y519514D01*
X705528Y519528D01*
X705179Y519533D01*
X704829Y519530D01*
X704480Y519518D01*
X704131Y519498D01*
X703783Y519469D01*
X703435Y519432D01*
X703088Y519386D01*
X702743Y519332D01*
X702399Y519270D01*
X702057Y519199D01*
X701716Y519120D01*
X701378Y519033D01*
X701042Y518937D01*
X700708Y518834D01*
X700377Y518722D01*
X700048Y518602D01*
X699723Y518474D01*
X699401Y518339D01*
X699082Y518195D01*
X698767Y518044D01*
X698456Y517885D01*
X698148Y517719D01*
X697845Y517545D01*
X697546Y517364D01*
X697252Y517176D01*
X696962Y516980D01*
X696677Y516778D01*
X696397Y516568D01*
X696122Y516352D01*
X695853Y516130D01*
X695589Y515901D01*
X695331Y515665D01*
X695078Y515423D01*
X694832Y515175D01*
X694591Y514922D01*
X694357Y514662D01*
X694129Y514397D01*
X693908Y514126D01*
X693693Y513851D01*
X693486Y513570D01*
X693285Y513284D01*
X693091Y512993D01*
X692904Y512697D01*
X692725Y512397D01*
X692552Y512093D01*
X692388Y511785D01*
X692231Y511473D01*
X692081Y511157D01*
X691939Y510837D01*
X691805Y510514D01*
X691679Y510188D01*
X691561Y509859D01*
X691451Y509528D01*
X691349Y509193D01*
X691255Y508857D01*
X691170Y508518D01*
X691093Y508177D01*
X691024Y507834D01*
X690963Y507490D01*
X690911Y507144D01*
X690867Y506797D01*
X690832Y506450D01*
X690805Y506101D01*
X690787Y505752D01*
X690777Y505403D01*
X690775Y505053D01*
X690783Y504704D01*
X690798Y504355D01*
X690823Y504006D01*
X690855Y503658D01*
X690896Y503311D01*
X690946Y502965D01*
X691004Y502620D01*
X691070Y502277D01*
X691145Y501935D01*
X691228Y501596D01*
X691319Y501258D01*
X691418Y500923D01*
X691526Y500591D01*
X691641Y500261D01*
X691765Y499934D01*
X691896Y499610D01*
X692036Y499289D01*
X692183Y498972D01*
X692337Y498659D01*
X692500Y498349D01*
X692670Y498044D01*
X692847Y497743D01*
X693031Y497446D01*
X693223Y497153D01*
X693422Y496866D01*
X693627Y496583D01*
X693840Y496306D01*
X694059Y496033D01*
X694285Y495767D01*
X694517Y495505D01*
X694755Y495250D01*
X695000Y495000D01*
X697500Y492500D02*
X697802Y492324D01*
X698108Y492156D01*
X698419Y491995D01*
X698733Y491842D01*
X699051Y491697D01*
X699372Y491559D01*
X699697Y491429D01*
X700024Y491307D01*
X700355Y491194D01*
X700688Y491088D01*
X701024Y490990D01*
X701362Y490901D01*
X701702Y490820D01*
X702043Y490747D01*
X702387Y490682D01*
X702732Y490626D01*
X703078Y490579D01*
X703426Y490539D01*
X703774Y490509D01*
X704123Y490486D01*
X704472Y490472D01*
X704821Y490467D01*
X705171Y490470D01*
X705520Y490482D01*
X705869Y490502D01*
X706217Y490531D01*
X706565Y490568D01*
X706912Y490614D01*
X707257Y490668D01*
X707601Y490730D01*
X707943Y490801D01*
X708284Y490880D01*
X708622Y490967D01*
X708958Y491063D01*
X709292Y491166D01*
X709623Y491278D01*
X709952Y491398D01*
X710277Y491526D01*
X710599Y491661D01*
X710918Y491805D01*
X711233Y491956D01*
X711544Y492115D01*
X711852Y492281D01*
X712155Y492455D01*
X712454Y492636D01*
X712748Y492824D01*
X713038Y493020D01*
X713323Y493222D01*
X713603Y493432D01*
X713878Y493648D01*
X714147Y493870D01*
X714411Y494099D01*
X714669Y494335D01*
X714922Y494577D01*
X715168Y494825D01*
X715409Y495078D01*
X715643Y495338D01*
X715871Y495603D01*
X716092Y495874D01*
X716307Y496149D01*
X716514Y496430D01*
X716715Y496716D01*
X716909Y497007D01*
X717096Y497303D01*
X717275Y497603D01*
X717448Y497907D01*
X717612Y498215D01*
X717769Y498527D01*
X717919Y498843D01*
X718061Y499163D01*
X718195Y499486D01*
X718321Y499812D01*
X718439Y500141D01*
X718549Y500472D01*
X718651Y500807D01*
X718745Y501143D01*
X718830Y501482D01*
X718907Y501823D01*
X718976Y502166D01*
X719037Y502510D01*
X719089Y502856D01*
X719133Y503203D01*
X719168Y503550D01*
X719195Y503899D01*
X719213Y504248D01*
X719223Y504597D01*
X719225Y504947D01*
X719217Y505296D01*
X719202Y505645D01*
X719177Y505994D01*
X719145Y506342D01*
X719104Y506689D01*
X719054Y507035D01*
X718996Y507380D01*
X718930Y507723D01*
X718855Y508065D01*
X718772Y508404D01*
X718681Y508742D01*
X718582Y509077D01*
X718474Y509409D01*
X718359Y509739D01*
X718235Y510066D01*
X718104Y510390D01*
X717964Y510711D01*
X717817Y511028D01*
X717663Y511341D01*
X717500Y511651D01*
X717330Y511956D01*
X717153Y512257D01*
X716969Y512554D01*
X716777Y512847D01*
X716578Y513134D01*
X716373Y513417D01*
X716160Y513694D01*
X715941Y513967D01*
X715715Y514233D01*
X715483Y514495D01*
X715245Y514750D01*
X715000Y515000D01*
M02*
