G04 EAGLE Gerber RS-274X export*
G75*
%MOMM*%
%FSLAX34Y34*%
%LPD*%
%AMOC8*
5,1,8,0,0,1.08239X$1,22.5*%
G01*
%ADD10C,3.203200*%
%ADD11R,1.403200X1.403200*%
%ADD12R,1.473200X1.673200*%
%ADD13R,1.003200X1.403200*%
%ADD14R,1.983200X3.403200*%
%ADD15R,3.003200X2.603200*%
%ADD16C,2.235200*%
%ADD17R,1.403200X1.003200*%
%ADD18R,1.673200X1.473200*%
%ADD19R,4.013200X2.286000*%
%ADD20R,9.093200X11.633200*%
%ADD21R,1.511200X1.511200*%
%ADD22C,1.511200*%
%ADD23C,2.298700*%
%ADD24R,1.703200X0.603200*%
%ADD25R,1.903200X3.503200*%
%ADD26R,1.403200X2.203200*%
%ADD27C,2.303200*%
%ADD28C,3.703200*%
%ADD29C,1.727200*%
%ADD30R,1.473200X0.762000*%
%ADD31R,0.762000X1.473200*%
%ADD32C,0.653200*%
%ADD33R,3.495041X1.534159*%
%ADD34C,1.727200*%
%ADD35P,1.869504X8X202.500000*%
%ADD36R,2.703200X4.503200*%
%ADD37R,5.703200X4.203200*%
%ADD38R,11.003200X10.613200*%
%ADD39R,1.270000X2.362200*%
%ADD40R,2.603200X2.603200*%
%ADD41P,1.869504X8X292.500000*%
%ADD42C,2.451100*%
%ADD43C,2.108200*%
%ADD44C,0.959600*%


D10*
X172500Y832500D03*
X672500Y832500D03*
X172500Y132500D03*
X672500Y132500D03*
D11*
X812500Y233000D03*
X812500Y212000D03*
D12*
X686500Y55000D03*
X643500Y55000D03*
D13*
X766500Y212500D03*
X748500Y212500D03*
D14*
X614900Y55000D03*
X565100Y55000D03*
D15*
X810000Y43000D03*
X810000Y157000D03*
X749000Y43000D03*
X749000Y157000D03*
D16*
X810000Y100000D03*
X764280Y100000D03*
D17*
X412500Y914000D03*
X412500Y896000D03*
D18*
X170000Y883500D03*
X170000Y926500D03*
D19*
X371400Y859600D03*
X371400Y910400D03*
D20*
X257100Y885000D03*
D17*
X712500Y589000D03*
X712500Y571000D03*
X715000Y731500D03*
X715000Y713500D03*
X415000Y784000D03*
X415000Y766000D03*
D18*
X170000Y738500D03*
X170000Y781500D03*
D19*
X371400Y729600D03*
X371400Y780400D03*
D20*
X257100Y755000D03*
D21*
X251125Y418250D03*
X251125Y342050D03*
D22*
X251125Y392850D03*
X251125Y367450D03*
X225725Y367450D03*
X225725Y392850D03*
X225725Y418250D03*
X225725Y342050D03*
D23*
X78778Y904500D02*
X57823Y904500D01*
X57823Y853700D02*
X78778Y853700D01*
X78778Y650500D02*
X57823Y650500D01*
X57823Y802900D02*
X78778Y802900D01*
X78778Y752100D02*
X57823Y752100D01*
X57823Y701300D02*
X78778Y701300D01*
X81278Y319500D02*
X60323Y319500D01*
X60323Y268700D02*
X81278Y268700D01*
X81278Y65500D02*
X60323Y65500D01*
X60323Y217900D02*
X81278Y217900D01*
X81278Y167100D02*
X60323Y167100D01*
X60323Y116300D02*
X81278Y116300D01*
D17*
X415000Y634000D03*
X415000Y616000D03*
D18*
X172500Y611000D03*
X172500Y654000D03*
D19*
X373900Y599600D03*
X373900Y650400D03*
D20*
X259600Y625000D03*
D17*
X712500Y874000D03*
X712500Y856000D03*
X132500Y184000D03*
X132500Y166000D03*
X132500Y134000D03*
X132500Y116000D03*
X132500Y84000D03*
X132500Y66000D03*
D24*
X371250Y419750D03*
X371250Y413250D03*
X371250Y406750D03*
X371250Y400250D03*
X371250Y393750D03*
X371250Y387250D03*
X371250Y380750D03*
X371250Y374250D03*
X371250Y367750D03*
X371250Y361250D03*
X371250Y354750D03*
X371250Y348250D03*
X371250Y341750D03*
X371250Y335250D03*
X443750Y335250D03*
X443750Y341750D03*
X443750Y348250D03*
X443750Y354750D03*
X443750Y361250D03*
X443750Y367750D03*
X443750Y374250D03*
X443750Y380750D03*
X443750Y387250D03*
X443750Y393750D03*
X443750Y400250D03*
X443750Y406750D03*
X443750Y413250D03*
X443750Y419750D03*
D13*
X316500Y350000D03*
X298500Y350000D03*
X316500Y382500D03*
X298500Y382500D03*
X341500Y322500D03*
X323500Y322500D03*
D25*
X511500Y420000D03*
X548500Y420000D03*
D13*
X503500Y340000D03*
X521500Y340000D03*
X503500Y367500D03*
X521500Y367500D03*
D17*
X560000Y358500D03*
X560000Y376500D03*
X602500Y358500D03*
X602500Y376500D03*
X602500Y303500D03*
X602500Y321500D03*
X560000Y303500D03*
X560000Y321500D03*
D13*
X521500Y315000D03*
X503500Y315000D03*
D17*
X602500Y431500D03*
X602500Y413500D03*
D13*
X521500Y287500D03*
X503500Y287500D03*
D26*
X320000Y416000D03*
X320000Y444000D03*
D13*
X504000Y472500D03*
X486000Y472500D03*
X461500Y472500D03*
X443500Y472500D03*
D27*
X722700Y275750D03*
X722700Y430650D03*
D22*
X808400Y419450D03*
X808400Y394050D03*
X808400Y312350D03*
X808400Y286950D03*
X664300Y397600D03*
X664300Y372200D03*
X664300Y346800D03*
X664300Y321400D03*
X689700Y385000D03*
X689700Y359600D03*
X689700Y334200D03*
X689700Y308800D03*
D28*
X753000Y296200D03*
X753000Y410200D03*
D29*
X122620Y404400D02*
X107380Y404400D01*
X107380Y429800D02*
X122620Y429800D01*
X122620Y455200D02*
X107380Y455200D01*
X107380Y480600D02*
X122620Y480600D01*
D17*
X482500Y869000D03*
X482500Y851000D03*
D13*
X466000Y812500D03*
X484000Y812500D03*
X466000Y765000D03*
X484000Y765000D03*
D17*
X767500Y491500D03*
X767500Y473500D03*
D11*
X812500Y493000D03*
X812500Y472000D03*
D30*
G36*
X613040Y717750D02*
X623456Y707334D01*
X618068Y701946D01*
X607652Y712362D01*
X613040Y717750D01*
G37*
G36*
X618697Y723407D02*
X629113Y712991D01*
X623725Y707603D01*
X613309Y718019D01*
X618697Y723407D01*
G37*
G36*
X624354Y729063D02*
X634770Y718647D01*
X629382Y713259D01*
X618966Y723675D01*
X624354Y729063D01*
G37*
G36*
X630011Y734720D02*
X640427Y724304D01*
X635039Y718916D01*
X624623Y729332D01*
X630011Y734720D01*
G37*
G36*
X635668Y740377D02*
X646084Y729961D01*
X640696Y724573D01*
X630280Y734989D01*
X635668Y740377D01*
G37*
G36*
X641325Y746034D02*
X651741Y735618D01*
X646353Y730230D01*
X635937Y740646D01*
X641325Y746034D01*
G37*
G36*
X646981Y751691D02*
X657397Y741275D01*
X652009Y735887D01*
X641593Y746303D01*
X646981Y751691D01*
G37*
G36*
X652638Y757348D02*
X663054Y746932D01*
X657666Y741544D01*
X647250Y751960D01*
X652638Y757348D01*
G37*
D31*
G36*
X657666Y778456D02*
X663054Y773068D01*
X652638Y762652D01*
X647250Y768040D01*
X657666Y778456D01*
G37*
G36*
X652009Y784113D02*
X657397Y778725D01*
X646981Y768309D01*
X641593Y773697D01*
X652009Y784113D01*
G37*
G36*
X646353Y789770D02*
X651741Y784382D01*
X641325Y773966D01*
X635937Y779354D01*
X646353Y789770D01*
G37*
G36*
X640696Y795427D02*
X646084Y790039D01*
X635668Y779623D01*
X630280Y785011D01*
X640696Y795427D01*
G37*
G36*
X635039Y801084D02*
X640427Y795696D01*
X630011Y785280D01*
X624623Y790668D01*
X635039Y801084D01*
G37*
G36*
X629382Y806741D02*
X634770Y801353D01*
X624354Y790937D01*
X618966Y796325D01*
X629382Y806741D01*
G37*
G36*
X623725Y812397D02*
X629113Y807009D01*
X618697Y796593D01*
X613309Y801981D01*
X623725Y812397D01*
G37*
G36*
X618068Y818054D02*
X623456Y812666D01*
X613040Y802250D01*
X607652Y807638D01*
X618068Y818054D01*
G37*
D30*
G36*
X591932Y818054D02*
X602348Y807638D01*
X596960Y802250D01*
X586544Y812666D01*
X591932Y818054D01*
G37*
G36*
X586275Y812397D02*
X596691Y801981D01*
X591303Y796593D01*
X580887Y807009D01*
X586275Y812397D01*
G37*
G36*
X580618Y806741D02*
X591034Y796325D01*
X585646Y790937D01*
X575230Y801353D01*
X580618Y806741D01*
G37*
G36*
X574961Y801084D02*
X585377Y790668D01*
X579989Y785280D01*
X569573Y795696D01*
X574961Y801084D01*
G37*
G36*
X569304Y795427D02*
X579720Y785011D01*
X574332Y779623D01*
X563916Y790039D01*
X569304Y795427D01*
G37*
G36*
X563647Y789770D02*
X574063Y779354D01*
X568675Y773966D01*
X558259Y784382D01*
X563647Y789770D01*
G37*
G36*
X557991Y784113D02*
X568407Y773697D01*
X563019Y768309D01*
X552603Y778725D01*
X557991Y784113D01*
G37*
G36*
X552334Y778456D02*
X562750Y768040D01*
X557362Y762652D01*
X546946Y773068D01*
X552334Y778456D01*
G37*
D31*
G36*
X557362Y757348D02*
X562750Y751960D01*
X552334Y741544D01*
X546946Y746932D01*
X557362Y757348D01*
G37*
G36*
X563019Y751691D02*
X568407Y746303D01*
X557991Y735887D01*
X552603Y741275D01*
X563019Y751691D01*
G37*
G36*
X568675Y746034D02*
X574063Y740646D01*
X563647Y730230D01*
X558259Y735618D01*
X568675Y746034D01*
G37*
G36*
X574332Y740377D02*
X579720Y734989D01*
X569304Y724573D01*
X563916Y729961D01*
X574332Y740377D01*
G37*
G36*
X579989Y734720D02*
X585377Y729332D01*
X574961Y718916D01*
X569573Y724304D01*
X579989Y734720D01*
G37*
G36*
X585646Y729063D02*
X591034Y723675D01*
X580618Y713259D01*
X575230Y718647D01*
X585646Y729063D01*
G37*
G36*
X591303Y723407D02*
X596691Y718019D01*
X586275Y707603D01*
X580887Y712991D01*
X591303Y723407D01*
G37*
G36*
X596960Y717750D02*
X602348Y712362D01*
X591932Y701946D01*
X586544Y707334D01*
X596960Y717750D01*
G37*
D17*
X517500Y869000D03*
X517500Y851000D03*
D13*
X484000Y692500D03*
X466000Y692500D03*
D32*
X648000Y667275D02*
X648000Y652725D01*
X660000Y652725D02*
X660000Y667275D01*
X672000Y667275D02*
X672000Y652725D01*
D33*
X659975Y659975D03*
D13*
X484000Y637500D03*
X466000Y637500D03*
D34*
X622900Y910200D03*
D35*
X597500Y910200D03*
X572100Y910200D03*
X622900Y884800D03*
X597500Y884800D03*
X572100Y884800D03*
D36*
X327500Y193500D03*
X327500Y276500D03*
X597500Y113500D03*
X597500Y196500D03*
D37*
X332500Y135000D03*
X332500Y50000D03*
D38*
X472500Y82100D03*
D39*
X506536Y165412D03*
X489518Y165412D03*
X472500Y165412D03*
X455482Y165412D03*
X438464Y165412D03*
D40*
X492000Y220000D03*
X448000Y220000D03*
D41*
X22554Y580106D03*
X22554Y534894D03*
D42*
X47446Y592552D03*
X47446Y522448D03*
D43*
X785475Y836900D02*
X804525Y836900D01*
X804525Y875000D02*
X785475Y875000D01*
X785475Y913100D02*
X804525Y913100D01*
X804525Y704400D02*
X785475Y704400D01*
X785475Y742500D02*
X804525Y742500D01*
X804525Y780600D02*
X785475Y780600D01*
X785475Y571900D02*
X804525Y571900D01*
X804525Y610000D02*
X785475Y610000D01*
X785475Y648100D02*
X804525Y648100D01*
D44*
X508209Y303089D03*
X521476Y352073D03*
X464328Y259207D03*
X567398Y829667D03*
X475553Y802113D03*
X617403Y730678D03*
X494943Y771498D03*
X501066Y616382D03*
X501066Y551070D03*
X518414Y612300D03*
X625567Y636792D03*
X476574Y415344D03*
X476574Y401057D03*
X552091Y785785D03*
X685776Y490861D03*
X425549Y408200D03*
X604136Y800072D03*
X568419Y754150D03*
X407180Y415344D03*
X575562Y747006D03*
X384729Y368401D03*
X645977Y807216D03*
X418405Y885794D03*
X646997Y795990D03*
X628628Y779662D03*
X517394Y700063D03*
X526578Y750068D03*
X634751Y747006D03*
X457184Y334724D03*
X457184Y356155D03*
X457184Y401057D03*
X471471Y472492D03*
X616382Y431672D03*
X614341Y321458D03*
X425549Y331663D03*
X644956Y325540D03*
X494943Y876610D03*
X505148Y866405D03*
X455143Y616382D03*
X557193Y729658D03*
X482697Y777621D03*
X133686Y509230D03*
X448000Y623526D03*
M02*
