G04 EAGLE Gerber RS-274X export*
G75*
%MOMM*%
%FSLAX34Y34*%
%LPD*%
%INSoldermask Top*%
%IPPOS*%
%AMOC8*
5,1,8,0,0,1.08239X$1,22.5*%
G01*
%ADD10C,3.203200*%
%ADD11R,1.403200X1.403200*%
%ADD12R,1.473200X1.673200*%
%ADD13R,1.003200X1.403200*%
%ADD14R,1.983200X3.403200*%
%ADD15R,3.003200X2.603200*%
%ADD16C,2.235200*%
%ADD17R,1.403200X1.003200*%
%ADD18R,1.511200X1.511200*%
%ADD19C,1.511200*%
%ADD20R,1.703200X0.603200*%
%ADD21R,1.903200X3.503200*%
%ADD22R,2.203200X1.403200*%
%ADD23C,2.303200*%
%ADD24C,3.703200*%
%ADD25C,1.727200*%
%ADD26R,1.473200X0.762000*%
%ADD27R,0.762000X1.473200*%
%ADD28C,0.653200*%
%ADD29R,3.495041X1.534159*%
%ADD30R,4.503200X2.703200*%
%ADD31R,4.203200X5.703200*%
%ADD32R,10.613200X11.003200*%
%ADD33R,2.362200X1.270000*%
%ADD34R,2.603200X2.603200*%
%ADD35P,1.869504X8X112.500000*%
%ADD36C,2.451100*%
%ADD37P,1.852186X8X22.500000*%
%ADD38C,1.524000*%
%ADD39R,1.203200X0.703200*%
%ADD40R,0.603200X1.703200*%
%ADD41C,2.108200*%
%ADD42R,0.853200X0.703200*%
%ADD43R,0.703200X0.853200*%
%ADD44R,2.184400X0.762000*%
%ADD45P,1.852186X8X112.500000*%
%ADD46R,1.005200X1.175200*%
%ADD47R,1.803200X2.003200*%
%ADD48C,0.959600*%


D10*
X172500Y832500D03*
X672500Y832500D03*
X172500Y132500D03*
X672500Y132500D03*
D11*
X753000Y212500D03*
X732000Y212500D03*
D12*
X701500Y42500D03*
X658500Y42500D03*
D13*
X711500Y212500D03*
X693500Y212500D03*
D14*
X657600Y85000D03*
X707400Y85000D03*
D15*
X820000Y43000D03*
X820000Y157000D03*
X759000Y43000D03*
X759000Y157000D03*
D16*
X820000Y100000D03*
X774280Y100000D03*
D17*
X752500Y624000D03*
X752500Y606000D03*
X752500Y749000D03*
X752500Y731000D03*
D18*
X621750Y643625D03*
X697950Y643625D03*
D19*
X647150Y643625D03*
X672550Y643625D03*
X672550Y618225D03*
X647150Y618225D03*
X621750Y618225D03*
X697950Y618225D03*
D17*
X752500Y874000D03*
X752500Y856000D03*
D20*
X478750Y427250D03*
X478750Y420750D03*
X478750Y414250D03*
X478750Y407750D03*
X478750Y401250D03*
X478750Y394750D03*
X478750Y388250D03*
X478750Y381750D03*
X478750Y375250D03*
X478750Y368750D03*
X478750Y362250D03*
X478750Y355750D03*
X478750Y349250D03*
X478750Y342750D03*
X551250Y342750D03*
X551250Y349250D03*
X551250Y355750D03*
X551250Y362250D03*
X551250Y368750D03*
X551250Y375250D03*
X551250Y381750D03*
X551250Y388250D03*
X551250Y394750D03*
X551250Y401250D03*
X551250Y407750D03*
X551250Y414250D03*
X551250Y420750D03*
X551250Y427250D03*
D13*
X496500Y310000D03*
X478500Y310000D03*
D17*
X457500Y326500D03*
X457500Y308500D03*
D13*
X513500Y310000D03*
X531500Y310000D03*
D21*
X591500Y435000D03*
X628500Y435000D03*
D13*
X573500Y370000D03*
X591500Y370000D03*
X573500Y395000D03*
X591500Y395000D03*
X564000Y322500D03*
X546000Y322500D03*
D17*
X622500Y391500D03*
X622500Y373500D03*
D13*
X564000Y295000D03*
X546000Y295000D03*
D22*
X498500Y470000D03*
X526500Y470000D03*
D13*
X571500Y475000D03*
X553500Y475000D03*
X571500Y452500D03*
X553500Y452500D03*
D23*
X722700Y285750D03*
X722700Y440650D03*
D19*
X808400Y429450D03*
X808400Y404050D03*
X808400Y322350D03*
X808400Y296950D03*
X664300Y407600D03*
X664300Y382200D03*
X664300Y356800D03*
X664300Y331400D03*
X689700Y395000D03*
X689700Y369600D03*
X689700Y344200D03*
X689700Y318800D03*
D24*
X753000Y306200D03*
X753000Y420200D03*
D25*
X730120Y550600D02*
X714880Y550600D01*
X714880Y525200D02*
X730120Y525200D01*
X730120Y499800D02*
X714880Y499800D01*
X714880Y474400D02*
X730120Y474400D01*
D13*
X559000Y812500D03*
X541000Y812500D03*
X541000Y785000D03*
X559000Y785000D03*
X581000Y785000D03*
X599000Y785000D03*
X693500Y252500D03*
X711500Y252500D03*
D11*
X753000Y252500D03*
X732000Y252500D03*
D26*
G36*
X660540Y685250D02*
X670956Y674834D01*
X665568Y669446D01*
X655152Y679862D01*
X660540Y685250D01*
G37*
G36*
X666197Y690907D02*
X676613Y680491D01*
X671225Y675103D01*
X660809Y685519D01*
X666197Y690907D01*
G37*
G36*
X671854Y696563D02*
X682270Y686147D01*
X676882Y680759D01*
X666466Y691175D01*
X671854Y696563D01*
G37*
G36*
X677511Y702220D02*
X687927Y691804D01*
X682539Y686416D01*
X672123Y696832D01*
X677511Y702220D01*
G37*
G36*
X683168Y707877D02*
X693584Y697461D01*
X688196Y692073D01*
X677780Y702489D01*
X683168Y707877D01*
G37*
G36*
X688825Y713534D02*
X699241Y703118D01*
X693853Y697730D01*
X683437Y708146D01*
X688825Y713534D01*
G37*
G36*
X694481Y719191D02*
X704897Y708775D01*
X699509Y703387D01*
X689093Y713803D01*
X694481Y719191D01*
G37*
G36*
X700138Y724848D02*
X710554Y714432D01*
X705166Y709044D01*
X694750Y719460D01*
X700138Y724848D01*
G37*
D27*
G36*
X705166Y745956D02*
X710554Y740568D01*
X700138Y730152D01*
X694750Y735540D01*
X705166Y745956D01*
G37*
G36*
X699509Y751613D02*
X704897Y746225D01*
X694481Y735809D01*
X689093Y741197D01*
X699509Y751613D01*
G37*
G36*
X693853Y757270D02*
X699241Y751882D01*
X688825Y741466D01*
X683437Y746854D01*
X693853Y757270D01*
G37*
G36*
X688196Y762927D02*
X693584Y757539D01*
X683168Y747123D01*
X677780Y752511D01*
X688196Y762927D01*
G37*
G36*
X682539Y768584D02*
X687927Y763196D01*
X677511Y752780D01*
X672123Y758168D01*
X682539Y768584D01*
G37*
G36*
X676882Y774241D02*
X682270Y768853D01*
X671854Y758437D01*
X666466Y763825D01*
X676882Y774241D01*
G37*
G36*
X671225Y779897D02*
X676613Y774509D01*
X666197Y764093D01*
X660809Y769481D01*
X671225Y779897D01*
G37*
G36*
X665568Y785554D02*
X670956Y780166D01*
X660540Y769750D01*
X655152Y775138D01*
X665568Y785554D01*
G37*
D26*
G36*
X639432Y785554D02*
X649848Y775138D01*
X644460Y769750D01*
X634044Y780166D01*
X639432Y785554D01*
G37*
G36*
X633775Y779897D02*
X644191Y769481D01*
X638803Y764093D01*
X628387Y774509D01*
X633775Y779897D01*
G37*
G36*
X628118Y774241D02*
X638534Y763825D01*
X633146Y758437D01*
X622730Y768853D01*
X628118Y774241D01*
G37*
G36*
X622461Y768584D02*
X632877Y758168D01*
X627489Y752780D01*
X617073Y763196D01*
X622461Y768584D01*
G37*
G36*
X616804Y762927D02*
X627220Y752511D01*
X621832Y747123D01*
X611416Y757539D01*
X616804Y762927D01*
G37*
G36*
X611147Y757270D02*
X621563Y746854D01*
X616175Y741466D01*
X605759Y751882D01*
X611147Y757270D01*
G37*
G36*
X605491Y751613D02*
X615907Y741197D01*
X610519Y735809D01*
X600103Y746225D01*
X605491Y751613D01*
G37*
G36*
X599834Y745956D02*
X610250Y735540D01*
X604862Y730152D01*
X594446Y740568D01*
X599834Y745956D01*
G37*
D27*
G36*
X604862Y724848D02*
X610250Y719460D01*
X599834Y709044D01*
X594446Y714432D01*
X604862Y724848D01*
G37*
G36*
X610519Y719191D02*
X615907Y713803D01*
X605491Y703387D01*
X600103Y708775D01*
X610519Y719191D01*
G37*
G36*
X616175Y713534D02*
X621563Y708146D01*
X611147Y697730D01*
X605759Y703118D01*
X616175Y713534D01*
G37*
G36*
X621832Y707877D02*
X627220Y702489D01*
X616804Y692073D01*
X611416Y697461D01*
X621832Y707877D01*
G37*
G36*
X627489Y702220D02*
X632877Y696832D01*
X622461Y686416D01*
X617073Y691804D01*
X627489Y702220D01*
G37*
G36*
X633146Y696563D02*
X638534Y691175D01*
X628118Y680759D01*
X622730Y686147D01*
X633146Y696563D01*
G37*
G36*
X638803Y690907D02*
X644191Y685519D01*
X633775Y675103D01*
X628387Y680491D01*
X638803Y690907D01*
G37*
G36*
X644460Y685250D02*
X649848Y679862D01*
X639432Y669446D01*
X634044Y674834D01*
X644460Y685250D01*
G37*
D13*
X581000Y812500D03*
X599000Y812500D03*
X559000Y752500D03*
X541000Y752500D03*
D28*
X701371Y674159D02*
X711659Y663871D01*
X720144Y672356D02*
X709856Y682644D01*
X718341Y691129D02*
X728629Y680841D01*
D29*
G36*
X732780Y684396D02*
X708068Y659684D01*
X697220Y670532D01*
X721932Y695244D01*
X732780Y684396D01*
G37*
D13*
X559000Y725000D03*
X541000Y725000D03*
D30*
X366000Y220000D03*
X449000Y220000D03*
X654000Y205000D03*
X571000Y205000D03*
D31*
X370000Y87500D03*
X455000Y87500D03*
D32*
X582900Y82500D03*
D33*
X499588Y116536D03*
X499588Y99518D03*
X499588Y82500D03*
X499588Y65482D03*
X499588Y48464D03*
D34*
X512500Y237000D03*
X512500Y193000D03*
D35*
X814946Y209894D03*
X814946Y255106D03*
D36*
X790054Y197448D03*
X790054Y267552D03*
D25*
X789880Y652500D02*
X805120Y652500D01*
X805120Y627500D02*
X789880Y627500D01*
X789880Y602500D02*
X805120Y602500D01*
X805120Y777500D02*
X789880Y777500D01*
X789880Y752500D02*
X805120Y752500D01*
X805120Y727500D02*
X789880Y727500D01*
X789880Y902500D02*
X805120Y902500D01*
X805120Y877500D02*
X789880Y877500D01*
X789880Y852500D02*
X805120Y852500D01*
D37*
X634600Y887300D03*
X634600Y912700D03*
X660000Y887300D03*
X660000Y912700D03*
X685400Y887300D03*
X685400Y912700D03*
D38*
X569704Y920000D02*
X556496Y920000D01*
X493504Y920000D02*
X480296Y920000D01*
D11*
X318000Y375000D03*
X297000Y375000D03*
X318000Y337500D03*
X297000Y337500D03*
X318000Y300000D03*
X297000Y300000D03*
X318000Y260000D03*
X297000Y260000D03*
X318000Y165000D03*
X297000Y165000D03*
X318000Y127500D03*
X297000Y127500D03*
X318000Y90000D03*
X297000Y90000D03*
D39*
X172600Y296950D03*
X172600Y284250D03*
X172600Y271550D03*
X172600Y258850D03*
X172600Y246150D03*
X172600Y233450D03*
X172600Y220750D03*
X172600Y208050D03*
X237400Y208050D03*
X237400Y220750D03*
X237400Y233450D03*
X237400Y246150D03*
X237400Y258850D03*
X237400Y271550D03*
X237400Y284250D03*
X237400Y296950D03*
X207600Y154450D03*
X207600Y141750D03*
X207600Y129050D03*
X207600Y116350D03*
X207600Y103650D03*
X207600Y90950D03*
X207600Y78250D03*
X207600Y65550D03*
X272400Y65550D03*
X272400Y78250D03*
X272400Y90950D03*
X272400Y103650D03*
X272400Y116350D03*
X272400Y129050D03*
X272400Y141750D03*
X272400Y154450D03*
D11*
X318000Y52500D03*
X297000Y52500D03*
D40*
X229750Y436250D03*
X223250Y436250D03*
X216750Y436250D03*
X210250Y436250D03*
X203750Y436250D03*
X197250Y436250D03*
X190750Y436250D03*
X184250Y436250D03*
X177750Y436250D03*
X171250Y436250D03*
X164750Y436250D03*
X158250Y436250D03*
X151750Y436250D03*
X145250Y436250D03*
X145250Y363750D03*
X151750Y363750D03*
X158250Y363750D03*
X164750Y363750D03*
X171250Y363750D03*
X177750Y363750D03*
X184250Y363750D03*
X190750Y363750D03*
X197250Y363750D03*
X203750Y363750D03*
X210250Y363750D03*
X216750Y363750D03*
X223250Y363750D03*
X229750Y363750D03*
D41*
X59525Y511550D02*
X40475Y511550D01*
X40475Y473450D02*
X59525Y473450D01*
D39*
X362600Y851950D03*
X362600Y839250D03*
X362600Y826550D03*
X362600Y813850D03*
X362600Y801150D03*
X362600Y788450D03*
X362600Y775750D03*
X362600Y763050D03*
X427400Y763050D03*
X427400Y775750D03*
X427400Y788450D03*
X427400Y801150D03*
X427400Y813850D03*
X427400Y826550D03*
X427400Y839250D03*
X427400Y851950D03*
D42*
X96250Y284500D03*
X96250Y276500D03*
X96250Y268500D03*
X96250Y260500D03*
X108750Y260500D03*
X108750Y268500D03*
X108750Y276500D03*
X108750Y284500D03*
X96250Y337000D03*
X96250Y329000D03*
X96250Y321000D03*
X96250Y313000D03*
X108750Y313000D03*
X108750Y321000D03*
X108750Y329000D03*
X108750Y337000D03*
X96250Y99500D03*
X96250Y91500D03*
X96250Y83500D03*
X96250Y75500D03*
X108750Y75500D03*
X108750Y83500D03*
X108750Y91500D03*
X108750Y99500D03*
X96250Y152000D03*
X96250Y144000D03*
X96250Y136000D03*
X96250Y128000D03*
X108750Y128000D03*
X108750Y136000D03*
X108750Y144000D03*
X108750Y152000D03*
X598750Y339500D03*
X598750Y331500D03*
X598750Y323500D03*
X598750Y315500D03*
X611250Y315500D03*
X611250Y323500D03*
X611250Y331500D03*
X611250Y339500D03*
D43*
X189500Y481250D03*
X181500Y481250D03*
X173500Y481250D03*
X165500Y481250D03*
X165500Y468750D03*
X173500Y468750D03*
X181500Y468750D03*
X189500Y468750D03*
D42*
X478750Y799500D03*
X478750Y791500D03*
X478750Y783500D03*
X478750Y775500D03*
X491250Y775500D03*
X491250Y783500D03*
X491250Y791500D03*
X491250Y799500D03*
X478750Y859500D03*
X478750Y851500D03*
X478750Y843500D03*
X478750Y835500D03*
X491250Y835500D03*
X491250Y843500D03*
X491250Y851500D03*
X491250Y859500D03*
D41*
X59525Y413700D02*
X40475Y413700D01*
X40475Y375600D02*
X59525Y375600D01*
X59525Y337500D02*
X40475Y337500D01*
X40475Y299400D02*
X59525Y299400D01*
X59525Y261300D02*
X40475Y261300D01*
X40475Y203700D02*
X59525Y203700D01*
X59525Y165600D02*
X40475Y165600D01*
X40475Y127500D02*
X59525Y127500D01*
X59525Y89400D02*
X40475Y89400D01*
X40475Y51300D02*
X59525Y51300D01*
D17*
X102500Y396500D03*
X102500Y378500D03*
D11*
X297000Y837500D03*
X318000Y837500D03*
X297000Y800000D03*
X318000Y800000D03*
X297000Y762500D03*
X318000Y762500D03*
X297000Y722500D03*
X318000Y722500D03*
D34*
X159500Y915000D03*
X115500Y915000D03*
X290500Y905000D03*
X334500Y905000D03*
D22*
X416500Y907500D03*
X388500Y907500D03*
D41*
X59525Y913950D02*
X40475Y913950D01*
X40475Y875850D02*
X59525Y875850D01*
X59525Y837750D02*
X40475Y837750D01*
X40475Y799650D02*
X59525Y799650D01*
X59525Y761550D02*
X40475Y761550D01*
X40475Y723450D02*
X59525Y723450D01*
X59525Y685350D02*
X40475Y685350D01*
X40475Y647250D02*
X59525Y647250D01*
X59525Y609150D02*
X40475Y609150D01*
X40475Y571050D02*
X59525Y571050D01*
D44*
X266736Y689200D03*
X266736Y701900D03*
X266736Y714600D03*
X266736Y727300D03*
X266736Y740000D03*
X266736Y752700D03*
X266736Y765400D03*
X266736Y778100D03*
X266736Y790800D03*
X173264Y790800D03*
X173264Y778100D03*
X173264Y765400D03*
X173264Y752700D03*
X173264Y740000D03*
X173264Y727300D03*
X173264Y714600D03*
X173264Y701900D03*
X173264Y689200D03*
D39*
X365100Y709450D03*
X365100Y696750D03*
X365100Y684050D03*
X365100Y671350D03*
X365100Y658650D03*
X365100Y645950D03*
X365100Y633250D03*
X365100Y620550D03*
X429900Y620550D03*
X429900Y633250D03*
X429900Y645950D03*
X429900Y658650D03*
X429900Y671350D03*
X429900Y684050D03*
X429900Y696750D03*
X429900Y709450D03*
D43*
X244500Y481250D03*
X236500Y481250D03*
X228500Y481250D03*
X220500Y481250D03*
X220500Y468750D03*
X228500Y468750D03*
X236500Y468750D03*
X244500Y468750D03*
D42*
X478750Y739500D03*
X478750Y731500D03*
X478750Y723500D03*
X478750Y715500D03*
X491250Y715500D03*
X491250Y723500D03*
X491250Y731500D03*
X491250Y739500D03*
X478750Y679500D03*
X478750Y671500D03*
X478750Y663500D03*
X478750Y655500D03*
X491250Y655500D03*
X491250Y663500D03*
X491250Y671500D03*
X491250Y679500D03*
D11*
X297000Y682500D03*
X318000Y682500D03*
X297000Y642500D03*
X318000Y642500D03*
X297000Y602500D03*
X318000Y602500D03*
X297000Y562500D03*
X318000Y562500D03*
D45*
X405200Y348800D03*
X379800Y348800D03*
X405200Y374200D03*
X379800Y374200D03*
X405200Y399600D03*
X379800Y399600D03*
X405200Y425000D03*
X379800Y425000D03*
X405200Y450400D03*
X379800Y450400D03*
X405200Y475800D03*
X379800Y475800D03*
X405200Y501200D03*
X379800Y501200D03*
D46*
X177500Y567500D03*
X168000Y587500D03*
X187000Y587500D03*
X217500Y567500D03*
X208000Y587500D03*
X227000Y587500D03*
X217500Y625000D03*
X208000Y645000D03*
X227000Y645000D03*
X177500Y625000D03*
X168000Y645000D03*
X187000Y645000D03*
D47*
X101000Y797500D03*
X129000Y797500D03*
X101000Y760000D03*
X129000Y760000D03*
X101000Y722500D03*
X129000Y722500D03*
X101000Y685000D03*
X129000Y685000D03*
X101000Y647500D03*
X129000Y647500D03*
X101000Y610000D03*
X129000Y610000D03*
X101000Y572500D03*
X129000Y572500D03*
X241500Y905000D03*
X213500Y905000D03*
X101000Y835000D03*
X129000Y835000D03*
D48*
X516373Y50005D03*
X516373Y70415D03*
X516373Y174506D03*
X302068Y574542D03*
X301048Y589849D03*
X580665Y747006D03*
X601075Y772519D03*
X542906Y469430D03*
X331663Y374524D03*
X556173Y768437D03*
X678633Y779662D03*
X586788Y599034D03*
X622505Y605157D03*
X689858Y630669D03*
X593931Y733740D03*
X574542Y714350D03*
X601075Y592911D03*
X579644Y571480D03*
X775580Y665366D03*
X177567Y377585D03*
X707207Y751088D03*
X642915Y863343D03*
X671489Y786806D03*
X562296Y564337D03*
X445959Y346970D03*
X460246Y361257D03*
X618423Y719453D03*
X618423Y675571D03*
X700063Y758232D03*
X716391Y642915D03*
X716391Y567398D03*
X532701Y353093D03*
X532701Y396975D03*
X643936Y464328D03*
X588829Y324519D03*
X574542Y326560D03*
X572501Y341868D03*
X629649Y311253D03*
X535763Y329622D03*
X629649Y720473D03*
X566378Y767416D03*
X564337Y712309D03*
X610259Y690879D03*
X176547Y410241D03*
X359216Y410241D03*
X591890Y719453D03*
X603116Y698022D03*
X424528Y377585D03*
X651079Y692920D03*
X682715Y513312D03*
X621485Y774560D03*
X622505Y740883D03*
X575562Y725576D03*
X523517Y119399D03*
X523517Y218387D03*
X623526Y784765D03*
X650059Y740883D03*
X137768Y137768D03*
X188793Y173485D03*
X134706Y321458D03*
X190834Y377585D03*
X195936Y297986D03*
X203080Y336765D03*
X181649Y315335D03*
X140829Y152055D03*
X259207Y159198D03*
X165321Y166342D03*
X234715Y166342D03*
X216346Y317376D03*
X119399Y135727D03*
X243900Y81640D03*
X223490Y334724D03*
X137768Y127563D03*
X261248Y88784D03*
X230633Y310232D03*
X491881Y766396D03*
X501066Y835790D03*
X187772Y624546D03*
X207162Y624546D03*
X429631Y895999D03*
X234715Y790888D03*
X329622Y886815D03*
X186752Y614341D03*
X131645Y669448D03*
X157157Y726596D03*
X167362Y679653D03*
X157157Y760273D03*
X187772Y659243D03*
X188793Y759252D03*
X479635Y690879D03*
X439836Y690879D03*
X469430Y654141D03*
X440856Y654141D03*
X400036Y651079D03*
X247982Y673530D03*
X352073Y820482D03*
X282679Y601075D03*
X326560Y774560D03*
X282679Y590870D03*
X346970Y770478D03*
X221449Y513312D03*
X354114Y706186D03*
X228592Y520455D03*
X355134Y677612D03*
M02*
