G04 EAGLE Gerber RS-274X export*
G75*
%MOMM*%
%FSLAX34Y34*%
%LPD*%
%INSoldermask Bottom*%
%IPPOS*%
%AMOC8*
5,1,8,0,0,1.08239X$1,22.5*%
G01*
%ADD10C,3.203200*%
%ADD11C,2.235200*%
%ADD12R,1.511200X1.511200*%
%ADD13C,1.511200*%
%ADD14C,2.303200*%
%ADD15C,3.703200*%
%ADD16C,1.727200*%
%ADD17P,1.869504X8X112.500000*%
%ADD18C,2.451100*%
%ADD19P,1.852186X8X22.500000*%
%ADD20C,1.524000*%
%ADD21C,2.108200*%
%ADD22P,1.852186X8X112.500000*%
%ADD23C,0.959600*%


D10*
X172500Y832500D03*
X672500Y832500D03*
X172500Y132500D03*
X672500Y132500D03*
D11*
X820000Y100000D03*
X774280Y100000D03*
D12*
X621750Y643625D03*
X697950Y643625D03*
D13*
X647150Y643625D03*
X672550Y643625D03*
X672550Y618225D03*
X647150Y618225D03*
X621750Y618225D03*
X697950Y618225D03*
D14*
X722700Y285750D03*
X722700Y440650D03*
D13*
X808400Y429450D03*
X808400Y404050D03*
X808400Y322350D03*
X808400Y296950D03*
X664300Y407600D03*
X664300Y382200D03*
X664300Y356800D03*
X664300Y331400D03*
X689700Y395000D03*
X689700Y369600D03*
X689700Y344200D03*
X689700Y318800D03*
D15*
X753000Y306200D03*
X753000Y420200D03*
D16*
X730120Y550600D02*
X714880Y550600D01*
X714880Y525200D02*
X730120Y525200D01*
X730120Y499800D02*
X714880Y499800D01*
X714880Y474400D02*
X730120Y474400D01*
D17*
X814946Y209894D03*
X814946Y255106D03*
D18*
X790054Y197448D03*
X790054Y267552D03*
D16*
X789880Y652500D02*
X805120Y652500D01*
X805120Y627500D02*
X789880Y627500D01*
X789880Y602500D02*
X805120Y602500D01*
X805120Y777500D02*
X789880Y777500D01*
X789880Y752500D02*
X805120Y752500D01*
X805120Y727500D02*
X789880Y727500D01*
X789880Y902500D02*
X805120Y902500D01*
X805120Y877500D02*
X789880Y877500D01*
X789880Y852500D02*
X805120Y852500D01*
D19*
X634600Y887300D03*
X634600Y912700D03*
X660000Y887300D03*
X660000Y912700D03*
X685400Y887300D03*
X685400Y912700D03*
D20*
X569704Y920000D02*
X556496Y920000D01*
X493504Y920000D02*
X480296Y920000D01*
D21*
X59525Y511550D02*
X40475Y511550D01*
X40475Y473450D02*
X59525Y473450D01*
X59525Y413700D02*
X40475Y413700D01*
X40475Y375600D02*
X59525Y375600D01*
X59525Y337500D02*
X40475Y337500D01*
X40475Y299400D02*
X59525Y299400D01*
X59525Y261300D02*
X40475Y261300D01*
X40475Y203700D02*
X59525Y203700D01*
X59525Y165600D02*
X40475Y165600D01*
X40475Y127500D02*
X59525Y127500D01*
X59525Y89400D02*
X40475Y89400D01*
X40475Y51300D02*
X59525Y51300D01*
X59525Y913950D02*
X40475Y913950D01*
X40475Y875850D02*
X59525Y875850D01*
X59525Y837750D02*
X40475Y837750D01*
X40475Y799650D02*
X59525Y799650D01*
X59525Y761550D02*
X40475Y761550D01*
X40475Y723450D02*
X59525Y723450D01*
X59525Y685350D02*
X40475Y685350D01*
X40475Y647250D02*
X59525Y647250D01*
X59525Y609150D02*
X40475Y609150D01*
X40475Y571050D02*
X59525Y571050D01*
D22*
X405200Y348800D03*
X379800Y348800D03*
X405200Y374200D03*
X379800Y374200D03*
X405200Y399600D03*
X379800Y399600D03*
X405200Y425000D03*
X379800Y425000D03*
X405200Y450400D03*
X379800Y450400D03*
X405200Y475800D03*
X379800Y475800D03*
X405200Y501200D03*
X379800Y501200D03*
D23*
X516373Y50005D03*
X516373Y70415D03*
X516373Y174506D03*
X302068Y574542D03*
X301048Y589849D03*
X580665Y747006D03*
X601075Y772519D03*
X542906Y469430D03*
X331663Y374524D03*
X556173Y768437D03*
X678633Y779662D03*
X586788Y599034D03*
X622505Y605157D03*
X689858Y630669D03*
X593931Y733740D03*
X574542Y714350D03*
X601075Y592911D03*
X579644Y571480D03*
X775580Y665366D03*
X177567Y377585D03*
X707207Y751088D03*
X642915Y863343D03*
X671489Y786806D03*
X562296Y564337D03*
X445959Y346970D03*
X460246Y361257D03*
X618423Y719453D03*
X618423Y675571D03*
X700063Y758232D03*
X716391Y642915D03*
X716391Y567398D03*
X532701Y353093D03*
X532701Y396975D03*
X643936Y464328D03*
X588829Y324519D03*
X574542Y326560D03*
X572501Y341868D03*
X629649Y311253D03*
X535763Y329622D03*
X629649Y720473D03*
X566378Y767416D03*
X564337Y712309D03*
X610259Y690879D03*
X176547Y410241D03*
X359216Y410241D03*
X591890Y719453D03*
X603116Y698022D03*
X424528Y377585D03*
X651079Y692920D03*
X682715Y513312D03*
X621485Y774560D03*
X622505Y740883D03*
X575562Y725576D03*
X523517Y119399D03*
X523517Y218387D03*
X623526Y784765D03*
X650059Y740883D03*
X137768Y137768D03*
X188793Y173485D03*
X134706Y321458D03*
X190834Y377585D03*
X195936Y297986D03*
X203080Y336765D03*
X181649Y315335D03*
X140829Y152055D03*
X259207Y159198D03*
X165321Y166342D03*
X234715Y166342D03*
X216346Y317376D03*
X119399Y135727D03*
X243900Y81640D03*
X223490Y334724D03*
X137768Y127563D03*
X261248Y88784D03*
X230633Y310232D03*
X491881Y766396D03*
X501066Y835790D03*
X187772Y624546D03*
X207162Y624546D03*
X429631Y895999D03*
X234715Y790888D03*
X329622Y886815D03*
X186752Y614341D03*
X131645Y669448D03*
X157157Y726596D03*
X167362Y679653D03*
X157157Y760273D03*
X187772Y659243D03*
X188793Y759252D03*
X479635Y690879D03*
X439836Y690879D03*
X469430Y654141D03*
X440856Y654141D03*
X400036Y651079D03*
X247982Y673530D03*
X352073Y820482D03*
X282679Y601075D03*
X326560Y774560D03*
X282679Y590870D03*
X346970Y770478D03*
X221449Y513312D03*
X354114Y706186D03*
X228592Y520455D03*
X355134Y677612D03*
M02*
