G04 EAGLE Gerber RS-274X export*
G75*
%MOMM*%
%FSLAX34Y34*%
%LPD*%
%AMOC8*
5,1,8,0,0,1.08239X$1,22.5*%
G01*
%ADD10C,1.422400*%
%ADD11C,1.524000*%
%ADD12R,1.308000X1.308000*%
%ADD13C,1.308000*%
%ADD14C,1.879600*%
%ADD15C,2.095500*%
%ADD16C,1.320800*%
%ADD17C,1.408000*%
%ADD18C,2.400000*%
%ADD19C,1.508000*%
%ADD20C,0.300000*%
%ADD21C,0.906400*%


D10*
X600200Y32888D02*
X600200Y47112D01*
X574800Y47112D02*
X574800Y32888D01*
D11*
X772380Y620000D02*
X787620Y620000D01*
X787620Y595000D02*
X772380Y595000D01*
X772380Y570000D02*
X787620Y570000D01*
X787620Y762500D02*
X772380Y762500D01*
X772380Y737500D02*
X787620Y737500D01*
X787620Y712500D02*
X772380Y712500D01*
D12*
X331125Y148250D03*
X331125Y72050D03*
D13*
X331125Y122850D03*
X331125Y97450D03*
X305725Y97450D03*
X305725Y122850D03*
X305725Y148250D03*
X305725Y72050D03*
D14*
X626200Y633000D03*
X626200Y658400D03*
X626200Y683800D03*
X626200Y709200D03*
X626200Y734600D03*
X626200Y760000D03*
X626200Y785400D03*
X626200Y810800D03*
X626200Y836200D03*
X626200Y861600D03*
X626200Y887000D03*
X626200Y912400D03*
X473800Y912400D03*
X473800Y887000D03*
X473800Y861600D03*
X473800Y836200D03*
X473800Y810800D03*
X473800Y785400D03*
X473800Y760000D03*
X473800Y734600D03*
X473800Y709200D03*
X473800Y683800D03*
X473800Y658400D03*
X473800Y633000D03*
D15*
X78778Y904500D02*
X57823Y904500D01*
X57823Y853700D02*
X78778Y853700D01*
X78778Y650500D02*
X57823Y650500D01*
X57823Y802900D02*
X78778Y802900D01*
X78778Y752100D02*
X57823Y752100D01*
X57823Y701300D02*
X78778Y701300D01*
X81278Y319500D02*
X60323Y319500D01*
X60323Y268700D02*
X81278Y268700D01*
X81278Y65500D02*
X60323Y65500D01*
X60323Y217900D02*
X81278Y217900D01*
X81278Y167100D02*
X60323Y167100D01*
X60323Y116300D02*
X81278Y116300D01*
D11*
X772380Y905000D02*
X787620Y905000D01*
X787620Y880000D02*
X772380Y880000D01*
X772380Y855000D02*
X787620Y855000D01*
D16*
X505870Y420000D03*
X554130Y420000D03*
D17*
X690000Y308050D03*
X664600Y320750D03*
X690000Y333450D03*
X664600Y346150D03*
X690000Y358850D03*
X664600Y371550D03*
X690000Y384250D03*
X664600Y396950D03*
D18*
X721413Y429325D03*
X721413Y276470D03*
D19*
X801244Y422231D03*
X779018Y282768D03*
X782194Y422231D03*
X798069Y282769D03*
D20*
X781000Y620125D02*
X781000Y688875D01*
X800250Y708125D01*
X800250Y742500D01*
X781000Y761750D01*
X781000Y620125D02*
X780000Y620000D01*
X781000Y761750D02*
X780000Y762500D01*
X800250Y885500D02*
X781000Y904750D01*
X800250Y885500D02*
X800250Y782375D01*
X781000Y763125D01*
X781000Y904750D02*
X780000Y905000D01*
X781000Y763125D02*
X780000Y762500D01*
X688875Y397375D02*
X665500Y397375D01*
X690938Y399438D02*
X720500Y429000D01*
X690938Y399438D02*
X688875Y397375D01*
X665500Y397375D02*
X664600Y396950D01*
X720500Y429000D02*
X721413Y429325D01*
X797500Y423500D02*
X800250Y423500D01*
X797500Y423500D02*
X782375Y438625D01*
X730125Y438625D01*
X721875Y430375D01*
X800250Y423500D02*
X801244Y422231D01*
X721875Y430375D02*
X721413Y429325D01*
X720500Y369875D02*
X720500Y277750D01*
X720500Y369875D02*
X690938Y399438D01*
X720500Y277750D02*
X721413Y276470D01*
X346500Y431750D02*
X346500Y486750D01*
X504625Y644875D01*
X504625Y803000D01*
D21*
X346500Y431750D03*
X504625Y803000D03*
D20*
X446875Y760375D02*
X446875Y756250D01*
X45375Y354750D01*
X45375Y192500D01*
X70125Y167750D01*
X70800Y167100D01*
D21*
X446875Y760375D03*
D20*
X306625Y195250D02*
X306625Y148500D01*
X306625Y195250D02*
X402875Y291500D01*
X402875Y292875D01*
X611875Y501875D01*
X611875Y745250D01*
X625625Y759000D01*
X306625Y148500D02*
X305725Y148250D01*
X625625Y759000D02*
X626200Y760000D01*
X331375Y82500D02*
X331375Y72875D01*
X331375Y82500D02*
X408375Y159500D01*
X408375Y290125D01*
X640750Y522500D01*
X640750Y771375D01*
X627000Y785125D01*
X331375Y72875D02*
X331125Y72050D01*
X626200Y785400D02*
X627000Y785125D01*
X492250Y811250D02*
X474375Y811250D01*
X492250Y811250D02*
X613250Y932250D01*
X727375Y932250D01*
X779625Y880000D01*
X474375Y811250D02*
X473800Y810800D01*
X779625Y880000D02*
X780000Y880000D01*
X389125Y349250D02*
X353375Y349250D01*
X389125Y349250D02*
X496375Y456500D01*
X496375Y624250D01*
D21*
X353375Y349250D03*
X496375Y624250D03*
D20*
X459250Y760375D02*
X319000Y620125D01*
X459250Y760375D02*
X459250Y897875D01*
X473000Y911625D01*
X473800Y912400D01*
X319000Y404000D02*
X285000Y370000D01*
X319000Y404000D02*
X319000Y620125D01*
D21*
X285000Y370000D03*
D20*
X328625Y589875D02*
X446875Y708125D01*
D21*
X446875Y708125D03*
X328625Y589875D03*
D20*
X125125Y104500D02*
X82500Y104500D01*
X71500Y115500D01*
X70800Y116300D01*
X473000Y753500D02*
X473000Y759000D01*
X473000Y753500D02*
X456500Y737000D01*
X456500Y666875D01*
X328625Y539000D01*
X473000Y759000D02*
X473800Y760000D01*
D21*
X125125Y104500D03*
X328625Y539000D03*
D20*
X474375Y709500D02*
X474375Y715000D01*
X495000Y735625D01*
X495000Y805750D01*
X616000Y926750D01*
X708125Y926750D01*
X779625Y855250D01*
X474375Y709500D02*
X473800Y709200D01*
X779625Y855250D02*
X780000Y855000D01*
X760375Y589875D02*
X779625Y570625D01*
X760375Y589875D02*
X760375Y693000D01*
X779625Y712250D01*
X779625Y570625D02*
X780000Y570000D01*
X779625Y712250D02*
X780000Y712500D01*
X294250Y138875D02*
X294250Y134750D01*
X305250Y123750D01*
X305725Y122850D01*
X214500Y217250D02*
X71500Y217250D01*
X264688Y167063D02*
X292875Y138875D01*
X264688Y167063D02*
X214500Y217250D01*
X71500Y217250D02*
X70800Y217900D01*
X292875Y138875D02*
X294250Y138875D01*
X264688Y167063D02*
X369188Y271563D01*
X413875Y316250D01*
X369188Y271563D02*
X369875Y270875D01*
X660000Y449625D02*
X779625Y569250D01*
X780000Y570000D01*
D21*
X294250Y138875D03*
X413875Y316250D03*
X369875Y270875D03*
X660000Y449625D03*
X338250Y339625D03*
X295000Y340000D03*
D20*
X337875Y340000D01*
X338250Y339625D01*
X342375Y382250D02*
X363000Y382250D01*
X386375Y358875D01*
D21*
X342375Y382250D03*
X386375Y358875D03*
D20*
X616000Y357500D02*
X688875Y357500D01*
X690000Y358850D01*
D21*
X616000Y357500D03*
D20*
X649000Y320375D02*
X581625Y320375D01*
X649000Y320375D02*
X660000Y309375D01*
X688875Y309375D01*
X690000Y308050D01*
X547250Y287375D02*
X418000Y287375D01*
X547250Y287375D02*
X580250Y320375D01*
X581625Y320375D01*
D21*
X581625Y320375D03*
X418000Y287375D03*
M02*
