G04 EAGLE Gerber RS-274X export*
G75*
%MOMM*%
%FSLAX34Y34*%
%LPD*%
%AMOC8*
5,1,8,0,0,1.08239X$1,22.5*%
G01*
%ADD10R,1.200000X0.800000*%
%ADD11R,1.200000X1.200000*%
%ADD12R,1.270000X1.470000*%
%ADD13R,0.800000X1.200000*%
%ADD14R,1.780000X3.200000*%
%ADD15R,1.498600X2.006600*%
%ADD16R,3.810000X2.006600*%
%ADD17R,2.800000X2.400000*%
%ADD18R,6.200000X5.400000*%
%ADD19R,1.600000X1.000000*%
%ADD20C,1.422400*%
%ADD21R,1.470000X1.270000*%
%ADD22R,3.810000X2.082800*%
%ADD23R,8.890000X11.430000*%
%ADD24C,1.524000*%
%ADD25R,1.308000X1.308000*%
%ADD26C,1.308000*%
%ADD27C,1.879600*%
%ADD28C,2.095500*%
%ADD29R,1.500000X0.400000*%
%ADD30C,1.320800*%
%ADD31C,1.408000*%
%ADD32C,2.400000*%
%ADD33C,1.508000*%
%ADD34R,3.000000X1.600000*%
%ADD35C,0.300000*%
%ADD36C,0.906400*%


D10*
X442500Y178500D03*
X442500Y196500D03*
D11*
X648000Y165000D03*
X627000Y165000D03*
D12*
X679000Y75000D03*
X636000Y75000D03*
D13*
X439000Y42500D03*
X421000Y42500D03*
X599000Y165000D03*
X581000Y165000D03*
D14*
X609900Y100000D03*
X560100Y100000D03*
D15*
X545106Y231496D03*
X522246Y231496D03*
X499386Y231496D03*
D16*
X522500Y168504D03*
D17*
X810000Y43000D03*
X810000Y157000D03*
X749000Y43000D03*
X749000Y157000D03*
D18*
X437500Y105000D03*
D19*
X510500Y82200D03*
X510500Y127800D03*
D13*
X496000Y37500D03*
X514000Y37500D03*
D20*
X600200Y32888D02*
X600200Y47112D01*
X574800Y47112D02*
X574800Y32888D01*
D10*
X412500Y914000D03*
X412500Y896000D03*
D21*
X170000Y883500D03*
X170000Y926500D03*
D22*
X371400Y859600D03*
X371400Y910400D03*
D23*
X257100Y885000D03*
D10*
X712500Y589000D03*
X712500Y571000D03*
D24*
X772380Y620000D02*
X787620Y620000D01*
X787620Y595000D02*
X772380Y595000D01*
X772380Y570000D02*
X787620Y570000D01*
D10*
X715000Y731500D03*
X715000Y713500D03*
D24*
X772380Y762500D02*
X787620Y762500D01*
X787620Y737500D02*
X772380Y737500D01*
X772380Y712500D02*
X787620Y712500D01*
D10*
X415000Y784000D03*
X415000Y766000D03*
D21*
X170000Y738500D03*
X170000Y781500D03*
D22*
X371400Y729600D03*
X371400Y780400D03*
D23*
X257100Y755000D03*
D25*
X331125Y148250D03*
X331125Y72050D03*
D26*
X331125Y122850D03*
X331125Y97450D03*
X305725Y97450D03*
X305725Y122850D03*
X305725Y148250D03*
X305725Y72050D03*
D27*
X626200Y633000D03*
X626200Y658400D03*
X626200Y683800D03*
X626200Y709200D03*
X626200Y734600D03*
X626200Y760000D03*
X626200Y785400D03*
X626200Y810800D03*
X626200Y836200D03*
X626200Y861600D03*
X626200Y887000D03*
X626200Y912400D03*
X473800Y912400D03*
X473800Y887000D03*
X473800Y861600D03*
X473800Y836200D03*
X473800Y810800D03*
X473800Y785400D03*
X473800Y760000D03*
X473800Y734600D03*
X473800Y709200D03*
X473800Y683800D03*
X473800Y658400D03*
X473800Y633000D03*
D28*
X78778Y904500D02*
X57823Y904500D01*
X57823Y853700D02*
X78778Y853700D01*
X78778Y650500D02*
X57823Y650500D01*
X57823Y802900D02*
X78778Y802900D01*
X78778Y752100D02*
X57823Y752100D01*
X57823Y701300D02*
X78778Y701300D01*
X81278Y319500D02*
X60323Y319500D01*
X60323Y268700D02*
X81278Y268700D01*
X81278Y65500D02*
X60323Y65500D01*
X60323Y217900D02*
X81278Y217900D01*
X81278Y167100D02*
X60323Y167100D01*
X60323Y116300D02*
X81278Y116300D01*
D10*
X415000Y634000D03*
X415000Y616000D03*
D21*
X172500Y611000D03*
X172500Y654000D03*
D22*
X373900Y599600D03*
X373900Y650400D03*
D23*
X259600Y625000D03*
D10*
X712500Y874000D03*
X712500Y856000D03*
D24*
X772380Y905000D02*
X787620Y905000D01*
X787620Y880000D02*
X772380Y880000D01*
X772380Y855000D02*
X787620Y855000D01*
D10*
X132500Y184000D03*
X132500Y166000D03*
X132500Y134000D03*
X132500Y116000D03*
X132500Y84000D03*
X132500Y66000D03*
D29*
X368750Y382250D03*
X368750Y375750D03*
X368750Y369250D03*
X368750Y362750D03*
X368750Y356250D03*
X368750Y349750D03*
X368750Y343250D03*
X368750Y336750D03*
X368750Y330250D03*
X368750Y323750D03*
X368750Y317250D03*
X368750Y310750D03*
X368750Y304250D03*
X368750Y297750D03*
X441250Y297750D03*
X441250Y304250D03*
X441250Y310750D03*
X441250Y317250D03*
X441250Y323750D03*
X441250Y330250D03*
X441250Y336750D03*
X441250Y343250D03*
X441250Y349750D03*
X441250Y356250D03*
X441250Y362750D03*
X441250Y369250D03*
X441250Y375750D03*
X441250Y382250D03*
D13*
X324000Y317500D03*
X306000Y317500D03*
X324000Y340000D03*
X306000Y340000D03*
D10*
X315000Y383500D03*
X315000Y401500D03*
X280000Y340500D03*
X280000Y358500D03*
D13*
X324000Y362500D03*
X306000Y362500D03*
D10*
X317500Y276000D03*
X317500Y294000D03*
D30*
X505870Y420000D03*
X554130Y420000D03*
D13*
X503500Y340000D03*
X521500Y340000D03*
X503500Y367500D03*
X521500Y367500D03*
D10*
X560000Y358500D03*
X560000Y376500D03*
X602500Y358500D03*
X602500Y376500D03*
X602500Y303500D03*
X602500Y321500D03*
X560000Y303500D03*
X560000Y321500D03*
D13*
X521500Y315000D03*
X503500Y315000D03*
D10*
X602500Y431500D03*
X602500Y413500D03*
D31*
X690000Y308050D03*
X664600Y320750D03*
X690000Y333450D03*
X664600Y346150D03*
X690000Y358850D03*
X664600Y371550D03*
X690000Y384250D03*
X664600Y396950D03*
D32*
X721413Y429325D03*
X721413Y276470D03*
D33*
X801244Y422231D03*
X779018Y282768D03*
X782194Y422231D03*
X798069Y282769D03*
D13*
X521500Y287500D03*
X503500Y287500D03*
D34*
X375500Y442500D03*
X419500Y442500D03*
D35*
X169125Y925375D02*
X89375Y925375D01*
X68750Y904750D01*
X169125Y925375D02*
X170000Y926500D01*
X68750Y904750D02*
X68300Y904500D01*
X88000Y782375D02*
X169125Y782375D01*
X77688Y792688D02*
X68750Y801625D01*
X77688Y792688D02*
X88000Y782375D01*
X169125Y782375D02*
X170000Y781500D01*
X68750Y801625D02*
X68300Y802900D01*
X512875Y79750D02*
X512875Y38500D01*
X512875Y79750D02*
X511500Y81125D01*
X512875Y38500D02*
X514000Y37500D01*
X511500Y81125D02*
X510500Y82200D01*
X514250Y39875D02*
X574750Y39875D01*
X574800Y40000D01*
X514250Y39875D02*
X514000Y37500D01*
X533500Y99000D02*
X559625Y99000D01*
X533500Y99000D02*
X514250Y79750D01*
X559625Y99000D02*
X560100Y100000D01*
X514250Y79750D02*
X510500Y82200D01*
X171875Y654500D02*
X121000Y654500D01*
X74250Y701250D01*
X68750Y701250D01*
X171875Y654500D02*
X172500Y654000D01*
X68750Y701250D02*
X68300Y701300D01*
X70125Y617375D02*
X70125Y320375D01*
X70125Y617375D02*
X42625Y644875D01*
X42625Y673750D01*
X68750Y699875D01*
X70125Y320375D02*
X70800Y319500D01*
X68750Y699875D02*
X68300Y701300D01*
X512875Y37125D02*
X501875Y26125D01*
X78375Y26125D01*
X39875Y64625D01*
X39875Y288750D01*
X70125Y319000D01*
X512875Y37125D02*
X514000Y37500D01*
X70800Y319500D02*
X70125Y319000D01*
X42625Y757625D02*
X77688Y792688D01*
X42625Y757625D02*
X42625Y727375D01*
X67375Y702625D01*
X68300Y701300D01*
X67375Y884125D02*
X67375Y903375D01*
X67375Y884125D02*
X42625Y859375D01*
X42625Y827750D01*
X67375Y803000D01*
X67375Y903375D02*
X68300Y904500D01*
X67375Y803000D02*
X68300Y802900D01*
X627000Y708125D02*
X627000Y702625D01*
X701250Y628375D01*
X701250Y584375D01*
X705375Y580250D01*
X765875Y580250D01*
X768625Y583000D01*
X793375Y583000D01*
X800250Y589875D01*
X800250Y599500D01*
X781000Y618750D01*
X627000Y708125D02*
X626200Y709200D01*
X780000Y620000D02*
X781000Y618750D01*
X648000Y165000D02*
X644875Y165000D01*
X613938Y195938D02*
X578875Y231000D01*
X613938Y195938D02*
X626313Y183563D01*
X644875Y165000D01*
X578875Y231000D02*
X545875Y231000D01*
X545106Y231496D01*
X809875Y270875D02*
X809875Y158125D01*
X809875Y270875D02*
X798875Y281875D01*
X809875Y158125D02*
X810000Y157000D01*
X798875Y281875D02*
X798069Y282769D01*
X732875Y276375D02*
X721875Y276375D01*
X732875Y276375D02*
X742500Y266750D01*
X782375Y266750D01*
X797500Y281875D01*
X721875Y276375D02*
X721413Y276470D01*
X797500Y281875D02*
X798069Y282769D01*
X720500Y277750D02*
X626313Y183563D01*
X721413Y276470D02*
X720500Y277750D01*
X451000Y317625D02*
X441375Y317625D01*
X451000Y317625D02*
X453750Y320375D01*
X453750Y334125D01*
X451000Y336875D01*
X441375Y336875D01*
X441375Y317625D02*
X441250Y317250D01*
X441250Y336750D02*
X441375Y336875D01*
X441375Y338250D02*
X441375Y342375D01*
X441250Y343250D01*
X441375Y338250D02*
X441250Y336750D01*
X504625Y314875D02*
X504625Y288750D01*
X503500Y287500D01*
X504625Y314875D02*
X503500Y315000D01*
X522500Y341000D02*
X522500Y367125D01*
X522500Y341000D02*
X521500Y340000D01*
X522500Y367125D02*
X521500Y367500D01*
X504625Y323125D02*
X504625Y316250D01*
X504625Y323125D02*
X521500Y340000D01*
X504625Y316250D02*
X503500Y315000D01*
X503250Y320375D02*
X453750Y320375D01*
X503250Y320375D02*
X503500Y315000D01*
X523875Y367125D02*
X526625Y367125D01*
X581625Y422125D01*
X639375Y422125D01*
X664125Y397375D01*
X523875Y367125D02*
X521500Y367500D01*
X664125Y397375D02*
X664600Y396950D01*
X800250Y574750D02*
X793375Y581625D01*
X800250Y574750D02*
X800250Y423500D01*
X793375Y581625D02*
X793375Y583000D01*
X800250Y423500D02*
X801244Y422231D01*
X132000Y85250D02*
X115500Y101750D01*
X115500Y116875D01*
X132000Y133375D01*
X132000Y85250D02*
X132500Y84000D01*
X132000Y133375D02*
X132500Y134000D01*
X143000Y173250D02*
X133375Y182875D01*
X143000Y173250D02*
X143000Y144375D01*
X133375Y134750D01*
X133375Y182875D02*
X132500Y184000D01*
X133375Y134750D02*
X132500Y134000D01*
X71500Y248875D02*
X71500Y268125D01*
X71500Y248875D02*
X132000Y188375D01*
X132000Y184250D01*
X71500Y268125D02*
X70800Y268700D01*
X132000Y184250D02*
X132500Y184000D01*
X440000Y41250D02*
X492250Y41250D01*
X496000Y37500D01*
X440000Y41250D02*
X439000Y42500D01*
X441375Y108625D02*
X441375Y148500D01*
X441375Y177375D01*
X441375Y108625D02*
X438625Y105875D01*
X441375Y177375D02*
X442500Y178500D01*
X438625Y105875D02*
X437500Y105000D01*
X441375Y148500D02*
X331375Y148500D01*
X331125Y148250D01*
X435875Y41250D02*
X438625Y41250D01*
X435875Y41250D02*
X426250Y31625D01*
X415250Y31625D01*
X412500Y34375D01*
X412500Y79750D01*
X437250Y104500D01*
X439000Y42500D02*
X438625Y41250D01*
X437250Y104500D02*
X437500Y105000D01*
X253000Y85250D02*
X133375Y85250D01*
X253000Y85250D02*
X305250Y137500D01*
X320375Y137500D01*
X331125Y148250D01*
X133375Y85250D02*
X132500Y84000D01*
X374000Y913000D02*
X412500Y913000D01*
X374000Y913000D02*
X371400Y910400D01*
X412500Y913000D02*
X412500Y914000D01*
X415000Y784000D02*
X426250Y772750D01*
X426250Y704000D01*
X393938Y671688D02*
X374000Y651750D01*
X393938Y671688D02*
X426250Y704000D01*
X374000Y651750D02*
X373900Y650400D01*
X371250Y765875D02*
X371250Y779625D01*
X371250Y765875D02*
X347875Y742500D01*
X347875Y717750D01*
X393938Y671688D01*
X371250Y779625D02*
X371400Y780400D01*
X423500Y903375D02*
X413875Y913000D01*
X423500Y903375D02*
X423500Y831875D01*
X372625Y781000D01*
X413875Y913000D02*
X412500Y914000D01*
X372625Y781000D02*
X371400Y780400D01*
X317625Y294250D02*
X317500Y294000D01*
X368500Y317625D02*
X368750Y317250D01*
X356125Y375375D02*
X347875Y375375D01*
X356125Y375375D02*
X368500Y375375D01*
X347875Y375375D02*
X345125Y372625D01*
X317625Y372625D01*
X314875Y369875D01*
X314875Y352000D02*
X314875Y298375D01*
X314875Y352000D02*
X314875Y369875D01*
X314875Y298375D02*
X317625Y295625D01*
X368500Y375375D02*
X368750Y375750D01*
X317625Y295625D02*
X317500Y294000D01*
X401500Y633875D02*
X413875Y633875D01*
X401500Y633875D02*
X382250Y614625D01*
X353375Y614625D01*
X350625Y611875D01*
X350625Y465625D01*
X373750Y442500D01*
X413875Y633875D02*
X415000Y634000D01*
X356125Y438283D02*
X356125Y375375D01*
X356125Y438283D02*
X375206Y443051D01*
X338250Y616000D02*
X372625Y650375D01*
X338250Y616000D02*
X338250Y464750D01*
X297000Y423500D01*
X297000Y354750D01*
X299750Y352000D01*
X314875Y352000D01*
X372625Y650375D02*
X373900Y650400D01*
X331375Y246125D02*
X331375Y149875D01*
X331375Y246125D02*
X306625Y270875D01*
X306625Y283250D01*
X316250Y292875D01*
X331375Y149875D02*
X331125Y148250D01*
X316250Y292875D02*
X317500Y294000D01*
X589875Y171875D02*
X613938Y195938D01*
X589875Y171875D02*
X589875Y158125D01*
X552750Y121000D01*
X529375Y121000D01*
X492250Y83875D01*
X492250Y42625D01*
X496000Y37500D01*
X337093Y294250D02*
X360468Y317625D01*
X368500Y317625D01*
X337093Y294250D02*
X317625Y294250D01*
X373750Y442500D02*
X375500Y442500D01*
X375206Y443051D01*
X599000Y165000D02*
X627000Y165000D01*
X679250Y74250D02*
X779625Y74250D01*
X809875Y44000D01*
X679250Y74250D02*
X679000Y75000D01*
X809875Y44000D02*
X810000Y43000D01*
X452375Y72875D02*
X422125Y42625D01*
X452375Y72875D02*
X470250Y72875D01*
X510125Y112750D01*
X510125Y126500D01*
X422125Y42625D02*
X421000Y42500D01*
X510125Y126500D02*
X510500Y127800D01*
X499125Y140250D02*
X499125Y231000D01*
X499125Y140250D02*
X510125Y129250D01*
X499125Y231000D02*
X499386Y231496D01*
X510125Y129250D02*
X510500Y127800D01*
X610500Y100375D02*
X635250Y75625D01*
X610500Y100375D02*
X609900Y100000D01*
X635250Y75625D02*
X600875Y41250D01*
X600200Y40000D01*
X635250Y75625D02*
X636000Y75000D01*
X255750Y884125D02*
X170500Y884125D01*
X170000Y883500D01*
X255750Y884125D02*
X257100Y885000D01*
X140250Y853875D02*
X68750Y853875D01*
X140250Y853875D02*
X169125Y882750D01*
X68750Y853875D02*
X68300Y853700D01*
X169125Y882750D02*
X170000Y883500D01*
X346500Y431750D02*
X316250Y401500D01*
X504625Y803000D02*
X504625Y856625D01*
X474375Y886875D01*
X316250Y401500D02*
X315000Y401500D01*
X473800Y887000D02*
X474375Y886875D01*
D36*
X346500Y431750D03*
X504625Y803000D03*
D35*
X132000Y166375D02*
X71500Y166375D01*
X132000Y166375D02*
X132500Y166000D01*
X71500Y166375D02*
X70800Y167100D01*
X448250Y760375D02*
X473000Y785125D01*
X448250Y760375D02*
X446875Y760375D01*
X473000Y785125D02*
X473800Y785400D01*
D36*
X446875Y760375D03*
D35*
X240625Y739750D02*
X170500Y739750D01*
X240625Y739750D02*
X255750Y754875D01*
X170500Y739750D02*
X170000Y738500D01*
X255750Y754875D02*
X257100Y755000D01*
X158125Y750750D02*
X68750Y750750D01*
X158125Y750750D02*
X169125Y739750D01*
X68750Y750750D02*
X68300Y752100D01*
X169125Y739750D02*
X170000Y738500D01*
X369875Y363000D02*
X378125Y363000D01*
X446500Y553750D02*
X627000Y734250D01*
X369875Y363000D02*
X368750Y362750D01*
X626200Y734600D02*
X627000Y734250D01*
X446500Y431375D02*
X378125Y363000D01*
X446500Y431375D02*
X446500Y553750D01*
X415000Y616000D02*
X391875Y616000D01*
X376750Y600875D01*
X374000Y600875D01*
X373900Y599600D01*
X625625Y804375D02*
X625625Y809875D01*
X625625Y804375D02*
X506000Y684750D01*
X506000Y621500D01*
X499125Y614625D01*
X415250Y614625D01*
X625625Y809875D02*
X626200Y810800D01*
X415000Y616000D02*
X415250Y614625D01*
X413875Y765875D02*
X408375Y765875D01*
X372625Y730125D01*
X413875Y765875D02*
X415000Y766000D01*
X372625Y730125D02*
X371400Y729600D01*
X567875Y837375D02*
X625625Y837375D01*
X567875Y837375D02*
X478500Y926750D01*
X468875Y926750D01*
X429000Y886875D01*
X429000Y814000D01*
X404250Y789250D01*
X404250Y771375D01*
X408375Y767250D01*
X625625Y837375D02*
X626200Y836200D01*
X408375Y767250D02*
X408375Y765875D01*
X713625Y874500D02*
X774125Y874500D01*
X779625Y880000D01*
X713625Y874500D02*
X712500Y874000D01*
X779625Y880000D02*
X780000Y880000D01*
X305250Y376750D02*
X305250Y363000D01*
X305250Y376750D02*
X303875Y378125D01*
X303875Y422125D01*
X345125Y463375D01*
X345125Y614625D01*
X365750Y635250D01*
X394625Y635250D01*
X437250Y677875D01*
X437250Y800250D01*
X473000Y836000D01*
X305250Y363000D02*
X306000Y362500D01*
X473000Y836000D02*
X473800Y836200D01*
X368500Y349250D02*
X353375Y349250D01*
X496375Y624250D02*
X496375Y798875D01*
X488125Y807125D01*
X488125Y847000D01*
X474375Y860750D01*
X368750Y349750D02*
X368500Y349250D01*
X474375Y860750D02*
X473800Y861600D01*
D36*
X353375Y349250D03*
X496375Y624250D03*
X285000Y370000D03*
D35*
X280000Y365000D02*
X280000Y358500D01*
X280000Y365000D02*
X285000Y370000D01*
X407000Y895125D02*
X412500Y895125D01*
X407000Y895125D02*
X372625Y860750D01*
X412500Y895125D02*
X412500Y896000D01*
X372625Y860750D02*
X371400Y859600D01*
X551375Y862125D02*
X625625Y862125D01*
X551375Y862125D02*
X481250Y932250D01*
X357500Y932250D01*
X347875Y922625D01*
X347875Y897875D01*
X378125Y867625D01*
X625625Y862125D02*
X626200Y861600D01*
X378125Y867625D02*
X371400Y859600D01*
X713625Y589875D02*
X775500Y589875D01*
X779625Y594000D01*
X713625Y589875D02*
X712500Y589000D01*
X779625Y594000D02*
X780000Y595000D01*
X627000Y880000D02*
X627000Y886875D01*
X627000Y880000D02*
X644875Y862125D01*
X644875Y693000D01*
X713625Y624250D01*
X713625Y591250D01*
X627000Y886875D02*
X626200Y887000D01*
X713625Y591250D02*
X712500Y589000D01*
X715000Y731500D02*
X774125Y731500D01*
X779625Y737000D01*
X780000Y737500D01*
X631125Y911625D02*
X627000Y911625D01*
X631125Y911625D02*
X715000Y827750D01*
X715000Y731500D01*
X627000Y911625D02*
X626200Y912400D01*
X132500Y66000D02*
X71500Y66000D01*
X70800Y65500D01*
X446875Y708125D02*
X473000Y734250D01*
X328625Y589875D02*
X328625Y551375D01*
X96250Y319000D01*
X96250Y313500D01*
X66000Y283250D01*
X53625Y283250D01*
X45375Y275000D01*
X45375Y93500D01*
X71500Y67375D01*
X473000Y734250D02*
X473800Y734600D01*
X71500Y67375D02*
X70800Y65500D01*
D36*
X446875Y708125D03*
X328625Y589875D03*
D35*
X132000Y115500D02*
X132000Y111375D01*
X125125Y104500D01*
X132000Y115500D02*
X132500Y116000D01*
X328625Y463375D02*
X328625Y539000D01*
X328625Y463375D02*
X199375Y334125D01*
X199375Y121000D01*
X182875Y104500D01*
X140250Y104500D01*
X133375Y111375D01*
X132000Y111375D01*
D36*
X125125Y104500D03*
X328625Y539000D03*
D35*
X246125Y611875D02*
X173250Y611875D01*
X246125Y611875D02*
X258500Y624250D01*
X173250Y611875D02*
X172500Y611000D01*
X258500Y624250D02*
X259600Y625000D01*
X116875Y650375D02*
X68750Y650375D01*
X116875Y650375D02*
X155375Y611875D01*
X171875Y611875D01*
X68750Y650375D02*
X68300Y650500D01*
X171875Y611875D02*
X172500Y611000D01*
X713625Y570625D02*
X779625Y570625D01*
X713625Y570625D02*
X712500Y571000D01*
X779625Y570625D02*
X780000Y570000D01*
X779625Y713625D02*
X715000Y713625D01*
X715000Y713500D01*
X779625Y713625D02*
X780000Y712500D01*
X779625Y855250D02*
X713625Y855250D01*
X712500Y856000D01*
X779625Y855250D02*
X780000Y855000D01*
X800250Y732875D02*
X781000Y713625D01*
X800250Y732875D02*
X800250Y834625D01*
X781000Y853875D01*
X781000Y713625D02*
X780000Y712500D01*
X781000Y853875D02*
X780000Y855000D01*
X442750Y199375D02*
X442750Y196625D01*
X442750Y199375D02*
X489500Y246125D01*
X508750Y246125D01*
X522500Y232375D01*
X442750Y196625D02*
X442500Y196500D01*
X522246Y231496D02*
X522500Y232375D01*
X580250Y171875D02*
X580250Y165000D01*
X580250Y171875D02*
X521125Y231000D01*
X580250Y165000D02*
X581000Y165000D01*
X522246Y231496D02*
X521125Y231000D01*
X603750Y430375D02*
X660000Y430375D01*
X701250Y389125D01*
X701250Y328625D01*
X693000Y320375D01*
X680625Y320375D01*
X606375Y246125D01*
X534875Y246125D01*
X522500Y233750D01*
X603750Y430375D02*
X602500Y431500D01*
X522500Y233750D02*
X522246Y231496D01*
X440000Y363000D02*
X431750Y363000D01*
X429000Y365750D01*
X429000Y379500D01*
X431750Y382250D01*
X441250Y382250D01*
X440000Y363000D02*
X441250Y362750D01*
X440000Y297000D02*
X433125Y297000D01*
X429000Y301125D01*
X429000Y316250D02*
X429000Y320375D01*
X429000Y316250D02*
X429000Y301125D01*
X429000Y320375D02*
X433125Y324500D01*
X440000Y324500D01*
X441250Y297750D02*
X440000Y297000D01*
X441250Y323750D02*
X440000Y324500D01*
X440000Y330000D01*
X441250Y330250D01*
X430375Y361625D02*
X430375Y363000D01*
X430375Y361625D02*
X429000Y360250D01*
X429000Y330000D01*
X433125Y325875D01*
X431750Y363000D02*
X430375Y363000D01*
X433125Y325875D02*
X433125Y324500D01*
X306625Y317625D02*
X306625Y339625D01*
X306625Y317625D02*
X306000Y317500D01*
X306625Y339625D02*
X306000Y340000D01*
X305250Y316250D02*
X305250Y290125D01*
X294250Y279125D01*
X294250Y138875D01*
X305250Y316250D02*
X306000Y317500D01*
X306625Y82500D02*
X306625Y72875D01*
X306625Y82500D02*
X317625Y93500D01*
X317625Y111375D01*
X306625Y122375D01*
X306625Y72875D02*
X305725Y72050D01*
X306625Y122375D02*
X305725Y122850D01*
X413875Y316250D02*
X429000Y316250D01*
X369875Y270875D02*
X441375Y199375D01*
X442500Y196500D01*
X660000Y430375D02*
X660000Y449625D01*
D36*
X294250Y138875D03*
X413875Y316250D03*
X369875Y270875D03*
X660000Y449625D03*
D35*
X441250Y375750D02*
X441375Y375375D01*
X781000Y423500D02*
X782194Y422231D01*
X781000Y423500D02*
X714000Y490500D01*
X452750Y490500D01*
X452750Y378593D01*
X442233Y375375D02*
X441375Y375375D01*
X449845Y375688D02*
X452750Y378593D01*
X449845Y375688D02*
X442546Y375688D01*
X442233Y375375D01*
X458250Y376315D02*
X458250Y485000D01*
X442750Y369750D02*
X441250Y369250D01*
X442750Y369750D02*
X451685Y369750D01*
X458250Y376315D01*
X458250Y485000D02*
X697500Y485000D01*
X697500Y402500D01*
X781162Y283892D02*
X779528Y282258D01*
X781162Y283892D02*
X781162Y318838D01*
X697500Y402500D01*
X374250Y382250D02*
X368750Y382250D01*
X374250Y382250D02*
X419500Y427500D01*
X419500Y442500D01*
X342375Y339625D02*
X338250Y339625D01*
X324500Y339625D01*
X342375Y339625D02*
X352000Y330000D01*
X368500Y330000D01*
X324500Y339625D02*
X324000Y340000D01*
X368500Y330000D02*
X368750Y330250D01*
D36*
X338250Y339625D03*
D35*
X280500Y340000D02*
X280000Y340500D01*
X280500Y340000D02*
X295000Y340000D01*
D36*
X295000Y340000D03*
D35*
X324000Y317500D02*
X352565Y317500D01*
X368465Y323465D02*
X368750Y323750D01*
X368465Y323465D02*
X358530Y323465D01*
X352565Y317500D01*
X342375Y382250D02*
X316250Y382250D01*
X386375Y358875D02*
X386375Y352000D01*
X378125Y343750D01*
X369875Y343750D01*
X316250Y382250D02*
X315000Y383500D01*
X368750Y343250D02*
X369875Y343750D01*
D36*
X342375Y382250D03*
X386375Y358875D03*
D35*
X328625Y361625D02*
X324500Y361625D01*
X328625Y361625D02*
X353375Y336875D01*
X368500Y336875D01*
X324500Y361625D02*
X324000Y362500D01*
X368500Y336875D02*
X368750Y336750D01*
X347875Y276375D02*
X317625Y276375D01*
X347875Y276375D02*
X368500Y297000D01*
X317625Y276375D02*
X317500Y276000D01*
X368500Y297000D02*
X368750Y297750D01*
X462000Y367125D02*
X503250Y367125D01*
X462000Y367125D02*
X451000Y356125D01*
X441375Y356125D01*
X503250Y367125D02*
X503500Y367500D01*
X441375Y356125D02*
X441250Y356250D01*
X503500Y367500D02*
X504625Y368500D01*
X504625Y418755D01*
X505870Y420000D01*
X503250Y341000D02*
X459250Y341000D01*
X451000Y349250D01*
X441375Y349250D01*
X503250Y341000D02*
X503500Y340000D01*
X441375Y349250D02*
X441250Y349750D01*
X511500Y350625D02*
X511500Y374000D01*
X511500Y350625D02*
X503250Y342375D01*
X503500Y340000D01*
X511500Y374000D02*
X554130Y416630D01*
X554130Y420000D01*
X522500Y324500D02*
X522500Y316250D01*
X522500Y324500D02*
X544500Y346500D01*
X544500Y367125D01*
X552750Y375375D01*
X559625Y375375D01*
X522500Y316250D02*
X521500Y315000D01*
X559625Y375375D02*
X560000Y376500D01*
X589875Y376750D02*
X602375Y376750D01*
X602250Y376750D02*
X589875Y376750D01*
X602250Y376750D02*
X602500Y376500D01*
X561000Y376750D02*
X560000Y376500D01*
X602375Y376750D02*
X602375Y413375D01*
X639375Y346500D02*
X664125Y346500D01*
X639375Y346500D02*
X610500Y375375D01*
X603625Y375375D01*
X664125Y346500D02*
X664600Y346150D01*
X603625Y375375D02*
X602500Y376500D01*
X589875Y376750D02*
X561000Y376750D01*
X602375Y413375D02*
X602500Y413500D01*
X545875Y288750D02*
X522500Y288750D01*
X545875Y288750D02*
X559625Y302500D01*
X522500Y288750D02*
X521500Y287500D01*
X559625Y302500D02*
X560000Y303500D01*
X561000Y303875D02*
X602250Y303875D01*
X602500Y303500D01*
X561000Y303875D02*
X560000Y303500D01*
X585750Y358875D02*
X602250Y358875D01*
X585750Y358875D02*
X577500Y367125D01*
X552750Y367125D01*
X550000Y364375D01*
X550000Y327250D01*
X521125Y298375D01*
X515625Y298375D01*
X511500Y294250D01*
X511500Y279125D01*
X508750Y276375D01*
X490875Y276375D01*
X456500Y310750D01*
X441250Y310750D01*
X602250Y358875D02*
X602500Y358500D01*
X603625Y357500D02*
X616000Y357500D01*
X603625Y357500D02*
X602500Y358500D01*
D36*
X616000Y357500D03*
D35*
X578875Y357500D02*
X561000Y357500D01*
X600188Y336188D02*
X602250Y334125D01*
X600188Y336188D02*
X578875Y357500D01*
X602250Y334125D02*
X668250Y334125D01*
X676500Y342375D01*
X676500Y360250D01*
X665500Y371250D01*
X561000Y357500D02*
X560000Y358500D01*
X664600Y371550D02*
X665500Y371250D01*
X455125Y303875D02*
X441375Y303875D01*
X455125Y303875D02*
X488125Y270875D01*
X585750Y270875D01*
X613250Y298375D01*
X613250Y309375D01*
X609125Y313500D01*
X594000Y313500D01*
X591250Y316250D01*
X591250Y327250D01*
X600188Y336188D01*
X441375Y303875D02*
X441250Y304250D01*
X618750Y321750D02*
X664125Y321750D01*
X618750Y321750D02*
X603625Y321750D01*
X602500Y321500D01*
X664125Y321750D02*
X664600Y320750D01*
X407000Y310750D02*
X368750Y310750D01*
X407000Y310750D02*
X452375Y265375D01*
X588500Y265375D01*
X618750Y295625D01*
X618750Y321750D01*
X581625Y320375D02*
X561000Y320375D01*
X560000Y321500D01*
X401500Y303875D02*
X369875Y303875D01*
X401500Y303875D02*
X418000Y287375D01*
X369875Y303875D02*
X368750Y304250D01*
D36*
X581625Y320375D03*
X418000Y287375D03*
M02*
