M48
;GenerationSoftware,Autodesk,EAGLE,9.1.3*%
;CreationDate,2018-09-10T12:26:38Z*%
FMAT,2
ICI,OFF
METRIC,TZ,000.000
T9C0.500
T8C0.800
T7C0.813
T6C0.914
T5C1.016
T4C1.397
T3C1.400
T2C2.032
T1C3.000
%
G90
M71
T1
X17250Y83250
X67250Y83250
X17250Y13250
X67250Y13250
T2
X81000Y10000
X76428Y10000
T3
X72270Y27575
X72270Y43065
T4
X6830Y90450
X7080Y11630
X7080Y16710
X7080Y21790
X7080Y6550
X7080Y31950
X7080Y26870
X6830Y70130
X6830Y75210
X6830Y80290
X6830Y65050
X6830Y85370
T5
X62620Y78540
X62620Y81080
X62620Y83620
X62620Y86160
X62620Y88700
X62620Y91240
X47380Y91240
X47380Y88700
X47380Y86160
X47380Y83620
X47380Y78540
X47380Y76000
X47380Y73460
X47380Y70920
X47380Y68380
X47380Y65840
X47380Y63300
X78000Y90500
X78000Y88000
X78000Y85500
X78000Y62000
X78000Y59500
X78000Y57000
X78000Y76250
X78000Y73750
X78000Y71250
X62620Y73460
X62620Y63300
X62620Y65840
X62620Y68380
X62620Y70920
X47380Y81080
X62620Y76000
T6
X60020Y4000
X57480Y4000
T7
X50587Y42000
X55413Y42000
T8
X68970Y30880
X37178Y20545
X37178Y12925
X66430Y37220
X80840Y41945
X80840Y39405
X34638Y12925
X80840Y31235
X80840Y28695
X66430Y39760
X66430Y34680
X66430Y32140
X68970Y38500
X68970Y35960
X68970Y33420
X34638Y20545
X37178Y15465
X37178Y18005
X34638Y18005
X34638Y15465
T9
X21862Y15950
X49225Y31075
X49225Y29150
X52112Y35338
X39188Y38088
X24337Y42488
X48812Y80163
X23237Y41113
X56100Y92675
X42488Y90475
X25850Y54450
X45650Y33000
X31900Y35338
X24200Y35063
X53075Y26950
X44412Y27912
X58987Y32863
X61600Y32175
X48812Y45650
X42488Y36300
X49637Y25987
X43725Y26950
X57000Y46750
X45750Y37250
X42625Y29837
M30