M48
;GenerationSoftware,Autodesk,EAGLE,9.1.3*%
;CreationDate,2018-09-09T19:47:36Z*%
FMAT,2
ICI,OFF
METRIC,TZ,000.000
T12C0.500
T11C0.800
T10C0.813
T9C0.900
T8C0.914
T7C1.000
T6C1.016
T5C1.397
T4C1.600
T3C2.032
T2C3.000
T1C3.200
%
G90
M71
T1
X75350Y29535
X75350Y40965
T2
X67250Y83250
X17250Y13250
X67250Y13250
X17250Y83250
T3
X76428Y10000
X81000Y10000
T4
X72141Y42933
X72141Y27647
T5
X7080Y11630
X7080Y16710
X7080Y21790
X7080Y6550
X7080Y26870
X6830Y70130
X6830Y75210
X6830Y80290
X6830Y65050
X6830Y85370
X7080Y31950
X6830Y90450
T6
X47380Y78540
X47380Y63300
X47380Y65840
X47380Y68380
X47380Y70920
X47380Y73460
X47380Y83620
X47380Y86160
X47380Y88700
X78000Y62000
X78000Y59500
X78000Y57000
X78000Y76250
X78000Y73750
X78000Y71250
X47380Y91240
X62620Y76000
X62620Y91240
X62620Y88700
X62620Y86160
X47380Y81080
X62620Y81080
X62620Y78540
X62620Y63300
X62620Y65840
X62620Y68380
X62620Y83620
X62620Y73460
X78000Y90500
X78000Y88000
X78000Y85500
X47380Y76000
X62620Y70920
T7
X79807Y28277
X80124Y42223
X77902Y28277
X78219Y42223
T8
X60020Y4000
X57480Y4000
T9
X69000Y38425
X66460Y39695
X66460Y32075
X69000Y30805
X69000Y33345
X66460Y34615
X69000Y35885
X66460Y37155
T10
X50587Y42000
X55413Y42000
T11
X33113Y7205
X30572Y7205
X30572Y14825
X30572Y12285
X30572Y9745
X33113Y9745
X33113Y12285
X33113Y14825
T12
X36988Y27087
X41800Y28737
X58162Y32037
X61600Y35750
X38638Y35888
X34238Y38225
X29500Y34000
X33825Y33963
X66000Y44962
X41388Y31625
X29425Y13887
X32863Y53900
X12512Y10450
X32863Y58987
X44687Y70813
X28500Y37000
X49637Y62425
X34650Y43175
X50462Y80300
X35338Y34925
X44687Y76038
M30