G04 EAGLE Gerber RS-274X export*
G75*
%MOMM*%
%FSLAX34Y34*%
%LPD*%
%AMOC8*
5,1,8,0,0,1.08239X$1,22.5*%
G01*
%ADD10C,0.127000*%
%ADD11C,0.152400*%


D10*
X552643Y421129D02*
X552643Y405635D01*
X550922Y405635D02*
X554365Y405635D01*
X554365Y421129D02*
X550922Y421129D01*
X545055Y416825D02*
X545055Y409939D01*
X545055Y416825D02*
X545053Y416955D01*
X545047Y417085D01*
X545037Y417215D01*
X545024Y417344D01*
X545006Y417473D01*
X544985Y417601D01*
X544959Y417728D01*
X544930Y417855D01*
X544897Y417981D01*
X544860Y418105D01*
X544820Y418229D01*
X544775Y418351D01*
X544727Y418472D01*
X544676Y418591D01*
X544621Y418709D01*
X544562Y418825D01*
X544500Y418939D01*
X544434Y419052D01*
X544365Y419162D01*
X544293Y419270D01*
X544218Y419376D01*
X544139Y419479D01*
X544057Y419580D01*
X543973Y419679D01*
X543885Y419775D01*
X543794Y419868D01*
X543701Y419959D01*
X543605Y420047D01*
X543506Y420131D01*
X543405Y420213D01*
X543302Y420292D01*
X543196Y420367D01*
X543088Y420439D01*
X542978Y420508D01*
X542865Y420574D01*
X542751Y420636D01*
X542635Y420695D01*
X542517Y420750D01*
X542398Y420801D01*
X542277Y420849D01*
X542155Y420894D01*
X542031Y420934D01*
X541907Y420971D01*
X541781Y421004D01*
X541654Y421033D01*
X541527Y421059D01*
X541399Y421080D01*
X541270Y421098D01*
X541141Y421111D01*
X541011Y421121D01*
X540881Y421127D01*
X540751Y421129D01*
X540621Y421127D01*
X540491Y421121D01*
X540361Y421111D01*
X540232Y421098D01*
X540103Y421080D01*
X539975Y421059D01*
X539848Y421033D01*
X539721Y421004D01*
X539595Y420971D01*
X539471Y420934D01*
X539347Y420894D01*
X539225Y420849D01*
X539104Y420801D01*
X538985Y420750D01*
X538867Y420695D01*
X538751Y420636D01*
X538637Y420574D01*
X538524Y420508D01*
X538414Y420439D01*
X538306Y420367D01*
X538200Y420292D01*
X538097Y420213D01*
X537996Y420131D01*
X537897Y420047D01*
X537801Y419959D01*
X537708Y419868D01*
X537617Y419775D01*
X537529Y419679D01*
X537445Y419580D01*
X537363Y419479D01*
X537284Y419376D01*
X537209Y419270D01*
X537137Y419162D01*
X537068Y419052D01*
X537002Y418939D01*
X536940Y418825D01*
X536881Y418709D01*
X536826Y418591D01*
X536775Y418472D01*
X536727Y418351D01*
X536682Y418229D01*
X536642Y418105D01*
X536605Y417981D01*
X536572Y417855D01*
X536543Y417728D01*
X536517Y417601D01*
X536496Y417473D01*
X536478Y417344D01*
X536465Y417215D01*
X536455Y417085D01*
X536449Y416955D01*
X536447Y416825D01*
X536447Y409939D01*
X536449Y409809D01*
X536455Y409679D01*
X536465Y409549D01*
X536478Y409420D01*
X536496Y409291D01*
X536517Y409163D01*
X536543Y409036D01*
X536572Y408909D01*
X536605Y408783D01*
X536642Y408659D01*
X536682Y408535D01*
X536727Y408413D01*
X536775Y408292D01*
X536826Y408173D01*
X536881Y408055D01*
X536940Y407939D01*
X537002Y407825D01*
X537068Y407712D01*
X537137Y407602D01*
X537209Y407494D01*
X537284Y407388D01*
X537363Y407285D01*
X537445Y407184D01*
X537529Y407085D01*
X537617Y406989D01*
X537708Y406896D01*
X537801Y406805D01*
X537897Y406717D01*
X537996Y406633D01*
X538097Y406551D01*
X538200Y406472D01*
X538306Y406397D01*
X538414Y406325D01*
X538524Y406256D01*
X538637Y406190D01*
X538751Y406128D01*
X538867Y406069D01*
X538985Y406014D01*
X539104Y405963D01*
X539225Y405915D01*
X539347Y405870D01*
X539471Y405830D01*
X539595Y405793D01*
X539721Y405760D01*
X539848Y405731D01*
X539975Y405705D01*
X540103Y405684D01*
X540232Y405666D01*
X540361Y405653D01*
X540491Y405643D01*
X540621Y405637D01*
X540751Y405635D01*
X540881Y405637D01*
X541011Y405643D01*
X541141Y405653D01*
X541270Y405666D01*
X541399Y405684D01*
X541527Y405705D01*
X541654Y405731D01*
X541781Y405760D01*
X541907Y405793D01*
X542031Y405830D01*
X542155Y405870D01*
X542277Y405915D01*
X542398Y405963D01*
X542517Y406014D01*
X542635Y406069D01*
X542751Y406128D01*
X542865Y406190D01*
X542978Y406256D01*
X543088Y406325D01*
X543196Y406397D01*
X543302Y406472D01*
X543405Y406551D01*
X543506Y406633D01*
X543605Y406717D01*
X543701Y406805D01*
X543794Y406896D01*
X543885Y406989D01*
X543973Y407085D01*
X544057Y407184D01*
X544139Y407285D01*
X544218Y407388D01*
X544293Y407494D01*
X544365Y407602D01*
X544434Y407712D01*
X544500Y407825D01*
X544562Y407939D01*
X544621Y408055D01*
X544676Y408173D01*
X544727Y408292D01*
X544775Y408413D01*
X544820Y408535D01*
X544860Y408659D01*
X544897Y408783D01*
X544930Y408909D01*
X544959Y409036D01*
X544985Y409163D01*
X545006Y409291D01*
X545024Y409420D01*
X545037Y409549D01*
X545047Y409679D01*
X545053Y409809D01*
X545055Y409939D01*
X526876Y405635D02*
X526876Y421129D01*
X531180Y421129D02*
X522572Y421129D01*
X516613Y414243D02*
X512309Y414243D01*
X512179Y414241D01*
X512049Y414235D01*
X511919Y414225D01*
X511790Y414212D01*
X511661Y414194D01*
X511533Y414173D01*
X511406Y414147D01*
X511279Y414118D01*
X511153Y414085D01*
X511029Y414048D01*
X510905Y414008D01*
X510783Y413963D01*
X510662Y413915D01*
X510543Y413864D01*
X510425Y413809D01*
X510309Y413750D01*
X510195Y413688D01*
X510082Y413622D01*
X509972Y413553D01*
X509864Y413481D01*
X509758Y413406D01*
X509655Y413327D01*
X509554Y413245D01*
X509455Y413161D01*
X509359Y413073D01*
X509266Y412982D01*
X509175Y412889D01*
X509087Y412793D01*
X509003Y412694D01*
X508921Y412593D01*
X508842Y412490D01*
X508767Y412384D01*
X508695Y412276D01*
X508626Y412166D01*
X508560Y412053D01*
X508498Y411939D01*
X508439Y411823D01*
X508384Y411705D01*
X508333Y411586D01*
X508285Y411465D01*
X508240Y411343D01*
X508200Y411219D01*
X508163Y411095D01*
X508130Y410969D01*
X508101Y410842D01*
X508075Y410715D01*
X508054Y410587D01*
X508036Y410458D01*
X508023Y410329D01*
X508013Y410199D01*
X508007Y410069D01*
X508005Y409939D01*
X508007Y409809D01*
X508013Y409679D01*
X508023Y409549D01*
X508036Y409420D01*
X508054Y409291D01*
X508075Y409163D01*
X508101Y409036D01*
X508130Y408909D01*
X508163Y408783D01*
X508200Y408659D01*
X508240Y408535D01*
X508285Y408413D01*
X508333Y408292D01*
X508384Y408173D01*
X508439Y408055D01*
X508498Y407939D01*
X508560Y407825D01*
X508626Y407712D01*
X508695Y407602D01*
X508767Y407494D01*
X508842Y407388D01*
X508921Y407285D01*
X509003Y407184D01*
X509087Y407085D01*
X509175Y406989D01*
X509266Y406896D01*
X509359Y406805D01*
X509455Y406717D01*
X509554Y406633D01*
X509655Y406551D01*
X509758Y406472D01*
X509864Y406397D01*
X509972Y406325D01*
X510082Y406256D01*
X510195Y406190D01*
X510309Y406128D01*
X510425Y406069D01*
X510543Y406014D01*
X510662Y405963D01*
X510783Y405915D01*
X510905Y405870D01*
X511029Y405830D01*
X511153Y405793D01*
X511279Y405760D01*
X511406Y405731D01*
X511533Y405705D01*
X511661Y405684D01*
X511790Y405666D01*
X511919Y405653D01*
X512049Y405643D01*
X512179Y405637D01*
X512309Y405635D01*
X516613Y405635D01*
X516613Y421129D01*
X512309Y421129D01*
X512193Y421127D01*
X512077Y421121D01*
X511961Y421111D01*
X511845Y421098D01*
X511730Y421080D01*
X511616Y421059D01*
X511502Y421033D01*
X511390Y421004D01*
X511278Y420971D01*
X511168Y420934D01*
X511059Y420894D01*
X510951Y420850D01*
X510845Y420802D01*
X510741Y420751D01*
X510638Y420696D01*
X510537Y420638D01*
X510439Y420577D01*
X510342Y420512D01*
X510248Y420444D01*
X510156Y420373D01*
X510066Y420298D01*
X509979Y420221D01*
X509895Y420141D01*
X509814Y420058D01*
X509735Y419972D01*
X509659Y419884D01*
X509586Y419793D01*
X509517Y419700D01*
X509450Y419605D01*
X509387Y419507D01*
X509327Y419408D01*
X509271Y419306D01*
X509218Y419202D01*
X509168Y419097D01*
X509123Y418990D01*
X509080Y418882D01*
X509042Y418772D01*
X509007Y418661D01*
X508976Y418549D01*
X508949Y418436D01*
X508925Y418322D01*
X508906Y418207D01*
X508890Y418092D01*
X508878Y417976D01*
X508870Y417860D01*
X508866Y417744D01*
X508866Y417628D01*
X508870Y417512D01*
X508878Y417396D01*
X508890Y417280D01*
X508906Y417165D01*
X508925Y417050D01*
X508949Y416936D01*
X508976Y416823D01*
X509007Y416711D01*
X509042Y416600D01*
X509080Y416490D01*
X509123Y416382D01*
X509168Y416275D01*
X509218Y416170D01*
X509271Y416066D01*
X509327Y415965D01*
X509387Y415865D01*
X509450Y415767D01*
X509517Y415672D01*
X509586Y415579D01*
X509659Y415488D01*
X509735Y415400D01*
X509814Y415314D01*
X509895Y415231D01*
X509979Y415151D01*
X510066Y415074D01*
X510156Y414999D01*
X510248Y414928D01*
X510342Y414860D01*
X510439Y414795D01*
X510537Y414734D01*
X510638Y414676D01*
X510741Y414621D01*
X510845Y414570D01*
X510951Y414522D01*
X511059Y414478D01*
X511168Y414438D01*
X511278Y414401D01*
X511390Y414368D01*
X511502Y414339D01*
X511616Y414313D01*
X511730Y414292D01*
X511845Y414274D01*
X511961Y414261D01*
X512077Y414251D01*
X512193Y414245D01*
X512309Y414243D01*
X493819Y414243D02*
X489515Y414243D01*
X489385Y414241D01*
X489255Y414235D01*
X489125Y414225D01*
X488996Y414212D01*
X488867Y414194D01*
X488739Y414173D01*
X488612Y414147D01*
X488485Y414118D01*
X488359Y414085D01*
X488235Y414048D01*
X488111Y414008D01*
X487989Y413963D01*
X487868Y413915D01*
X487749Y413864D01*
X487631Y413809D01*
X487515Y413750D01*
X487401Y413688D01*
X487288Y413622D01*
X487178Y413553D01*
X487070Y413481D01*
X486964Y413406D01*
X486861Y413327D01*
X486760Y413245D01*
X486661Y413161D01*
X486565Y413073D01*
X486472Y412982D01*
X486381Y412889D01*
X486293Y412793D01*
X486209Y412694D01*
X486127Y412593D01*
X486048Y412490D01*
X485973Y412384D01*
X485901Y412276D01*
X485832Y412166D01*
X485766Y412053D01*
X485704Y411939D01*
X485645Y411823D01*
X485590Y411705D01*
X485539Y411586D01*
X485491Y411465D01*
X485446Y411343D01*
X485406Y411219D01*
X485369Y411095D01*
X485336Y410969D01*
X485307Y410842D01*
X485281Y410715D01*
X485260Y410587D01*
X485242Y410458D01*
X485229Y410329D01*
X485219Y410199D01*
X485213Y410069D01*
X485211Y409939D01*
X485213Y409809D01*
X485219Y409679D01*
X485229Y409549D01*
X485242Y409420D01*
X485260Y409291D01*
X485281Y409163D01*
X485307Y409036D01*
X485336Y408909D01*
X485369Y408783D01*
X485406Y408659D01*
X485446Y408535D01*
X485491Y408413D01*
X485539Y408292D01*
X485590Y408173D01*
X485645Y408055D01*
X485704Y407939D01*
X485766Y407825D01*
X485832Y407712D01*
X485901Y407602D01*
X485973Y407494D01*
X486048Y407388D01*
X486127Y407285D01*
X486209Y407184D01*
X486293Y407085D01*
X486381Y406989D01*
X486472Y406896D01*
X486565Y406805D01*
X486661Y406717D01*
X486760Y406633D01*
X486861Y406551D01*
X486964Y406472D01*
X487070Y406397D01*
X487178Y406325D01*
X487288Y406256D01*
X487401Y406190D01*
X487515Y406128D01*
X487631Y406069D01*
X487749Y406014D01*
X487868Y405963D01*
X487989Y405915D01*
X488111Y405870D01*
X488235Y405830D01*
X488359Y405793D01*
X488485Y405760D01*
X488612Y405731D01*
X488739Y405705D01*
X488867Y405684D01*
X488996Y405666D01*
X489125Y405653D01*
X489255Y405643D01*
X489385Y405637D01*
X489515Y405635D01*
X493819Y405635D01*
X493819Y421129D01*
X489515Y421129D01*
X489399Y421127D01*
X489283Y421121D01*
X489167Y421111D01*
X489051Y421098D01*
X488936Y421080D01*
X488822Y421059D01*
X488708Y421033D01*
X488596Y421004D01*
X488484Y420971D01*
X488374Y420934D01*
X488265Y420894D01*
X488157Y420850D01*
X488051Y420802D01*
X487947Y420751D01*
X487844Y420696D01*
X487743Y420638D01*
X487645Y420577D01*
X487548Y420512D01*
X487454Y420444D01*
X487362Y420373D01*
X487272Y420298D01*
X487185Y420221D01*
X487101Y420141D01*
X487020Y420058D01*
X486941Y419972D01*
X486865Y419884D01*
X486792Y419793D01*
X486723Y419700D01*
X486656Y419605D01*
X486593Y419507D01*
X486533Y419408D01*
X486477Y419306D01*
X486424Y419202D01*
X486374Y419097D01*
X486329Y418990D01*
X486286Y418882D01*
X486248Y418772D01*
X486213Y418661D01*
X486182Y418549D01*
X486155Y418436D01*
X486131Y418322D01*
X486112Y418207D01*
X486096Y418092D01*
X486084Y417976D01*
X486076Y417860D01*
X486072Y417744D01*
X486072Y417628D01*
X486076Y417512D01*
X486084Y417396D01*
X486096Y417280D01*
X486112Y417165D01*
X486131Y417050D01*
X486155Y416936D01*
X486182Y416823D01*
X486213Y416711D01*
X486248Y416600D01*
X486286Y416490D01*
X486329Y416382D01*
X486374Y416275D01*
X486424Y416170D01*
X486477Y416066D01*
X486533Y415965D01*
X486593Y415865D01*
X486656Y415767D01*
X486723Y415672D01*
X486792Y415579D01*
X486865Y415488D01*
X486941Y415400D01*
X487020Y415314D01*
X487101Y415231D01*
X487185Y415151D01*
X487272Y415074D01*
X487362Y414999D01*
X487454Y414928D01*
X487548Y414860D01*
X487645Y414795D01*
X487743Y414734D01*
X487844Y414676D01*
X487947Y414621D01*
X488051Y414570D01*
X488157Y414522D01*
X488265Y414478D01*
X488374Y414438D01*
X488484Y414401D01*
X488596Y414368D01*
X488708Y414339D01*
X488822Y414313D01*
X488936Y414292D01*
X489051Y414274D01*
X489167Y414261D01*
X489283Y414251D01*
X489399Y414245D01*
X489515Y414243D01*
X479645Y416825D02*
X479645Y409939D01*
X479645Y416825D02*
X479643Y416955D01*
X479637Y417085D01*
X479627Y417215D01*
X479614Y417344D01*
X479596Y417473D01*
X479575Y417601D01*
X479549Y417728D01*
X479520Y417855D01*
X479487Y417981D01*
X479450Y418105D01*
X479410Y418229D01*
X479365Y418351D01*
X479317Y418472D01*
X479266Y418591D01*
X479211Y418709D01*
X479152Y418825D01*
X479090Y418939D01*
X479024Y419052D01*
X478955Y419162D01*
X478883Y419270D01*
X478808Y419376D01*
X478729Y419479D01*
X478647Y419580D01*
X478563Y419679D01*
X478475Y419775D01*
X478384Y419868D01*
X478291Y419959D01*
X478195Y420047D01*
X478096Y420131D01*
X477995Y420213D01*
X477892Y420292D01*
X477786Y420367D01*
X477678Y420439D01*
X477568Y420508D01*
X477455Y420574D01*
X477341Y420636D01*
X477225Y420695D01*
X477107Y420750D01*
X476988Y420801D01*
X476867Y420849D01*
X476745Y420894D01*
X476621Y420934D01*
X476497Y420971D01*
X476371Y421004D01*
X476244Y421033D01*
X476117Y421059D01*
X475989Y421080D01*
X475860Y421098D01*
X475731Y421111D01*
X475601Y421121D01*
X475471Y421127D01*
X475341Y421129D01*
X475211Y421127D01*
X475081Y421121D01*
X474951Y421111D01*
X474822Y421098D01*
X474693Y421080D01*
X474565Y421059D01*
X474438Y421033D01*
X474311Y421004D01*
X474185Y420971D01*
X474061Y420934D01*
X473937Y420894D01*
X473815Y420849D01*
X473694Y420801D01*
X473575Y420750D01*
X473457Y420695D01*
X473341Y420636D01*
X473227Y420574D01*
X473114Y420508D01*
X473004Y420439D01*
X472896Y420367D01*
X472790Y420292D01*
X472687Y420213D01*
X472586Y420131D01*
X472487Y420047D01*
X472391Y419959D01*
X472298Y419868D01*
X472207Y419775D01*
X472119Y419679D01*
X472035Y419580D01*
X471953Y419479D01*
X471874Y419376D01*
X471799Y419270D01*
X471727Y419162D01*
X471658Y419052D01*
X471592Y418939D01*
X471530Y418825D01*
X471471Y418709D01*
X471416Y418591D01*
X471365Y418472D01*
X471317Y418351D01*
X471272Y418229D01*
X471232Y418105D01*
X471195Y417981D01*
X471162Y417855D01*
X471133Y417728D01*
X471107Y417601D01*
X471086Y417473D01*
X471068Y417344D01*
X471055Y417215D01*
X471045Y417085D01*
X471039Y416955D01*
X471037Y416825D01*
X471038Y416825D02*
X471038Y409939D01*
X471037Y409939D02*
X471039Y409809D01*
X471045Y409679D01*
X471055Y409549D01*
X471068Y409420D01*
X471086Y409291D01*
X471107Y409163D01*
X471133Y409036D01*
X471162Y408909D01*
X471195Y408783D01*
X471232Y408659D01*
X471272Y408535D01*
X471317Y408413D01*
X471365Y408292D01*
X471416Y408173D01*
X471471Y408055D01*
X471530Y407939D01*
X471592Y407825D01*
X471658Y407712D01*
X471727Y407602D01*
X471799Y407494D01*
X471874Y407388D01*
X471953Y407285D01*
X472035Y407184D01*
X472119Y407085D01*
X472207Y406989D01*
X472298Y406896D01*
X472391Y406805D01*
X472487Y406717D01*
X472586Y406633D01*
X472687Y406551D01*
X472790Y406472D01*
X472896Y406397D01*
X473004Y406325D01*
X473114Y406256D01*
X473227Y406190D01*
X473341Y406128D01*
X473457Y406069D01*
X473575Y406014D01*
X473694Y405963D01*
X473815Y405915D01*
X473937Y405870D01*
X474061Y405830D01*
X474185Y405793D01*
X474311Y405760D01*
X474438Y405731D01*
X474565Y405705D01*
X474693Y405684D01*
X474822Y405666D01*
X474951Y405653D01*
X475081Y405643D01*
X475211Y405637D01*
X475341Y405635D01*
X475471Y405637D01*
X475601Y405643D01*
X475731Y405653D01*
X475860Y405666D01*
X475989Y405684D01*
X476117Y405705D01*
X476244Y405731D01*
X476371Y405760D01*
X476497Y405793D01*
X476621Y405830D01*
X476745Y405870D01*
X476867Y405915D01*
X476988Y405963D01*
X477107Y406014D01*
X477225Y406069D01*
X477341Y406128D01*
X477455Y406190D01*
X477568Y406256D01*
X477678Y406325D01*
X477786Y406397D01*
X477892Y406472D01*
X477995Y406551D01*
X478096Y406633D01*
X478195Y406717D01*
X478291Y406805D01*
X478384Y406896D01*
X478475Y406989D01*
X478563Y407085D01*
X478647Y407184D01*
X478729Y407285D01*
X478808Y407388D01*
X478883Y407494D01*
X478955Y407602D01*
X479024Y407712D01*
X479090Y407825D01*
X479152Y407939D01*
X479211Y408055D01*
X479266Y408173D01*
X479317Y408292D01*
X479365Y408413D01*
X479410Y408535D01*
X479450Y408659D01*
X479487Y408783D01*
X479520Y408909D01*
X479549Y409036D01*
X479575Y409163D01*
X479596Y409291D01*
X479614Y409420D01*
X479627Y409549D01*
X479637Y409679D01*
X479643Y409809D01*
X479645Y409939D01*
X461467Y405635D02*
X461467Y421129D01*
X465771Y421129D02*
X457163Y421129D01*
X527643Y438135D02*
X527643Y453629D01*
X529365Y438135D02*
X525922Y438135D01*
X525922Y453629D02*
X529365Y453629D01*
X520055Y449325D02*
X520055Y442439D01*
X520055Y449325D02*
X520053Y449455D01*
X520047Y449585D01*
X520037Y449715D01*
X520024Y449844D01*
X520006Y449973D01*
X519985Y450101D01*
X519959Y450228D01*
X519930Y450355D01*
X519897Y450481D01*
X519860Y450605D01*
X519820Y450729D01*
X519775Y450851D01*
X519727Y450972D01*
X519676Y451091D01*
X519621Y451209D01*
X519562Y451325D01*
X519500Y451439D01*
X519434Y451552D01*
X519365Y451662D01*
X519293Y451770D01*
X519218Y451876D01*
X519139Y451979D01*
X519057Y452080D01*
X518973Y452179D01*
X518885Y452275D01*
X518794Y452368D01*
X518701Y452459D01*
X518605Y452547D01*
X518506Y452631D01*
X518405Y452713D01*
X518302Y452792D01*
X518196Y452867D01*
X518088Y452939D01*
X517978Y453008D01*
X517865Y453074D01*
X517751Y453136D01*
X517635Y453195D01*
X517517Y453250D01*
X517398Y453301D01*
X517277Y453349D01*
X517155Y453394D01*
X517031Y453434D01*
X516907Y453471D01*
X516781Y453504D01*
X516654Y453533D01*
X516527Y453559D01*
X516399Y453580D01*
X516270Y453598D01*
X516141Y453611D01*
X516011Y453621D01*
X515881Y453627D01*
X515751Y453629D01*
X515621Y453627D01*
X515491Y453621D01*
X515361Y453611D01*
X515232Y453598D01*
X515103Y453580D01*
X514975Y453559D01*
X514848Y453533D01*
X514721Y453504D01*
X514595Y453471D01*
X514471Y453434D01*
X514347Y453394D01*
X514225Y453349D01*
X514104Y453301D01*
X513985Y453250D01*
X513867Y453195D01*
X513751Y453136D01*
X513637Y453074D01*
X513524Y453008D01*
X513414Y452939D01*
X513306Y452867D01*
X513200Y452792D01*
X513097Y452713D01*
X512996Y452631D01*
X512897Y452547D01*
X512801Y452459D01*
X512708Y452368D01*
X512617Y452275D01*
X512529Y452179D01*
X512445Y452080D01*
X512363Y451979D01*
X512284Y451876D01*
X512209Y451770D01*
X512137Y451662D01*
X512068Y451552D01*
X512002Y451439D01*
X511940Y451325D01*
X511881Y451209D01*
X511826Y451091D01*
X511775Y450972D01*
X511727Y450851D01*
X511682Y450729D01*
X511642Y450605D01*
X511605Y450481D01*
X511572Y450355D01*
X511543Y450228D01*
X511517Y450101D01*
X511496Y449973D01*
X511478Y449844D01*
X511465Y449715D01*
X511455Y449585D01*
X511449Y449455D01*
X511447Y449325D01*
X511447Y442439D01*
X511449Y442309D01*
X511455Y442179D01*
X511465Y442049D01*
X511478Y441920D01*
X511496Y441791D01*
X511517Y441663D01*
X511543Y441536D01*
X511572Y441409D01*
X511605Y441283D01*
X511642Y441159D01*
X511682Y441035D01*
X511727Y440913D01*
X511775Y440792D01*
X511826Y440673D01*
X511881Y440555D01*
X511940Y440439D01*
X512002Y440325D01*
X512068Y440212D01*
X512137Y440102D01*
X512209Y439994D01*
X512284Y439888D01*
X512363Y439785D01*
X512445Y439684D01*
X512529Y439585D01*
X512617Y439489D01*
X512708Y439396D01*
X512801Y439305D01*
X512897Y439217D01*
X512996Y439133D01*
X513097Y439051D01*
X513200Y438972D01*
X513306Y438897D01*
X513414Y438825D01*
X513524Y438756D01*
X513637Y438690D01*
X513751Y438628D01*
X513867Y438569D01*
X513985Y438514D01*
X514104Y438463D01*
X514225Y438415D01*
X514347Y438370D01*
X514471Y438330D01*
X514595Y438293D01*
X514721Y438260D01*
X514848Y438231D01*
X514975Y438205D01*
X515103Y438184D01*
X515232Y438166D01*
X515361Y438153D01*
X515491Y438143D01*
X515621Y438137D01*
X515751Y438135D01*
X515881Y438137D01*
X516011Y438143D01*
X516141Y438153D01*
X516270Y438166D01*
X516399Y438184D01*
X516527Y438205D01*
X516654Y438231D01*
X516781Y438260D01*
X516907Y438293D01*
X517031Y438330D01*
X517155Y438370D01*
X517277Y438415D01*
X517398Y438463D01*
X517517Y438514D01*
X517635Y438569D01*
X517751Y438628D01*
X517865Y438690D01*
X517978Y438756D01*
X518088Y438825D01*
X518196Y438897D01*
X518302Y438972D01*
X518405Y439051D01*
X518506Y439133D01*
X518605Y439217D01*
X518701Y439305D01*
X518794Y439396D01*
X518885Y439489D01*
X518973Y439585D01*
X519057Y439684D01*
X519139Y439785D01*
X519218Y439888D01*
X519293Y439994D01*
X519365Y440102D01*
X519434Y440212D01*
X519500Y440325D01*
X519562Y440439D01*
X519621Y440555D01*
X519676Y440673D01*
X519727Y440792D01*
X519775Y440913D01*
X519820Y441035D01*
X519860Y441159D01*
X519897Y441283D01*
X519930Y441409D01*
X519959Y441536D01*
X519985Y441663D01*
X520006Y441791D01*
X520024Y441920D01*
X520037Y442049D01*
X520047Y442179D01*
X520053Y442309D01*
X520055Y442439D01*
X501876Y438135D02*
X501876Y453629D01*
X506180Y453629D02*
X497572Y453629D01*
X491783Y438135D02*
X484896Y438135D01*
X491783Y438135D02*
X491783Y453629D01*
X484896Y453629D01*
X486618Y446743D02*
X491783Y446743D01*
X476016Y438135D02*
X472573Y438135D01*
X476016Y438135D02*
X476131Y438137D01*
X476246Y438143D01*
X476361Y438152D01*
X476475Y438166D01*
X476589Y438183D01*
X476702Y438204D01*
X476814Y438229D01*
X476926Y438257D01*
X477036Y438290D01*
X477145Y438326D01*
X477253Y438365D01*
X477360Y438408D01*
X477465Y438455D01*
X477569Y438505D01*
X477671Y438559D01*
X477771Y438616D01*
X477869Y438676D01*
X477965Y438739D01*
X478058Y438806D01*
X478150Y438876D01*
X478239Y438949D01*
X478326Y439025D01*
X478410Y439103D01*
X478491Y439184D01*
X478570Y439269D01*
X478645Y439355D01*
X478718Y439444D01*
X478788Y439536D01*
X478855Y439629D01*
X478918Y439725D01*
X478978Y439823D01*
X479035Y439923D01*
X479089Y440025D01*
X479139Y440129D01*
X479186Y440234D01*
X479229Y440341D01*
X479269Y440449D01*
X479304Y440558D01*
X479337Y440668D01*
X479365Y440780D01*
X479390Y440892D01*
X479411Y441005D01*
X479428Y441119D01*
X479442Y441233D01*
X479451Y441348D01*
X479457Y441463D01*
X479459Y441578D01*
X479459Y450186D01*
X479457Y450301D01*
X479451Y450416D01*
X479442Y450531D01*
X479428Y450645D01*
X479411Y450759D01*
X479390Y450872D01*
X479365Y450984D01*
X479337Y451096D01*
X479304Y451206D01*
X479269Y451315D01*
X479229Y451423D01*
X479186Y451530D01*
X479139Y451635D01*
X479089Y451739D01*
X479035Y451841D01*
X478978Y451941D01*
X478918Y452039D01*
X478855Y452135D01*
X478788Y452228D01*
X478718Y452320D01*
X478645Y452409D01*
X478570Y452495D01*
X478491Y452580D01*
X478410Y452661D01*
X478326Y452739D01*
X478239Y452815D01*
X478150Y452888D01*
X478058Y452958D01*
X477965Y453025D01*
X477869Y453088D01*
X477771Y453148D01*
X477671Y453205D01*
X477569Y453259D01*
X477465Y453309D01*
X477360Y453356D01*
X477253Y453399D01*
X477145Y453438D01*
X477036Y453474D01*
X476926Y453507D01*
X476814Y453535D01*
X476702Y453560D01*
X476589Y453581D01*
X476475Y453598D01*
X476361Y453612D01*
X476246Y453621D01*
X476131Y453627D01*
X476016Y453629D01*
X472573Y453629D01*
X466538Y453629D02*
X466538Y438135D01*
X466538Y446743D02*
X457930Y446743D01*
X457930Y453629D02*
X457930Y438135D01*
D11*
X552500Y447500D02*
X560000Y455000D01*
X547500Y442500D02*
X540000Y435000D01*
X552500Y447500D02*
X552500Y455000D01*
X547500Y442500D02*
X547500Y435000D01*
X550000Y435000D02*
X550000Y455000D01*
X557500Y457500D02*
X557198Y457676D01*
X556892Y457844D01*
X556581Y458005D01*
X556267Y458158D01*
X555949Y458303D01*
X555628Y458441D01*
X555303Y458571D01*
X554976Y458693D01*
X554645Y458806D01*
X554312Y458912D01*
X553976Y459010D01*
X553638Y459099D01*
X553298Y459180D01*
X552957Y459253D01*
X552613Y459318D01*
X552268Y459374D01*
X551922Y459421D01*
X551574Y459461D01*
X551226Y459491D01*
X550877Y459514D01*
X550528Y459528D01*
X550179Y459533D01*
X549829Y459530D01*
X549480Y459518D01*
X549131Y459498D01*
X548783Y459469D01*
X548435Y459432D01*
X548088Y459386D01*
X547743Y459332D01*
X547399Y459270D01*
X547057Y459199D01*
X546716Y459120D01*
X546378Y459033D01*
X546042Y458937D01*
X545708Y458834D01*
X545377Y458722D01*
X545048Y458602D01*
X544723Y458474D01*
X544401Y458339D01*
X544082Y458195D01*
X543767Y458044D01*
X543456Y457885D01*
X543148Y457719D01*
X542845Y457545D01*
X542546Y457364D01*
X542252Y457176D01*
X541962Y456980D01*
X541677Y456778D01*
X541397Y456568D01*
X541122Y456352D01*
X540853Y456130D01*
X540589Y455901D01*
X540331Y455665D01*
X540078Y455423D01*
X539832Y455175D01*
X539591Y454922D01*
X539357Y454662D01*
X539129Y454397D01*
X538908Y454126D01*
X538693Y453851D01*
X538486Y453570D01*
X538285Y453284D01*
X538091Y452993D01*
X537904Y452697D01*
X537725Y452397D01*
X537552Y452093D01*
X537388Y451785D01*
X537231Y451473D01*
X537081Y451157D01*
X536939Y450837D01*
X536805Y450514D01*
X536679Y450188D01*
X536561Y449859D01*
X536451Y449528D01*
X536349Y449193D01*
X536255Y448857D01*
X536170Y448518D01*
X536093Y448177D01*
X536024Y447834D01*
X535963Y447490D01*
X535911Y447144D01*
X535867Y446797D01*
X535832Y446450D01*
X535805Y446101D01*
X535787Y445752D01*
X535777Y445403D01*
X535775Y445053D01*
X535783Y444704D01*
X535798Y444355D01*
X535823Y444006D01*
X535855Y443658D01*
X535896Y443311D01*
X535946Y442965D01*
X536004Y442620D01*
X536070Y442277D01*
X536145Y441935D01*
X536228Y441596D01*
X536319Y441258D01*
X536418Y440923D01*
X536526Y440591D01*
X536641Y440261D01*
X536765Y439934D01*
X536896Y439610D01*
X537036Y439289D01*
X537183Y438972D01*
X537337Y438659D01*
X537500Y438349D01*
X537670Y438044D01*
X537847Y437743D01*
X538031Y437446D01*
X538223Y437153D01*
X538422Y436866D01*
X538627Y436583D01*
X538840Y436306D01*
X539059Y436033D01*
X539285Y435767D01*
X539517Y435505D01*
X539755Y435250D01*
X540000Y435000D01*
X542500Y432500D02*
X542802Y432324D01*
X543108Y432156D01*
X543419Y431995D01*
X543733Y431842D01*
X544051Y431697D01*
X544372Y431559D01*
X544697Y431429D01*
X545024Y431307D01*
X545355Y431194D01*
X545688Y431088D01*
X546024Y430990D01*
X546362Y430901D01*
X546702Y430820D01*
X547043Y430747D01*
X547387Y430682D01*
X547732Y430626D01*
X548078Y430579D01*
X548426Y430539D01*
X548774Y430509D01*
X549123Y430486D01*
X549472Y430472D01*
X549821Y430467D01*
X550171Y430470D01*
X550520Y430482D01*
X550869Y430502D01*
X551217Y430531D01*
X551565Y430568D01*
X551912Y430614D01*
X552257Y430668D01*
X552601Y430730D01*
X552943Y430801D01*
X553284Y430880D01*
X553622Y430967D01*
X553958Y431063D01*
X554292Y431166D01*
X554623Y431278D01*
X554952Y431398D01*
X555277Y431526D01*
X555599Y431661D01*
X555918Y431805D01*
X556233Y431956D01*
X556544Y432115D01*
X556852Y432281D01*
X557155Y432455D01*
X557454Y432636D01*
X557748Y432824D01*
X558038Y433020D01*
X558323Y433222D01*
X558603Y433432D01*
X558878Y433648D01*
X559147Y433870D01*
X559411Y434099D01*
X559669Y434335D01*
X559922Y434577D01*
X560168Y434825D01*
X560409Y435078D01*
X560643Y435338D01*
X560871Y435603D01*
X561092Y435874D01*
X561307Y436149D01*
X561514Y436430D01*
X561715Y436716D01*
X561909Y437007D01*
X562096Y437303D01*
X562275Y437603D01*
X562448Y437907D01*
X562612Y438215D01*
X562769Y438527D01*
X562919Y438843D01*
X563061Y439163D01*
X563195Y439486D01*
X563321Y439812D01*
X563439Y440141D01*
X563549Y440472D01*
X563651Y440807D01*
X563745Y441143D01*
X563830Y441482D01*
X563907Y441823D01*
X563976Y442166D01*
X564037Y442510D01*
X564089Y442856D01*
X564133Y443203D01*
X564168Y443550D01*
X564195Y443899D01*
X564213Y444248D01*
X564223Y444597D01*
X564225Y444947D01*
X564217Y445296D01*
X564202Y445645D01*
X564177Y445994D01*
X564145Y446342D01*
X564104Y446689D01*
X564054Y447035D01*
X563996Y447380D01*
X563930Y447723D01*
X563855Y448065D01*
X563772Y448404D01*
X563681Y448742D01*
X563582Y449077D01*
X563474Y449409D01*
X563359Y449739D01*
X563235Y450066D01*
X563104Y450390D01*
X562964Y450711D01*
X562817Y451028D01*
X562663Y451341D01*
X562500Y451651D01*
X562330Y451956D01*
X562153Y452257D01*
X561969Y452554D01*
X561777Y452847D01*
X561578Y453134D01*
X561373Y453417D01*
X561160Y453694D01*
X560941Y453967D01*
X560715Y454233D01*
X560483Y454495D01*
X560245Y454750D01*
X560000Y455000D01*
M02*
