G04 EAGLE Gerber RS-274X export*
G75*
%MOMM*%
%FSLAX34Y34*%
%LPD*%
%AMOC8*
5,1,8,0,0,1.08239X$1,22.5*%
G01*
%ADD10C,3.203200*%
%ADD11C,2.235200*%
%ADD12C,1.625600*%
%ADD13C,1.727200*%
%ADD14R,1.511200X1.511200*%
%ADD15C,1.511200*%
%ADD16C,2.082800*%
%ADD17C,2.298700*%
%ADD18C,1.524000*%
%ADD19C,1.611200*%
%ADD20C,2.603200*%
%ADD21C,1.711200*%
%ADD22C,3.403600*%
%ADD23C,1.109600*%


D10*
X172500Y832500D03*
X672500Y832500D03*
X172500Y132500D03*
X672500Y132500D03*
D11*
X810000Y100000D03*
X764280Y100000D03*
D12*
X600200Y47112D02*
X600200Y32888D01*
X574800Y32888D02*
X574800Y47112D01*
D13*
X772380Y620000D02*
X787620Y620000D01*
X787620Y595000D02*
X772380Y595000D01*
X772380Y570000D02*
X787620Y570000D01*
X787620Y762500D02*
X772380Y762500D01*
X772380Y737500D02*
X787620Y737500D01*
X787620Y712500D02*
X772380Y712500D01*
D14*
X331125Y148250D03*
X331125Y72050D03*
D15*
X331125Y122850D03*
X331125Y97450D03*
X305725Y97450D03*
X305725Y122850D03*
X305725Y148250D03*
X305725Y72050D03*
D16*
X626200Y633000D03*
X626200Y658400D03*
X626200Y683800D03*
X626200Y709200D03*
X626200Y734600D03*
X626200Y760000D03*
X626200Y785400D03*
X626200Y810800D03*
X626200Y836200D03*
X626200Y861600D03*
X626200Y887000D03*
X626200Y912400D03*
X473800Y912400D03*
X473800Y887000D03*
X473800Y861600D03*
X473800Y836200D03*
X473800Y810800D03*
X473800Y785400D03*
X473800Y760000D03*
X473800Y734600D03*
X473800Y709200D03*
X473800Y683800D03*
X473800Y658400D03*
X473800Y633000D03*
D17*
X78778Y904500D02*
X57823Y904500D01*
X57823Y853700D02*
X78778Y853700D01*
X78778Y650500D02*
X57823Y650500D01*
X57823Y802900D02*
X78778Y802900D01*
X78778Y752100D02*
X57823Y752100D01*
X57823Y701300D02*
X78778Y701300D01*
X81278Y319500D02*
X60323Y319500D01*
X60323Y268700D02*
X81278Y268700D01*
X81278Y65500D02*
X60323Y65500D01*
X60323Y217900D02*
X81278Y217900D01*
X81278Y167100D02*
X60323Y167100D01*
X60323Y116300D02*
X81278Y116300D01*
D13*
X772380Y905000D02*
X787620Y905000D01*
X787620Y880000D02*
X772380Y880000D01*
X772380Y855000D02*
X787620Y855000D01*
D18*
X505870Y420000D03*
X554130Y420000D03*
D19*
X690000Y308050D03*
X664600Y320750D03*
X690000Y333450D03*
X664600Y346150D03*
X690000Y358850D03*
X664600Y371550D03*
X690000Y384250D03*
X664600Y396950D03*
D20*
X721413Y429325D03*
X721413Y276470D03*
D21*
X801244Y422231D03*
X779018Y282768D03*
X782194Y422231D03*
X798069Y282769D03*
D22*
X753500Y409650D03*
X753500Y295350D03*
D23*
X346500Y431750D03*
X504625Y803000D03*
X446875Y760375D03*
X353375Y349250D03*
X496375Y624250D03*
X285000Y370000D03*
X446875Y708125D03*
X328625Y589875D03*
X125125Y104500D03*
X328625Y539000D03*
X294250Y138875D03*
X413875Y316250D03*
X369875Y270875D03*
X660000Y449625D03*
X338250Y339625D03*
X295000Y340000D03*
X342375Y382250D03*
X386375Y358875D03*
X616000Y357500D03*
X581625Y320375D03*
X418000Y287375D03*
M02*
