G04 EAGLE Gerber RS-274X export*
G75*
%MOMM*%
%FSLAX34Y34*%
%LPD*%
%INTop Copper*%
%IPPOS*%
%AMOC8*
5,1,8,0,0,1.08239X$1,22.5*%
G01*
%ADD10R,1.200000X1.200000*%
%ADD11R,1.270000X1.470000*%
%ADD12R,0.800000X1.200000*%
%ADD13R,1.780000X3.200000*%
%ADD14R,2.800000X2.400000*%
%ADD15R,1.200000X0.800000*%
%ADD16R,1.470000X1.270000*%
%ADD17R,3.810000X2.082800*%
%ADD18R,8.890000X11.430000*%
%ADD19R,1.308000X1.308000*%
%ADD20C,1.308000*%
%ADD21C,2.095500*%
%ADD22R,1.500000X0.400000*%
%ADD23R,1.700000X3.300000*%
%ADD24R,1.200000X2.000000*%
%ADD25C,2.100000*%
%ADD26C,1.524000*%
%ADD27R,1.270000X0.558800*%
%ADD28R,0.558800X1.270000*%
%ADD29C,0.450000*%
%ADD30C,0.254000*%
%ADD31R,2.500000X4.300000*%
%ADD32R,5.500000X4.000000*%
%ADD33R,10.800000X10.410000*%
%ADD34R,1.066800X2.159000*%
%ADD35R,2.400000X2.400000*%
%ADD36C,0.127000*%
%ADD37C,0.101600*%
%ADD38P,1.649562X8X112.500000*%
%ADD39C,2.247900*%
%ADD40C,0.203200*%
%ADD41C,0.756400*%


D10*
X728000Y200000D03*
X707000Y200000D03*
D11*
X686500Y55000D03*
X643500Y55000D03*
D12*
X681500Y200000D03*
X663500Y200000D03*
D13*
X614900Y55000D03*
X565100Y55000D03*
D14*
X820000Y43000D03*
X820000Y157000D03*
X759000Y43000D03*
X759000Y157000D03*
D15*
X412500Y914000D03*
X412500Y896000D03*
D16*
X170000Y883500D03*
X170000Y926500D03*
D17*
X371400Y859600D03*
X371400Y910400D03*
D18*
X257100Y885000D03*
D15*
X717500Y621500D03*
X717500Y603500D03*
X717500Y746500D03*
X717500Y728500D03*
X415000Y784000D03*
X415000Y766000D03*
D16*
X170000Y738500D03*
X170000Y781500D03*
D17*
X371400Y729600D03*
X371400Y780400D03*
D18*
X257100Y755000D03*
D19*
X251125Y418250D03*
X251125Y342050D03*
D20*
X251125Y392850D03*
X251125Y367450D03*
X225725Y367450D03*
X225725Y392850D03*
X225725Y418250D03*
X225725Y342050D03*
D21*
X78778Y904500D02*
X57823Y904500D01*
X57823Y853700D02*
X78778Y853700D01*
X78778Y650500D02*
X57823Y650500D01*
X57823Y802900D02*
X78778Y802900D01*
X78778Y752100D02*
X57823Y752100D01*
X57823Y701300D02*
X78778Y701300D01*
D15*
X415000Y634000D03*
X415000Y616000D03*
D16*
X172500Y611000D03*
X172500Y654000D03*
D17*
X373900Y599600D03*
X373900Y650400D03*
D18*
X259600Y625000D03*
D15*
X717500Y871500D03*
X717500Y853500D03*
X135000Y386500D03*
X135000Y368500D03*
X135000Y336500D03*
X135000Y318500D03*
X135000Y286500D03*
X135000Y268500D03*
D22*
X371250Y419750D03*
X371250Y413250D03*
X371250Y406750D03*
X371250Y400250D03*
X371250Y393750D03*
X371250Y387250D03*
X371250Y380750D03*
X371250Y374250D03*
X371250Y367750D03*
X371250Y361250D03*
X371250Y354750D03*
X371250Y348250D03*
X371250Y341750D03*
X371250Y335250D03*
X443750Y335250D03*
X443750Y341750D03*
X443750Y348250D03*
X443750Y354750D03*
X443750Y361250D03*
X443750Y367750D03*
X443750Y374250D03*
X443750Y380750D03*
X443750Y387250D03*
X443750Y393750D03*
X443750Y400250D03*
X443750Y406750D03*
X443750Y413250D03*
X443750Y419750D03*
D12*
X316500Y350000D03*
X298500Y350000D03*
X316500Y382500D03*
X298500Y382500D03*
X341500Y322500D03*
X323500Y322500D03*
D23*
X511500Y420000D03*
X548500Y420000D03*
D12*
X503500Y340000D03*
X521500Y340000D03*
X503500Y367500D03*
X521500Y367500D03*
D15*
X560000Y358500D03*
X560000Y376500D03*
X602500Y358500D03*
X602500Y376500D03*
X602500Y303500D03*
X602500Y321500D03*
X560000Y303500D03*
X560000Y321500D03*
D12*
X521500Y315000D03*
X503500Y315000D03*
D15*
X602500Y431500D03*
X602500Y413500D03*
D12*
X521500Y287500D03*
X503500Y287500D03*
D24*
X320000Y416000D03*
X320000Y444000D03*
D12*
X504000Y472500D03*
X486000Y472500D03*
X461500Y472500D03*
X443500Y472500D03*
D25*
X722700Y285750D03*
X722700Y440650D03*
D20*
X808400Y429450D03*
X808400Y404050D03*
X808400Y322350D03*
X808400Y296950D03*
X664300Y407600D03*
X664300Y382200D03*
X664300Y356800D03*
X664300Y331400D03*
X689700Y395000D03*
X689700Y369600D03*
X689700Y344200D03*
X689700Y318800D03*
D26*
X714880Y550600D02*
X730120Y550600D01*
X730120Y525200D02*
X714880Y525200D01*
X714880Y499800D02*
X730120Y499800D01*
X730120Y474400D02*
X714880Y474400D01*
D15*
X482500Y869000D03*
X482500Y851000D03*
D12*
X466000Y812500D03*
X484000Y812500D03*
X466000Y765000D03*
X484000Y765000D03*
X663500Y252500D03*
X681500Y252500D03*
D10*
X728000Y252500D03*
X707000Y252500D03*
D27*
G36*
X613040Y716313D02*
X622019Y707334D01*
X618068Y703383D01*
X609089Y712362D01*
X613040Y716313D01*
G37*
G36*
X618697Y721970D02*
X627676Y712991D01*
X623725Y709040D01*
X614746Y718019D01*
X618697Y721970D01*
G37*
G36*
X624354Y727626D02*
X633333Y718647D01*
X629382Y714696D01*
X620403Y723675D01*
X624354Y727626D01*
G37*
G36*
X630011Y733283D02*
X638990Y724304D01*
X635039Y720353D01*
X626060Y729332D01*
X630011Y733283D01*
G37*
G36*
X635668Y738940D02*
X644647Y729961D01*
X640696Y726010D01*
X631717Y734989D01*
X635668Y738940D01*
G37*
G36*
X641325Y744597D02*
X650304Y735618D01*
X646353Y731667D01*
X637374Y740646D01*
X641325Y744597D01*
G37*
G36*
X646981Y750254D02*
X655960Y741275D01*
X652009Y737324D01*
X643030Y746303D01*
X646981Y750254D01*
G37*
G36*
X652638Y755911D02*
X661617Y746932D01*
X657666Y742981D01*
X648687Y751960D01*
X652638Y755911D01*
G37*
D28*
G36*
X657666Y777019D02*
X661617Y773068D01*
X652638Y764089D01*
X648687Y768040D01*
X657666Y777019D01*
G37*
G36*
X652009Y782676D02*
X655960Y778725D01*
X646981Y769746D01*
X643030Y773697D01*
X652009Y782676D01*
G37*
G36*
X646353Y788333D02*
X650304Y784382D01*
X641325Y775403D01*
X637374Y779354D01*
X646353Y788333D01*
G37*
G36*
X640696Y793990D02*
X644647Y790039D01*
X635668Y781060D01*
X631717Y785011D01*
X640696Y793990D01*
G37*
G36*
X635039Y799647D02*
X638990Y795696D01*
X630011Y786717D01*
X626060Y790668D01*
X635039Y799647D01*
G37*
G36*
X629382Y805304D02*
X633333Y801353D01*
X624354Y792374D01*
X620403Y796325D01*
X629382Y805304D01*
G37*
G36*
X623725Y810960D02*
X627676Y807009D01*
X618697Y798030D01*
X614746Y801981D01*
X623725Y810960D01*
G37*
G36*
X618068Y816617D02*
X622019Y812666D01*
X613040Y803687D01*
X609089Y807638D01*
X618068Y816617D01*
G37*
D27*
G36*
X591932Y816617D02*
X600911Y807638D01*
X596960Y803687D01*
X587981Y812666D01*
X591932Y816617D01*
G37*
G36*
X586275Y810960D02*
X595254Y801981D01*
X591303Y798030D01*
X582324Y807009D01*
X586275Y810960D01*
G37*
G36*
X580618Y805304D02*
X589597Y796325D01*
X585646Y792374D01*
X576667Y801353D01*
X580618Y805304D01*
G37*
G36*
X574961Y799647D02*
X583940Y790668D01*
X579989Y786717D01*
X571010Y795696D01*
X574961Y799647D01*
G37*
G36*
X569304Y793990D02*
X578283Y785011D01*
X574332Y781060D01*
X565353Y790039D01*
X569304Y793990D01*
G37*
G36*
X563647Y788333D02*
X572626Y779354D01*
X568675Y775403D01*
X559696Y784382D01*
X563647Y788333D01*
G37*
G36*
X557991Y782676D02*
X566970Y773697D01*
X563019Y769746D01*
X554040Y778725D01*
X557991Y782676D01*
G37*
G36*
X552334Y777019D02*
X561313Y768040D01*
X557362Y764089D01*
X548383Y773068D01*
X552334Y777019D01*
G37*
D28*
G36*
X557362Y755911D02*
X561313Y751960D01*
X552334Y742981D01*
X548383Y746932D01*
X557362Y755911D01*
G37*
G36*
X563019Y750254D02*
X566970Y746303D01*
X557991Y737324D01*
X554040Y741275D01*
X563019Y750254D01*
G37*
G36*
X568675Y744597D02*
X572626Y740646D01*
X563647Y731667D01*
X559696Y735618D01*
X568675Y744597D01*
G37*
G36*
X574332Y738940D02*
X578283Y734989D01*
X569304Y726010D01*
X565353Y729961D01*
X574332Y738940D01*
G37*
G36*
X579989Y733283D02*
X583940Y729332D01*
X574961Y720353D01*
X571010Y724304D01*
X579989Y733283D01*
G37*
G36*
X585646Y727626D02*
X589597Y723675D01*
X580618Y714696D01*
X576667Y718647D01*
X585646Y727626D01*
G37*
G36*
X591303Y721970D02*
X595254Y718019D01*
X586275Y709040D01*
X582324Y712991D01*
X591303Y721970D01*
G37*
G36*
X596960Y716313D02*
X600911Y712362D01*
X591932Y703383D01*
X587981Y707334D01*
X596960Y716313D01*
G37*
D15*
X517500Y869000D03*
X517500Y851000D03*
D12*
X484000Y692500D03*
X466000Y692500D03*
D29*
X648000Y667275D02*
X648000Y652725D01*
X660000Y652725D02*
X660000Y667275D01*
X672000Y667275D02*
X672000Y652725D01*
D30*
X648000Y660000D02*
X648000Y670160D01*
X648000Y660000D02*
X648000Y649840D01*
X672000Y660000D02*
X672000Y670160D01*
X672000Y660000D02*
X672000Y649840D01*
X660000Y660000D02*
X660000Y670160D01*
X660000Y660000D02*
X660000Y649840D01*
D12*
X484000Y637500D03*
X466000Y637500D03*
D31*
X327500Y193500D03*
X327500Y276500D03*
X597500Y113500D03*
X597500Y196500D03*
D32*
X332500Y135000D03*
X332500Y50000D03*
D33*
X472500Y82100D03*
D34*
X506536Y165412D03*
X489518Y165412D03*
X472500Y165412D03*
X455482Y165412D03*
X438464Y165412D03*
D35*
X492000Y220000D03*
X448000Y220000D03*
D36*
X177500Y76470D02*
X177500Y48530D01*
X180040Y48530D02*
X180040Y59960D01*
X188930Y51070D01*
X174960Y65040D02*
X166070Y73930D01*
X174960Y76470D02*
X174960Y65040D01*
X168610Y76471D02*
X168949Y76680D01*
X169293Y76881D01*
X169642Y77074D01*
X169995Y77258D01*
X170353Y77433D01*
X170715Y77600D01*
X171081Y77758D01*
X171451Y77907D01*
X171824Y78046D01*
X172201Y78177D01*
X172580Y78298D01*
X172963Y78411D01*
X173348Y78513D01*
X173735Y78607D01*
X174125Y78691D01*
X174516Y78765D01*
X174909Y78830D01*
X175304Y78885D01*
X175700Y78931D01*
X176097Y78967D01*
X176495Y78993D01*
X176893Y79010D01*
X177291Y79017D01*
X177690Y79014D01*
X178088Y79001D01*
X178486Y78979D01*
X178883Y78947D01*
X179280Y78906D01*
X179675Y78855D01*
X180069Y78794D01*
X180461Y78724D01*
X180851Y78644D01*
X181240Y78554D01*
X181626Y78455D01*
X182009Y78347D01*
X182390Y78230D01*
X182768Y78103D01*
X183143Y77967D01*
X183514Y77822D01*
X183882Y77668D01*
X184245Y77505D01*
X184605Y77333D01*
X184960Y77153D01*
X185311Y76964D01*
X185657Y76767D01*
X185999Y76561D01*
X186335Y76347D01*
X186665Y76124D01*
X186991Y75894D01*
X187310Y75656D01*
X187624Y75410D01*
X187932Y75157D01*
X188233Y74896D01*
X188528Y74628D01*
X188816Y74353D01*
X189098Y74071D01*
X189372Y73782D01*
X189640Y73486D01*
X189900Y73184D01*
X190153Y72876D01*
X190398Y72562D01*
X190635Y72242D01*
X190865Y71916D01*
X191086Y71585D01*
X191300Y71248D01*
X191505Y70907D01*
X191702Y70560D01*
X191890Y70209D01*
X192070Y69853D01*
X192241Y69493D01*
X192403Y69129D01*
X192556Y68761D01*
X192700Y68390D01*
X192835Y68015D01*
X192961Y67637D01*
X193078Y67256D01*
X193185Y66872D01*
X193283Y66485D01*
X193372Y66097D01*
X193451Y65706D01*
X193521Y65314D01*
X193580Y64920D01*
X193631Y64525D01*
X193672Y64128D01*
X193703Y63731D01*
X193724Y63333D01*
X193736Y62935D01*
X193738Y62536D01*
X193730Y62138D01*
X193712Y61739D01*
X193685Y61342D01*
X193648Y60945D01*
X193602Y60549D01*
X193546Y60155D01*
X193480Y59761D01*
X193405Y59370D01*
X193320Y58981D01*
X193226Y58593D01*
X193122Y58209D01*
X193009Y57826D01*
X192887Y57447D01*
X192756Y57071D01*
X192615Y56698D01*
X192465Y56329D01*
X192307Y55963D01*
X192139Y55601D01*
X191963Y55244D01*
X191778Y54891D01*
X191585Y54542D01*
X191383Y54199D01*
X191173Y53860D01*
X190955Y53527D01*
X190729Y53199D01*
X190494Y52876D01*
X190252Y52560D01*
X190003Y52249D01*
X189745Y51945D01*
X189481Y51646D01*
X189209Y51355D01*
X188930Y51070D01*
X186390Y48529D02*
X186051Y48320D01*
X185707Y48119D01*
X185358Y47926D01*
X185005Y47742D01*
X184647Y47567D01*
X184285Y47400D01*
X183919Y47242D01*
X183549Y47093D01*
X183176Y46954D01*
X182799Y46823D01*
X182420Y46702D01*
X182037Y46589D01*
X181652Y46487D01*
X181265Y46393D01*
X180875Y46309D01*
X180484Y46235D01*
X180091Y46170D01*
X179696Y46115D01*
X179300Y46069D01*
X178903Y46033D01*
X178505Y46007D01*
X178107Y45990D01*
X177709Y45983D01*
X177310Y45986D01*
X176912Y45999D01*
X176514Y46021D01*
X176117Y46053D01*
X175720Y46094D01*
X175325Y46145D01*
X174931Y46206D01*
X174539Y46276D01*
X174149Y46356D01*
X173760Y46446D01*
X173374Y46545D01*
X172991Y46653D01*
X172610Y46770D01*
X172232Y46897D01*
X171857Y47033D01*
X171486Y47178D01*
X171118Y47332D01*
X170755Y47495D01*
X170395Y47667D01*
X170040Y47847D01*
X169689Y48036D01*
X169343Y48233D01*
X169001Y48439D01*
X168665Y48653D01*
X168335Y48876D01*
X168009Y49106D01*
X167690Y49344D01*
X167376Y49590D01*
X167068Y49843D01*
X166767Y50104D01*
X166472Y50372D01*
X166184Y50647D01*
X165902Y50929D01*
X165628Y51218D01*
X165360Y51514D01*
X165100Y51816D01*
X164847Y52124D01*
X164602Y52438D01*
X164365Y52758D01*
X164135Y53084D01*
X163914Y53415D01*
X163700Y53752D01*
X163495Y54093D01*
X163298Y54440D01*
X163110Y54791D01*
X162930Y55147D01*
X162759Y55507D01*
X162597Y55871D01*
X162444Y56239D01*
X162300Y56610D01*
X162165Y56985D01*
X162039Y57363D01*
X161922Y57744D01*
X161815Y58128D01*
X161717Y58515D01*
X161628Y58903D01*
X161549Y59294D01*
X161479Y59686D01*
X161420Y60080D01*
X161369Y60475D01*
X161328Y60872D01*
X161297Y61269D01*
X161276Y61667D01*
X161264Y62065D01*
X161262Y62464D01*
X161270Y62862D01*
X161288Y63261D01*
X161315Y63658D01*
X161352Y64055D01*
X161398Y64451D01*
X161454Y64845D01*
X161520Y65239D01*
X161595Y65630D01*
X161680Y66019D01*
X161774Y66407D01*
X161878Y66791D01*
X161991Y67174D01*
X162113Y67553D01*
X162244Y67929D01*
X162385Y68302D01*
X162535Y68671D01*
X162693Y69037D01*
X162861Y69399D01*
X163037Y69756D01*
X163222Y70109D01*
X163415Y70458D01*
X163617Y70801D01*
X163827Y71140D01*
X164045Y71473D01*
X164271Y71801D01*
X164506Y72124D01*
X164748Y72440D01*
X164997Y72751D01*
X165255Y73055D01*
X165519Y73354D01*
X165791Y73645D01*
X166070Y73930D01*
D37*
X147556Y40402D02*
X147556Y28718D01*
X146258Y28718D02*
X148854Y28718D01*
X148854Y40402D02*
X146258Y40402D01*
X153455Y37156D02*
X153455Y31964D01*
X153454Y37156D02*
X153456Y37269D01*
X153462Y37382D01*
X153472Y37495D01*
X153486Y37608D01*
X153503Y37720D01*
X153525Y37831D01*
X153550Y37941D01*
X153580Y38051D01*
X153613Y38159D01*
X153650Y38266D01*
X153690Y38372D01*
X153735Y38476D01*
X153783Y38579D01*
X153834Y38680D01*
X153889Y38779D01*
X153947Y38876D01*
X154009Y38971D01*
X154074Y39064D01*
X154142Y39154D01*
X154213Y39242D01*
X154288Y39328D01*
X154365Y39411D01*
X154445Y39491D01*
X154528Y39568D01*
X154614Y39643D01*
X154702Y39714D01*
X154792Y39782D01*
X154885Y39847D01*
X154980Y39909D01*
X155077Y39967D01*
X155176Y40022D01*
X155277Y40073D01*
X155380Y40121D01*
X155484Y40166D01*
X155590Y40206D01*
X155697Y40243D01*
X155805Y40276D01*
X155915Y40306D01*
X156025Y40331D01*
X156136Y40353D01*
X156248Y40370D01*
X156361Y40384D01*
X156474Y40394D01*
X156587Y40400D01*
X156700Y40402D01*
X156813Y40400D01*
X156926Y40394D01*
X157039Y40384D01*
X157152Y40370D01*
X157264Y40353D01*
X157375Y40331D01*
X157485Y40306D01*
X157595Y40276D01*
X157703Y40243D01*
X157810Y40206D01*
X157916Y40166D01*
X158020Y40121D01*
X158123Y40073D01*
X158224Y40022D01*
X158323Y39967D01*
X158420Y39909D01*
X158515Y39847D01*
X158608Y39782D01*
X158698Y39714D01*
X158786Y39643D01*
X158872Y39568D01*
X158955Y39491D01*
X159035Y39411D01*
X159112Y39328D01*
X159187Y39242D01*
X159258Y39154D01*
X159326Y39064D01*
X159391Y38971D01*
X159453Y38876D01*
X159511Y38779D01*
X159566Y38680D01*
X159617Y38579D01*
X159665Y38476D01*
X159710Y38372D01*
X159750Y38266D01*
X159787Y38159D01*
X159820Y38051D01*
X159850Y37941D01*
X159875Y37831D01*
X159897Y37720D01*
X159914Y37608D01*
X159928Y37495D01*
X159938Y37382D01*
X159944Y37269D01*
X159946Y37156D01*
X159946Y31964D01*
X159944Y31851D01*
X159938Y31738D01*
X159928Y31625D01*
X159914Y31512D01*
X159897Y31400D01*
X159875Y31289D01*
X159850Y31179D01*
X159820Y31069D01*
X159787Y30961D01*
X159750Y30854D01*
X159710Y30748D01*
X159665Y30644D01*
X159617Y30541D01*
X159566Y30440D01*
X159511Y30341D01*
X159453Y30244D01*
X159391Y30149D01*
X159326Y30056D01*
X159258Y29966D01*
X159187Y29878D01*
X159112Y29792D01*
X159035Y29709D01*
X158955Y29629D01*
X158872Y29552D01*
X158786Y29477D01*
X158698Y29406D01*
X158608Y29338D01*
X158515Y29273D01*
X158420Y29211D01*
X158323Y29153D01*
X158224Y29098D01*
X158123Y29047D01*
X158020Y28999D01*
X157916Y28954D01*
X157810Y28914D01*
X157703Y28877D01*
X157595Y28844D01*
X157485Y28814D01*
X157375Y28789D01*
X157264Y28767D01*
X157152Y28750D01*
X157039Y28736D01*
X156926Y28726D01*
X156813Y28720D01*
X156700Y28718D01*
X156587Y28720D01*
X156474Y28726D01*
X156361Y28736D01*
X156248Y28750D01*
X156136Y28767D01*
X156025Y28789D01*
X155915Y28814D01*
X155805Y28844D01*
X155697Y28877D01*
X155590Y28914D01*
X155484Y28954D01*
X155380Y28999D01*
X155277Y29047D01*
X155176Y29098D01*
X155077Y29153D01*
X154980Y29211D01*
X154885Y29273D01*
X154792Y29338D01*
X154702Y29406D01*
X154614Y29477D01*
X154528Y29552D01*
X154445Y29629D01*
X154365Y29709D01*
X154288Y29792D01*
X154213Y29878D01*
X154142Y29966D01*
X154074Y30056D01*
X154009Y30149D01*
X153947Y30244D01*
X153889Y30341D01*
X153834Y30440D01*
X153783Y30541D01*
X153735Y30644D01*
X153690Y30748D01*
X153650Y30854D01*
X153613Y30961D01*
X153580Y31069D01*
X153550Y31179D01*
X153525Y31289D01*
X153503Y31400D01*
X153486Y31512D01*
X153472Y31625D01*
X153462Y31738D01*
X153456Y31851D01*
X153454Y31964D01*
X167368Y28718D02*
X167368Y40402D01*
X164123Y40402D02*
X170614Y40402D01*
X175194Y28718D02*
X180387Y28718D01*
X175194Y28718D02*
X175194Y40402D01*
X180387Y40402D01*
X179089Y35209D02*
X175194Y35209D01*
X187260Y28718D02*
X189856Y28718D01*
X187260Y28718D02*
X187161Y28720D01*
X187061Y28726D01*
X186962Y28735D01*
X186864Y28748D01*
X186766Y28765D01*
X186668Y28786D01*
X186572Y28811D01*
X186477Y28839D01*
X186383Y28871D01*
X186290Y28906D01*
X186198Y28945D01*
X186108Y28988D01*
X186020Y29033D01*
X185933Y29083D01*
X185849Y29135D01*
X185766Y29191D01*
X185686Y29249D01*
X185608Y29311D01*
X185533Y29376D01*
X185460Y29444D01*
X185390Y29514D01*
X185322Y29587D01*
X185257Y29662D01*
X185195Y29740D01*
X185137Y29820D01*
X185081Y29903D01*
X185029Y29987D01*
X184979Y30074D01*
X184934Y30162D01*
X184891Y30252D01*
X184852Y30344D01*
X184817Y30437D01*
X184785Y30531D01*
X184757Y30626D01*
X184732Y30722D01*
X184711Y30820D01*
X184694Y30918D01*
X184681Y31016D01*
X184672Y31115D01*
X184666Y31215D01*
X184664Y31314D01*
X184663Y31314D02*
X184663Y37806D01*
X184664Y37806D02*
X184666Y37905D01*
X184672Y38005D01*
X184681Y38104D01*
X184694Y38202D01*
X184711Y38300D01*
X184732Y38398D01*
X184757Y38494D01*
X184785Y38589D01*
X184817Y38683D01*
X184852Y38776D01*
X184891Y38868D01*
X184934Y38958D01*
X184979Y39046D01*
X185029Y39133D01*
X185081Y39217D01*
X185137Y39300D01*
X185195Y39380D01*
X185257Y39458D01*
X185322Y39533D01*
X185390Y39606D01*
X185460Y39676D01*
X185533Y39744D01*
X185608Y39809D01*
X185686Y39871D01*
X185766Y39929D01*
X185849Y39985D01*
X185933Y40037D01*
X186020Y40087D01*
X186108Y40132D01*
X186198Y40175D01*
X186290Y40214D01*
X186382Y40249D01*
X186477Y40281D01*
X186572Y40309D01*
X186668Y40334D01*
X186766Y40355D01*
X186864Y40372D01*
X186962Y40385D01*
X187061Y40394D01*
X187161Y40400D01*
X187260Y40402D01*
X189856Y40402D01*
X194603Y40402D02*
X194603Y28718D01*
X194603Y35209D02*
X201094Y35209D01*
X201094Y40402D02*
X201094Y28718D01*
D38*
X814946Y209894D03*
X814946Y255106D03*
D39*
X790054Y197448D03*
X790054Y267552D03*
D26*
X789880Y652500D02*
X805120Y652500D01*
X805120Y627500D02*
X789880Y627500D01*
X789880Y602500D02*
X805120Y602500D01*
X805120Y777500D02*
X789880Y777500D01*
X789880Y752500D02*
X805120Y752500D01*
X805120Y727500D02*
X789880Y727500D01*
X789880Y902500D02*
X805120Y902500D01*
X805120Y877500D02*
X789880Y877500D01*
X789880Y852500D02*
X805120Y852500D01*
D21*
X81278Y521100D02*
X60323Y521100D01*
X60323Y470300D02*
X81278Y470300D01*
X81278Y63900D02*
X60323Y63900D01*
X60323Y419500D02*
X81278Y419500D01*
X81278Y368700D02*
X60323Y368700D01*
X60323Y114700D02*
X81278Y114700D01*
X81278Y317900D02*
X60323Y317900D01*
X60323Y267100D02*
X81278Y267100D01*
X81278Y165500D02*
X60323Y165500D01*
X60323Y216300D02*
X81278Y216300D01*
D15*
X135000Y236500D03*
X135000Y218500D03*
X135000Y184000D03*
X135000Y166000D03*
X135000Y131500D03*
X135000Y113500D03*
X135000Y81500D03*
X135000Y63500D03*
D30*
X507189Y158178D02*
X507189Y165321D01*
X507189Y158178D02*
X564337Y101030D01*
X564337Y55107D01*
X507189Y165321D02*
X506536Y165412D01*
X564337Y55107D02*
X565100Y55000D01*
X392893Y193895D02*
X327581Y193895D01*
X392893Y193895D02*
X434733Y235736D01*
X505148Y235736D01*
X508209Y232674D01*
X508209Y165321D01*
X327581Y193895D02*
X327500Y193500D01*
X506536Y165412D02*
X508209Y165321D01*
X169403Y925594D02*
X88784Y925594D01*
X68374Y905184D01*
X169403Y925594D02*
X170000Y926500D01*
X68374Y905184D02*
X68300Y904500D01*
X88784Y781703D02*
X169403Y781703D01*
X78068Y792418D02*
X68374Y802113D01*
X78068Y792418D02*
X88784Y781703D01*
X169403Y781703D02*
X170000Y781500D01*
X68374Y802113D02*
X68300Y802900D01*
X123481Y654141D02*
X172465Y654141D01*
X123481Y654141D02*
X76538Y701084D01*
X68374Y701084D01*
X172465Y654141D02*
X172500Y654000D01*
X68374Y701084D02*
X68300Y701300D01*
X43882Y758232D02*
X78068Y792418D01*
X43882Y758232D02*
X43882Y725576D01*
X67353Y702104D01*
X68300Y701300D01*
X67353Y883753D02*
X67353Y904163D01*
X67353Y883753D02*
X43882Y860282D01*
X43882Y828646D01*
X68374Y804154D01*
X67353Y904163D02*
X68300Y904500D01*
X68374Y804154D02*
X68300Y802900D01*
X316355Y193895D02*
X326560Y193895D01*
X316355Y193895D02*
X190834Y319417D01*
X190834Y479635D01*
X192875Y481676D01*
X192875Y487799D01*
X160219Y520455D01*
X71435Y520455D01*
X326560Y193895D02*
X327500Y193500D01*
X71435Y520455D02*
X70800Y521100D01*
D40*
X809257Y321458D02*
X809257Y310232D01*
X818441Y301048D01*
X818441Y258187D01*
X815380Y255125D01*
X809257Y321458D02*
X808400Y322350D01*
X814946Y255106D02*
X815380Y255125D01*
X808236Y322478D02*
X808236Y403098D01*
X808400Y404050D01*
X808236Y322478D02*
X808400Y322350D01*
X820482Y200018D02*
X820482Y157157D01*
X820482Y200018D02*
X826605Y206141D01*
X826605Y242879D01*
X815380Y254105D01*
X820482Y157157D02*
X820000Y157000D01*
X815380Y254105D02*
X814946Y255106D01*
X728637Y252064D02*
X728637Y209203D01*
X728637Y200018D01*
X728000Y200000D01*
X728637Y252064D02*
X728000Y252500D01*
X727617Y253084D02*
X727617Y281658D01*
X723535Y285740D01*
X727617Y253084D02*
X728000Y252500D01*
X723535Y285740D02*
X722700Y285750D01*
X645977Y196957D02*
X598013Y196957D01*
X645977Y196957D02*
X658223Y209203D01*
X728637Y209203D01*
X598013Y196957D02*
X597500Y196500D01*
X797011Y254105D02*
X814359Y254105D01*
X797011Y254105D02*
X794970Y252064D01*
X729658Y252064D01*
X814359Y254105D02*
X814946Y255106D01*
X729658Y252064D02*
X728000Y252500D01*
X660264Y645977D02*
X660264Y649038D01*
X660264Y645977D02*
X715371Y590870D01*
X809257Y590870D01*
X816400Y598013D01*
X816400Y633731D01*
X798031Y652100D01*
X660264Y649038D02*
X660000Y649840D01*
X797500Y652500D02*
X798031Y652100D01*
X816400Y758232D02*
X798031Y776601D01*
X816400Y758232D02*
X816400Y671489D01*
X798031Y653120D01*
X798031Y776601D02*
X797500Y777500D01*
X798031Y653120D02*
X797500Y652500D01*
X798031Y900081D02*
X798031Y902122D01*
X798031Y900081D02*
X816400Y881712D01*
X816400Y795990D01*
X798031Y777621D01*
X798031Y902122D02*
X797500Y902500D01*
X798031Y777621D02*
X797500Y777500D01*
X442897Y355134D02*
X435754Y355134D01*
X432692Y358196D01*
X432692Y371462D01*
X434733Y373503D01*
X442897Y373503D01*
X442897Y355134D02*
X443750Y354750D01*
X442897Y373503D02*
X443750Y374250D01*
X443918Y374524D02*
X443918Y380647D01*
X443750Y380750D01*
X443918Y374524D02*
X443750Y374250D01*
X504127Y314314D02*
X504127Y287781D01*
X503500Y287500D01*
X504127Y314314D02*
X503500Y315000D01*
X521476Y340847D02*
X521476Y367380D01*
X521476Y340847D02*
X521500Y340000D01*
X521476Y367380D02*
X521500Y367500D01*
X504127Y322478D02*
X504127Y315335D01*
X504637Y322988D02*
X521476Y339827D01*
X504637Y322988D02*
X504127Y322478D01*
X504127Y315335D02*
X503500Y315000D01*
X521476Y339827D02*
X521500Y340000D01*
X473512Y354114D02*
X443918Y354114D01*
X473512Y354114D02*
X504637Y322988D01*
X443918Y354114D02*
X443750Y354750D01*
X664346Y408200D02*
X690879Y408200D01*
X722514Y439836D01*
X664346Y408200D02*
X664300Y407600D01*
X722514Y439836D02*
X722700Y440650D01*
X629649Y720473D02*
X627608Y720473D01*
X629649Y720473D02*
X633731Y716391D01*
X635772Y716391D01*
X642915Y723535D01*
X642915Y727617D01*
X638833Y731699D01*
X627608Y720473D02*
X626868Y721161D01*
X638833Y731699D02*
X638182Y732475D01*
X626587Y721494D02*
X623526Y721494D01*
X619444Y725576D01*
X617403Y725576D01*
X605157Y713330D01*
X605157Y667407D01*
X704145Y568419D01*
X704145Y542906D01*
X721494Y525558D01*
X626868Y721161D02*
X626587Y721494D01*
X721494Y525558D02*
X722500Y525200D01*
X536783Y368401D02*
X522496Y368401D01*
X536783Y368401D02*
X589849Y421467D01*
X650059Y421467D01*
X663325Y408200D01*
X522496Y368401D02*
X521500Y367500D01*
X663325Y408200D02*
X664300Y407600D01*
X135727Y304109D02*
X135727Y286761D01*
X135727Y304109D02*
X144911Y313294D01*
X144911Y326560D01*
X135727Y335745D01*
X135727Y286761D02*
X135000Y286500D01*
X135727Y335745D02*
X135000Y336500D01*
X135727Y382688D02*
X135727Y385749D01*
X135727Y382688D02*
X144911Y373503D01*
X144911Y345950D01*
X135727Y336765D01*
X135727Y385749D02*
X135000Y386500D01*
X135727Y336765D02*
X135000Y336500D01*
X71435Y450041D02*
X71435Y469430D01*
X71435Y450041D02*
X134706Y386770D01*
X71435Y469430D02*
X70800Y470300D01*
X134706Y386770D02*
X135000Y386500D01*
X438815Y165321D02*
X438815Y161239D01*
X449020Y151034D01*
X462287Y151034D01*
X472492Y161239D01*
X472492Y165321D01*
X438815Y165321D02*
X438464Y165412D01*
X472492Y165321D02*
X472500Y165412D01*
X448000Y178588D02*
X448000Y219408D01*
X448000Y178588D02*
X438815Y169403D01*
X438815Y166342D01*
X448000Y219408D02*
X448000Y220000D01*
X438815Y166342D02*
X438464Y165412D01*
X134706Y90825D02*
X134706Y81640D01*
X134706Y90825D02*
X125522Y100009D01*
X125522Y121440D01*
X134706Y130624D01*
X134706Y81640D02*
X135000Y81500D01*
X134706Y130624D02*
X135000Y131500D01*
X135727Y184711D02*
X135727Y204100D01*
X144911Y213285D01*
X144911Y226551D01*
X135727Y235736D01*
X135727Y184711D02*
X135000Y184000D01*
X135727Y235736D02*
X135000Y236500D01*
X135727Y152055D02*
X135727Y131645D01*
X135727Y152055D02*
X144911Y161239D01*
X144911Y165321D02*
X144911Y174506D01*
X144911Y165321D02*
X144911Y161239D01*
X144911Y174506D02*
X135727Y183690D01*
X135727Y131645D02*
X135000Y131500D01*
X135727Y183690D02*
X135000Y184000D01*
X144911Y165321D02*
X437795Y165321D01*
X438464Y165412D01*
X135727Y282679D02*
X135727Y285740D01*
X135727Y282679D02*
X144911Y273494D01*
X144911Y245941D01*
X135727Y236756D01*
X135727Y285740D02*
X135000Y286500D01*
X135727Y236756D02*
X135000Y236500D01*
X466369Y783744D02*
X466369Y812318D01*
X466369Y783744D02*
X466369Y765375D01*
X466000Y765000D01*
X466369Y812318D02*
X466000Y812500D01*
X466369Y783744D02*
X415344Y783744D01*
X415000Y784000D01*
X569439Y787826D02*
X571480Y787826D01*
X569439Y787826D02*
X565357Y791908D01*
X525558Y791908D01*
X488820Y755170D01*
X475553Y755170D01*
X466369Y764355D01*
X571480Y787826D02*
X571818Y787525D01*
X466369Y764355D02*
X466000Y765000D01*
X393913Y913348D02*
X373503Y913348D01*
X393913Y913348D02*
X412282Y913348D01*
X373503Y913348D02*
X371462Y911307D01*
X412282Y913348D02*
X412500Y914000D01*
X371462Y911307D02*
X371400Y910400D01*
X371462Y780683D02*
X377585Y780683D01*
X393913Y797011D01*
X393913Y803134D02*
X393913Y913348D01*
X393913Y803134D02*
X393913Y797011D01*
X371462Y780683D02*
X371400Y780400D01*
X406159Y792929D02*
X414323Y784765D01*
X406159Y792929D02*
X405139Y792929D01*
X394934Y803134D02*
X393913Y803134D01*
X414323Y784765D02*
X415000Y784000D01*
X414323Y634751D02*
X389831Y634751D01*
X374524Y650059D01*
X414323Y634751D02*
X415000Y634000D01*
X374524Y650059D02*
X373900Y650400D01*
X371462Y413303D02*
X379626Y413303D01*
X382688Y416364D01*
X382688Y422487D01*
X382177Y422997D02*
X361257Y443918D01*
X382177Y422997D02*
X382688Y422487D01*
X361257Y443918D02*
X320437Y443918D01*
X371250Y413250D02*
X371462Y413303D01*
X320437Y443918D02*
X320000Y444000D01*
X324519Y323499D02*
X327581Y323499D01*
X358196Y354114D01*
X370442Y354114D01*
X324519Y323499D02*
X323500Y322500D01*
X370442Y354114D02*
X371250Y354750D01*
X252064Y406159D02*
X252064Y417385D01*
X252064Y406159D02*
X290843Y367380D01*
X290843Y342888D01*
X310232Y323499D01*
X323499Y323499D01*
X252064Y417385D02*
X251125Y418250D01*
X323499Y323499D02*
X323500Y322500D01*
X326560Y284720D02*
X326560Y276556D01*
X326560Y284720D02*
X254105Y357175D01*
X246961Y357175D01*
X235736Y368401D01*
X235736Y371462D01*
X224510Y382688D01*
X221449Y382688D01*
X215326Y388811D01*
X215326Y421467D01*
X222469Y428610D01*
X240838Y428610D01*
X251043Y418405D01*
X326560Y276556D02*
X327500Y276500D01*
X251125Y418250D02*
X251043Y418405D01*
X382688Y423508D02*
X391872Y423508D01*
X400036Y431672D01*
X406159Y431672D01*
X410241Y427590D01*
X410241Y402077D01*
X405139Y396975D01*
X405139Y378606D01*
X381667Y355134D01*
X371462Y355134D01*
X382177Y422997D02*
X382688Y423508D01*
X371462Y355134D02*
X371250Y354750D01*
X315335Y575562D02*
X381667Y641895D01*
X315335Y575562D02*
X315335Y517394D01*
X291863Y493922D01*
X291863Y472492D01*
X319417Y444938D01*
X381667Y641895D02*
X373900Y650400D01*
X319417Y444938D02*
X320000Y444000D01*
X425549Y644956D02*
X425549Y757211D01*
X425549Y644956D02*
X415344Y634751D01*
X415000Y634000D01*
X551070Y196957D02*
X596993Y196957D01*
X551070Y196957D02*
X503107Y244920D01*
X358196Y244920D01*
X327581Y275535D01*
X596993Y196957D02*
X597500Y196500D01*
X327581Y275535D02*
X327500Y276500D01*
D41*
X405139Y792929D03*
X394934Y803134D03*
X425549Y757211D03*
D40*
X681694Y200018D02*
X706186Y200018D01*
X681694Y200018D02*
X681500Y200000D01*
X706186Y200018D02*
X707000Y200000D01*
X642915Y55107D02*
X615362Y55107D01*
X642915Y55107D02*
X643500Y55000D01*
X615362Y55107D02*
X614900Y55000D01*
X255125Y883753D02*
X170424Y883753D01*
X255125Y883753D02*
X256146Y884774D01*
X170424Y883753D02*
X170000Y883500D01*
X256146Y884774D02*
X257100Y885000D01*
X140829Y854159D02*
X68374Y854159D01*
X140829Y854159D02*
X169403Y882733D01*
X68374Y854159D02*
X68300Y853700D01*
X169403Y882733D02*
X170000Y883500D01*
X615362Y809257D02*
X615362Y807216D01*
X578624Y770478D01*
X362278Y380647D02*
X357175Y375544D01*
X362278Y380647D02*
X370442Y380647D01*
X615362Y809257D02*
X615554Y810152D01*
X371250Y380750D02*
X370442Y380647D01*
D41*
X578624Y770478D03*
X357175Y375544D03*
D40*
X134706Y368401D02*
X71435Y368401D01*
X134706Y368401D02*
X135000Y368500D01*
X71435Y368401D02*
X70800Y368700D01*
X532701Y771498D02*
X554132Y771498D01*
X554848Y770554D01*
D41*
X532701Y771498D03*
D40*
X240838Y738842D02*
X170424Y738842D01*
X240838Y738842D02*
X256146Y754150D01*
X170424Y738842D02*
X170000Y738500D01*
X256146Y754150D02*
X257100Y755000D01*
X157157Y751088D02*
X68374Y751088D01*
X157157Y751088D02*
X169403Y738842D01*
X68374Y751088D02*
X68300Y752100D01*
X169403Y738842D02*
X170000Y738500D01*
X593931Y709248D02*
X593931Y615362D01*
X474533Y495963D01*
X403098Y424528D02*
X379626Y401057D01*
X371462Y401057D01*
X593931Y709248D02*
X594446Y709848D01*
X371462Y401057D02*
X371250Y400250D01*
D41*
X474533Y495963D03*
X403098Y424528D03*
D40*
X616382Y674551D02*
X616382Y709248D01*
X616382Y674551D02*
X728637Y562296D01*
X733740Y562296D01*
X818441Y477594D01*
X818441Y425549D01*
X807216Y414323D01*
X804154Y414323D01*
X671489Y281658D01*
X671489Y245941D01*
X668428Y242879D01*
X511271Y242879D01*
X505148Y249002D01*
X393913Y249002D01*
X329622Y313294D01*
X314314Y313294D01*
X261248Y366360D01*
X261248Y371462D01*
X250023Y382688D01*
X246961Y382688D01*
X235736Y393913D01*
X235736Y408200D01*
X226551Y417385D01*
X615554Y709848D02*
X616382Y709248D01*
X226551Y417385D02*
X225725Y418250D01*
X621485Y712309D02*
X621485Y715371D01*
X621485Y712309D02*
X625567Y708227D01*
X625567Y675571D01*
X625567Y636792D02*
X484738Y495963D01*
X417385Y428610D02*
X417385Y399016D01*
X412282Y393913D01*
X621211Y715505D02*
X621485Y715371D01*
D41*
X625567Y675571D03*
X625567Y636792D03*
X484738Y495963D03*
X417385Y428610D03*
X412282Y393913D03*
D40*
X403098Y615362D02*
X389831Y615362D01*
X403098Y615362D02*
X414323Y615362D01*
X389831Y615362D02*
X374524Y600054D01*
X414323Y615362D02*
X415000Y616000D01*
X374524Y600054D02*
X373900Y599600D01*
X652100Y770478D02*
X654141Y770478D01*
X652100Y770478D02*
X644956Y763334D01*
X654141Y770478D02*
X655152Y770554D01*
D41*
X644956Y763334D03*
X403098Y615362D03*
D40*
X407180Y765375D02*
X414323Y765375D01*
X407180Y765375D02*
X371462Y729658D01*
X414323Y765375D02*
X415000Y766000D01*
X371462Y729658D02*
X371400Y729600D01*
X645977Y775580D02*
X649038Y775580D01*
X645977Y775580D02*
X629649Y759252D01*
X499025Y759252D01*
X490861Y751088D01*
X441877Y751088D01*
X427590Y765375D01*
X415344Y765375D01*
X649038Y775580D02*
X649495Y776211D01*
X415344Y765375D02*
X415000Y766000D01*
X718432Y871507D02*
X791908Y871507D01*
X797011Y876610D01*
X718432Y871507D02*
X717500Y871500D01*
X797011Y876610D02*
X797500Y877500D01*
X563316Y775580D02*
X561275Y775580D01*
X563316Y775580D02*
X567398Y771498D01*
X569439Y771498D01*
X605157Y807216D01*
X605157Y822523D01*
X653120Y870487D01*
X717412Y870487D01*
X561275Y775580D02*
X560505Y776211D01*
X717412Y870487D02*
X717500Y871500D01*
X663325Y253084D02*
X500045Y253084D01*
X419426Y333704D01*
X380136Y372993D02*
X379626Y373503D01*
X380136Y372993D02*
X384729Y368401D01*
X379626Y373503D02*
X371462Y373503D01*
X663325Y253084D02*
X663500Y252500D01*
X371462Y373503D02*
X371250Y374250D01*
X591890Y810277D02*
X593931Y810277D01*
X591890Y810277D02*
X524537Y877630D01*
X448000Y877630D01*
X401057Y830687D01*
X401057Y412282D02*
X401057Y393913D01*
X380136Y372993D01*
X593931Y810277D02*
X594446Y810152D01*
D41*
X419426Y333704D03*
X384729Y368401D03*
X401057Y830687D03*
X401057Y412282D03*
D40*
X621485Y805175D02*
X621485Y807216D01*
X625567Y811298D01*
X625567Y814359D01*
X616382Y823544D01*
X470451Y868446D02*
X470451Y870487D01*
X470451Y868446D02*
X397995Y795990D01*
X397995Y772519D01*
X369421Y743945D01*
X351052Y743945D01*
X311253Y704145D01*
X311253Y519435D01*
X287781Y495963D01*
X287781Y427590D01*
X327581Y387790D01*
X370442Y387790D01*
X621211Y804495D02*
X621485Y805175D01*
X370442Y387790D02*
X371250Y387250D01*
D41*
X616382Y823544D03*
X470451Y870487D03*
D40*
X340847Y381667D02*
X317376Y381667D01*
X340847Y381667D02*
X354114Y368401D01*
X370442Y368401D01*
X317376Y381667D02*
X316500Y382500D01*
X370442Y368401D02*
X371250Y367750D01*
X626587Y795990D02*
X626587Y798031D01*
X626587Y795990D02*
X622505Y791908D01*
X622505Y785785D01*
X410241Y598013D02*
X403098Y605157D01*
X410241Y598013D02*
X410241Y529640D01*
X332683Y452082D01*
X292884Y412282D02*
X292884Y406159D01*
X316355Y382688D01*
X626587Y798031D02*
X626868Y798839D01*
X316355Y382688D02*
X316500Y382500D01*
D41*
X622505Y785785D03*
X403098Y605157D03*
X332683Y452082D03*
X292884Y412282D03*
D40*
X413303Y897020D02*
X413303Y900081D01*
X421977Y908755D02*
X422487Y909266D01*
X421977Y908755D02*
X413303Y900081D01*
X422487Y909266D02*
X422487Y918450D01*
X416364Y924573D01*
X351052Y924573D01*
X349011Y922532D01*
X349011Y881712D01*
X370442Y860282D01*
X412500Y896000D02*
X413303Y897020D01*
X371400Y859600D02*
X370442Y860282D01*
X640874Y781703D02*
X642915Y781703D01*
X640874Y781703D02*
X636792Y777621D01*
X595972Y777621D01*
X438815Y891917D02*
X421977Y908755D01*
X642915Y781703D02*
X643839Y781868D01*
D41*
X595972Y777621D03*
X438815Y891917D03*
D40*
X718432Y622505D02*
X792929Y622505D01*
X797011Y626587D01*
X718432Y622505D02*
X717500Y621500D01*
X797011Y626587D02*
X797500Y627500D01*
X640874Y787826D02*
X638833Y787826D01*
X640874Y787826D02*
X644956Y791908D01*
X648018Y791908D01*
X708227Y731699D01*
X708227Y631690D01*
X717412Y622505D01*
X638833Y787826D02*
X638182Y787525D01*
X717412Y622505D02*
X717500Y621500D01*
X718432Y747006D02*
X791908Y747006D01*
X797011Y752109D01*
X718432Y747006D02*
X717500Y746500D01*
X797011Y752109D02*
X797500Y752500D01*
X635772Y793949D02*
X632710Y793949D01*
X635772Y793949D02*
X639854Y798031D01*
X666387Y798031D01*
X717412Y747006D01*
X632525Y793182D02*
X632710Y793949D01*
X717412Y747006D02*
X717500Y746500D01*
X134706Y268392D02*
X72456Y268392D01*
X71435Y267371D01*
X134706Y268392D02*
X135000Y268500D01*
X71435Y267371D02*
X70800Y267100D01*
X517394Y700063D02*
X560255Y742924D01*
X403098Y594952D02*
X299007Y490861D01*
X227572Y452082D02*
X227572Y448000D01*
X197977Y418405D01*
X197977Y322478D01*
X560255Y742924D02*
X560505Y743789D01*
D41*
X517394Y700063D03*
X403098Y594952D03*
X299007Y490861D03*
X227572Y452082D03*
X197977Y322478D03*
D40*
X134706Y318396D02*
X71435Y318396D01*
X134706Y318396D02*
X135000Y318500D01*
X71435Y318396D02*
X70800Y317900D01*
X494943Y749047D02*
X554132Y749047D01*
X494943Y749047D02*
X492902Y747006D01*
X432692Y747006D01*
X383708Y797011D02*
X354114Y797011D01*
X307171Y750068D01*
X307171Y521476D01*
X208182Y422487D01*
X208182Y326560D01*
X554132Y749047D02*
X554848Y749446D01*
D41*
X432692Y747006D03*
X383708Y797011D03*
X208182Y326560D03*
D40*
X173485Y611280D02*
X245941Y611280D01*
X259207Y624546D01*
X173485Y611280D02*
X172500Y611000D01*
X259207Y624546D02*
X259600Y625000D01*
X120419Y650059D02*
X68374Y650059D01*
X120419Y650059D02*
X159198Y611280D01*
X172465Y611280D01*
X68374Y650059D02*
X68300Y650500D01*
X172465Y611280D02*
X172500Y611000D01*
X482697Y814359D02*
X482697Y850077D01*
X482697Y814359D02*
X483717Y813339D01*
X482697Y850077D02*
X482500Y851000D01*
X483717Y813339D02*
X484000Y812500D01*
X585767Y805175D02*
X587808Y805175D01*
X585767Y805175D02*
X576583Y814359D01*
X566378Y814359D02*
X483717Y814359D01*
X566378Y814359D02*
X576583Y814359D01*
X587808Y805175D02*
X588789Y804495D01*
X484000Y812500D02*
X483717Y814359D01*
X718432Y853138D02*
X797011Y853138D01*
X718432Y853138D02*
X717500Y853500D01*
X797011Y853138D02*
X797500Y852500D01*
X797011Y727617D02*
X718432Y727617D01*
X717500Y728500D01*
X797011Y727617D02*
X797500Y727500D01*
X631690Y727617D02*
X631690Y730678D01*
X628628Y733740D01*
X628628Y736801D01*
X634751Y742924D01*
X638833Y742924D01*
X642915Y738842D01*
X631690Y727617D02*
X632525Y726818D01*
X642915Y738842D02*
X643839Y738132D01*
X718432Y603116D02*
X797011Y603116D01*
X718432Y603116D02*
X717500Y603500D01*
X797011Y603116D02*
X797500Y602500D01*
X639854Y742924D02*
X639854Y748027D01*
X651079Y759252D01*
X654141Y759252D01*
X704145Y709248D01*
X704145Y617403D01*
X717412Y604136D01*
X643839Y738132D02*
X639854Y742924D01*
X717412Y604136D02*
X717500Y603500D01*
X299007Y381667D02*
X299007Y350032D01*
X298500Y350000D01*
X299007Y381667D02*
X298500Y382500D01*
X297986Y382688D02*
X285740Y382688D01*
X297986Y382688D02*
X298500Y382500D01*
X663325Y198998D02*
X663325Y179608D01*
X598013Y114296D01*
X663325Y198998D02*
X663500Y200000D01*
X598013Y114296D02*
X597500Y113500D01*
X466369Y637813D02*
X466369Y691899D01*
X466369Y637813D02*
X466000Y637500D01*
X466369Y691899D02*
X466000Y692500D01*
X443918Y367380D02*
X443918Y361257D01*
X443750Y361250D01*
X443918Y367380D02*
X443750Y367750D01*
X566378Y431672D02*
X602095Y431672D01*
X566378Y431672D02*
X558214Y439836D01*
X493922Y439836D02*
X490861Y439836D01*
X493922Y439836D02*
X558214Y439836D01*
X490861Y439836D02*
X452082Y401057D01*
X443918Y401057D01*
X602095Y431672D02*
X602500Y431500D01*
X443918Y401057D02*
X443750Y400250D01*
X442897Y335745D02*
X435754Y335745D01*
X428610Y342888D01*
X428610Y377585D02*
X428610Y392893D01*
X428610Y377585D02*
X428610Y342888D01*
X428610Y392893D02*
X435754Y400036D01*
X442897Y400036D01*
X442897Y335745D02*
X443750Y335250D01*
X442897Y400036D02*
X443750Y400250D01*
X443918Y420446D02*
X443918Y424528D01*
X478615Y459225D01*
X478615Y479635D01*
X479125Y480145D02*
X480656Y481676D01*
X479125Y480145D02*
X478615Y479635D01*
X480656Y481676D02*
X491881Y481676D01*
X493922Y479635D01*
X493922Y439836D01*
X443918Y420446D02*
X443750Y419750D01*
X444938Y367380D02*
X457184Y367380D01*
X444938Y367380D02*
X443750Y367750D01*
X456164Y202059D02*
X456164Y166342D01*
X455482Y165412D01*
X466369Y492902D02*
X466369Y636792D01*
X466369Y492902D02*
X479125Y480145D01*
X466369Y636792D02*
X466000Y637500D01*
X373503Y134706D02*
X332683Y134706D01*
X332500Y135000D01*
X561275Y114296D02*
X596993Y114296D01*
X597500Y113500D01*
X483717Y777621D02*
X483717Y812318D01*
X467389Y705166D02*
X467389Y691899D01*
X483717Y812318D02*
X484000Y812500D01*
X466000Y692500D02*
X467389Y691899D01*
D41*
X566378Y814359D03*
X285740Y382688D03*
X457184Y367380D03*
X428610Y377585D03*
X456164Y202059D03*
X373503Y134706D03*
X561275Y114296D03*
X483717Y777621D03*
X467389Y705166D03*
D40*
X504127Y472492D02*
X701084Y472492D01*
X718432Y455143D01*
X782724Y455143D01*
X808236Y429631D01*
X504127Y472492D02*
X504000Y472500D01*
X808236Y429631D02*
X808400Y429450D01*
X471471Y463307D02*
X462287Y472492D01*
X471471Y463307D02*
X471471Y462287D01*
X462287Y472492D02*
X461500Y472500D01*
D41*
X471471Y462287D03*
D40*
X370442Y419426D02*
X323499Y419426D01*
X320437Y416364D01*
X370442Y419426D02*
X371250Y419750D01*
X320437Y416364D02*
X320000Y416000D01*
X317376Y350032D02*
X347991Y350032D01*
X358196Y360237D01*
X370442Y360237D01*
X317376Y350032D02*
X316500Y350000D01*
X370442Y360237D02*
X371250Y361250D01*
X359216Y323499D02*
X341868Y323499D01*
X359216Y323499D02*
X370442Y334724D01*
X341868Y323499D02*
X341500Y322500D01*
X370442Y334724D02*
X371250Y335250D01*
X504127Y393913D02*
X504127Y412282D01*
X504127Y393913D02*
X504127Y368401D01*
X504127Y412282D02*
X511271Y419426D01*
X504127Y368401D02*
X503500Y367500D01*
X511271Y419426D02*
X511500Y420000D01*
X504127Y393913D02*
X443918Y393913D01*
X443750Y393750D01*
X498004Y340847D02*
X503107Y340847D01*
X498004Y340847D02*
X452082Y386770D01*
X443918Y386770D01*
X503107Y340847D02*
X503500Y340000D01*
X443918Y386770D02*
X443750Y387250D01*
X548009Y409221D02*
X548009Y419426D01*
X548009Y409221D02*
X511271Y372483D01*
X511271Y350032D01*
X503107Y341868D01*
X548009Y419426D02*
X548500Y420000D01*
X503107Y341868D02*
X503500Y340000D01*
X603116Y376565D02*
X603116Y413303D01*
X603116Y376565D02*
X602500Y376500D01*
X603116Y413303D02*
X602500Y413500D01*
X522496Y326560D02*
X522496Y315335D01*
X522496Y326560D02*
X550050Y354114D01*
X550050Y366360D01*
X559234Y375544D01*
X522496Y315335D02*
X521500Y315000D01*
X559234Y375544D02*
X560000Y376500D01*
X560255Y376565D02*
X602095Y376565D01*
X602500Y376500D01*
X560255Y376565D02*
X560000Y376500D01*
X631690Y357175D02*
X663325Y357175D01*
X631690Y357175D02*
X612300Y376565D01*
X604136Y376565D01*
X663325Y357175D02*
X664300Y356800D01*
X604136Y376565D02*
X602500Y376500D01*
X543927Y287781D02*
X522496Y287781D01*
X543927Y287781D02*
X559234Y303089D01*
X522496Y287781D02*
X521500Y287500D01*
X559234Y303089D02*
X560000Y303500D01*
X560255Y304109D02*
X602095Y304109D01*
X602500Y303500D01*
X560255Y304109D02*
X560000Y303500D01*
X688838Y361257D02*
X688838Y369421D01*
X688838Y361257D02*
X669448Y341868D01*
X660264Y341868D01*
X652100Y333704D01*
X652100Y325540D01*
X630669Y304109D01*
X603116Y304109D01*
X688838Y369421D02*
X689700Y369600D01*
X603116Y304109D02*
X602500Y303500D01*
X603116Y358196D02*
X624546Y358196D01*
X635772Y346970D01*
X668428Y346970D01*
X679653Y358196D01*
X679653Y373503D01*
X685776Y379626D01*
X693940Y379626D01*
X700063Y373503D01*
X700063Y329622D01*
X689858Y319417D01*
X603116Y358196D02*
X602500Y358500D01*
X689858Y319417D02*
X689700Y318800D01*
X469430Y347991D02*
X443918Y347991D01*
X469430Y347991D02*
X492902Y324519D01*
X443918Y347991D02*
X443750Y348250D01*
D41*
X492902Y324519D03*
D40*
X559234Y337786D02*
X559234Y358196D01*
X559234Y337786D02*
X518414Y296966D01*
X516373Y296966D01*
X511271Y291863D01*
X511271Y280638D01*
X510760Y280127D02*
X508209Y277576D01*
X510760Y280127D02*
X511271Y280638D01*
X508209Y277576D02*
X499025Y277576D01*
X455143Y321458D01*
X455143Y337786D01*
X452082Y340847D01*
X443918Y340847D01*
X559234Y358196D02*
X560000Y358500D01*
X443918Y340847D02*
X443750Y341750D01*
X610259Y277576D02*
X663325Y330642D01*
X610259Y277576D02*
X513312Y277576D01*
X510760Y280127D01*
X663325Y330642D02*
X664300Y331400D01*
X614341Y321458D02*
X603116Y321458D01*
X602500Y321500D01*
X381667Y349011D02*
X371462Y349011D01*
X381667Y349011D02*
X424528Y391872D01*
X424528Y399016D01*
X426569Y401057D01*
X371462Y349011D02*
X371250Y348250D01*
D41*
X614341Y321458D03*
X426569Y401057D03*
D40*
X560255Y322478D02*
X588829Y322478D01*
X594952Y328601D01*
X644956Y328601D01*
X560255Y322478D02*
X560000Y321500D01*
X423508Y340847D02*
X371462Y340847D01*
X423508Y340847D02*
X490861Y273494D01*
X620464Y273494D01*
X688838Y341868D01*
X688838Y343909D01*
X371462Y340847D02*
X371250Y341750D01*
X688838Y343909D02*
X689700Y344200D01*
D41*
X644956Y328601D03*
D40*
X485758Y446979D02*
X485758Y472492D01*
X485758Y446979D02*
X452082Y413303D01*
X443918Y413303D01*
X485758Y472492D02*
X486000Y472500D01*
X443918Y413303D02*
X443750Y413250D01*
X442897Y433713D02*
X442897Y472492D01*
X442897Y433713D02*
X432692Y423508D01*
X432692Y410241D01*
X435754Y407180D01*
X442897Y407180D01*
X442897Y472492D02*
X443500Y472500D01*
X442897Y407180D02*
X443750Y406750D01*
X484738Y765375D02*
X492902Y765375D01*
X525558Y798031D01*
X572501Y798031D01*
X576583Y793949D01*
X484738Y765375D02*
X484000Y765000D01*
X576583Y793949D02*
X577475Y793182D01*
X517394Y869466D02*
X482697Y869466D01*
X482500Y869000D01*
X517394Y869466D02*
X517500Y869000D01*
X574542Y726596D02*
X576583Y726596D01*
X574542Y726596D02*
X568419Y720473D01*
X564337Y720473D01*
X475553Y802113D02*
X475553Y842933D01*
X472492Y845995D01*
X472492Y859261D01*
X481676Y868446D01*
X576583Y726596D02*
X577475Y726818D01*
X481676Y868446D02*
X482500Y869000D01*
D41*
X564337Y720473D03*
X475553Y802113D03*
D40*
X681694Y253084D02*
X706186Y253084D01*
X681694Y253084D02*
X681500Y252500D01*
X706186Y253084D02*
X707000Y252500D01*
X587808Y712309D02*
X587808Y715371D01*
X587808Y712309D02*
X584747Y709248D01*
X584747Y636792D01*
X701084Y520455D02*
X721494Y500045D01*
X588789Y715505D02*
X587808Y715371D01*
X721494Y500045D02*
X722500Y499800D01*
D41*
X584747Y636792D03*
X701084Y520455D03*
D40*
X134706Y166342D02*
X71435Y166342D01*
X134706Y166342D02*
X135000Y166000D01*
X71435Y166342D02*
X70800Y165500D01*
X484738Y637813D02*
X484738Y651079D01*
X491371Y657712D02*
X561275Y727617D01*
X491371Y657712D02*
X484738Y651079D01*
X561275Y727617D02*
X567398Y727617D01*
X571480Y731699D01*
X484738Y637813D02*
X484000Y637500D01*
X571480Y731699D02*
X571818Y732475D01*
X71435Y185731D02*
X71435Y167362D01*
X71435Y185731D02*
X38779Y218387D01*
X38779Y468410D01*
X55107Y484738D01*
X185731Y484738D01*
X391872Y624546D02*
X420446Y624546D01*
X458205Y662305D01*
X458205Y706186D01*
X464328Y712309D01*
X470451Y712309D01*
X476574Y706186D01*
X476574Y672510D01*
X491371Y657712D01*
X71435Y167362D02*
X70800Y165500D01*
D41*
X185731Y484738D03*
X391872Y624546D03*
D40*
X491881Y692920D02*
X520455Y692920D01*
X491881Y692920D02*
X484738Y692920D01*
X520455Y692920D02*
X565357Y737822D01*
X484738Y692920D02*
X484000Y692500D01*
X565357Y737822D02*
X566161Y738132D01*
X134706Y218387D02*
X73476Y218387D01*
X71435Y216346D01*
X134706Y218387D02*
X135000Y218500D01*
X71435Y216346D02*
X70800Y216300D01*
X491881Y668428D02*
X491881Y692920D01*
X45923Y379626D02*
X45923Y244920D01*
X72456Y218387D01*
X70800Y216300D01*
D41*
X491881Y668428D03*
X45923Y379626D03*
D40*
X655161Y747006D02*
X655161Y749047D01*
X655161Y747006D02*
X671489Y730678D01*
X671489Y670469D01*
X655161Y749047D02*
X655152Y749446D01*
X671489Y670469D02*
X672000Y660000D01*
X650059Y740883D02*
X650059Y742924D01*
X650059Y740883D02*
X654141Y736801D01*
X654141Y675571D01*
X649038Y670469D01*
X650059Y742924D02*
X649495Y743789D01*
X649038Y670469D02*
X648000Y660000D01*
X546988Y821503D02*
X518414Y850077D01*
X517500Y851000D01*
D41*
X546988Y821503D03*
D40*
X582706Y720473D02*
X582706Y718432D01*
X577603Y713330D01*
X577603Y618423D01*
X697002Y499025D02*
X721494Y474533D01*
X582706Y720473D02*
X583132Y721161D01*
X721494Y474533D02*
X722500Y474400D01*
D41*
X577603Y618423D03*
X697002Y499025D03*
D40*
X135727Y113276D02*
X135727Y95927D01*
X144911Y86743D01*
X144911Y76538D01*
X141850Y73476D01*
X112255Y73476D01*
X71435Y114296D01*
X135000Y113500D02*
X135727Y113276D01*
X71435Y114296D02*
X70800Y114700D01*
X582706Y799052D02*
X574542Y807216D01*
X573521Y807216D01*
X582706Y799052D02*
X583132Y798839D01*
D41*
X573521Y807216D03*
D40*
X134706Y63271D02*
X71435Y63271D01*
X134706Y63271D02*
X135000Y63500D01*
X71435Y63271D02*
X70800Y63900D01*
X562296Y782724D02*
X565357Y782724D01*
X562296Y782724D02*
X559234Y785785D01*
X529640Y785785D01*
X528619Y784765D01*
X78579Y559234D02*
X34697Y515353D01*
X34697Y100009D01*
X70415Y64292D01*
X566161Y781868D02*
X565357Y782724D01*
X70415Y64292D02*
X70800Y63900D01*
D41*
X528619Y784765D03*
X78579Y559234D03*
D40*
X489840Y217367D02*
X489840Y166342D01*
X489840Y217367D02*
X491881Y219408D01*
X489840Y166342D02*
X489518Y165412D01*
X491881Y219408D02*
X492000Y220000D01*
X488820Y165321D02*
X488820Y161239D01*
X474533Y146952D01*
X388811Y146952D01*
X380647Y138788D01*
X380647Y97968D01*
X332683Y50005D01*
X488820Y165321D02*
X489518Y165412D01*
X332683Y50005D02*
X332500Y50000D01*
X686797Y55107D02*
X739863Y55107D01*
X742924Y58169D01*
X805175Y58169D01*
X819462Y43882D01*
X686797Y55107D02*
X686500Y55000D01*
X819462Y43882D02*
X820000Y43000D01*
M02*
