G04 EAGLE Gerber RS-274X export*
G75*
%MOMM*%
%FSLAX34Y34*%
%LPD*%
%INBottom Copper*%
%IPPOS*%
%AMOC8*
5,1,8,0,0,1.08239X$1,22.5*%
G01*
%ADD10R,1.308000X1.308000*%
%ADD11C,1.308000*%
%ADD12C,2.095500*%
%ADD13C,2.100000*%
%ADD14C,1.524000*%
%ADD15C,0.127000*%
%ADD16C,0.101600*%
%ADD17P,1.649562X8X112.500000*%
%ADD18C,2.247900*%
%ADD19P,1.632244X8X22.500000*%
%ADD20C,0.203200*%
%ADD21C,0.756400*%


D10*
X251125Y418250D03*
X251125Y342050D03*
D11*
X251125Y392850D03*
X251125Y367450D03*
X225725Y367450D03*
X225725Y392850D03*
X225725Y418250D03*
X225725Y342050D03*
D12*
X78778Y904500D02*
X57823Y904500D01*
X57823Y853700D02*
X78778Y853700D01*
X78778Y650500D02*
X57823Y650500D01*
X57823Y802900D02*
X78778Y802900D01*
X78778Y752100D02*
X57823Y752100D01*
X57823Y701300D02*
X78778Y701300D01*
D13*
X722700Y285750D03*
X722700Y440650D03*
D11*
X808400Y429450D03*
X808400Y404050D03*
X808400Y322350D03*
X808400Y296950D03*
X664300Y407600D03*
X664300Y382200D03*
X664300Y356800D03*
X664300Y331400D03*
X689700Y395000D03*
X689700Y369600D03*
X689700Y344200D03*
X689700Y318800D03*
D14*
X714880Y550600D02*
X730120Y550600D01*
X730120Y525200D02*
X714880Y525200D01*
X714880Y499800D02*
X730120Y499800D01*
X730120Y474400D02*
X714880Y474400D01*
D15*
X177500Y76470D02*
X177500Y48530D01*
X174960Y48530D02*
X174960Y59960D01*
X166070Y51070D01*
X180040Y65040D02*
X188930Y73930D01*
X180040Y76470D02*
X180040Y65040D01*
X186390Y76471D02*
X186051Y76680D01*
X185707Y76881D01*
X185358Y77074D01*
X185005Y77258D01*
X184647Y77433D01*
X184285Y77600D01*
X183919Y77758D01*
X183549Y77907D01*
X183176Y78046D01*
X182799Y78177D01*
X182420Y78298D01*
X182037Y78411D01*
X181652Y78513D01*
X181265Y78607D01*
X180875Y78691D01*
X180484Y78765D01*
X180091Y78830D01*
X179696Y78885D01*
X179300Y78931D01*
X178903Y78967D01*
X178505Y78993D01*
X178107Y79010D01*
X177709Y79017D01*
X177310Y79014D01*
X176912Y79001D01*
X176514Y78979D01*
X176117Y78947D01*
X175720Y78906D01*
X175325Y78855D01*
X174931Y78794D01*
X174539Y78724D01*
X174149Y78644D01*
X173760Y78554D01*
X173374Y78455D01*
X172991Y78347D01*
X172610Y78230D01*
X172232Y78103D01*
X171857Y77967D01*
X171486Y77822D01*
X171118Y77668D01*
X170755Y77505D01*
X170395Y77333D01*
X170040Y77153D01*
X169689Y76964D01*
X169343Y76767D01*
X169001Y76561D01*
X168665Y76347D01*
X168335Y76124D01*
X168009Y75894D01*
X167690Y75656D01*
X167376Y75410D01*
X167068Y75157D01*
X166767Y74896D01*
X166472Y74628D01*
X166184Y74353D01*
X165902Y74071D01*
X165628Y73782D01*
X165360Y73486D01*
X165100Y73184D01*
X164847Y72876D01*
X164602Y72562D01*
X164365Y72242D01*
X164135Y71916D01*
X163914Y71585D01*
X163700Y71248D01*
X163495Y70907D01*
X163298Y70560D01*
X163110Y70209D01*
X162930Y69853D01*
X162759Y69493D01*
X162597Y69129D01*
X162444Y68761D01*
X162300Y68390D01*
X162165Y68015D01*
X162039Y67637D01*
X161922Y67256D01*
X161815Y66872D01*
X161717Y66485D01*
X161628Y66097D01*
X161549Y65706D01*
X161479Y65314D01*
X161420Y64920D01*
X161369Y64525D01*
X161328Y64128D01*
X161297Y63731D01*
X161276Y63333D01*
X161264Y62935D01*
X161262Y62536D01*
X161270Y62138D01*
X161288Y61739D01*
X161315Y61342D01*
X161352Y60945D01*
X161398Y60549D01*
X161454Y60155D01*
X161520Y59761D01*
X161595Y59370D01*
X161680Y58981D01*
X161774Y58593D01*
X161878Y58209D01*
X161991Y57826D01*
X162113Y57447D01*
X162244Y57071D01*
X162385Y56698D01*
X162535Y56329D01*
X162693Y55963D01*
X162861Y55601D01*
X163037Y55244D01*
X163222Y54891D01*
X163415Y54542D01*
X163617Y54199D01*
X163827Y53860D01*
X164045Y53527D01*
X164271Y53199D01*
X164506Y52876D01*
X164748Y52560D01*
X164997Y52249D01*
X165255Y51945D01*
X165519Y51646D01*
X165791Y51355D01*
X166070Y51070D01*
X168610Y48529D02*
X168949Y48320D01*
X169293Y48119D01*
X169642Y47926D01*
X169995Y47742D01*
X170353Y47567D01*
X170715Y47400D01*
X171081Y47242D01*
X171451Y47093D01*
X171824Y46954D01*
X172201Y46823D01*
X172580Y46702D01*
X172963Y46589D01*
X173348Y46487D01*
X173735Y46393D01*
X174125Y46309D01*
X174516Y46235D01*
X174909Y46170D01*
X175304Y46115D01*
X175700Y46069D01*
X176097Y46033D01*
X176495Y46007D01*
X176893Y45990D01*
X177291Y45983D01*
X177690Y45986D01*
X178088Y45999D01*
X178486Y46021D01*
X178883Y46053D01*
X179280Y46094D01*
X179675Y46145D01*
X180069Y46206D01*
X180461Y46276D01*
X180851Y46356D01*
X181240Y46446D01*
X181626Y46545D01*
X182009Y46653D01*
X182390Y46770D01*
X182768Y46897D01*
X183143Y47033D01*
X183514Y47178D01*
X183882Y47332D01*
X184245Y47495D01*
X184605Y47667D01*
X184960Y47847D01*
X185311Y48036D01*
X185657Y48233D01*
X185999Y48439D01*
X186335Y48653D01*
X186665Y48876D01*
X186991Y49106D01*
X187310Y49344D01*
X187624Y49590D01*
X187932Y49843D01*
X188233Y50104D01*
X188528Y50372D01*
X188816Y50647D01*
X189098Y50929D01*
X189372Y51218D01*
X189640Y51514D01*
X189900Y51816D01*
X190153Y52124D01*
X190398Y52438D01*
X190635Y52758D01*
X190865Y53084D01*
X191086Y53415D01*
X191300Y53752D01*
X191505Y54093D01*
X191702Y54440D01*
X191890Y54791D01*
X192070Y55147D01*
X192241Y55507D01*
X192403Y55871D01*
X192556Y56239D01*
X192700Y56610D01*
X192835Y56985D01*
X192961Y57363D01*
X193078Y57744D01*
X193185Y58128D01*
X193283Y58515D01*
X193372Y58903D01*
X193451Y59294D01*
X193521Y59686D01*
X193580Y60080D01*
X193631Y60475D01*
X193672Y60872D01*
X193703Y61269D01*
X193724Y61667D01*
X193736Y62065D01*
X193738Y62464D01*
X193730Y62862D01*
X193712Y63261D01*
X193685Y63658D01*
X193648Y64055D01*
X193602Y64451D01*
X193546Y64845D01*
X193480Y65239D01*
X193405Y65630D01*
X193320Y66019D01*
X193226Y66407D01*
X193122Y66791D01*
X193009Y67174D01*
X192887Y67553D01*
X192756Y67929D01*
X192615Y68302D01*
X192465Y68671D01*
X192307Y69037D01*
X192139Y69399D01*
X191963Y69756D01*
X191778Y70109D01*
X191585Y70458D01*
X191383Y70801D01*
X191173Y71140D01*
X190955Y71473D01*
X190729Y71801D01*
X190494Y72124D01*
X190252Y72440D01*
X190003Y72751D01*
X189745Y73055D01*
X189481Y73354D01*
X189209Y73645D01*
X188930Y73930D01*
D16*
X207444Y40402D02*
X207444Y28718D01*
X208742Y28718D02*
X206146Y28718D01*
X206146Y40402D02*
X208742Y40402D01*
X201545Y37156D02*
X201545Y31964D01*
X201546Y37156D02*
X201544Y37269D01*
X201538Y37382D01*
X201528Y37495D01*
X201514Y37608D01*
X201497Y37720D01*
X201475Y37831D01*
X201450Y37941D01*
X201420Y38051D01*
X201387Y38159D01*
X201350Y38266D01*
X201310Y38372D01*
X201265Y38476D01*
X201217Y38579D01*
X201166Y38680D01*
X201111Y38779D01*
X201053Y38876D01*
X200991Y38971D01*
X200926Y39064D01*
X200858Y39154D01*
X200787Y39242D01*
X200712Y39328D01*
X200635Y39411D01*
X200555Y39491D01*
X200472Y39568D01*
X200386Y39643D01*
X200298Y39714D01*
X200208Y39782D01*
X200115Y39847D01*
X200020Y39909D01*
X199923Y39967D01*
X199824Y40022D01*
X199723Y40073D01*
X199620Y40121D01*
X199516Y40166D01*
X199410Y40206D01*
X199303Y40243D01*
X199195Y40276D01*
X199085Y40306D01*
X198975Y40331D01*
X198864Y40353D01*
X198752Y40370D01*
X198639Y40384D01*
X198526Y40394D01*
X198413Y40400D01*
X198300Y40402D01*
X198187Y40400D01*
X198074Y40394D01*
X197961Y40384D01*
X197848Y40370D01*
X197736Y40353D01*
X197625Y40331D01*
X197515Y40306D01*
X197405Y40276D01*
X197297Y40243D01*
X197190Y40206D01*
X197084Y40166D01*
X196980Y40121D01*
X196877Y40073D01*
X196776Y40022D01*
X196677Y39967D01*
X196580Y39909D01*
X196485Y39847D01*
X196392Y39782D01*
X196302Y39714D01*
X196214Y39643D01*
X196128Y39568D01*
X196045Y39491D01*
X195965Y39411D01*
X195888Y39328D01*
X195813Y39242D01*
X195742Y39154D01*
X195674Y39064D01*
X195609Y38971D01*
X195547Y38876D01*
X195489Y38779D01*
X195434Y38680D01*
X195383Y38579D01*
X195335Y38476D01*
X195290Y38372D01*
X195250Y38266D01*
X195213Y38159D01*
X195180Y38051D01*
X195150Y37941D01*
X195125Y37831D01*
X195103Y37720D01*
X195086Y37608D01*
X195072Y37495D01*
X195062Y37382D01*
X195056Y37269D01*
X195054Y37156D01*
X195054Y31964D01*
X195056Y31851D01*
X195062Y31738D01*
X195072Y31625D01*
X195086Y31512D01*
X195103Y31400D01*
X195125Y31289D01*
X195150Y31179D01*
X195180Y31069D01*
X195213Y30961D01*
X195250Y30854D01*
X195290Y30748D01*
X195335Y30644D01*
X195383Y30541D01*
X195434Y30440D01*
X195489Y30341D01*
X195547Y30244D01*
X195609Y30149D01*
X195674Y30056D01*
X195742Y29966D01*
X195813Y29878D01*
X195888Y29792D01*
X195965Y29709D01*
X196045Y29629D01*
X196128Y29552D01*
X196214Y29477D01*
X196302Y29406D01*
X196392Y29338D01*
X196485Y29273D01*
X196580Y29211D01*
X196677Y29153D01*
X196776Y29098D01*
X196877Y29047D01*
X196980Y28999D01*
X197084Y28954D01*
X197190Y28914D01*
X197297Y28877D01*
X197405Y28844D01*
X197515Y28814D01*
X197625Y28789D01*
X197736Y28767D01*
X197848Y28750D01*
X197961Y28736D01*
X198074Y28726D01*
X198187Y28720D01*
X198300Y28718D01*
X198413Y28720D01*
X198526Y28726D01*
X198639Y28736D01*
X198752Y28750D01*
X198864Y28767D01*
X198975Y28789D01*
X199085Y28814D01*
X199195Y28844D01*
X199303Y28877D01*
X199410Y28914D01*
X199516Y28954D01*
X199620Y28999D01*
X199723Y29047D01*
X199824Y29098D01*
X199923Y29153D01*
X200020Y29211D01*
X200115Y29273D01*
X200208Y29338D01*
X200298Y29406D01*
X200386Y29477D01*
X200472Y29552D01*
X200555Y29629D01*
X200635Y29709D01*
X200712Y29792D01*
X200787Y29878D01*
X200858Y29966D01*
X200926Y30056D01*
X200991Y30149D01*
X201053Y30244D01*
X201111Y30341D01*
X201166Y30440D01*
X201217Y30541D01*
X201265Y30644D01*
X201310Y30748D01*
X201350Y30854D01*
X201387Y30961D01*
X201420Y31069D01*
X201450Y31179D01*
X201475Y31289D01*
X201497Y31400D01*
X201514Y31512D01*
X201528Y31625D01*
X201538Y31738D01*
X201544Y31851D01*
X201546Y31964D01*
X187632Y28718D02*
X187632Y40402D01*
X190877Y40402D02*
X184386Y40402D01*
X179806Y28718D02*
X174613Y28718D01*
X179806Y28718D02*
X179806Y40402D01*
X174613Y40402D01*
X175911Y35209D02*
X179806Y35209D01*
X167740Y28718D02*
X165144Y28718D01*
X167740Y28718D02*
X167839Y28720D01*
X167939Y28726D01*
X168038Y28735D01*
X168136Y28748D01*
X168234Y28765D01*
X168332Y28786D01*
X168428Y28811D01*
X168523Y28839D01*
X168617Y28871D01*
X168710Y28906D01*
X168802Y28945D01*
X168892Y28988D01*
X168980Y29033D01*
X169067Y29083D01*
X169151Y29135D01*
X169234Y29191D01*
X169314Y29249D01*
X169392Y29311D01*
X169467Y29376D01*
X169540Y29444D01*
X169610Y29514D01*
X169678Y29587D01*
X169743Y29662D01*
X169805Y29740D01*
X169863Y29820D01*
X169919Y29903D01*
X169971Y29987D01*
X170021Y30074D01*
X170066Y30162D01*
X170109Y30252D01*
X170148Y30344D01*
X170183Y30437D01*
X170215Y30531D01*
X170243Y30626D01*
X170268Y30722D01*
X170289Y30820D01*
X170306Y30918D01*
X170319Y31016D01*
X170328Y31115D01*
X170334Y31215D01*
X170336Y31314D01*
X170337Y31314D02*
X170337Y37806D01*
X170336Y37806D02*
X170334Y37905D01*
X170328Y38005D01*
X170319Y38104D01*
X170306Y38202D01*
X170289Y38300D01*
X170268Y38398D01*
X170243Y38494D01*
X170215Y38589D01*
X170183Y38683D01*
X170148Y38776D01*
X170109Y38868D01*
X170066Y38958D01*
X170021Y39046D01*
X169971Y39133D01*
X169919Y39217D01*
X169863Y39300D01*
X169805Y39380D01*
X169743Y39458D01*
X169678Y39533D01*
X169610Y39606D01*
X169540Y39676D01*
X169467Y39744D01*
X169392Y39809D01*
X169314Y39871D01*
X169234Y39929D01*
X169151Y39985D01*
X169067Y40037D01*
X168980Y40087D01*
X168892Y40132D01*
X168802Y40175D01*
X168710Y40214D01*
X168617Y40249D01*
X168523Y40281D01*
X168428Y40309D01*
X168332Y40334D01*
X168234Y40355D01*
X168136Y40372D01*
X168038Y40385D01*
X167939Y40394D01*
X167839Y40400D01*
X167740Y40402D01*
X165144Y40402D01*
X160397Y40402D02*
X160397Y28718D01*
X160397Y35209D02*
X153906Y35209D01*
X153906Y40402D02*
X153906Y28718D01*
D17*
X814946Y209894D03*
X814946Y255106D03*
D18*
X790054Y197448D03*
X790054Y267552D03*
D14*
X789880Y652500D02*
X805120Y652500D01*
X805120Y627500D02*
X789880Y627500D01*
X789880Y602500D02*
X805120Y602500D01*
X805120Y777500D02*
X789880Y777500D01*
X789880Y752500D02*
X805120Y752500D01*
X805120Y727500D02*
X789880Y727500D01*
X789880Y902500D02*
X805120Y902500D01*
X805120Y877500D02*
X789880Y877500D01*
X789880Y852500D02*
X805120Y852500D01*
D12*
X81278Y521100D02*
X60323Y521100D01*
X60323Y470300D02*
X81278Y470300D01*
X81278Y63900D02*
X60323Y63900D01*
X60323Y419500D02*
X81278Y419500D01*
X81278Y368700D02*
X60323Y368700D01*
X60323Y114700D02*
X81278Y114700D01*
X81278Y317900D02*
X60323Y317900D01*
X60323Y267100D02*
X81278Y267100D01*
X81278Y165500D02*
X60323Y165500D01*
X60323Y216300D02*
X81278Y216300D01*
D19*
X599600Y887300D03*
X599600Y912700D03*
X625000Y887300D03*
X625000Y912700D03*
X650400Y887300D03*
X650400Y912700D03*
D20*
X139809Y169403D02*
X139809Y148993D01*
X139809Y169403D02*
X144911Y174506D01*
X798031Y653120D02*
X798031Y694961D01*
X827626Y724555D01*
X827626Y747006D01*
X798031Y776601D01*
X798031Y653120D02*
X797500Y652500D01*
X798031Y776601D02*
X797500Y777500D01*
X798031Y777621D02*
X798031Y829667D01*
X816400Y848036D01*
X816400Y883753D01*
X798031Y902122D01*
X798031Y777621D02*
X797500Y777500D01*
X798031Y902122D02*
X797500Y902500D01*
X722514Y524537D02*
X740883Y506168D01*
X740883Y458205D01*
X740373Y457694D02*
X723535Y440856D01*
X740373Y457694D02*
X740883Y458205D01*
X722514Y524537D02*
X722500Y525200D01*
X723535Y440856D02*
X722700Y440650D01*
X740883Y457184D02*
X759252Y457184D01*
X808236Y408200D01*
X808236Y404118D01*
X740883Y457184D02*
X740373Y457694D01*
X808236Y404118D02*
X808400Y404050D01*
X797011Y650059D02*
X797011Y652100D01*
X797011Y650059D02*
X740883Y593931D01*
X740883Y543927D01*
X722514Y525558D01*
X797011Y652100D02*
X797500Y652500D01*
X722514Y525558D02*
X722500Y525200D01*
D21*
X139809Y148993D03*
X144911Y174506D03*
D20*
X606177Y862323D02*
X606177Y880692D01*
X600054Y886815D01*
X599600Y887300D01*
X483717Y714350D02*
X540865Y657202D01*
X483717Y714350D02*
X483717Y753129D01*
D21*
X606177Y862323D03*
X540865Y657202D03*
X483717Y753129D03*
D20*
X376565Y745986D02*
X64292Y433713D01*
X55107Y433713D01*
X45923Y424528D01*
X45923Y393913D01*
X70415Y369421D01*
X70800Y368700D01*
D21*
X376565Y745986D03*
D20*
X563316Y593931D02*
X600054Y593931D01*
X563316Y593931D02*
X404118Y434733D01*
D21*
X600054Y593931D03*
X404118Y434733D03*
D20*
X602095Y662305D02*
X610259Y662305D01*
X602095Y662305D02*
X552091Y612300D01*
X421467Y550050D02*
X358196Y550050D01*
X247982Y439836D01*
D21*
X610259Y662305D03*
X552091Y612300D03*
X421467Y550050D03*
X247982Y439836D03*
D20*
X484738Y468410D02*
X617403Y601075D01*
X484738Y468410D02*
X448000Y468410D01*
X407180Y427590D01*
X263289Y427590D01*
D21*
X617403Y601075D03*
X263289Y427590D03*
D20*
X618423Y712309D02*
X631690Y712309D01*
X618423Y712309D02*
X522496Y616382D01*
X428610Y616382D01*
D21*
X631690Y712309D03*
X428610Y616382D03*
D20*
X550050Y749047D02*
X550050Y878651D01*
X594952Y923553D01*
X751088Y923553D01*
X797011Y877630D01*
X797500Y877500D01*
D21*
X550050Y749047D03*
D20*
X610769Y856710D02*
X624546Y870487D01*
X610769Y856710D02*
X592911Y838851D01*
X624546Y870487D02*
X624546Y886815D01*
X625000Y887300D01*
X490861Y314314D02*
X552091Y253084D01*
X728637Y738842D02*
X610769Y856710D01*
X728637Y738842D02*
X809257Y738842D01*
X820482Y727617D01*
D21*
X592911Y838851D03*
X552091Y253084D03*
X490861Y314314D03*
X820482Y727617D03*
D20*
X414323Y608218D02*
X414323Y563316D01*
X414323Y608218D02*
X393913Y628628D01*
X393913Y795990D01*
D21*
X414323Y563316D03*
X393913Y795990D03*
D20*
X326560Y386770D02*
X344929Y368401D01*
X614341Y718432D02*
X614341Y752109D01*
X614341Y718432D02*
X603116Y707207D01*
X607198Y601075D02*
X498004Y601075D01*
X332683Y435754D01*
D21*
X326560Y386770D03*
X344929Y368401D03*
X614341Y752109D03*
X603116Y707207D03*
X607198Y601075D03*
X332683Y435754D03*
D20*
X629649Y724555D02*
X629649Y736801D01*
X629649Y724555D02*
X638833Y715371D01*
X638833Y709248D01*
X538824Y609239D01*
X425549Y609239D01*
X405139Y629649D01*
X405139Y825585D01*
D21*
X629649Y736801D03*
X405139Y825585D03*
D20*
X474533Y645977D02*
X496984Y645977D01*
X474533Y645977D02*
X452082Y623526D01*
X268392Y379626D02*
X183690Y379626D01*
X71435Y267371D01*
X70800Y267100D01*
D21*
X496984Y645977D03*
X452082Y623526D03*
X268392Y379626D03*
D20*
X581685Y837831D02*
X581685Y894979D01*
X599034Y912327D01*
X599600Y912700D01*
X607198Y812318D02*
X607198Y759252D01*
X607198Y742924D01*
X607198Y722514D01*
X607198Y812318D02*
X581685Y837831D01*
X569439Y742924D02*
X541886Y715371D01*
X569439Y742924D02*
X607198Y742924D01*
X649038Y727617D02*
X797011Y727617D01*
X649038Y727617D02*
X617403Y759252D01*
X607198Y759252D01*
X797011Y727617D02*
X797500Y727500D01*
X290843Y361257D02*
X266351Y361257D01*
X257166Y352073D01*
X235736Y352073D01*
X226551Y342888D01*
X225725Y342050D01*
X198998Y419426D02*
X71435Y419426D01*
X198998Y419426D02*
X225531Y392893D01*
X71435Y419426D02*
X70800Y419500D01*
X225531Y392893D02*
X225725Y392850D01*
X436774Y360237D02*
X456164Y360237D01*
X436774Y360237D02*
X428610Y352073D01*
X456164Y360237D02*
X456164Y202059D01*
X456164Y360237D02*
X457184Y360237D01*
X376565Y134706D02*
X373503Y134706D01*
X376565Y134706D02*
X443918Y202059D01*
X456164Y202059D01*
X543927Y114296D02*
X561275Y114296D01*
X543927Y114296D02*
X456164Y202059D01*
X371462Y361257D02*
X290843Y361257D01*
X371462Y361257D02*
X390852Y341868D01*
X418405Y341868D01*
X428610Y352073D01*
D21*
X581685Y837831D03*
X607198Y722514D03*
X541886Y715371D03*
X290843Y361257D03*
X457184Y360237D03*
X428610Y352073D03*
X456164Y202059D03*
X373503Y134706D03*
X561275Y114296D03*
D20*
X643936Y461266D02*
X469430Y461266D01*
X643936Y461266D02*
X808236Y296966D01*
X808400Y296950D01*
D21*
X469430Y461266D03*
D20*
X473512Y349011D02*
X577603Y349011D01*
X589849Y361257D01*
D21*
X473512Y349011D03*
X589849Y361257D03*
D20*
X648018Y339827D02*
X655161Y339827D01*
X663325Y331663D01*
X664300Y331400D01*
X601075Y340847D02*
X481676Y340847D01*
X601075Y340847D02*
X613321Y328601D01*
X636792Y328601D01*
X648018Y339827D01*
D21*
X648018Y339827D03*
X481676Y340847D03*
D20*
X620974Y340337D02*
X663325Y382688D01*
X620974Y340337D02*
X616382Y335745D01*
X663325Y382688D02*
X664300Y382200D01*
X415344Y349011D02*
X393913Y349011D01*
X415344Y349011D02*
X434733Y368401D01*
X592911Y368401D01*
X620974Y340337D01*
D21*
X616382Y335745D03*
X393913Y349011D03*
D20*
X589849Y321458D02*
X668428Y321458D01*
X688838Y341868D01*
X688838Y343909D01*
X689700Y344200D01*
X589849Y321458D02*
X473512Y321458D01*
D21*
X589849Y321458D03*
X473512Y321458D03*
D20*
X565357Y681694D02*
X422487Y824564D01*
X418405Y824564D01*
X815380Y239818D02*
X815380Y210223D01*
X815380Y239818D02*
X826605Y251043D01*
X826605Y292884D01*
X807216Y312273D01*
X804154Y312273D01*
X571480Y544947D01*
X815380Y210223D02*
X814946Y209894D01*
D21*
X565357Y681694D03*
X418405Y824564D03*
X571480Y544947D03*
D20*
X71435Y186752D02*
X71435Y166342D01*
X71435Y186752D02*
X215326Y330642D01*
X215326Y345950D01*
X226551Y357175D01*
X256146Y357175D01*
X275535Y376565D01*
X275535Y382688D01*
X250023Y408200D01*
X242879Y408200D01*
X240838Y410241D01*
X240838Y442897D01*
X354114Y556173D01*
X417385Y556173D01*
X450041Y588829D01*
X450041Y598013D01*
X71435Y166342D02*
X70800Y165500D01*
D21*
X450041Y598013D03*
D20*
X516373Y691899D02*
X544947Y691899D01*
X546988Y689858D01*
D21*
X516373Y691899D03*
X546988Y689858D03*
D20*
X397995Y802113D02*
X397995Y806195D01*
X397995Y802113D02*
X401057Y799052D01*
X401057Y627608D01*
X423508Y605157D01*
X601075Y605157D01*
X604136Y608218D01*
X664346Y608218D01*
X721494Y551070D01*
X722500Y550600D01*
D21*
X397995Y806195D03*
D20*
X454123Y799052D02*
X542906Y799052D01*
X454123Y799052D02*
X420446Y832728D01*
X402077Y832728D01*
X94907Y525558D01*
X94907Y515353D01*
X64292Y484738D01*
X55107Y484738D01*
X41841Y471471D01*
X41841Y143891D01*
X70415Y115317D01*
X70800Y114700D01*
D21*
X542906Y799052D03*
D20*
X572501Y735781D02*
X572501Y678633D01*
X517394Y623526D01*
X283699Y281658D02*
X71435Y69394D01*
X71435Y64292D01*
X70800Y63900D01*
D21*
X572501Y735781D03*
X517394Y623526D03*
X283699Y281658D03*
M02*
