G04 EAGLE Gerber RS-274X export*
G75*
%MOMM*%
%FSLAX34Y34*%
%LPD*%
%INSoldermask Top*%
%IPNEG*%
%AMOC8*
5,1,8,0,0,1.08239X$1,22.5*%
G01*
%ADD10C,3.203200*%
%ADD11R,1.403200X1.403200*%
%ADD12R,1.473200X1.673200*%
%ADD13R,1.003200X1.403200*%
%ADD14R,1.983200X3.403200*%
%ADD15R,3.003200X2.603200*%
%ADD16C,2.235200*%
%ADD17R,1.403200X1.003200*%
%ADD18R,1.673200X1.473200*%
%ADD19R,4.013200X2.286000*%
%ADD20R,9.093200X11.633200*%
%ADD21R,1.511200X1.511200*%
%ADD22C,1.511200*%
%ADD23C,2.298700*%
%ADD24R,1.703200X0.603200*%
%ADD25R,1.903200X3.503200*%
%ADD26R,1.403200X2.203200*%
%ADD27C,2.303200*%
%ADD28C,3.703200*%
%ADD29C,1.727200*%
%ADD30R,1.473200X0.762000*%
%ADD31R,0.762000X1.473200*%
%ADD32C,0.653200*%
%ADD33R,3.495041X1.534159*%
%ADD34R,2.703200X4.503200*%
%ADD35R,5.703200X4.203200*%
%ADD36R,11.003200X10.613200*%
%ADD37R,1.270000X2.362200*%
%ADD38R,2.603200X2.603200*%
%ADD39P,1.869504X8X112.500000*%
%ADD40C,2.451100*%
%ADD41C,0.959600*%


D10*
X172500Y832500D03*
X672500Y832500D03*
X172500Y132500D03*
X672500Y132500D03*
D11*
X728000Y200000D03*
X707000Y200000D03*
D12*
X686500Y55000D03*
X643500Y55000D03*
D13*
X681500Y200000D03*
X663500Y200000D03*
D14*
X614900Y55000D03*
X565100Y55000D03*
D15*
X820000Y43000D03*
X820000Y157000D03*
X759000Y43000D03*
X759000Y157000D03*
D16*
X820000Y100000D03*
X774280Y100000D03*
D17*
X412500Y914000D03*
X412500Y896000D03*
D18*
X170000Y883500D03*
X170000Y926500D03*
D19*
X371400Y859600D03*
X371400Y910400D03*
D20*
X257100Y885000D03*
D17*
X717500Y621500D03*
X717500Y603500D03*
X717500Y746500D03*
X717500Y728500D03*
X415000Y784000D03*
X415000Y766000D03*
D18*
X170000Y738500D03*
X170000Y781500D03*
D19*
X371400Y729600D03*
X371400Y780400D03*
D20*
X257100Y755000D03*
D21*
X251125Y418250D03*
X251125Y342050D03*
D22*
X251125Y392850D03*
X251125Y367450D03*
X225725Y367450D03*
X225725Y392850D03*
X225725Y418250D03*
X225725Y342050D03*
D23*
X78778Y904500D02*
X57823Y904500D01*
X57823Y853700D02*
X78778Y853700D01*
X78778Y650500D02*
X57823Y650500D01*
X57823Y802900D02*
X78778Y802900D01*
X78778Y752100D02*
X57823Y752100D01*
X57823Y701300D02*
X78778Y701300D01*
D17*
X415000Y634000D03*
X415000Y616000D03*
D18*
X172500Y611000D03*
X172500Y654000D03*
D19*
X373900Y599600D03*
X373900Y650400D03*
D20*
X259600Y625000D03*
D17*
X717500Y871500D03*
X717500Y853500D03*
X135000Y386500D03*
X135000Y368500D03*
X135000Y336500D03*
X135000Y318500D03*
X135000Y286500D03*
X135000Y268500D03*
D24*
X371250Y419750D03*
X371250Y413250D03*
X371250Y406750D03*
X371250Y400250D03*
X371250Y393750D03*
X371250Y387250D03*
X371250Y380750D03*
X371250Y374250D03*
X371250Y367750D03*
X371250Y361250D03*
X371250Y354750D03*
X371250Y348250D03*
X371250Y341750D03*
X371250Y335250D03*
X443750Y335250D03*
X443750Y341750D03*
X443750Y348250D03*
X443750Y354750D03*
X443750Y361250D03*
X443750Y367750D03*
X443750Y374250D03*
X443750Y380750D03*
X443750Y387250D03*
X443750Y393750D03*
X443750Y400250D03*
X443750Y406750D03*
X443750Y413250D03*
X443750Y419750D03*
D13*
X316500Y350000D03*
X298500Y350000D03*
X316500Y382500D03*
X298500Y382500D03*
X341500Y322500D03*
X323500Y322500D03*
D25*
X511500Y420000D03*
X548500Y420000D03*
D13*
X503500Y340000D03*
X521500Y340000D03*
X503500Y367500D03*
X521500Y367500D03*
D17*
X560000Y358500D03*
X560000Y376500D03*
X602500Y358500D03*
X602500Y376500D03*
X602500Y303500D03*
X602500Y321500D03*
X560000Y303500D03*
X560000Y321500D03*
D13*
X521500Y315000D03*
X503500Y315000D03*
D17*
X602500Y431500D03*
X602500Y413500D03*
D13*
X521500Y287500D03*
X503500Y287500D03*
D26*
X320000Y416000D03*
X320000Y444000D03*
D13*
X504000Y472500D03*
X486000Y472500D03*
X461500Y472500D03*
X443500Y472500D03*
D27*
X722700Y285750D03*
X722700Y440650D03*
D22*
X808400Y429450D03*
X808400Y404050D03*
X808400Y322350D03*
X808400Y296950D03*
X664300Y407600D03*
X664300Y382200D03*
X664300Y356800D03*
X664300Y331400D03*
X689700Y395000D03*
X689700Y369600D03*
X689700Y344200D03*
X689700Y318800D03*
D28*
X753000Y306200D03*
X753000Y420200D03*
D29*
X730120Y550600D02*
X714880Y550600D01*
X714880Y525200D02*
X730120Y525200D01*
X730120Y499800D02*
X714880Y499800D01*
X714880Y474400D02*
X730120Y474400D01*
D17*
X482500Y869000D03*
X482500Y851000D03*
D13*
X466000Y812500D03*
X484000Y812500D03*
X466000Y765000D03*
X484000Y765000D03*
X663500Y252500D03*
X681500Y252500D03*
D11*
X728000Y252500D03*
X707000Y252500D03*
D30*
G36*
X613040Y717750D02*
X623456Y707334D01*
X618068Y701946D01*
X607652Y712362D01*
X613040Y717750D01*
G37*
G36*
X618697Y723407D02*
X629113Y712991D01*
X623725Y707603D01*
X613309Y718019D01*
X618697Y723407D01*
G37*
G36*
X624354Y729063D02*
X634770Y718647D01*
X629382Y713259D01*
X618966Y723675D01*
X624354Y729063D01*
G37*
G36*
X630011Y734720D02*
X640427Y724304D01*
X635039Y718916D01*
X624623Y729332D01*
X630011Y734720D01*
G37*
G36*
X635668Y740377D02*
X646084Y729961D01*
X640696Y724573D01*
X630280Y734989D01*
X635668Y740377D01*
G37*
G36*
X641325Y746034D02*
X651741Y735618D01*
X646353Y730230D01*
X635937Y740646D01*
X641325Y746034D01*
G37*
G36*
X646981Y751691D02*
X657397Y741275D01*
X652009Y735887D01*
X641593Y746303D01*
X646981Y751691D01*
G37*
G36*
X652638Y757348D02*
X663054Y746932D01*
X657666Y741544D01*
X647250Y751960D01*
X652638Y757348D01*
G37*
D31*
G36*
X657666Y778456D02*
X663054Y773068D01*
X652638Y762652D01*
X647250Y768040D01*
X657666Y778456D01*
G37*
G36*
X652009Y784113D02*
X657397Y778725D01*
X646981Y768309D01*
X641593Y773697D01*
X652009Y784113D01*
G37*
G36*
X646353Y789770D02*
X651741Y784382D01*
X641325Y773966D01*
X635937Y779354D01*
X646353Y789770D01*
G37*
G36*
X640696Y795427D02*
X646084Y790039D01*
X635668Y779623D01*
X630280Y785011D01*
X640696Y795427D01*
G37*
G36*
X635039Y801084D02*
X640427Y795696D01*
X630011Y785280D01*
X624623Y790668D01*
X635039Y801084D01*
G37*
G36*
X629382Y806741D02*
X634770Y801353D01*
X624354Y790937D01*
X618966Y796325D01*
X629382Y806741D01*
G37*
G36*
X623725Y812397D02*
X629113Y807009D01*
X618697Y796593D01*
X613309Y801981D01*
X623725Y812397D01*
G37*
G36*
X618068Y818054D02*
X623456Y812666D01*
X613040Y802250D01*
X607652Y807638D01*
X618068Y818054D01*
G37*
D30*
G36*
X591932Y818054D02*
X602348Y807638D01*
X596960Y802250D01*
X586544Y812666D01*
X591932Y818054D01*
G37*
G36*
X586275Y812397D02*
X596691Y801981D01*
X591303Y796593D01*
X580887Y807009D01*
X586275Y812397D01*
G37*
G36*
X580618Y806741D02*
X591034Y796325D01*
X585646Y790937D01*
X575230Y801353D01*
X580618Y806741D01*
G37*
G36*
X574961Y801084D02*
X585377Y790668D01*
X579989Y785280D01*
X569573Y795696D01*
X574961Y801084D01*
G37*
G36*
X569304Y795427D02*
X579720Y785011D01*
X574332Y779623D01*
X563916Y790039D01*
X569304Y795427D01*
G37*
G36*
X563647Y789770D02*
X574063Y779354D01*
X568675Y773966D01*
X558259Y784382D01*
X563647Y789770D01*
G37*
G36*
X557991Y784113D02*
X568407Y773697D01*
X563019Y768309D01*
X552603Y778725D01*
X557991Y784113D01*
G37*
G36*
X552334Y778456D02*
X562750Y768040D01*
X557362Y762652D01*
X546946Y773068D01*
X552334Y778456D01*
G37*
D31*
G36*
X557362Y757348D02*
X562750Y751960D01*
X552334Y741544D01*
X546946Y746932D01*
X557362Y757348D01*
G37*
G36*
X563019Y751691D02*
X568407Y746303D01*
X557991Y735887D01*
X552603Y741275D01*
X563019Y751691D01*
G37*
G36*
X568675Y746034D02*
X574063Y740646D01*
X563647Y730230D01*
X558259Y735618D01*
X568675Y746034D01*
G37*
G36*
X574332Y740377D02*
X579720Y734989D01*
X569304Y724573D01*
X563916Y729961D01*
X574332Y740377D01*
G37*
G36*
X579989Y734720D02*
X585377Y729332D01*
X574961Y718916D01*
X569573Y724304D01*
X579989Y734720D01*
G37*
G36*
X585646Y729063D02*
X591034Y723675D01*
X580618Y713259D01*
X575230Y718647D01*
X585646Y729063D01*
G37*
G36*
X591303Y723407D02*
X596691Y718019D01*
X586275Y707603D01*
X580887Y712991D01*
X591303Y723407D01*
G37*
G36*
X596960Y717750D02*
X602348Y712362D01*
X591932Y701946D01*
X586544Y707334D01*
X596960Y717750D01*
G37*
D17*
X517500Y869000D03*
X517500Y851000D03*
D13*
X484000Y692500D03*
X466000Y692500D03*
D32*
X648000Y667275D02*
X648000Y652725D01*
X660000Y652725D02*
X660000Y667275D01*
X672000Y667275D02*
X672000Y652725D01*
D33*
X659975Y659975D03*
D13*
X484000Y637500D03*
X466000Y637500D03*
D34*
X327500Y193500D03*
X327500Y276500D03*
X597500Y113500D03*
X597500Y196500D03*
D35*
X332500Y135000D03*
X332500Y50000D03*
D36*
X472500Y82100D03*
D37*
X506536Y165412D03*
X489518Y165412D03*
X472500Y165412D03*
X455482Y165412D03*
X438464Y165412D03*
D38*
X492000Y220000D03*
X448000Y220000D03*
D39*
X814946Y209894D03*
X814946Y255106D03*
D40*
X790054Y197448D03*
X790054Y267552D03*
D29*
X789880Y652500D02*
X805120Y652500D01*
X805120Y627500D02*
X789880Y627500D01*
X789880Y602500D02*
X805120Y602500D01*
X805120Y777500D02*
X789880Y777500D01*
X789880Y752500D02*
X805120Y752500D01*
X805120Y727500D02*
X789880Y727500D01*
X789880Y902500D02*
X805120Y902500D01*
X805120Y877500D02*
X789880Y877500D01*
X789880Y852500D02*
X805120Y852500D01*
D23*
X81278Y521100D02*
X60323Y521100D01*
X60323Y470300D02*
X81278Y470300D01*
X81278Y63900D02*
X60323Y63900D01*
X60323Y419500D02*
X81278Y419500D01*
X81278Y368700D02*
X60323Y368700D01*
X60323Y114700D02*
X81278Y114700D01*
X81278Y317900D02*
X60323Y317900D01*
X60323Y267100D02*
X81278Y267100D01*
X81278Y165500D02*
X60323Y165500D01*
X60323Y216300D02*
X81278Y216300D01*
D17*
X135000Y236500D03*
X135000Y218500D03*
X135000Y184000D03*
X135000Y166000D03*
X135000Y131500D03*
X135000Y113500D03*
X135000Y81500D03*
X135000Y63500D03*
D29*
X570000Y909880D02*
X570000Y925120D01*
X645000Y925120D02*
X645000Y909880D01*
X620000Y909880D02*
X620000Y925120D01*
X595000Y925120D02*
X595000Y909880D01*
X545000Y909880D02*
X545000Y925120D01*
X520000Y925120D02*
X520000Y909880D01*
D41*
X459225Y198998D03*
X498004Y181649D03*
X244920Y295945D03*
X357175Y412282D03*
X622505Y862323D03*
X395954Y393913D03*
X534742Y770478D03*
X164301Y400036D03*
X593931Y624546D03*
X384729Y406159D03*
X601075Y694961D03*
X625567Y623526D03*
X407180Y405139D03*
X389831Y355134D03*
X406159Y606177D03*
X390852Y616382D03*
X603116Y719453D03*
X783744Y379626D03*
X638833Y822523D03*
X385749Y393913D03*
X689858Y721494D03*
X689858Y759252D03*
X312273Y370442D03*
X357175Y366360D03*
X820482Y737822D03*
X384729Y372483D03*
X608218Y800072D03*
X424528Y908245D03*
X276556Y382688D03*
X457184Y360237D03*
X428610Y352073D03*
X455143Y184711D03*
X561275Y114296D03*
X492902Y703125D03*
X492902Y307171D03*
X459225Y335745D03*
X626587Y345950D03*
X479635Y328601D03*
X589849Y321458D03*
X472492Y321458D03*
X609239Y759252D03*
X617403Y513312D03*
X215326Y310232D03*
X391872Y576583D03*
X474533Y627608D03*
X483717Y673530D03*
X184711Y219408D03*
X474533Y775580D03*
X545968Y782724D03*
M02*
