G04 EAGLE Gerber RS-274X export*
G75*
%MOMM*%
%FSLAX34Y34*%
%LPD*%
%INSoldermask Bottom*%
%IPNEG*%
%AMOC8*
5,1,8,0,0,1.08239X$1,22.5*%
G01*
%ADD10C,3.203200*%
%ADD11C,2.235200*%
%ADD12R,1.511200X1.511200*%
%ADD13C,1.511200*%
%ADD14C,2.298700*%
%ADD15C,2.303200*%
%ADD16C,3.703200*%
%ADD17C,1.727200*%
%ADD18P,1.869504X8X112.500000*%
%ADD19C,2.451100*%
%ADD20C,0.959600*%


D10*
X172500Y832500D03*
X672500Y832500D03*
X172500Y132500D03*
X672500Y132500D03*
D11*
X820000Y100000D03*
X774280Y100000D03*
D12*
X251125Y418250D03*
X251125Y342050D03*
D13*
X251125Y392850D03*
X251125Y367450D03*
X225725Y367450D03*
X225725Y392850D03*
X225725Y418250D03*
X225725Y342050D03*
D14*
X78778Y904500D02*
X57823Y904500D01*
X57823Y853700D02*
X78778Y853700D01*
X78778Y650500D02*
X57823Y650500D01*
X57823Y802900D02*
X78778Y802900D01*
X78778Y752100D02*
X57823Y752100D01*
X57823Y701300D02*
X78778Y701300D01*
D15*
X722700Y285750D03*
X722700Y440650D03*
D13*
X808400Y429450D03*
X808400Y404050D03*
X808400Y322350D03*
X808400Y296950D03*
X664300Y407600D03*
X664300Y382200D03*
X664300Y356800D03*
X664300Y331400D03*
X689700Y395000D03*
X689700Y369600D03*
X689700Y344200D03*
X689700Y318800D03*
D16*
X753000Y306200D03*
X753000Y420200D03*
D17*
X730120Y550600D02*
X714880Y550600D01*
X714880Y525200D02*
X730120Y525200D01*
X730120Y499800D02*
X714880Y499800D01*
X714880Y474400D02*
X730120Y474400D01*
D18*
X814946Y209894D03*
X814946Y255106D03*
D19*
X790054Y197448D03*
X790054Y267552D03*
D17*
X789880Y652500D02*
X805120Y652500D01*
X805120Y627500D02*
X789880Y627500D01*
X789880Y602500D02*
X805120Y602500D01*
X805120Y777500D02*
X789880Y777500D01*
X789880Y752500D02*
X805120Y752500D01*
X805120Y727500D02*
X789880Y727500D01*
X789880Y902500D02*
X805120Y902500D01*
X805120Y877500D02*
X789880Y877500D01*
X789880Y852500D02*
X805120Y852500D01*
D14*
X81278Y521100D02*
X60323Y521100D01*
X60323Y470300D02*
X81278Y470300D01*
X81278Y63900D02*
X60323Y63900D01*
X60323Y419500D02*
X81278Y419500D01*
X81278Y368700D02*
X60323Y368700D01*
X60323Y114700D02*
X81278Y114700D01*
X81278Y317900D02*
X60323Y317900D01*
X60323Y267100D02*
X81278Y267100D01*
X81278Y165500D02*
X60323Y165500D01*
X60323Y216300D02*
X81278Y216300D01*
D17*
X570000Y909880D02*
X570000Y925120D01*
X645000Y925120D02*
X645000Y909880D01*
X620000Y909880D02*
X620000Y925120D01*
X595000Y925120D02*
X595000Y909880D01*
X545000Y909880D02*
X545000Y925120D01*
X520000Y925120D02*
X520000Y909880D01*
D20*
X459225Y198998D03*
X498004Y181649D03*
X244920Y295945D03*
X357175Y412282D03*
X622505Y862323D03*
X395954Y393913D03*
X534742Y770478D03*
X164301Y400036D03*
X593931Y624546D03*
X384729Y406159D03*
X601075Y694961D03*
X625567Y623526D03*
X407180Y405139D03*
X389831Y355134D03*
X406159Y606177D03*
X390852Y616382D03*
X603116Y719453D03*
X783744Y379626D03*
X638833Y822523D03*
X385749Y393913D03*
X689858Y721494D03*
X689858Y759252D03*
X312273Y370442D03*
X357175Y366360D03*
X820482Y737822D03*
X384729Y372483D03*
X608218Y800072D03*
X424528Y908245D03*
X276556Y382688D03*
X457184Y360237D03*
X428610Y352073D03*
X455143Y184711D03*
X561275Y114296D03*
X492902Y703125D03*
X492902Y307171D03*
X459225Y335745D03*
X626587Y345950D03*
X479635Y328601D03*
X589849Y321458D03*
X472492Y321458D03*
X609239Y759252D03*
X617403Y513312D03*
X215326Y310232D03*
X391872Y576583D03*
X474533Y627608D03*
X483717Y673530D03*
X184711Y219408D03*
X474533Y775580D03*
X545968Y782724D03*
M02*
