G04 EAGLE Gerber RS-274X export*
G75*
%MOMM*%
%FSLAX34Y34*%
%LPD*%
%INSoldermask Bottom*%
%IPNEG*%
%AMOC8*
5,1,8,0,0,1.08239X$1,22.5*%
G01*
%ADD10C,3.203200*%
%ADD11C,2.235200*%
%ADD12R,1.511200X1.511200*%
%ADD13C,1.511200*%
%ADD14C,2.298700*%
%ADD15C,2.303200*%
%ADD16C,3.703200*%
%ADD17C,1.727200*%
%ADD18P,1.869504X8X112.500000*%
%ADD19C,2.451100*%
%ADD20C,0.959600*%


D10*
X172500Y832500D03*
X672500Y832500D03*
X172500Y132500D03*
X672500Y132500D03*
D11*
X820000Y100000D03*
X774280Y100000D03*
D12*
X251125Y418250D03*
X251125Y342050D03*
D13*
X251125Y392850D03*
X251125Y367450D03*
X225725Y367450D03*
X225725Y392850D03*
X225725Y418250D03*
X225725Y342050D03*
D14*
X78778Y904500D02*
X57823Y904500D01*
X57823Y853700D02*
X78778Y853700D01*
X78778Y650500D02*
X57823Y650500D01*
X57823Y802900D02*
X78778Y802900D01*
X78778Y752100D02*
X57823Y752100D01*
X57823Y701300D02*
X78778Y701300D01*
D15*
X722700Y285750D03*
X722700Y440650D03*
D13*
X808400Y429450D03*
X808400Y404050D03*
X808400Y322350D03*
X808400Y296950D03*
X664300Y407600D03*
X664300Y382200D03*
X664300Y356800D03*
X664300Y331400D03*
X689700Y395000D03*
X689700Y369600D03*
X689700Y344200D03*
X689700Y318800D03*
D16*
X753000Y306200D03*
X753000Y420200D03*
D17*
X730120Y550600D02*
X714880Y550600D01*
X714880Y525200D02*
X730120Y525200D01*
X730120Y499800D02*
X714880Y499800D01*
X714880Y474400D02*
X730120Y474400D01*
D18*
X814946Y209894D03*
X814946Y255106D03*
D19*
X790054Y197448D03*
X790054Y267552D03*
D17*
X789880Y652500D02*
X805120Y652500D01*
X805120Y627500D02*
X789880Y627500D01*
X789880Y602500D02*
X805120Y602500D01*
X805120Y777500D02*
X789880Y777500D01*
X789880Y752500D02*
X805120Y752500D01*
X805120Y727500D02*
X789880Y727500D01*
X789880Y902500D02*
X805120Y902500D01*
X805120Y877500D02*
X789880Y877500D01*
X789880Y852500D02*
X805120Y852500D01*
D14*
X81278Y521100D02*
X60323Y521100D01*
X60323Y470300D02*
X81278Y470300D01*
X81278Y63900D02*
X60323Y63900D01*
X60323Y419500D02*
X81278Y419500D01*
X81278Y368700D02*
X60323Y368700D01*
X60323Y114700D02*
X81278Y114700D01*
X81278Y317900D02*
X60323Y317900D01*
X60323Y267100D02*
X81278Y267100D01*
X81278Y165500D02*
X60323Y165500D01*
X60323Y216300D02*
X81278Y216300D01*
D20*
X405139Y792929D03*
X394934Y803134D03*
X425549Y757211D03*
X578624Y770478D03*
X357175Y375544D03*
X532701Y771498D03*
X474533Y495963D03*
X403098Y424528D03*
X625567Y675571D03*
X625567Y636792D03*
X484738Y495963D03*
X417385Y428610D03*
X412282Y393913D03*
X644956Y763334D03*
X403098Y615362D03*
X419426Y333704D03*
X384729Y368401D03*
X401057Y830687D03*
X401057Y412282D03*
X616382Y823544D03*
X470451Y870487D03*
X622505Y785785D03*
X403098Y605157D03*
X332683Y452082D03*
X292884Y412282D03*
X595972Y777621D03*
X438815Y891917D03*
X517394Y700063D03*
X403098Y594952D03*
X299007Y490861D03*
X227572Y452082D03*
X197977Y322478D03*
X432692Y747006D03*
X383708Y797011D03*
X208182Y326560D03*
X566378Y814359D03*
X285740Y382688D03*
X457184Y367380D03*
X428610Y377585D03*
X456164Y202059D03*
X373503Y134706D03*
X561275Y114296D03*
X483717Y777621D03*
X467389Y705166D03*
X471471Y462287D03*
X492902Y324519D03*
X614341Y321458D03*
X426569Y401057D03*
X644956Y328601D03*
X564337Y720473D03*
X475553Y802113D03*
X584747Y636792D03*
X701084Y520455D03*
X185731Y484738D03*
X391872Y624546D03*
X491881Y668428D03*
X45923Y379626D03*
X546988Y821503D03*
X577603Y618423D03*
X697002Y499025D03*
X573521Y807216D03*
X528619Y784765D03*
X78579Y559234D03*
M02*
