G04 EAGLE Gerber RS-274X export*
G75*
%MOMM*%
%FSLAX34Y34*%
%LPD*%
%INSoldermask Bottom*%
%IPNEG*%
%AMOC8*
5,1,8,0,0,1.08239X$1,22.5*%
G01*
%ADD10C,3.203200*%
%ADD11C,2.235200*%
%ADD12R,1.511200X1.511200*%
%ADD13C,1.511200*%
%ADD14C,2.298700*%
%ADD15C,2.303200*%
%ADD16C,3.703200*%
%ADD17C,1.727200*%
%ADD18P,1.869504X8X112.500000*%
%ADD19C,2.451100*%
%ADD20P,1.852186X8X22.500000*%
%ADD21C,0.959600*%


D10*
X172500Y832500D03*
X672500Y832500D03*
X172500Y132500D03*
X672500Y132500D03*
D11*
X820000Y100000D03*
X774280Y100000D03*
D12*
X251125Y418250D03*
X251125Y342050D03*
D13*
X251125Y392850D03*
X251125Y367450D03*
X225725Y367450D03*
X225725Y392850D03*
X225725Y418250D03*
X225725Y342050D03*
D14*
X78778Y904500D02*
X57823Y904500D01*
X57823Y853700D02*
X78778Y853700D01*
X78778Y650500D02*
X57823Y650500D01*
X57823Y802900D02*
X78778Y802900D01*
X78778Y752100D02*
X57823Y752100D01*
X57823Y701300D02*
X78778Y701300D01*
D15*
X722700Y285750D03*
X722700Y440650D03*
D13*
X808400Y429450D03*
X808400Y404050D03*
X808400Y322350D03*
X808400Y296950D03*
X664300Y407600D03*
X664300Y382200D03*
X664300Y356800D03*
X664300Y331400D03*
X689700Y395000D03*
X689700Y369600D03*
X689700Y344200D03*
X689700Y318800D03*
D16*
X753000Y306200D03*
X753000Y420200D03*
D17*
X730120Y550600D02*
X714880Y550600D01*
X714880Y525200D02*
X730120Y525200D01*
X730120Y499800D02*
X714880Y499800D01*
X714880Y474400D02*
X730120Y474400D01*
D18*
X814946Y209894D03*
X814946Y255106D03*
D19*
X790054Y197448D03*
X790054Y267552D03*
D17*
X789880Y652500D02*
X805120Y652500D01*
X805120Y627500D02*
X789880Y627500D01*
X789880Y602500D02*
X805120Y602500D01*
X805120Y777500D02*
X789880Y777500D01*
X789880Y752500D02*
X805120Y752500D01*
X805120Y727500D02*
X789880Y727500D01*
X789880Y902500D02*
X805120Y902500D01*
X805120Y877500D02*
X789880Y877500D01*
X789880Y852500D02*
X805120Y852500D01*
D14*
X81278Y521100D02*
X60323Y521100D01*
X60323Y470300D02*
X81278Y470300D01*
X81278Y63900D02*
X60323Y63900D01*
X60323Y419500D02*
X81278Y419500D01*
X81278Y368700D02*
X60323Y368700D01*
X60323Y114700D02*
X81278Y114700D01*
X81278Y317900D02*
X60323Y317900D01*
X60323Y267100D02*
X81278Y267100D01*
X81278Y165500D02*
X60323Y165500D01*
X60323Y216300D02*
X81278Y216300D01*
D20*
X599600Y887300D03*
X599600Y912700D03*
X625000Y887300D03*
X625000Y912700D03*
X650400Y887300D03*
X650400Y912700D03*
D21*
X139809Y148993D03*
X144911Y174506D03*
X606177Y862323D03*
X540865Y657202D03*
X483717Y753129D03*
X376565Y745986D03*
X600054Y593931D03*
X404118Y434733D03*
X610259Y662305D03*
X552091Y612300D03*
X421467Y550050D03*
X247982Y439836D03*
X617403Y601075D03*
X263289Y427590D03*
X631690Y712309D03*
X428610Y616382D03*
X550050Y749047D03*
X592911Y838851D03*
X552091Y253084D03*
X490861Y314314D03*
X820482Y727617D03*
X414323Y563316D03*
X393913Y795990D03*
X326560Y386770D03*
X344929Y368401D03*
X614341Y752109D03*
X603116Y707207D03*
X607198Y601075D03*
X332683Y435754D03*
X629649Y736801D03*
X405139Y825585D03*
X496984Y645977D03*
X452082Y623526D03*
X268392Y379626D03*
X581685Y837831D03*
X607198Y722514D03*
X541886Y715371D03*
X290843Y361257D03*
X457184Y360237D03*
X428610Y352073D03*
X456164Y202059D03*
X373503Y134706D03*
X561275Y114296D03*
X469430Y461266D03*
X473512Y349011D03*
X589849Y361257D03*
X648018Y339827D03*
X481676Y340847D03*
X616382Y335745D03*
X393913Y349011D03*
X589849Y321458D03*
X473512Y321458D03*
X565357Y681694D03*
X418405Y824564D03*
X571480Y544947D03*
X450041Y598013D03*
X516373Y691899D03*
X546988Y689858D03*
X397995Y806195D03*
X542906Y799052D03*
X572501Y735781D03*
X517394Y623526D03*
X283699Y281658D03*
M02*
