M48
;GenerationSoftware,Autodesk,EAGLE,9.1.3*%
;CreationDate,2018-09-03T11:15:28Z*%
FMAT,2
ICI,OFF
METRIC,TZ,000.000
T9C0.500
T8C0.800
T7C0.850
T6C0.914
T5C1.016
T4C1.397
T3C2.000
T2C2.032
T1C3.000
%
G90
M71
T1
X17250Y83250
X67250Y83250
X17250Y13250
X67250Y13250
T2
X76428Y10000
X81000Y10000
T3
X80924Y21780
X32156Y21780
X80924Y49720
X32156Y49720
T4
X6830Y80290
X6830Y65050
X6830Y85370
X6830Y75210
X6830Y90450
X7080Y11630
X7080Y16710
X7080Y21790
X7080Y31950
X7080Y6550
X7080Y26870
X6830Y70130
T5
X47380Y68380
X47380Y65840
X47380Y63300
X80250Y90500
X80250Y88000
X47380Y78540
X80250Y62000
X80250Y59500
X80250Y57000
X80250Y76250
X80250Y73750
X80250Y71250
X62620Y81080
X62620Y63300
X62620Y65840
X62620Y68380
X62620Y70920
X62620Y73460
X62620Y76000
X62620Y78540
X80250Y85500
X62620Y83620
X62620Y86160
X62620Y88700
X62620Y91240
X47380Y91240
X47380Y88700
X47380Y86160
X47380Y83620
X47380Y81080
X47380Y76000
X47380Y73460
X47380Y70920
T6
X57480Y4000
X60020Y4000
T7
X31140Y35750
X31140Y33210
X31140Y30670
X33680Y33210
X33680Y35750
X33680Y38290
X33680Y40830
X31140Y40830
X31140Y38290
X33680Y30670
T8
X30572Y7205
X30572Y14825
X30572Y9745
X33113Y9745
X33113Y12285
X33113Y7205
X33113Y14825
X30572Y12285
T9
X45100Y4263
X40013Y65725
X42488Y90337
X39875Y8112
X48812Y60362
X42763Y62700
X34788Y63387
X44412Y73013
X34788Y45100
M30