G04 EAGLE Gerber RS-274X export*
G75*
%MOMM*%
%FSLAX34Y34*%
%LPD*%
%AMOC8*
5,1,8,0,0,1.08239X$1,22.5*%
G01*
%ADD10C,0.127000*%
%ADD11C,0.152400*%


D10*
X570143Y413629D02*
X570143Y398135D01*
X568422Y398135D02*
X571865Y398135D01*
X571865Y413629D02*
X568422Y413629D01*
X562555Y409325D02*
X562555Y402439D01*
X562555Y409325D02*
X562553Y409455D01*
X562547Y409585D01*
X562537Y409715D01*
X562524Y409844D01*
X562506Y409973D01*
X562485Y410101D01*
X562459Y410228D01*
X562430Y410355D01*
X562397Y410481D01*
X562360Y410605D01*
X562320Y410729D01*
X562275Y410851D01*
X562227Y410972D01*
X562176Y411091D01*
X562121Y411209D01*
X562062Y411325D01*
X562000Y411439D01*
X561934Y411552D01*
X561865Y411662D01*
X561793Y411770D01*
X561718Y411876D01*
X561639Y411979D01*
X561557Y412080D01*
X561473Y412179D01*
X561385Y412275D01*
X561294Y412368D01*
X561201Y412459D01*
X561105Y412547D01*
X561006Y412631D01*
X560905Y412713D01*
X560802Y412792D01*
X560696Y412867D01*
X560588Y412939D01*
X560478Y413008D01*
X560365Y413074D01*
X560251Y413136D01*
X560135Y413195D01*
X560017Y413250D01*
X559898Y413301D01*
X559777Y413349D01*
X559655Y413394D01*
X559531Y413434D01*
X559407Y413471D01*
X559281Y413504D01*
X559154Y413533D01*
X559027Y413559D01*
X558899Y413580D01*
X558770Y413598D01*
X558641Y413611D01*
X558511Y413621D01*
X558381Y413627D01*
X558251Y413629D01*
X558121Y413627D01*
X557991Y413621D01*
X557861Y413611D01*
X557732Y413598D01*
X557603Y413580D01*
X557475Y413559D01*
X557348Y413533D01*
X557221Y413504D01*
X557095Y413471D01*
X556971Y413434D01*
X556847Y413394D01*
X556725Y413349D01*
X556604Y413301D01*
X556485Y413250D01*
X556367Y413195D01*
X556251Y413136D01*
X556137Y413074D01*
X556024Y413008D01*
X555914Y412939D01*
X555806Y412867D01*
X555700Y412792D01*
X555597Y412713D01*
X555496Y412631D01*
X555397Y412547D01*
X555301Y412459D01*
X555208Y412368D01*
X555117Y412275D01*
X555029Y412179D01*
X554945Y412080D01*
X554863Y411979D01*
X554784Y411876D01*
X554709Y411770D01*
X554637Y411662D01*
X554568Y411552D01*
X554502Y411439D01*
X554440Y411325D01*
X554381Y411209D01*
X554326Y411091D01*
X554275Y410972D01*
X554227Y410851D01*
X554182Y410729D01*
X554142Y410605D01*
X554105Y410481D01*
X554072Y410355D01*
X554043Y410228D01*
X554017Y410101D01*
X553996Y409973D01*
X553978Y409844D01*
X553965Y409715D01*
X553955Y409585D01*
X553949Y409455D01*
X553947Y409325D01*
X553947Y402439D01*
X553949Y402309D01*
X553955Y402179D01*
X553965Y402049D01*
X553978Y401920D01*
X553996Y401791D01*
X554017Y401663D01*
X554043Y401536D01*
X554072Y401409D01*
X554105Y401283D01*
X554142Y401159D01*
X554182Y401035D01*
X554227Y400913D01*
X554275Y400792D01*
X554326Y400673D01*
X554381Y400555D01*
X554440Y400439D01*
X554502Y400325D01*
X554568Y400212D01*
X554637Y400102D01*
X554709Y399994D01*
X554784Y399888D01*
X554863Y399785D01*
X554945Y399684D01*
X555029Y399585D01*
X555117Y399489D01*
X555208Y399396D01*
X555301Y399305D01*
X555397Y399217D01*
X555496Y399133D01*
X555597Y399051D01*
X555700Y398972D01*
X555806Y398897D01*
X555914Y398825D01*
X556024Y398756D01*
X556137Y398690D01*
X556251Y398628D01*
X556367Y398569D01*
X556485Y398514D01*
X556604Y398463D01*
X556725Y398415D01*
X556847Y398370D01*
X556971Y398330D01*
X557095Y398293D01*
X557221Y398260D01*
X557348Y398231D01*
X557475Y398205D01*
X557603Y398184D01*
X557732Y398166D01*
X557861Y398153D01*
X557991Y398143D01*
X558121Y398137D01*
X558251Y398135D01*
X558381Y398137D01*
X558511Y398143D01*
X558641Y398153D01*
X558770Y398166D01*
X558899Y398184D01*
X559027Y398205D01*
X559154Y398231D01*
X559281Y398260D01*
X559407Y398293D01*
X559531Y398330D01*
X559655Y398370D01*
X559777Y398415D01*
X559898Y398463D01*
X560017Y398514D01*
X560135Y398569D01*
X560251Y398628D01*
X560365Y398690D01*
X560478Y398756D01*
X560588Y398825D01*
X560696Y398897D01*
X560802Y398972D01*
X560905Y399051D01*
X561006Y399133D01*
X561105Y399217D01*
X561201Y399305D01*
X561294Y399396D01*
X561385Y399489D01*
X561473Y399585D01*
X561557Y399684D01*
X561639Y399785D01*
X561718Y399888D01*
X561793Y399994D01*
X561865Y400102D01*
X561934Y400212D01*
X562000Y400325D01*
X562062Y400439D01*
X562121Y400555D01*
X562176Y400673D01*
X562227Y400792D01*
X562275Y400913D01*
X562320Y401035D01*
X562360Y401159D01*
X562397Y401283D01*
X562430Y401409D01*
X562459Y401536D01*
X562485Y401663D01*
X562506Y401791D01*
X562524Y401920D01*
X562537Y402049D01*
X562547Y402179D01*
X562553Y402309D01*
X562555Y402439D01*
X544376Y398135D02*
X544376Y413629D01*
X548680Y413629D02*
X540072Y413629D01*
X534113Y406743D02*
X529809Y406743D01*
X529679Y406741D01*
X529549Y406735D01*
X529419Y406725D01*
X529290Y406712D01*
X529161Y406694D01*
X529033Y406673D01*
X528906Y406647D01*
X528779Y406618D01*
X528653Y406585D01*
X528529Y406548D01*
X528405Y406508D01*
X528283Y406463D01*
X528162Y406415D01*
X528043Y406364D01*
X527925Y406309D01*
X527809Y406250D01*
X527695Y406188D01*
X527582Y406122D01*
X527472Y406053D01*
X527364Y405981D01*
X527258Y405906D01*
X527155Y405827D01*
X527054Y405745D01*
X526955Y405661D01*
X526859Y405573D01*
X526766Y405482D01*
X526675Y405389D01*
X526587Y405293D01*
X526503Y405194D01*
X526421Y405093D01*
X526342Y404990D01*
X526267Y404884D01*
X526195Y404776D01*
X526126Y404666D01*
X526060Y404553D01*
X525998Y404439D01*
X525939Y404323D01*
X525884Y404205D01*
X525833Y404086D01*
X525785Y403965D01*
X525740Y403843D01*
X525700Y403719D01*
X525663Y403595D01*
X525630Y403469D01*
X525601Y403342D01*
X525575Y403215D01*
X525554Y403087D01*
X525536Y402958D01*
X525523Y402829D01*
X525513Y402699D01*
X525507Y402569D01*
X525505Y402439D01*
X525507Y402309D01*
X525513Y402179D01*
X525523Y402049D01*
X525536Y401920D01*
X525554Y401791D01*
X525575Y401663D01*
X525601Y401536D01*
X525630Y401409D01*
X525663Y401283D01*
X525700Y401159D01*
X525740Y401035D01*
X525785Y400913D01*
X525833Y400792D01*
X525884Y400673D01*
X525939Y400555D01*
X525998Y400439D01*
X526060Y400325D01*
X526126Y400212D01*
X526195Y400102D01*
X526267Y399994D01*
X526342Y399888D01*
X526421Y399785D01*
X526503Y399684D01*
X526587Y399585D01*
X526675Y399489D01*
X526766Y399396D01*
X526859Y399305D01*
X526955Y399217D01*
X527054Y399133D01*
X527155Y399051D01*
X527258Y398972D01*
X527364Y398897D01*
X527472Y398825D01*
X527582Y398756D01*
X527695Y398690D01*
X527809Y398628D01*
X527925Y398569D01*
X528043Y398514D01*
X528162Y398463D01*
X528283Y398415D01*
X528405Y398370D01*
X528529Y398330D01*
X528653Y398293D01*
X528779Y398260D01*
X528906Y398231D01*
X529033Y398205D01*
X529161Y398184D01*
X529290Y398166D01*
X529419Y398153D01*
X529549Y398143D01*
X529679Y398137D01*
X529809Y398135D01*
X534113Y398135D01*
X534113Y413629D01*
X529809Y413629D01*
X529693Y413627D01*
X529577Y413621D01*
X529461Y413611D01*
X529345Y413598D01*
X529230Y413580D01*
X529116Y413559D01*
X529002Y413533D01*
X528890Y413504D01*
X528778Y413471D01*
X528668Y413434D01*
X528559Y413394D01*
X528451Y413350D01*
X528345Y413302D01*
X528241Y413251D01*
X528138Y413196D01*
X528037Y413138D01*
X527939Y413077D01*
X527842Y413012D01*
X527748Y412944D01*
X527656Y412873D01*
X527566Y412798D01*
X527479Y412721D01*
X527395Y412641D01*
X527314Y412558D01*
X527235Y412472D01*
X527159Y412384D01*
X527086Y412293D01*
X527017Y412200D01*
X526950Y412105D01*
X526887Y412007D01*
X526827Y411908D01*
X526771Y411806D01*
X526718Y411702D01*
X526668Y411597D01*
X526623Y411490D01*
X526580Y411382D01*
X526542Y411272D01*
X526507Y411161D01*
X526476Y411049D01*
X526449Y410936D01*
X526425Y410822D01*
X526406Y410707D01*
X526390Y410592D01*
X526378Y410476D01*
X526370Y410360D01*
X526366Y410244D01*
X526366Y410128D01*
X526370Y410012D01*
X526378Y409896D01*
X526390Y409780D01*
X526406Y409665D01*
X526425Y409550D01*
X526449Y409436D01*
X526476Y409323D01*
X526507Y409211D01*
X526542Y409100D01*
X526580Y408990D01*
X526623Y408882D01*
X526668Y408775D01*
X526718Y408670D01*
X526771Y408566D01*
X526827Y408465D01*
X526887Y408365D01*
X526950Y408267D01*
X527017Y408172D01*
X527086Y408079D01*
X527159Y407988D01*
X527235Y407900D01*
X527314Y407814D01*
X527395Y407731D01*
X527479Y407651D01*
X527566Y407574D01*
X527656Y407499D01*
X527748Y407428D01*
X527842Y407360D01*
X527939Y407295D01*
X528037Y407234D01*
X528138Y407176D01*
X528241Y407121D01*
X528345Y407070D01*
X528451Y407022D01*
X528559Y406978D01*
X528668Y406938D01*
X528778Y406901D01*
X528890Y406868D01*
X529002Y406839D01*
X529116Y406813D01*
X529230Y406792D01*
X529345Y406774D01*
X529461Y406761D01*
X529577Y406751D01*
X529693Y406745D01*
X529809Y406743D01*
X512637Y408464D02*
X509194Y398135D01*
X505751Y408464D01*
X500118Y405882D02*
X500114Y406187D01*
X500103Y406491D01*
X500085Y406796D01*
X500060Y407099D01*
X500027Y407402D01*
X499987Y407705D01*
X499940Y408006D01*
X499886Y408306D01*
X499824Y408604D01*
X499756Y408901D01*
X499680Y409197D01*
X499598Y409490D01*
X499508Y409781D01*
X499411Y410070D01*
X499308Y410357D01*
X499198Y410641D01*
X499081Y410923D01*
X498957Y411201D01*
X498827Y411477D01*
X498828Y411477D02*
X498790Y411580D01*
X498750Y411682D01*
X498705Y411782D01*
X498657Y411881D01*
X498606Y411978D01*
X498552Y412073D01*
X498494Y412167D01*
X498433Y412258D01*
X498369Y412347D01*
X498302Y412434D01*
X498232Y412518D01*
X498159Y412600D01*
X498083Y412680D01*
X498005Y412757D01*
X497924Y412831D01*
X497840Y412902D01*
X497754Y412970D01*
X497666Y413036D01*
X497576Y413098D01*
X497483Y413157D01*
X497389Y413213D01*
X497293Y413266D01*
X497195Y413315D01*
X497095Y413361D01*
X496994Y413403D01*
X496891Y413442D01*
X496787Y413477D01*
X496682Y413509D01*
X496576Y413537D01*
X496469Y413561D01*
X496361Y413582D01*
X496253Y413599D01*
X496144Y413612D01*
X496034Y413621D01*
X495925Y413627D01*
X495815Y413629D01*
X495705Y413627D01*
X495596Y413621D01*
X495486Y413612D01*
X495377Y413599D01*
X495269Y413582D01*
X495161Y413561D01*
X495054Y413537D01*
X494948Y413509D01*
X494843Y413477D01*
X494739Y413442D01*
X494636Y413403D01*
X494535Y413361D01*
X494435Y413315D01*
X494337Y413266D01*
X494241Y413213D01*
X494147Y413157D01*
X494054Y413098D01*
X493964Y413036D01*
X493876Y412970D01*
X493790Y412902D01*
X493706Y412831D01*
X493625Y412757D01*
X493547Y412680D01*
X493471Y412601D01*
X493398Y412518D01*
X493328Y412434D01*
X493261Y412347D01*
X493197Y412258D01*
X493136Y412167D01*
X493078Y412073D01*
X493024Y411978D01*
X492973Y411881D01*
X492925Y411782D01*
X492880Y411682D01*
X492840Y411580D01*
X492802Y411477D01*
X492672Y411201D01*
X492548Y410923D01*
X492431Y410641D01*
X492321Y410357D01*
X492218Y410070D01*
X492121Y409781D01*
X492031Y409490D01*
X491949Y409197D01*
X491873Y408901D01*
X491805Y408604D01*
X491743Y408306D01*
X491689Y408006D01*
X491642Y407705D01*
X491602Y407402D01*
X491569Y407099D01*
X491544Y406796D01*
X491526Y406491D01*
X491515Y406187D01*
X491511Y405882D01*
X500118Y405882D02*
X500114Y405577D01*
X500103Y405273D01*
X500085Y404968D01*
X500060Y404665D01*
X500027Y404362D01*
X499987Y404059D01*
X499940Y403758D01*
X499886Y403458D01*
X499824Y403160D01*
X499756Y402863D01*
X499680Y402567D01*
X499598Y402274D01*
X499508Y401983D01*
X499411Y401694D01*
X499308Y401407D01*
X499198Y401123D01*
X499081Y400841D01*
X498957Y400563D01*
X498827Y400287D01*
X498828Y400287D02*
X498790Y400184D01*
X498750Y400082D01*
X498705Y399982D01*
X498657Y399883D01*
X498606Y399786D01*
X498552Y399691D01*
X498494Y399597D01*
X498433Y399506D01*
X498369Y399417D01*
X498302Y399330D01*
X498232Y399246D01*
X498159Y399163D01*
X498083Y399084D01*
X498005Y399007D01*
X497924Y398933D01*
X497840Y398862D01*
X497754Y398794D01*
X497666Y398728D01*
X497576Y398666D01*
X497483Y398607D01*
X497389Y398551D01*
X497293Y398498D01*
X497195Y398449D01*
X497095Y398403D01*
X496994Y398361D01*
X496891Y398322D01*
X496787Y398287D01*
X496682Y398255D01*
X496576Y398227D01*
X496469Y398203D01*
X496361Y398182D01*
X496253Y398165D01*
X496144Y398152D01*
X496034Y398143D01*
X495925Y398137D01*
X495815Y398135D01*
X492802Y400287D02*
X492672Y400563D01*
X492548Y400841D01*
X492431Y401123D01*
X492321Y401407D01*
X492218Y401694D01*
X492121Y401983D01*
X492031Y402274D01*
X491949Y402567D01*
X491873Y402863D01*
X491805Y403160D01*
X491743Y403458D01*
X491689Y403758D01*
X491642Y404059D01*
X491602Y404362D01*
X491569Y404665D01*
X491544Y404968D01*
X491526Y405273D01*
X491515Y405577D01*
X491511Y405882D01*
X492802Y400287D02*
X492840Y400184D01*
X492880Y400082D01*
X492925Y399982D01*
X492973Y399883D01*
X493024Y399786D01*
X493078Y399691D01*
X493136Y399597D01*
X493197Y399506D01*
X493261Y399417D01*
X493328Y399330D01*
X493398Y399245D01*
X493471Y399163D01*
X493547Y399084D01*
X493625Y399007D01*
X493706Y398933D01*
X493790Y398862D01*
X493876Y398794D01*
X493964Y398728D01*
X494054Y398666D01*
X494147Y398607D01*
X494241Y398551D01*
X494337Y398498D01*
X494436Y398449D01*
X494535Y398403D01*
X494636Y398361D01*
X494739Y398322D01*
X494843Y398287D01*
X494948Y398255D01*
X495054Y398227D01*
X495161Y398203D01*
X495269Y398182D01*
X495377Y398165D01*
X495486Y398152D01*
X495596Y398143D01*
X495705Y398137D01*
X495815Y398135D01*
X499258Y401578D02*
X492371Y410186D01*
X485839Y398996D02*
X485839Y398135D01*
X485839Y398996D02*
X484978Y398996D01*
X484978Y398135D01*
X485839Y398135D01*
X479306Y405882D02*
X479302Y406187D01*
X479291Y406491D01*
X479273Y406796D01*
X479248Y407099D01*
X479215Y407402D01*
X479175Y407705D01*
X479128Y408006D01*
X479074Y408306D01*
X479012Y408604D01*
X478944Y408901D01*
X478868Y409197D01*
X478786Y409490D01*
X478696Y409781D01*
X478599Y410070D01*
X478496Y410357D01*
X478386Y410641D01*
X478269Y410923D01*
X478145Y411201D01*
X478015Y411477D01*
X478016Y411477D02*
X477978Y411580D01*
X477938Y411682D01*
X477893Y411782D01*
X477845Y411881D01*
X477794Y411978D01*
X477740Y412073D01*
X477682Y412167D01*
X477621Y412258D01*
X477557Y412347D01*
X477490Y412434D01*
X477420Y412518D01*
X477347Y412600D01*
X477271Y412680D01*
X477193Y412757D01*
X477112Y412831D01*
X477028Y412902D01*
X476942Y412970D01*
X476854Y413036D01*
X476764Y413098D01*
X476671Y413157D01*
X476577Y413213D01*
X476481Y413266D01*
X476383Y413315D01*
X476283Y413361D01*
X476182Y413403D01*
X476079Y413442D01*
X475975Y413477D01*
X475870Y413509D01*
X475764Y413537D01*
X475657Y413561D01*
X475549Y413582D01*
X475441Y413599D01*
X475332Y413612D01*
X475222Y413621D01*
X475113Y413627D01*
X475003Y413629D01*
X474893Y413627D01*
X474784Y413621D01*
X474674Y413612D01*
X474565Y413599D01*
X474457Y413582D01*
X474349Y413561D01*
X474242Y413537D01*
X474136Y413509D01*
X474031Y413477D01*
X473927Y413442D01*
X473824Y413403D01*
X473723Y413361D01*
X473623Y413315D01*
X473525Y413266D01*
X473429Y413213D01*
X473335Y413157D01*
X473242Y413098D01*
X473152Y413036D01*
X473064Y412970D01*
X472978Y412902D01*
X472894Y412831D01*
X472813Y412757D01*
X472735Y412680D01*
X472659Y412601D01*
X472586Y412518D01*
X472516Y412434D01*
X472449Y412347D01*
X472385Y412258D01*
X472324Y412167D01*
X472266Y412073D01*
X472212Y411978D01*
X472161Y411881D01*
X472113Y411782D01*
X472068Y411682D01*
X472028Y411580D01*
X471990Y411477D01*
X471860Y411201D01*
X471736Y410923D01*
X471619Y410641D01*
X471509Y410357D01*
X471406Y410070D01*
X471309Y409781D01*
X471219Y409490D01*
X471137Y409197D01*
X471061Y408901D01*
X470993Y408604D01*
X470931Y408306D01*
X470877Y408006D01*
X470830Y407705D01*
X470790Y407402D01*
X470757Y407099D01*
X470732Y406796D01*
X470714Y406491D01*
X470703Y406187D01*
X470699Y405882D01*
X479306Y405882D02*
X479302Y405577D01*
X479291Y405273D01*
X479273Y404968D01*
X479248Y404665D01*
X479215Y404362D01*
X479175Y404059D01*
X479128Y403758D01*
X479074Y403458D01*
X479012Y403160D01*
X478944Y402863D01*
X478868Y402567D01*
X478786Y402274D01*
X478696Y401983D01*
X478599Y401694D01*
X478496Y401407D01*
X478386Y401123D01*
X478269Y400841D01*
X478145Y400563D01*
X478015Y400287D01*
X478016Y400287D02*
X477978Y400184D01*
X477938Y400082D01*
X477893Y399982D01*
X477845Y399883D01*
X477794Y399786D01*
X477740Y399691D01*
X477682Y399597D01*
X477621Y399506D01*
X477557Y399417D01*
X477490Y399330D01*
X477420Y399246D01*
X477347Y399163D01*
X477271Y399084D01*
X477193Y399007D01*
X477112Y398933D01*
X477028Y398862D01*
X476942Y398794D01*
X476854Y398728D01*
X476764Y398666D01*
X476671Y398607D01*
X476577Y398551D01*
X476481Y398498D01*
X476383Y398449D01*
X476283Y398403D01*
X476182Y398361D01*
X476079Y398322D01*
X475975Y398287D01*
X475870Y398255D01*
X475764Y398227D01*
X475657Y398203D01*
X475549Y398182D01*
X475441Y398165D01*
X475332Y398152D01*
X475222Y398143D01*
X475113Y398137D01*
X475003Y398135D01*
X471990Y400287D02*
X471860Y400563D01*
X471736Y400841D01*
X471619Y401123D01*
X471509Y401407D01*
X471406Y401694D01*
X471309Y401983D01*
X471219Y402274D01*
X471137Y402567D01*
X471061Y402863D01*
X470993Y403160D01*
X470931Y403458D01*
X470877Y403758D01*
X470830Y404059D01*
X470790Y404362D01*
X470757Y404665D01*
X470732Y404968D01*
X470714Y405273D01*
X470703Y405577D01*
X470699Y405882D01*
X471990Y400287D02*
X472028Y400184D01*
X472068Y400082D01*
X472113Y399982D01*
X472161Y399883D01*
X472212Y399786D01*
X472266Y399691D01*
X472324Y399597D01*
X472385Y399506D01*
X472449Y399417D01*
X472516Y399330D01*
X472586Y399245D01*
X472659Y399163D01*
X472735Y399084D01*
X472813Y399007D01*
X472894Y398933D01*
X472978Y398862D01*
X473064Y398794D01*
X473152Y398728D01*
X473242Y398666D01*
X473335Y398607D01*
X473429Y398551D01*
X473525Y398498D01*
X473624Y398449D01*
X473723Y398403D01*
X473824Y398361D01*
X473927Y398322D01*
X474031Y398287D01*
X474136Y398255D01*
X474242Y398227D01*
X474349Y398203D01*
X474457Y398182D01*
X474565Y398165D01*
X474674Y398152D01*
X474784Y398143D01*
X474893Y398137D01*
X475003Y398135D01*
X478446Y401578D02*
X471559Y410186D01*
X455820Y406743D02*
X451516Y406743D01*
X451386Y406741D01*
X451256Y406735D01*
X451126Y406725D01*
X450997Y406712D01*
X450868Y406694D01*
X450740Y406673D01*
X450613Y406647D01*
X450486Y406618D01*
X450360Y406585D01*
X450236Y406548D01*
X450112Y406508D01*
X449990Y406463D01*
X449869Y406415D01*
X449750Y406364D01*
X449632Y406309D01*
X449516Y406250D01*
X449402Y406188D01*
X449289Y406122D01*
X449179Y406053D01*
X449071Y405981D01*
X448965Y405906D01*
X448862Y405827D01*
X448761Y405745D01*
X448662Y405661D01*
X448566Y405573D01*
X448473Y405482D01*
X448382Y405389D01*
X448294Y405293D01*
X448210Y405194D01*
X448128Y405093D01*
X448049Y404990D01*
X447974Y404884D01*
X447902Y404776D01*
X447833Y404666D01*
X447767Y404553D01*
X447705Y404439D01*
X447646Y404323D01*
X447591Y404205D01*
X447540Y404086D01*
X447492Y403965D01*
X447447Y403843D01*
X447407Y403719D01*
X447370Y403595D01*
X447337Y403469D01*
X447308Y403342D01*
X447282Y403215D01*
X447261Y403087D01*
X447243Y402958D01*
X447230Y402829D01*
X447220Y402699D01*
X447214Y402569D01*
X447212Y402439D01*
X447214Y402309D01*
X447220Y402179D01*
X447230Y402049D01*
X447243Y401920D01*
X447261Y401791D01*
X447282Y401663D01*
X447308Y401536D01*
X447337Y401409D01*
X447370Y401283D01*
X447407Y401159D01*
X447447Y401035D01*
X447492Y400913D01*
X447540Y400792D01*
X447591Y400673D01*
X447646Y400555D01*
X447705Y400439D01*
X447767Y400325D01*
X447833Y400212D01*
X447902Y400102D01*
X447974Y399994D01*
X448049Y399888D01*
X448128Y399785D01*
X448210Y399684D01*
X448294Y399585D01*
X448382Y399489D01*
X448473Y399396D01*
X448566Y399305D01*
X448662Y399217D01*
X448761Y399133D01*
X448862Y399051D01*
X448965Y398972D01*
X449071Y398897D01*
X449179Y398825D01*
X449289Y398756D01*
X449402Y398690D01*
X449516Y398628D01*
X449632Y398569D01*
X449750Y398514D01*
X449869Y398463D01*
X449990Y398415D01*
X450112Y398370D01*
X450236Y398330D01*
X450360Y398293D01*
X450486Y398260D01*
X450613Y398231D01*
X450740Y398205D01*
X450868Y398184D01*
X450997Y398166D01*
X451126Y398153D01*
X451256Y398143D01*
X451386Y398137D01*
X451516Y398135D01*
X455820Y398135D01*
X455820Y413629D01*
X451516Y413629D01*
X451400Y413627D01*
X451284Y413621D01*
X451168Y413611D01*
X451052Y413598D01*
X450937Y413580D01*
X450823Y413559D01*
X450709Y413533D01*
X450597Y413504D01*
X450485Y413471D01*
X450375Y413434D01*
X450266Y413394D01*
X450158Y413350D01*
X450052Y413302D01*
X449948Y413251D01*
X449845Y413196D01*
X449744Y413138D01*
X449646Y413077D01*
X449549Y413012D01*
X449455Y412944D01*
X449363Y412873D01*
X449273Y412798D01*
X449186Y412721D01*
X449102Y412641D01*
X449021Y412558D01*
X448942Y412472D01*
X448866Y412384D01*
X448793Y412293D01*
X448724Y412200D01*
X448657Y412105D01*
X448594Y412007D01*
X448534Y411908D01*
X448478Y411806D01*
X448425Y411702D01*
X448375Y411597D01*
X448330Y411490D01*
X448287Y411382D01*
X448249Y411272D01*
X448214Y411161D01*
X448183Y411049D01*
X448156Y410936D01*
X448132Y410822D01*
X448113Y410707D01*
X448097Y410592D01*
X448085Y410476D01*
X448077Y410360D01*
X448073Y410244D01*
X448073Y410128D01*
X448077Y410012D01*
X448085Y409896D01*
X448097Y409780D01*
X448113Y409665D01*
X448132Y409550D01*
X448156Y409436D01*
X448183Y409323D01*
X448214Y409211D01*
X448249Y409100D01*
X448287Y408990D01*
X448330Y408882D01*
X448375Y408775D01*
X448425Y408670D01*
X448478Y408566D01*
X448534Y408465D01*
X448594Y408365D01*
X448657Y408267D01*
X448724Y408172D01*
X448793Y408079D01*
X448866Y407988D01*
X448942Y407900D01*
X449021Y407814D01*
X449102Y407731D01*
X449186Y407651D01*
X449273Y407574D01*
X449363Y407499D01*
X449455Y407428D01*
X449549Y407360D01*
X449646Y407295D01*
X449744Y407234D01*
X449845Y407176D01*
X449948Y407121D01*
X450052Y407070D01*
X450158Y407022D01*
X450266Y406978D01*
X450375Y406938D01*
X450485Y406901D01*
X450597Y406868D01*
X450709Y406839D01*
X450823Y406813D01*
X450937Y406792D01*
X451052Y406774D01*
X451168Y406761D01*
X451284Y406751D01*
X451400Y406745D01*
X451516Y406743D01*
X441647Y409325D02*
X441647Y402439D01*
X441647Y409325D02*
X441645Y409455D01*
X441639Y409585D01*
X441629Y409715D01*
X441616Y409844D01*
X441598Y409973D01*
X441577Y410101D01*
X441551Y410228D01*
X441522Y410355D01*
X441489Y410481D01*
X441452Y410605D01*
X441412Y410729D01*
X441367Y410851D01*
X441319Y410972D01*
X441268Y411091D01*
X441213Y411209D01*
X441154Y411325D01*
X441092Y411439D01*
X441026Y411552D01*
X440957Y411662D01*
X440885Y411770D01*
X440810Y411876D01*
X440731Y411979D01*
X440649Y412080D01*
X440565Y412179D01*
X440477Y412275D01*
X440386Y412368D01*
X440293Y412459D01*
X440197Y412547D01*
X440098Y412631D01*
X439997Y412713D01*
X439894Y412792D01*
X439788Y412867D01*
X439680Y412939D01*
X439570Y413008D01*
X439457Y413074D01*
X439343Y413136D01*
X439227Y413195D01*
X439109Y413250D01*
X438990Y413301D01*
X438869Y413349D01*
X438747Y413394D01*
X438623Y413434D01*
X438499Y413471D01*
X438373Y413504D01*
X438246Y413533D01*
X438119Y413559D01*
X437991Y413580D01*
X437862Y413598D01*
X437733Y413611D01*
X437603Y413621D01*
X437473Y413627D01*
X437343Y413629D01*
X437213Y413627D01*
X437083Y413621D01*
X436953Y413611D01*
X436824Y413598D01*
X436695Y413580D01*
X436567Y413559D01*
X436440Y413533D01*
X436313Y413504D01*
X436187Y413471D01*
X436063Y413434D01*
X435939Y413394D01*
X435817Y413349D01*
X435696Y413301D01*
X435577Y413250D01*
X435459Y413195D01*
X435343Y413136D01*
X435229Y413074D01*
X435116Y413008D01*
X435006Y412939D01*
X434898Y412867D01*
X434792Y412792D01*
X434689Y412713D01*
X434588Y412631D01*
X434489Y412547D01*
X434393Y412459D01*
X434300Y412368D01*
X434209Y412275D01*
X434121Y412179D01*
X434037Y412080D01*
X433955Y411979D01*
X433876Y411876D01*
X433801Y411770D01*
X433729Y411662D01*
X433660Y411552D01*
X433594Y411439D01*
X433532Y411325D01*
X433473Y411209D01*
X433418Y411091D01*
X433367Y410972D01*
X433319Y410851D01*
X433274Y410729D01*
X433234Y410605D01*
X433197Y410481D01*
X433164Y410355D01*
X433135Y410228D01*
X433109Y410101D01*
X433088Y409973D01*
X433070Y409844D01*
X433057Y409715D01*
X433047Y409585D01*
X433041Y409455D01*
X433039Y409325D01*
X433039Y402439D01*
X433041Y402309D01*
X433047Y402179D01*
X433057Y402049D01*
X433070Y401920D01*
X433088Y401791D01*
X433109Y401663D01*
X433135Y401536D01*
X433164Y401409D01*
X433197Y401283D01*
X433234Y401159D01*
X433274Y401035D01*
X433319Y400913D01*
X433367Y400792D01*
X433418Y400673D01*
X433473Y400555D01*
X433532Y400439D01*
X433594Y400325D01*
X433660Y400212D01*
X433729Y400102D01*
X433801Y399994D01*
X433876Y399888D01*
X433955Y399785D01*
X434037Y399684D01*
X434121Y399585D01*
X434209Y399489D01*
X434300Y399396D01*
X434393Y399305D01*
X434489Y399217D01*
X434588Y399133D01*
X434689Y399051D01*
X434792Y398972D01*
X434898Y398897D01*
X435006Y398825D01*
X435116Y398756D01*
X435229Y398690D01*
X435343Y398628D01*
X435459Y398569D01*
X435577Y398514D01*
X435696Y398463D01*
X435817Y398415D01*
X435939Y398370D01*
X436063Y398330D01*
X436187Y398293D01*
X436313Y398260D01*
X436440Y398231D01*
X436567Y398205D01*
X436695Y398184D01*
X436824Y398166D01*
X436953Y398153D01*
X437083Y398143D01*
X437213Y398137D01*
X437343Y398135D01*
X437473Y398137D01*
X437603Y398143D01*
X437733Y398153D01*
X437862Y398166D01*
X437991Y398184D01*
X438119Y398205D01*
X438246Y398231D01*
X438373Y398260D01*
X438499Y398293D01*
X438623Y398330D01*
X438747Y398370D01*
X438869Y398415D01*
X438990Y398463D01*
X439109Y398514D01*
X439227Y398569D01*
X439343Y398628D01*
X439457Y398690D01*
X439570Y398756D01*
X439680Y398825D01*
X439788Y398897D01*
X439894Y398972D01*
X439997Y399051D01*
X440098Y399133D01*
X440197Y399217D01*
X440293Y399305D01*
X440386Y399396D01*
X440477Y399489D01*
X440565Y399585D01*
X440649Y399684D01*
X440731Y399785D01*
X440810Y399888D01*
X440885Y399994D01*
X440957Y400102D01*
X441026Y400212D01*
X441092Y400325D01*
X441154Y400439D01*
X441213Y400555D01*
X441268Y400673D01*
X441319Y400792D01*
X441367Y400913D01*
X441412Y401035D01*
X441452Y401159D01*
X441489Y401283D01*
X441522Y401409D01*
X441551Y401536D01*
X441577Y401663D01*
X441598Y401791D01*
X441616Y401920D01*
X441629Y402049D01*
X441639Y402179D01*
X441645Y402309D01*
X441647Y402439D01*
X423468Y398135D02*
X423468Y413629D01*
X427772Y413629D02*
X419164Y413629D01*
X410584Y413629D02*
X410584Y398135D01*
X414888Y413629D02*
X406280Y413629D01*
X401013Y409325D02*
X401013Y402439D01*
X401014Y409325D02*
X401012Y409455D01*
X401006Y409585D01*
X400996Y409715D01*
X400983Y409844D01*
X400965Y409973D01*
X400944Y410101D01*
X400918Y410228D01*
X400889Y410355D01*
X400856Y410481D01*
X400819Y410605D01*
X400779Y410729D01*
X400734Y410851D01*
X400686Y410972D01*
X400635Y411091D01*
X400580Y411209D01*
X400521Y411325D01*
X400459Y411439D01*
X400393Y411552D01*
X400324Y411662D01*
X400252Y411770D01*
X400177Y411876D01*
X400098Y411979D01*
X400016Y412080D01*
X399932Y412179D01*
X399844Y412275D01*
X399753Y412368D01*
X399660Y412459D01*
X399564Y412547D01*
X399465Y412631D01*
X399364Y412713D01*
X399261Y412792D01*
X399155Y412867D01*
X399047Y412939D01*
X398937Y413008D01*
X398824Y413074D01*
X398710Y413136D01*
X398594Y413195D01*
X398476Y413250D01*
X398357Y413301D01*
X398236Y413349D01*
X398114Y413394D01*
X397990Y413434D01*
X397866Y413471D01*
X397740Y413504D01*
X397613Y413533D01*
X397486Y413559D01*
X397358Y413580D01*
X397229Y413598D01*
X397100Y413611D01*
X396970Y413621D01*
X396840Y413627D01*
X396710Y413629D01*
X396580Y413627D01*
X396450Y413621D01*
X396320Y413611D01*
X396191Y413598D01*
X396062Y413580D01*
X395934Y413559D01*
X395807Y413533D01*
X395680Y413504D01*
X395554Y413471D01*
X395430Y413434D01*
X395306Y413394D01*
X395184Y413349D01*
X395063Y413301D01*
X394944Y413250D01*
X394826Y413195D01*
X394710Y413136D01*
X394596Y413074D01*
X394483Y413008D01*
X394373Y412939D01*
X394265Y412867D01*
X394159Y412792D01*
X394056Y412713D01*
X393955Y412631D01*
X393856Y412547D01*
X393760Y412459D01*
X393667Y412368D01*
X393576Y412275D01*
X393488Y412179D01*
X393404Y412080D01*
X393322Y411979D01*
X393243Y411876D01*
X393168Y411770D01*
X393096Y411662D01*
X393027Y411552D01*
X392961Y411439D01*
X392899Y411325D01*
X392840Y411209D01*
X392785Y411091D01*
X392734Y410972D01*
X392686Y410851D01*
X392641Y410729D01*
X392601Y410605D01*
X392564Y410481D01*
X392531Y410355D01*
X392502Y410228D01*
X392476Y410101D01*
X392455Y409973D01*
X392437Y409844D01*
X392424Y409715D01*
X392414Y409585D01*
X392408Y409455D01*
X392406Y409325D01*
X392406Y402439D01*
X392408Y402309D01*
X392414Y402179D01*
X392424Y402049D01*
X392437Y401920D01*
X392455Y401791D01*
X392476Y401663D01*
X392502Y401536D01*
X392531Y401409D01*
X392564Y401283D01*
X392601Y401159D01*
X392641Y401035D01*
X392686Y400913D01*
X392734Y400792D01*
X392785Y400673D01*
X392840Y400555D01*
X392899Y400439D01*
X392961Y400325D01*
X393027Y400212D01*
X393096Y400102D01*
X393168Y399994D01*
X393243Y399888D01*
X393322Y399785D01*
X393404Y399684D01*
X393488Y399585D01*
X393576Y399489D01*
X393667Y399396D01*
X393760Y399305D01*
X393856Y399217D01*
X393955Y399133D01*
X394056Y399051D01*
X394159Y398972D01*
X394265Y398897D01*
X394373Y398825D01*
X394483Y398756D01*
X394596Y398690D01*
X394710Y398628D01*
X394826Y398569D01*
X394944Y398514D01*
X395063Y398463D01*
X395184Y398415D01*
X395306Y398370D01*
X395430Y398330D01*
X395554Y398293D01*
X395680Y398260D01*
X395807Y398231D01*
X395934Y398205D01*
X396062Y398184D01*
X396191Y398166D01*
X396320Y398153D01*
X396450Y398143D01*
X396580Y398137D01*
X396710Y398135D01*
X396840Y398137D01*
X396970Y398143D01*
X397100Y398153D01*
X397229Y398166D01*
X397358Y398184D01*
X397486Y398205D01*
X397613Y398231D01*
X397740Y398260D01*
X397866Y398293D01*
X397990Y398330D01*
X398114Y398370D01*
X398236Y398415D01*
X398357Y398463D01*
X398476Y398514D01*
X398594Y398569D01*
X398710Y398628D01*
X398824Y398690D01*
X398937Y398756D01*
X399047Y398825D01*
X399155Y398897D01*
X399261Y398972D01*
X399364Y399051D01*
X399465Y399133D01*
X399564Y399217D01*
X399660Y399305D01*
X399753Y399396D01*
X399844Y399489D01*
X399932Y399585D01*
X400016Y399684D01*
X400098Y399785D01*
X400177Y399888D01*
X400252Y399994D01*
X400324Y400102D01*
X400393Y400212D01*
X400459Y400325D01*
X400521Y400439D01*
X400580Y400555D01*
X400635Y400673D01*
X400686Y400792D01*
X400734Y400913D01*
X400779Y401035D01*
X400819Y401159D01*
X400856Y401283D01*
X400889Y401409D01*
X400918Y401536D01*
X400944Y401663D01*
X400965Y401791D01*
X400983Y401920D01*
X400996Y402049D01*
X401006Y402179D01*
X401012Y402309D01*
X401014Y402439D01*
X385522Y398135D02*
X385522Y413629D01*
X380357Y405021D01*
X375193Y413629D01*
X375193Y398135D01*
X527643Y438135D02*
X527643Y453629D01*
X529365Y438135D02*
X525922Y438135D01*
X525922Y453629D02*
X529365Y453629D01*
X520055Y449325D02*
X520055Y442439D01*
X520055Y449325D02*
X520053Y449455D01*
X520047Y449585D01*
X520037Y449715D01*
X520024Y449844D01*
X520006Y449973D01*
X519985Y450101D01*
X519959Y450228D01*
X519930Y450355D01*
X519897Y450481D01*
X519860Y450605D01*
X519820Y450729D01*
X519775Y450851D01*
X519727Y450972D01*
X519676Y451091D01*
X519621Y451209D01*
X519562Y451325D01*
X519500Y451439D01*
X519434Y451552D01*
X519365Y451662D01*
X519293Y451770D01*
X519218Y451876D01*
X519139Y451979D01*
X519057Y452080D01*
X518973Y452179D01*
X518885Y452275D01*
X518794Y452368D01*
X518701Y452459D01*
X518605Y452547D01*
X518506Y452631D01*
X518405Y452713D01*
X518302Y452792D01*
X518196Y452867D01*
X518088Y452939D01*
X517978Y453008D01*
X517865Y453074D01*
X517751Y453136D01*
X517635Y453195D01*
X517517Y453250D01*
X517398Y453301D01*
X517277Y453349D01*
X517155Y453394D01*
X517031Y453434D01*
X516907Y453471D01*
X516781Y453504D01*
X516654Y453533D01*
X516527Y453559D01*
X516399Y453580D01*
X516270Y453598D01*
X516141Y453611D01*
X516011Y453621D01*
X515881Y453627D01*
X515751Y453629D01*
X515621Y453627D01*
X515491Y453621D01*
X515361Y453611D01*
X515232Y453598D01*
X515103Y453580D01*
X514975Y453559D01*
X514848Y453533D01*
X514721Y453504D01*
X514595Y453471D01*
X514471Y453434D01*
X514347Y453394D01*
X514225Y453349D01*
X514104Y453301D01*
X513985Y453250D01*
X513867Y453195D01*
X513751Y453136D01*
X513637Y453074D01*
X513524Y453008D01*
X513414Y452939D01*
X513306Y452867D01*
X513200Y452792D01*
X513097Y452713D01*
X512996Y452631D01*
X512897Y452547D01*
X512801Y452459D01*
X512708Y452368D01*
X512617Y452275D01*
X512529Y452179D01*
X512445Y452080D01*
X512363Y451979D01*
X512284Y451876D01*
X512209Y451770D01*
X512137Y451662D01*
X512068Y451552D01*
X512002Y451439D01*
X511940Y451325D01*
X511881Y451209D01*
X511826Y451091D01*
X511775Y450972D01*
X511727Y450851D01*
X511682Y450729D01*
X511642Y450605D01*
X511605Y450481D01*
X511572Y450355D01*
X511543Y450228D01*
X511517Y450101D01*
X511496Y449973D01*
X511478Y449844D01*
X511465Y449715D01*
X511455Y449585D01*
X511449Y449455D01*
X511447Y449325D01*
X511447Y442439D01*
X511449Y442309D01*
X511455Y442179D01*
X511465Y442049D01*
X511478Y441920D01*
X511496Y441791D01*
X511517Y441663D01*
X511543Y441536D01*
X511572Y441409D01*
X511605Y441283D01*
X511642Y441159D01*
X511682Y441035D01*
X511727Y440913D01*
X511775Y440792D01*
X511826Y440673D01*
X511881Y440555D01*
X511940Y440439D01*
X512002Y440325D01*
X512068Y440212D01*
X512137Y440102D01*
X512209Y439994D01*
X512284Y439888D01*
X512363Y439785D01*
X512445Y439684D01*
X512529Y439585D01*
X512617Y439489D01*
X512708Y439396D01*
X512801Y439305D01*
X512897Y439217D01*
X512996Y439133D01*
X513097Y439051D01*
X513200Y438972D01*
X513306Y438897D01*
X513414Y438825D01*
X513524Y438756D01*
X513637Y438690D01*
X513751Y438628D01*
X513867Y438569D01*
X513985Y438514D01*
X514104Y438463D01*
X514225Y438415D01*
X514347Y438370D01*
X514471Y438330D01*
X514595Y438293D01*
X514721Y438260D01*
X514848Y438231D01*
X514975Y438205D01*
X515103Y438184D01*
X515232Y438166D01*
X515361Y438153D01*
X515491Y438143D01*
X515621Y438137D01*
X515751Y438135D01*
X515881Y438137D01*
X516011Y438143D01*
X516141Y438153D01*
X516270Y438166D01*
X516399Y438184D01*
X516527Y438205D01*
X516654Y438231D01*
X516781Y438260D01*
X516907Y438293D01*
X517031Y438330D01*
X517155Y438370D01*
X517277Y438415D01*
X517398Y438463D01*
X517517Y438514D01*
X517635Y438569D01*
X517751Y438628D01*
X517865Y438690D01*
X517978Y438756D01*
X518088Y438825D01*
X518196Y438897D01*
X518302Y438972D01*
X518405Y439051D01*
X518506Y439133D01*
X518605Y439217D01*
X518701Y439305D01*
X518794Y439396D01*
X518885Y439489D01*
X518973Y439585D01*
X519057Y439684D01*
X519139Y439785D01*
X519218Y439888D01*
X519293Y439994D01*
X519365Y440102D01*
X519434Y440212D01*
X519500Y440325D01*
X519562Y440439D01*
X519621Y440555D01*
X519676Y440673D01*
X519727Y440792D01*
X519775Y440913D01*
X519820Y441035D01*
X519860Y441159D01*
X519897Y441283D01*
X519930Y441409D01*
X519959Y441536D01*
X519985Y441663D01*
X520006Y441791D01*
X520024Y441920D01*
X520037Y442049D01*
X520047Y442179D01*
X520053Y442309D01*
X520055Y442439D01*
X501876Y438135D02*
X501876Y453629D01*
X506180Y453629D02*
X497572Y453629D01*
X491783Y438135D02*
X484896Y438135D01*
X491783Y438135D02*
X491783Y453629D01*
X484896Y453629D01*
X486618Y446743D02*
X491783Y446743D01*
X476016Y438135D02*
X472573Y438135D01*
X476016Y438135D02*
X476131Y438137D01*
X476246Y438143D01*
X476361Y438152D01*
X476475Y438166D01*
X476589Y438183D01*
X476702Y438204D01*
X476814Y438229D01*
X476926Y438257D01*
X477036Y438290D01*
X477145Y438326D01*
X477253Y438365D01*
X477360Y438408D01*
X477465Y438455D01*
X477569Y438505D01*
X477671Y438559D01*
X477771Y438616D01*
X477869Y438676D01*
X477965Y438739D01*
X478058Y438806D01*
X478150Y438876D01*
X478239Y438949D01*
X478326Y439025D01*
X478410Y439103D01*
X478491Y439184D01*
X478570Y439269D01*
X478645Y439355D01*
X478718Y439444D01*
X478788Y439536D01*
X478855Y439629D01*
X478918Y439725D01*
X478978Y439823D01*
X479035Y439923D01*
X479089Y440025D01*
X479139Y440129D01*
X479186Y440234D01*
X479229Y440341D01*
X479269Y440449D01*
X479304Y440558D01*
X479337Y440668D01*
X479365Y440780D01*
X479390Y440892D01*
X479411Y441005D01*
X479428Y441119D01*
X479442Y441233D01*
X479451Y441348D01*
X479457Y441463D01*
X479459Y441578D01*
X479459Y450186D01*
X479457Y450301D01*
X479451Y450416D01*
X479442Y450531D01*
X479428Y450645D01*
X479411Y450759D01*
X479390Y450872D01*
X479365Y450984D01*
X479337Y451096D01*
X479304Y451206D01*
X479269Y451315D01*
X479229Y451423D01*
X479186Y451530D01*
X479139Y451635D01*
X479089Y451739D01*
X479035Y451841D01*
X478978Y451941D01*
X478918Y452039D01*
X478855Y452135D01*
X478788Y452228D01*
X478718Y452320D01*
X478645Y452409D01*
X478570Y452495D01*
X478491Y452580D01*
X478410Y452661D01*
X478326Y452739D01*
X478239Y452815D01*
X478150Y452888D01*
X478058Y452958D01*
X477965Y453025D01*
X477869Y453088D01*
X477771Y453148D01*
X477671Y453205D01*
X477569Y453259D01*
X477465Y453309D01*
X477360Y453356D01*
X477253Y453399D01*
X477145Y453438D01*
X477036Y453474D01*
X476926Y453507D01*
X476814Y453535D01*
X476702Y453560D01*
X476589Y453581D01*
X476475Y453598D01*
X476361Y453612D01*
X476246Y453621D01*
X476131Y453627D01*
X476016Y453629D01*
X472573Y453629D01*
X466538Y453629D02*
X466538Y438135D01*
X466538Y446743D02*
X457930Y446743D01*
X457930Y453629D02*
X457930Y438135D01*
X438514Y453630D02*
X438392Y453628D01*
X438271Y453622D01*
X438149Y453613D01*
X438028Y453599D01*
X437908Y453582D01*
X437788Y453561D01*
X437669Y453537D01*
X437551Y453508D01*
X437433Y453476D01*
X437317Y453440D01*
X437202Y453401D01*
X437088Y453358D01*
X436975Y453311D01*
X436865Y453261D01*
X436755Y453208D01*
X436648Y453151D01*
X436542Y453091D01*
X436438Y453027D01*
X436336Y452960D01*
X436237Y452890D01*
X436140Y452817D01*
X436045Y452741D01*
X435952Y452662D01*
X435862Y452580D01*
X435775Y452495D01*
X435690Y452408D01*
X435608Y452318D01*
X435529Y452225D01*
X435453Y452130D01*
X435380Y452033D01*
X435310Y451934D01*
X435243Y451832D01*
X435179Y451728D01*
X435119Y451622D01*
X435062Y451515D01*
X435009Y451405D01*
X434959Y451295D01*
X434912Y451182D01*
X434869Y451068D01*
X434830Y450953D01*
X434794Y450837D01*
X434762Y450719D01*
X434733Y450601D01*
X434709Y450482D01*
X434688Y450362D01*
X434671Y450242D01*
X434657Y450121D01*
X434648Y449999D01*
X434642Y449878D01*
X434640Y449756D01*
X438514Y453629D02*
X438653Y453627D01*
X438792Y453621D01*
X438931Y453612D01*
X439069Y453598D01*
X439207Y453580D01*
X439344Y453559D01*
X439481Y453534D01*
X439617Y453505D01*
X439752Y453472D01*
X439887Y453436D01*
X440020Y453396D01*
X440152Y453352D01*
X440282Y453304D01*
X440412Y453253D01*
X440539Y453198D01*
X440666Y453140D01*
X440790Y453078D01*
X440913Y453013D01*
X441034Y452944D01*
X441153Y452872D01*
X441270Y452796D01*
X441384Y452718D01*
X441497Y452636D01*
X441607Y452551D01*
X441715Y452463D01*
X441820Y452372D01*
X441922Y452278D01*
X442022Y452182D01*
X442120Y452082D01*
X442214Y451980D01*
X442306Y451876D01*
X442394Y451768D01*
X442480Y451659D01*
X442562Y451547D01*
X442641Y451432D01*
X442717Y451316D01*
X442790Y451198D01*
X442860Y451077D01*
X442926Y450955D01*
X442988Y450830D01*
X443047Y450705D01*
X443103Y450577D01*
X443155Y450448D01*
X443203Y450318D01*
X443248Y450186D01*
X435931Y446743D02*
X435842Y446830D01*
X435756Y446920D01*
X435672Y447013D01*
X435591Y447108D01*
X435513Y447205D01*
X435438Y447305D01*
X435366Y447407D01*
X435297Y447511D01*
X435232Y447617D01*
X435169Y447725D01*
X435110Y447835D01*
X435054Y447947D01*
X435001Y448060D01*
X434952Y448174D01*
X434907Y448291D01*
X434864Y448408D01*
X434826Y448527D01*
X434791Y448646D01*
X434759Y448767D01*
X434731Y448889D01*
X434707Y449011D01*
X434687Y449134D01*
X434670Y449258D01*
X434657Y449382D01*
X434647Y449507D01*
X434642Y449631D01*
X434640Y449756D01*
X435932Y446743D02*
X443248Y438135D01*
X434640Y438135D01*
X428382Y445882D02*
X428378Y446187D01*
X428367Y446491D01*
X428349Y446796D01*
X428324Y447099D01*
X428291Y447402D01*
X428251Y447705D01*
X428204Y448006D01*
X428150Y448306D01*
X428088Y448604D01*
X428020Y448901D01*
X427944Y449197D01*
X427862Y449490D01*
X427772Y449781D01*
X427675Y450070D01*
X427572Y450357D01*
X427462Y450641D01*
X427345Y450923D01*
X427221Y451201D01*
X427091Y451477D01*
X427092Y451477D02*
X427054Y451580D01*
X427014Y451682D01*
X426969Y451782D01*
X426921Y451881D01*
X426870Y451978D01*
X426816Y452073D01*
X426758Y452167D01*
X426697Y452258D01*
X426633Y452347D01*
X426566Y452434D01*
X426496Y452518D01*
X426423Y452600D01*
X426347Y452680D01*
X426269Y452757D01*
X426188Y452831D01*
X426104Y452902D01*
X426018Y452970D01*
X425930Y453036D01*
X425840Y453098D01*
X425747Y453157D01*
X425653Y453213D01*
X425557Y453266D01*
X425459Y453315D01*
X425359Y453361D01*
X425258Y453403D01*
X425155Y453442D01*
X425051Y453477D01*
X424946Y453509D01*
X424840Y453537D01*
X424733Y453561D01*
X424625Y453582D01*
X424517Y453599D01*
X424408Y453612D01*
X424298Y453621D01*
X424189Y453627D01*
X424079Y453629D01*
X423969Y453627D01*
X423860Y453621D01*
X423750Y453612D01*
X423641Y453599D01*
X423533Y453582D01*
X423425Y453561D01*
X423318Y453537D01*
X423212Y453509D01*
X423107Y453477D01*
X423003Y453442D01*
X422900Y453403D01*
X422799Y453361D01*
X422699Y453315D01*
X422601Y453266D01*
X422505Y453213D01*
X422411Y453157D01*
X422318Y453098D01*
X422228Y453036D01*
X422140Y452970D01*
X422054Y452902D01*
X421970Y452831D01*
X421889Y452757D01*
X421811Y452680D01*
X421735Y452601D01*
X421662Y452518D01*
X421592Y452434D01*
X421525Y452347D01*
X421461Y452258D01*
X421400Y452167D01*
X421342Y452073D01*
X421288Y451978D01*
X421237Y451881D01*
X421189Y451782D01*
X421144Y451682D01*
X421104Y451580D01*
X421066Y451477D01*
X420936Y451201D01*
X420812Y450923D01*
X420695Y450641D01*
X420585Y450357D01*
X420482Y450070D01*
X420385Y449781D01*
X420295Y449490D01*
X420213Y449197D01*
X420137Y448901D01*
X420069Y448604D01*
X420007Y448306D01*
X419953Y448006D01*
X419906Y447705D01*
X419866Y447402D01*
X419833Y447099D01*
X419808Y446796D01*
X419790Y446491D01*
X419779Y446187D01*
X419775Y445882D01*
X428382Y445882D02*
X428378Y445577D01*
X428367Y445273D01*
X428349Y444968D01*
X428324Y444665D01*
X428291Y444362D01*
X428251Y444059D01*
X428204Y443758D01*
X428150Y443458D01*
X428088Y443160D01*
X428020Y442863D01*
X427944Y442567D01*
X427862Y442274D01*
X427772Y441983D01*
X427675Y441694D01*
X427572Y441407D01*
X427462Y441123D01*
X427345Y440841D01*
X427221Y440563D01*
X427091Y440287D01*
X427092Y440287D02*
X427054Y440184D01*
X427014Y440082D01*
X426969Y439982D01*
X426921Y439883D01*
X426870Y439786D01*
X426816Y439691D01*
X426758Y439597D01*
X426697Y439506D01*
X426633Y439417D01*
X426566Y439330D01*
X426496Y439246D01*
X426423Y439163D01*
X426347Y439084D01*
X426269Y439007D01*
X426188Y438933D01*
X426104Y438862D01*
X426018Y438794D01*
X425930Y438728D01*
X425840Y438666D01*
X425747Y438607D01*
X425653Y438551D01*
X425557Y438498D01*
X425459Y438449D01*
X425359Y438403D01*
X425258Y438361D01*
X425155Y438322D01*
X425051Y438287D01*
X424946Y438255D01*
X424840Y438227D01*
X424733Y438203D01*
X424625Y438182D01*
X424517Y438165D01*
X424408Y438152D01*
X424298Y438143D01*
X424189Y438137D01*
X424079Y438135D01*
X421066Y440287D02*
X420936Y440563D01*
X420812Y440841D01*
X420695Y441123D01*
X420585Y441407D01*
X420482Y441694D01*
X420385Y441983D01*
X420295Y442274D01*
X420213Y442567D01*
X420137Y442863D01*
X420069Y443160D01*
X420007Y443458D01*
X419953Y443758D01*
X419906Y444059D01*
X419866Y444362D01*
X419833Y444665D01*
X419808Y444968D01*
X419790Y445273D01*
X419779Y445577D01*
X419775Y445882D01*
X421066Y440287D02*
X421104Y440184D01*
X421144Y440082D01*
X421189Y439982D01*
X421237Y439883D01*
X421288Y439786D01*
X421342Y439691D01*
X421400Y439597D01*
X421461Y439506D01*
X421525Y439417D01*
X421592Y439330D01*
X421662Y439245D01*
X421735Y439163D01*
X421811Y439084D01*
X421889Y439007D01*
X421970Y438933D01*
X422054Y438862D01*
X422140Y438794D01*
X422228Y438728D01*
X422318Y438666D01*
X422411Y438607D01*
X422505Y438551D01*
X422601Y438498D01*
X422700Y438449D01*
X422799Y438403D01*
X422900Y438361D01*
X423003Y438322D01*
X423107Y438287D01*
X423212Y438255D01*
X423318Y438227D01*
X423425Y438203D01*
X423533Y438182D01*
X423641Y438165D01*
X423750Y438152D01*
X423860Y438143D01*
X423969Y438137D01*
X424079Y438135D01*
X427522Y441578D02*
X420635Y450186D01*
X413517Y450186D02*
X409213Y453629D01*
X409213Y438135D01*
X413517Y438135D02*
X404909Y438135D01*
X398651Y451907D02*
X398651Y453629D01*
X390043Y453629D01*
X394347Y438135D01*
D11*
X552500Y447500D02*
X560000Y455000D01*
X547500Y442500D02*
X540000Y435000D01*
X552500Y447500D02*
X552500Y455000D01*
X547500Y442500D02*
X547500Y435000D01*
X550000Y435000D02*
X550000Y455000D01*
X557500Y457500D02*
X557198Y457676D01*
X556892Y457844D01*
X556581Y458005D01*
X556267Y458158D01*
X555949Y458303D01*
X555628Y458441D01*
X555303Y458571D01*
X554976Y458693D01*
X554645Y458806D01*
X554312Y458912D01*
X553976Y459010D01*
X553638Y459099D01*
X553298Y459180D01*
X552957Y459253D01*
X552613Y459318D01*
X552268Y459374D01*
X551922Y459421D01*
X551574Y459461D01*
X551226Y459491D01*
X550877Y459514D01*
X550528Y459528D01*
X550179Y459533D01*
X549829Y459530D01*
X549480Y459518D01*
X549131Y459498D01*
X548783Y459469D01*
X548435Y459432D01*
X548088Y459386D01*
X547743Y459332D01*
X547399Y459270D01*
X547057Y459199D01*
X546716Y459120D01*
X546378Y459033D01*
X546042Y458937D01*
X545708Y458834D01*
X545377Y458722D01*
X545048Y458602D01*
X544723Y458474D01*
X544401Y458339D01*
X544082Y458195D01*
X543767Y458044D01*
X543456Y457885D01*
X543148Y457719D01*
X542845Y457545D01*
X542546Y457364D01*
X542252Y457176D01*
X541962Y456980D01*
X541677Y456778D01*
X541397Y456568D01*
X541122Y456352D01*
X540853Y456130D01*
X540589Y455901D01*
X540331Y455665D01*
X540078Y455423D01*
X539832Y455175D01*
X539591Y454922D01*
X539357Y454662D01*
X539129Y454397D01*
X538908Y454126D01*
X538693Y453851D01*
X538486Y453570D01*
X538285Y453284D01*
X538091Y452993D01*
X537904Y452697D01*
X537725Y452397D01*
X537552Y452093D01*
X537388Y451785D01*
X537231Y451473D01*
X537081Y451157D01*
X536939Y450837D01*
X536805Y450514D01*
X536679Y450188D01*
X536561Y449859D01*
X536451Y449528D01*
X536349Y449193D01*
X536255Y448857D01*
X536170Y448518D01*
X536093Y448177D01*
X536024Y447834D01*
X535963Y447490D01*
X535911Y447144D01*
X535867Y446797D01*
X535832Y446450D01*
X535805Y446101D01*
X535787Y445752D01*
X535777Y445403D01*
X535775Y445053D01*
X535783Y444704D01*
X535798Y444355D01*
X535823Y444006D01*
X535855Y443658D01*
X535896Y443311D01*
X535946Y442965D01*
X536004Y442620D01*
X536070Y442277D01*
X536145Y441935D01*
X536228Y441596D01*
X536319Y441258D01*
X536418Y440923D01*
X536526Y440591D01*
X536641Y440261D01*
X536765Y439934D01*
X536896Y439610D01*
X537036Y439289D01*
X537183Y438972D01*
X537337Y438659D01*
X537500Y438349D01*
X537670Y438044D01*
X537847Y437743D01*
X538031Y437446D01*
X538223Y437153D01*
X538422Y436866D01*
X538627Y436583D01*
X538840Y436306D01*
X539059Y436033D01*
X539285Y435767D01*
X539517Y435505D01*
X539755Y435250D01*
X540000Y435000D01*
X542500Y432500D02*
X542802Y432324D01*
X543108Y432156D01*
X543419Y431995D01*
X543733Y431842D01*
X544051Y431697D01*
X544372Y431559D01*
X544697Y431429D01*
X545024Y431307D01*
X545355Y431194D01*
X545688Y431088D01*
X546024Y430990D01*
X546362Y430901D01*
X546702Y430820D01*
X547043Y430747D01*
X547387Y430682D01*
X547732Y430626D01*
X548078Y430579D01*
X548426Y430539D01*
X548774Y430509D01*
X549123Y430486D01*
X549472Y430472D01*
X549821Y430467D01*
X550171Y430470D01*
X550520Y430482D01*
X550869Y430502D01*
X551217Y430531D01*
X551565Y430568D01*
X551912Y430614D01*
X552257Y430668D01*
X552601Y430730D01*
X552943Y430801D01*
X553284Y430880D01*
X553622Y430967D01*
X553958Y431063D01*
X554292Y431166D01*
X554623Y431278D01*
X554952Y431398D01*
X555277Y431526D01*
X555599Y431661D01*
X555918Y431805D01*
X556233Y431956D01*
X556544Y432115D01*
X556852Y432281D01*
X557155Y432455D01*
X557454Y432636D01*
X557748Y432824D01*
X558038Y433020D01*
X558323Y433222D01*
X558603Y433432D01*
X558878Y433648D01*
X559147Y433870D01*
X559411Y434099D01*
X559669Y434335D01*
X559922Y434577D01*
X560168Y434825D01*
X560409Y435078D01*
X560643Y435338D01*
X560871Y435603D01*
X561092Y435874D01*
X561307Y436149D01*
X561514Y436430D01*
X561715Y436716D01*
X561909Y437007D01*
X562096Y437303D01*
X562275Y437603D01*
X562448Y437907D01*
X562612Y438215D01*
X562769Y438527D01*
X562919Y438843D01*
X563061Y439163D01*
X563195Y439486D01*
X563321Y439812D01*
X563439Y440141D01*
X563549Y440472D01*
X563651Y440807D01*
X563745Y441143D01*
X563830Y441482D01*
X563907Y441823D01*
X563976Y442166D01*
X564037Y442510D01*
X564089Y442856D01*
X564133Y443203D01*
X564168Y443550D01*
X564195Y443899D01*
X564213Y444248D01*
X564223Y444597D01*
X564225Y444947D01*
X564217Y445296D01*
X564202Y445645D01*
X564177Y445994D01*
X564145Y446342D01*
X564104Y446689D01*
X564054Y447035D01*
X563996Y447380D01*
X563930Y447723D01*
X563855Y448065D01*
X563772Y448404D01*
X563681Y448742D01*
X563582Y449077D01*
X563474Y449409D01*
X563359Y449739D01*
X563235Y450066D01*
X563104Y450390D01*
X562964Y450711D01*
X562817Y451028D01*
X562663Y451341D01*
X562500Y451651D01*
X562330Y451956D01*
X562153Y452257D01*
X561969Y452554D01*
X561777Y452847D01*
X561578Y453134D01*
X561373Y453417D01*
X561160Y453694D01*
X560941Y453967D01*
X560715Y454233D01*
X560483Y454495D01*
X560245Y454750D01*
X560000Y455000D01*
M02*
