M48
;GenerationSoftware,Autodesk,EAGLE,9.1.3*%
;CreationDate,2018-09-12T09:22:54Z*%
FMAT,2
ICI,OFF
METRIC,TZ,000.000
T9C0.350
T8C0.800
T7C0.914
T6C1.016
T5C1.397
T4C1.400
T3C2.032
T2C3.000
T1C3.500
%
G90
M71
T1
X75300Y29620
X75300Y41020
T2
X17250Y83250
X67250Y83250
X17250Y13250
X67250Y13250
T3
X81000Y10000
X76428Y10000
T4
X72270Y43065
X72270Y27575
T5
X7080Y31950
X6830Y70130
X6830Y75210
X6830Y80290
X6830Y85370
X6830Y65050
X6830Y90450
X7080Y11630
X7080Y16710
X7080Y21790
X7080Y6550
X7080Y26870
T6
X11500Y50020
X78000Y62000
X78000Y59500
X78000Y57000
X78000Y76250
X78000Y73750
X11500Y52560
X78000Y71250
X78000Y90500
X78000Y88000
X78000Y85500
X11500Y44940
X11500Y47480
T7
X57480Y4000
X60020Y4000
T8
X37178Y20545
X68970Y35960
X34638Y12925
X34638Y20545
X34638Y15465
X34638Y18005
X80840Y41945
X80840Y39405
X80840Y31235
X80840Y28695
X66430Y39760
X66430Y34680
X66430Y32140
X68970Y38500
X68970Y33420
X68970Y30880
X37178Y18005
X37178Y15465
X37178Y12925
X66430Y37220
T9
X55209Y72251
X52454Y27043
X60414Y74088
X47351Y31125
X61230Y44086
X37350Y71333
X37350Y76333
X51127Y62353
X45514Y36432
X50617Y21533
X35513Y36840
X59291Y73680
X35207Y33983
X42249Y90518
X51841Y70006
X46637Y74088
X47351Y66333
X47555Y80211
X47555Y89804
X57658Y32248
X42759Y29697
X45514Y32452
X53576Y67047
X59495Y85314
X31431Y62659
X54291Y90518
M30