M48
;GenerationSoftware,Autodesk,EAGLE,9.1.3*%
;CreationDate,2018-09-17T09:31:37Z*%
FMAT,2
ICI,OFF
METRIC,TZ,000.000
T9C0.350
T8C0.800
T7C0.914
T6C1.016
T5C1.397
T4C1.400
T3C2.032
T2C3.000
T1C3.500
%
G90
M71
T1
X75300Y41020
X75300Y29620
T2
X17250Y83250
X67250Y83250
X17250Y13250
X67250Y13250
T3
X81000Y10000
X76428Y10000
T4
X72270Y43065
X72270Y27575
T5
X6830Y65050
X6830Y85370
X7080Y11630
X7080Y16710
X7080Y21790
X7080Y6550
X7080Y26870
X7080Y31950
X6830Y70130
X6830Y75210
X6830Y90450
X6830Y80290
T6
X78000Y85500
X11500Y44940
X11500Y47480
X11500Y50020
X11500Y52560
X65770Y53210
X65770Y55750
X65770Y58290
X63230Y53210
X63230Y55750
X78000Y62000
X63230Y58290
X78000Y57000
X78000Y59500
X78000Y76250
X78000Y73750
X78000Y71250
X78000Y90500
X78000Y88000
T7
X57480Y4000
X60020Y4000
T8
X34638Y15465
X37178Y15465
X34638Y12925
X34638Y20545
X80840Y41945
X80840Y39405
X80840Y31235
X80840Y28695
X66430Y39760
X66430Y37220
X66430Y34680
X66430Y32140
X68970Y35960
X68970Y33420
X68970Y30880
X34638Y18005
X37178Y18005
X37178Y12925
X37178Y20545
X68970Y38500
T9
X46637Y67965
X42759Y29697
X45514Y32452
X51127Y21635
X45514Y36330
X69598Y46739
X50923Y63373
X45310Y91029
X53882Y73476
X58168Y69088
X55413Y49698
X67251Y49698
X74088Y49698
X45106Y27860
X62148Y59189
X12450Y15614
X42759Y37044
X57658Y32248
X49290Y31023
X51535Y72047
X56434Y56740
X43065Y43371
X58475Y59087
X36126Y27962
X53780Y81130
X55923Y78987
X42351Y38065
X60822Y77252
X60107Y77966
X38269Y35615
X35207Y33983
X59393Y74497
X46025Y87865
X32350Y29697
X51433Y70925
X33881Y53372
X44596Y88579
X53882Y78987
X49392Y81742
X49902Y63373
X60005Y71945
M30