G04 EAGLE Gerber RS-274X export*
G75*
%MOMM*%
%FSLAX34Y34*%
%LPD*%
%AMOC8*
5,1,8,0,0,1.08239X$1,22.5*%
G01*
%ADD10C,3.203200*%
%ADD11C,2.235200*%
%ADD12C,1.625600*%
%ADD13C,1.727200*%
%ADD14R,1.511200X1.511200*%
%ADD15C,1.511200*%
%ADD16C,2.298700*%
%ADD17C,2.303200*%
%ADD18C,3.703200*%
%ADD19C,0.959600*%


D10*
X172500Y832500D03*
X672500Y832500D03*
X172500Y132500D03*
X672500Y132500D03*
D11*
X810000Y100000D03*
X764280Y100000D03*
D12*
X600200Y47112D02*
X600200Y32888D01*
X574800Y32888D02*
X574800Y47112D01*
D13*
X772380Y620000D02*
X787620Y620000D01*
X787620Y595000D02*
X772380Y595000D01*
X772380Y570000D02*
X787620Y570000D01*
X787620Y762500D02*
X772380Y762500D01*
X772380Y737500D02*
X787620Y737500D01*
X787620Y712500D02*
X772380Y712500D01*
D14*
X346375Y129250D03*
X346375Y205450D03*
D15*
X346375Y154650D03*
X346375Y180050D03*
X371775Y180050D03*
X371775Y154650D03*
X371775Y129250D03*
X371775Y205450D03*
D16*
X78778Y904500D02*
X57823Y904500D01*
X57823Y853700D02*
X78778Y853700D01*
X78778Y650500D02*
X57823Y650500D01*
X57823Y802900D02*
X78778Y802900D01*
X78778Y752100D02*
X57823Y752100D01*
X57823Y701300D02*
X78778Y701300D01*
X81278Y319500D02*
X60323Y319500D01*
X60323Y268700D02*
X81278Y268700D01*
X81278Y65500D02*
X60323Y65500D01*
X60323Y217900D02*
X81278Y217900D01*
X81278Y167100D02*
X60323Y167100D01*
X60323Y116300D02*
X81278Y116300D01*
D13*
X772380Y905000D02*
X787620Y905000D01*
X787620Y880000D02*
X772380Y880000D01*
X772380Y855000D02*
X787620Y855000D01*
D17*
X722700Y275750D03*
X722700Y430650D03*
D15*
X808400Y419450D03*
X808400Y394050D03*
X808400Y312350D03*
X808400Y286950D03*
X664300Y397600D03*
X664300Y372200D03*
X664300Y346800D03*
X664300Y321400D03*
X689700Y385000D03*
X689700Y359600D03*
X689700Y334200D03*
X689700Y308800D03*
D18*
X753000Y296200D03*
X753000Y410200D03*
D13*
X122620Y449400D02*
X107380Y449400D01*
X107380Y474800D02*
X122620Y474800D01*
X122620Y500200D02*
X107380Y500200D01*
X107380Y525600D02*
X122620Y525600D01*
D19*
X373503Y713330D03*
X373503Y763334D03*
X511271Y623526D03*
X355134Y368401D03*
X592911Y736801D03*
X352073Y339827D03*
X604136Y740883D03*
X422487Y905184D03*
X518414Y700063D03*
X473512Y663325D03*
X466369Y740883D03*
X475553Y802113D03*
X475553Y898040D03*
X427590Y296966D03*
X455143Y324519D03*
X506168Y215326D03*
X455143Y364319D03*
X612300Y440856D03*
X473512Y311253D03*
X576583Y322478D03*
X524537Y270433D03*
X552091Y722514D03*
X542906Y905184D03*
X314314Y626587D03*
X594952Y853138D03*
X535763Y670469D03*
M02*
