G04 EAGLE Gerber RS-274X export*
G75*
%MOMM*%
%FSLAX34Y34*%
%LPD*%
%AMOC8*
5,1,8,0,0,1.08239X$1,22.5*%
G01*
%ADD10C,3.203200*%
%ADD11R,1.403200X1.003200*%
%ADD12R,1.403200X1.403200*%
%ADD13R,1.473200X1.673200*%
%ADD14R,1.003200X1.403200*%
%ADD15R,1.983200X3.403200*%
%ADD16R,1.701800X2.209800*%
%ADD17R,4.013200X2.209800*%
%ADD18R,3.003200X2.603200*%
%ADD19C,2.235200*%
%ADD20R,6.403200X5.603200*%
%ADD21R,1.803200X1.203200*%
%ADD22C,1.625600*%
%ADD23R,1.673200X1.473200*%
%ADD24R,4.013200X2.286000*%
%ADD25R,9.093200X11.633200*%
%ADD26C,1.727200*%
%ADD27R,1.511200X1.511200*%
%ADD28C,1.511200*%
%ADD29C,2.298700*%
%ADD30R,1.703200X0.603200*%
%ADD31R,1.903200X3.503200*%
%ADD32R,1.803200X2.103200*%
%ADD33C,2.303200*%
%ADD34C,3.703200*%
%ADD35R,1.473200X0.762000*%
%ADD36R,0.762000X1.473200*%
%ADD37R,1.727200X0.965200*%
%ADD38C,0.653200*%
%ADD39R,3.495041X1.534159*%
%ADD40C,1.727200*%
%ADD41P,1.869504X8X112.500000*%
%ADD42C,0.959600*%


D10*
X172500Y832500D03*
X672500Y832500D03*
X172500Y132500D03*
X672500Y132500D03*
D11*
X442500Y178500D03*
X442500Y196500D03*
D12*
X648000Y165000D03*
X627000Y165000D03*
D13*
X679000Y75000D03*
X636000Y75000D03*
D14*
X439000Y42500D03*
X421000Y42500D03*
X599000Y165000D03*
X581000Y165000D03*
D15*
X609900Y100000D03*
X560100Y100000D03*
D16*
X545106Y231496D03*
X522246Y231496D03*
X499386Y231496D03*
D17*
X522500Y168504D03*
D18*
X810000Y43000D03*
X810000Y157000D03*
X749000Y43000D03*
X749000Y157000D03*
D19*
X810000Y100000D03*
X764280Y100000D03*
D20*
X437500Y105000D03*
D21*
X510500Y82200D03*
X510500Y127800D03*
D14*
X496000Y37500D03*
X514000Y37500D03*
D22*
X600200Y32888D02*
X600200Y47112D01*
X574800Y47112D02*
X574800Y32888D01*
D11*
X412500Y914000D03*
X412500Y896000D03*
D23*
X170000Y883500D03*
X170000Y926500D03*
D24*
X371400Y859600D03*
X371400Y910400D03*
D25*
X257100Y885000D03*
D11*
X712500Y589000D03*
X712500Y571000D03*
D26*
X772380Y620000D02*
X787620Y620000D01*
X787620Y595000D02*
X772380Y595000D01*
X772380Y570000D02*
X787620Y570000D01*
D11*
X715000Y731500D03*
X715000Y713500D03*
D26*
X772380Y762500D02*
X787620Y762500D01*
X787620Y737500D02*
X772380Y737500D01*
X772380Y712500D02*
X787620Y712500D01*
D11*
X415000Y784000D03*
X415000Y766000D03*
D23*
X170000Y738500D03*
X170000Y781500D03*
D24*
X371400Y729600D03*
X371400Y780400D03*
D25*
X257100Y755000D03*
D27*
X346375Y129250D03*
X346375Y205450D03*
D28*
X346375Y154650D03*
X346375Y180050D03*
X371775Y180050D03*
X371775Y154650D03*
X371775Y129250D03*
X371775Y205450D03*
D29*
X78778Y904500D02*
X57823Y904500D01*
X57823Y853700D02*
X78778Y853700D01*
X78778Y650500D02*
X57823Y650500D01*
X57823Y802900D02*
X78778Y802900D01*
X78778Y752100D02*
X57823Y752100D01*
X57823Y701300D02*
X78778Y701300D01*
X81278Y319500D02*
X60323Y319500D01*
X60323Y268700D02*
X81278Y268700D01*
X81278Y65500D02*
X60323Y65500D01*
X60323Y217900D02*
X81278Y217900D01*
X81278Y167100D02*
X60323Y167100D01*
X60323Y116300D02*
X81278Y116300D01*
D11*
X415000Y634000D03*
X415000Y616000D03*
D23*
X172500Y611000D03*
X172500Y654000D03*
D24*
X373900Y599600D03*
X373900Y650400D03*
D25*
X259600Y625000D03*
D11*
X712500Y874000D03*
X712500Y856000D03*
D26*
X772380Y905000D02*
X787620Y905000D01*
X787620Y880000D02*
X772380Y880000D01*
X772380Y855000D02*
X787620Y855000D01*
D11*
X132500Y184000D03*
X132500Y166000D03*
X132500Y134000D03*
X132500Y116000D03*
X132500Y84000D03*
X132500Y66000D03*
D30*
X368750Y382250D03*
X368750Y375750D03*
X368750Y369250D03*
X368750Y362750D03*
X368750Y356250D03*
X368750Y349750D03*
X368750Y343250D03*
X368750Y336750D03*
X368750Y330250D03*
X368750Y323750D03*
X368750Y317250D03*
X368750Y310750D03*
X368750Y304250D03*
X368750Y297750D03*
X441250Y297750D03*
X441250Y304250D03*
X441250Y310750D03*
X441250Y317250D03*
X441250Y323750D03*
X441250Y330250D03*
X441250Y336750D03*
X441250Y343250D03*
X441250Y349750D03*
X441250Y356250D03*
X441250Y362750D03*
X441250Y369250D03*
X441250Y375750D03*
X441250Y382250D03*
D14*
X324000Y312500D03*
X306000Y312500D03*
X324000Y340000D03*
X306000Y340000D03*
X339000Y285000D03*
X321000Y285000D03*
D31*
X511500Y420000D03*
X548500Y420000D03*
D14*
X503500Y340000D03*
X521500Y340000D03*
X503500Y367500D03*
X521500Y367500D03*
D11*
X560000Y358500D03*
X560000Y376500D03*
X602500Y358500D03*
X602500Y376500D03*
X602500Y303500D03*
X602500Y321500D03*
X560000Y303500D03*
X560000Y321500D03*
D14*
X521500Y315000D03*
X503500Y315000D03*
D11*
X602500Y431500D03*
X602500Y413500D03*
D14*
X521500Y287500D03*
X503500Y287500D03*
D32*
X320000Y393500D03*
X320000Y426500D03*
D14*
X781500Y467500D03*
X763500Y467500D03*
X781500Y497500D03*
X763500Y497500D03*
D33*
X722700Y275750D03*
X722700Y430650D03*
D28*
X808400Y419450D03*
X808400Y394050D03*
X808400Y312350D03*
X808400Y286950D03*
X664300Y397600D03*
X664300Y372200D03*
X664300Y346800D03*
X664300Y321400D03*
X689700Y385000D03*
X689700Y359600D03*
X689700Y334200D03*
X689700Y308800D03*
D34*
X753000Y296200D03*
X753000Y410200D03*
D26*
X122620Y449400D02*
X107380Y449400D01*
X107380Y474800D02*
X122620Y474800D01*
X122620Y500200D02*
X107380Y500200D01*
X107380Y525600D02*
X122620Y525600D01*
D11*
X465000Y924000D03*
X465000Y906000D03*
D14*
X466000Y812500D03*
X484000Y812500D03*
X466000Y765000D03*
X484000Y765000D03*
D11*
X537500Y826000D03*
X537500Y844000D03*
D12*
X575000Y845500D03*
X575000Y824500D03*
D35*
G36*
X583040Y685250D02*
X593456Y674834D01*
X588068Y669446D01*
X577652Y679862D01*
X583040Y685250D01*
G37*
G36*
X588697Y690907D02*
X599113Y680491D01*
X593725Y675103D01*
X583309Y685519D01*
X588697Y690907D01*
G37*
G36*
X594354Y696563D02*
X604770Y686147D01*
X599382Y680759D01*
X588966Y691175D01*
X594354Y696563D01*
G37*
G36*
X600011Y702220D02*
X610427Y691804D01*
X605039Y686416D01*
X594623Y696832D01*
X600011Y702220D01*
G37*
G36*
X605668Y707877D02*
X616084Y697461D01*
X610696Y692073D01*
X600280Y702489D01*
X605668Y707877D01*
G37*
G36*
X611325Y713534D02*
X621741Y703118D01*
X616353Y697730D01*
X605937Y708146D01*
X611325Y713534D01*
G37*
G36*
X616981Y719191D02*
X627397Y708775D01*
X622009Y703387D01*
X611593Y713803D01*
X616981Y719191D01*
G37*
G36*
X622638Y724848D02*
X633054Y714432D01*
X627666Y709044D01*
X617250Y719460D01*
X622638Y724848D01*
G37*
D36*
G36*
X627666Y745956D02*
X633054Y740568D01*
X622638Y730152D01*
X617250Y735540D01*
X627666Y745956D01*
G37*
G36*
X622009Y751613D02*
X627397Y746225D01*
X616981Y735809D01*
X611593Y741197D01*
X622009Y751613D01*
G37*
G36*
X616353Y757270D02*
X621741Y751882D01*
X611325Y741466D01*
X605937Y746854D01*
X616353Y757270D01*
G37*
G36*
X610696Y762927D02*
X616084Y757539D01*
X605668Y747123D01*
X600280Y752511D01*
X610696Y762927D01*
G37*
G36*
X605039Y768584D02*
X610427Y763196D01*
X600011Y752780D01*
X594623Y758168D01*
X605039Y768584D01*
G37*
G36*
X599382Y774241D02*
X604770Y768853D01*
X594354Y758437D01*
X588966Y763825D01*
X599382Y774241D01*
G37*
G36*
X593725Y779897D02*
X599113Y774509D01*
X588697Y764093D01*
X583309Y769481D01*
X593725Y779897D01*
G37*
G36*
X588068Y785554D02*
X593456Y780166D01*
X583040Y769750D01*
X577652Y775138D01*
X588068Y785554D01*
G37*
D35*
G36*
X561932Y785554D02*
X572348Y775138D01*
X566960Y769750D01*
X556544Y780166D01*
X561932Y785554D01*
G37*
G36*
X556275Y779897D02*
X566691Y769481D01*
X561303Y764093D01*
X550887Y774509D01*
X556275Y779897D01*
G37*
G36*
X550618Y774241D02*
X561034Y763825D01*
X555646Y758437D01*
X545230Y768853D01*
X550618Y774241D01*
G37*
G36*
X544961Y768584D02*
X555377Y758168D01*
X549989Y752780D01*
X539573Y763196D01*
X544961Y768584D01*
G37*
G36*
X539304Y762927D02*
X549720Y752511D01*
X544332Y747123D01*
X533916Y757539D01*
X539304Y762927D01*
G37*
G36*
X533647Y757270D02*
X544063Y746854D01*
X538675Y741466D01*
X528259Y751882D01*
X533647Y757270D01*
G37*
G36*
X527991Y751613D02*
X538407Y741197D01*
X533019Y735809D01*
X522603Y746225D01*
X527991Y751613D01*
G37*
G36*
X522334Y745956D02*
X532750Y735540D01*
X527362Y730152D01*
X516946Y740568D01*
X522334Y745956D01*
G37*
D36*
G36*
X527362Y724848D02*
X532750Y719460D01*
X522334Y709044D01*
X516946Y714432D01*
X527362Y724848D01*
G37*
G36*
X533019Y719191D02*
X538407Y713803D01*
X527991Y703387D01*
X522603Y708775D01*
X533019Y719191D01*
G37*
G36*
X538675Y713534D02*
X544063Y708146D01*
X533647Y697730D01*
X528259Y703118D01*
X538675Y713534D01*
G37*
G36*
X544332Y707877D02*
X549720Y702489D01*
X539304Y692073D01*
X533916Y697461D01*
X544332Y707877D01*
G37*
G36*
X549989Y702220D02*
X555377Y696832D01*
X544961Y686416D01*
X539573Y691804D01*
X549989Y702220D01*
G37*
G36*
X555646Y696563D02*
X561034Y691175D01*
X550618Y680759D01*
X545230Y686147D01*
X555646Y696563D01*
G37*
G36*
X561303Y690907D02*
X566691Y685519D01*
X556275Y675103D01*
X550887Y680491D01*
X561303Y690907D01*
G37*
G36*
X566960Y685250D02*
X572348Y679862D01*
X561932Y669446D01*
X556544Y674834D01*
X566960Y685250D01*
G37*
D11*
X595000Y924000D03*
X595000Y906000D03*
D14*
X484000Y692500D03*
X466000Y692500D03*
D37*
X557940Y883450D03*
X502060Y883450D03*
X557940Y921550D03*
X502060Y921550D03*
D38*
X623000Y657275D02*
X623000Y642725D01*
X635000Y642725D02*
X635000Y657275D01*
X647000Y657275D02*
X647000Y642725D01*
D39*
X634975Y649975D03*
D14*
X484000Y637500D03*
X466000Y637500D03*
D40*
X657700Y532100D03*
D41*
X657700Y557500D03*
X657700Y582900D03*
X632300Y532100D03*
X632300Y557500D03*
X632300Y582900D03*
D42*
X621485Y591890D03*
X124501Y156137D03*
X515353Y720473D03*
X564337Y567398D03*
X430651Y433713D03*
X584747Y590870D03*
X361257Y279617D03*
X581685Y690879D03*
X537804Y811298D03*
X559234Y789867D03*
X423508Y380647D03*
X601075Y779662D03*
X382688Y356155D03*
X608218Y772519D03*
X352073Y339827D03*
X593931Y744965D03*
X460246Y878651D03*
X514332Y709248D03*
X338806Y533722D03*
X538824Y789867D03*
X493922Y817421D03*
X600054Y719453D03*
X466369Y679653D03*
X427590Y296966D03*
X455143Y324519D03*
X323499Y296966D03*
X511271Y216346D03*
X455143Y363298D03*
X695981Y467389D03*
X492902Y310232D03*
X576583Y322478D03*
X451061Y278597D03*
X740883Y496984D03*
X672510Y496984D03*
X554132Y496984D03*
X427590Y370442D03*
X538824Y734760D03*
X453102Y910286D03*
X509230Y633731D03*
X445959Y885794D03*
X499025Y633731D03*
M02*
