M48
;GenerationSoftware,Autodesk,EAGLE,9.2.2*%
;CreationDate,2018-12-28T15:37:17Z*%
FMAT,2
ICI,OFF
METRIC,TZ,000.000
T10C0.350
T9C0.800
T8C1.000
T7C1.016
T6C1.397
T5C1.400
T4C1.499
T3C2.032
T2C3.000
T1C3.500
%
G90
M71
T1
X75300Y30620
X75300Y42020
T2
X17250Y83250
X67250Y83250
X17250Y13250
X67250Y13250
T3
X77428Y10000
X82000Y10000
T4
X79005Y26755
X79005Y19745
T5
X72270Y28575
X72270Y44065
T6
X7080Y21630
X7080Y16550
X7080Y26710
X7080Y31790
X7080Y11470
X7080Y36870
X7080Y41950
X7080Y6390
X7080Y47030
X7080Y52110
X7080Y70130
X7080Y75210
X7080Y80290
X7080Y65050
X7080Y85370
X7080Y90450
T7
X79750Y90250
X79750Y87750
X79750Y85250
X72250Y49980
X72250Y55060
X72250Y52520
X72250Y47440
X81495Y20989
X81495Y25511
X79750Y65250
X79750Y62750
X79750Y60250
X79750Y77750
X79750Y75250
X79750Y72750
T8
X65040Y91270
X59960Y88730
X59960Y91270
X62500Y88730
X62500Y91270
X65040Y88730
T9
X80840Y32235
X80840Y29695
X66430Y40760
X25112Y39285
X80840Y42945
X66430Y38220
X80840Y40405
X66430Y35680
X66430Y33140
X68970Y39500
X68970Y36960
X68970Y34420
X68970Y31880
X25112Y41825
X25112Y34205
X25112Y36745
X22572Y36745
X22572Y39285
X22572Y41825
X22572Y34205
T10
X41330Y47861
X67047Y70823
X38473Y37350
X62863Y73884
X56434Y78170
X62046Y74599
X9797Y26227
X53372Y70210
X10511Y33779
X48372Y71129
X47147Y46331
X45718Y34799
X58475Y74803
X10205Y6735
X38983Y41943
X44086Y19287
X49800Y18165
X54291Y36840
X39391Y36840
X61230Y81640
X43167Y47861
X64700Y77456
X51535Y73272
X10511Y23778
X72251Y92763
X20614Y42351
X57046Y71129
X67965Y87457
X48474Y67965
X52454Y72149
X63169Y71231
X56638Y68067
X60924Y74599
X65618Y74803
X50821Y79497
X67251Y88171
X65006Y69190
X55107Y74905
X42555Y77558
X13777Y22655
X45004Y62761
X10409Y18471
X62148Y79089
X55719Y76333
X46331Y31533
X64496Y32860
X45718Y32350
X61638Y32146
X60720Y86538
X48168Y25308
X35718Y37759
X58373Y73170
X62863Y77660
X58475Y69904
M30