M48
;GenerationSoftware,Autodesk,EAGLE,9.4.0*%
;CreationDate,2019-04-29T17:09:22Z*%
FMAT,2
ICI,OFF
METRIC,TZ,000.000
T11C0.350
T10C0.800
T9C0.813
T8C1.000
T7C1.016
T6C1.270
T5C1.400
T4C1.499
T3C2.032
T2C3.000
T1C3.500
%
G90
M71
T1
X75300Y30620
X75300Y42020
T2
X17250Y83250
X67250Y83250
X17250Y13250
X67250Y13250
T3
X82000Y10000
X77428Y10000
T4
X79005Y26755
X79005Y19745
T5
X72270Y44065
X72270Y28575
T6
X5000Y72345
X5000Y76155
X5000Y79965
X5000Y83775
X5000Y87585
X5000Y91395
X5000Y5130
X5000Y12750
X5000Y16560
X5000Y20370
X5000Y26130
X5000Y29940
X5000Y33750
X5000Y37560
X5000Y41370
X5000Y47345
X5000Y51155
X5000Y57105
X5000Y8940
X5000Y68535
X5000Y64725
X5000Y60915
T7
X79750Y90250
X81495Y20989
X79750Y85250
X72250Y47440
X79750Y60250
X79750Y65250
X79750Y62750
X79750Y87750
X81495Y25511
X79750Y75250
X79750Y72750
X72250Y55060
X72250Y52520
X72250Y49980
X79750Y77750
T8
X66000Y91270
X68540Y88730
X68540Y91270
X40520Y37420
X63460Y88730
X63460Y91270
X66000Y88730
X40520Y34880
X37980Y34880
X37980Y37420
X40520Y39960
X37980Y39960
X40520Y42500
X37980Y42500
X40520Y45040
X37980Y45040
X40520Y47580
X37980Y47580
X40520Y50120
X37980Y50120
T9
X56310Y92000
X48690Y92000
T10
X67255Y64362
X64715Y64362
X62175Y64362
X62175Y61822
X68970Y31880
X68970Y34420
X68970Y36960
X68970Y39500
X69795Y64362
X66430Y33140
X66430Y35680
X66430Y38220
X66430Y40760
X80840Y29695
X80840Y32235
X80840Y40405
X80840Y42945
X69795Y61822
X64715Y61822
X67255Y61822
T11
X12960Y66537
X15716Y72660
X16736Y67965
X15716Y76027
X18777Y68169
X18879Y75925
X33064Y69190
X40922Y69190
X46229Y66333
X44800Y66333
X64598Y87151
X45616Y63271
X44188Y61842
X18573Y55821
X31329Y85110
X23574Y75823
X35207Y82048
X20206Y52862
X37350Y80824
X25717Y49596
X35411Y64904
X40514Y31329
X33064Y37452
X44494Y25206
X28472Y68169
X28472Y65414
X28472Y72149
X29697Y74803
X29697Y78579
X56638Y77354
X58168Y77252
X61128Y76435
X70619Y78783
X61638Y68476
X61842Y72047
X33779Y69904
X59393Y74701
X57760Y67557
X59699Y59883
X51739Y50923
X75211Y68884
X78681Y55821
X62863Y52556
X75925Y63475
X70312Y57862
X64419Y59112
X67149Y78681
X51841Y36126
X44086Y34799
X45106Y35820
X65312Y74497
X71741Y61944
X71741Y60924
X61026Y38881
X56536Y40514
X54699Y43575
X53780Y36636
X51637Y6939
X58883Y32452
X58883Y33881
X57250Y34187
X62557Y31635
X46535Y35309
X64598Y71537
X55923Y71027
X58781Y66843
X18471Y41024
X16328Y42249
X58475Y72660
X60312Y69802
X25717Y44596
X16328Y46025
X61638Y73476
X58883Y71333
X60414Y75721
X50821Y63883
X51637Y10613
X49392Y12858
X68884Y3470
X62353Y78476
X63883Y73476
X18981Y37759
X15818Y33064
X16328Y32146
X19185Y35003
X20104Y27656
X26125Y8878
X20308Y33881
X18063Y31635
X13369Y15205
X26125Y15614
X22553Y30411
X15512Y16328
X22859Y16328
X21737Y37759
X12348Y13573
X26125Y10613
X12960Y12756
X23063Y32656
X49086Y76027
X48474Y82661
X43269Y90416
X18777Y61842
X20716Y62353
X20614Y77252
X50107Y67047
X48474Y68782
X25002Y76538
X39800Y80109
X28370Y76435
X40616Y79293
X18675Y60822
M30